<?xml version="1.0" encoding="utf-8"?>
<!-- Generator: Adobe Illustrator 26.0.1, SVG Export Plug-In . SVG Version: 6.00 Build 0)  -->
<svg version="1.1" id="Layer_1" xmlns="http://www.w3.org/2000/svg" xmlns:xlink="http://www.w3.org/1999/xlink" x="0px" y="0px"
	 viewBox="0 0 464.9 500" style="enable-background:new 0 0 464.9 500;" xml:space="preserve">
<style type="text/css">
	.st0{fill:#138F34;}
	.st1{fill:#FF8500;}
</style>
<g>
	<g>
		<path class="st0" d="M87.3,0h327.4c0,0,0.8,13.5,12.6,22.7c0,0,0,9.3-2.5,16l0.8,37.9c0,0,3.4,15.2,13.5,16
			c0,0,18.5,10.1,23.6,10.9c0,0,8.4,7.6-8.4,17.7c0,0-11.8,2.5-17.7,10.9l-13.5,4.2l-5.1,26.1l-11.8,21l1.7,41.2
			c0,0-8.4,6.7-10.1,27.8c0,0-5.9,0-10.9,1.7l-16.8,21c0,0-2.5,24.4-6.7,29.5c0,0-8.4-5.1-10.9-3.4c0,0-7.6,5-6.7,19.4
			c0,0-8.4,10.9-5.9,18.5c0,0,5.1,21,0.8,26.1c0,0,0.8,1.7-22.7-0.8c0,0-15.2,18.5,3.4,22.7c0,0,16.8,2.5,18.5,7.6
			c0,0,8.4,15.2,15.2,16c0,0,5,5.9,9.3,21c0,0,7.6,16,21,17.7l5,19.4c0,0-32-2.5-38.7,3.4c0,0-10.1,2.5-27.8,22.7
			c0,0-21-5.1-26.9-0.8c0,0,8.4,7.6-22.7,0.8c0,0-5.9,0.8-13.5-1.7c0,0-11.8,6.7-17.7,6.7c0,0-19.4-21-25.3-27.8
			c0,0-9.3,0.8-14.3,5.9c0,0-9.3-8.4-19.4,0.8c0,0-9.3,0-21.9-13.5l-5.9-3.4c0,0-1.7-12.6-4.2-22.7c0,0-12.6,3.4-21.9-12.6
			l-2.5-13.5l-32-22.7c0,0-5.1-17.7-9.3-19.4c0,0-11.8,0.8-18.5-5.9v-5.1c0,0-15.2,0.8-19.4-5c0,0-5.1-8.4,5.9-16.8L52,319.9l-21-21
			c0,0-1.7,0,2.5-10.9c0,0-11.8-4.2-16-35.4c0,0-10.1-2.5-15.2,0c0,0-8.4-4.2,6.7-19.4c0,0-1.7-16,5.9-16.8l7.6-4.2
			c0,0-0.8-5.9-3.4-12.6c0,0,18.5-15.2,17.7-30.3l25.3-0.8c0,0-5.9-113.6,4.2-116.2l21,0.8V0z"/>
	</g>
	<g>
		<g>
			<path class="st1" d="M128.4,295c-8.7,0-16.5-0.7-16.5-0.7s-0.2-14.5-0.4-24.8c-0.1-5.3,0.4-14,0.4-14s8.1-0.5,16.5-0.5
				c8.3-0.1,15,2.2,15,10.7c0,4.6-2.1,7.1-4.8,8.1v0.3c3.5,0.8,6.3,3.4,6.3,9C144.9,291.9,137.6,295,128.4,295z M128.4,259.1
				c-5.2,0.2-9.9,0.4-11.7,0.5v12.2c1.9,0,6.6,0,11.7,0c6.1,0,10.5-1,10.5-6.2C138.9,260.4,134.1,259.1,128.4,259.1z M128.4,276.4
				c-5.3,0-9.9,0-11.7,0l0.2,13.4c4.2,0.2,5,0.7,11.6,0.6c6.4,0,11.7-1.8,11.7-7.4C140.2,277.4,134.8,276.4,128.4,276.4z"/>
			<path class="st1" d="M128.4,295.3c-8.6,0-16.4-0.7-16.5-0.7l-0.2,0l0-0.2c0,0-0.2-14.5-0.4-24.8c-0.1-5.2,0.4-14,0.4-14l0-0.2
				l0.2,0c0.1,0,8.2-0.5,16.5-0.5l0.3,0c10.1,0,14.9,3.6,14.9,11c0,4-1.7,7-4.7,8.2c2.5,0.7,6.2,2.7,6.2,9.2
				C145.2,293.1,136.1,295.3,128.4,295.3z M112.2,294.1c1.4,0.1,8.4,0.7,16.2,0.7c7.4,0,16.2-2,16.2-11.8c0-4.7-2.2-7.8-6.1-8.7
				l-0.2,0v-0.7l0.2-0.1c1.7-0.6,4.6-2.4,4.6-7.8c0-7.1-4.6-10.4-14.4-10.4l-0.3,0c-7.5,0-14.8,0.4-16.2,0.5
				c-0.1,1.4-0.4,9.1-0.4,13.8C112,279,112.2,292.2,112.2,294.1z M127.5,290.6c-3.5,0-5.3-0.2-7-0.3c-1.1-0.1-2.2-0.2-3.7-0.3
				l-0.2,0l-0.2-13.9h12c5.9,0,12,0.8,12,6.9c0,5-4.1,7.6-12,7.6C128.1,290.6,127.8,290.6,127.5,290.6z M117.1,289.5
				c1.4,0.1,2.5,0.2,3.5,0.3c1.8,0.2,3.7,0.4,7.8,0.3c5.2,0,11.5-1.2,11.5-7.1c0-5.6-5.8-6.4-11.5-6.4H117L117.1,289.5z
				 M128.4,272.1h-12v-12.7l0.3,0c0.7,0,1.9-0.1,3.4-0.1c2.2-0.1,5.2-0.2,8.3-0.3h0c4.6,0,10.7,0.7,10.7,6.7
				C139.2,271.3,134,272.1,128.4,272.1z M117,271.6h11.5c6.1,0,10.2-1,10.2-5.9c0-4.2-3.2-6.2-10.2-6.2c-3.1,0.1-6.1,0.2-8.3,0.3
				c-1.3,0.1-2.4,0.1-3.2,0.1V271.6z"/>
		</g>
		<g>
			<path class="st1" d="M180.6,294.3h-4.3l0.2-2.9h-0.3c-1.5,1.7-5.4,3.5-9.2,3.5c-8.3,0-15.1-3.1-15.1-15.7
				c0-12.6,6.7-15.7,14.9-15.7c8.3,0,15,3,15,15.7L180.6,294.3z M167.4,268.1c-5.8-0.3-10.3,1.7-10.8,10.6
				c-0.4,8.9,3.8,11.4,9.6,11.6c5.8,0.3,10.3-1.8,10.7-10.6C177.4,270.7,173.2,268.4,167.4,268.1z"/>
			<path class="st1" d="M166.9,295.2c-10.5,0-15.3-5.1-15.3-16c0-10.9,4.8-15.9,15.2-15.9c6.5,0,15.2,1.7,15.2,15.9l-1.2,15.4H176
				l0.2-2.8C174.6,293.5,170.8,295.2,166.9,295.2z M166.8,263.8c-6.3,0-14.7,1.6-14.7,15.4c0,10.6,4.7,15.5,14.8,15.5
				c3.8,0,7.6-1.7,9-3.4l0.1-0.1h0.7l-0.2,2.9h3.8l1.1-14.9C181.5,265.5,173.6,263.8,166.8,263.8z M167.3,290.6L167.3,290.6
				c-0.4,0-0.7,0-1.1,0c-3.5-0.2-5.9-1.1-7.5-2.9c-1.8-2-2.5-4.9-2.3-9c0.4-7.4,3.6-10.9,10.1-10.9c0.3,0,0.7,0,1,0
				c3.5,0.2,5.9,1.1,7.5,2.8c1.8,1.9,2.5,4.9,2.3,9.1C176.8,287.2,173.7,290.6,167.3,290.6z M166.4,268.3c-6.2,0-9.2,3.2-9.5,10.4
				c-0.2,4,0.5,6.8,2.2,8.6c1.5,1.7,3.9,2.6,7.2,2.7c0.4,0,0.7,0,1.1,0c6,0,9-3.3,9.3-10.4c0.2-4-0.5-6.8-2.1-8.7
				c-1.5-1.7-3.8-2.5-7.2-2.7C167,268.3,166.7,268.3,166.4,268.3z"/>
		</g>
		<g>
			<path class="st1" d="M203.5,268.4c-5.6,0.1-9.3,2.1-9.5,10.1l-0.3,15.8h-4.4v-14.8c0-12.2,6.2-15.8,14.7-15.8h1.4v4.8
				C205.4,268.5,204,268.3,203.5,268.4z"/>
			<path class="st1" d="M193.9,294.6H189v-15.1c0-10.8,4.9-16.1,15-16.1h1.7v5.3l-0.3,0c0,0-1.3-0.2-1.8-0.1
				c-4.7,0.1-9.1,1.4-9.3,9.9L193.9,294.6z M189.5,294h3.9l0.3-15.5c0.1-7.3,3-10.3,9.7-10.4c0.1,0,0.1,0,0.2,0c0.4,0,1,0.1,1.4,0.1
				V264h-1.2c-9.8,0-14.4,4.9-14.4,15.5V294z"/>
		</g>
		<g>
			<path class="st1" d="M240.4,288.2c0,19-6.2,19-18.6,18.5l0.3-3.8c11-0.2,12.2,1,13.4-11.9c-0.1,0-0.3,0-0.3,0
				c-0.5,0.9-3.3,4.1-9.3,4.1c-9.3,0-14.9-3.1-14.9-15.6c0-12.7,6.4-15.9,14.9-15.9c8.6,0,14.9,3.2,14.9,15.9
				C240.7,279.5,240.4,285.4,240.4,288.2z M226.4,268.2c-5.8-0.3-10.3,1.8-10.8,10.7c-0.4,9,3.8,11.2,9.6,11.6
				c5.8,0.3,10.3-1.5,10.7-10.5C236.5,270.9,232.2,268.5,226.4,268.2z"/>
			<path class="st1" d="M226.8,307.1c-1.5,0-3.3-0.1-5-0.1l-0.3,0l0.3-4.3l0.2,0c0.9,0,1.7,0,2.5,0c8.5,0,9.5-0.1,10.6-11.2
				c-0.9,1.3-3.9,3.9-9.4,3.9c-7.9,0-15.1-1.9-15.1-15.9c0-11.2,4.7-16.2,15.1-16.2c10.5,0,15.2,5,15.2,16.2c0,0.1-0.3,6-0.3,8.7
				C240.7,304.3,236.2,307.1,226.8,307.1z M222.1,306.4c1.7,0.1,3.3,0.1,4.7,0.1c9.2,0,13.3-2.7,13.3-18.4c0-2.8,0.3-8.7,0.3-8.7
				c0-13.9-7.8-15.6-14.7-15.6c-10.1,0-14.6,4.8-14.6,15.6c0,12.8,5.8,15.4,14.6,15.4c5.7,0,8.5-2.9,9.1-4l0.1-0.1l0.1,0
				c0,0,0.1,0,0.3,0c0.1,0,0.2,0,0.3,0.1l0.1,0.1l0,0.1c-1.1,12.1-2.5,12.1-11.1,12.1c-0.7,0-1.5,0-2.3,0L222.1,306.4z M226.4,290.8
				C226.4,290.8,226.4,290.8,226.4,290.8c-0.4,0-0.7,0-1.1,0c-5.2-0.3-10.4-1.9-9.9-11.8c0.4-7.5,3.6-11,10.1-11c0.3,0,0.7,0,1,0
				c4.8,0.3,10.3,1.9,9.8,12.1C235.9,287.5,232.8,290.8,226.4,290.8z M225.5,268.4c-6.2,0-9.2,3.2-9.6,10.5
				c-0.5,9.5,4.5,11,9.4,11.3c0.4,0,0.7,0,1.1,0h0c4.4,0,8.9-1.2,9.4-10.3c0.5-9.7-4.4-11.2-9.3-11.5
				C226.1,268.4,225.8,268.4,225.5,268.4z"/>
		</g>
		<g>
			<path class="st1" d="M277.1,294.3h-4.3l0.2-2.9h-0.3c-1.5,1.7-5.4,3.5-9.2,3.5c-8.3,0-15.1-3.1-15.1-15.7
				c0-12.6,6.7-15.7,14.9-15.7c8.3,0,15,3,15,15.7L277.1,294.3z M263.9,268.1c-5.8-0.3-10.3,1.7-10.8,10.6
				c-0.4,8.9,3.8,11.4,9.7,11.6c5.8,0.3,10.2-1.8,10.7-10.6C273.9,270.7,269.7,268.4,263.9,268.1z"/>
			<path class="st1" d="M263.4,295.2c-10.5,0-15.3-5.1-15.3-16c0-10.9,4.8-15.9,15.2-15.9c6.5,0,15.2,1.7,15.2,15.9l-1.2,15.4h-4.9
				l0.2-2.8C271.1,293.5,267.3,295.2,263.4,295.2z M263.3,263.8c-6.3,0-14.7,1.6-14.7,15.4c0,10.6,4.7,15.5,14.8,15.5
				c3.8,0,7.6-1.7,9-3.4l0.1-0.1h0.7l-0.2,2.9h3.8l1.1-14.9C278,265.5,270.1,263.8,263.3,263.8z M263.8,290.6
				C263.8,290.6,263.8,290.6,263.8,290.6c-0.4,0-0.7,0-1.1,0c-3.5-0.2-5.9-1.1-7.6-2.9c-1.8-2-2.5-4.9-2.3-9
				c0.4-7.4,3.6-10.9,10.1-10.9c0.3,0,0.7,0,1,0c3.5,0.2,5.9,1.1,7.5,2.8c1.8,1.9,2.5,4.9,2.3,9.1
				C273.3,287.2,270.2,290.6,263.8,290.6z M262.9,268.3c-6.2,0-9.2,3.2-9.5,10.4c-0.2,4,0.5,6.8,2.2,8.6c1.5,1.7,3.9,2.6,7.2,2.7
				c0.4,0,0.7,0,1.1,0c6,0,9-3.3,9.3-10.4c0.2-4-0.5-6.9-2.1-8.7c-1.5-1.7-3.8-2.5-7.2-2.7C263.5,268.3,263.2,268.3,262.9,268.3z"/>
		</g>
		<g>
			<path class="st1" d="M285.7,260.5v-5h5.3v5H285.7z M290.5,294.3H286v-30.1h4.8C290.9,276.6,290.5,294.3,290.5,294.3z"/>
			<path class="st1" d="M290.7,294.6h-5v-30.6h5.3v0.3c0,12.3-0.4,29.9-0.4,30.1L290.7,294.6z M286.3,294h3.9
				c0-2.2,0.4-18.2,0.4-29.6h-4.3V294z M291.3,260.7h-5.8v-5.6h5.8V260.7z M286,260.2h4.8v-4.5H286V260.2z"/>
		</g>
		<g>
			<path class="st1" d="M303,294.3h-4.4v-38.8c0,0,4.6,0,4.6,0s0.3,6.7,0.2,12.6C303.2,279.3,303,294.3,303,294.3z"/>
			<path class="st1" d="M303.3,294.6h-5v-39.1c0-0.3,0-0.3,4.8-0.3h0.2l0,0.2c0,0.1,0.3,6.8,0.2,12.6c-0.2,11.2-0.3,26.1-0.3,26.3
				L303.3,294.6z M298.9,294h3.9c0-2,0.2-15.7,0.3-26c0.1-5.2-0.2-11.1-0.2-12.3c-1.4,0-3.4,0-4.1,0V294z"/>
		</g>
	</g>
	<g>
		<path class="st1" d="M153.5,212.4h6.2v6.8h-7.4c-2.7,5.4-10.3,11.1-23.6,11.1c-16.5,0-20-11.1-20-16.5c0-16.8,15.7-18.4,15.7-18.4
			l2.4,6.5c-5.7,0-11.2,3-11.2,11.1c0,5.4,4.3,10.4,13.9,10.4c9.6,0,17.2-5.4,17.2-11.1v-46.9h6.8V212.4z"/>
		<path class="st1" d="M167.8,212.4v-21.3h6.8v21.3h8.7v6.9l-26.1-0.1v-6.8H167.8z M169.4,227.6c0.3,2.6-1.4,4.9-3.9,5.2
			c-2.6,0.4-5-1.4-5.3-4c-0.3-2.6,1.4-4.9,4-5.2C166.7,223.2,169.1,225,169.4,227.6z M179.4,227.6c0.3,2.6-1.4,4.9-4,5.2
			c-2.6,0.4-5-1.4-5.3-4c-0.3-2.6,1.4-4.9,4-5.2C176.7,223.2,179.1,225,179.4,227.6z"/>
		<path class="st1" d="M226.9,212.4c3.4,0,4-1.8,4-5.9c0-13.5-14.2-19.1-20.4-19c-5.4,0.1-15.3,5.7-15.4,14.1
			c9.1-0.1,16,0.3,27.3-0.1c-1.1,1.9-4.9,7.2-4.2,6.8l-30.6,0.1c0,0-0.8-6.8,0.6-10.7c3.2-9.5,12.5-16.9,22.6-16.9
			c14.5,0,27.1,11.2,27,23.6c-0.1,15.4-5.4,14.7-24.9,14.7c-12.2,0-33.2,0-33.2,0v-6.8H226.9z M209.5,169.7c0.3,2.6-1.4,4.9-3.9,5.2
			c-2.6,0.4-5-1.4-5.3-4c-0.3-2.6,1.4-4.9,4-5.2C206.8,165.3,209.2,167.1,209.5,169.7z M219.5,169.7c0.3,2.6-1.4,4.9-4,5.2
			c-2.6,0.4-5-1.4-5.3-4c-0.3-2.6,1.4-4.9,4-5.2C216.8,165.3,219.2,167.1,219.5,169.7z"/>
		<path class="st1" d="M268.5,191v24c0,8-3.3,14-6.3,15.7c-3.9,3-10.4,3.7-21.1,3.7l1.3-7c9,0,19.3,0.3,19.3-10V191H268.5z"/>
		<path class="st1" d="M293.9,219.3h-17.5v-54.1h6.8v47.3h10.6V219.3z"/>
		<path class="st1" d="M301.6,212.4v-21.3h6.8v28.1H291v-6.8H301.6z M305.5,227.6c0.3,2.6-1.4,4.9-3.9,5.2c-2.6,0.4-5-1.4-5.3-4
			c-0.3-2.6,1.4-4.9,4-5.2C302.8,223.2,305.2,225,305.5,227.6z"/>
	</g>
</g>
</svg>
