<?xml version="1.0" encoding="utf-8"?>
<!-- Generator: Adobe Illustrator 26.0.1, SVG Export Plug-In . SVG Version: 6.00 Build 0)  -->
<svg version="1.1" id="katman_1" xmlns="http://www.w3.org/2000/svg" xmlns:xlink="http://www.w3.org/1999/xlink" x="0px" y="0px"
	 viewBox="0 0 500 107.7" style="enable-background:new 0 0 500 107.7;" xml:space="preserve">
<style type="text/css">
	.st0{fill:#055A8D;}
	.st1{fill-rule:evenodd;clip-rule:evenodd;fill:url(#SVGID_1_);}
	.st2{fill-rule:evenodd;clip-rule:evenodd;fill:url(#SVGID_00000046334088816843181670000003114289277433428633_);}
	.st3{fill-rule:evenodd;clip-rule:evenodd;fill:url(#SVGID_00000105404345363491371230000009196008723028462986_);}
	.st4{fill-rule:evenodd;clip-rule:evenodd;fill:#CCCCCC;}
	.st5{fill:#FF0001;}
</style>
<g>
	<path class="st0" d="M228.6,31.6h6.6c2.5,0,4.4-0.4,5.6-1.3c1.2-0.9,1.9-2.2,1.9-4c0-1.9-0.6-3.2-1.9-4.1c-1.2-0.9-3.3-1.3-6.1-1.3
		h-6.1V31.6L228.6,31.6z M228.6,51h6.6c2.9,0,5-0.5,6.4-1.6c1.3-1,2-2.7,2-5c0-2.1-0.7-3.7-2-4.8c-1.3-1-3.3-1.6-6-1.6h-6.9V51
		L228.6,51z M220.7,57.7V14.1h15.5c4.7,0,8.2,1,10.7,3c2.4,2,3.7,4.8,3.7,8.6c0,2.1-0.5,3.9-1.5,5.4c-1,1.5-2.6,2.7-4.7,3.8
		c2.4,0.8,4.2,2.1,5.4,3.9c1.2,1.8,1.8,4,1.8,6.7c0,4.1-1.3,7.2-3.9,9.2c-2.6,2-6.5,3-11.9,3H220.7L220.7,57.7z M266.2,41.2h10.9
		l-5.5-19.5L266.2,41.2L266.2,41.2z M253.9,57.7l12.9-43.6h10l12.8,43.6h-8l-2.6-9.5h-14.7l-2.7,9.5H253.9L253.9,57.7z M290.2,47.9
		l7.3-3.3c1.1,2.3,2.4,4,3.8,5.1c1.4,1.1,3,1.6,4.9,1.6c2.1,0,3.8-0.5,5.1-1.5c1.2-1,1.9-2.3,1.9-4.1c0-1.3-0.5-2.5-1.4-3.4
		c-0.9-0.9-2.6-1.8-4.9-2.7c-0.3-0.1-0.8-0.3-1.4-0.5c-4.2-1.6-7.1-2.9-8.7-4c-1.6-1.1-2.9-2.4-3.7-4.1c-0.9-1.6-1.3-3.5-1.3-5.6
		c0-3.5,1.3-6.4,3.9-8.6c2.6-2.2,5.9-3.3,10.1-3.3c3.6,0,6.7,0.8,9.1,2.4c2.4,1.6,4.2,4,5.3,7.1l-7.3,2.7c-0.9-1.9-2-3.4-3.2-4.3
		c-1.2-0.9-2.7-1.3-4.5-1.3c-1.7,0-3.1,0.4-4.1,1.3c-1,0.8-1.5,1.9-1.5,3.4c0,2.2,2.5,4.3,7.4,6.3c1.5,0.6,2.7,1.1,3.6,1.5
		c4.1,1.8,6.9,3.6,8.4,5.4c1.5,1.9,2.2,4.3,2.2,7.3c0,4-1.3,7.2-3.9,9.5c-2.6,2.3-6.1,3.5-10.6,3.5c-3.9,0-7.2-0.9-10-2.6
		C293.6,53.9,291.6,51.3,290.2,47.9L290.2,47.9z M327.2,57.7V14.1h8.1v43.6H327.2L327.2,57.7z M341.2,47.9l7.3-3.3
		c1.1,2.3,2.4,4,3.8,5.1c1.4,1.1,3,1.6,4.9,1.6c2.1,0,3.8-0.5,5.1-1.5c1.2-1,1.9-2.3,1.9-4.1c0-1.3-0.5-2.5-1.4-3.4
		c-0.9-0.9-2.6-1.8-4.9-2.7c-0.3-0.1-0.8-0.3-1.4-0.5c-4.2-1.6-7.1-2.9-8.7-4c-1.6-1.1-2.9-2.4-3.7-4.1c-0.9-1.6-1.3-3.5-1.3-5.6
		c0-3.5,1.3-6.4,3.9-8.6c2.6-2.2,5.9-3.3,10.1-3.3c3.6,0,6.7,0.8,9.1,2.4c2.4,1.6,4.2,4,5.3,7.1l-7.3,2.7c-0.9-1.9-2-3.4-3.2-4.3
		c-1.2-0.9-2.7-1.3-4.5-1.3c-1.7,0-3.1,0.4-4.1,1.3c-1,0.8-1.5,1.9-1.5,3.4c0,2.2,2.5,4.3,7.4,6.3c1.5,0.6,2.7,1.1,3.6,1.5
		c4.1,1.8,6.9,3.6,8.4,5.4c1.5,1.9,2.2,4.3,2.2,7.3c0,4-1.3,7.2-3.9,9.5c-2.6,2.3-6.1,3.5-10.6,3.5c-3.9,0-7.2-0.9-10-2.6
		C344.6,53.9,342.6,51.3,341.2,47.9L341.2,47.9z"/>
	
		<radialGradient id="SVGID_1_" cx="356.3558" cy="151.0203" r="36.3559" gradientTransform="matrix(1 0 0 1 -188.2056 -123.7588)" gradientUnits="userSpaceOnUse">
		<stop  offset="0" style="stop-color:#FFFFFF"/>
		<stop  offset="3.000000e-02" style="stop-color:#FFFFFF"/>
		<stop  offset="0.57" style="stop-color:#FF0001"/>
		<stop  offset="1" style="stop-color:#FF0001"/>
	</radialGradient>
	<path class="st1" d="M175,10.9c14.6,0,26.4,11.8,26.4,26.3c0,14.6-11.8,26.3-26.4,26.3c-14.6,0-26.4-11.8-26.4-26.3
		C148.6,22.7,160.4,10.9,175,10.9L175,10.9z"/>
	
		<radialGradient id="SVGID_00000105427717173257118770000004984915423160733592_" cx="312.2648" cy="151.0203" r="36.3556" gradientTransform="matrix(1 0 0 1 -213.5571 -123.7588)" gradientUnits="userSpaceOnUse">
		<stop  offset="0" style="stop-color:#FFFFFF"/>
		<stop  offset="3.000000e-02" style="stop-color:#FFFFFF"/>
		<stop  offset="0.57" style="stop-color:#055A8D"/>
		<stop  offset="1" style="stop-color:#055A8D"/>
	</radialGradient>
	<path style="fill-rule:evenodd;clip-rule:evenodd;fill:url(#SVGID_00000105427717173257118770000004984915423160733592_);" d="
		M105.6,10.9c14.6,0,26.4,11.8,26.4,26.3c0,14.6-11.8,26.3-26.4,26.3c-14.6,0-26.4-11.8-26.4-26.3C79.2,22.7,91,10.9,105.6,10.9
		L105.6,10.9z"/>
	
		<radialGradient id="SVGID_00000133487957459997151950000001863321807341454489_" cx="268.9892" cy="151.0203" r="36.3557" gradientTransform="matrix(1 0 0 1 -238.4434 -123.7588)" gradientUnits="userSpaceOnUse">
		<stop  offset="0" style="stop-color:#FFFFFF"/>
		<stop  offset="3.000000e-02" style="stop-color:#FFFFFF"/>
		<stop  offset="0.57" style="stop-color:#055A8D"/>
		<stop  offset="1" style="stop-color:#055A8D"/>
	</radialGradient>
	<path style="fill-rule:evenodd;clip-rule:evenodd;fill:url(#SVGID_00000133487957459997151950000001863321807341454489_);" d="
		M37.4,10.9c14.6,0,26.4,11.8,26.4,26.3c0,14.6-11.8,26.3-26.4,26.3C22.8,63.6,11,51.8,11,37.3C11,22.7,22.8,10.9,37.4,10.9
		L37.4,10.9z"/>
	<path class="st4" d="M77.3,23.3c0.5-1.1,1.2-2.3,1.9-3.4c5.7-8.9,15.6-14.7,26.9-14.7c11.5,0,21.5,6,27.2,15.1c0.6,1,1.2,2,1.6,3
		c0.6-2.1,1.6-4,2.8-5.7c0,0-0.1-0.1-0.1-0.2C131.1,7,119.4,0,106.1,0C93.1,0,81.5,6.8,74.9,17c0,0.1-0.1,0.1-0.1,0.2L77.3,23.3
		L77.3,23.3z"/>
	<path class="st4" d="M74.4,35.6c0-0.5,0-1.1-0.1-1.7c0-0.1,0-0.2,0-0.2C72.5,14.8,56.6,0,37.2,0C16.7,0,0,16.7,0,37.2
		c0,20.6,16.7,37.2,37.2,37.2c13.3,0,24.9-6.9,31.5-17.4c0-0.1,0.1-0.1,0.1-0.2c-1.5-1.6-2.4-3.5-2.9-5.6
		c-5.2,10.6-16.1,17.9-28.7,17.9c-17.7,0-32-14.3-32-32c0-17.7,14.3-32,32-32c16.2,0,29.7,12.1,31.7,27.8c0,0.1,0,0.2,0,0.3
		c0.2,1.3,0.2,2.6,0.2,3.9c0,20.6,16.5,37.2,36.9,37.2c19,0,34.6-14.4,36.7-33c0-0.1,0-0.2,0-0.3c0.1-1.3,0.3-2.6,0.3-4
		c0-1.3,0.1-2.6,0.2-3.9c0-0.1,0-0.2,0-0.3c2.1-15.7,15.5-27.8,31.7-27.8c17.7,0,32,14.3,32,32c0,17.7-14.3,32-32,32
		c-12.6,0-23.5-7.3-28.7-17.9c-0.5,2.1-1.4,4-2.9,5.6c0,0,0.1,0.1,0.1,0.2c6.6,10.4,18.2,17.4,31.5,17.4c20.6,0,37.2-16.7,37.2-37.2
		C212.2,16.7,195.6,0,175,0c-20.5,0-37.1,16.6-37.2,37.1c0,0.1,0,0.1,0,0.2c0,0.8,0,1.6-0.1,2.4c-1.2,16.6-14.9,29.6-31.6,29.6
		c-17.5,0-31.6-14.3-31.7-31.9c0,0,0-0.1,0-0.1C74.4,36.7,74.4,36.1,74.4,35.6L74.4,35.6z"/>
	<path class="st5" d="M386.9,57.7V21.3h-11.2v-7.2h30.5v7.2h-11.2v36.4H386.9L386.9,57.7z M411.8,57.7V14.1h27.7v7.1h-19.7v10.3
		h14.4v7h-14.4v11.8h20.6v7.4H411.8L411.8,57.7z M446.1,57.7V14.1h8v20.1l14.3-20.1h9.1l-12,15.9l14,27.7h-9.1l-10.2-20.6l-6,7.9
		v12.8H446.1L446.1,57.7z"/>
	<g>
		<path class="st0" d="M2.2,88.1c1.1-0.2,2.9-0.4,4.6-0.4c2.5,0,4.2,0.4,5.4,1.4c1,0.8,1.6,1.9,1.6,3.5c0,1.9-1.3,3.5-3.3,4.3v0.1
			c1.9,0.5,4,2,4,4.9c0,1.7-0.7,3-1.7,3.9c-1.4,1.3-3.6,1.8-6.8,1.8c-1.7,0-3.1-0.1-3.9-0.2V88.1z M4.7,96.1H7
			c2.7,0,4.2-1.4,4.2-3.3c0-2.3-1.7-3.2-4.3-3.2c-1.2,0-1.8,0.1-2.2,0.2V96.1z M4.7,105.5c0.5,0.1,1.2,0.1,2.1,0.1c2.6,0,5-1,5-3.8
			c0-2.7-2.3-3.8-5.1-3.8H4.7V105.5z"/>
		<path class="st0" d="M31.8,84.9c0-0.8,0.6-1.5,1.5-1.5c0.8,0,1.4,0.7,1.4,1.5c0,0.8-0.6,1.5-1.4,1.5
			C32.4,86.4,31.8,85.7,31.8,84.9z M34.5,87.8v19.6h-2.5V87.8H34.5z"/>
		<path class="st0" d="M52.8,87.8h2.5v17.5h8.4v2.1H52.8V87.8z"/>
		<path class="st0" d="M94.3,106.5c-1.1,0.4-3.4,1.1-6,1.1c-3,0-5.4-0.8-7.3-2.6c-1.7-1.6-2.7-4.2-2.7-7.3c0-5.8,4-10.1,10.6-10.1
			c2.3,0,4,0.5,4.9,0.9l-0.6,2.1c-1-0.5-2.4-0.8-4.3-0.8c-4.8,0-7.9,3-7.9,7.9c0,5,3,7.9,7.6,7.9c1.7,0,2.8-0.2,3.4-0.5v-5.8h-4v-2
			h6.5V106.5z"/>
		<path class="st0" d="M112,84.9c0-0.8,0.6-1.5,1.5-1.5c0.8,0,1.4,0.7,1.4,1.5c0,0.8-0.6,1.5-1.4,1.5C112.6,86.4,112,85.7,112,84.9z
			 M114.7,87.8v19.6h-2.5V87.8H114.7z"/>
		<path class="st0" d="M155.7,89.9h-6v-2.2h14.5v2.2h-6v17.5h-2.6V89.9z"/>
		<path class="st0" d="M190.6,98.2H183v7.1h8.5v2.1h-11V87.8H191v2.1H183v6.2h7.6V98.2z"/>
		<path class="st0" d="M208.7,87.8h2.5v9.5h0.1c0.5-0.8,1-1.5,1.5-2.1l6-7.4h3.1l-7.1,8.3l7.7,11.3h-3l-6.5-9.6l-1.9,2.2v7.5h-2.5
			V87.8z"/>
		<path class="st0" d="M238.4,107.4V87.8h2.8l6.3,9.9c1.5,2.3,2.6,4.4,3.5,6.4l0.1,0c-0.2-2.6-0.3-5-0.3-8.1v-8.2h2.4v19.6h-2.6
			l-6.2-9.9c-1.4-2.2-2.7-4.4-3.7-6.5l-0.1,0c0.1,2.5,0.2,4.8,0.2,8.1v8.4H238.4z"/>
		<path class="st0" d="M288.3,97.4c0,6.7-4.1,10.3-9.1,10.3c-5.2,0-8.8-4-8.8-9.9c0-6.2,3.9-10.3,9.1-10.3
			C284.8,87.5,288.3,91.6,288.3,97.4z M273.1,97.7c0,4.2,2.3,7.9,6.3,7.9c4,0,6.3-3.7,6.3-8.1c0-3.9-2-8-6.3-8
			C275.2,89.5,273.1,93.4,273.1,97.7z"/>
		<path class="st0" d="M305.5,87.8h2.5v17.5h8.4v2.1h-10.9V87.8z"/>
		<path class="st0" d="M348.8,97.4c0,6.7-4.1,10.3-9.1,10.3c-5.2,0-8.8-4-8.8-9.9c0-6.2,3.9-10.3,9.1-10.3
			C345.4,87.5,348.8,91.6,348.8,97.4z M333.6,97.7c0,4.2,2.3,7.9,6.3,7.9c4,0,6.3-3.7,6.3-8.1c0-3.9-2-8-6.3-8
			C335.7,89.5,333.6,93.4,333.6,97.7z"/>
		<path class="st0" d="M370.1,87.8h2.5v13.1c0,5.2-2.6,6.8-5.9,6.8c-0.9,0-2.1-0.2-2.7-0.5l0.4-2.1c0.5,0.2,1.3,0.4,2.1,0.4
			c2.3,0,3.6-1,3.6-4.9V87.8z"/>
		<path class="st0" d="M390.7,84.9c0-0.8,0.6-1.5,1.5-1.5c0.8,0,1.4,0.7,1.4,1.5c0,0.8-0.6,1.5-1.4,1.5
			C391.3,86.4,390.7,85.7,390.7,84.9z M393.3,87.8v19.6h-2.5V87.8H393.3z"/>
		<path class="st0" d="M411.7,87.8h2.5v17.5h8.4v2.1h-10.9V87.8z"/>
		<path class="st0" d="M449.6,98.2h-7.6v7.1h8.5v2.1h-11V87.8H450v2.1h-8.1v6.2h7.6V98.2z"/>
		<path class="st0" d="M467.7,88.1c1.3-0.3,3.1-0.4,4.9-0.4c2.7,0,4.5,0.5,5.7,1.6c1,0.9,1.5,2.2,1.5,3.7c0,2.6-1.6,4.3-3.7,5v0.1
			c1.5,0.5,2.4,1.9,2.9,4c0.6,2.7,1.1,4.6,1.5,5.4h-2.6c-0.3-0.6-0.8-2.2-1.3-4.7c-0.6-2.7-1.6-3.7-3.9-3.8h-2.4v8.5h-2.5V88.1z
			 M470.2,97h2.6c2.7,0,4.4-1.5,4.4-3.7c0-2.5-1.8-3.6-4.5-3.7c-1.2,0-2.1,0.1-2.5,0.2V97z"/>
		<path class="st0" d="M497.1,84.9c0-0.8,0.6-1.5,1.5-1.5c0.8,0,1.4,0.7,1.4,1.5c0,0.8-0.6,1.5-1.4,1.5
			C497.8,86.4,497.1,85.7,497.1,84.9z M499.8,87.8v19.6h-2.5V87.8H499.8z"/>
	</g>
</g>
</svg>
