<?xml version="1.0" encoding="utf-8"?>
<!-- Generator: Adobe Illustrator 26.0.1, SVG Export Plug-In . SVG Version: 6.00 Build 0)  -->
<svg version="1.1" id="Layer_1" xmlns="http://www.w3.org/2000/svg" xmlns:xlink="http://www.w3.org/1999/xlink" x="0px" y="0px"
	 viewBox="0 0 500 472" style="enable-background:new 0 0 500 472;" xml:space="preserve">
<style type="text/css">
	.st0{fill:none;}
	.st1{fill:#CB9F5B;}
	.st2{fill:#51B0D1;}
	.st3{fill:#4F7811;}
	.st4{fill:#FFD636;}
</style>
<g>
	<path d="M45.9,454.9h-28l-7.3,15.9H0l32.3-69.4l31.2,69.4H52.7L45.9,454.9z M41.8,445.7l-9.7-22.2L22,445.7H41.8z"/>
	<path d="M81.5,405.5v56.1h19.2v9.3H71.7v-65.3H81.5z"/>
	<path d="M136.8,470.8v-65.3h9.8c4.4,0,7.9,0.3,10.4,1c2.6,0.7,4.8,1.8,6.6,3.4c1.8,1.7,3.3,3.7,4.4,6.2c1.1,2.5,1.6,5.1,1.6,7.6
		c0,4.7-1.8,8.6-5.4,11.9c3.5,1.2,6.2,3.3,8.2,6.2c2,2.9,3,6.3,3,10.2c0,5.1-1.8,9.4-5.4,12.9c-2.2,2.2-4.6,3.7-7.3,4.5
		c-3,0.8-6.7,1.2-11.1,1.2H136.8z M146.7,433.5h3.1c3.7,0,6.4-0.8,8.1-2.4c1.7-1.6,2.6-4,2.6-7.2c0-3.1-0.9-5.4-2.6-7
		c-1.7-1.6-4.3-2.4-7.6-2.4h-3.5V433.5z M146.7,461.5h6.1c4.5,0,7.7-0.9,9.8-2.6c2.2-1.9,3.3-4.3,3.3-7.2c0-2.8-1.1-5.2-3.2-7.1
		c-2.1-1.9-5.7-2.8-11-2.8h-5V461.5z"/>
	<path d="M197.9,405.5v65.3H188v-65.3H197.9z"/>
	<path d="M250.5,415.2l-8,4.7c-1.5-2.6-2.9-4.3-4.3-5.1c-1.4-0.9-3.2-1.4-5.5-1.4c-2.7,0-5,0.8-6.8,2.3c-1.8,1.5-2.7,3.4-2.7,5.8
		c0,3.2,2.4,5.8,7.1,7.7l6.5,2.7c5.3,2.1,9.2,4.8,11.6,7.9c2.5,3.1,3.7,6.9,3.7,11.4c0,6-2,11-6,14.9c-4,4-9,5.9-15,5.9
		c-5.7,0-10.3-1.7-14-5.1c-3.6-3.4-5.9-8.1-6.8-14.2l10-2.2c0.5,3.8,1.2,6.5,2.4,8c2,2.8,5,4.2,8.9,4.2c3.1,0,5.6-1,7.7-3.1
		c2-2.1,3-4.7,3-7.8c0-1.3-0.2-2.4-0.5-3.5c-0.4-1.1-0.9-2-1.7-2.9c-0.7-0.9-1.7-1.7-2.9-2.5c-1.2-0.8-2.6-1.5-4.2-2.2l-6.3-2.6
		c-8.9-3.8-13.4-9.3-13.4-16.6c0-4.9,1.9-9,5.6-12.3c3.8-3.3,8.4-5,14-5C240.4,404.2,246.3,407.9,250.5,415.2z"/>
	<path d="M274,431h28.2v-25.6h9.9v65.3h-9.9v-30.5H274v30.5h-9.9v-65.3h9.9V431z"/>
	<path d="M366,454.9h-28l-7.3,15.9h-10.6l32.3-69.4l31.2,69.4h-10.8L366,454.9z M362,445.7l-9.7-22.2l-10.2,22.2H362z"/>
	<path d="M413.9,443l20.2,27.8h-12.1l-18.7-26.7h-1.8v26.7h-9.9v-65.3h11.5c8.6,0,14.9,1.6,18.7,4.9c4.2,3.6,6.3,8.4,6.3,14.3
		c0,4.6-1.3,8.6-4,11.9C421.8,439.9,418.3,442,413.9,443z M401.7,435.5h3.1c9.3,0,14-3.6,14-10.7c0-6.7-4.5-10-13.6-10h-3.5V435.5z"
		/>
	<path d="M482.4,454.9h-28l-7.3,15.9h-10.6l32.3-69.4l31.2,69.4h-10.8L482.4,454.9z M478.3,445.7l-9.7-22.2l-10.2,22.2H478.3z"/>
	<path class="st0" d="M33.7,302.6c-8,0-12,5.9-12,17.7c0,11.9,3.9,17.9,11.6,17.9c7.9,0,11.8-6,11.8-17.9
		C45.1,308.5,41.3,302.6,33.7,302.6z"/>
	<path d="M355.5,357.6c-3.5,0-6.2,2.7-6.2,6.1c0,3.6,2.5,6.2,6.2,6.2c3.2,0,6.1-2.8,6.1-6.1C361.6,360.3,358.9,357.6,355.5,357.6
		L355.5,357.6z"/>
	<path d="M99.7,277.5l1.8,13.7l0,38c0,10,5.9,16,15.9,16h5v-8.8h-2.3c-5.7,0-8.6-3.3-8.6-9.7v-51.8L99.7,277.5L99.7,277.5z"/>
	<path d="M121.8,345.2h80.7v-8.8h-80.7V345.2L121.8,345.2z"/>
	<path d="M61.2,366.5l1.8,3.3c15.3-4.4,23-14,23-28.6v-41.7l-12,2.7l2.1,14.4l0.1,28.1C76.3,355.7,71.2,363.1,61.2,366.5L61.2,366.5
		z"/>
	<path d="M123.6,345.2h1.9v-8.8h-1.9V345.2L123.6,345.2z"/>
	<path d="M42.8,287.5c3.9,0,6.8-3,6.8-6.7c0-3.9-3.2-6.8-6.8-6.8c-3.7,0-6.9,3-6.9,6.7C35.9,284.8,39.1,287.5,42.8,287.5z"/>
	<path d="M34.1,295c-7.7,0-13.7,2.4-17.9,7.2c-4.2,4.8-6.4,11.1-6.4,18.8c0,7.5,2.1,13.5,6.2,18.1c4.2,4.5,9.8,6.7,16.8,6.7
		c7.2,0,13.1-2.3,17.5-7c4.3-4.8,6.6-10.9,6.6-18.5C57,304.4,48.4,295,34.1,295z M33.2,338.2c-7.7,0-11.6-6-11.6-17.9
		c0-11.8,4-17.7,12-17.7c7.6,0,11.4,5.9,11.4,17.7C45.1,332.2,41.2,338.2,33.2,338.2z"/>
	<path d="M259,274.7c-3.3,0-6.2,2.8-6.2,6.1c0,3.9,3.1,6.2,6.2,6.2c3.5,0,6.3-2.7,6.3-6.1S262.4,274.7,259,274.7L259,274.7z"/>
	<path d="M241.2,274.7c-3.4,0-6.3,2.8-6.3,6.1c0,3.5,2.8,6.2,6.3,6.2c3.5,0,6.2-2.7,6.2-6.1S244.6,274.7,241.2,274.7L241.2,274.7z"
		/>
	<path d="M161.5,345.2h1.9v-8.8h-1.9V345.2L161.5,345.2z"/>
	<path d="M25,287.5c3.9,0,6.9-3,6.9-6.7c0-3.9-3.2-6.8-6.9-6.8c-3.6,0-6.8,3-6.8,6.7C18.2,284.8,21.4,287.5,25,287.5z"/>
	<path d="M250,257.3c-3.3,0-6.1,2.9-6.1,6.3c0,3.3,2.7,6.1,6.1,6.1c3.4,0,6.2-2.7,6.2-6.1C256.2,260,253.6,257.3,250,257.3
		L250,257.3z"/>
	<path d="M410.4,345.2h1.9v-8.8h-1.9V345.2L410.4,345.2z"/>
	<path d="M375.6,345.2h38.5v-8.8h-38.5V345.2L375.6,345.2z"/>
	<path d="M372.5,345.2h1.9v-8.8h-1.9V345.2L372.5,345.2z"/>
	<polygon points="460.3,275.5 461.9,288.7 461.9,345.2 471.7,345.2 471.7,288.7 472.9,274.5 	"/>
	<path d="M471.7,345.2h-9.8l0-56.5l-1.6-13.2l12.6-1l-1.2,14.2V345.2z"/>
	<path d="M413.5,345.2h17.1c10,0,16-6,16-16v-55.1l-11.8,2.8l1.8,14.2l0,35.5c0,6.5-2.9,9.7-8.8,9.7h-14.4V345.2L413.5,345.2z"/>
	<path d="M355.7,341.7l0.4,0.3c2.7,2.1,6.2,3.2,10.5,3.2h9.5v-8.8h-6.8c-5.8,0-8.7-3.2-8.7-9.4v-27.5l-12,2.7l2.1,13.9l0,10.9
		c0,6.3-2.9,9.4-8.7,9.4h-6.6v8.8h9.5c4.1,0,7.5-1.1,10.3-3.2L355.7,341.7L355.7,341.7z"/>
	<path d="M279.8,341.7l0.4,0.3c2.9,2.2,6.5,3.2,10.8,3.2h2.3v-8.8c-5.7-0.2-8.4-3.3-8.4-9.3v-27.6l-12,2.7l2,13.9l0,11
		c0,6.2-2.9,9.4-8.5,9.4c-3.8,0-7.1-1.4-10-4.3l-0.2-28.4l-9.8,2.2v21.1c0,6.2-2.9,9.4-8.5,9.4c-3.9,0-7.3-1.3-10.1-4l-0.2-0.5
		v-28.3l-9.7,2.2l-0.2,21c0,6.2-2.9,9.4-8.6,9.4h-6.5v8.8h9.2c4.8,0,8.5-1.3,11.5-4.1c0.7-0.7,1.5-1.5,2-2.2l0.4-0.6l0.5,0.5
		c4.2,4.2,9.2,6.4,14.6,6.4c5.8,0,10.1-2,13-6.1l0.4-0.6l0.5,0.5c4,4.2,8.8,6.2,14.5,6.2c4.1,0,7.5-1.1,10.2-3.2L279.8,341.7
		L279.8,341.7z"/>
	<path d="M164.6,345.2h33.6v-8.8h-33.6V345.2L164.6,345.2z"/>
	<path d="M199.4,345.2h1.9v-8.8h-1.9V345.2L199.4,345.2z"/>
	<path d="M292.5,345.2h43.5v-8.8h-43.5V345.2L292.5,345.2z"/>
	<path d="M332.4,345.2h1.9v-8.8h-1.9V345.2L332.4,345.2z"/>
	<path class="st1" d="M190.9,153.5c12.5-4.9,25.7-9.8,39.3-14.7C175.2,126.1,113.1,115.4,53,113c-5.5,9.4-10.3,19.3-14.3,29.5
		c4.2-0.1,8.5-0.1,12.7-0.1C103.1,142.4,150.6,147.1,190.9,153.5z"/>
	<path class="st1" d="M174.4,160.1c-36.5-5.2-78.1-8.8-123.1-8.8c-5.4,0-10.7,0.1-16,0.2c-4.5,12.9-5.5,15.9-7.7,29.8
		c37-1.7,77,1.7,99.5,3.4C144.6,175.7,149.6,170.9,174.4,160.1z"/>
	<path class="st2" d="M399.8,56.6c-46.8,12.2-105.3,17.5-174.4,4.8c-19.9-3.7-48.3-15.9-77.9-37.5C117.2,39.1,90.8,61,70.1,87.7
		C65.9,93,62,98.6,58.3,104.3c64.2,3.1,130.3,15.2,187.7,29.1c6.9-2.3,13.9-4.7,21-6.9c53.1-16.9,110.7-30.9,164.8-35
		C422.3,78.8,411.6,67.1,399.8,56.6z"/>
	<path class="st3" d="M159.1,201.5c98.1-14.8,204.2-19.2,266.9-19.2c16.7,0,32.2,0.6,46.3,1.6c-2-10.8-4.9-21.2-8.4-31.4
		c-9.2-0.5-18.5-0.8-27.9-0.8C327.6,151.7,164.7,195.1,159.1,201.5z"/>
	<path class="st4" d="M384.1,46.7C384.1,46.7,384.1,46.7,384.1,46.7c-0.2-0.1-0.3-0.3-0.5-0.4c-1-0.8-2.1-1.6-3.2-2.4
		c-0.6-0.4-1.1-0.8-1.7-1.3c-1.3-0.9-2.5-1.8-3.8-2.7c-0.3-0.2-0.6-0.5-1-0.7c-1.5-1.1-3.1-2.1-4.7-3.1c-0.6-0.4-1.1-0.7-1.7-1.1
		c-1.1-0.7-2.3-1.4-3.5-2.2c-0.5-0.3-1.1-0.7-1.6-1c-1.6-1-3.3-1.9-4.9-2.9c-0.3-0.2-0.7-0.4-1-0.6c-1.4-0.8-2.8-1.5-4.2-2.3
		c-0.6-0.3-1.2-0.6-1.7-0.9c-1.3-0.7-2.6-1.3-3.9-2c-0.5-0.2-0.9-0.5-1.4-0.7c-1.7-0.8-3.5-1.7-5.2-2.5c-0.5-0.2-0.9-0.4-1.4-0.6
		c-1.4-0.6-2.8-1.2-4.2-1.8c-0.6-0.2-1.1-0.5-1.7-0.7c-1.6-0.6-3.1-1.3-4.7-1.9c-0.3-0.1-0.6-0.2-0.8-0.3c-1.8-0.7-3.7-1.4-5.6-2
		c-0.5-0.2-1-0.4-1.6-0.5c-1.4-0.5-2.9-1-4.4-1.5c-0.5-0.2-1.1-0.3-1.6-0.5c-1.9-0.6-3.8-1.2-5.8-1.7c-0.1,0-0.2-0.1-0.4-0.1
		c-1.8-0.5-3.7-1-5.5-1.5c-0.6-0.1-1.1-0.3-1.7-0.4c-1.6-0.4-3.1-0.8-4.7-1.1c-0.5-0.1-0.9-0.2-1.4-0.3c-2-0.4-4-0.8-6-1.2
		c-0.4-0.1-0.7-0.1-1.1-0.2c-1.7-0.3-3.3-0.6-5-0.9c-0.6-0.1-1.2-0.2-1.7-0.3c-1.7-0.3-3.5-0.5-5.2-0.7c-0.3,0-0.6-0.1-1-0.1
		c-2.1-0.3-4.1-0.5-6.2-0.7c-0.5-0.1-1-0.1-1.6-0.1c-1.6-0.1-3.2-0.3-4.8-0.4c-0.6,0-1.2-0.1-1.8-0.1c-2.1-0.1-4.2-0.2-6.3-0.3
		C251.4,0,248.7,0,246.1,0c-2,0-4.1,0-6.1,0.1c-0.5,0-1,0-1.5,0c-1.9,0.1-3.8,0.1-5.7,0.3c-0.1,0-0.3,0-0.4,0c-2,0.1-4,0.3-6,0.4
		c-0.5,0-0.9,0.1-1.4,0.1c-1.8,0.2-3.7,0.4-5.5,0.6c-0.2,0-0.4,0-0.5,0.1c-2,0.2-4,0.5-6,0.8c-0.4,0.1-0.8,0.1-1.2,0.2
		c-1.8,0.3-3.6,0.6-5.4,0.9c-0.2,0-0.4,0.1-0.6,0.1c-2,0.4-4,0.8-6,1.2c-0.3,0.1-0.6,0.1-0.9,0.2c-1.8,0.4-3.7,0.8-5.5,1.2
		c-0.2,0-0.3,0.1-0.5,0.1c-2,0.5-4,1-6,1.5c-0.2,0-0.4,0.1-0.6,0.2c-1.9,0.5-3.8,1.1-5.6,1.6c-0.1,0-0.3,0.1-0.4,0.1
		c-2,0.6-4,1.3-6,1.9c-0.1,0-0.1,0-0.2,0.1c-2,0.7-3.9,1.3-5.8,2c-0.1,0-0.2,0.1-0.3,0.1c-1.7,0.6-3.3,1.2-4.9,1.9c0,0,0,0,0,0
		c14.5,13,28.5,21.5,39.3,25.6C264.7,64.6,330.9,59.2,384.1,46.7z"/>
	<path class="st3" d="M120.3,201c114.9-29.8,192.6-51.1,278.2-57c23.2-1.6,44.2-1,62.1-0.6c-4-11.6-15.4-32.8-22.9-43.4
		c-10.9,0.9-21.9,2.3-32.9,3.6C278,118.7,156.4,174.7,120.3,201z"/>
</g>
</svg>
