<?xml version="1.0" encoding="utf-8"?>
<!-- Generator: Adobe Illustrator 26.0.1, SVG Export Plug-In . SVG Version: 6.00 Build 0)  -->
<svg version="1.1" id="Layer_1" xmlns="http://www.w3.org/2000/svg" xmlns:xlink="http://www.w3.org/1999/xlink" x="0px" y="0px"
	 viewBox="0 0 261.9 300" style="enable-background:new 0 0 261.9 300;" xml:space="preserve">
<style type="text/css">
	.st0{fill:#EB362B;}
	.st1{fill:#EB352A;}
	.st2{fill:#EB372C;}
	.st3{fill:#EB392E;}
	.st4{fill:#EB382E;}
	.st5{fill:#EC3C31;}
	.st6{fill:#EC4036;}
	.st7{fill:#EC463D;}
	.st8{fill:#EC3E33;}
	.st9{fill:#EC443B;}
	.st10{fill:#ED4940;}
	.st11{fill:#ED4C43;}
	.st12{fill:#FDFCFC;}
	.st13{fill:#F09D99;}
	.st14{fill:#F2B7B5;}
	.st15{fill:#ED4D45;}
	.st16{fill:#EC3D32;}
	.st17{fill:#F0A29E;}
	.st18{fill:#ED4F46;}
	.st19{fill:#F18781;}
	.st20{fill:#F07068;}
	.st21{fill:#ED5249;}
	.st22{fill:#EF7C75;}
	.st23{fill:#F0675F;}
	.st24{fill:#F06159;}
	.st25{fill:#F09D98;}
	.st26{fill:#EF7A73;}
	.st27{fill:#F18680;}
	.st28{fill:#EF766E;}
	.st29{fill:#FEFEFE;}
	.st30{fill:#FBFBFA;}
	.st31{fill:#F5ECEA;}
	.st32{fill:#F6C0BC;}
	.st33{fill:#F2D5D2;}
	.st34{fill:#F1AAA7;}
</style>
<g>
	<path class="st0" d="M154,3.3c-4.6,0.5-9.1-0.8-13.6-1C134,2,127.7,2.8,121.4,3.5c-3.4,0.4-6.9,0.6-10.3,0
		c-1.4-0.2-2.7,0.1-3.9,0.5c-1.1,0.3-2.3,0.7-3.6,0.5c0.6-1.1,1.7-1.2,2.6-1.5c4.4-1.7,9-2,13.6-2.5c0.6-0.1,1.3,0.3,1.7-0.4
		c6.2,0,12.4,0,18.6,0c3,1,6.2,0.9,9.2,1.7c1.4,0.4,2.9,0.6,4.3,0.9C153.8,2.8,154.2,2.9,154,3.3z"/>
	<path class="st1" d="M153.6,155.9c16.5,13.2,31.4,28.1,50.1,38.2c-2.7,3.1-5.7,5.8-8.9,8.3c-22.5,17.8-48,25.4-76.6,22.2
		c-44.8-5-80.9-38.9-89.1-83.3C18.8,85.6,55.8,31.8,111.4,21.7c55.4-10.1,108.8,26,119.5,81c5,25.8,0.8,50.1-12.6,72.8
		c-0.8,1.4-1.4,1.7-2.8,0.6c-1.3-1-2.8-1.6-4.3-2.3c-14.5-6.5-25.8-17.2-36.5-28.6c-1.2-1.3,0-1.9,0.6-2.5
		c5.3-5.3,10.3-11,14.8-17.1c2.7-3.6,5.1-7.5,5.4-12.2c0.4-6.1-3-9.3-9-8c-4.8,1-9,3.3-12.4,6.9c-2.4,2.6-2.4,3.6-0.4,6.3
		c0.6,0.8,0.7,1.7,0.6,2.6c-0.3,2.4-1.2,4.5-2.5,6.5c-1.3,2.1-2.9,4-4.6,5.8c-3.6,3.5-7.3,7-11,10.5c-0.7,0.6-1.5,1.4-2.4,1
		c-0.7-0.3-0.3-1.3-0.4-1.9c-0.9-19.6,0.4-39,3.3-58.3c1.9-12.5,4.4-24.8,8.3-36.8c0.1-0.3,0.2-0.5,0.2-0.8c0.6-6.2,0-6.7-5.4-5.2
		c-5.9,1.6-11.2,4.5-15.8,8.6c-2.7,2.3-4,5.4-4.5,8.8c-1.8,11.8-3,23.7-3.6,35.7c-0.8,17.6-0.6,35.2,0.1,52.8
		c0.4,10.9,0.9,21.8,1.4,32.7c0.1,1.6,0.6,3.2,0.7,4.8c0.2,2.1,1.4,2.7,3.4,2.8c7.2,0.3,12.3-4.3,12.5-11.5c0.1-4.6-0.9-9.1-1-13.7
		C153.1,160.6,152.9,158.4,153.6,155.9z"/>
	<path class="st1" d="M50.4,205.6c-1.3-1.8-3.7-2.9-3.5-5.6c0-0.2-0.3-0.5-0.5-0.7c-6.2-7.7-10.8-16.4-15-25.4
		c-1.1-2.3-2.3-4.4-4-6.8c-0.1,2.4,1.1,4.1,0.8,6.4c-6.1-12.3-7.7-25.4-10.9-38.1c-0.5-0.3-0.6,0.1-0.6,0.5c0,1.5-0.2,3.1,0.1,4.6
		c0.4,4.2,2,8.2,2.8,12.3c0.4,2,0.8,4,0.5,6.2c-1.3-0.6-1.6-1.8-2-2.8c-1.8-4.9-2.6-10-3-15.2c-0.2-1.6-1-3.1-1-4.8
		c-0.1-2.7,0.9-5.3,0.2-8c0-9-0.1-18,1.2-27c1.1-7.8,2.8-15.4,7.1-22.1c0.6-0.9,1.3-1.5,2.4-1.8c2.9-0.7,4.8-2.8,6.9-4.8
		c1.1-1,2-2.2,3.4-2.9c1.3,2.4,0.1,4.2-1.1,6.1C30,82.4,27.6,90,26.2,98c-0.5,2.9,0.5,5.7,0.6,8.6c0.2,5.3,0.2,10.6-2,15.6
		c-0.7,1.6-0.7,3.3-0.5,5c1.4,20.6,8,39.3,20.5,55.9c4.1,5.4,7.7,11.2,12.6,15.8c4.1,3.8,8.9,6.6,13.6,9.6c3.1,2,6.7,3.2,9.2,6.2
		c0.3,0.4,1,0.5,1.5,0.7c6.5,3.1,13,6.2,19.9,9.5c-4.2,1-7.3-1.5-11.2-2.1c0.9,2,2.3,2.9,3.9,3.6c3.1,1.4,6.4,1.7,9.7,2
		c5.2,0.5,10.3,0.9,15.4,2.4c4.9,1.4,10.1,0.3,15.1-0.7c-0.3-1.2-1.8-0.8-2.4-1.9c2-0.4,4,0.3,5.9,0.1c5.2-0.5,10.4-0.8,15.6-0.4
		c7.8,0.5,14.8-2.4,21.5-5.8c0.4-0.2,0.7-0.4,1-0.7c0.8-0.8,2.2-1.5,1.8-2.6c-0.4-1.1-1.9-0.1-3.2-0.7c2.3-1.5,4.9-1.6,7.1-2.8
		c0.3-0.2,0.5,0,0.7,0.2c0.4,1,0.7,0,1-0.1c0.9-0.4,1.6-1.1,2.6-1.4c0.1,0,0.2-0.1,0.2-0.1c0-0.4-0.3,0-0.4-0.2
		c-0.4-0.2-0.6-0.5-0.5-0.9c2.5-1.7,4.8-3.7,7-5.8c1.6-1.6,3.3-2.9,5.5-3.4c2.9-0.7,4.7-2.8,6.5-4.8c3-3.3,5.6-6.9,8.9-9.8
		c4.4-3.9,7-9,10.8-13.3c0.6-0.6,0.8-1.3,0.7-2.3c-0.3-1.4,0.2-2.9,1-4c5.7-8.3,8.1-17.9,10.8-27.4c0.8-2.9,1.7-5.8,2.5-8.7
		c0.9-3.2,0.1-6.4-0.3-9.6c-0.2-1.3-0.3-2.6-0.5-4.4c-0.3,1-0.5,1.7-0.7,2.3c-0.1,0-0.3,0-0.4,0c-0.1-1.4-0.4-2.8-0.3-4.2
		c1.1-15.9-4.4-30-11.4-43.8c-0.5-1.1-1.3-2-2-3c-0.2-0.3-0.8-0.9-1-0.4c-1.3,2.4-1.7-0.1-2-0.5c-3.2-4-5.3-8.6-6.9-13.5
		c-1.9-5.8-5.3-10.5-9.9-14.4c-8.4-7.1-17.8-12.6-27.3-17.9c-1-0.5-2.1-0.8-3.1-1.2c-0.2-0.1-0.4,0-0.6,0c0.1,1.3,1.3,1.8,2.1,2.9
		c-4-0.4-7.3-1.4-9.9-4.3c0.8-0.9,1.8-0.2,2.6-0.8c-1.9-2-4.3-2.6-6.7-3.1c-3.8-0.6-7.6,0.2-11.3,0.7c-4,0.6-8,1.2-12,0.1
		c-0.3-0.2-0.3-0.5,0-0.7c2.5-0.3,5.2-0.2,7.7-1.9c-3.2-1.6-6.6-2.1-9.4-0.9c-6.7,2.9-13.8,2.2-20.7,3.6c-5.9,1.2-11.7,2.4-17.6,3.6
		c-1,0.2-2,0.3-2.9,0.4c-0.3,0-1,0-1-0.1c-0.5-2.4-1.9-0.7-2.7-0.5c-8.2,2.6-16.1,5.7-22.7,11.3c-1.5,1.3-2.8,2.5-3,4.8
		c-0.3,2.7-2,4.7-4.2,6.3c-0.7,0.5-1.4,1-2.1,1.3c-6.9,2.8-12,7.7-16.3,13.6c-1,1.3-1,1.2-2.6,0.9c-0.3-0.1-0.8,0.3-1.1,0.6
		c-1,0.9-1.9,1.9-2.9,2.8c-0.3,0.3-0.9,1.5-1.4-0.1c-0.2-0.7-0.6,0.1-0.8,0.3c-1.4,1.2-2.4,2.7-3.8,4.6c0.1-3.3,1.6-5.6,3.1-7.8
		c2.4-3.4,4.7-6.8,6.8-10.4c0.6-1,1-2,1.4-3c-3.1,1.7-5.4,4.2-7.4,6.9c-4.6,6.1-7.7,13.1-10.7,20.1c-0.7,1.7-1.4,3.5-3.4,4.5
		c-0.1-2.3,0.5-4.3,1.3-6.3C25.6,60.1,32.2,48.8,42.1,40c6.6-5.9,13-12.2,21-16.6c7.9-4.4,16.1-7.9,24.8-10.6c4.6-1.4,9.2-3,13.6-5
		c3.1-1.4,6.3-1.1,9.6-0.8c3.1,0.3,6.3,1,9.5,0.2c0.7-0.2,1.6,0,1.8-1.1c0.2-0.7,0.9-0.6,1.4-0.6c24.8-2.1,47.7,2.8,68.3,17.3
		c3.2,2.2,6.5,4.3,9.7,6.3c0.7,0.4,1.3,1.3,2.4,0.6c0.6-0.4,1.1,0.5,1.5,0.9c2.6,2.6,4.7,5.6,7,8.5c1.8,2.3,3.7,4.6,6.4,6
		c-1.8-3.7-4.8-6.6-7-10.1c0.7-0.5,1,0,1.3,0.3c3.4,2.6,6,5.9,8.3,9.5c9.3,14.6,16,30.3,20,47.2c0,0.2,0.1,0.4,0.3,1
		c0.4-3.8-0.9-6.9-1.2-10.1c-0.1-0.5-0.6-1.1,0.4-1.3c3.7,6.9,5.5,14.4,6.8,22.1c1.9,11.7,2.2,23.5,0.5,35.3
		c-0.1,0.9-0.3,1.8-0.5,2.7c-0.8,0-0.5-0.5-0.4-0.9c0-2.4,0-4.8,0-7.3c-2.1,16-8.7,30.5-15.6,44.8c-7.1,14.7-19.5,24.8-31.3,35.5
		c3-1.2,5.1-3.7,8.1-4.7c-0.5,1.9-3.9,4.2-11.9,8.2c-0.3-0.1-0.7,0.1-0.9-0.3c-2.4,0.8-4.4,2.4-6.1,4c-3.7,3.5-8.3,5.3-13,5.2
		c-3.1,0-5.2,1.6-7.9,2.1c-0.3,0.1-0.5,0.2-0.8,0.2c-7.3,0.1-13.7,3.8-20.9,4.7c-18.2,2.3-35.9,0.9-53.2-5.4
		c-0.7-0.3-1.9-1.8-2.4,0.4c-0.1,0.4-1,0.1-1.6-0.1c-5.5-1.2-10.3-4.2-15.2-6.6c-5.1-2.4-9.3-6-13.5-9.7c-3.1-2.7-6.4-5.1-9.9-7.2
		C50.8,204.9,51.2,205.9,50.4,205.6z"/>
	<path class="st1" d="M0,274.5c0.1-10.9,5.1-19.4,12.7-26.6c2-1.9,4.3-3.6,6.5-5.4c1.6-1.2,3.3-2.2,5.3-2.5c1-0.2,2-0.3,2.7,0.6
		c0.7,1,0.7,2.1,0.1,3.2c-1,1.7-2.6,2.8-4.1,3.8c-4.1,2.7-7.8,5.9-10.6,9.9c-3.9,5.5-6.2,11.5-4.2,18.4c0.4,1.2,0.8,2.4,1.4,3.5
		c2.1,3.8,4.9,6.6,9.6,6.5c4.9,0,8.7-2,11-6.4c0.4-0.8,0.8-1.7,1.7-2c1.1-0.4,2.3-0.3,3.2,0.5c1,1,0.9,2.2,0.4,3.3
		c-2.3,5-5.3,9.4-10.2,12.3c-1.5,0.9-3.1,1.4-4.8,1.7c-9.4,1.5-17.2-3.8-19.9-13.5C0.3,279.4-0.1,277,0,274.5z"/>
	<path class="st1" d="M43.6,242c-0.6,6.5-1.4,13-1.4,19.6c-0.1,5.1-0.1,10.3,1,15.3c0.1,0.7,0,1.7,0.9,1.9c0.8,0.2,1.4-0.6,1.9-1.2
		c1.9-2.3,3.7-4.6,5.6-6.9c1.2-1.4,2.4-2.8,3.8-4c3.6-3.1,7.6-2.2,9.6,2.1c0.9,1.9,1.3,3.9,1.7,5.9c0.6,3.1,1.2,6.2,1.7,9.3
		c0.4,2.5-0.9,4.2-3.9,4.8c-2.2,0.5-3.3-0.3-3.9-3c-0.7-2.9-1.1-6-1.9-8.9c-1-3.7-3.1-4.4-6.2-2c-2.5,2-4.2,4.7-6.1,7.2
		c-1.2,1.6-2.4,3.3-4.1,4.5c-1.4,1-2.2,0.8-2.9-0.7c-1.5-3.4-2-7-2.5-10.6c-1.6-9.8-1.4-19.6-1.1-29.5c0.1-3,1.7-4.8,4.1-6.2
		c1.1-0.6,2.5-1.2,3.6-0.6C44.3,239.7,43.4,241,43.6,242z"/>
	<path class="st1" d="M140.8,278.5c2.9-1.3,5.2-2.8,7.2-4.9c0.9-1,1.8-2.1,1.4-3.6c-0.4-1.8,1-2.3,2.1-2.9c1.4-0.8,3.2-1.2,4.6-0.3
		c1.1,0.7,0.6,2.3,0.2,3.5c-0.6,1.9-2,3.2-3.5,4.4c-0.4,0.4-0.9,0.7-1.3,1.1c-4.2,3.2-4.2,3.2-0.9,7.3c2.6,3.3,5.6,6.3,9,8.9
		c1.4,1.1,1.4,2.9,0,4.9c-1.1,1.6-2.3,1.9-4,0.7c-2.6-1.9-4.8-4.1-6.9-6.5c-2.8-3.1-5.5-6.2-8.3-9.4c-1.1,1.2-0.7,2.5-0.9,3.8
		c-0.1,1.1-0.1,2.3-0.3,3.4c-0.4,2.4-1.8,3.5-4.2,3.4c-1,0-1.3-0.4-1.2-1.4c1.2-14.6,2.7-29.2,7.1-43.2c1-3.2,5.1-5.5,8.6-5.1
		c0.9,0.1,0.9,0.6,0.7,1.1c-0.6,1.6-1.2,3.2-1.8,4.7c-3.6,8.7-6.1,17.8-7.3,27.2C140.8,276.6,140.8,277.4,140.8,278.5z"/>
	<path class="st1" d="M201.7,279.9c0.2,4.7-2.8,6.8-6.1,5.7c-0.9-0.3-0.9-1-1-1.7c-0.3-2.7-0.6-5.5-0.9-8.2c-0.5-3.7-1.9-4.2-4.8-2
		c-2.4,1.8-4.5,4.1-6.2,6.6c-0.9,1.4-2,2.7-3.7,3.3c-1.5,0.5-2.5,0.1-2.6-1.6c-0.1-2-0.2-3.9-0.3-5.9c0-0.7,0-1.6-0.7-1.9
		c-0.8-0.3-1.4,0.5-2,1c-2,1.9-3.9,3.9-5.8,5.8c-1.8,1.7-3.8,3.1-6.5,3.1c-2.2,0-3.2-0.7-2.8-2.9c0.7-4.5,1.5-9,2.6-13.4
		c0.5-2.2,4.6-3.2,6.3-1.9c0.6,0.5,0.5,1.2,0.4,1.7c-0.3,2-0.7,4-1,6c0,0.3-0.1,0.6-0.1,0.8c-0.2,0.9-0.2,2.2,0.4,2.6
		c0.8,0.5,1.6-0.5,2.3-1.1c2.2-1.8,3.9-4.1,5.7-6.2c1.5-1.8,3-3.6,5-4.8c1.6-0.9,2.6-0.6,2.9,1.3c0.3,1.9,0.4,3.8,0.5,5.7
		c0.1,0.6,0,1.5,0.6,1.7c0.7,0.3,1.3-0.4,1.7-0.9c2.3-2.4,5-4.4,8-5.8c3.8-1.8,5.7-0.9,6.5,3.2C200.8,273.7,201.3,277.4,201.7,279.9
		z"/>
	<path class="st1" d="M228,282c0.1,4.4-0.5,8.4-2.5,12c-2.3,4.3-6.6,6.5-11.5,5.9c-0.6-0.1-1.2-0.3-1.8-0.6c-0.7-0.4-1.1-1.2-0.9-2
		c0.2-0.7,0.9-0.9,1.6-0.8c8.4,0.9,11.8-8.8,9.6-16.1c-0.3-1-0.8-0.7-1.4-0.4c-2.2,0.9-4.4,1.9-6.7,2.4c-6.7,1.5-10.9-2.1-10.3-9
		c0.8-8.3,4.9-12.4,13.7-13.5c3-0.3,6-0.4,9,0.3c1.2,0.2,1.8,0.7,1.4,2c-0.2,0.8-0.3,1.7-0.6,2.5c-1.1,3.9-2.2,4.5-6.1,3.6
		c-1.4-0.3-2.8-0.5-4.2-0.6c-4.5-0.2-8,2.6-8.9,7c-0.8,4.1,2.1,6.8,6.2,5.4c3.6-1.2,5.9-3.9,8.2-6.8c0.7-0.9,1.3-2.5,2.5-2.3
		c1.4,0.2,1.4,2,1.7,3.1C227.7,276.9,228.2,279.6,228,282z"/>
	<path class="st1" d="M121.8,287.6c-1.2-0.1-2.2-0.7-3.1-1.6c-2-1.8-3.4-4-5-6c-1.5-1.8-2.3-1.9-4-0.3c-1.7,1.6-3.3,3.4-5.1,5
		c-2.8,2.6-4.8,2.3-6.9-0.8c-2.1-3.1-3.5-6.6-4.5-10.2c-0.8-2.8,2.5-6.6,5.5-6.5c1.3,0.1,1.8,1,2.1,2c0.6,1.9,1.1,3.9,1.7,5.9
		c1.2,3.6,2.8,3.9,5.3,1.1c1.6-1.8,3.4-3.6,5.3-5.2c1.5-1.3,2.7-1.1,3.9,0.4c1.6,2,3.1,4,4.8,5.9c2.1,2.3,2.8,2.2,4.4-0.6
		c1.2-2,1.7-4.3,2.4-6.5c0.5-1.5,1-3.1,1.8-4.5c0.5-0.9,1.1-1.5,2.2-1c1,0.4,0.9,1.2,0.7,2.1c-1.6,6.7-4.7,12.8-8.5,18.5
		C124.2,286.6,123.3,287.6,121.8,287.6z"/>
	<path class="st1" d="M91.5,277.1c0,7.1-2.9,11.2-7.8,12.5c-5,1.3-10.7-1.2-13.2-5.9c-2.3-4.3-1.4-10.1,2.1-13.4
		c3.9-3.6,11.8-4,15.8-0.5C91.1,272.1,91.4,275.3,91.5,277.1z"/>
	<path class="st0" d="M13.6,151.4c-2.6-8.8-3.6-17.8-2.7-27c-0.1-0.4-0.4-0.9,0.4-0.9c0.9,3.1,1.8,6.2,2.7,9.2
		c0.6,1.1,0.5,2.3,0.5,3.5c-0.3,1.1,0.7,2.2-0.3,3.2c-1,0.3-0.7,1.2-0.8,1.9c-0.2,3,0.2,6,0.5,9C14.2,150.9,14.4,151.4,13.6,151.4z"
		/>
	<path class="st2" d="M164.9,254.2c-0.5-0.2-1.5,0.4-1.7-0.7c-0.3-1.4-0.2-2.9,0.9-3.9c1.6-1.4,3.5-1.7,5.5-1.3
		c1,0.2,0.9,0.9,0.9,1.6C170.4,252.5,168.1,254.2,164.9,254.2z"/>
	<path class="st3" d="M14.8,153.6c1.9,7.4,5.5,14.2,7.7,21.9c-1.3-0.1-1.6-1-2.1-1.7c-3.1-5.3-3.9-11.3-5.5-17
		c-0.2-0.7-0.3-1.5-0.5-2.3C14.2,154,14,153.6,14.8,153.6z"/>
	<path class="st3" d="M94.5,7.5c-4.8,3.2-10,4.9-15.6,5.4C81.5,10.3,90,7.4,94.5,7.5z"/>
	<path class="st4" d="M34,194.6c-2.2-3.8-4.9-7.4-6.7-11.4c-0.9-2-1.7-4-1.9-6.2c-0.1-0.5,0.1-0.6,0.5-0.5c2.6,4.9,5.2,9.8,7.7,14.7
		c0.4,0.8,0.6,1.7,0.9,2.6C34.4,194.1,34.8,194.6,34,194.6z"/>
	<path class="st5" d="M61.9,219.7c2.5,1.5,4.8,2.9,7.2,4.4C65.8,225.5,62.6,223.4,61.9,219.7z"/>
	<path class="st6" d="M50.4,205.6c0.3-0.3,0.6-0.5,1-0.8c-0.5,1.3,0.7,1.6,1.3,2.1c1.9,1.5,3.5,3.3,4.8,5.3
		C54.4,210.7,52.3,208.3,50.4,205.6z"/>
	<path class="st7" d="M82.6,233c2.3,0.5,4.4,1.5,7,2.8c-3.3,0.5-5.3-1.1-7.4-2.4C82,233.1,82.1,232.9,82.6,233z"/>
	<path class="st8" d="M249.5,276.6c0.2-0.6-0.2-1.7,0.7-1.6c1,0.2,1.3,1.4,1.3,2.4c0,0.6,0,1.5-0.8,1.4
		C249.5,278.6,249.5,277.6,249.5,276.6z"/>
	<path class="st9" d="M32.4,180.5c1.7,1.7,2.8,3.7,3.3,6C33.9,185,32.9,182.9,32.4,180.5z"/>
	<path class="st9" d="M75.7,225.8c-2.2-0.5-3.5-2.1-5.1-3.5C72.6,222.4,74.4,223.6,75.7,225.8z"/>
	<path class="st10" d="M164.4,222.6c2-0.7,4-1.4,6.2-2.1C169.3,222.4,168.4,222.7,164.4,222.6z"/>
	<path class="st11" d="M171.7,8.1c-2.4-0.4-3.1-0.6-4.7-1.7c2.2,0.1,3.9,0.5,5.6,1.2C172.6,8.5,172.1,8.2,171.7,8.1z"/>
	<path class="st12" d="M14.5,136.2c-0.1-1.1-0.3-2.3-0.4-3.4c0.7-1.5,0.1-3.2,0.4-4.8c0.4,2.7,0.4,5.4,0.3,8.1
		C14.7,136.4,14.6,136.4,14.5,136.2z"/>
	<path class="st13" d="M16.9,140.5c-0.8-1.8-0.3-3.6-0.3-5.5c0-0.3,0-0.7,0.3-0.6c0.5,0.1,0.5,0.6,0.5,1
		C16.2,137,17.3,138.8,16.9,140.5z"/>
	<path class="st14" d="M14.5,136.2c0.1,0,0.2,0,0.3,0c0.2,1.6,0.6,3.1,0.4,4.7c-0.5-0.3-0.2-1.1-0.8-1.3
		C14.4,138.4,14.4,137.3,14.5,136.2z"/>
	<path class="st15" d="M14.8,153.6c-0.1,0.3-0.2,0.6-0.4,0.9c-0.5-0.9-0.6-2-0.8-3c0.1-0.3,0.3-0.6,0.4-0.9
		C14.6,151.5,14.6,152.6,14.8,153.6z"/>
	<path class="st1" d="M185.3,212.9c0.1,0.2,0.3,0.4,0.4,0.6c-0.2,1.1-1.1,1.3-2,1.3c-0.2,0-0.4-0.2-0.6-0.3
		C183.6,213.6,184.6,213.4,185.3,212.9z"/>
	<path class="st16" d="M247.5,140.8c0.1,0.3,0.2,0.6,0.4,0.9c-0.1,0.8-0.3,1.7-0.4,2.5c-0.4,0.1-0.6,0-0.4-0.4
		C247.1,142.8,247,141.8,247.5,140.8z"/>
	<path class="st17" d="M247,143.8c0.1,0.1,0.3,0.3,0.4,0.4c0.1,0.6,0.1,1.2-0.7,1.5C246.5,145,246.6,144.4,247,143.8z"/>
	<path class="st18" d="M241.1,81.7c-0.5,0.3-0.3,0.9-0.4,1.3c-0.6-0.8-0.3-1.7-0.7-2.6C240.9,80.6,240.9,81.2,241.1,81.7z"/>
	<path class="st19" d="M164.9,6.2c0.6-0.4,1.1-0.3,1.9,0C165.9,7,165.5,6.2,164.9,6.2z"/>
	<path class="st20" d="M195.9,217c0.3,0,0.6,0,0.9,0.3c-0.4,0.4-0.8,1.1-1.3,0.8C194.9,217.8,195.9,217.5,195.9,217z"/>
	<path class="st21" d="M183.2,214.5c0.2,0,0.3,0,0.5,0c0.1,0.9-0.3,1.4-1.3,1.2c-0.2-0.1-0.3-0.3-0.5-0.4
		C182.3,215,182.7,214.8,183.2,214.5z"/>
	<path class="st22" d="M34,194.6c0.1-0.3,0.3-0.6,0.4-0.9c0.5,0.6,0.5,1.2,0.2,1.8C34.1,195.3,34.1,194.9,34,194.6z"/>
	<path class="st23" d="M11.4,123.6c-0.1,0.3-0.3,0.6-0.4,0.9c-0.4-0.6-0.2-1.3-0.3-2C11.2,122.7,11.3,123.1,11.4,123.6z"/>
	<path class="st24" d="M171.7,8.1c0.3-0.1,0.7-0.1,0.9-0.4c0.4,0.2,0.7,0.3,1.3,0.5C173,8.7,172.3,8.5,171.7,8.1z"/>
	<path class="st25" d="M82.6,233c-0.1,0.2-0.3,0.3-0.4,0.5c-0.3-0.2-0.6-0.4-1-0.6C81.7,232.5,82.1,232.7,82.6,233z"/>
	<path class="st26" d="M25.8,176.4c-0.2,0.2-0.3,0.3-0.5,0.5c-0.5-0.4-0.3-1-0.3-1.5C25.6,175.6,25.7,176,25.8,176.4z"/>
	<path class="st27" d="M137.1,17.8c0,0.2,0,0.5,0,0.7c-0.4,0.1-1-0.1-1-0.5C136.2,17.5,136.8,17.8,137.1,17.8z"/>
	<path class="st28" d="M154,3.3c-0.1-0.2-0.3-0.5-0.4-0.7c0.6-0.1,1.3,0.1,1.4,0.6C155,3.5,154.3,3.4,154,3.3z"/>
	<g>
		<path class="st1" d="M253.4,253.8c0,0-0.1-0.1-0.1-0.1C253.3,253.8,253.3,253.8,253.4,253.8z"/>
		<path class="st1" d="M252.3,264.1c1.6-0.4,2.8-0.6,3.9-1c0.7-0.2,1.5-0.7,1-1.5c-0.6-0.9-0.1-1.6,0.2-2.3c0.4-0.7,0.5-1.7,0.1-2.2
			c-1.2-1.8-0.3-3.3,0.4-4.9c0.4-1,0.9-2.1,0.9-3.2c0-1.5-1.4-3.4-2.6-3c-2.2,0.7-4.8,0.5-6.8,2c0.3,0.8,0.4,1.8,1.3,2.1
			c1.2,0.3,0.6,0.9,0.4,1.4c-0.4,1.2-1,2.3-1.5,3.6c1.6,0.3,2.3-0.9,2.9-1.9c0.4-1.3,0.7-2.7,1.8-3.7c0.3-0.3,0.8-0.7,1.3-0.4
			c0.4,0.3,0.3,0.8,0.1,1.2c-0.6,0.9-0.1,2.8-2.2,2.6c-0.3,0-0.2,0.7-0.2,1.1c0.4,0.5,0.8,1,1.3,1.6c-1.9,1.1-4.5,0.7-5.5,3.1
			c0,1.5,0.5,3,0.8,4.5c-1,0.2-1.7-0.2-2.4-0.6c-0.7-0.4-1.2-0.8-1.2-1.7c0-1.1,0.6-1.2,1.4-1.5c0.4-0.1,0.7-0.4,1-0.7
			c-0.2-0.7-0.6-1.2-1.2-1.6c-1.6-0.9-1.6-1.7-0.1-2.9c0.3-0.3,0.7-0.4,1.1-0.7c1.2-0.8,0.8-1.4-0.2-1.9c-0.5-0.3-1.5-0.1-1.5-0.9
			c0-0.8,0.8-1.1,1.5-1.3c0.3-0.1,0.5-0.2,0.7-0.3c0.1-0.2,0.2-0.4,0.4-0.6c0-0.1,0-0.2,0-0.4c-0.9-0.7-2.6-1-1.1-2.7
			c0.4-0.4,0-0.8-0.3-1.1c-0.9-1-2-1.9-3.3-1.4c-1.1,0.4-0.7,1.8-0.7,2.9c0,0.4,0.1,0.8,0.1,1.3c0.1,0.9-0.2,1.4-1.1,1.7
			c-0.8,0.3-2,0.2-2.1,1.2c-0.1,1.1,1.1,1.5,1.9,2c0.3,0.2,0.5,0.4,0.8,0.7c-1.3,1.3-2.7,2.2-4.3,2.8c-1.3,0.5-1,1.1-0.3,1.8
			c0.7,0.7,1.5,0.7,2.4,0.5c2.7-0.7,2.8-0.7,2.4,2.2c-0.1,0.4,0.1,0.9-0.4,1.1c-0.8-0.2-1-1-1.4-1.5c-0.5-0.6-1.3-0.9-1.6-0.3
			c-0.9,2.1-2.6,3.7-3.6,5.9c1.7,0.1,2.5-0.8,3.3-1.7c1.1-1.3,2.1-1.3,3.5-0.4c1.9,1.2,3.9,2.3,5.8,3.4c4.1,2.3,8.2,3.2,12.6,0.8
			c0-0.3,0-0.6,0-0.8C258.8,265.3,255.6,265.7,252.3,264.1z M251.8,259.9c0-1.4,1.1-1.7,2.1-1.8c0.7-0.1,1.1,0.1,1.1,0.6
			c-0.2,1.5-0.8,2.4-2.1,2.6C251.9,261.5,251.8,260.5,251.8,259.9z"/>
	</g>
	<path class="st29" d="M84,184.5c-18.6,0-34.4-12.1-39.9-31.8c-5.1-18.1-2.6-35.5,5.7-52.1c9.3-18.6,23.7-32.6,41-43.7
		c4-2.6,8.4-4.6,13.4-4.5c3.5,0.1,4.7,1.4,5,4.9c0.4,5.3-1.9,8.9-6.4,11.4c-6.8,3.8-13.3,8.2-19,13.6c-6.7,6.3-12.6,13.2-16.6,21.4
		c-7.7,15.4-8.2,30.9,1.4,45.6c12.5,19,34.6,12.5,43.7,1.7c1.4-1.6,2.1-3.7,2.9-5.6c2.4-5.4,6.3-6.1,11.9-3.5
		c2.1,0.9,2.9,2.8,2.6,5.1c-0.2,1.3-0.5,2.7-1,3.9c-4.6,10-10.5,19-19.3,25.8C102.2,182.1,93.9,184.7,84,184.5z"/>
	<path class="st12" d="M233.1,83.8c-2.9-8.9-7.8-16.8-11.5-25.3c-0.4-1-1.1-1.9-1.4-2.9c7.2,7.7,11.1,17.1,13.3,27.3
		C233.7,83.3,233.9,83.8,233.1,83.8z"/>
	<path class="st30" d="M246.7,126.1c-0.8-5.6-1.7-11.1-1.3-16.8c0-0.4,0-0.9,0.5-1.2c1.1,0.8,1.4,2,1.6,3.2
		c0.8,5.2,0.3,10.4-0.1,15.6C246.6,127.1,247,126.3,246.7,126.1z"/>
	<path class="st31" d="M182.3,215.7c0.6-0.2,1-0.7,1.3-1.2c0.8-0.1,1.4-0.6,2.1-1c0.4-0.2,0.7-0.5,1.1-0.6c0.4-0.2,0.7,0.1,0.9,0.4
		c0.3,0.4-0.1,0.6-0.4,0.8c-1.8,1-3.6,2-5.5,3.1C181.6,216.4,182.2,216.2,182.3,215.7z"/>
	<path class="st32" d="M246.7,126.1c0.2,0.3,0.5,0.5,0.7,0.8c0.1,0.4,0.2,0.8-0.1,1.2C246.5,127.6,246.7,126.8,246.7,126.1z"/>
	<path class="st33" d="M233.1,83.8c0.4-0.2,0.4-0.6,0.5-0.9c0.5,0.5,0.4,1.1,0.4,1.7c0.2,0.5-0.1,0.6-0.5,0.5
		C233.4,84.6,233.3,84.2,233.1,83.8z"/>
	<path class="st34" d="M233.5,85c0.2-0.2,0.3-0.3,0.5-0.5c0.3,0.5,0.5,1,0.3,1.5C233.7,85.9,233.7,85.4,233.5,85z"/>
	<path class="st29" d="M87.2,280.1c0,3.6-2.2,5.9-5.7,5.9c-3,0-5.3-2.5-5.3-5.6c0-3.4,2.7-6.3,5.8-6.3
		C85,274.1,87.2,276.7,87.2,280.1z"/>
	<path class="st1" d="M259,288.1c-1.1-0.5-2.2-0.4-3.3-0.5c-0.6,0-1.4,1-1.7-0.2c-0.3-0.9-0.1-1.8,1-2.2c1.3-0.5,1.3-1.2-0.1-1.7
		c-0.5-0.2-1-0.1-1-0.8c0-0.7,0.4-0.8,0.9-1c0.8-0.3,1.8-0.5,1.8-1.5c0-1.2-1.4-0.6-2-1.4c0.9-1,1.9-2,2.8-3
		c0.4-0.4,0.6-1.1,0.1-1.5c-0.6-0.5-1.1-1.4-2.1-1.1c-0.6,0.2-1.3,0.6-1.3,1.3c-0.1,3-2,4.7-4.1,6.2c-1.1,0.8-1.1,1.7,0,2.4
		c0.5,0.3,1.4,0.2,1.4,1c0,1-1.1,0.7-1.6,1c-0.4,0.2-0.9,0.2-1,0.7c-0.1,0.4,0.2,0.8,0.6,1c0.7,0.4,2,0.2,1.8,1.4
		c-0.2,1-1.5,0.9-2.3,1.2c-0.5,0.2-1.1,0.3-1.6,0.4c0.2-0.8,1-1.7-0.1-2.4c-0.9-0.6-1.9-0.9-2.9,0c-0.4,0.4-1,0.6-1.7,0
		c0.6-0.4,1.1-0.9,1.7-1.2c1.9-1,3.1-2.3,2.5-4.5c-0.2-0.7,0.2-1.1,0.7-1.4c1.2-0.7,2.4-0.9,0.6-2.8c-2.1-2.4-3.4-3.2-6.4-2.1
		c-1,0.4-0.9,0.7-0.6,1.5c0.8,1.9,2.3,1.8,4,1.3c-0.8,1.2-1.8,1.5-3,1.3c-0.3,0-0.9-0.3-0.9,0c-0.3,1.9-2,1.7-3.2,2.2
		c-1,0.5-0.8,1-0.4,1.6c0.5,0.7,1.2,1,2,0.9c0.3,0,0.7-0.2,0.9,0.2c0.2,0.5-0.2,0.8-0.5,1c-0.5,0.3-1,0.5-1.5,0.8
		c-0.5,0.3-1.2,0.2-1.1,1c0,0.6,0.6,1,1.1,1.2c1.3,0.3,1.1,1.1,0.7,1.9c-0.6,1.1-1.3,2.2-2,3.4c1.7,0.6,2.3-1.2,3.6-1.6
		c0.6,1.5,1.3,1.8,3.1,1.5c2-0.3,2.2-2,3.3-2.9c0.6,1.1,1.5,1.5,2.6,1c1.6-0.6,1.7,0.2,1.7,1.5c-0.1,1.6,0,3.2,0.4,4.8
		c0.1,0.4,0.1,1.1,0.8,1.1c0.6,0,0.9-0.5,1.1-0.9c0.4-1.1,0.4-2.2,0.4-3.3c-0.2-4.6-0.2-4.6,4.2-4.6c0.1,0,0.3,0,0.4,0
		c0.6,0,1.2,0,1.2-0.8C259.8,288.8,259.6,288.4,259,288.1z M242.6,283.3c0.2-0.8,0.6-1.5,1.5-1.6c0.5,0,0.6,0.4,0.7,0.9
		c-0.3,0.8-1,1-1.8,1.2C242.7,283.9,242.5,283.5,242.6,283.3z M244.3,291c-0.2,0.5-0.7,1-1.3,0.9c-0.7-0.1-0.6-0.9-0.8-1.3
		c-0.3-0.7,0.1-1,0.7-1.2c0.6-0.2,1.2-0.5,1.9-0.8C245.1,289.5,244.6,290.3,244.3,291z"/>
</g>
</svg>
