<?xml version="1.0" encoding="utf-8"?>
<!-- Generator: Adobe Illustrator 26.0.2, SVG Export Plug-In . SVG Version: 6.00 Build 0)  -->
<svg version="1.1" id="Layer_1" xmlns="http://www.w3.org/2000/svg" xmlns:xlink="http://www.w3.org/1999/xlink" x="0px" y="0px"
	 viewBox="0 0 500 276.5" style="enable-background:new 0 0 500 276.5;" xml:space="preserve">
<style type="text/css">
	.st0{fill:#45B8CA;}
</style>
<g id="XMLID_149_">
	<path id="XMLID_169_" class="st0" d="M158.7,162.3c-31.5,0-57.1,25.6-57.1,57.1s25.6,57.1,57.1,57.1s57.1-25.6,57.1-57.1
		S190.2,162.3,158.7,162.3z M158.7,237c-9.7,0-17.6-7.9-17.6-17.6c0-9.7,7.9-17.6,17.6-17.6c9.7,0,17.6,7.9,17.6,17.6
		C176.3,229.2,168.4,237,158.7,237z"/>
	<path id="XMLID_168_" class="st0" d="M57.1,201.8c7.3,0,13.6,4.5,16.3,10.9l0,0c23.7-2.2,29.9-34.4,8.4-44.7
		c-8.2-3.9-17.4-6-27.1-5.6C25,163.6,0.9,188,0,217.7c-1,32.3,25,58.8,57.1,58.8c8.8,0,17-2,24.4-5.5c21.6-10.3,15.7-42.6-8.2-44.9
		c-3,7.1-10.4,11.9-18.9,10.7c-7.8-1.1-14.1-7.6-14.9-15.4C38.4,210.8,46.7,201.8,57.1,201.8z"/>
	<path id="XMLID_167_" class="st0" d="M57.1,69.7c7.3,0,13.6,4.5,16.3,10.9l0,0c23.7-2.2,29.9-34.4,8.4-44.7
		c-8.2-3.9-17.4-6-27.1-5.6C25,31.5,0.9,55.9,0,85.5c-1,32.3,25,58.8,57.1,58.8c8.8,0,17-2,24.4-5.5c21.6-10.3,15.7-42.6-8.2-44.9
		c-3,7.1-10.4,11.9-18.9,10.7c-7.8-1.1-14.1-7.6-14.9-15.4C38.4,78.7,46.7,69.7,57.1,69.7z"/>
	<path id="XMLID_164_" class="st0" d="M262.8,31.7h-8.1h-8.5h-30.9v71.8c0,21.8,17.7,39.5,39.5,39.5h0v-13.5h9.1
		c26.7,0,48.3-21.4,48.9-47.9C313.2,54.1,290.2,31.7,262.8,31.7z M264.5,92.3h-9.8V68.8h9.8c6.5,0,11.7,5.3,11.7,11.7
		C276.2,87,271,92.3,264.5,92.3z"/>
	<path id="XMLID_163_" class="st0" d="M162.6,71.1V95c0,5.4-4.3,10-9.7,9.8c-5.7-0.2-9.1-4.9-9.1-10.8V71.1
		c0-21.8-17.7-39.5-39.5-39.5h0l0,61.4c0,27.4,22.4,50.3,49.8,49.8c26.5-0.5,47.9-22.2,47.9-48.9V31.7h0
		C180.2,31.7,162.6,49.3,162.6,71.1z"/>
	<path id="XMLID_162_" class="st0" d="M73.4,94c-3,7.1-10.4,11.9-18.9,10.7c-7.8-1.1-14.1-7.6-14.9-15.4
		c-1.2-10.6,7.1-19.6,17.5-19.6c7.3,0,13.6,4.5,16.3,10.9l0,0c23.7-2.2,29.9-34.4,8.4-44.7c-8.2-3.9-17.4-6-27.1-5.6
		C25,31.5,0.9,55.9,0,85.5c-1,32.3,25,58.8,57.1,58.8c8.7,0,17-2,24.4-5.5C103.2,128.6,97.2,96.2,73.4,94L73.4,94z"/>
	<g id="XMLID_158_">
		<g id="XMLID_160_">
			<circle id="XMLID_161_" class="st0" cx="396" cy="15.8" r="15.8"/>
		</g>
		<path id="XMLID_159_" class="st0" d="M410.1,68.9v12.6l-9.8-17.4c-11.4-20.2-32.8-32.7-55.9-32.7h0v110.8l0,0
			c20.7,0,37.5-16.8,37.5-37.5V92.1l9.8,17.4c11.4,20.2,32.8,32.7,55.9,32.7h0V31.4l0,0C426.9,31.4,410.1,48.2,410.1,68.9z"/>
	</g>
	<path id="XMLID_157_" class="st0" d="M291.5,201.5v12.6l-9.8-17.4c-11.4-20.2-32.8-32.7-55.9-32.7h0v110.8l0,0
		c20.7,0,37.5-16.8,37.5-37.5v-12.6l9.8,17.4c11.4,20.2,32.8,32.7,55.9,32.7h0V164l0,0C308.3,164,291.5,180.8,291.5,201.5z"/>
	<path id="XMLID_156_" class="st0" d="M402.9,243.5h-18.1v-12.3h27.6c6.5,0,11.7-5.3,11.7-11.7c0-6.5-5.3-11.7-11.7-11.7h-27.6v0
		v-12.3h18.1c17.3,0,31.4-14,31.4-31.4h-89.4v110.8l89.4,0C434.2,257.5,420.2,243.5,402.9,243.5z"/>
	<g id="XMLID_150_">
		<path id="XMLID_151_" class="st0" d="M494.5,169.3c3.7,3.6,5.5,8.1,5.5,13.5c0.2,10.6-8.5,19.2-19.3,19c-5.5,0-10.1-1.8-13.7-5.4
			c-3.7-3.6-5.5-8.1-5.5-13.5c-0.2-10.5,8.4-19,19.3-18.9C486.2,163.9,490.8,165.7,494.5,169.3z M480.7,198.7
			c4.6,0,8.5-1.5,11.6-4.5c3-3,4.5-6.8,4.5-11.3c0-4.6-1.5-8.3-4.5-11.3c-3-3-6.9-4.5-11.6-4.5c-4.6,0-8.5,1.5-11.5,4.5
			c-3,3-4.6,6.7-4.6,11.3c0,4.6,1.5,8.3,4.6,11.3C472.2,197.2,476.1,198.7,480.7,198.7z M484.8,185.5l4.2,6.1c1,1.5,0.5,2.5-1.4,2.5
			h-0.2c-1.3,0-2.2-0.5-2.8-1.6l-4-6.5H477v5.8c0,1.5-0.7,2.3-2.3,2.3h-0.1c-1.5,0-2.2-0.7-2.2-2.3v-18.7c0-1.5,0.7-2.3,2.2-2.3h6.6
			c5.6,0,9,2.8,9,7.6C490.2,182,488.2,184.5,484.8,185.5z M481.3,182.1c2.7,0,4.3-1.4,4.3-3.5c0-2.3-1.6-3.5-4.3-3.5H477v7.1H481.3z
			"/>
	</g>
</g>
</svg>
