<?xml version="1.0" encoding="utf-8"?>
<!-- Generator: Adobe Illustrator 26.0.1, SVG Export Plug-In . SVG Version: 6.00 Build 0)  -->
<svg version="1.1" id="Layer_1" xmlns="http://www.w3.org/2000/svg" xmlns:xlink="http://www.w3.org/1999/xlink" x="0px" y="0px"
	 viewBox="0 0 500 427.6" style="enable-background:new 0 0 500 427.6;" xml:space="preserve">
<style type="text/css">
	.st0{fill:#0D0B0B;}
	.st1{fill:#005FC5;}
</style>
<g>
	<path class="st0" d="M41.6,366.3c1,0,1.8-0.8,1.8-1.8c0-1-0.8-1.8-1.8-1.8c-1,0-1.8,0.8-1.8,1.8C39.9,365.5,40.6,366.3,41.6,366.3z
		"/>
	<path class="st0" d="M37,366.3c1,0,1.8-0.8,1.8-1.8c0-1-0.8-1.8-1.8-1.8c-1,0-1.7,0.8-1.7,1.8C35.2,365.5,36,366.3,37,366.3z"/>
	<path class="st0" d="M57.1,385.7c-1,0-1.8,0.8-1.8,1.8c0,1,0.8,1.8,1.8,1.8c1,0,1.8-0.8,1.8-1.8C58.9,386.5,58.1,385.7,57.1,385.7z
		"/>
	<path class="st0" d="M52.4,385.7c-1,0-1.7,0.8-1.7,1.8c0,1,0.8,1.8,1.7,1.8c1,0,1.8-0.8,1.8-1.8C54.2,386.5,53.4,385.7,52.4,385.7z
		"/>
	<path class="st0" d="M63.1,366.3c1,0,1.8-0.8,1.8-1.8c0-1-0.8-1.8-1.8-1.8c-1,0-1.7,0.8-1.7,1.8C61.3,365.5,62,366.3,63.1,366.3z"
		/>
	<path class="st0" d="M67.7,366.3c1,0,1.8-0.8,1.8-1.8c0-1-0.8-1.8-1.8-1.8c-1,0-1.8,0.8-1.8,1.8C65.9,365.5,66.7,366.3,67.7,366.3z
		"/>
	<path class="st0" d="M103,368.5c-1.3,0-2.8,0.1-3.9,0.3v2.6c1.1-0.2,2.4-0.3,3.6-0.3c4.8,0,6.4,2.2,6.4,6.4c0,0.9-0.1,1.9-0.2,2.8
		H98.3h-0.5h-3c0.1-1.4,0.2-2.9,0.2-4.3c0-3.2-0.4-6.2-1-8.6l-3.3,0.5c0.6,2.3,1,5.2,1,8.3c0,1.1-0.1,2.7-0.2,4h-0.9
		c-3.1,0-4.1-0.5-4.1-3.3v-7.8h-3.3v6.9c0,3.5-1.1,4.5-2.9,4.5c-2.2,0-2.4-1.5-2.4-4.5v-5.6h-3.4v5.9c0,3.1-0.9,4-3,4h-0.8h-0.5
		h-3.2v-11.8h-3.3v11.8h-3.6h-0.5h-3.2v-11.8h-3.3v11.8h-3.6h-0.5h-3.1v-11.1c0,0-2.8-1.1-6.3-1.1c-5.4,0-7.9,3.6-7.9,7.6
		c0,4.4,2.2,7.2,8.1,7.2h9.2h0.5h10.1h0.5h10.1h0.5h0.8c2.3,0,3.5-0.8,4.1-2.3c0.4,1.5,2,2.5,4,2.5c2.6,0,4.1-1.2,4.7-2.5
		c0.9,1.8,2.5,2.3,6.1,2.3h7.4h0.5h13.7c0.4-2.2,0.5-4.1,0.5-5.6C112.5,371.6,109.9,368.5,103,368.5z M42.6,380.5h-2.4
		c-3.6,0-5.1-1.6-5.1-4.8c0-2.8,1.6-4.7,4.1-4.7c2,0,3.4,0.6,3.4,0.6V380.5z"/>
	<path class="st0" d="M103.9,385.6c-1,0-1.8,0.8-1.8,1.8c0,1,0.8,1.8,1.8,1.8c1,0,1.8-0.8,1.8-1.8
		C105.7,386.3,104.9,385.6,103.9,385.6z"/>
	<path class="st0" d="M148.3,380.5h-3.6h-0.5h-3.2v-18.1h-3.3v18.1h-3.6h-0.5h-3.1v-11.1c0,0-2.8-1.1-6.3-1.1
		c-5.4,0-7.9,3.6-7.9,7.6c0,4.4,2.2,7.2,8.1,7.2h2.8v0.6c0,3.3-2.4,4.5-5.6,4.5c-2.4,0-4.9-0.6-4.9-0.6l-0.2,2.8
		c0,0,2.4,0.5,4.8,0.5c6.7,0,9.2-3.5,9.2-7.4v-0.4h3.1h0.5h10.1h0.5h7v-21.6h-3.3V380.5z M127.3,380.5h-2.4c-3.6,0-5.1-1.6-5.1-4.8
		c0-2.8,1.6-4.7,4.1-4.7c2,0,3.4,0.6,3.4,0.6V380.5z"/>
	<rect x="157.2" y="361.5" class="st0" width="3.4" height="21.6"/>
	<path class="st0" d="M180.3,366.3c1,0,1.8-0.8,1.8-1.8c0-1-0.8-1.8-1.8-1.8c-1,0-1.7,0.8-1.7,1.8
		C178.6,365.5,179.3,366.3,180.3,366.3z"/>
	<path class="st0" d="M185,366.3c1,0,1.8-0.8,1.8-1.8c0-1-0.8-1.8-1.8-1.8c-1,0-1.8,0.8-1.8,1.8C183.2,365.5,184,366.3,185,366.3z"
		/>
	<path class="st0" d="M188.2,380.5h-4.8c-6.1,0-8-2.2-8-6.7c0-1.7,0.4-3.7,1.1-5.2l-3.6,0.6c-0.5,1.3-0.9,3.2-0.9,5
		c0,5.7,2.9,9,11,9h8.5v-14.4h-3.3V380.5z"/>
	<path class="st0" d="M214,368.3c-5.2,0-7.8,3.5-7.8,7.5c0,2.4,0.7,3.9,2,4.8c0,0-0.7-0.2-1.7-0.2h-2.4h-0.5h-3.1v-19h-3.4v21.6h6.5
		h0.5h16.6v-7.8C220.7,370.9,218.6,368.3,214,368.3z M217.4,380.5h-2.7c-3.6,0-5.2-1.6-5.2-4.8c0-2.8,1.6-4.7,4.2-4.7
		c2.3,0,3.7,1.4,3.7,4.8V380.5z"/>
	<path class="st0" d="M244.9,366.4c1,0,1.9-0.8,1.9-1.9c0-1-0.9-1.9-1.9-1.9c-1,0-1.9,0.9-1.9,1.9S243.9,366.4,244.9,366.4z"/>
	<path class="st0" d="M269.7,380.5h-3.6h-0.5h-3.2v-18.1h-3.3v18.1h-3.6H255h-1.7c0.1-1.1,0.2-2.1,0.2-3c0-5.9-2.6-8.9-9.5-8.9
		c-1.3,0-2.8,0.1-3.9,0.3v2.6c1.1-0.2,2.4-0.3,3.6-0.3c4.8,0,6.4,2.2,6.4,6.4c0,0.9-0.1,1.9-0.2,2.8h-10.6h-0.5h-1.5
		c-0.2-7.1-3.6-10.6-10-12.4l-0.8,2.8c5.2,1.4,7.4,4.4,7.5,9.6h-9.5v2.7h14.3h0.5H255h0.5h10.1h0.5h7v-21.6h-3.3V380.5z"/>
	<path class="st0" d="M290.6,366.3c1,0,1.8-0.8,1.8-1.8c0-1-0.8-1.8-1.8-1.8c-1,0-1.8,0.8-1.8,1.8
		C288.8,365.5,289.6,366.3,290.6,366.3z"/>
	<circle class="st0" cx="295.3" cy="364.5" r="1.8"/>
	<path class="st0" d="M293.4,368.3c-5.2,0-7.8,3.5-7.8,7.7c0,4.4,2.2,7.1,8.1,7.1h6.4v-7.8C300.1,370.9,297.9,368.3,293.4,368.3z
		 M296.8,380.5h-2.7c-3.6,0-5.1-1.6-5.1-4.8c0-2.8,1.6-4.7,4.1-4.7c2.3,0,3.7,1.4,3.7,4.8V380.5z"/>
	<path class="st0" d="M337.8,366.3c1,0,1.8-0.8,1.8-1.8c0-1-0.8-1.8-1.8-1.8c-1,0-1.7,0.8-1.7,1.8
		C336,365.5,336.8,366.3,337.8,366.3z"/>
	<path class="st0" d="M342.5,366.3c1,0,1.8-0.8,1.8-1.8c0-1-0.8-1.8-1.8-1.8c-1,0-1.8,0.8-1.8,1.8
		C340.7,365.5,341.4,366.3,342.5,366.3z"/>
	<path class="st0" d="M369.5,380.5h-3.6h-0.5h-2.3v-5.2c0-4.4-2.2-7-6.8-7c-5.2,0-7.8,3.5-7.8,7.5c0,3.7-1.4,4.6-3.3,4.6H345h-3.2
		v-11.8h-3.3v11.8h-3.6h-0.5h-1.7c0.1-1.1,0.2-2.1,0.2-3c0-5.9-2.6-8.9-9.5-8.9c-1.3,0-2.8,0.1-3.9,0.3v2.6c1.1-0.2,2.4-0.3,3.6-0.3
		c4.8,0,6.4,2.2,6.4,6.4c0,0.9-0.1,1.9-0.2,2.8h-10.6h-0.5h-1.5c-0.2-7.1-3.6-10.6-10-12.4l-0.8,2.8c5.2,1.4,7.4,4.4,7.5,9.6h-9.5
		v2.7h14.3h0.5h15.7h0.5H345h0.5h0.3c2.5,0,3.9-1.1,4.4-2.6c1,1.6,2.5,2.6,7,2.6h8.3h0.5h7v-21.6h-3.3V380.5z M359.8,380.5h-2.7
		c-3.6,0-5.2-1.6-5.2-4.8c0-2.8,1.6-4.7,4.2-4.7c2.3,0,3.7,1.4,3.7,4.8V380.5z"/>
	<rect x="378.4" y="361.5" class="st0" width="3.4" height="21.6"/>
	<path class="st0" d="M411.4,368.3c-4.6,0-7.6,3.3-7.6,7.6c0,2.1,0.6,3.7,1.7,4.6h-1.4c-5.6,0-7.5-2.2-7.5-6.7
		c0-1.7,0.4-3.7,1.1-5.2l-3.6,0.6c-0.5,1.3-0.9,3.2-0.9,5c0,5.7,2.9,9,11,9h6.6c4.5,0,7.6-3.3,7.6-7.6
		C418.4,370.4,415.5,368.3,411.4,368.3z M411.1,380.5c-2.5,0-3.9-1.7-3.9-4.8c0-3.3,2-4.6,4-4.6c2.6,0,3.8,1.7,3.8,4.7
		C415,378.9,413.3,380.5,411.1,380.5z"/>
	<path class="st0" d="M411.2,366.4c1,0,1.9-0.8,1.9-1.9c0-1-0.9-1.9-1.9-1.9c-1,0-1.9,0.9-1.9,1.9S410.2,366.4,411.2,366.4z"/>
	<path class="st0" d="M439.2,366.3c1,0,1.9-0.8,1.9-1.9c0-1-0.9-1.9-1.9-1.9s-1.9,0.9-1.9,1.9C437.3,365.5,438.2,366.3,439.2,366.3z
		"/>
	<path class="st0" d="M463.2,368.3c-3.4,0-6.7,2.2-8.1,6.4h-0.1c0.2-1.6,0.3-3.6,0.3-5.1v-1h-3.3v11.8h-3.6H448h-1.2
		c-1.1,0-2.5,0.1-2.5,0.1c1.4-1.1,2.1-3.1,2.1-5.1c0-5-2.9-7.2-7-7.2c-4.6,0-7.6,3.3-7.6,7.6c0,2.1,0.6,3.7,1.8,4.7
		c0,0-1-0.1-2.1-0.1h-1.7h-0.5h-3.1v-19h-3.4v21.6h6.5h0.5H448h0.5h11.9c6.7,0,9.1-3.5,9.1-7.8C469.5,370.9,467.4,368.3,463.2,368.3
		z M439.1,380.5c-2.5,0-3.9-1.7-3.9-4.8c0-3.3,1.9-4.6,3.9-4.6c2.6,0,3.8,1.7,3.8,4.7C443,378.9,441.2,380.5,439.1,380.5z
		 M460.7,380.5h-5.3c0.6-4.7,3.4-9.5,7.2-9.5c2.4,0,3.5,1.7,3.5,4.5C466.1,378.2,464.9,380.5,460.7,380.5z"/>
	<path class="st0" d="M462.5,366.4c1,0,1.9-0.8,1.9-1.9c0-1-0.9-1.9-1.9-1.9s-1.9,0.9-1.9,1.9S461.5,366.4,462.5,366.4z"/>
</g>
<g>
	<path class="st1" d="M0,319.5l7.1-81.7h18.8l-5.7,65h24.7l-1.5,16.7H0z"/>
	<path class="st1" d="M88.9,321c-25.3,0-36.3-15.6-34.1-40.9c2.4-27,22.1-43.7,44.4-43.7c25.3,0,36.4,15.6,34.2,40.9
		C131.1,304.3,111.2,321,88.9,321z M96.4,253.4c-11.1,0-20,8.8-21.4,24.6c-1.4,16.1,3.9,25.8,16.7,25.8c11.3,0,20-8.7,21.4-24.6
		C114.6,263.3,109.2,253.4,96.4,253.4z"/>
	<path class="st1" d="M183.8,320.9c-27.7,0-40.4-15.4-38.3-39.3c2.4-27.2,20.4-44.9,50.3-44.9c8.8,0,17.2,1.5,23.2,3.4l-5.1,17.2
		c-5.7-2.3-12.6-3.8-20.4-3.8c-17.7,0-26,11.4-27.3,25.8c-1.3,15.2,5.6,24.6,21.1,24.6c2.9,0,5.6-0.4,8-1.1l2.3-26.7h18.8l-3.5,39.6
		C204.6,318.9,194.2,320.9,183.8,320.9z"/>
	<path class="st1" d="M232.1,319.5l7.1-81.7H258l-7.1,81.7H232.1z"/>
	<path class="st1" d="M288.4,321c-7.6,0-13.7-0.7-19.3-2.2l3.4-17.9c5.1,2.2,11.1,3.6,17.8,3.6c6,0,11.4-2.5,11.9-8.5
		c1.2-13.9-32.1-6.8-29.7-34.1c1.3-15.4,14-25.5,34.5-25.5c4.4,0,10.1,0.6,14.7,1.6l-3.1,16.3c-4.3-1.5-8.9-2.3-13.7-2.3
		c-8,0-11.8,3.3-12.2,7.9c-1.1,12.6,32.7,7.9,30.4,33.9C321.8,309.2,307.6,321,288.4,321z"/>
	<path class="st1" d="M371.6,253.9l-5.7,65.6h-18.9l5.7-65.6h-19.5l1.4-16.1h58l-1.4,16.1H371.6z"/>
	<path class="st1" d="M399.6,319.5l7.1-81.7h18.8l-7.1,81.7H399.6z"/>
	<path class="st1" d="M473.1,320.5c-30.3,0-36.5-20.3-34.8-38.8c2.3-26.5,18.3-44.5,45.4-44.5c5.6,0,11.4,0.8,16.4,2.4l-3.9,17.2
		c-4.3-1.7-9.3-2.5-14.4-2.5c-13.2,0-21.2,9.6-22.5,24.3c-1.4,16,4.4,24.9,19.1,24.9c4.2,0,10.1-1.1,14.2-3l1.2,16.7
		C487.7,319.3,480.2,320.5,473.1,320.5z"/>
</g>
<g>
	<path class="st0" d="M39.1,427.4c-2.4,0-4.3-0.1-6.1-0.2v-23c1.8-0.1,4.5-0.2,7.1-0.2c7.3,0,11.8,3.4,11.8,11.3
		C51.9,423.3,46.6,427.4,39.1,427.4z M39.8,407.1c-1.1,0-2.3,0-3.1,0.1V424c0.8,0.1,1.8,0.2,2.8,0.2c5,0,8.4-2.7,8.4-8.6
		C47.9,410.2,45.5,407.1,39.8,407.1z"/>
	<path class="st0" d="M56,427.2v-23.1h12.2v3.1h-8.4v6.6h8v3h-8v7.2h8.4v3.2H56z"/>
	<path class="st0" d="M76.8,407.3v6.8h7.9v3h-7.9v10.1h-3.7v-23.1h12v3.1H76.8z"/>
	<path class="st0" d="M101.4,427.2l-1.7-5.1h-9.4l-1.8,5.1h-3.8l8.2-23.1h4.3l8.3,23.1H101.4z M95.9,411.3c-0.4-1.1-0.7-2.1-1-3.1h0
		c-0.3,1-0.6,2-1,3.1l-2.8,7.9h7.5L95.9,411.3z"/>
	<path class="st0" d="M112.1,407.3v6.8h7.9v3h-7.9v10.1h-3.7v-23.1h12v3.1H112.1z"/>
	<path class="st0" d="M141.3,427.6c-7.2,0-8.8-4-8.8-8.2v-15.2h3.7v14.9c0,3.1,1,5.4,5.3,5.4c3.7,0,5.4-1.6,5.4-5.9v-14.5h3.7v14.2
		C150.6,424.5,147.3,427.6,141.3,427.6z"/>
	<path class="st0" d="M170.3,427.2l-8.2-13.9c-0.9-1.6-1.6-3.1-2.3-4.5c0.1,2.3,0.2,8.4,0.2,12.1v6.4h-3.6v-23.1h5l8,13.6
		c0.9,1.4,1.7,3.1,2.4,4.6c-0.1-2.6-0.2-8.7-0.2-12.4v-5.8h3.6v23.1H170.3z"/>
	<path class="st0" d="M181.2,427.2v-23.1h3.7v23.1H181.2z"/>
	<path class="st0" d="M198.3,407.3v19.9h-3.7v-19.9h-6.4v-3.1h16.4v3.1H198.3z"/>
	<path class="st0" d="M207.9,427.2v-23.1H220v3.1h-8.4v6.6h8v3h-8v7.2h8.4v3.2H207.9z"/>
	<path class="st0" d="M231.1,427.4c-2.4,0-4.3-0.1-6.1-0.2v-23c1.8-0.1,4.5-0.2,7.1-0.2c7.3,0,11.8,3.4,11.8,11.3
		C243.9,423.3,238.6,427.4,231.1,427.4z M231.8,407.1c-1.1,0-2.3,0-3.1,0.1V424c0.8,0.1,1.8,0.2,2.8,0.2c5,0,8.4-2.7,8.4-8.6
		C239.9,410.2,237.5,407.1,231.8,407.1z"/>
	<path class="st0" d="M261.2,407.3v6.8h7.9v3h-7.9v10.1h-3.7v-23.1h12v3.1H261.2z"/>
	<path class="st0" d="M282.4,427.6c-7,0-10.4-4.5-10.4-11.6c0-7.7,5-12.2,11.1-12.2c7,0,10.4,4.5,10.4,11.6
		C293.5,423.1,288.4,427.6,282.4,427.6z M282.7,407.1c-3.8,0-6.8,3-6.8,8.4c0,5.3,2.2,8.7,6.8,8.7c3.8,0,6.8-3,6.8-8.4
		C289.5,410.6,287.3,407.1,282.7,407.1z"/>
	<path class="st0" d="M308.5,427.2l-7-10h-0.4v10h-3.7v-23.1c1.7-0.1,3.6-0.1,6.2-0.1c4.8,0,8.1,1.7,8.1,6.2c0,3.7-2.8,6.1-6.3,6.5
		c0.6,0.8,1.4,1.7,1.9,2.5l5.9,8H308.5z M303.1,407.1c-0.8,0-1.4,0-1.9,0.1v7.3c0.3,0,1,0.1,1.8,0.1c3,0,4.8-1.5,4.8-3.9
		C307.8,408.2,306.2,407.1,303.1,407.1z"/>
	<path class="st0" d="M325.4,427.2v-23.1h3.7V424h7.9v3.2H325.4z"/>
	<path class="st0" d="M348.2,427.6c-7,0-10.4-4.5-10.4-11.6c0-7.7,5-12.2,11.1-12.2c7,0,10.4,4.5,10.4,11.6
		C359.3,423.1,354.2,427.6,348.2,427.6z M348.5,407.1c-3.8,0-6.8,3-6.8,8.4c0,5.3,2.2,8.7,6.8,8.7c3.8,0,6.8-3,6.8-8.4
		C355.3,410.6,353.1,407.1,348.5,407.1z"/>
	<path class="st0" d="M373.6,427.5c-7.4,0-11.6-4.2-11.6-11.2c0-7.3,4.3-12.4,12.6-12.4c2.3,0,4.5,0.4,6.5,1l-0.8,3.4
		c-1.8-0.8-3.8-1.1-5.9-1.1c-5.9,0-8.3,4.1-8.3,8.7c0,5.4,2.9,8.5,8,8.5c1.3,0,2.5-0.2,3.6-0.5v-8.4h3.7v10.8
		C379,427.1,376.2,427.5,373.6,427.5z"/>
	<path class="st0" d="M386.5,427.2v-23.1h3.7v23.1H386.5z"/>
	<path class="st0" d="M400,427.6c-1.9,0-3.7-0.2-5.2-0.6l0.4-3.6c1.4,0.6,3.1,1,4.9,1c2.4,0,4.5-1,4.5-3.5c0-4.9-10.1-2.8-10.1-10.3
		c0-3.9,3-6.7,8.4-6.7c1.3,0,2.9,0.2,4.1,0.4l-0.4,3.3c-1.2-0.4-2.6-0.6-4-0.6c-2.9,0-4.3,1.3-4.3,3.2c0,4.6,10.3,2.9,10.3,10.2
		C408.7,424.5,405.2,427.6,400,427.6z"/>
	<path class="st0" d="M419.7,407.3v19.9h-3.7v-19.9h-6.4v-3.1H426v3.1H419.7z"/>
	<path class="st0" d="M429.2,427.2v-23.1h3.7v23.1H429.2z"/>
	<path class="st0" d="M447.7,427.5c-7.7,0-10.6-5-10.6-11.2c0-7.1,3.7-12.4,11.4-12.4c1.7,0,3.6,0.2,5.1,0.7l-0.5,3.4
		c-1.5-0.6-3.2-0.9-4.9-0.9c-4.9,0-7,3.7-7,8.5c0,5.4,2.3,8.4,7.3,8.4c1.6,0,3.5-0.4,4.8-1.1l0.6,3.2
		C452.1,427,449.9,427.5,447.7,427.5z"/>
	<path class="st0" d="M462.4,427.6c-1.9,0-3.7-0.2-5.2-0.6l0.4-3.6c1.4,0.6,3.1,1,4.9,1c2.4,0,4.5-1,4.5-3.5
		c0-4.9-10.1-2.8-10.1-10.3c0-3.9,3-6.7,8.4-6.7c1.3,0,2.9,0.2,4.1,0.4l-0.4,3.3c-1.2-0.4-2.6-0.6-4-0.6c-2.9,0-4.3,1.3-4.3,3.2
		c0,4.6,10.3,2.9,10.3,10.2C471.1,424.5,467.6,427.6,462.4,427.6z"/>
</g>
<g>
	<path class="st1" d="M331.8,34.2c-33-33.7-89-33.6-91.4-33.6c-2.1,0-3.8,1.8-3.8,3.9c0,2.1,1.7,3.8,3.9,3.8c0,0,0,0,0,0
		c0.5,0,55.1-0.1,85.8,31.3c14.5,14.8,21.5,34.5,20.8,58.3c-1.6,30.2-12.8,54.1-33.3,71c-42.9,35.3-114.4,30.5-130.9,28.9
		c1.1-14.8,7.4-75.9,11.8-117.4c0.2-2.1-1.3-4-3.4-4.2c-2.1-0.2-4,1.3-4.2,3.4c0,0-3.2,30.1-6.2,60.3c-6.3,62.1-6.3,62.1-4.8,63.8
		c0.6,0.7,1.5,1.2,2.4,1.3c0.7,0.1,12.5,1.7,29.8,1.7c6.3,0,13.3-0.2,20.8-0.8c47.4-3.6,74.9-18.9,89.7-31.1
		c22.2-18.3,34.4-44.1,36.1-76.6C355.6,72.1,347.8,50.5,331.8,34.2z"/>
	<path class="st1" d="M201.2,182.2c0.3,0,4.1,0.3,10.3,0.3c7,0,17-0.4,28.4-1.9c19.9-2.6,47.7-9.5,67.4-27
		c15.6-13.9,23.9-32.3,24.8-54.9c0.6-20.3-5.3-37.1-17.7-49.7c-24.8-25.4-66.2-25.6-67.9-25.5c-1.5,0-2.7,1.2-2.7,2.7
		c0,1.5,1.2,2.7,2.7,2.7c0,0,0,0,0,0c0.7,0,41,0.2,64.1,23.9c11.3,11.6,16.7,27,16.1,45.8c-0.8,21-8.6,38.2-23,51.1
		c-31.7,28.2-86.8,27.8-99.5,27.3c0.9-11.7,6.1-62.5,9.8-97c0.2-1.5-0.9-2.8-2.4-3c-1.5-0.2-2.8,0.9-3,2.4c0,0-2.6,24.8-5.2,49.7
		c-5.2,50.9-5.2,50.9-4.1,52.2C199.8,181.8,200.5,182.1,201.2,182.2z"/>
	<path class="st1" d="M229.9,78.2c-8.9,80.7-8.7,80.9-8,81.7c0.3,0.4,0.8,0.6,1.3,0.6c0.1,0,1,0,2.5,0c13.7,0,78.2-3.1,81.8-61.7
		c1.8-47.9-55-51.7-55.6-51.8c-1,0-1.8,0.7-1.9,1.7c-0.1,1,0.7,1.8,1.7,1.9c0.1,0,13.7,0.8,26.9,7.3c17.5,8.5,26,22.2,25.3,40.8
		c-1.6,25.8-15.6,43.4-41.5,52.4c-16.2,5.6-32.2,6-37.4,5.9c0.7-8.8,5.2-50.2,8.3-78.4c0.1-1-0.6-1.8-1.6-2
		C230.9,76.5,230,77.2,229.9,78.2z"/>
	<path class="st1" d="M204.9,23.7h-8.6c-0.9,0-1.7,0.3-2.3,0.9c-0.5,0.5-0.8,1.2-0.8,1.9c0,1.6,1.4,2.8,3.1,2.8h8.6
		c0.9,0,1.7-0.3,2.3-0.9c0.5-0.5,0.8-1.2,0.8-1.9C208,24.9,206.6,23.7,204.9,23.7z"/>
	<path class="st1" d="M182.6,28.4c0.5-0.5,0.8-1.2,0.8-1.9c0-1.5-1.4-2.8-3.1-2.8h-8.6c-0.9,0-1.7,0.3-2.3,0.9
		c-0.5,0.5-0.8,1.2-0.8,1.9c0,1.6,1.4,2.8,3.1,2.8h8.6C181.2,29.3,182,29,182.6,28.4z"/>
	<path class="st1" d="M196.5,8.7H221c1.3,0,2.6-0.5,3.5-1.4c0.8-0.8,1.2-1.8,1.2-2.9c0-2.4-2.1-4.3-4.7-4.3h-24.6
		c-1.3,0-2.6,0.5-3.5,1.4c-0.8,0.8-1.2,1.8-1.2,2.9C191.7,6.7,193.9,8.7,196.5,8.7z"/>
	<path class="st1" d="M218,24.6c-0.5,0.5-0.8,1.2-0.8,1.9c0,1.6,1.4,2.8,3.1,2.8h8.6c0.9,0,1.7-0.3,2.3-0.9c0.5-0.5,0.8-1.2,0.8-1.9
		c0-1.5-1.4-2.8-3.1-2.8h-8.6C219.4,23.7,218.5,24,218,24.6z"/>
	<path class="st1" d="M182.3,7.3c0.8-0.8,1.2-1.8,1.2-2.9c0-2.4-2.1-4.3-4.7-4.3h-24.6c-1.3,0-2.6,0.5-3.5,1.4
		c-0.8,0.8-1.2,1.8-1.2,2.9c0,2.4,2.1,4.3,4.7,4.3h24.6C180.2,8.7,181.5,8.1,182.3,7.3z"/>
	<path class="st1" d="M228.8,49.1c0-1.2-1-2.1-2.1-2.1c-1.2,0-2.1,0.9-2.1,2.1c0,1.2,1,2.1,2.1,2.1
		C227.9,51.2,228.8,50.3,228.8,49.1z"/>
	<path class="st1" d="M188.5,51.2c1.2,0,2.1-0.9,2.1-2.1c0-1.2-1-2.1-2.1-2.1c-1.2,0-2.1,0.9-2.1,2.1
		C186.4,50.3,187.3,51.2,188.5,51.2z"/>
	<path class="st1" d="M219.2,49.1c0-1.2-1-2.1-2.1-2.1c-1.2,0-2.1,0.9-2.1,2.1c0,1.2,1,2.1,2.1,2.1
		C218.3,51.2,219.3,50.3,219.2,49.1z"/>
	<ellipse transform="matrix(0.7046 -0.7096 0.7096 0.7046 26.4692 161.8015)" class="st1" cx="207.6" cy="49.1" rx="2.1" ry="2.1"/>
	<path class="st1" d="M198,51.2c1.2,0,2.1-0.9,2.1-2.1c0-1.2-1-2.1-2.1-2.1c-1.2,0-2.1,0.9-2.1,2.1C195.9,50.3,196.9,51.2,198,51.2z
		"/>
	<ellipse transform="matrix(0.7046 -0.7096 0.7096 0.7046 34.9386 182.1461)" class="st1" cx="236.2" cy="49.1" rx="2.1" ry="2.1"/>
</g>
</svg>
