<?xml version="1.0" encoding="utf-8"?>
<!-- Generator: Adobe Illustrator 26.0.1, SVG Export Plug-In . SVG Version: 6.00 Build 0)  -->
<svg version="1.1" id="Layer_1" xmlns="http://www.w3.org/2000/svg" xmlns:xlink="http://www.w3.org/1999/xlink" x="0px" y="0px"
	 viewBox="0 0 381.6 500" style="enable-background:new 0 0 381.6 500;" xml:space="preserve">
<style type="text/css">
	.st0{fill:#1F1F1D;}
	.st1{fill:#252523;}
	.st2{fill:#BD850C;}
	.st3{fill:#20201F;}
	.st4{fill:#21211F;}
	.st5{fill:#232321;}
	.st6{fill:#20201E;}
	.st7{fill:#242422;}
	.st8{fill:#272725;}
	.st9{fill:#585857;}
</style>
<g>
	<path class="st0" d="M117.6,321.2c1.3,0.6,2.6,1.1,3.8,1.7c20.6,11.2,41.2,10.9,61.2-1.2c13.9-8.4,21.9-21.5,26.6-36.7
		c2.8-9.1,4.1-18.5,4.1-28c0.1-36.4,0-72.7,0.1-109.1c0-2.1,0.4-4.4,1.2-6.4c7.7-20.5,15.4-41,23.2-61.5c0.1-0.3,0.3-0.5,0.9-1.3
		c0,4.2,0,7.7,0,11.2c0,51.6,0,103.2-0.1,154.8c0,10.8,0.3,21.8-1,32.5c-3,24.9-15.1,44.6-37.6,56.4c-21.4,11.2-43.8,12-66,1.7
		c-6.7-3.1-12.2-7.7-16.7-13.5C117.3,321.7,117.5,321.5,117.6,321.2z"/>
	<path class="st0" d="M96,276.2c2.1,4.5,3.8,8.4,5.8,12.1c13.6,25.2,49.7,27.6,66.8,9c7.7-8.4,11.6-18.5,13-29.6
		c0.8-6.4,1-12.9,1.1-19.3c0.1-24.6,0-49.2,0-73.8c0-1.3,0.2-2.8,0.7-4c7.5-16.8,15.1-33.7,22.7-50.5c0.2-0.4,0.4-0.8,1.2-1.1
		c0,0.8,0,1.6,0,2.5c0,45,0,90.1-0.1,135.1c0,12.4-1.8,24.6-6.3,36.3c-7.1,18.3-19.6,31-39.5,33.9c-16.8,2.5-32.7-1.1-46.5-11.5
		c-7.2-5.4-12.3-12.4-15.4-20.9C97.4,288.6,96.4,282.7,96,276.2z"/>
	<path class="st1" d="M230.1,466.5c32.8,0,65.1,0,97.7,0c1.8-6.3,0.5-12.3-1.9-18.4c2.5-1.8,5-3.6,7.6-5.4c4.7,9,5.6,23.1,2.3,34
		c-75.8,0-151.8,0-227.7,0c-1,2.6-1.9,4.9-3,7.2c-5,10.2-13.9,14.7-24.6,16.1c-0.6,0.1-1.2,0-1.7-0.2c-5.2-1.4-10.4-2.9-15.6-4.9
		c1.6-0.2,3.1-0.4,4.7-0.6c6.6-0.7,13-1.8,19.1-4.6c5.6-2.6,10-6.5,12.5-12.8c-1.3-0.1-2.4-0.2-3.5-0.2c-3.3,0-6.7,0.1-10,0
		c-4.2-0.1-6.4-1.7-7.6-5.7c-0.4-1.3-0.7-2.7-0.7-4.1c0-7.6,2.5-14.3,8.4-19.4c7.4-6.4,16.5-4.4,20.3,4.6c1.4,3.4,1.8,7.3,2.6,11
		c0.2,1,0.1,2,0.2,3.2c37.3,0,74.5,0,111.8,0c1.7-6.4,0.5-12.3-1.9-18.3c2.5-1.8,5-3.5,7.7-5.5C230,450.3,230.5,458.2,230.1,466.5z
		 M101.2,466.3c-0.3-2.2-0.3-4.2-0.8-6c-1-3.9-3.9-7-6.8-7c-4,0-6.3,2.7-8,5.8c-2.4,4.5-0.7,7.5,4.4,7.6
		C93.5,466.8,97,466.5,101.2,466.3z"/>
	<path class="st2" d="M177.2,200.1c-25.5-3.4-49.5,13.9-52.7,38.6c-3,22.7,12.3,44.4,42,50.1c-1.8,4.4-4.2,8.1-8,10.9
		c-5.1,3.6-11,5.4-17.1,6c-25.5,2.4-40.3-16.3-42.8-36.2c-1.4-11.6-0.8-22.8,3.5-33.7c8.4-21.1,23.5-34.7,46.1-39.2
		c9.1-1.8,18.1-1,27,1.7c0.9,0.3,1.7,0.8,2.5,1.1C177.4,199.6,177.3,199.8,177.2,200.1z"/>
	<path class="st3" d="M278.2,374.7c3.8,0,7.6,0,11.4,0c5.3,0,10.6,0,15.9,0.2c2.1,0.1,4.1,0.4,6.2,0.9c10.6,2.5,15.5,13.9,10,23.4
		c-1.6,2.8-3.8,4.5-8.6,6.7c0.9,0.6,1.7,0.9,2.3,1.4c1.9,1.8,3.9,3.6,5.4,5.7c1.7,2.4,2.9,5.2,4.2,7.9c2,4,3.9,8,6.2,12.6
		c-5.2,0-10,0.1-14.8-0.1c-0.8,0-1.8-1.2-2.3-2.1c-2-3.9-3.9-7.8-5.8-11.8c-3.7-7.5-6.1-8.8-14.8-8.2c0,7.2,0,14.4,0,21.9
		c-5.2,0-10,0-15.1,0C278.2,413.9,278.2,394.5,278.2,374.7z M293.3,400.5c3.5,0,6.7,0.3,9.9-0.1c3.7-0.5,5.4-3.1,5.3-7.3
		c0-4-1.6-6.5-5.3-7c-3.2-0.5-6.6-0.4-9.9-0.5C293.3,390.8,293.3,395.5,293.3,400.5z"/>
	<path class="st0" d="M14.8,385.8c0,16.3,0,31.8,0,47.6c-5,0-9.8,0-14.8,0c0-19.4,0-38.8,0-58.6c6.6,0,13.2-0.1,19.7,0
		c4.4,0.1,8.8,0.3,13.1,1.1c14.6,2.7,23.2,14.4,22.3,30c-0.9,16.3-11.3,26.2-28.6,27.3c-1.7,0.1-3.5,0.2-5.7,0.3
		c0.8-0.7,1.3-1.2,1.9-1.6c7.3-5,12.4-11.7,15.5-19.9c2-5.1,1.9-10.4,0.1-15.6c-1.9-5.4-5.9-8.6-11.3-9.6
		C23.2,386.2,19.3,386.2,14.8,385.8z"/>
	<path class="st4" d="M258.4,374.8c5.1,0,9.8,0,14.8,0c0.1,0.9,0.3,1.7,0.3,2.6c0,11,0.1,21.9,0,32.9c0,2.6-0.3,5.3-0.8,7.9
		c-1.8,8.8-7.2,13.9-15.9,15.7c-5.5,1.1-11,1.2-16.5,0.1c-10.2-2-16-8.2-17.1-18.6c-0.3-2.5-0.4-5.1-0.4-7.6c0-9.9,0-19.8,0-29.8
		c0-1,0-2,0-3.2c5.1,0,9.9,0,15.1,0c0.1,0.9,0.2,1.9,0.2,2.8c0,11,0,21.9,0,32.9c0,1.4,0.1,2.8,0.3,4.1c0.9,8.7,7.7,10,13.9,8.3
		c2.6-0.7,4.5-2.5,5.1-5.2c0.6-2.7,1-5.4,1.1-8.2c0.1-10.4,0-20.8,0-31.1C258.4,377.4,258.4,376.3,258.4,374.8z"/>
	<path class="st5" d="M59.3,433.4c0-19.6,0-38.9,0-58.5c13.5,0,27,0,40.6,0c0,3.7,0,7.3,0,11.2c-8.5,0-16.9,0-25.5,0
		c0,3.7,0,7.1,0,10.9c7.9,0,15.8,0,23.9,0c0,4,0,7.6,0,11.6c-7.9,0-15.8,0-23.9,0c0,4.6,0,8.8,0,13.3c8.7,0,17.4,0,26.4,0
		c0,3.9,0,7.6,0,11.4C87,433.4,73.2,433.4,59.3,433.4z"/>
	<path class="st4" d="M334.9,430.7c0-4.4,0-8.4,0-12.3c3.8,1.4,7.4,2.9,11.1,4.1c4.3,1.4,8.8,2,13.3,1.1c1.3-0.3,2.7-0.7,3.9-1.4
		c4-2.4,3.9-7.8-0.3-9.8c-2.8-1.3-5.9-1.8-8.9-2.7c-3.5-1-7.2-1.8-10.6-3.2c-6.2-2.5-9.1-7.5-9.2-14.1c-0.1-7,2.1-13,8.8-16
		c8.6-3.8,17.7-4.3,26.6-0.9c7.4,2.8,11,9.7,10.8,19.5c-0.8-0.7-1.5-1.3-2.1-1.9c-6.6-6.4-14.7-8.8-23.8-8.2c-1.2,0.1-2.5,0.5-3.6,1
		c-2,0.8-3,2.5-3.1,4.6c-0.1,2.2,1,3.8,3,4.6c2.1,0.8,4.4,1.4,6.6,2c3.7,0.9,7.5,1.5,11.1,2.7c9.7,3.2,13.4,9.6,11.7,19.8
		c-1.3,7.9-5.8,12.7-14,14.3C355.6,436,345.2,434.3,334.9,430.7z"/>
	<path class="st4" d="M138.6,386.1c0,15.9,0,31.4,0,47.3c-5.1,0-10,0-15.2,0c0-15.6,0-31.2,0-47.2c-6.7,0-13,0-19.4,0
		c0-3.9,0-7.4,0-11.2c17.9,0,35.8,0,53.8,0c0,3.7,0,7.2,0,11.1C151.3,386.1,145,386.1,138.6,386.1z"/>
	<path class="st6" d="M191.4,384.5c0-3.4,0-6.8,0-10.2c10-1,21,6.2,24.7,16.4c3.3,9,3.3,18.1,0,27.1c-3.7,10.1-13.6,16.7-24.6,16.6
		c0-3.5,0-7,0-10.7c7.3-2.1,10.3-7.7,11-14.7c0.4-3.9,0.3-7.9-0.3-11.7C201.2,390.8,198.6,388,191.4,384.5z"/>
	<path class="st3" d="M184.5,373.9c0,3.9,0,7.3,0,11c-8.3,3.1-10.5,9.9-10.7,17.9c-0.1,2.6,0,5.3,0.4,7.9c1.1,6,4,10.8,10.3,12.9
		c0,3.6,0,7.1,0,10.6c-8.8,0.6-18.9-5.3-22.9-14c-5.1-10.9-5.1-22,0.4-32.7C166.4,378.7,174.4,374.8,184.5,373.9z"/>
	<path class="st7" d="M380.7,476.5c-0.6,0.1-1.3,0.2-1.9,0.2c-8.9,0-17.8,0-26.7,0c-2.8,0-3.5-0.6-3.9-3.2
		c-0.4-2.8,1.4-10.6,3.1-13.3c0.3,0.2,0.7,0.3,0.8,0.5c1.1,4.4,4,6.1,8.5,5.9c4-0.2,8,0,12.3,0c-0.6-8.2-4.2-14.8-9-21.1
		c2.1-2.5,4.2-5.1,6.3-7.6C378.7,446,383.7,464.6,380.7,476.5z"/>
	<path class="st5" d="M53.3,454.6c1.7-2.2,3.8-4.9,6-7.7c10.3,12.9,10.9,30.3,1.5,43.5c-6.6,9.3-14.9,11.7-25.4,7.2
		c-1.3-0.5-2.5-1.1-4.3-2c2.1-0.5,3.6-0.8,5.1-1.1c10.7-2.5,18.2-9.1,23.2-18.6c0.6-1.2,0.9-3,0.5-4.3
		C58,466.2,55.7,460.8,53.3,454.6z"/>
	<path class="st5" d="M29.4,446.5c4.3,8.2,8.4,16,8,25.1c-0.4,10.2-4.9,18.6-12.9,24.9c-4.7,3.7-10.1,4.3-15.7,2.4
		c-2.5-0.8-4.9-1.9-8.1-3.2c1.8-0.4,2.8-0.6,3.9-0.8c11.4-2.3,19.6-8.8,24.8-19.1c0.7-1.5,0.7-3.7,0.2-5.3
		c-1.1-3.5-2.6-6.9-4.1-10.2c-0.7-1.7-1.8-3.2-2.8-5C24.8,452.4,27,449.6,29.4,446.5z"/>
	<path class="st8" d="M310.9,491.8c2.1-1.8,4.6-4,7.3-6.4c1.5,1.8,3.5,4.1,5.7,6.7c2.4-2.8,4.4-5.2,6.5-7.7c2.8,3,5.1,5.4,7.5,8
		c-2.4,2.1-4.9,4.2-7.8,6.7c-1.5-1.8-3.5-4-5.5-6.4c-2.4,2.6-4.3,4.8-6.6,7.3C315.3,496.9,313.2,494.4,310.9,491.8z"/>
	<path class="st1" d="M206,457c-2.2-2.2-4.3-4.3-6.8-6.9c-2.2,2.6-4.2,4.9-6.2,7.2c-2.7-2.8-4.9-5.1-7.4-7.6c2.2-2,4.6-4.2,7.2-6.5
		c2,1.9,4.1,3.9,6.4,6.1c2.2-2.1,4.3-4.1,6.6-6.2c2.4,2.5,4.6,4.9,6.7,7.2C210.6,452.2,208.3,454.5,206,457z"/>
	<path class="st8" d="M21.5,450.3c-2.5-2.5-4.6-4.7-6.8-6.9c2.2-2.1,4.5-4.2,7.1-6.7c1.8,1.6,4,3.7,6.3,5.9
		C25.8,445.2,23.7,447.7,21.5,450.3z"/>
	<path class="st9" d="M273.6,243.1c0,13.4,0.4,26.8-0.1,40.2c-1.7,44.2-34.6,71.9-69.4,77.2c-14.1,2.1-28.1,2.2-41.9-1.5
		c-11.5-3.1-21.8-8.3-30.1-17c-0.8-0.8-1.5-1.8-2.2-2.6c-0.3-0.3-0.6-0.5-0.8-0.8c0.1-0.1,0.1-0.2,0.2-0.4c0.4,0.2,0.8,0.4,1.2,0.5
		c6.9,3.5,13.7,7.2,21.4,8.8c26.4,5.4,50.4,0.9,70.1-18.5c11.9-11.6,18.1-26.3,20.6-42.6c0.9-6,1.4-12.2,1.4-18.3
		C244,200.9,244,133.4,244,66c0-2,0.4-4.2,1.2-6c9.1-19.6,18.3-39,27.6-58.5c0.1-0.3,0.3-0.6,0.9-1.5c0.1,1.2,0.1,1.8,0.1,2.4
		C273.8,82.6,273.7,162.9,273.6,243.1z"/>
</g>
</svg>
