<?xml version="1.0" encoding="utf-8"?>
<!-- Generator: Adobe Illustrator 26.0.1, SVG Export Plug-In . SVG Version: 6.00 Build 0)  -->
<svg version="1.1" xmlns="http://www.w3.org/2000/svg" xmlns:xlink="http://www.w3.org/1999/xlink" x="0px" y="0px"
	 viewBox="0 0 499 88.8" style="enable-background:new 0 0 499 88.8;" xml:space="preserve">
<style type="text/css">
	.st0{fill:#FEFBFA;}
	.st1{fill:#28539C;}
	.st2{fill:#FE0C08;}
</style>
<g id="Guides_For_Artboard">
</g>
<g id="Layer_1">
	<g>
		<path class="st0" d="M218.8,50.6c0,8.8-0.1,17.6,0,26.4c0.1,7.9,3.5,11.2,11.2,11.3c7.1,0.1,14.2,0.1,21.3,0
			c6.3-0.1,9.9-3.9,9.8-10c-0.2-10.5-0.4-21-0.6-31.5c-0.1-6.8-3.1-9.8-9.8-9.8c-6.5,0-12.9-0.1-19.4,0c-2.5,0.1-3.4-0.6-3.2-3.1
			c0.2-3.4-0.3-6.9,0.1-10.4c0.4-3.7-1.6-3.8-4.2-3.5c-2.3,0.3-5.5-1.4-5.4,3.4C219,32.3,218.8,41.4,218.8,50.6z M156.7,62.6
			C156.7,62.6,156.7,62.6,156.7,62.6c0-5.5,0.1-11,0-16.5c-0.1-6-3.4-9.3-9.4-9.3c-9.8-0.1-19.6,0.2-29.3-0.1
			c-3.8-0.1-3.5,1.9-3.4,4.3c0,2.4-0.5,4.5,3.4,4.4c9-0.3,18,0,26.9-0.1c3.7,0,3.7,2.3,3.9,5c0.2,3.3-1.8,3-3.9,3
			c-6.5,0-12.9,0-19.4,0c-6.7,0.1-9.9,3.2-10,9.7c0,5.3-0.1,10.7,0,16c0.1,5.4,3.6,8.7,8.9,8.7c7.6,0.1,15.1,0,22.7,0
			c6.1,0,9.3-3,9.5-9.1C156.8,73.3,156.7,68,156.7,62.6z"/>
		<path class="st0" d="M348.8,25.6c-0.4,8.6,0.5,9.4,7.9,7.1C354.2,30.3,351.8,28.2,348.8,25.6z"/>
		<path class="st1" d="M419.5,88.7c-6.9-2.6-9.9-7.5-9.6-14.9c0.3-7.8,0.1-15.7,0.1-23.6c0-8.4,5-13.4,13.6-13.4c4.4,0,8.8,0,13.3,0
			c12.3,0.1,16.3,7.4,15.3,17.8c-0.2,2.1-1.7,2.4-3.1,3.1c-9,4.1-18,8.3-27.1,12.2c-3,1.3-4.1,3-3.4,6.1c0.6,3.1,2.7,4.1,5.4,4.1
			c6.6,0.1,13.3,0,19.9,0c0.9,0,1.9-0.1,2.8,0c6.3,0.5,6.3,0.6,5.9,8.5C441.6,88.7,430.5,88.7,419.5,88.7z M430.8,45.2
			C430.8,45.2,430.8,45.2,430.8,45.2c-2.4-0.1-4.7,0-7.1-0.1c-3.5-0.1-5.4,1.3-5.3,5c0,3.3,0,6.6,0,9.9c0,1.9,0.3,3.1,2.7,1.9
			c6.5-3.2,13.1-6.2,19.6-9.3c1.7-0.8,3-1.8,2.5-3.9c-0.5-2.1-1.7-3.4-3.9-3.4C436.5,45.1,433.6,45.2,430.8,45.2z"/>
		<path class="st2" d="M277.4,88.7c-4.8-2.2-6.2-6.2-6.2-11.1c0.1-12.4,0.2-24.8-0.1-37.2c-0.1-4.6,2.6-3.5,5.1-3.7
			c2.8-0.2,4.2,0.2,4.1,3.6c-0.3,11.5,0.1,22.9-0.2,34.4c-0.1,4.5,1.6,5.8,5.8,5.6c3.9-0.2,7.9,0,11.8,0c7.4,0,7.5-0.1,7.5-7.7
			c0-10.5,0.2-21-0.1-31.6c-0.1-3.6,1.1-4.3,4.5-4.4c3.8-0.1,4.3,1.3,4.3,4.6c-0.2,11.8-0.2,23.6,0,35.3c0.1,5-1.1,9.1-5.3,12.2
			C298.3,88.7,287.8,88.7,277.4,88.7z"/>
		<path class="st2" d="M46.4,88.7c1.4-2.6-1.3-6.7,1.6-8.2c2.4-1.2,5.9-0.3,8.8-0.3c5.2,0,10.4-0.1,15.6,0c3.1,0.1,4.3-1.3,4.3-4.2
			c0-0.2,0-0.3,0-0.5c0.5-9.4,0.5-9.3-8.9-9.6c-4.1-0.1-8.2-0.2-12.3-0.5c-5-0.4-8-3.6-8.1-8.6c-0.1-3.6-0.1-7.2,0-10.8
			c0.1-5.7,3.5-9.1,9.1-9.2c8.7-0.1,17.3,0.2,26-0.1c3.9-0.1,2.9,2.3,2.9,4.3c0,2,0.9,4.4-2.9,4.3c-7.1-0.3-14.2,0.1-21.3-0.1
			c-4-0.1-5.3,1.7-5.1,5.4c0.2,3.3-0.8,7.2,4.8,7.2c4.9-0.1,9.7,0.4,14.6,0.6c6.5,0.2,9.7,3.5,9.8,10c0,2.8-0.2,5.7,0.1,8.5
			c0.5,5.2-1.3,9.1-5.7,11.8C68.5,88.7,57.4,88.7,46.4,88.7z"/>
		<path class="st2" d="M167.6,88.7c0-14.4-0.1-28.9-0.1-43.3c0-5,3.2-8.4,8.1-8.6c8.7-0.2,17.3-0.2,26,0c5,0.1,8.2,4,8.2,9.6
			c0.1,12.4,0,24.8,0,37.2c0,1.7-0.4,3.5,0.4,5.1c-3.2,0-6.3,0-9.5,0c0-12.8,0-25.7,0.2-38.5c0-3.6-1.3-5.2-5-5
			c-5.2,0.2-10.4,0.2-15.6,0c-3.3-0.1-4.4,1.4-4.4,4.5c0.1,13,0.1,26,0.1,39C173.3,88.7,170.4,88.7,167.6,88.7z"/>
		<path class="st1" d="M460.2,88.7c-0.1-1.2-0.2-2.5-0.4-3.7c-0.5-3.8,1.1-4.9,4.8-4.8c7.4,0.1,13.4-0.1,21.7,0.1
			c0.5,0,4.5-2.6,4.6-6.8c0-5.4-2-7.3-5.4-7.4c-6-0.2-11.6-0.4-17.8-0.8c-4.8-0.4-7.9-1.2-7.9-14.5c-0.2-11.6,4.3-13.9,18.1-14.1
			c5.4-0.1,10.7,0.1,16.1,0c1.7,0,3.4-0.1,5,1c0,2.2,0,4.4,0,6.6c-1.6,0.9-3.3,0.8-5,0.8c-6.6,0-14-0.2-20.6-0.2
			c-5.7,0-5.1,2.2-5.2,6.6c-0.1,3.2,1.5,6,4.7,6c5.5,0,11,0.6,16.5,0.7c3.5,0.1,9.9,1,9.2,16.3c-0.5,11.9-7,14.1-10.6,14.2
			C477.5,88.8,470.6,88.7,460.2,88.7z"/>
		<path class="st1" d="M395.8,88.7c0.1-13.5,0.1-26.9,0.3-40.4c0-2.5-1.4-2.9-3-3c-6.3-0.2-12.6-0.2-18.9-0.1
			c-3.6,0.1-3.6,2.8-3.6,5.4c0,11,0,22,0,32.9c0,1.7,0,3.4,0,5.1c-2.5,0-5.7,0-8.2,0c-0.2-14.8,0-29.5,0.1-44.2
			c0-4.5,3.6-7.6,8.5-7.7c8.2-0.1,16.4-0.1,24.6,0c4.3,0.1,8.9,4.8,8.9,9c0,14.3-0.1,28.6-0.1,42.8
			C401.5,88.7,398.6,88.7,395.8,88.7z"/>
		<path class="st2" d="M320,0c0.2,0.4,0.2,1,0.5,1.2c6.7,3.6,7.2,9.5,7.1,16.3c-0.3,23.7-0.1,47.5,0,71.2c-2.8,0-5.7,0-8.5,0
			c0-29.6,0-59.1,0-88.7C319.4,0,319.7,0,320,0z"/>
		<path class="st2" d="M93.7,88.7c-0.1-22-0.1-44-0.2-66c0-3.9,2.6-2.7,4.5-2.8c2.1-0.1,4.7-0.8,4.3,3c-0.2,2-0.1,4.1,0,6.1
			c0,2.3-0.6,5.1,0.4,6.9c1.1,1.9,4,0.5,6.2,0.8c3.9,0.5,1.5,3.4,1.9,5.2c0.4,1.6,0.5,3.9-2.3,3.3c-6.2-1.3-6.3,2.2-6.2,6.8
			c0.2,12.3,0.1,24.5,0.1,36.8C99.4,88.7,96.6,88.7,93.7,88.7z"/>
		<path class="st1" d="M334.2,88.7c0-23.6-0.1-47.1-0.1-70.7c0-1-0.5-2.3,0.9-2.9c1.2-0.5,2.1,0.3,2.9,1c3,2.4,4.9,5.1,4.9,9.4
			c-0.2,21.1-0.1,42.1-0.1,63.2C339.9,88.7,337.1,88.7,334.2,88.7z"/>
		<path class="st2" d="M0,26.4c5.4-0.6,10.1,1.1,14.9,3.7C12.7,26,8.7,23,8.1,18c2-0.2,2.9,1.4,3.9,2.3c2.9,2.7,6.3,3.9,10.2,4.2
			c12.2,1.1,17.3,7.9,14.8,19.7c-0.1,0.3-0.3,0.6-0.4,0.9c-8.1,9.2-19.4,6.7-24.2-5.7C10.3,34,6.7,30.4,1.7,27.8
			c-0.5-0.3-1.2-0.3-1.7-0.4C0,27.1,0,26.7,0,26.4z M26,35.8c-1.5-0.2-2.6-0.6-3.1,0.4c-0.4,0.7,0,1.5,0.5,2.2
			c1.8,2.5,3.9,4.8,6.7,6.3c2.5,1.4,3.5,0.6,3.2-2.1C32.7,38,28.9,37,26,35.8z"/>
		<path class="st1" d="M348.4,88.7c0.1-15.9,0.2-31.7,0.1-47.6c0-2.9,0.1-4.8,3.9-4.4c3.1,0.3,5.2,0.3,5.1,4.5
			c-0.3,14.1-0.1,42.4-0.1,42.4s-0.2,3.3-0.1,5.1C354.2,88.7,351.6,88.7,348.4,88.7z"/>
		<path class="st2" d="M31.2,88.7c0-7.4,0.7-14.9-0.2-22.1c-0.9-7.5,3.4-10.9,8.7-15.1c0,12.8,0,25,0,37.2
			C36.9,88.7,34.1,88.7,31.2,88.7z"/>
		<path class="st2" d="M218.8,50.6c0-9.1,0.2-18.2-0.1-27.3c-0.1-4.8,3.1-3.1,5.4-3.4c2.6-0.3,4.6-0.1,4.2,3.5
			c-0.4,3.4,0.1,6.9-0.1,10.4c-0.2,2.5,0.7,3.2,3.2,3.1c6.5-0.2,12.9-0.1,19.4,0c6.7,0,9.7,3.1,9.8,9.8c0.2,10.5,0.4,21,0.6,31.5
			c0.1,6.2-3.5,10-9.8,10c-7.1,0.1-14.2,0-21.3,0c-7.8-0.1-11.1-3.4-11.2-11.3C218.8,68.2,218.8,59.4,218.8,50.6z M228.2,62.4
			C228.2,62.4,228.1,62.4,228.2,62.4c-0.1,4.4-0.1,8.8-0.1,13.2c0,2.7,1.2,4.1,4,4.1c5.7,0,11.3,0.1,17,0.1c2.3,0,4.1-0.8,4.1-3.5
			c0-8.9,0.1-17.9,0-26.8c0-2.6-1.3-4-4.2-3.9c-5.5,0.1-11,0.1-16.5,0c-3.3,0-4.4,1.6-4.3,4.7C228.3,54.2,228.2,58.3,228.2,62.4z"/>
		<path class="st2" d="M156.7,62.6c0,5.3,0.2,10.7,0,16c-0.2,6.2-3.4,9.1-9.5,9.1c-7.6,0-15.1,0-22.7,0c-5.4,0-8.8-3.4-8.9-8.7
			c-0.1-5.3-0.1-10.7,0-16c0.1-6.5,3.3-9.7,10-9.7c6.5-0.1,12.9,0,19.4,0c2.1,0,4.2,0.3,3.9-3c-0.2-2.7-0.2-5.1-3.9-5
			c-9,0.1-18-0.2-26.9,0.1c-4,0.2-3.4-2-3.4-4.4c0-2.4-0.4-4.4,3.4-4.3c9.8,0.3,19.5,0.1,29.3,0.1c6,0,9.3,3.4,9.4,9.3
			C156.8,51.6,156.7,57.1,156.7,62.6C156.7,62.6,156.7,62.6,156.7,62.6z M135.9,79.7c2.8,0,5.7-0.1,8.5,0c3.1,0.1,4.6-1.2,4.4-4.5
			c-0.2-3.3-0.2-6.6,0-9.9c0.2-3.3-1.4-4.5-4.5-4.5c-5,0-10.1,0-15.1,0c-5.6,0-6.2,0.5-6.1,6.2C123.3,81.2,120.7,79.6,135.9,79.7z"
			/>
		<path class="st1" d="M36.7,45.2c0.1-0.3,0.3-0.6,0.4-0.9c1.4,0.3,2.1-0.6,2.5-1.6c2.5-6.5,8-9.1,14.2-10.3
			c4.6-0.8,8.8-2.1,13.4-5.5c-2.3,5.1-5.9,6.5-9.9,7.1c-8.9,1.2-14.4,6.6-18.3,14.2C38.2,47.1,37.5,46.1,36.7,45.2z"/>
		<path class="st2" d="M348.8,25.6c3,2.7,5.4,4.8,7.9,7.1C349.3,35,348.3,34.2,348.8,25.6z"/>
		<path class="st0" d="M430.8,45.2c2.8,0,5.7-0.1,8.5,0c2.1,0.1,3.4,1.3,3.9,3.4c0.5,2.2-0.8,3.1-2.5,3.9
			c-6.6,3.1-13.1,6.1-19.6,9.3c-2.4,1.2-2.7,0.1-2.7-1.9c0-3.3,0.1-6.6,0-9.9c0-3.6,1.8-5.1,5.3-5C426.1,45.2,428.4,45.1,430.8,45.2
			C430.8,45.2,430.8,45.2,430.8,45.2z"/>
		<path class="st0" d="M26,35.8c2.9,1.2,6.6,2.3,7.2,6.8c0.3,2.7-0.6,3.5-3.2,2.1c-2.8-1.5-4.9-3.8-6.7-6.3
			c-0.5-0.7-0.9-1.4-0.5-2.2C23.5,35.1,24.5,35.6,26,35.8z"/>
		<path class="st0" d="M228.2,62.4c0-4.1,0.1-8.2,0-12.2c-0.1-3.1,1.1-4.7,4.3-4.7c5.5,0,11,0.1,16.5,0c2.8,0,4.1,1.3,4.2,3.9
			c0,8.9,0,17.9,0,26.8c0,2.7-1.8,3.5-4.1,3.5c-5.7,0-11.3-0.1-17-0.1c-2.8,0-4-1.3-4-4.1C228.1,71.2,228.1,66.8,228.2,62.4
			C228.1,62.4,228.2,62.4,228.2,62.4z"/>
		<path class="st0" d="M135.9,79.7c-15.2-0.1-12.6,1.5-12.8-12.6c-0.1-5.7,0.5-6.2,6.1-6.2c5,0,10.1,0.1,15.1,0
			c3.1,0,4.7,1.2,4.5,4.5c-0.2,3.3-0.2,6.6,0,9.9c0.2,3.3-1.3,4.6-4.4,4.5C141.6,79.6,138.7,79.7,135.9,79.7z"/>
	</g>
</g>
</svg>
