<?xml version="1.0" encoding="utf-8"?>
<!-- Generator: Adobe Illustrator 26.0.1, SVG Export Plug-In . SVG Version: 6.00 Build 0)  -->
<svg version="1.1" id="Layer_1_xA0_Image_1_" xmlns="http://www.w3.org/2000/svg" xmlns:xlink="http://www.w3.org/1999/xlink"
	 x="0px" y="0px" viewBox="0 0 500 489" style="enable-background:new 0 0 500 489;" xml:space="preserve">
<style type="text/css">
	.st0{fill:#080808;}
	.st1{fill:#F10720;}
	.st2{fill:#F10620;}
	.st3{fill:#F10520;}
	.st4{fill:#F2182A;}
	.st5{fill:#F1051F;}
	.st6{fill:#9E3535;}
	.st7{fill:#0A0A0A;}
	.st8{fill:#090909;}
	.st9{fill:#0E0E0E;}
	.st10{fill:#0C0C0C;}
	.st11{fill:#F21629;}
	.st12{fill:#EF0720;}
	.st13{fill:#FEEEEA;}
</style>
<g>
	<g>
		<path class="st0" d="M212.1,286.2c0.5-1.3-0.3-2.2-0.7-3.1c-0.9-2-1.5-4.2-2.2-6.3c-0.9-2.8-1.6-5.6-2.3-8.5
			c-0.5-2-0.9-4.1-1.3-6.1c-0.2-1.4-0.5-2.7-0.7-4.1c-0.1-0.9,0-1.9-0.3-2.8c-0.4-1,0-1.9-0.3-2.8c-0.5-1.3-0.3-2.6-0.3-3.9
			c0-1.7-0.5-3.4-0.4-5.1c0.1-1.7,0.1-3.4,0-5c-0.1-1.1,0.4-2.2,0.4-3.3c0-1.1-0.1-2.3,0-3.4c0-0.5,0.4-1.1,0.3-1.7
			c0-0.5-0.1-1,0.2-1.6c0.2-0.5,0-1.2,0.2-1.7c0.5-2.1,0.8-4.2,1.2-6.3c0.5-2.1,0.9-4.3,1.4-6.4c0.3-1.2,0.5-2.4,1-3.5
			c0.3-0.8,0.3-1.8,0.8-2.6c0.5-0.8,0.6-1.8,0.9-2.7c0.3-0.9,0.6-1.7,0.9-2.6c0.7-1.9,1.5-3.8,2.2-5.8c1.6-4.4,4-8.4,6-12.7
			c0.7-1.5,1.6-2.8,2.5-4.2c1-1.6,2-3.1,3-4.6c0.3-0.5,0.8-0.8,1.1-1.3c0.3-0.6,0.3-0.9-0.1-1.4c-1.5-1.5-2.9-3.1-4.4-4.7
			c-0.8-0.9-1.5-1.8-2.2-2.7c-1,0.5-1.8,1.1-2.6,1.4c-2.8,1.1-5.4,2.4-8.4,3c-1.4,0.3-2.9,0.5-4.3,1c-1.1,0.4-2.1,0.2-3.2,0.5
			c-1,0.3-2.1,0.1-3.2,0.1c-0.3,0-0.6-0.1-0.8,0.1c-0.5,0.5-1.3,0.4-1.7,0.2c-1.1-0.5-2.2-0.2-3.3-0.3c-0.5-0.1-1.1,0.1-1.6-0.1
			c-0.5-0.3-0.9-0.1-1.4-0.2c-0.5-0.1-1.1,0.2-1.5-0.3c-1.4,0.2-2.7-0.5-4.1-0.7c-1-0.1-2.1-0.4-3-0.9c-0.9-0.5-2-0.5-3-1
			c-1-0.4-2.1-0.7-3.1-1.2c-0.7-0.3-1.4-0.5-2.1-0.8c-2.6-1.4-5.1-2.9-7.5-4.8c-2.2-1.7-4-3.7-5.9-5.7c-1.3-1.4-2.4-3.1-3.4-4.8
			c-1.4-2.3-2.4-4.9-3.3-7.4c-0.5-1.5-1.1-3.1-1.2-4.7c-0.1-0.6-0.3-1.2-0.3-1.8c0-0.7-0.2-1.3-0.3-2c-0.1-0.6,0.1-1.3,0-1.9
			c-0.4-1.2-0.3-2.4-0.3-3.6c0-0.9,0.2-1.8,0.3-2.6c0.1-0.8-0.1-1.6,0.3-2.5c0.3-0.6-0.1-1.4,0.4-2c0-1.5,0.6-2.8,1-4.2
			c0.5-1.8,1.3-3.5,2.1-5.2c0.7-1.5,1.6-3,2.5-4.5c0.8-1.2,1.8-2.3,2.7-3.4c1.5-1.9,3-3.9,4.9-5.5c2.1-1.8,4.2-3.7,6.5-5.4
			c1.8-1.2,3.5-2.5,5.3-3.6c1.1-0.7,2.2-1.4,3.4-2.1c2.7-1.4,5.3-2.8,8.1-4.1c2-1,4.1-1.9,6.2-2.7c2.8-1.1,5.5-2.2,8.3-3.1
			c1.6-0.5,3.1-1.1,4.7-1.5c2.3-0.5,4.5-1.2,6.7-1.8c2-0.5,4.1-0.8,6-1.5c0.6-0.2,1.3-0.2,2-0.3c1.5-0.4,3.1-0.6,4.6-1
			c0.9-0.3,2-0.3,3-0.3c0.6,0,0.9-0.2,1.1-0.9c0.8-2.5,1.8-4.9,2.7-7.3c1.2-3.1,2.7-5.9,4.1-8.9c0.9-1.8,2.1-3.4,3.1-5.1
			c0.9-1.7,2-3.2,3.1-4.7c0.8-1.2,1.6-2.4,2.5-3.5c0.9-1.2,2-2.3,2.7-3.6c0-0.1,0.2-0.2,0.2-0.2c1.2-1.3,2.4-2.5,3.4-3.8
			c1.5-1.9,3.2-3.6,5-5.3c1.4-1.3,2.8-2.7,4.2-3.9c1.8-1.6,3.7-3.2,5.6-4.6c2.3-1.7,4.6-3.2,6.9-4.8c2.3-1.6,4.7-2.9,7.2-4.3
			c1.5-0.9,3.1-1.8,4.7-2.5c2.4-1,4.8-2.2,7.4-3.1c1.6-0.5,3.2-1.2,4.8-1.7c1.4-0.5,2.9-0.8,4.4-1.2c1.6-0.4,3.3-0.7,5-1
			c1.6-0.3,3.2-0.4,4.8-0.7c1.6-0.3,3.1-0.2,4.6-0.2c1.6-0.1,3.2-0.3,4.7,0.1c1.5,0.3,3.1,0.2,4.6,0.5c2.3,0.5,4.6,0.9,6.8,1.6
			c2.4,0.7,4.6,1.7,6.8,2.9c2.4,1.3,4.6,2.8,6.8,4.5c2.1,1.7,4,3.6,5.8,5.6c1.7,1.9,3.1,3.9,4.4,6.1c1.1,2,2.2,4,3.1,6
			c1,2.2,1.8,4.5,2.4,6.8c0.3,1.2,0.3,2.4,0.9,3.5c0,0.1,0,0.2,0,0.3c-0.2,1.1,0.4,2.1,0.3,3.1c-0.1,1,0,2.1,0,3.1
			c0,1.1,0,2.3,0,3.4c0,0.8,0.2,1.6-0.3,2.5c-0.3,0.6,0.2,1.6-0.4,2.3c0.1,1.8-0.7,3.5-1,5.3c-0.2,1.1-0.7,2.2-1.1,3.3
			c-0.8,2.3-2,4.5-3.2,6.7c-0.7,1.4-1.6,2.7-2.6,4c-1.1,1.5-2.2,3-3.2,4.5c-0.2,0.3-0.5,0.5-0.8,0.8c-0.8,0.9-1.7,1.6-2.3,2.6
			c-0.5,0.7-1,1.4-1.9,1.7c-0.3,0.1-0.6,0.5-0.8,0.8c-1.5,1.6-3.3,3-5,4.4c-1.6,1.3-3.4,2.5-5.2,3.6c-1.4,0.8-2.7,1.8-4.1,2.8
			c0.3,1,0.7,2.1,1,3.1c0.5,1.9,1,3.7,1.5,5.5c0.5,1.8,1,3.6,1.5,5.4c0.5,1.8,1.1,3.7,1.7,5.5c0.4,1.4,0.9,2.8,1.3,4.3
			c1.6-0.3,3.3,0.3,5,0.4c1.7,0,3.2-0.5,5-0.4c0-1.1,0.1-2.2,0-3.3c-0.1-1.7,0.6-3.4,0.3-5.1c0.6-0.9,0.2-2,0.5-3.1
			c0.3-0.9,0.3-1.9,0.6-2.9c0.6-2.4,1.3-4.9,2.1-7.3c1.1-3.4,2.7-6.5,4.4-9.6c1.1-2,2.4-3.8,3.7-5.6c1.9-2.6,4.1-4.9,6.5-7
			c2.2-2,4.8-3.6,7.7-4.5c0.3-0.1,0.7-0.2,1.1-0.2c1.1,0,2.2,0,3.3,0c1.6,0,3,0.7,4.2,1.6c0.9,0.6,1.8,1.5,2.2,2.6
			c0.1,0.2,0.6,2.3,0.6,2.5c0,0.3,0,0.7,0,1c0.1,2.1-0.5,4.1-1.2,6c-0.8,2.3-2,4.4-3.2,6.5c-0.8,1.3-1.6,2.6-2.5,3.8
			c-0.8,1.2-1.7,2.2-2.5,3.4c-1.2,1.7-2.5,3.3-3.7,4.9c-1.2,1.6-2.3,3.1-3.4,4.8c-1.1,1.7-2,3.5-2.7,5.4c-0.4,0.9-1,1.8-1,2.8
			c-0.6,0.5-0.3,1.3-0.6,1.9c-0.3,0.5-0.4,1.2-0.4,2c0,0.8-0.1,0.9,0.6,0.9c1,0,1.8,0.6,2.8,0.3c0.7,0.7,1.8,0,2.5,0.7
			c1.5-0.1,3,0.4,4.4,0.7c1.6,0.4,3.3,0.5,4.9,1.2c2.4,0.2,4.6,1.1,6.8,1.7c2.3,0.7,4.6,1.5,6.8,2.4c1.9,0.7,3.8,1.4,5.6,2.2
			c3.4,1.4,6.8,3.1,10,4.8c2,1.1,3.9,2.2,5.8,3.4c1.9,1.2,3.8,2.4,5.6,3.7c1.6,1.1,3,2.4,4.6,3.5c1.7,1.2,3,2.7,4.8,3.8
			c0.1,0.1,0.2,0.2,0.2,0.2c2.3,2.2,4.7,4.3,6.9,6.6c1.2,1.3,2.5,2.6,3.7,4c1.5,1.7,3,3.4,4.2,5.2c1.5,2.1,3.1,4.2,4.6,6.4
			c1.4,2.1,2.7,4.2,4.1,6.3c1,1.4,1.5,3.1,2.4,4.5c0.6,1,1.2,2,1.7,3c1.2,2.7,2.4,5.4,3.5,8.2c1,2.5,1.8,5.1,2.6,7.7
			c0.5,1.4,0.9,2.9,1.2,4.4c0.2,0.9,0.4,1.8,0.7,2.7c0.2,0.9,0.2,1.8,0.6,2.7c0.2,0.5,0.1,1.2,0.3,1.8c0.3,0.9,0.2,2,0.4,2.9
			c0.1,0.6,0.2,1.1,0.3,1.7c0.1,0.5-0.1,1.1,0.3,1.5c0,0,0,0.1,0,0.2c0.1,1.5,0.2,3.1,0.3,4.6c0.1,0.9,0.3,1.8,0.3,2.6
			c0.1,0.9,0,1.7,0,2.6c0,0.5,0.3,0.8,0.8,0.8c0.3,0,0.5,0,0.8,0c1.2,0.1,2.4,0.1,3.6,0.3c1.1,0.2,2.2,0.7,3.4,0.9
			c2,0.4,3.7,1.2,5.5,2.1c2.1,1,4,2.3,5.7,3.9c0.5,0.5,1.2,0.8,1.6,1.3c1.3,1.7,2.9,3.2,4,5c1,1.7,2,3.5,2.8,5.4
			c0.9,2.1,1.7,4.3,2.2,6.6c0.5,1.8,1,3.6,1.3,5.5c0.1,0.7,0.1,1.4,0.3,2c0.3,0.7,0.1,1.4,0.3,2c0.4,1.3,0,2.7,0.3,3.9
			c0.5,2.2,0.2,4.5,0.3,6.7c0,0.8-0.2,1.5-0.3,2.3c-0.1,0.8,0.2,1.6-0.1,2.3c-0.3,0.7-0.3,1.4-0.3,2.2c0,0.7-0.3,1.4-0.4,2.1
			c-0.1,1.2-0.3,2.5-0.6,3.6c-0.2,0.6,0,1.3-0.3,1.6c-0.5,0.5-0.1,1.2-0.6,1.8c-0.3,0.3-0.2,1.1-0.4,1.6c-0.7,1.7-1,3.6-1.7,5.3
			c-0.7,1.5-1.1,3.1-1.8,4.6c-0.1,0.2-0.1,0.4-0.1,0.6c-1.4,2.9-2.7,5.9-4.3,8.8c-1.5,2.8-3.1,5.5-4.8,8.1c-1.1,1.6-2.1,3.3-3.2,4.9
			c-1,1.4-2,2.8-3,4.1c-0.9,1.2-1.8,2.4-2.7,3.6c-0.5,0.7-1.1,1.3-1.6,1.9c-1.4,1.6-2.8,3.2-4.1,4.8c-1.9,2.4-4.1,4.5-6.1,6.8
			c-2.4,2.8-5,5.3-7.7,7.8c-1.5,1.5-3.1,3-4.7,4.4c-1.8,1.6-3.6,3.3-5.5,4.8c-2.1,1.7-4.1,3.5-6.3,5.1c-1.6,1.2-3.2,2.5-4.8,3.7
			c-1.4,0.9-2,2.3-2.8,3.5c-1,1.6-2,3.2-3.1,4.7c-1.7,2.5-3.7,4.7-5.9,6.9c-1.8,1.8-3.8,3.3-5.8,4.9c-2.9,2.2-6,3.8-9.2,5.4
			c-1.5,0.8-3.1,1.4-4.7,2c-1.5,0.6-3.1,1.2-4.7,1.6c-2,0.5-3.9,1.1-5.9,1.4c-0.5,0.1-1.2,0.1-1.6,0.3c-0.6,0.3-1.2,0.1-1.7,0.3
			c-0.8,0.3-1.5,0.2-2.3,0.3c-0.7,0.1-1.4,0.4-2.1,0.3c-0.8,0-1.7-0.2-2.4,0c-2.5,0.6-5,0.2-7.5,0.3c-0.7,0-1.3-0.2-2-0.3
			c-0.6-0.1-1.4,0.2-1.9-0.1c-0.8-0.3-1.7-0.1-2.5-0.3c-1.4-0.4-2.9-0.5-4.4-0.8c-1.5-0.3-3.1-0.7-4.6-1.1c-0.9-0.2-1.8-0.5-2.6-0.7
			c-0.2-0.1-0.4-0.2-0.5-0.2c-1.6-0.1-3.2-0.2-4.7-0.3c-0.8-0.1-1.5-0.3-2.3-0.3c-0.8-0.1-1.6,0.2-2.3-0.1c-0.9-0.4-1.7-0.2-2.5-0.3
			c-0.8-0.1-1.6-0.2-2.5-0.3c-0.8-0.1-1.7,0.2-2.5-0.3c-0.1-0.1-0.2,0-0.3,0c-1.8,0.2-3.6-0.4-5.4-0.3c-0.7,0-1.3-0.2-2-0.3
			c-0.7-0.1-1.5,0.2-2.1-0.1c-0.9-0.4-1.8-0.2-2.7-0.3c-0.8-0.1-1.5-0.2-2.3-0.3c-0.7-0.1-1.5,0.3-2.1-0.3c-0.1-0.1-0.2,0-0.3,0
			c-1.7-0.1-3.4-0.2-5.1-0.3c-0.7-0.1-1.3-0.2-2-0.3c-0.7-0.1-1.4,0.3-2-0.3c-0.1-0.1-0.3,0-0.5,0c-1.6,0.2-3-0.4-4.6-0.3
			c-0.6,0-1.1-0.4-1.8-0.3c-0.5,0.1-1.2,0.2-1.7-0.3c-0.1-0.1-0.3,0-0.5,0c-0.8,0-1.5,0-2.3-0.3c-0.7-0.2-1.5,0.2-2.1-0.4
			c-0.1-0.1-0.2,0-0.3,0c-0.8-0.1-1.5,0.1-2.3-0.3c-0.7-0.3-1.6,0.1-2.3-0.4c-1.2,0.2-2.4-0.2-3.6-0.4c-1-0.1-2.1-0.1-3-0.6
			c-0.2-0.1-0.5,0-0.8,0c-0.6,0-1.2,0-1.8-0.3c-0.5-0.2-1.1,0-1.7-0.3c-0.6-0.3-1.4-0.2-2.1-0.3c-1.5-0.2-2.9-0.8-4.4-0.7
			c-1.1-0.6-2.4-0.3-3.5-1c-1.4,0.2-2.6-0.6-4-0.7c-1.4-0.1-2.7-0.9-4.2-0.9c-0.7-0.6-1.6-0.4-2.4-0.9c-0.7-0.4-1.7-0.1-2.4-0.4
			c-2.1-0.7-4.2-1.3-6.3-2c-1.8-0.6-3.5-1.3-5.2-1.9c-2.1-0.7-4.1-1.5-6.2-2.4c-3.9-1.6-7.7-3.5-11.4-5.5c-2.4-1.2-4.7-2.6-6.9-4.1
			c-1.8-1.2-3.6-2.5-5.4-3.8c-1-0.7-1.8-1.7-2.8-2.4c-2.4-1.8-4.3-4.2-6.5-6.2c-0.8-0.7-1.4-1.6-2.1-2.4c-0.7-0.7-1.1-1.6-1.7-2.4
			c-1.5-1.7-2.6-3.6-3.7-5.5c-1-1.7-2-3.5-2.8-5.4c-0.9-1.9-1.5-3.9-2.3-5.9c-0.7-1.9-1-3.9-1.6-5.8c-0.3-0.9-0.2-1.9-0.4-2.8
			c-0.2-0.7-0.3-1.3-0.3-2c0-0.7-0.2-1.3-0.3-2c-0.1-0.7,0.1-1.5,0-2.1c-0.4-1.2-0.4-2.4-0.3-3.6c0.1-1.5,0.4-2.9,0.3-4.4
			c0.4-0.5,0.2-1.2,0.3-1.8c0.1-0.6,0.2-1.2,0.3-1.8c0.4-1.6,0.9-3.1,1.5-4.6c0.6-1.8,1.5-3.5,2.4-5.2c0.9-1.6,1.9-3.2,3.1-4.6
			c1.1-1.3,2.1-2.7,3.3-3.8c1.9-1.8,3.9-3.5,5.8-5.2C211.8,286.2,212,286.2,212.1,286.2z M362.6,123.9c-0.1,0.1-0.2,0.2-0.3,0.3
			c0,0.9,0,1.7,0,2.6c-0.5,0-0.3,0.4-0.3,0.7c0,1.8,0,3.7,0,5.5c0,0.7,0,1.3-0.5,1.9c-0.8,0.1-1.3-0.4-1.5-1.1
			c-0.3-0.9-0.4-1.9-0.7-2.8c0.5-0.6,0.5-1.3,0-2c0-2.3,0-4.6,0-6.8c0.5-0.5,0.5-1.1,0-1.6c0.1-0.4,0.3-0.8,0.3-1.2
			c0-1.4,0.4-2.7,0.6-4.1c0.2-1.8,0.8-3.5,1.5-5.1c1-2.2,2.1-4.3,3.3-6.4c1.4-2.4,2.9-4.6,4.5-6.9c1.7-2.4,3.5-4.7,5.1-7.1
			c1.1-1.6,2.2-3.3,3.2-5c0.7-1.1,1.2-2.3,1.6-3.5c0.3-0.8,0.7-1.7,0.7-2.6c0.4-0.4,0.4-0.9,0-1.3c-0.1-1.4-0.6-2.2-1.5-3
			c-1.4-1.3-3-1.1-4.6-0.8c-1.3,0.2-2.6,0.8-3.8,1.5c-1.5,0.9-2.9,1.8-4.1,3c-0.8,0.8-1.6,1.7-2.3,2.6c-1.3,1.7-2.6,3.4-3.7,5.3
			c-0.4,0.8-0.8,1.6-1.3,2.4c-0.9,1.4-1.6,2.9-2.5,4.3c-0.5,0.7-0.6,1.6-1,2.3c-1,1.8-1.3,3.8-2.3,5.6c-0.2,2.3-1.1,4.4-1.4,6.8
			c-0.1,0.9,0,1.8-0.3,2.6c-0.3,0.8-0.2,1.5-0.3,2.2c-0.1,0.7-0.3,1.4-0.3,2.1c-0.1,0.9,0,1.8,0,2.8c-0.1,0.1-0.3,0.3-0.3,0.4
			c0,0.5,0,1,0,1.6c0,2.6,0,5.2,0,7.8c0,0.6,0,1.3,0,1.9c0,0.1,0.2,0.3,0.3,0.4c0,1.1,0,2.3,0,3.4c0,0.6-0.2,1.1-0.6,1.5
			c-0.7-0.4-1.1-1.1-1.4-1.8c-0.3-0.7-0.2-1.5-0.6-2.2c0.4-0.3,0.4-0.6,0-1c0-0.4,0-0.8,0-1.1c-0.1-0.4-0.2-0.8-0.3-1.2
			c0.4-0.3,0.4-0.6,0-1c0-0.5,0-1,0-1.4c-0.1-0.5-0.2-1-0.3-1.5c0.1-0.2,0.2-0.3,0.5-0.7c-1.5,0-2.7,0-3.9,0c-0.1,0-0.2,0.2-0.2,0.3
			c-1.2,0-2.4,0-3.6,0c0-0.1,0-0.2,0-0.2c-1.1-0.3-2.2-0.3-3.3,0c0,0,0,0.1,0,0.2c-0.8,0-1.6,0.1-2.4,0c-0.9-0.1-1.6,0.4-2.5,0.3
			c-0.4-0.4-0.9-0.4-1.3,0c-0.4,0-0.9,0-1.3,0c-0.4,0.1-0.9,0.2-1.3,0.3c-0.1-0.1-0.2-0.2-0.2-0.3c-0.1,0.1-0.3,0.2-0.4,0.3
			c-0.7,0-1.3,0-2,0c-0.3,0.1-0.8-0.3-1,0.3c-0.3,0-0.7,0-1,0c-0.3,0.1-0.8-0.3-1,0.3c-0.3,0-0.7,0-1,0c-0.3,0.1-0.8-0.3-1,0.3
			c-0.3,0-0.7,0-1,0c-0.2,0-0.6-0.2-0.7,0.3c-0.3,0-0.7,0-1,0c-0.3,0.1-0.8-0.3-1,0.3c-0.2,0-0.4,0-0.7,0c-0.3,0.1-0.8-0.3-1,0.3
			c-0.2,0-0.4,0-0.7,0c-0.2,0-0.6-0.2-0.7,0.3c-0.8,0.1-1.5,0.2-2.3,0.3c-0.2,0-0.6-0.2-0.7,0.3c-1.4,0-2.6,0.6-3.9,0.8
			c-0.8,0.1-1.6,0.3-2.3,0.8c-1.2-0.2-2.2,0.8-3.5,0.7c-1.9,0.9-3.9,1.2-5.9,1.9c-0.8,0.3-0.9,0.5-0.7,1.2c0.2,0.6,0.6,1.2,0.9,1.8
			c1,2.4,2.3,4.7,3.6,7c0.7,1.1,1.6,2.2,1.2,3.7c-0.5,0-1,0-1.4,0c-1.4-1.3-2.5-2.9-3.7-4.3c-1.6-1.9-2.9-4-4.1-6.1
			c-1.2-2.2-2.3-4.5-3-6.9c-0.4-1.4-1-2.7-1.1-4.1c0-0.2,0.2-0.6-0.3-0.7c0-0.4,0-0.9,0-1.3c-0.1-0.3,0.3-0.8-0.3-1
			c0-0.4,0-0.9,0-1.3c0-0.5,0-1,0-1.6c0-0.1-0.2-0.3-0.3-0.4c0-1.6,0-3.3,0-4.9c0.1-0.1,0.3-0.3,0.3-0.4c0-0.7,0-1.5,0-2.2
			c0-0.8,0-1.5,0-2.3c0.4-0.4,0.4-0.9,0-1.3c0.1-0.5,0.3-1,0.3-1.5c0.1-0.6,0-1.2,0-1.8c0.1-0.1,0.3-0.2,0.3-0.3c0-3.7,0-7.5,0-11.2
			c0-0.1-0.2-0.2-0.3-0.3c0-0.4,0-0.9,0-1.3c0-0.3,0-0.6,0-0.9c0-0.1-0.2-0.3-0.3-0.4c0-0.2,0-0.4,0-0.7c0-0.2,0.2-0.6-0.3-0.7
			c0.2-0.8-0.5-1.3-0.6-2c-0.3-1.4-1.3-2.1-2.3-2.9c-0.1-0.1-0.2,0-0.3,0c0-0.5-0.4-0.3-0.7-0.3c-0.4,0-0.9,0-1.3,0
			c-0.2,0-0.6-0.2-0.7,0.3c-1.7,0-2.6,1.3-3.9,2.1c-1,1.7-2,3.4-2.7,5.4c-0.7,2.3-1.1,4.7-1.6,7c-0.2,0.9,0,1.8,0,2.8
			c0,0.9-0.5,1.7-0.3,2.6c0.2,0.9,0.3,1.7,0.3,2.6c0.1,0.9,0,1.8,0,2.8c0,0.1,0,0.1,0,0.2c0.5,0.5,0.3,1.2,0.3,1.8
			c0.1,0.6,0.3,1.2,0.3,1.8c0,1.3,0.5,2.4,0.7,3.6c0,0.3,0.3,0.5,0.3,0.8c0.1,0.7,0.1,1.5,0.4,2.1c0.7,1.9,1.2,3.8,1.9,5.7
			c0.7,2,1.5,4,2.3,5.9c1,2.2,2.3,4.4,3.6,6.5c1.1,1.8,2.4,3.4,3.3,5.3c0.4,0.9,1.1,1.6,1.7,2.4c1.1,1.3,1.9,2.8,3.1,4.1
			c0.3,0.3,0.5,0.9,0.4,1.4c-0.1,0.5-0.7,0.9-1.2,0.6c-0.4-0.2-0.8-0.5-1.1-0.8c-1.8-1.7-3.6-3.4-5-5.4c-0.4-0.6-1-1.1-1.5-1.8
			c-0.7-1.2-1.6-2.4-2.4-3.6c-0.3-0.4-0.7-0.5-1.1-0.3c-1.7,0.8-3.5,1.6-5.1,2.6c-2.1,1.4-4.5,2.4-6.6,3.8c-1.6,1.1-3.3,2-4.9,3
			c-1.7,1.1-3.2,2.3-4.8,3.4c-1.8,1.2-3.5,2.6-5.2,4c-0.7,0.6-1.4,1.3-2.2,1.8c-0.9,0.5-1.4,1.3-2.1,1.9s-1.5,1.2-2.2,1.8
			c-2.9,2.9-5.8,5.7-8.5,8.8c-0.7,0.8-1.3,1.5-2,2.3c-1.1,1.3-2.1,2.7-3.1,4.1c-1,1.4-1.9,2.8-2.9,4.2c-0.7,1-1.4,2-2,3.1
			c-1.2,1.9-2.3,3.9-3.5,5.9c-0.3,0.5-0.4,1.2-0.8,1.6c-1.1,1.3-1.7,2.9-2.3,4.4c-0.9,2.2-2.1,4.3-2.8,6.6c-0.4,1.3-1.1,2.6-1.5,3.9
			c-1,2.8-2,5.6-2.8,8.5c-0.4,1.5-0.8,2.9-1.2,4.4c-0.4,1.5-1,3-1,4.6c-0.7,0.5,0,1.3-0.5,1.9c-0.4,0.5-0.1,1.3-0.4,1.9
			c-0.2,0.6-0.1,1.3-0.3,2c-0.2,0.6,0.2,1.4-0.1,1.9c-0.4,0.6-0.2,1.2-0.2,1.9c0,0.6-0.3,1.2-0.3,1.8c-0.1,1.1-0.1,2.3,0,3.4
			c0,1.1-0.4,2.2-0.4,3.3c0,3,0.2,6,0.4,9c0,0.7-0.2,1.5,0.1,2.1c0.4,0.7,0.2,1.5,0.3,2.2c0.1,0.8,0.2,1.5,0.3,2.3
			c0.1,1.2,0.1,2.5,0.4,3.6c0.2,0.7,0.1,1.5,0.3,2.1c0.5,1.3,0.6,2.7,0.9,4c0.2,1.3,0.9,2.5,0.7,3.8c1,2.4,1.4,5.1,2.3,7.5
			c0.8,2.2,1.6,4.4,2.4,6.7c0.4-0.1,0.6-0.1,0.9-0.2c1.1-0.6,2.3-1.1,3.6-1.6c1.3-0.5,2.6-0.9,3.8-1.3c2-0.7,4-1,6.1-1.4
			c1.5-0.3,3-0.5,4.6-0.4c2.3,0.1,4.6,0.1,6.8,0c1.5-0.1,2.9,0.5,4.4,0.4c0.1,0,0.1,0,0.2,0c0.6,0.7,1.4,0.1,2.1,0.4
			c0.7,0.3,1.5,0.5,2.2,0.5c1.6,0.2,3.1,0.8,4.7,1.2c0.9,0.2,1.7,0.6,2.6,0.9c0.9,0.3,1.7,0.6,2.5,1.1c0.1,0.1,0.3,0,0.5,0
			c0.3,0.6,1.1,1,0.9,2c-0.6,0-1.4,0.2-1.9,0c-0.7-0.3-1.4-0.1-2-0.3c-0.7-0.3-1.4-0.1-2-0.3c-0.9-0.3-1.8-0.1-2.6-0.4
			c-0.5-0.1-1-0.2-1.5-0.3c-0.6-0.1-1.1-0.3-1.7-0.3c-1-0.1-2.1-0.1-3.1-0.3c-1.5-0.3-3.1-0.3-4.6-0.3c-2.6-0.1-5.2-0.3-7.8,0.2
			c-1.6,0.3-3.2,0.4-4.8,0.7c-1.2,0.2-2.4,0.8-3.6,0.7c-3.4,1.3-6.8,2.5-9.9,4.5c-2,1.3-3.9,2.6-5.6,4.1c-2.2,1.9-4.1,4.1-5.6,6.6
			c-0.8,1.3-1.8,2.6-2.4,4.1c-0.8,2-1.8,4-2.2,6.3c-0.1,0.8-0.5,1.5-0.6,2.4c-0.1,0.9-0.3,1.8-0.3,2.6c0.1,2.9-0.3,5.9,0.3,8.8
			c0.2,1.2,0.1,2.4,0.4,3.6c0.4,1.6,0.8,3.2,1.2,4.9c0.7,2.7,1.7,5.3,2.8,7.8c0.7,1.6,1.5,3.1,2.4,4.6c1.3,2.1,2.7,4.2,4.2,6.2
			c0.7,0.9,1.5,1.8,2.3,2.6c0.8,0.9,1.5,1.8,2.3,2.6c0.5,0.6,1.3,0.9,1.8,1.5c1.6,1.8,3.5,3.2,5.4,4.7c0.6,0.5,1.3,1.1,2,1.5
			c2.5,1.6,4.8,3.4,7.5,4.7c1.3,0.6,2.4,1.4,3.7,2.1c1.9,1,3.8,2,5.8,2.8c2,0.8,4,1.6,6,2.4c3,1.3,6.1,2.1,9.1,3.2
			c1.2,0.4,2.4,0.7,3.7,1c1.3,0.3,2.6,0.6,3.8,1c1.2,0.4,2.5,0.6,3.7,0.9c0.9,0.2,1.8,0.4,2.7,0.7c0.9,0.2,1.9,0.1,2.8,0.4
			c0.9,0.3,1.9,0.4,2.8,0.6c1.6,0.4,3.3,0.5,5,1c0.8,0.2,1.6,0.1,2.3,0.3c1.4,0.5,2.9,0.5,4.3,0.9c0.9,0.3,2,0.1,2.9,0.4
			c0.7,0.2,1.5,0.1,2.1,0.3c0.5,0.3,1,0.2,1.5,0.3c0.6,0.1,1.1,0.3,1.7,0.3c1.1,0.1,2.3,0.1,3.4,0.4c0.8,0.2,1.7,0.1,2.5,0.3
			c0.5,0.2,1,0.2,1.5,0.3c0.6,0.1,1.1,0.3,1.7,0.3c0.8,0.1,1.6,0,2.5,0.3c0.8,0.2,1.6,0.1,2.5,0.3c0.9,0.3,1.8,0.1,2.8,0.3
			c0.9,0.2,2,0.1,3,0.3c1.6,0.3,3.3,0.3,4.9,0.4c0.1,0,0.2,0,0.3,0c0.7,0.5,1.4,0.4,2.1,0.3c0.8-0.1,1.5,0.4,2.3,0.3
			c1.8-0.1,3.6,0.6,5.4,0.3c0.1,0,0.2,0,0.3,0c0.8,0.6,1.6,0.2,2.5,0.3c0.9,0.1,1.8,0.3,2.6,0.3c1.2,0.1,2.4,0,3.6,0
			c0.3,0,0.7-0.1,1.1-0.1c-0.3-0.3-0.5-0.5-0.7-0.7c-1.8-1.1-3.3-2.6-4.8-4.2c-0.3-0.3-0.7-0.7-0.7-1.1c-0.1-0.3,0.3-0.7,0.4-1.1
			c0.6,0.1,1.3-0.1,1.8,0.2c1.6,0.8,3.3,1.3,4.8,2.1c1.3,0.7,2.7,1.2,4,1.6c2.5,0.9,4.8,1.9,7.3,2.9c2.2,0.8,4.4,1.7,6.7,2.3
			c0.9,0.2,1.7,0.6,2.6,0.7c0.9,0.1,1.8,0.5,2.7,0.6c1.5,0.2,3,0.7,4.6,0.7c0.1,0,0.3,0,0.3,0c0.5,0.5,1.1,0.4,1.7,0.3
			c0.7-0.1,1.2,0.4,1.8,0.4c1.8,0,3.6,0,5.4,0c1.7-0.1,3.5,0.2,5.2-0.3c1-0.3,2.2-0.1,3.3-0.3c1.4-0.2,2.7-0.5,4.1-0.7
			c1.9-0.3,3.7-1,5.6-1.4c1.8-0.5,3.6-1.2,5.3-2c2.5-1.2,5-2.4,7.4-3.8c0.6-0.4,1.4-0.7,1.9-1.2c1-0.9,2.2-1.6,3.2-2.5
			c1-0.9,2.1-1.7,3.1-2.6c1.9-1.7,3.5-3.7,5.1-5.7c1.3-1.6,2.4-3.3,3.6-5.1c1.2-1.8,2-3.8,2.9-5.8c1.2-2.5,2.1-5.1,3-7.7
			c0.2-0.7,0.4-1.6,1.3-2c0.5,0.3,0.6,0.7,0.6,1.2c0,2,0,4,0,6.2c0.9-0.7,1.6-1.3,2.3-1.9c2-1.6,4-3.1,6-4.7c0.7-0.6,1.4-1.1,2-1.7
			c0.7-0.6,1.4-1.3,2.1-1.9c1.6-1.3,3.1-2.8,4.6-4.2c4.2-4.2,8.6-8.3,12.3-12.9c0.9-1.1,1.8-2.1,2.8-3.1c0.7-0.8,1.4-1.5,1.9-2.3
			c0.9-1.3,1.9-2.4,2.8-3.7c1-1.5,2.1-2.9,3.1-4.4c1.9-2.7,3.7-5.5,5.4-8.3c1.2-2,2.3-3.9,3.4-5.9c1.5-2.6,2.6-5.3,3.7-8.1
			c0.5-1.3,1.1-2.6,1.5-3.9c0.9-2.5,1.7-5.1,2.3-7.7c0.5-1.7,0.7-3.5,1.2-5.2c0.2-0.6,0.2-1.3,0.3-2c0.2-0.7-0.1-1.5,0.4-2.1
			c-0.2-1.5,0.4-2.9,0.3-4.4c-0.1-3,0.3-6-0.3-9c-0.2-1,0-2-0.3-3c-0.2-0.6-0.2-1.3-0.3-2c-0.1-0.7-0.2-1.4-0.4-2.1
			c-0.3-1.3-0.6-2.7-1-4c-0.8-2.4-1.4-4.8-2.6-7.1c-0.9-1.9-2-3.7-3.3-5.3c-0.9-1.1-2-2.1-3-3.1c-1.3-1.3-2.8-2.3-4.4-3.2
			c-1.8-1-3.7-1.7-5.7-2.4c-2-0.6-4.1-0.9-6.2-1.2c-2.5-0.3-5.1,0.1-7.7,0.3c-0.1,0-0.1,0-0.2,0c-1.1,0.6-2.4,0.6-3.5,0.9
			c-2.5,0.6-4.7,1.7-7.1,2.6c0-0.5,0-1,0-1.5c0.4,0.1,0.7-0.2,0.9-0.5c0.7-0.8,1.6-1.4,2.5-1.8c1.7-0.8,3.3-1.7,5.1-2.2
			c1.4-0.4,2.7-1,4.1-1.1c0.9-0.1,1-0.2,1.1-1.3c0.5-0.7,0.5-1.6,0-2.3c0-0.5,0-1.1,0-1.6c-0.1-0.6-0.2-1.1-0.3-1.6
			c0.4-0.4,0.4-0.9,0-1.3c0-0.7,0.2-1.4-0.3-2c0.4-0.3,0.4-0.6,0-1c0-0.3,0.1-0.7,0-1c-0.2-0.4-0.3-0.9-0.3-1.3c0-0.5-0.2-1-0.3-1.5
			c-0.1-0.9-0.1-1.9-0.4-2.8c-0.6-1.7-0.6-3.6-1.2-5.3c-0.5-1.4-0.7-2.9-1.2-4.4c-0.8-2.6-1.7-5.3-2.7-7.8c-0.9-2.3-1.8-4.6-2.8-6.8
			c-1-2.3-2.3-4.5-3.4-6.7c-0.8-1.6-1.6-3.2-2.7-4.6c-1.6-2.2-3-4.5-4.6-6.7c-1.8-2.5-3.8-4.8-5.7-7.2c-1.4-1.8-3-3.3-4.6-4.9
			c-1.5-1.5-3-2.9-4.6-4.2c-0.9-0.7-1.6-1.5-2.5-2.2c-1.3-1.1-2.7-2.1-4.1-3.1c-1.3-1-2.7-2-4-2.9c-2-1.4-4-2.7-6.1-3.8
			c-2.5-1.5-5.1-2.9-7.7-4.2c-3.5-1.8-7-3.6-10.7-4.8c-1.4-0.5-2.8-1.1-4.3-1.5c-1.5-0.4-2.9-1-4.3-1.3c-1.2-0.3-2.4-0.5-3.5-1
			c-1.2-0.4-2.4-0.5-3.5-0.9c0-0.5-0.4-0.3-0.7-0.3c-0.2,0-0.4,0-0.6,0c-1.3-0.2-2.5-0.7-3.7-0.6c-0.6-0.6-1.4,0-1.9-0.4
			c-0.5-0.3-1-0.2-1.5-0.3c-0.5-0.1-1.1-0.2-1.6-0.3c-0.3-0.4-0.6-0.4-1,0c-0.4-0.3-0.8-0.4-1.3-0.3
			C363.3,123.5,362.9,123.5,362.6,123.9z M329.2,87.7c1.7-1.3,3.4-2.2,5-3.4c1-0.8,2-1.6,3.1-2.4c1.1-0.8,2.2-1.7,3.1-2.7
			c2.3-2.3,4.6-4.6,6.6-7.2c0.9-1.2,1.8-2.3,2.6-3.5c1.5-2.2,2.9-4.5,3.9-7c0.8-1.9,1.7-3.8,2-5.8c0.1-0.9,0.3-1.8,0.7-2.6
			c0.4-0.8,0.1-1.7,0.5-2.6c0.3-0.8,0.2-1.8,0.3-2.8c0.2-1.3,0-2.6,0.1-3.9c0.1-1.3-0.6-2.6-0.3-3.9c0-0.1,0-0.1,0-0.2
			c-0.6-1.1-0.6-2.3-0.9-3.5c-0.5-1.8-1.9-5.7-2.5-7.1c-0.8-1.7-1.7-3.3-2.8-4.9c-1.5-2.3-3.1-4.6-5.1-6.5c-1.3-1.3-2.8-2.5-4.3-3.7
			c-2.4-1.9-5.1-3.3-7.9-4.6c-0.7-0.3-1.4-0.6-2.1-0.8c-1.8-0.6-3.6-1.3-5.5-1.3c-0.6-0.6-1.4-0.1-2-0.4c-0.7-0.3-1.3-0.3-2-0.3
			c-1.2-0.1-2.3,0.2-3.5-0.3c-0.4-0.2-1.1-0.2-1.4,0.1c-0.5,0.3-0.9,0.2-1.4,0.2c-1.3,0.1-2.5-0.2-3.8,0.3c-0.6,0.2-1.5-0.1-2,0.2
			c-0.7,0.4-1.5-0.1-2.1,0.4c-0.5,0.4-1.4-0.1-1.9,0.5c-1.7,0-3.3,0.7-4.9,1.1c-1.3,0.3-2.6,0.8-3.9,1.2c-1.3,0.4-2.6,1.2-4,1.3
			c-2.4,1.2-4.9,2.1-7.2,3.3c-2,1.1-4,2-6,3.2c-1.7,1-3.3,2.2-5,3.3c-1.4,1-2.9,1.9-4.3,3c-1.3,1.1-2.8,2.1-4.1,3.3
			c-0.7,0.6-1.4,1.3-2.1,1.9c-0.7,0.6-1.5,1.2-2.2,1.9c-2.1,2.2-4.3,4.2-6.3,6.5c-1.5,1.7-2.9,3.5-4.4,5.2c-0.5,0.6-1,1.2-1.5,1.8
			c-1.5,2.1-2.9,4.2-4.4,6.3c-2,3-3.9,6.1-5.6,9.2c-1.9,3.5-3.6,7.2-5.3,10.8c-0.6,1.2-1.3,2.4-1.6,3.7c-0.4,1.3-1.3,2.4-1.4,3.8
			c-0.9,1.1-1,2.6-1.6,3.9c-0.6,1.3-0.8,2.8-1.4,4.1c-0.4,0.8-0.5,1.8-0.8,2.6c-0.5,1.2-1.1,2.3-2.2,3.1c-0.4,0-0.9,0-1.5,0
			c-0.1-0.7-0.4-1.4-0.2-2c0.1-0.5,0.2-0.9,0.3-1.3c0.1-0.4,0.2-0.8,0.3-1.2c0.1-0.4-0.1-0.9,0.3-1.2c-0.1-0.9,0.5-1.7,0.6-2.5
			c0.3-1.4,0.8-2.8,1.2-4.2c0.2-0.7,0.7-1.4,0.4-2.2c-0.4,0-0.7,0-1,0c-0.3,0.1-0.7,0.3-1,0.3c-1.4,0-2.6,0.8-3.9,0.7
			c-2.7,1-5.6,1.4-8.4,2.2c-1.8,0.5-3.7,1-5.5,1.6c-1.7,0.5-3.4,1.2-5.2,1.7c-4.1,1.2-8,2.8-11.8,4.5c-4.4,2-8.8,4.2-12.9,6.9
			c-3.4,2.2-6.6,4.5-9.5,7.4c-0.8,0.8-1.7,1.7-2.5,2.5c-0.8,0.8-1.6,1.7-2.3,2.6c-1,1.4-2,2.8-2.8,4.3c-1.1,1.9-2,3.8-2.7,5.9
			c-0.6,1.6-1.3,3.2-1.3,5c-0.5,0.5-0.2,1.1-0.3,1.7c-0.1,0.6-0.3,1.1-0.3,1.7c0,2.3,0,4.6,0,6.8c0,0.3-0.1,0.8,0,0.9
			c0.4,0.4,0.2,0.9,0.3,1.4c0.1,0.5,0.2,1,0.3,1.5c0.3,1.2,0.5,2.4,0.9,3.5c0.8,2.2,1.6,4.4,2.8,6.5c1.2,2,2.5,3.9,4.1,5.6
			c1.2,1.2,2.4,2.4,3.7,3.5c2,1.6,4.1,3,6.3,4.2c2.6,1.4,5.4,2.6,8.4,3.3c1.4,0.4,2.8,0.8,4.3,1c0.7,0.1,1.5,0,2.1,0.3
			c0.8,0.4,1.7,0.1,2.5,0.3c0.8,0.1,1.6,0.4,2.5,0.3c2.1-0.2,4.3,0.3,6.4-0.3c1.4,0.2,2.9-0.1,4.2-0.4c1.9-0.4,3.9-0.8,5.6-1.8
			c1.1,0,1.9-1.1,3-1.1c0.4-0.6,1.4-0.6,1.6-1.5c-0.5-0.4-1.1-0.8-1.6-1.2c-1.8-1.7-3.6-3.3-5.5-4.8c-1.3-1-2.5-2.2-3.7-3.3
			c-0.2-0.1-0.3-0.4-0.5-0.4c-0.7-0.1-1-0.8-1.5-1.2c-0.5-0.4-1.1-0.8-1.6-1.3c-0.9-0.8-1.8-1.7-2.8-2.4c-0.8-0.5-1.3-1.3-2-1.7
			c-2-1.3-3.8-2.8-5.5-4.5c-0.1-0.1-0.2-0.3-0.4-0.7c0.7,0,1.2-0.1,1.7,0c2,0.7,4,1.4,5.9,2.3c2.2,1.1,4.4,2.3,6.5,3.6
			c1.1,0.6,2.2,1.4,3.2,2.2c1.6,1.3,3.2,2.5,4.8,3.7c1.6,1.2,3.1,2.6,4.7,3.9c2,1.7,3.9,3.5,5.8,5.4c2.4,2.4,4.8,4.8,7.3,7.2
			c0.3,0.3,0.5,0.5,0.9,0.7c0.9-1.1,1.6-2.2,2.5-3.1c1.2-1.3,2.3-2.6,3.6-3.9c1.8-1.9,3.7-3.7,5.5-5.5c0.3-0.3,0.5-0.7,0.8-0.8
			c0.8-0.3,1.2-1,1.8-1.5c0.6-0.5,1.2-1,1.8-1.5c0.8-0.7,1.7-1.5,2.5-2.2c0.6-0.5,1.4-0.9,2-1.4c0.8-0.7,1.7-1.3,2.6-1.9
			c2-1.4,3.8-3,5.9-4.2c2.5-1.4,4.9-3.1,7.5-4.4c2-1,3.9-2.2,5.8-3.2c1.4-0.7,2.7-1.4,4-2.1c0.3-0.8-0.3-1.2-0.6-1.8
			c-0.8-1.5-1.4-3.1-2.2-4.6c-0.9-1.8-1.7-3.6-2.3-5.6c-0.8-2.6-1.8-5.2-2.1-7.9c-0.1-0.8,0-1.7-0.3-2.5c-0.3-0.7-0.2-1.4-0.3-2.2
			c-0.1-0.8-0.3-1.5-0.3-2.3c0-2.4,0-4.9,0-7.3c0-0.3-0.1-0.8,0-1c0.5-0.6,0.2-1.3,0.3-2c0.1-0.7,0.2-1.4,0.3-2.1
			c0.1-0.9,0-2,0.4-2.7c0.3-0.6,0.1-1.2,0.4-1.8c0.6-1.4,0.8-2.9,1.5-4.3c0.5-1.1,1-2.3,1.7-3.4c0.8-1.3,1.8-2.3,2.9-3.3
			c0.9-0.8,2-1.2,3-1.7c0.7-0.4,1.4-0.3,2.1-0.3c0.8-0.1,1.5-0.3,2.3-0.3c0.4,0,0.8,0.3,1.2,0.3c1.4,0.1,2.5,0.8,3.6,1.7
			c1.2,0.9,1.8,2.2,2.4,3.6c0.2,0.5,0.5,1,0.6,1.5c0.2,0.5,0.2,1.1,0.4,1.6c0.2,0.5,0.3,1.1,0.3,1.7c0,0.6,0.3,1.1,0.3,1.7
			c0,1.1,0.1,2.2,0,3.3c-0.1,1.1,0.5,2.1,0.4,3.3c-0.2,1.1-0.2,2.3-0.3,3.4c-0.1,1.8,0.1,3.7-0.3,5.6c-0.4,2.2-0.3,4.6-0.4,6.8
			c0,0.9,0.1,1.7,0,2.6c-0.2,2.3,0.4,4.5,0.3,6.7c0.5,0.7,0.2,1.6,0.4,2.4c0.3,1.1,0.7,2.1,0.9,3.2c0.1,0.7,0.6,1,1.3,0.6
			c1.8-1.1,3.9-1.2,5.8-2.1c1.4-0.6,3.1-0.5,4.5-1.4c0.1,0,0.2,0,0.3,0c2.2-0.2,4.2-1.1,6.4-1.5c0.8-0.1,1.6-0.5,2.4-0.5
			c0.9,0,1.8-0.1,2.6-0.4c1.3-0.4,2.6-0.5,3.9-0.8c0.7-0.2,1.5-0.1,2.3-0.3c0.7-0.2,1.6,0,2.3-0.4c1.9,0.2,3.7-0.6,5.6-0.3
			c0.4,0,0.7,0,1.2,0c-0.5-1.6-1-2.9-1.4-4.3c-0.3-1.2-0.7-2.3-1-3.5c-0.4-2-1.1-3.9-1.6-5.9c-0.3-1.4-0.7-2.9-1.1-4.3
			c-0.4-1.2-0.6-2.5-0.9-3.7c-0.3-1-0.6-2-0.7-3c-0.1-1.3-0.6-2.6-0.8-3.9c-0.2-1.3-0.5-2.7-0.8-4c-0.2-1-0.1-2-0.4-2.9
			c-0.5-1.7-0.7-3.4-0.9-5.1c-0.2-1.9-0.6-3.8-0.4-5.7c0-0.2,0.1-0.5,0-0.6c-0.6-0.7-0.2-1.4-0.3-2.2c-0.1-0.8-0.2-1.6,0-2.3
			c0.3-0.7,0.3-1.4,0.2-2.2c-0.1-0.8,0.3-1.4,0.3-2.1c0-0.7,0.1-1.3,0.5-1.9c0.3,0,0.7,0,1,0c0.3,0.6,0.6,1.1,0.5,1.8
			c0,0.2-0.1,0.5,0,0.6c0.5,0.4,0.2,0.9,0.3,1.3c0.1,0.4,0.2,0.9,0.3,1.3c0.1,0.9,0.1,1.9,0.4,2.8c0.5,1.3,0.6,2.7,0.9,4
			c0.2,1.3,0.9,2.6,0.7,3.9c0.7,1.5,0.6,3.2,1.3,4.7C327.9,83.3,328.9,85.3,329.2,87.7z"/>
		<path class="st1" d="M261.1,426.2c1.9-0.6,3.4-1.4,5.2-1.4c0.9-0.8,2-0.1,3-0.5c0.9-0.3,2-0.2,3-0.1c0.7,0,1.4,0.2,2.1,0.3
			c0.7,0.1,1.5-0.2,2.1,0.3c1.3-0.2,2.5,0.5,3.8,0.7c0.8,0.1,1.6,0.4,2.3,0.7c2,0.9,4,1.9,6,2.9c0.9,0.5,1.7,1.1,2.5,1.7
			c1.9,1.4,3.5,3,5,4.7c1.7,2,3.1,4.1,4.2,6.5c0.6,1.4,1.3,2.7,1.7,4.2c0.4,1.2,0.6,2.3,0.9,3.5c0.1,0.5,0.2,1.1,0.3,1.7
			c0.1,0.6-0.1,1.1,0.3,1.7c0.1,0.2,0,0.5,0,0.8c0,0.9,0,1.8,0,2.8c0,1,0.2,2-0.1,2.9c-0.4,0.9,0.2,1.9-0.5,2.7
			c-0.7,4.1-1.6,6.4-3.6,10.1c-0.7,1.2-1.5,2.3-2.3,3.5c-1.5,2.1-3.4,3.7-5.2,5.5c-1.2,1.1-2.6,2-4,2.8c-0.8,0.5-1.6,1-2.5,1.4
			c-2.3,1.1-4.6,2.1-7.1,2.5c-0.6,0.7-1.4,0.2-2.1,0.5c-0.6,0.3-1.5,0-2.2,0.2c-1.5,0.5-3.1,0.3-4.6,0.3c-0.8,0-1.6-0.2-2.5-0.3
			c-0.8-0.1-1.6,0.3-2.3-0.3c-1.8,0.1-3.4-0.7-5.1-1c-0.7-0.1-1.4-0.3-2-0.6c-1.4-0.7-3-1.1-4.4-2.1c-0.9-0.6-1.9-1.1-2.8-1.8
			c-1.9-1.4-3.7-2.8-5-4.7c-0.7-0.9-1.4-1.8-2.1-2.7c-1.1-1.8-2.1-3.7-2.8-5.7c-0.6-1.7-1.1-3.5-1.6-5.2c-0.2-0.7,0.1-1.6-0.4-2.3
			c0.2-1.7-0.3-3.3-0.3-4.9c0-17.3,0-34.7,0-52c0-3,2.3-7.3,4.8-8.8c1.6-1,3.2-1.8,5.1-1.9c0.5,0,1-0.4,1.5-0.3
			c1.8,0.4,3.7,0.5,5.4,1.5c1.6,0.9,2.8,2,3.8,3.5c1.4,2,1.3,2.4,2,5c0.3,1,0.3,1.9,0.3,2.8c0,5.8,0,11.6,0,17.4
			C261.1,425,261.1,425.5,261.1,426.2z M282.9,456.3c-0.1-1,0.1-2.1-0.3-3.1c-0.5-1.7-1.6-3.9-2.7-5.1c-1.3-1.4-2.9-2.3-4.6-3.1
			c-0.8-0.4-1.6-0.6-2.5-0.6c-1.2-0.1-2.5-0.1-3.7,0c-0.7,0-1.5,0.1-2.1,0.4c-2.2,1.1-4.4,2.2-5.8,4.4c-1.3,2.1-2.2,4.3-2.1,6.8
			c0,0.5,0,1.1,0,1.6c0.1,0.8,0.1,1.6,0.4,2.3c0.9,1.7,1.6,3.5,3.2,4.9c2.3,2.1,4.9,3.3,8.1,3.3c0.5,0,1,0.1,1.5,0
			c1.1-0.3,2.4-0.2,3.3-0.9c0.3-0.2,0.7-0.3,1.1-0.5c1.9-0.8,4.2-3.4,4.9-4.7C282.5,460.1,283.1,458.3,282.9,456.3z"/>
		<path class="st2" d="M70.6,455.8c0-0.8-0.1-1.6,0-2.4c0.1-0.7-0.2-1.3,0.3-2c0.3-0.5-0.3-1.4,0.4-1.9c-0.1-1.3,0.4-2.5,0.8-3.7
			c0.6-2,1.6-3.9,2.5-5.8c1.1-2.1,2.4-4.1,4.1-5.8c1.1-1.1,2.2-2.3,3.3-3.3c2.4-2.2,5.3-3.9,8.2-5.2c1.4-0.6,2.9-1.1,4.4-1.5
			c0.7-0.2,1.4-0.3,2.1-0.5c0.6-0.1,1.1-0.2,1.7-0.3c0.6-0.1,1.2,0.1,1.7-0.3c0.2-0.1,0.5,0,0.8,0c1.1,0,2.2,0,3.3,0
			c3.8,0,7.5,0.8,11,2.1c2.9,1.1,5.7,2.5,8.2,4.6c1.4,1.1,3,2.1,4,3.5c1,1.4,2.3,2.5,3.2,4c0.9,1.4,1.7,2.8,2.5,4.2
			c1.1,2,1.7,4.2,2.3,6.4c0.5,2.1,1,4.1,1,6.3c0,0.5,0.2,1,0.3,1.5c0.2,1-0.3,1.8-0.4,2.8c0,0.9,0.4,1.8-0.3,2.6
			c0.1,1.2-0.4,2.3-0.6,3.5c-0.2,1.3-1,2.4-1,3.7c-1.2,2.2-2.1,4.5-3.6,6.5c-1,1.4-2,2.7-3.2,3.9c-1,1.1-2.1,2.1-3.2,3.1
			c-1,0.9-2.2,1.7-3.4,2.4c-1.2,0.7-2.3,1.4-3.6,2c-2,0.9-4.1,1.7-6.3,2.1c-1.4,0.3-2.9,0.4-4.3,0.7c-1.9,0.4-3.7,0.4-5.6,0.2
			c-2.2-0.2-4.3-0.6-6.5-1.1c-2.2-0.6-4.2-1.4-6.2-2.4c-1.9-0.9-3.6-2.1-5.3-3.3c-2-1.4-3.6-3.3-5.2-5c-1.2-1.3-2.3-2.8-3.1-4.4
			c-0.8-1.5-1.5-3-2.2-4.6c-0.6-1.4-0.8-2.9-1.4-4.3c-0.3-0.6-0.3-1.4-0.4-2.1c-0.2-1-0.3-2-0.3-3C70.6,457.7,70.6,456.7,70.6,455.8
			z M115.2,456.4c0.1-1.8,0.2-3.2-0.4-4.5c-1-2.2-2.2-4.3-4.3-5.7c-1.7-1.1-3.5-1.9-5.4-2.2c-1.5-0.2-3.2-0.1-4.7,0.4
			c-0.7,0.2-1.4,0.3-2,0.7c-1.4,1-3.1,1.8-4.1,3.4c-1.4,2.1-2.5,4.1-2.4,6.6c0,0.6,0,1.2,0,1.8c0,1.3,0.3,2.5,0.9,3.7
			c1.1,2.6,3,4.5,5.5,5.8c1.1,0.6,2.2,0.9,3.5,1.1c2.5,0.3,3.3,0.4,5.2-0.2c2.5-0.8,4.7-2,6.2-4.2c0.8-1.3,1.9-2.4,1.9-4.1
			C115.6,458,115.1,457,115.2,456.4z"/>
		<path class="st1" d="M329.9,463.2c1,2.3,2.5,3.8,4.5,4.9c2.1,1.2,4.4,1.9,6.8,2c0.5,0,1,0.3,1.5,0.3c0.6,0,1.4,0.1,1.9-0.1
			c0.6-0.3,1.2-0.1,1.7-0.2c0.6-0.1,1.3,0.3,1.8-0.3c1.1,0.1,2.1-0.2,3.2-0.6c1-0.3,2-0.8,3-1c1.5-0.3,3-0.8,4.6-0.7
			c1.3,0.1,2.5,0.3,3.6,0.8c1.8,1,3.3,2.4,3.7,4.6c0.1,0.7,0.3,1.3,0.3,2c0,2.3-0.7,4.2-2.1,6c-1.2,1.6-2.6,2.5-4.2,3.6
			c-1.8,1.3-4,1.7-5.9,2.8c-1.2,0-2.1,0.7-3.3,0.8c-1.6,0.2-3.3,0.4-4.9,0.7c-1.9,0.3-3.7,0.2-5.6,0.2c-0.7,0-1.4-0.2-2.1-0.3
			c-0.7-0.1-1.4,0.1-2.2-0.3c-0.6-0.3-1.4-0.2-2.1-0.3c-1.5-0.2-3-0.7-4.4-1.2c-3-0.9-5.7-2.6-8.3-4.4c-1.6-1.1-3.1-2.2-4.3-3.7
			c-2.5-2.8-4.7-5.8-6.1-9.3c-0.4-1-0.8-2.1-1.2-3.1c-0.4-1-0.6-2-0.9-3c-0.2-0.7,0.1-1.5-0.4-2.1c0.1-1.5-0.5-2.9-0.4-4.4
			c0.1-1.5-0.2-3,0.1-4.4c0.3-1.5,0.1-3.2,0.9-4.6c-0.2-1.5,0.6-2.8,1-4.1c0.4-1.3,0.9-2.5,1.6-3.7c1.1-1.9,2.2-3.8,3.6-5.5
			c0.9-1.2,2-2.2,3-3.3c2.3-2.3,5-4,8-5.4c1-0.5,2.1-0.8,3.1-1.2c1-0.4,2-0.7,3-0.9c1.1-0.2,2.3-0.6,3.4-0.4
			c1.7-0.6,3.4-0.3,5.1-0.3c0.8,0,1.5-0.1,2.3,0.3c0.7,0.3,1.6-0.2,2.3,0.4c1.6,0,3,0.5,4.5,1c2.4,0.8,4.7,2,6.9,3.4
			c2.3,1.4,4.2,3.3,5.9,5.3c1.6,1.8,2.8,4,3.9,6.2c1,2.2,1.9,4.4,2.3,6.9c0.6,0.7,0.1,1.6,0.5,2.3c0.4,0.7,0.1,1.5,0.2,2.2
			c0.1,1.1,0.5,2.1,0.4,3.3c-0.1,1.3-0.9,4.5-1.7,5.5c-0.6,0.7-1.3,1.3-2,1.7c-1.3,0.6-2.5,1.3-4,1.5c-0.9,0.1-1.8,0.1-2.6,0.3
			c-3.2,0.6-6.4,0.2-9.6,0.3c-3.2,0.1-6.4,0-9.6,0c-3.3,0-6.5,0-9.8,0C330.6,463.2,330.4,463.2,329.9,463.2z M350.7,448.9
			c-0.2-0.7-0.3-1.2-0.4-1.8c-0.3-1.8-1.5-3.1-2.6-4.4c-0.5-0.6-1.4-1-2.1-1.5c-0.4-0.3-0.9-0.5-1.3-0.7c-1-0.3-1.9-0.7-3-0.7
			c-0.8,0-1.5,0-2.3,0c-1.3,0-2.5,0.4-3.7,0.9c-2.1,0.8-3.6,2.3-4.7,4.1c-0.7,1.2-1.4,2.5-1,4.1
			C336.5,448.9,343.5,448.9,350.7,448.9z"/>
		<path class="st1" d="M396.4,463.3c0.1,0.3,0.1,0.6,0.2,0.8c0.8,1.5,2,2.8,3.5,3.6c1.2,0.7,2.4,1.4,3.8,1.7
			c0.7,0.2,1.4,0.4,2.1,0.5c1.4,0.2,2.9,0.5,4.2,0.3c2.4-0.3,5-0.2,7.3-1.2c1.4,0,2.6-0.9,4-1.1c0.2,0,0.5-0.2,0.7-0.2
			c0.5-0.1,1.1,0.2,1.5-0.3c3-0.1,5.8,0.4,7.7,2.9c0.6,0.8,1.2,1.8,1.3,3.1c0,0.6,0.4,1.2,0.3,1.8c-0.1,0.8-0.2,1.5-0.5,2.2
			c-0.3,0.9-0.7,1.9-1.2,2.8c-0.2,0.3-0.5,0.6-0.8,0.8c-1.4,1.4-2.7,2.9-4.6,3.7c-1.7,0.7-3.3,1.8-5.1,2.2c-1.7,0.5-3.4,1-5.2,1.3
			c-1,0.2-2,0.1-3,0.3c-1.9,0.5-3.7,0.2-5.6,0.3c-0.7,0-1.3-0.2-2-0.3c-0.7-0.1-1.5,0.1-2.1,0c-1.1-0.3-2.2-0.3-3.3-0.6
			c-1.1-0.3-2.1-0.6-3.2-1c-2.6-0.8-5-2.1-7.3-3.5c-2.4-1.5-4.6-3.4-6.5-5.5c-1.3-1.5-2.6-3.1-3.5-4.9c-0.4-0.9-0.9-1.7-1.4-2.5
			c-1.2-2-1.6-4.3-2.5-6.4c-0.3-0.8-0.3-1.7-0.4-2.6c-0.1-0.8-0.3-1.5-0.3-2.3c-0.1-0.8,0.2-1.6-0.1-2.2c-0.5-1,0.2-1.8,0.1-2.7
			c-0.1-1-0.2-2,0-2.9c0.3-1.7,0.4-3.4,1-5c0.7-1.9,1.3-3.9,2.2-5.8c1.1-2.2,2.2-4.4,3.8-6.2c1.6-1.9,3.4-3.6,5.3-5.1
			c2-1.6,4.2-2.8,6.6-3.8c1.5-0.7,3.1-1.1,4.7-1.5c1.4-0.3,2.8-0.4,4.1-0.7c1.9-0.4,3.7-0.2,5.6-0.2c0.7,0,1.3,0.2,2,0.3
			c0.7,0.1,1.4-0.3,2,0.3c1.8,0,3.4,0.7,5,1.3c2,0.7,4,1.5,5.7,2.7c1.9,1.2,3.7,2.6,5.2,4.2c1.5,1.6,2.9,3.4,4,5.3
			c0.7,1.2,1.3,2.4,1.8,3.6c0.5,1.2,0.9,2.5,1.3,3.7c0.3,0.8,0.4,1.6,0.6,2.4c0.2,0.7,0.3,1.4,0.3,2.2c0,0.7,0.5,1.2,0.3,2
			c-0.1,0.7,0,1.5,0,2.3c0,0.7,0.1,1.4,0,2.1c-0.2,1.6-0.6,3.2-1.8,4.4c-1,1-2,1.8-3.3,2.3c-0.4,0.1-0.9,0.2-1.3,0.4
			c-1,0.3-2,0.5-3,0.6c-5,0.5-10,0.2-15,0.3c-5,0-10,0-15,0C396.7,463.2,396.6,463.3,396.4,463.3z M416.9,448.9
			c0-0.1,0.1-0.2,0.1-0.3c-0.1-0.4-0.2-0.8-0.3-1.2c-0.6-2.4-2-4.4-4-5.8c-1.5-1.1-3.3-1.8-5.2-1.8c-0.8,0-1.5,0-2.3,0
			c-1.3,0-2.4,0.5-3.5,0.9c-1.4,0.5-2.4,1.5-3.5,2.5c-1.1,1-1.6,2.4-2.2,3.6c-0.3,0.6-0.2,1.4-0.3,2.1
			C402.7,448.9,409.8,448.9,416.9,448.9z"/>
		<path class="st2" d="M64.1,433.1c0,9.2,0,18.3,0,27.5c0,0.7,0.1,1.3-0.3,2c-0.3,0.5,0.2,1.2-0.3,1.8c-0.3,0.4,0.2,1-0.3,1.5
			c-0.3,0.4,0.2,1.1-0.4,1.4c-0.2,1.9-1.1,3.4-1.8,5.1c-0.9,2.1-2.1,4-3.5,5.7c-1.3,1.5-2.7,2.9-4.3,4.1c-1.4,1.1-3,2.1-4.5,3
			c-1.3,0.8-2.7,1.3-4.2,1.7c-1.8,0.6-3.6,1.1-5.5,1.4c-0.8,0.1-1.6,0.1-2.3,0.3c-2,0.5-4,0.3-6.1,0.3c-2.5-0.1-5-0.5-7.5-1.2
			c-2.6-0.7-5-1.5-7.3-2.7c-2.2-1.1-4.2-2.4-5.9-4.1c-0.9-0.9-1.8-1.8-2.8-2.8c-1.4-1.4-2.5-3.2-3.6-4.9c-1-1.7-1.8-3.5-2.4-5.3
			c-0.3-0.9-0.5-1.8-0.6-2.7c-0.1-0.6,0-1.3,0-1.9c0-3,1.2-5.6,3.4-7.5c1.3-1.1,2.8-1.8,4.5-2c0.8-0.1,1.6-0.3,2.5-0.3
			c1.9,0,3.9,0.5,5.8,1.6c0.2,0.1,0.4,0.3,0.6,0.5c1.9,1.8,3.5,3.8,4.9,6.1c0.8,1.3,1.7,2.6,2.9,3.7c1.7,1.5,3.6,2.5,6,2.5
			c0.8,0,1.5,0,2.3,0c2,0,3.6-0.9,5.1-2.1c1.5-1.3,2.1-3.1,2.8-4.9c0.4-0.9,0.4-2.1,0.4-3.1c0-17.5,0-35,0-52.5
			c0-2.5,0.9-4.6,2.4-6.7c1.4-2,3.8-3.1,5.9-3.9c1.4,0.2,2.7-1,4.1,0c1.3-0.2,2.5,0.4,3.6,0.8c1.7,0.7,3.1,1.7,4.3,3.7
			c1.3,2,2,4.2,2,6.7C64.1,414.8,64.1,423.9,64.1,433.1z"/>
		<path class="st2" d="M196.9,443.7c0,10.8,0,21.7,0,32.5c0,1.1-0.2,2.2-0.5,3.2c-0.3,1-0.7,2-1.3,2.9c-0.6,1-1.4,2-2.4,2.7
			c-1.8,1.3-3.7,2.3-6.1,2.2c-0.7,0-1.4,0-2.1,0c-1.2-0.1-2.3-0.4-3.4-0.9c-1.8-0.9-3.4-2.1-4.5-3.9c-0.9-1.5-1.2-2.7-1.7-4.5
			c-0.3-1.1-0.3-2.2-0.3-3.3c0-21.1,0-42.2,0-63.3c0-1.8,0.4-3.5,1.1-5.1c1-2.1,2.5-3.9,4.7-5c2.2-1.2,4.6-1.6,7.1-1.3
			c1.5,0.2,3,0.9,4.3,1.7c2.3,1.5,3.7,3.6,4.4,6.1c0.3,1,0.5,2,0.5,3.1C196.9,421.9,196.9,432.8,196.9,443.7z"/>
		<path class="st1" d="M143.2,443.7c0-10.6,0-21.1,0-31.7c0-2.5,0.6-4.8,1.8-6.9c0.7-1.2,1.7-2.2,2.8-3c1.9-1.4,4.1-1.9,6.5-2
			c2.2-0.1,4.2,0.6,6,1.7c1.4,0.9,2.8,2.2,3.5,3.8c0.4,0.9,0.8,1.7,1.1,2.6c0,0.1,0.1,0.2,0.2,0.3c0.1,1.1,0.3,2.2,0.3,3.3
			c0,21.3,0,42.6,0,63.9c0,1.8-0.3,3.7-1.1,5.2c-0.9,1.9-2.1,3.8-4.2,4.8c-0.6,0.3-1.1,0.7-1.7,1c-0.6,0.3-1.2,0.5-1.9,0.6
			c-0.9,0.1-1.8,0-2.7,0.1c-1.8,0.1-3.3-0.5-4.8-1.3c-2.9-1.5-4.6-4.2-5.4-7.3c-0.3-1-0.3-2-0.3-3
			C143.2,465,143.2,454.4,143.2,443.7z"/>
		<path class="st3" d="M228.5,455.3c0,7.4,0,14.7,0,22.1c0,2.3-1,4.3-2.4,6c-0.2,0.2-0.4,0.4-0.6,0.6c-1,1.3-2.4,1.9-3.8,2.7
			c-0.6,0.3-1.4,0-1.9,0.6c-1.7-0.1-3.5,0.2-5.2-0.3c-3.3-1-5.6-3-7-6.1c-0.6-1.2-0.9-2.5-0.9-3.8c0-14.5,0-29,0-43.6
			c0-2.1,0.7-4,1.8-5.7c1.4-2.2,3.4-3.5,5.8-4.3c0.8-0.3,1.7-0.4,2.5-0.5c0.8-0.1,1.7-0.3,2.5,0.3c1.5-0.1,2.7,0.6,3.9,1.3
			c2.6,1.5,4.4,3.7,5,6.7c0.2,0.8,0.3,1.6,0.3,2.5C228.5,440.9,228.5,448.1,228.5,455.3z"/>
		<path class="st1" d="M205.1,400.2c-0.1-2.2,0.4-4.1,1.3-5.9c1.5-3,4-4.9,7-6.2c0.5-0.2,1-0.2,1.5-0.3c1-0.3,2.1-0.4,3.1-0.4
			c2.7,0.2,5.2,0.9,7.4,2.7c1.8,1.4,3.1,3,4,5c0.5,1.2,0.9,2.4,0.9,3.7c0,0.8,0,1.6,0,2.4c0,2.1-0.8,4-1.9,5.7c-1.2,2-3,3.4-4.9,4.5
			c-1,0.5-2.1,1-3.3,1c-0.4,0-0.8,0.2-1.2,0.3c-0.4,0.1-0.9,0-1.3,0c-0.9,0.1-1.8-0.2-2.6-0.3c-0.9-0.1-1.6-0.5-2.4-0.8
			c-3.7-1.6-5.8-4.1-7-7.7C205.1,402.7,204.9,401.4,205.1,400.2z"/>
		<path class="st4" d="M437.5,428c0.1-4.3,3.4-7.4,7.6-7.3c4.2,0,7.3,3.3,7.4,7.5c0,2.1-0.8,3.9-2.3,5.4c-1.4,1.4-3.2,2.1-5.3,2.1
			C440.7,435.5,437.5,432.2,437.5,428z M438.8,428.2c0.2,3.5,2.6,6,6.1,6c3.7,0,6.2-2.5,6.2-6.1c-0.1-3.7-2.6-6.1-6.1-6.1
			C441.4,421.9,438.9,424.6,438.8,428.2z"/>
		<path class="st5" d="M448.2,233.9c0-0.8,0-1.6,0-2.4c-0.1-1.7-0.1-3.5-0.4-5.2c-0.1-0.8-0.1-1.7-0.3-2.5c-0.2-0.8,0-1.8-0.3-2.4
			c-0.4-0.9-0.1-1.8-0.5-2.7c-0.4-0.7-0.2-1.8-0.4-2.6c-0.5-1.8-0.9-3.6-1.4-5.4c-0.7-2.5-1.6-5-2.5-7.4c-0.5-1.4-1-2.7-1.6-4.1
			c-0.7-1.8-1.5-3.5-2.4-5.2c-1-1.7-1.9-3.5-2.9-5.1c-0.9-1.4-1.8-2.7-2.8-4.1c-1.1-1.5-2.3-2.9-3.4-4.4c-1-1.4-2.6-2.4-3.4-4
			c-1.8-1.6-3.2-3.6-5.3-5c-0.2-0.1-0.4-0.4-0.6-0.6c-1.9-1.9-4.1-3.3-6.3-4.9c-1.3-1-2.8-1.7-4.2-2.5c-1.1-0.7-2.5-1.1-3.7-1.7
			c-1-0.5-2.1-0.7-3.1-1c-1.3-0.4-2.6-0.6-3.8-1c-3.6-1-7.3-0.6-11-0.6c-2,0-4.1,0.5-6.1,1c-1.4,0.3-2.7,0.8-4,1.2
			c-2,0.7-4,1.6-5.9,2.7c-1.8,1.1-3.5,2.4-5.1,3.8c-2.6,2.2-4.6,4.9-6.5,7.7c-1.3,2-2.5,4-3.4,6.2c-1.1,2.7-2.2,5.4-2.9,8.3
			c-0.4,1.6-0.9,3.2-1.2,4.9c-0.2,1.5-0.5,3-0.4,4.6c0.2,2.4-0.7,4.8-0.3,7.2c0.4,2.2,0.2,4.4,0.3,6.5c0,0.3,0,0.5-0.1,0.8
			c-1.3-2.6-3-4.9-4.5-7.3c-1.1-1.7-2.6-3.3-3.9-4.9c-2-2.5-4.2-4.9-6.5-7.1c-0.6-0.6-1.3-1.1-1.9-1.6c-0.6-0.5-1.2-1.1-1.9-1.7
			c-1.2-1-2.3-2-3.6-2.8c-1.3-0.9-2.6-1.8-3.9-2.6c-2.3-1.5-4.7-2.8-7.2-3.9c-1.2-0.5-2.4-1.1-3.6-1.5c-1.4-0.5-2.9-1-4.3-1.4
			c-1.4-0.4-2.8-0.6-4.2-1c-1.1-0.3-2.2-0.1-3.2-0.4c-1.1-0.4-2.1-0.1-3.2-0.2c-1.1-0.1-2.3,0.1-3.4,0c-0.9-0.1-1.6,0.3-2.5,0.4
			c-0.8,0-1.5-0.1-2.3,0.3c-0.6,0.3-1.4,0.2-2.1,0.3c-2,0.3-3.8,0.9-5.7,1.5c-3.4,1-6.6,2.5-9.6,4.2c-1.9,1-3.7,2.3-5.5,3.7
			c-1.8,1.5-3.6,2.9-5.2,4.6c-2.2,2.4-4.3,5-6,7.8c-0.9,1.5-1.9,3.1-2.6,4.8c-1.3,2.6-2.3,5.3-3.2,8.1c-0.7,1.9-1.1,3.8-1.5,5.7
			c-0.3,1.4-0.8,2.9-0.7,4.4c-0.6,1-0.1,2.1-0.5,3.1c-0.4,1,0,2-0.2,3c-0.7,3.1-0.2,6.2-0.3,9.3c0,0.8,0.2,1.5,0.3,2.3
			c0.1,0.8-0.2,1.6,0.1,2.3c0.3,0.9,0.2,1.8,0.3,2.6c0,0.5,0.2,1,0.3,1.5c0.1,0.5,0.1,0.9,0.3,1.3c0.2,0.7,0.2,1.5,0.3,2.3
			c0.1,1,0.3,2,0.6,3c0.2,0.9,0.2,1.9,0.8,2.8c0.1,2,0.9,3.8,1.4,5.8c0.4,1.8,1.1,3.4,1.8,5.1c0.9,2.2,1.7,4.4,2.6,6.6
			c0.9,2.1,1.9,4.1,2.8,6.2c0.3,0.7,0.8,1.3,1.2,2c0.1,0.2,0.1,0.4,0.1,0.6c-0.2,0-0.4,0.1-0.5,0c-0.7-0.6-1.6-0.9-2.5-1.1
			c-0.9-0.3-1.7-0.7-2.6-0.9c-1.6-0.4-3.1-1.1-4.7-1.2c-0.7-0.1-1.5-0.3-2.2-0.5c-0.7-0.3-1.5,0.3-2.1-0.4c0,0-0.1,0-0.2,0
			c-1.5,0.1-2.9-0.4-4.4-0.4c-2.3,0.1-4.6,0.1-6.8,0c-1.6-0.1-3.1,0.1-4.6,0.4c-2,0.4-4.1,0.7-6.1,1.4c-1.3,0.4-2.6,0.9-3.8,1.3
			c-1.2,0.5-2.4,1-3.6,1.6c-0.2,0.1-0.5,0.1-0.9,0.2c-0.8-2.2-1.6-4.5-2.4-6.7c-0.9-2.5-1.2-5.1-2.3-7.5c0.2-1.3-0.5-2.5-0.7-3.8
			c-0.2-1.3-0.4-2.7-0.9-4c-0.3-0.7-0.1-1.4-0.3-2.1c-0.3-1.1-0.3-2.4-0.4-3.6c-0.1-0.8-0.2-1.5-0.3-2.3c-0.1-0.7,0.1-1.4-0.3-2.2
			c-0.3-0.6,0-1.4-0.1-2.1c-0.1-3-0.4-6-0.4-9c0-1.1,0.4-2.2,0.4-3.3c0-1.1-0.1-2.3,0-3.4c0.1-0.6,0.3-1.2,0.3-1.8
			c0-0.6-0.1-1.2,0.2-1.9c0.3-0.5-0.1-1.3,0.1-1.9c0.2-0.7,0.1-1.4,0.3-2c0.3-0.7,0-1.5,0.4-1.9c0.5-0.6-0.2-1.4,0.5-1.9
			c0-1.6,0.6-3.1,1-4.6c0.4-1.5,0.8-2.9,1.2-4.4c0.8-2.9,1.8-5.7,2.8-8.5c0.5-1.3,1.1-2.6,1.5-3.9c0.8-2.3,1.9-4.4,2.8-6.6
			c0.6-1.5,1.3-3.1,2.3-4.4c0.4-0.5,0.5-1.1,0.8-1.6c1.1-2,2.3-3.9,3.5-5.9c0.6-1,1.3-2,2-3.1c1-1.4,1.9-2.8,2.9-4.2
			c1-1.4,2-2.7,3.1-4.1c0.6-0.8,1.3-1.5,2-2.3c2.7-3.1,5.6-5.9,8.5-8.8c0.7-0.7,1.4-1.2,2.2-1.8s1.3-1.4,2.1-1.9
			c0.8-0.5,1.5-1.2,2.2-1.8c1.7-1.4,3.4-2.7,5.2-4c1.6-1.1,3.1-2.3,4.8-3.4c1.6-1,3.3-1.9,4.9-3c2.1-1.4,4.4-2.5,6.6-3.8
			c1.6-1,3.4-1.7,5.1-2.6c0.4-0.2,0.8-0.1,1.1,0.3c0.8,1.2,1.6,2.3,2.4,3.6c0.4,0.7,1,1.2,1.5,1.8c1.4,2,3.3,3.7,5,5.4
			c0.3,0.3,0.7,0.6,1.1,0.8c0.5,0.3,1.1-0.1,1.2-0.6c0.1-0.6-0.1-1.1-0.4-1.4c-1.2-1.3-2-2.8-3.1-4.1c-0.6-0.8-1.3-1.5-1.7-2.4
			c-0.9-1.9-2.2-3.5-3.3-5.3c-1.3-2.1-2.5-4.3-3.6-6.5c-0.9-1.9-1.6-3.9-2.3-5.9c-0.7-1.9-1.1-3.9-1.9-5.7c-0.3-0.7-0.3-1.4-0.4-2.1
			c0-0.3-0.3-0.6-0.3-0.8c-0.2-1.2-0.7-2.4-0.7-3.6c0-0.6-0.2-1.2-0.3-1.8c-0.1-0.6,0.1-1.3-0.3-1.8c0,0,0-0.1,0-0.2
			c0-0.9,0-1.8,0-2.8c-0.1-0.9-0.2-1.8-0.3-2.6c-0.2-0.9,0.4-1.7,0.3-2.6c0-0.9-0.2-1.9,0-2.8c0.5-2.3,0.8-4.7,1.6-7
			c0.6-1.9,1.6-3.7,2.7-5.4c1.2-0.8,2.2-2.1,3.9-2.1c0.2,0,0.6,0.2,0.7-0.3c0.4,0,0.9,0,1.3,0c0,0.5,0.4,0.3,0.7,0.3
			c0.1,0,0.2,0,0.3,0c1,0.8,2,1.5,2.3,2.9c0.1,0.7,0.8,1.2,0.6,2c0,0.2-0.2,0.6,0.3,0.7c0,0.2,0,0.4,0,0.7c0,0.3,0,0.6,0,0.9
			c0,0.1,0.2,0.3,0.3,0.4c0,0.4,0,0.9,0,1.3c0,3.9,0,7.8,0,11.7c0,0.6,0,1.2,0,1.8c0,0.5-0.2,1-0.3,1.5c0,0.4,0,0.9,0,1.3
			c0,0.8,0,1.5,0,2.3c-0.1,0.1-0.3,0.3-0.3,0.4c0,0.7,0,1.5,0,2.2c0,1.6,0,3.3,0,4.9c0,0.5,0,1,0,1.6c0,0.1,0.2,0.3,0.3,0.4
			c0,0.4,0,0.9,0,1.3c0.1,0.3-0.3,0.8,0.3,1c0,0.4,0,0.9,0,1.3c0,0.2-0.2,0.6,0.3,0.7c0,1.4,0.7,2.8,1.1,4.1c0.7,2.4,1.7,4.7,3,6.9
			c1.2,2.1,2.5,4.2,4.1,6.1c1.2,1.4,2.3,3,3.7,4.3c0.4,0,0.9,0,1.4,0c0.3-1.5-0.6-2.6-1.2-3.7c-1.4-2.2-2.6-4.5-3.6-7
			c-0.2-0.6-0.7-1.1-0.9-1.8c-0.2-0.7-0.1-0.9,0.7-1.2c1.9-0.8,4-1,5.9-1.9c1.2,0.1,2.2-0.9,3.5-0.7c0.7-0.5,1.5-0.7,2.3-0.8
			c1.3-0.2,2.5-0.9,3.9-0.8c0.2,0,0.6,0.2,0.7-0.3c0.8-0.1,1.5-0.2,2.3-0.3c0.2,0,0.6,0.2,0.7-0.3c0.2,0,0.4,0,0.7,0
			c0.3-0.1,0.8,0.3,1-0.3c0.2,0,0.4,0,0.7,0c0.3-0.1,0.8,0.3,1-0.3c0.3,0,0.7,0,1,0c0.2,0,0.6,0.2,0.7-0.3c0.3,0,0.7,0,1,0
			c0.3-0.1,0.8,0.3,1-0.3c0.3,0,0.7,0,1,0c0.3-0.1,0.8,0.3,1-0.3c0.3,0,0.7,0,1,0c0.3-0.1,0.8,0.3,1-0.3c0.7,0,1.3,0,2,0
			c0.2,0,0.4,0,0.7,0c0.4-0.1,0.9-0.3,1.3-0.3c0.4-0.1,0.9,0,1.3,0c0.4,0,0.9,0,1.3,0c0.8,0.1,1.6-0.5,2.5-0.3c0.8,0.1,1.6,0,2.4,0
			c1.1,0,2.2,0,3.3,0c1.2,0,2.4,0,3.6,0c1.1,0,2.1,0,3.2,0c0.1,0,0.3,0.2,0.4,0.3c0.1,0.5,0.3,1,0.3,1.5c0.1,0.5,0,1,0,1.4
			c0,0.3,0,0.7,0,1c0.1,0.4,0.3,0.8,0.3,1.2c0.1,0.4,0,0.7,0,1.1c0,0.3,0,0.7,0,1c0.5,0.6,0.4,1.5,0.6,2.2c0.3,0.7,0.6,1.4,1.4,1.8
			c0.4-0.5,0.6-0.9,0.6-1.5c0-1.1,0-2.3,0-3.4c0-0.6,0-1.3,0-1.9c0-0.1-0.2-0.3-0.3-0.4c0-2.6,0-5.2,0-7.8c0.1-0.1,0.3-0.3,0.3-0.4
			c0-0.5,0-1,0-1.6c0-0.9,0-1.8,0-2.8c0-0.7,0.2-1.4,0.3-2.1c0.1-0.7,0-1.4,0.3-2.2c0.3-0.8,0.3-1.7,0.3-2.6
			c0.2-2.3,1.1-4.5,1.4-6.8c0.9-1.8,1.2-3.8,2.3-5.6c0.4-0.7,0.5-1.6,1-2.3c0.9-1.4,1.5-3,2.5-4.3c0.5-0.7,0.9-1.6,1.3-2.4
			c1.1-1.9,2.4-3.6,3.7-5.3c0.7-0.9,1.5-1.8,2.3-2.6c1.2-1.2,2.6-2.1,4.1-3c1.2-0.7,2.4-1.3,3.8-1.5c1.6-0.2,3.2-0.4,4.6,0.8
			c0.8,0.7,1.3,1.6,1.5,3c0,0.4,0,0.9,0,1.3c0,0.9-0.3,1.8-0.7,2.6c-0.5,1.2-1,2.4-1.6,3.5c-1,1.7-2.1,3.4-3.2,5
			c-1.6,2.4-3.4,4.8-5.1,7.1c-1.6,2.2-3.1,4.5-4.5,6.9c-1.2,2.1-2.3,4.2-3.3,6.4c-0.7,1.6-1.3,3.3-1.5,5.1c-0.2,1.4-0.7,2.7-0.6,4.1
			c0,0.4-0.2,0.8-0.3,1.2c0,0.5,0,1.1,0,1.6c0,2.3,0,4.6,0,6.8c0,0.7,0,1.3,0,2c0.2,0.9,0.4,1.9,0.7,2.8c0.2,0.7,0.6,1.2,1.5,1.1
			c0.4-0.6,0.5-1.2,0.5-1.9c0-1.8,0-3.7,0-5.5c0.5,0,0.3-0.4,0.3-0.7c0-0.9,0-1.7,0-2.6c0.1-0.1,0.2-0.2,0.3-0.3c0.3,0,0.7,0,1,0
			c0.5,0,0.9,0,1.3,0.3c0.3,0,0.7,0,1,0c0.5,0.1,1.1,0.2,1.6,0.3c0.5,0.1,1-0.1,1.5,0.3c0.5,0.3,1.4-0.3,1.9,0.4
			c1.3,0,2.5,0.4,3.7,0.6c0.2,0,0.4,0,0.6,0c0,0.5,0.4,0.3,0.7,0.3c1.1,0.4,2.4,0.5,3.5,0.9c1.1,0.4,2.3,0.7,3.5,1
			c1.5,0.4,2.9,1,4.3,1.3c1.5,0.4,2.8,1,4.3,1.5c3.7,1.3,7.2,3.1,10.7,4.8c2.6,1.3,5.2,2.7,7.7,4.2c2.1,1.2,4.1,2.5,6.1,3.8
			c1.4,0.9,2.7,1.9,4,2.9c1.4,1,2.8,2,4.1,3.1c0.9,0.7,1.6,1.5,2.5,2.2c1.6,1.3,3.1,2.8,4.6,4.2c1.6,1.6,3.2,3.2,4.6,4.9
			c1.9,2.4,3.9,4.7,5.7,7.2c1.6,2.2,3,4.5,4.6,6.7c1,1.4,1.8,3,2.7,4.6c1.2,2.2,2.4,4.4,3.4,6.7c1,2.2,2,4.5,2.8,6.8
			c1,2.6,1.8,5.2,2.7,7.8c0.5,1.4,0.7,3,1.2,4.4c0.6,1.7,0.7,3.6,1.2,5.3c0.3,0.9,0.2,1.9,0.4,2.8c0.1,0.5,0.3,1,0.3,1.5
			c0,0.5,0.1,0.9,0.3,1.3c0.1,0.2,0,0.6,0,1c0,0.3,0,0.7,0,1c0.5,0.6,0.3,1.3,0.3,2c0,0.4,0,0.9,0,1.3c0.1,0.5,0.3,1.1,0.3,1.6
			c0.1,0.5,0,1.1,0,1.6c0,0.8,0,1.5,0,2.3c-0.1,1.1-0.2,1.2-1.1,1.3c-1.4,0.1-2.7,0.7-4.1,1.1c-1.8,0.5-3.4,1.4-5.1,2.2
			c-0.9,0.4-1.8,1-2.5,1.8C448.9,233.7,448.7,234,448.2,233.9z"/>
		<path class="st6" d="M287.4,102.1c0-3.9,0-7.8,0-11.7c0.1,0.1,0.3,0.2,0.3,0.3c0,3.7,0,7.5,0,11.2
			C287.7,102,287.5,102.1,287.4,102.1z"/>
		<path class="st0" d="M347.6,123c-0.1-0.1-0.3-0.3-0.4-0.3c-1.1,0-2.1,0-3.2,0c0.1-0.1,0.2-0.3,0.2-0.3c1.2,0,2.4,0,3.9,0
			C347.9,122.7,347.8,122.8,347.6,123z"/>
		<path class="st0" d="M340.5,122.6c-1.1,0-2.2,0-3.3,0c0-0.1,0-0.2,0-0.2c1.1-0.3,2.2-0.3,3.3,0
			C340.5,122.5,340.5,122.6,340.5,122.6z"/>
		<path class="st0" d="M286.8,111.6c0-0.7,0-1.5,0-2.2c0-0.1,0.2-0.3,0.3-0.4c0,0.7,0,1.5,0,2.2
			C287.1,111.3,286.9,111.4,286.8,111.6z"/>
		<path class="st0" d="M350.6,126.9c0.1,0.1,0.3,0.3,0.3,0.4c0,0.6,0,1.3,0,1.9c-0.1-0.1-0.3-0.3-0.3-0.4
			C350.6,128.1,350.6,127.5,350.6,126.9z"/>
		<path class="st0" d="M461.9,227.1c0-0.8,0-1.5,0-2.3C462.3,225.5,462.3,226.4,461.9,227.1z"/>
		<path class="st0" d="M350.9,117.1c0,0.5,0,1,0,1.6c0,0.1-0.2,0.3-0.3,0.4c0-0.5,0-1,0-1.6C350.6,117.4,350.8,117.2,350.9,117.1z"
			/>
		<path class="st0" d="M359.4,131.1c0-0.7,0-1.3,0-2C359.8,129.8,359.8,130.5,359.4,131.1z"/>
		<path class="st0" d="M287.1,118.4c-0.1-0.1-0.3-0.3-0.3-0.4c0-0.5,0-1,0-1.6c0.1,0.1,0.3,0.3,0.3,0.4
			C287.1,117.4,287.1,117.9,287.1,118.4z"/>
		<path class="st0" d="M359.4,122.3c0-0.5,0-1.1,0-1.6C359.8,121.2,359.8,121.8,359.4,122.3z"/>
		<path class="st0" d="M287.1,106.7c0-0.4,0-0.9,0-1.3C287.5,105.8,287.5,106.3,287.1,106.7z"/>
		<path class="st0" d="M461.6,221.5c0-0.4,0-0.9,0-1.3C462,220.6,462,221.1,461.6,221.5z"/>
		<path class="st0" d="M380.2,78.7c0-0.4,0-0.9,0-1.3C380.6,77.8,380.6,78.3,380.2,78.7z"/>
		<path class="st0" d="M287.4,89.1c-0.1-0.1-0.3-0.2-0.3-0.4c0-0.3,0-0.6,0-0.9c0.1,0.1,0.3,0.2,0.3,0.4
			C287.5,88.5,287.4,88.8,287.4,89.1z"/>
		<path class="st0" d="M332.3,123c-0.4,0-0.9,0-1.3,0C331.5,122.5,331.9,122.5,332.3,123z"/>
		<path class="st0" d="M348.3,130.1c0-0.3,0-0.7,0-1C348.7,129.5,348.7,129.8,348.3,130.1z"/>
		<path class="st0" d="M461.2,218.3c0-0.3,0-0.7,0-1C461.7,217.6,461.7,217.9,461.2,218.3z"/>
		<path class="st0" d="M287.4,120.7c-0.6-0.2-0.2-0.7-0.3-1C287.7,119.9,287.3,120.4,287.4,120.7z"/>
		<path class="st0" d="M348,126.9c0-0.3,0-0.7,0-1C348.4,126.2,348.4,126.5,348,126.9z"/>
		<path class="st0" d="M316.7,124.9c-0.2,0.6-0.7,0.2-1,0.3C315.9,124.6,316.4,125,316.7,124.9z"/>
		<path class="st0" d="M325.8,123.3c-0.2,0.6-0.7,0.2-1,0.3C325,123,325.5,123.4,325.8,123.3z"/>
		<path class="st0" d="M318.3,124.6c-0.2,0.6-0.7,0.2-1,0.3C317.5,124.3,318,124.7,318.3,124.6z"/>
		<path class="st0" d="M323.9,123.6c-0.2,0.6-0.7,0.2-1,0.3C323.1,123.3,323.6,123.7,323.9,123.6z"/>
		<path class="st0" d="M365.9,124.3c-0.3,0-0.7,0-1,0C365.2,123.8,365.5,123.8,365.9,124.3z"/>
		<path class="st0" d="M363.6,123.9c-0.3,0-0.7,0-1,0C362.9,123.5,363.3,123.5,363.6,123.9z"/>
		<path class="st0" d="M321.9,123.9c-0.2,0.6-0.7,0.2-1,0.3C321.1,123.6,321.6,124.1,321.9,123.9z"/>
		<path class="st0" d="M283.5,81.6c-0.2,0-0.6,0.2-0.7-0.3C283.1,81.4,283.5,81.2,283.5,81.6z"/>
		<path class="st0" d="M281.6,81.3c0,0.5-0.4,0.3-0.7,0.3C280.9,81.2,281.3,81.4,281.6,81.3z"/>
		<path class="st0" d="M320,124.3c0,0.5-0.4,0.3-0.7,0.3C319.4,124.1,319.7,124.3,320,124.3z"/>
		<path class="st0" d="M287.1,87.2c-0.5,0-0.3-0.4-0.3-0.7C287.3,86.6,287,86.9,287.1,87.2z"/>
		<path class="st0" d="M328.4,123.3c-0.2,0-0.4,0-0.7,0c0.1-0.1,0.3-0.2,0.4-0.3C328.3,123.1,328.4,123.2,328.4,123.3z"/>
		<path class="st0" d="M315.1,125.2c0,0.5-0.4,0.3-0.7,0.3C314.5,125.1,314.8,125.3,315.1,125.2z"/>
		<path class="st0" d="M287.7,122.6c-0.5,0-0.3-0.4-0.3-0.7C287.9,122,287.7,122.4,287.7,122.6z"/>
		<path class="st0" d="M312.2,125.9c0,0.5-0.4,0.3-0.7,0.3C311.5,125.7,311.9,125.9,312.2,125.9z"/>
		<path class="st0" d="M376,126.2c-0.2,0-0.6,0.2-0.7-0.3C375.6,125.9,375.9,125.7,376,126.2z"/>
		<path class="st0" d="M362.3,126.9c0,0.2,0.2,0.6-0.3,0.7C362,127.3,361.8,126.9,362.3,126.9z"/>
		<path class="st0" d="M362.6,123.9c-0.1,0.1-0.2,0.2-0.3,0.3C362.4,124.2,362.5,124,362.6,123.9z"/>
		<path class="st7" d="M277.7,278.6c-1.2-2.4-2.5-4.7-3.5-7c-0.9-2-1.8-3.9-2.4-6c-0.5-1.6-1.2-3.2-1.7-4.8c-0.3-1-0.7-1.9-0.9-2.9
			c-0.2-0.9-0.6-1.8-0.8-2.8c-0.2-0.8-0.2-1.6-0.5-2.4c-0.3-0.7-0.3-1.6-0.4-2.4c-0.2-1.4-0.4-2.9-0.7-4.3c-0.2-1-0.1-2-0.3-3
			c-0.6-2.9-0.2-5.9-0.3-8.8c0-0.8,0.2-1.6,0.3-2.5c0.1-0.8-0.1-1.5,0.3-2.3c0.3-0.6,0.2-1.5,0.4-2.3c0.2-1.5,0.7-3,1.1-4.4
			c0.2-0.8,0.4-1.7,0.9-2.4c0.4-0.6,0.5-1.5,0.8-2.3c0.3-0.8,0.8-1.5,1.2-2.3c1-1.9,2.2-3.6,3.4-5.3c1.3-1.8,3-3.4,4.6-4.9
			c1.9-1.7,4-3.3,6.3-4.4c1-0.5,1.9-1.1,3-1.5c1.7-0.7,3.5-1.4,5.4-1.6c1-0.7,2.2-0.2,3.3-0.6c1-0.3,2.3,0,3.4-0.1
			c0.7,0,1.2,0.3,1.8,0.4c0.6,0.1,1.3-0.3,1.8,0.3c2.2,0,4.2,0.9,6.1,1.7c1.7,0.7,3.4,1.5,5,2.4c1.1,0.6,2.1,1.5,3.2,2.1
			c0.7,0.4,1.3,1,2,1.4c2.2,1.6,4,3.6,5.9,5.5c1.9,1.9,3.5,4.1,5,6.4c1.7,2.6,3.1,5.3,4.3,8.1c1.2,2.7,2,5.6,3.1,8.3
			c0,1.6,0.9,3,1,4.6c0.1,0.9,0.4,1.8,0.6,2.7c0.3,0.8,0.3,1.7,0.6,2.5c0.3,0.7,0.1,1.5,0.3,2.3c0.3,1.2,0,2.6,0.4,3.7
			c0.4,1.3,0,2.7,0.5,4c0.3,0.8,0,1.7,0.1,2.6c0.1,1.4,0.3,2.8,0.3,4.3c0.1,1.4,0,2.8,0,4.2c0,1.5,0,2.9,0,4.4c0,2-0.5,4-0.3,6
			c-0.5,0.8-0.3,1.7-0.3,2.8c-0.5,0-0.9,0-1.4,0c-5.3,0-10.5,0-15.8,0c-1.3,0-2.5,0.2-3.8,0.3c-1.2,0.1-2.5,0-3.7,0
			c-1.3,0-2.6-0.2-3.9,0.1c-1.5,0.3-3.1,0.1-4.6,0.3c-1.3,0.2-2.6,0.1-3.8,0.3c-1,0.2-2,0.2-3,0.3c-0.7,0.1-1.3,0.2-2,0.3
			c-0.7,0.1-1.4-0.2-2,0.3c-0.1,0.1-0.2,0-0.3,0c-1.4,0.1-2.8,0.2-4.3,0.3c-0.6,0.1-1.1,0.2-1.7,0.3c-0.5,0.1-1.1-0.2-1.5,0.3
			c-0.1,0.1-0.3,0-0.5,0c-1.3,0.1-2.5,0.1-3.8,0.4c-1.4,0.3-2.9,0.4-4.3,0.7c-0.7,0.2-1.5,0.1-2.1,0.3c-0.7,0.2-1.3,0.3-2,0.3
			c-0.2,0-0.4,0.2-0.6,0.2c-1.2,0.4-2.2-0.1-2.7-1.2c-0.4-0.9-0.2-1.6,0.7-2.1C276.1,279.3,276.9,279,277.7,278.6z M272.2,249.5
			c0.3-0.9,0.5-1.4,0.5-2c0.2-2.2,1-4.1,1.8-6.1c1.3-2.9,3-5.6,5.3-7.9c0.7-0.7,1.5-1.3,2.3-2c1.3-1.1,3.4-2.6,5.6-3.3
			c1.2-0.4,2.4-1,3.6-1.1c1.3-0.1,2.6-0.5,3.9-0.4c1.5,0.1,2.9,0.5,4.3,0.6c1.6,0.2,3.1,0.7,4.5,1.4c2.1,0.9,4.2,2,6,3.5
			c0.7-0.1,0.6,0.5,0.5,0.7c-0.5,0.7-0.5,1.6-1,2.4c-0.9,1.6-1.5,3.3-2.2,5c-1,2.4-2,4.8-3,7.2c-0.5,1.1-0.9,2.3-1.5,3.7
			c5.1-3.2,10-6.3,15-9.4c0.4,0.7,0.8,1.2,1.1,1.8c0.6,1.3,1.3,2.6,1.8,4c0.6,1.4,1,2.9,1.4,4.3c0.2,0.8,0.1,1.7,0.5,2.4
			c0.4,0.8-0.2,1.7,0.5,2.4c0.1,1.4,0.3,2.8,0.3,4.3c0.1,1.2,0,2.5,0,3.7c-0.1,2.3-0.2,4.7-0.3,7c0,0.2,0,0.4-0.1,0.5
			c-0.5,0.5-0.1,1.1-0.3,1.7c4.9,0,9.7,0,14.6,0c0.5-1,0.5-1,0.5-1.9c-0.1-5.3,0.3-10.5-0.3-15.8c-0.2-1.6-0.2-3.3-0.3-4.9
			c0-0.1,0-0.2,0-0.3c-0.5-1.1-0.4-2.3-0.6-3.5c-0.2-1,0-2-0.4-2.9c-0.4-1.2-0.3-2.4-0.9-3.5c-0.1-2.1-0.9-4.1-1.5-6.1
			c-0.5-1.6-1-3.2-1.7-4.8c-0.6-1.4-1-2.8-1.7-4.2c-0.7-1.3-1.1-2.9-2.2-4c-1.4-3-3.6-5.4-5.7-7.9c-1.6-1.9-3.6-3.6-5.6-5.1
			c-2.2-1.7-4.7-3-7.2-4.2c-0.7-0.3-1.4-0.7-2.1-0.8c-1.1-0.1-2.1-0.9-3.3-0.7c-0.5-0.6-1.2-0.2-1.8-0.3c-0.6-0.1-1.1-0.4-1.8-0.3
			c-1.1,0.2-2.3-0.1-3.5,0.3c-0.8,0.3-1.7,0.1-2.6,0.3c-2,0.5-4,1.1-5.9,2c-2.4,1.1-4.4,2.7-6.3,4.4c-1,0.9-1.8,1.9-2.7,2.9
			c-1.6,1.9-2.9,4-4.1,6.1c-1.3,2.3-2.1,4.8-3,7.2c-0.3,0.7,0,1.7-0.4,2.2c-0.5,0.7,0.1,1.5-0.6,2c0.1,0.8-0.3,1.6-0.3,2.3
			c0,1.7-0.3,3.4-0.4,5.1c-0.1,1.1,0.2,2.1,0.3,3.1c0.1,1.3,0.1,2.5,0.3,3.8C271.6,246,272.1,247.6,272.2,249.5z"/>
		<path class="st8" d="M441.1,238.1c-1.1,1.6-2.8,2.1-4.3,2.9c-2.6,1.3-5.2,2.7-7.8,4c-3.3,1.6-6.6,3.2-9.9,4.8
			c-4.7,2.3-9.4,4.5-14,6.9c-2.2,1.2-4.5,2.2-6.7,3.5c-2.3,1.3-4.6,2.5-7,3.6c-1.1,0.5-1.4,0.5-2-0.4c-1.5-2.1-3.1-4.2-4.5-6.4
			c-1.2-2-2.3-4-3.4-6.1c-0.7-1.2-1.3-2.5-1.9-3.8c-0.8-1.9-1.7-3.8-2.4-5.7c-1-2.7-1.8-5.4-2.7-8.1c-0.4-1.4-0.8-2.8-1.2-4.2
			c-0.3-1.1-0.5-2.3-0.9-3.4c-0.2-0.6,0-1.2-0.3-1.8c-0.4-0.7-0.3-1.7-0.4-2.6c-0.1-0.5-0.2-1-0.3-1.5c-0.1-0.4,0.2-1-0.3-1.4
			c-0.1-0.1-0.1-0.3,0-0.5c0.1-1.6-0.6-3.2-0.3-4.9c-0.7-2.5-0.2-5-0.3-7.5c0-0.8,0.2-1.5,0.3-2.3c0.1-0.7,0-1.4,0.3-2.2
			c0.3-0.7,0.2-1.5,0.4-2.3c0.3-1.6,0.8-3.1,1.3-4.7c0.4-1.1,1-2.2,1.5-3.3c0.8-1.7,1.9-3.3,3.1-4.8c0.8-1,1.6-2,2.6-2.8
			c2-1.7,4.1-3.3,6.5-4.2c1.6-0.6,3.3-1.3,5.1-1.6c1-0.2,2-0.2,3-0.3c0.5,0,1.1,0.2,1.5-0.3c0-0.1,0.3-0.1,0.3,0
			c0.5,0.6,1.2,0.3,1.8,0.3c1.7,0,3.3,0.5,5,0.9c2.6,0.5,4.9,1.6,7.2,2.7c1.9,1,3.8,2.3,5.5,3.7c1.6,1.3,2.9,2.7,4.3,4.1
			c1.5,1.4,2.6,3.1,3.8,4.7c3.3,4.2,5.5,8.9,7.8,13.7c0.4,0.9,0.8,1.8,1.2,2.8c0.4,0.9,0.8,1.9,1.1,2.8c0.3,1,0.7,1.9,0.9,2.9
			c0.2,0.8,0.5,1.7,0.7,2.5c0.2,0.8,0.3,1.6,0.6,2.4c0.2,0.6,0.1,1.3,0.3,2c0.3,0.8,0.2,1.8,0.4,2.6c0.4,1.7,0.4,3.4,0.7,5.1
			c0.3,1.8,0.1,3.6,0.3,5.4c0,0.8,0.2,1,1,1c0.3,0,0.5,0,0.8,0c0.8,0,0.8,0,1.1,1C440.8,237.7,441,237.9,441.1,238.1z M403.6,225.5
			c0.4-0.1,0.7,0,1-0.2c3.3-2.2,6.5-4.4,9.8-6.5c0.8-0.5,1.6-1,2.4-1.5c4.5,8,7.5,16.3,7.4,25.5c3.3-1.5,6.5-2.9,9.7-4.4
			c-0.1-1.3,0-2.5-0.3-3.7c-0.3-1.2,0-2.5-0.4-3.8c-0.2-0.6-0.1-1.3-0.3-2c-0.2-0.7,0.2-1.5-0.4-2.1c-0.1-1.7-0.6-3.4-1-5.1
			c-0.5-1.9-0.8-3.8-1.4-5.6c-1.1-3.5-2.5-6.9-4.1-10.2c-1-2.1-2-4.2-3.5-6c-1.7-3.5-4.3-6.2-6.8-9.1c-0.7-0.8-1.6-1.5-2.5-2.2
			c-2.1-1.8-4.4-3.4-6.9-4.6c-2.8-1.3-5.6-2.2-8.7-2.2c-0.9,0-1.8,0.1-2.8,0c-1.6-0.1-3.2,0.3-4.8,0.7c-2.9,0.8-6,2.5-8,4.6
			c-0.7,0.8-1.5,1.5-2.1,2.4c-1.2,1.6-2.1,3.3-2.8,5.2c-0.5,1.6-1.1,3.1-1.4,4.8c-0.3,1.6-0.6,3.2-0.8,4.8c-0.2,1.8-0.1,3.6,0,5.4
			c0.1,1.8-0.3,3.6,0.3,5.4c0.2,0.5,0,1.2,0,1.8c0,0.5,0.3,1,0.3,1.5c0,0.6,0.2,1.1,0.4,1.7c0.3,1.3,0.5,2.7,0.7,4
			c0.9-0.9,0.2-2.1,0.9-3c0.1-1.9,0.9-3.5,1.6-5.2c1.3-2.9,3.1-5.4,5.7-7.2c3-2.1,6.3-3.4,9.8-3.8c2.3-0.3,4.6-0.2,6.9,0.5
			c2.8,0.9,4.2,1.3,6.1,2.7c0.8,0.6,1.6,1.2,2.5,1.9c-0.3,0.6-0.9,1.2-1,1.9c-0.1,1-0.8,1.7-1.1,2.7c-0.2,1-0.7,1.9-1.2,2.8
			c-1.1,2.3-2,4.8-3.2,7.1C403.6,224.8,403.6,225.1,403.6,225.5C403.6,225.5,403.6,225.5,403.6,225.5c0,0-0.1,0-0.2,0
			c0,0,0,0.1,0.1,0.2C403.5,225.7,403.6,225.6,403.6,225.5z"/>
		<path class="st7" d="M427.1,277.3c0-0.6,0-1.2,0-1.9c0.9,0.2,1.9-0.3,2.8,0.4c0,0,0.1,0,0.2,0c1.4-0.1,2.7,0.2,4.1,0.3
			c0.8,0.1,1.6-0.2,2.5-0.3c0.8-0.1,1.7,0.2,2.5-0.3c1.3,0.1,2.5-0.4,3.8-0.6c1.7-0.3,3.2-0.9,4.7-1.5c0.5-0.2,1.1-0.3,1.5-0.6
			c0.4-0.2,0.5-0.2,0.8,0.1c0.3,0.3,0.4,0.7,0.1,1c-0.5,0.6-1,1.2-1.6,1.6c-2.4,1.7-4.8,3.3-7.4,4.5c-0.4,0.2-0.8,0.5-1.1,0.8
			c-1.9,1.7-3.3,3.8-4.9,5.8c-2.2,2.8-4.1,5.9-6.2,8.9c-1.2,1.7-2.1,3.5-3.1,5.2c-3,4.8-5.5,9.9-7.9,14.9c-1,2.1-2,4.3-2.8,6.5
			c-0.8,2.1-1.8,4.1-2.7,6.2c-1.4,3.3-3.3,6.3-5.1,9.3c-0.8,1.2-1.9,2.3-2.7,3.4c-0.7,1-1.5,1.9-2.4,2.7c-1.8,1.5-3.5,3-5.6,4.2
			c-2.2,1.3-4.6,2-7.1,2.6c-1.4,0.3-2.9,0.4-4.3,0.7c-2.1,0.4-4.3,0.3-6.4,0.2c-1.7-0.1-3.5-0.4-5.2-0.8c-1.4-0.3-2.9-0.6-4.3-1.1
			c-1.3-0.5-2.7-0.8-3.9-1.5c-1.2-0.7-2.5-0.9-3.7-1.7c-1.4-0.9-2.9-1.6-4.4-2.5c-1.3-0.8-2.6-1.5-3.9-2.3c-1.7-1-3.4-2.1-5.1-3
			c-2.2-1.3-4.5-2.4-6.8-3.6c-1.9-1-3.9-1.9-5.9-2.7c-3.4-1.4-6.8-2.9-10.3-4.2c-2.5-1-5-2-7.6-3c-3.5-1.3-7-2.5-10.5-3.6
			c-1.7-0.6-3.4-1.1-5.1-1.4c-1.3-0.2-2.7-0.2-4.1,0.2c-1.5,0.5-3,0.9-4.6,1.1c-0.8,0.1-1.7,0.1-2.5,0.3c-0.9,0.2-1.8,0.3-2.6,0.3
			c-0.9,0-1.7,0-2.6,0c-1-0.1-2-0.1-3-0.3c-0.5-0.1-0.8-0.5-1.2-0.8c0.2-0.8,0.8-0.9,1.3-1.1c0.7-0.2,1.5-0.2,2.3-0.4
			c1.9-0.4,3.8-0.7,5.6-1.5c0.9-0.4,1.8-0.7,2.6-1.1c2.2-1.1,4.2-2.4,5.9-4.2c1.4-1.4,2.8-3,4.1-4.5c0.3-0.3,0.6-0.5,1.1-0.5
			c0.4,0,0.8,0.3,0.8,0.6c0,0.6,0.7,1.1,0,1.7c0.1,0.8-0.3,1.5-0.5,2.3c-0.3,1-0.8,1.9-1.5,2.8c0.6,0.8,1.5,0.8,2.3,1.1
			c0.9,0.4,1.8,0.7,2.7,0.9c0.9,0.2,1.8,0.3,2.7,0.7c0.6,0.2,1.3,0.2,2,0.3c1.5,0.4,3.1,0.5,4.6,1c1-0.2,1.8,0.3,2.8,0.3
			c0.6,0,1.1,0.2,1.7,0.3c0.6,0.1,1.2-0.3,1.7,0.3c0,0,0.1,0,0.2,0c1.3-0.2,2.6,0.4,3.9,0.3c0.8,0,1.6,0.2,2.5,0.3
			c0.8,0.1,1.6-0.3,2.3,0.3c0.1,0.1,0.2,0,0.3,0c2.3,0.1,4.7,0.3,7,0.3c2.3,0,4.6,0.5,6.9,0.4c2.3-0.1,4.6-0.1,6.8,0
			c1.2,0,2.3-0.5,3.4-0.4c1.1,0.1,2.3,0.2,3.4,0c1.2-0.3,2.4-0.2,3.6-0.3c0.7-0.1,1.3-0.2,2-0.3c0.7-0.1,1.3,0,2-0.3
			c0.7-0.3,1.6-0.2,2.5-0.3c1-0.1,2-0.3,2.9-0.4c0.9-0.1,1.9-0.4,2.8-0.6c1.4-0.2,2.8-0.5,4.1-0.8c1.3-0.4,2.7-0.4,3.9-1.2
			c2.1-0.2,4.1-1,6-1.7c2.3-0.8,4.6-1.6,6.7-2.6c2.1-1,4.2-1.8,6.3-2.9c1.5-0.8,2.9-1.7,4.4-2.4c2.5-1.4,4.8-3,7.2-4.6
			c0.4-0.3,0.8-0.6,1.2-1c0.4-0.3,0.8-0.5,1.1-0.8c3.3-2.4,6.1-5.3,8.9-8.3c1.2-1.3,2.2-2.7,3.3-4.1c1.4-1.8,2.4-3.7,3.7-5.5
			c0.3-0.4,0.5-0.9,0.7-1.3c0.2-0.5-0.1-1.2-0.6-1.2c-1.3,0-2.3-0.7-3.5-1c-0.6-0.2-1.1-0.6-1.5-1
			C427.8,278.1,427.5,277.7,427.1,277.3z M354.4,336.1c0.4,0.4,0.7,0.9,1.1,1.1c1.9,1.2,3.9,2.4,5.8,3.6c2.5,1.4,5.2,2.6,7.9,3.6
			c1.2,0.5,2.6,0.8,3.9,1.2c1.4,0.3,2.8,0.6,4.2,0.8c1.3,0.3,2.7,0.1,4.1,0c1.3-0.1,2.6,0,3.9-0.2c1.5-0.3,3-0.6,4.5-1.1
			c3.2-1.1,6-2.8,8.5-5c0.9-0.8,1.7-1.7,2.5-2.5c1.3-1.3,2.4-2.9,3.5-4.4c0.8-1.1,1.3-2.4,2.1-3.5c0.3-0.4,0.6-1.1,0.3-1.7
			c-1.6-0.9-3.2-1.5-4.9-2c-1.1-0.3-2.2-0.6-3.3-0.7c-0.9-0.1-1.8,0-2.8,0c-0.9,0-1.7,0.6-2.6,0.3c-0.1,0-0.2,0.1-0.3,0.1
			c-0.9,0.3-1.7,0.5-2.6,0.9c-1.8,0.8-3.6,1.5-5,3.1c1.1,1.1,2.2,2.1,3,3.4c0.4,0.6,0.8,1.2,0.4,2c-1-0.7-2-1.4-3.1-2.1
			c-1.4-0.8-2.8-1.5-4.4-1.5c-0.5-0.6-1.3-0.2-1.9-0.6c-0.5-0.3-1.3,0-1.8-0.2c-0.7-0.2-1.4-0.1-2-0.2c-0.6-0.1-1.3,0.2-1.8-0.3
			c-0.2-0.1-0.6,0-0.9,0c-0.3,0.1-0.6,0.2-0.9,0.2c-1.1,0.1-2.2,0-3.3,0.3c-0.7,0.2-1.4,0.2-2.1,0.4c-0.7,0.2-1.5,0.4-2.2,0.6
			c-2.7,0.6-5.3,1.5-7.7,3C355.9,335.2,355.1,335.6,354.4,336.1z"/>
		<path class="st9" d="M358.8,356.2c0.9-0.6,1.5-0.2,2,0.1c2.3,1.3,4.7,2.2,7.2,3c1.4,0.5,2.9,0.9,4.4,1.2c1.4,0.3,2.8,0.5,4.1,0.7
			c1.5,0.3,3,0.2,4.4,0.2c1.5,0.1,3.1,0.2,4.5,0c1.7-0.3,3.5-0.6,5.2-1.1c2.4-0.7,4.8-1.6,7-2.7c1.8-0.9,3.4-2.1,5-3.2
			c1.3-0.8,2.3-2,3.5-2.9c1-0.8,1.8-2.1,2.6-3.1c0.4-0.5,0.8-1,1.5-1.4c0,0.6,0.2,1,0.1,1.3c-1.1,2.4-2,4.9-3.7,6.9
			c-1.9,2.2-4,4.4-6.6,5.9c-2.3,1.4-4.7,2.6-7.2,3.4c-1.2,0.4-2.5,0.6-3.7,0.9c-0.9,0.2-1.9,0-2.8,0.4c-0.9,0.4-1.9,0.1-2.8,0.2
			c-1,0.1-2-0.1-2.9,0c-2.1,0.2-4.1-0.4-6.1-0.7c-1.3-0.2-2.6-0.5-3.8-1c-1.7-0.7-3.3-1.5-4.9-2.3c-1.7-0.9-3.3-1.9-4.6-3.3
			C360.5,357.8,359.7,357,358.8,356.2z"/>
		<path class="st10" d="M357.8,289.6c0.9,0.4,1.6,0.6,2.2,1c1.9,1.2,3.6,1.9,5.8,2.5c1.2,0.3,2.3,0.4,3.5,0.7
			c1.4,0.3,2.8,0.2,4.3,0.2c2.7,0.1,5.2-0.6,7.7-1.5c2.3-0.8,4.3-1.9,5.7-3.8c1.6-2.2,2.5-4.6,1.1-7.3c-0.3-0.5-0.5-1-0.7-1.5
			c0.2-0.1,0.4-0.2,0.4-0.2c1.3,1.2,2.7,2.2,3.4,3.9c0.4,1.2,1,2.4,0.8,3.7c-0.1,1.1,0.1,2.2-0.3,3.3c-0.4,0.8-0.7,1.6-1.3,2.3
			c-0.8,1-1.3,2.3-2.6,2.9c-1.5,1.8-3.7,2.2-5.7,3.1c-0.7,0.3-1.6,0.2-2.4,0.4c-2.2,0.6-4.4,0.2-6.5,0.3c-1.5,0.1-3-0.4-4.4-0.7
			c-1.7-0.3-3.3-1.1-4.9-1.9c-0.9-0.5-1.7-1.2-2.5-1.8c-1.3-0.8-1.9-2.1-2.8-3.2C357.9,291.4,357.7,290.7,357.8,289.6z"/>
		<path class="st11" d="M447.2,428.3c0.2,0.2,0.6,0.4,0.6,0.6c-0.1,1,0.4,1.9,0.4,3c-0.3,0-0.7,0.1-0.9,0.1
			c-0.4-0.1-0.8-0.3-0.7-0.8c0-0.5,0-1.1,0-1.6c-0.3-0.3-0.5-0.6-0.8-0.8c-0.8,0-1.5,0-2.4,0c-0.2,1,0,2.1-0.1,3.2
			c-0.4,0-0.7,0-1.2,0c0-2.5,0-5.1,0-7.8c1.2,0,2.4-0.1,3.6,0c0.5,0.1,1.2,0.1,1.7,0.6C448.6,426.1,448.5,426.9,447.2,428.3z
			 M446.6,427.3c0-0.2,0-0.4,0-0.6c0-0.1,0-0.2,0-0.3c-0.1-0.7-0.3-0.9-1-0.9c-0.7,0-1.5,0-2.3,0c0,0.6,0,1,0,1.5
			c0,0.5,0.3,0.8,0.8,0.8C445,427.7,445.8,427.9,446.6,427.3z"/>
		<path class="st12" d="M354.4,336.1c0.8-0.5,1.5-1,2.2-1.4c2.4-1.4,5-2.3,7.7-3c0.7-0.2,1.5-0.4,2.2-0.6c0.7-0.2,1.5-0.2,2.1-0.4
			c1.1-0.3,2.2-0.2,3.3-0.3c0.3,0,0.6-0.2,0.9-0.2c0.3-0.1,0.7-0.2,0.9,0c0.6,0.5,1.2,0.2,1.8,0.3c0.7,0.1,1.4-0.1,2,0.2
			c0.6,0.2,1.4-0.1,1.8,0.2c0.6,0.4,1.4,0,1.9,0.6c1.6,0.1,3,0.7,4.4,1.5c1.1,0.6,2,1.4,3.1,2.1c0.5-0.8,0-1.4-0.4-2
			c-0.8-1.3-1.9-2.2-3-3.4c1.3-1.6,3.2-2.3,5-3.1c0.8-0.4,1.7-0.6,2.6-0.9c0.1,0,0.2-0.1,0.3-0.1c0.9,0.2,1.7-0.4,2.6-0.3
			c0.9,0,1.9-0.1,2.8,0c1.1,0.1,2.2,0.4,3.3,0.7c1.7,0.5,3.3,1.1,4.9,2c0.3,0.6,0,1.2-0.3,1.7c-0.8,1.1-1.3,2.4-2.1,3.5
			c-1.1,1.5-2.1,3.1-3.5,4.4c-0.9,0.8-1.6,1.7-2.5,2.5c-2.5,2.2-5.3,3.9-8.5,5c-1.5,0.5-2.9,0.8-4.5,1.1c-1.3,0.2-2.6,0.2-3.9,0.2
			c-1.4,0.1-2.7,0.2-4.1,0c-1.4-0.3-2.8-0.5-4.2-0.8c-1.3-0.3-2.7-0.7-3.9-1.2c-2.7-1-5.4-2.2-7.9-3.6c-2-1.1-3.9-2.3-5.8-3.6
			C355.1,337,354.8,336.5,354.4,336.1z"/>
		<path class="st13" d="M446.6,427.3c-0.8,0.6-1.6,0.5-2.5,0.5c-0.5,0-0.8-0.3-0.8-0.8c0-0.5,0-0.9,0-1.5c0.8,0,1.5,0,2.3,0
			c0.7,0,0.9,0.2,1,0.9c0,0.1,0,0.2,0,0.3C446.6,426.9,446.6,427.1,446.6,427.3z"/>
	</g>
</g>
</svg>
