<?xml version="1.0" encoding="utf-8"?>
<!-- Generator: Adobe Illustrator 26.0.1, SVG Export Plug-In . SVG Version: 6.00 Build 0)  -->
<svg version="1.1" id="Layer_1" xmlns="http://www.w3.org/2000/svg" xmlns:xlink="http://www.w3.org/1999/xlink" x="0px" y="0px"
	 viewBox="0 0 500 97.9" style="enable-background:new 0 0 500 97.9;" xml:space="preserve">
<style type="text/css">
	.st0{fill:#E53717;}
	.st1{fill:#A5AAB4;}
</style>
<g>
	<g>
		<path class="st0" d="M148.3,74.4h-13V23.5h13v23.7l24.1-23.7h15.9l-22.4,22.2l22.5,28.6h-15.8l-15.5-19.7l-8.8,8.9L148.3,74.4
			L148.3,74.4z"/>
		<path class="st0" d="M235,23.5c7,0,12.7,5.7,12.7,12.7v38.1h-13V62.2h-24.9v12.2h-12.9V36.2c0-7,5.7-12.7,12.6-12.7H235z
			 M214.2,34.4c-2.4,0-4.4,1.9-4.4,4.4v12.6h24.9V38.8c0-2.4-1.9-4.4-4.3-4.4L214.2,34.4L214.2,34.4z"/>
		<path class="st0" d="M311.7,63.9v10.5h-38.1c-7,0-12.7-5.7-12.7-12.7V23.5h50.8V34h-37.9v9.6h32.3l-3,10.6h-29.3v5.2
			c0,2.4,1.9,4.4,4.4,4.4L311.7,63.9L311.7,63.9z"/>
		<path class="st0" d="M374,23.5V34h-33.6c-2.4,0-4.3,1.9-4.3,4.4v6.3h32.5l-3,10.6h-29.5v19.1h-13v-38c0-7.1,5.8-12.8,12.7-12.8
			L374,23.5z"/>
		<path class="st0" d="M436.2,63.9v10.5h-38.1c-7,0-12.7-5.7-12.7-12.7V23.5h50.8V34h-37.9v9.6h32.3l-3,10.6h-29.3v5.2
			c0,2.4,1.9,4.4,4.4,4.4L436.2,63.9L436.2,63.9z"/>
		<path class="st0" d="M500,74.4h-15.2l-8.5-11.9h-15v11.9h-13V23.5h38.1c7.1,0,12.8,5.8,12.8,12.7v14c0,7-5.2,10.5-8.1,11.5
			L500,74.4z M486.2,47.2v-8.8c0-2.6-1.8-4.4-4.3-4.4h-20.6v17.5h20.6C484.4,51.6,486.2,49.8,486.2,47.2z"/>
	</g>
	<g>
		<path class="st1" d="M16.1,0C7.2,0,0,7.2,0,16.1v65.7c0,8.9,7.2,16.1,16.1,16.1h64c8.8,0,16-7.2,16-16.1V16.1C96,7.2,88.9,0,80,0
			H16.1z M6.4,39V16.1c0-5.3,4.3-9.6,9.6-9.6h64c5.3,0,9.6,4.3,9.6,9.6V39h-4.1C81,22.4,65.9,10.2,48.1,10.2S15.1,22.4,10.6,39H6.4z
			 M71.2,39c-4-9-12.8-15.3-23.1-15.3S28.9,30,24.9,39h-7.9c4.5-13.1,16.7-22.6,31-22.6S74.6,25.8,79,39H71.2z M48.1,30
			c6.6,0,12.6,3.5,16.2,9H31.9C35.4,33.5,41.4,30,48.1,30L48.1,30z M6.4,53v-8.1h83.2V53H6.4z M89.6,59v22.8c0,5.4-4.3,9.6-9.6,9.6
			h-64c-5.4,0-9.6-4.3-9.6-9.6V59h4.1c4.5,16.5,19.6,28.7,37.5,28.7S81,75.5,85.5,59H89.6z M79,59C74.6,72,62.4,81.5,48.1,81.5
			c-14.3,0-26.5-9.5-31-22.5h7.9c4,8.9,12.8,15.2,23.1,15.2S67.2,67.9,71.2,59C71.2,59,79,59,79,59z M64.3,59
			c-3.5,5.4-9.6,8.9-16.2,8.9c-6.6,0-12.7-3.5-16.2-8.9H64.3z"/>
	</g>
</g>
</svg>
