<?xml version="1.0" encoding="utf-8"?>
<!-- Generator: Adobe Illustrator 26.0.1, SVG Export Plug-In . SVG Version: 6.00 Build 0)  -->
<svg version="1.1" id="Layer_1" xmlns="http://www.w3.org/2000/svg" xmlns:xlink="http://www.w3.org/1999/xlink" x="0px" y="0px"
	 viewBox="0 0 500 126.1" style="enable-background:new 0 0 500 126.1;" xml:space="preserve">
<style type="text/css">
	.st0{fill-rule:evenodd;clip-rule:evenodd;fill:#0C419A;}
	.st1{fill:#FFFFFF;}
	.st2{fill:#CCCCCC;}
	.st3{fill-rule:evenodd;clip-rule:evenodd;fill:#FFFFFF;}
</style>
<g>
	<polygon class="st0" points="52.3,26.2 500,26.2 500,126.1 26.3,126.1 26.3,52.6 52.3,52.6 52.3,26.2 	"/>
	<path class="st1" d="M328,52.3h19.5c1.9,0,3.7,0.1,5.3,0.2c1.6,0.1,2.9,0.3,4,0.6c1.1,0.3,2.1,0.6,3,1.1c0.9,0.4,1.7,1,2.5,1.8
		c1.4,1.3,2.4,2.9,3,4.8c0.6,1.9,0.9,4.8,0.9,8.4v4.6h-12.6v-2.6c0-3.4-0.6-5.7-1.8-6.9c-1.2-1.2-3.4-1.8-6.8-1.8h-3.8v37.6H328
		V52.3L328,52.3z"/>
	<path class="st1" d="M302.6,81.2h-15.2h-2.2c-1.5,0-2.7,0.4-3.6,1.2c-0.9,0.8-1.3,1.8-1.3,3.2c0,1.5,0.5,2.6,1.6,3.3
		c1.1,0.7,2.9,1,5.5,1h15.2V81.2L302.6,81.2z M302.6,71c0-3.4-0.7-5.6-2.1-6.8c-1.4-1.2-4-1.8-7.9-1.8h-22.2V52.3h22.2
		c1.9,0,3.6,0,5,0c1.4,0,2.4,0.1,3.2,0.2c0.8,0,1.5,0.1,2.2,0.2c0.7,0.1,1.5,0.4,2.4,0.7c3.5,1.3,6.2,3.6,7.8,6.9
		c1.7,3.3,2.5,7.5,2.5,12.8v26.9H288c-4.9,0-8.3-0.1-10.2-0.4c-1.9-0.3-3.6-0.9-5.1-1.9c-3.9-2.6-5.8-6.5-5.8-11.8
		c0-3.2,0.8-6,2.3-8.5c1.5-2.5,3.6-4.2,6.2-5.2c2.3-0.8,6-1.2,11.2-1.2H302.6L302.6,71z"/>
	<polygon class="st1" points="250.6,39 236.5,39 236.5,49.2 250.6,49.2 250.6,39 	"/>
	<path class="st1" d="M258.9,52.3v10.2h-15.8c-5.3,0-8.9,1.2-11,3.5c-1.9,2.2-2.9,5.6-2.9,10.2c0,5.1,1.6,8.8,4.8,11.2
		c1.2,0.9,2.7,1.6,4.3,1.9c1.6,0.4,3.7,0.6,6.4,0.6h14.2v10.2h-18c-4.8,0-8.5-0.5-11.4-1.4c-2.8-0.9-5.3-2.7-7.6-5.2
		c-4.1-4.6-6.1-10.4-6.1-17.4c0-8.5,2.5-14.8,7.4-19.1c1.9-1.7,4.3-2.9,7.1-3.6c2.8-0.7,6.3-1.1,10.7-1.1H258.9L258.9,52.3z"/>
	<path class="st1" d="M162.2,52.3h25.4c3.8,0,6.7,0.3,8.7,0.8c2,0.5,3.8,1.6,5.4,3c3.4,3,5,7.9,5,14.5v29.4h-13.1V69.1
		c0-2.3-0.5-4-1.6-5.1c-1-1.1-2.8-1.6-5.2-1.6h-11.5v37.6h-13.1V52.3L162.2,52.3z"/>
	<path class="st1" d="M127.1,61.9c-7.7,0-11.5,4.8-11.5,14.3c0,3.9,0.6,6.8,1.9,8.9c2.1,3.4,5.3,5.1,9.8,5.1
		c7.6,0,11.4-4.7,11.4-14.2C138.6,66.6,134.8,61.9,127.1,61.9L127.1,61.9z M127,52.1c8.6,0,14.9,2.5,19,7.5
		c3.8,4.6,5.7,10.3,5.7,17.1c0,7.3-2.4,13.1-7.1,17.4c-4.3,4-10.3,6-17.8,6c-7.7,0-13.8-2.2-18.3-6.7c-4-4.1-6.1-10-6.1-17.6
		c0-3.3,0.5-6.2,1.4-9c1-2.7,2.4-5.1,4.4-7.3c2.2-2.4,4.8-4.3,7.9-5.5C119.3,52.8,122.9,52.1,127,52.1L127,52.1z"/>
	<path class="st1" d="M65.5,52.1v19l17.6-18.9h14.7L79.2,71.2h3.6c4.5,0,7.6,1.4,9.4,4.1c1.8,2.7,2.7,7.5,2.7,14.2v10.6H81.8V88.8
		c0-3-0.5-5-1.5-6c-1-1-2.9-1.5-5.8-1.5h-9v18.7H52.4V52.1H65.5L65.5,52.1z"/>
	<path class="st2" d="M420.5,81.3V71.1h-27.7c0-1.6,0.3-2.9,0.8-4c0.5-1.1,1.3-2,2.2-2.8c1.8-1.3,4.7-2,8.6-2h16.1V52.1H403
		c-3.7,0-6.8,0.3-9.2,1c-2.4,0.7-4.7,1.8-6.9,3.5c-5.8,4.5-8.7,11.2-8.7,20.1c0,5.8,1.5,10.9,4.6,15.2c2.1,2.9,4.6,5,7.6,6.3
		c3,1.3,6.8,1.9,11.6,1.9h18.5V89.8H403c-3.6,0-6.1-0.6-7.5-1.8c-1.5-1.2-2.4-3.5-2.7-6.7H420.5L420.5,81.3z"/>
	<path class="st3" d="M486.5,36.2H485v3h1.5c0.8,0,1.4-0.1,1.8-0.3c0.3-0.2,0.5-0.6,0.5-1.1c0-0.5-0.2-0.9-0.5-1.2
		C487.9,36.3,487.3,36.2,486.5,36.2L486.5,36.2z M486.7,35.4c1.1,0,1.9,0.2,2.5,0.6c0.5,0.4,0.8,1,0.8,1.7c0,0.6-0.2,1.1-0.5,1.5
		c-0.3,0.4-0.8,0.6-1.4,0.7l1.8,3.8h-1.4l-1.7-3.7H485v3.7h-1.2v-8.3H486.7L486.7,35.4z M492.6,39.7c0-0.9-0.2-1.7-0.5-2.5
		c-0.3-0.8-0.7-1.5-1.3-2.1c-0.6-0.6-1.3-1.1-2-1.4c-0.7-0.3-1.5-0.5-2.4-0.5c-0.8,0-1.6,0.2-2.3,0.5c-0.7,0.3-1.4,0.8-2,1.4
		c-0.6,0.6-1.1,1.3-1.4,2.1c-0.3,0.8-0.5,1.6-0.5,2.5c0,0.9,0.2,1.7,0.5,2.4c0.3,0.8,0.8,1.5,1.3,2.1c0.6,0.6,1.3,1.1,2,1.4
		c0.7,0.3,1.5,0.5,2.3,0.5c0.8,0,1.6-0.2,2.4-0.5c0.8-0.3,1.4-0.8,2-1.4c0.6-0.6,1-1.3,1.3-2C492.5,41.4,492.6,40.6,492.6,39.7
		L492.6,39.7z M486.5,32.4c1,0,1.8,0.2,2.7,0.5c0.8,0.4,1.6,0.9,2.2,1.6c0.6,0.7,1.1,1.4,1.5,2.3c0.3,0.9,0.5,1.8,0.5,2.8
		c0,1-0.2,1.9-0.5,2.8c-0.3,0.9-0.8,1.6-1.5,2.3c-0.7,0.7-1.4,1.2-2.3,1.6c-0.8,0.4-1.7,0.6-2.6,0.6c-0.9,0-1.8-0.2-2.6-0.6
		c-0.8-0.4-1.6-0.9-2.2-1.6c-0.7-0.7-1.2-1.5-1.5-2.3c-0.3-0.9-0.5-1.8-0.5-2.8c0-0.9,0.2-1.9,0.5-2.8c0.4-0.9,0.9-1.7,1.5-2.4
		c0.6-0.7,1.4-1.2,2.2-1.6C484.7,32.6,485.6,32.4,486.5,32.4L486.5,32.4z"/>
	<polygon class="st0" points="26.2,26.2 0,26.2 0,0 26.2,0 26.2,26.2 	"/>
	<path class="st2" d="M431.8,100.1h25.3c3.8,0,6.7-0.3,8.7-0.8c2-0.5,3.8-1.6,5.4-3.1c3.3-3,5-7.9,5-14.6V52.1h-13.1v31
		c0,2.3-0.5,4-1.6,5.1c-1.1,1.1-2.8,1.6-5.2,1.6H445V52.1h-13.1V100.1L431.8,100.1z"/>
</g>
</svg>
