<?xml version="1.0" encoding="utf-8"?>
<!-- Generator: Adobe Illustrator 26.0.1, SVG Export Plug-In . SVG Version: 6.00 Build 0)  -->
<svg version="1.1" id="Layer_1" xmlns="http://www.w3.org/2000/svg" xmlns:xlink="http://www.w3.org/1999/xlink" x="0px" y="0px"
	 viewBox="0 0 500 298.8" style="enable-background:new 0 0 500 298.8;" xml:space="preserve">
<style type="text/css">
	.st0{fill:#AA7607;}
	.st1{fill:#100337;}
	.st2{fill:#FFFFFF;}
</style>
<g>
	<polygon class="st0" points="178.9,230.1 248,160.6 178.7,90.7 132.9,136.4 148.2,152.4 178.3,122.7 216.3,161 178.3,199 
		148.2,168.5 132.9,183.7 178.9,230 	"/>
	<path class="st0" d="M31.3,160.6l38-38.3l38.4,38.3l-38.4,38L31.3,160.6z M69.2,91L0,160.6l69.2,69.2l69.6-69.2L69.2,91z"/>
	<path class="st0" d="M250.2,267.5l-24.3-25.4h-32.4l56.7,56.6h0.2l124.6-124.4l55.5,55.5l69.6-69.2L430.4,91l-55.5,55.8L319.1,91
		l-69.2,69.6l52.5,52.5l-52.1,54.3H250.2z M430.4,122.3l38.3,38.3l-38.3,38l-38-38L430.4,122.3z M319.1,198.6l-38-38l38-38.3
		l38.3,38.3L319.1,198.6z"/>
	<polygon class="st1" points="421.1,235.1 399.1,210.9 101.3,210.9 78.9,235.1 	"/>
	<g>
		<polygon class="st2" points="144.8,229.8 135.7,229.8 135.7,221.3 135.6,221.3 130.3,229.8 122.6,229.8 117.3,221.3 117.2,221.3 
			117.2,229.8 108.1,229.8 108.1,217.9 122.3,217.9 126.4,224.8 126.5,224.8 130.7,217.9 144.8,217.9 		"/>
		<polygon class="st2" points="202,229.8 198.5,223.2 198.5,223.2 195,229.8 185.1,229.8 177.7,217.9 187.4,217.9 190.7,225.2 
			190.8,225.2 194.5,217.9 202.5,217.9 206.2,225.2 206.3,225.2 209.6,217.9 219.3,217.9 211.9,229.8 		"/>
		<path class="st2" d="M240.1,229.8l-1.1-1.4h-10.5l-1.1,1.4h-10.7l10.8-11.9H240l10.8,11.9H240.1z M233.8,221.5l-3,4h6.1
			L233.8,221.5L233.8,221.5z"/>
		<polygon class="st2" points="356.6,217.9 366.6,217.9 366.6,222 377.9,222 377.9,217.9 388,217.9 388,229.8 377.9,229.8 
			377.9,225 366.6,225 366.6,229.8 356.6,229.8 		"/>
		<path class="st2" d="M338.3,221.5L338.3,221.5l-3.1,4h6.1L338.3,221.5z M344.4,217.9l10.8,11.9h-10.7l-1.1-1.4H333l-1.1,1.4h-10.7
			l10.8-11.9H344.4z"/>
		<path class="st2" d="M163.1,221.5l-3,4h6.1L163.1,221.5L163.1,221.5z M169.5,229.8l-1.1-1.4h-10.5l-1.1,1.4h-10.7l10.8-11.9h12.3
			l10.8,11.9H169.5z"/>
		<path class="st2" d="M271.9,229.8h-19.8v-11.9h19.6c8.6,0,13.2,1.6,13.2,6C284.9,228,280.4,229.8,271.9,229.8 M268,220.9h-5.8v5.9
			h5.8c4.6,0,6.5-1.1,6.5-3C274.4,222,272.6,220.9,268,220.9"/>
		<path class="st2" d="M304.4,220.9h-5.8v5.9h5.8c4.6,0,6.4-1.1,6.4-3C310.8,221.9,309,220.9,304.4,220.9 M308.3,229.8h-19.8v-11.9
			h19.6c8.6,0,13.2,1.6,13.2,6C321.3,228,316.8,229.8,308.3,229.8"/>
	</g>
	<path class="st1" d="M250.5,19.8c7.6,0,85.8-5.9,172.6,59.8C339.2-4.2,250,0,250,0S160.8-4.2,76.9,79.7
		C163.7,14.1,242.9,19.8,250.5,19.8"/>
</g>
</svg>
