<?xml version="1.0" encoding="utf-8"?>
<!-- Generator: Adobe Illustrator 26.0.1, SVG Export Plug-In . SVG Version: 6.00 Build 0)  -->
<svg version="1.1" id="Layer_1" xmlns="http://www.w3.org/2000/svg" xmlns:xlink="http://www.w3.org/1999/xlink" x="0px" y="0px"
	 viewBox="0 0 486.6 500" style="enable-background:new 0 0 486.6 500;" xml:space="preserve">
<style type="text/css">
	.st0{fill:#00445D;}
	.st1{fill:#070606;}
</style>
<path class="st0" d="M315.2,0H176.4c-0.6,0-13.8,0.1-27,6.7c-12.8,6.4-28.1,20-28.1,48.4v138.8c0,0.6,0.1,13.8,6.7,27
	c6.4,12.8,20,28.1,48.4,28.1h138.8c0.6,0,13.8-0.1,27-6.7c12.8-6.4,28.1-20,28.1-48.4V55.1C370.2,54.5,369.6,0,315.2,0z
	 M345.2,191.2c0,13.4-5.2,22.9-15.4,28.1c-8.2,4.2-16.8,4.4-17.2,4.5h-81.7v-41.1l0.1,0c2.7,0.2,5.4,0.3,7.9,0.3
	c52.8,0,85.6-28.7,85.6-75c0-20.5-6.1-33.3-21.6-45.8c-14.1-11.3-34.6-17-61-17c-30.1,0-57.5,1.1-60.5,1.2l0,0l-2.9,0.1v177.3
	l-0.1,0c-13.1-0.2-22.3-5.3-27.5-15.4c-4.2-8.2-4.5-17.1-4.5-17.2V57.6c0-13.4,5.2-22.9,15.4-28.1c8.3-4.3,17.1-4.5,17.2-4.5h133.6
	c13.4,0,22.9,5.2,28.1,15.4c4.2,8.2,4.5,17.1,4.5,17.2V191.2z M230.9,137.4V89.3l0.1,0c2.3-0.1,5.6-0.2,8.8-0.2
	c23.1,0,30.5,5.6,30.5,23c0,17.6-9.5,26.1-29,26.1C237.1,138.2,233.4,137.8,230.9,137.4L230.9,137.4z"/>
<g>
	<path class="st1" d="M51.9,381.1h256.5v-29.6c0-8.6-2.2-15.4-6.7-20.2c-4.9-5.4-12.4-8.1-22.3-8.1c-10.2,0-18.7,3.1-24.6,8.8
		c-5.2,5.1-8.1,12.2-8.1,19.9c0,5.7,1.1,9.6,3.5,12.5l0.5,0.6l-0.6-0.4c-0.2-0.2-2.4-1.1-6.2-1.1h-36.4c-3.8,0-7.3,0.7-7.3,0.7
		l-0.3,0.1l0.2-0.2c2.5-3.1,3.4-9,3.4-13.2c0-8.8-2.5-15.7-7.4-20.4c-5-4.8-12.4-7.3-22-7.3c-19.1,0-32.5,12.6-32.5,30.6
		c0,1.4,0.2,6.3,2.1,10.4l0.1,0.2l-0.2-0.1c0,0-2.5-0.7-5.7-0.7H96.3v-66.8H73.8v66.8H54c-9.6,0-16.1-1.6-20.3-4.9
		c-4.2-3.3-6.1-8.5-6.1-16.2c0-6.4,1.3-13.6,3.4-18.4L7,327.8c-1.3,5.1-2.1,11.7-2.1,16.9C4.9,369.2,20.2,381.1,51.9,381.1z
		 M271.1,344c1.7-2.2,4-3.3,6.9-3.3c5.4,0,8.5,4.7,8.5,12.9v9.9h-5.3c-8.3,0-12.5-4-12.5-11.9C268.8,348.7,269.6,346,271.1,344z
		 M166.7,343.2c1.5-1.6,3.7-2.6,6-2.6c5.9,0,8.3,3.3,8.3,11.5c0,7.1-3.3,11.4-8.7,11.4c-5.9,0-8.3-3.4-8.3-12
		C164,348,164.9,345.1,166.7,343.2z"/>
	<path class="st1" d="M36.3,321.3v9.1h31.9v-9.1h-7.3c-5.7,0-8.6-0.7-8.6-4.3c0-1.8,1.6-3.9,6.1-3.9c2.7,0,5.1,0.4,6.3,0.7l1.8-8.8
		c-1.3-0.2-4.1-0.7-6.9-0.7c-13.5,0-19.5,6.2-19.5,12.4c0,1.7,0.4,3,1.3,3.7l2.7,2.4l-3.5-0.9C39.5,321.4,37.7,321.3,36.3,321.3z"/>
	<path class="st1" d="M288.4,300c-5.2,0-9.2,3.9-9.2,8.9s4,8.9,9.2,8.9c5.2,0,9.2-3.9,9.2-8.9S293.6,300,288.4,300z"/>
	<ellipse class="st1" cx="266.6" cy="308.9" rx="9.2" ry="8.9"/>
	<path class="st1" d="M366.3,403c6.7-5.1,10.3-12.4,11-21.8l0-0.1h107.1v-29.6c0-8.6-2.2-15.4-6.7-20.2c-4.9-5.4-12.4-8.1-22.3-8.1
		c-10.2,0-18.7,3.1-24.6,8.8c-5.2,5.1-8.1,12.2-8.1,19.9c0,5.7,1.1,9.6,3.4,12.5l0.5,0.6l-0.6-0.4c-0.2-0.2-2.4-1.1-6.2-1.1h-42.3
		v-36.2c-1-0.4-11.7-4.2-26.5-4.2c-11.3,0-20,3.2-25.9,9.4c-5.1,5.3-7.8,12.7-7.8,21.2c0,8.7,2.5,15.4,7.5,19.9
		c5.4,4.9,13.9,7.4,25.2,7.4h5.6v0.2c0,3.9-1.5,6.9-4.4,9c-3,2.1-7.4,3.2-13.2,3.2c-9.1,0-16.9-1.3-18-1.5l-1.2,17.9
		c1,0.1,9.4,1.2,17.4,1.2C349.1,411,359.3,408.3,366.3,403z M447.1,344c1.7-2.2,4-3.3,6.9-3.3c5.4,0,8.5,4.7,8.5,12.9v9.9h-5.3
		c-8.3,0-12.5-4-12.5-11.9C444.7,348.7,445.6,346,447.1,344z M351.9,363.5c-4.1,0-7.3-1.1-9.4-3.3c-2-2-3.1-4.9-3.1-8.6
		c0-3,0.8-5.7,2.3-7.7c1.7-2.2,4-3.3,6.9-3.3c4.1,0,6.7,1.4,6.8,1.5l0.1,0v21.4H351.9z"/>
	<g>
		<path class="st1" d="M48.8,431.8l-6.5,21.5c-0.8,2.5-2,7.1-3,11.8c-0.8-4.1-1.9-8.7-2.8-11.5l-6.5-21.8H10.2L0,493.5h17.8
			l2.6-19.9c0.5-3.6,0.9-8,1.4-12.7c1,5.5,2.4,11.3,3.6,15.4l5.1,17.2h15.9l5.2-18.8c1.1-3.9,2.2-8.8,3.3-14.4
			c0.5,4.2,1,8.6,1.5,11.9l3.4,21.3h18.5l-10.1-61.7H48.8z"/>
		<path class="st1" d="M102.3,431.8l-19.7,61.7h17.7l3-9.9h18l3.1,9.9h19.4l-20.7-61.7H102.3z M117,469.4h-9.5l3-10.3
			c0.7-2.3,1.2-4.5,1.6-6.5c0.5,2.1,1.1,4.3,1.7,6.4L117,469.4z"/>
		<path class="st1" d="M203.8,455.5c-0.7,3.2-1.3,6.7-1.9,10.5c-0.6-4.2-1.5-7.7-2-9.7l-6.2-24.6h-17.7l-6.5,25.5
			c-0.7,3-1.3,5.8-1.7,8.6c-0.4-3.3-0.9-6.4-1.5-8.9l-5.7-25.2H142l14.8,61.7h19.8l5.4-23.8c0.8-3.6,1.4-6.9,1.8-10.1
			c0.6,4.4,1.1,7.8,1.8,10.7l5.1,23.1h21.2l15-61.7H209L203.8,455.5z"/>
		<path class="st1" d="M283.2,484.1c-0.7-0.1-1.3-0.3-2-0.3c5.3-4.5,8.4-12.7,8.4-22.4c0-19.9-10.3-30.9-28.9-30.9
			c-18.2,0-31.3,14-31.3,33.3c0,19.9,10.3,30.9,28.9,30.9h3c4.3,0,7.3,1.2,10.4,2.5c3.4,1.4,6.9,2.8,12.4,2.8c2,0,4.2-0.2,6.7-0.6
			l0.5-0.1v-15.1l-0.6,0.1C287.1,484.9,285.2,484.5,283.2,484.1z M259.6,446.9c7.4,0,11.1,5.4,11.1,16.1c0,9.7-4.1,15.2-11.4,15.2
			c-7.4,0-11.1-5.4-11.1-16.1C248.2,452.6,252.5,446.9,259.6,446.9z"/>
		<rect x="299.2" y="431.8" class="st1" width="17.8" height="61.7"/>
		<polygon class="st1" points="330.6,493.5 348.4,493.5 348.4,470.8 365.3,470.8 365.3,455.9 348.4,455.9 348.4,447.2 366.3,447.2 
			366.3,431.8 330.6,431.8 		"/>
		<path class="st1" d="M386.2,431.8l-19.7,61.7h17.7l3-9.9h18l3.1,9.9h19.4L407,431.8H386.2z M400.8,469.4h-9.5l3-10.3
			c0.7-2.3,1.2-4.5,1.6-6.5c0.5,2.1,1.1,4.3,1.7,6.4L400.8,469.4z"/>
		<polygon class="st1" points="467.9,461.5 485.6,431.8 464.1,431.8 451.8,455.9 451.8,431.8 434,431.8 434,493.5 451.8,493.5 
			451.8,467.8 463.8,493.5 486.6,493.5 		"/>
	</g>
	<path class="st1" d="M172.5,299c-5.4,0-9.6,4.2-9.6,9.6c0,5.3,4.3,9.6,9.6,9.6c5.3,0,9.6-4.3,9.6-9.6
		C182,303.2,177.8,299,172.5,299z"/>
	<path class="st1" d="M172.5,299c-5.4,0-9.6,4.2-9.6,9.6c0,5.3,4.3,9.6,9.6,9.6c5.3,0,9.6-4.3,9.6-9.6
		C182,303.2,177.8,299,172.5,299z"/>
</g>
</svg>
