<?xml version="1.0" encoding="utf-8"?>
<!-- Generator: Adobe Illustrator 26.0.1, SVG Export Plug-In . SVG Version: 6.00 Build 0)  -->
<svg version="1.1" id="Layer_1" xmlns="http://www.w3.org/2000/svg" xmlns:xlink="http://www.w3.org/1999/xlink" x="0px" y="0px"
	 viewBox="0 0 500 193.1" style="enable-background:new 0 0 500 193.1;" xml:space="preserve">
<style type="text/css">
	.st0{fill:#76027D;}
</style>
<path class="st0" d="M331,22c-4.3-11.2-14.4-17.6-27.7-17.6c-5.3,0-19.7,0-26.4,0h0c-1.1,0-2.2,0.4-3,1.2c-0.8,0.8-1.2,1.9-1.2,3
	v0.8c0,3,1.2,5.9,3.3,8c2.1,2.1,5,3.3,8,3.3h0l1.9,0c9.9,0,11.1,0,20,0.2c5.8,0.1,10.5,5,10.7,11c0.2,6.2-4.1,11.4-10.1,12l-0.3,0
	c-2.4,0.2-2.4,0.2-4.6,0.2l-0.5,0c-0.9,0-1.9,0-2.8,0c-5.8,0-8.2,0-14.3,0l-0.6,0h0c-2.2,0-4.3,0.9-5.8,2.4
	c-1.6,1.6-2.4,3.6-2.4,5.8c0,4.5,3.7,8.2,8.2,8.2c6.7,0,12.5,0,21,0.1c3.6,0,6.8,1.3,9,3.6c2.1,2.1,3.2,5.8,3.2,9
	c-0.1,6.8-5.2,11.5-12.4,11.5c-6.5,0-10.8,0-16.5,0l-1.1,0v0c-0.1,0-0.2,0-0.5,0c-0.4,0-0.7,0-1.1,0c-0.6,0-1.2,0-2,0h-11.3
	c-4.3,0-6.7-0.9-6.7-5.9V66.8c0-0.3,0-0.5,0-0.7c0.1-13.1,0-26.2,0-37.4c0-9.5-3.8-17.2-11.2-22.9c-9.5-7.3-25.1-8.7-36.9,2.7
	c-8.7-8.3-19.4-10.6-30.3-6.3c-11.2,4.3-17.5,14.4-17.5,27.7c0,5.3,0,14.8,0,25v0.4c0,8.3,0,31.1,0,40.2c0,2.3,1.9,4.2,4.2,4.2h0.1
	c3.2,0,6.2-1.2,8.5-3.5c2.3-2.3,3.5-5.3,3.5-8.5c0-5.1,0-12.9,0-13.7l0-1.5c0-15.9-0.1-35.7,0.1-45.3c0.1-5.8,4.9-10.5,11-10.8
	c6.2-0.3,11.4,4,12,10c0.3,2.9,0.3,6,0.3,9c0,0.9,0,1.9,0,2.8c0,6,0,31.1,0,46.7l0,6.1c0,5,3.9,7.6,7.8,7.7l0.1,0c0.1,0,0.2,0,0.3,0
	c0.1,0,0.2,0,0.3,0c0,0,0.1,0,0.2,0c3.7-0.3,7.7-3.4,7.7-8.1c0-5.3,0-13.7,0-20.8c0-16.2,0-34.5,0-41.3c0-3.6,1.3-6.8,3.5-9
	c2.1-2.1,4.9-3.2,8.1-3.2h0.1c6.8,0,11.5,5.1,11.5,12.4c0,7.8,0,15.7,0,23.4v0.7c0,4.1,0,8.3,0,12.4l0,1c0,0.1,0,0.3,0,0.5v15.8
	c0,0.1,0,0.1,0,0.2l0,0.3c0,0.1,0,0.1,0,0.2c0,10.6,8.2,16.3,18.8,17c0,0,0.1,0,0.1,0l0.1,0c0,0,0.1,0,0.1,0l16.9,0
	c0.4,0,0.8,0,1.2-0.1c4.2,0,6.4,0,7.8,0.1c2.8,0,3.1,0,10.8,0c9.5,0,17.2-3.7,23-11.1c7.3-9.4,8.7-25.1-2.6-36.9
	C332.9,43.6,335.2,32.8,331,22"/>
<g>
	<path d="M2.4,172.1h8.7l4.4,13.7h0.1l4.6-13.7h8.3v20.6H23l0.1-15.8h-0.1l-5.2,15.8h-5l-5-15.8H7.7l0.1,15.8H2.4V172.1z"/>
	<path d="M31.3,182.4c0-1.7,0.2-3.1,0.7-4.5c0.4-1.3,1.1-2.4,2-3.4c0.9-0.9,1.9-1.6,3.2-2.1c1.3-0.5,2.8-0.7,4.5-0.7
		c1.7,0,3.2,0.2,4.5,0.7c1.3,0.5,2.4,1.2,3.2,2.1c0.9,0.9,1.5,2,2,3.4c0.4,1.3,0.7,2.8,0.7,4.5c0,1.6-0.2,3.1-0.7,4.4
		c-0.4,1.3-1.1,2.4-2,3.4c-0.9,0.9-1.9,1.6-3.2,2.1c-1.3,0.5-2.8,0.7-4.4,0.7c-1.7,0-3.2-0.2-4.5-0.7c-1.3-0.5-2.4-1.2-3.2-2.1
		c-0.9-0.9-1.5-2-2-3.4C31.6,185.5,31.3,184,31.3,182.4z M37,182.4c0,0.9,0.1,1.7,0.3,2.5c0.2,0.8,0.5,1.5,0.8,2.1
		c0.4,0.6,0.9,1.1,1.4,1.5c0.6,0.4,1.3,0.5,2.1,0.5c0.8,0,1.5-0.2,2.1-0.5c0.6-0.4,1.1-0.9,1.4-1.5c0.4-0.6,0.6-1.3,0.8-2.1
		c0.2-0.8,0.3-1.6,0.3-2.5c0-0.9-0.1-1.7-0.3-2.5c-0.2-0.8-0.4-1.5-0.8-2.1c-0.4-0.6-0.9-1.1-1.4-1.4c-0.6-0.4-1.3-0.5-2.1-0.5
		c-0.8,0-1.5,0.2-2.1,0.5s-1.1,0.8-1.4,1.4s-0.7,1.3-0.8,2.1C37.1,180.7,37,181.5,37,182.4z"/>
	<path d="M55.1,172.1h7.5c1.8,0,3.4,0.2,4.9,0.5s2.8,0.9,3.9,1.6c1.1,0.8,1.9,1.8,2.5,3.1c0.6,1.3,0.9,3,0.9,5
		c0,1.3-0.1,2.4-0.4,3.4c-0.3,1-0.7,1.9-1.2,2.7c-0.5,0.8-1.1,1.4-1.9,2c-0.7,0.5-1.5,1-2.4,1.3c-0.9,0.3-1.9,0.6-2.9,0.7
		c-1.1,0.2-2.2,0.2-3.4,0.2h-7.5V172.1z M60.6,188.6h2.1c2.1,0,3.7-0.5,4.8-1.6c1.1-1,1.7-2.6,1.7-4.7c0-1-0.1-1.9-0.4-2.7
		c-0.3-0.8-0.7-1.4-1.3-1.9c-0.5-0.5-1.2-0.9-2-1.2c-0.8-0.3-1.7-0.4-2.7-0.4h-2.1V188.6z"/>
	<path d="M77.9,172.1h14.5v3.9h-9v4.3h8.5v3.9h-8.5v4.7h9.4v3.9H77.9V172.1z"/>
	<path d="M95.9,172.1h9.8c0.9,0,1.8,0.1,2.6,0.3c0.8,0.2,1.5,0.5,2.1,1c0.6,0.4,1.1,1,1.4,1.6c0.4,0.7,0.5,1.4,0.5,2.3
		c0,1.4-0.3,2.5-1,3.4s-1.6,1.5-3,1.8v0.1c0.4,0.1,0.8,0.3,1.1,0.6c0.3,0.3,0.5,0.6,0.7,1c0.2,0.4,0.4,0.8,0.5,1.3
		c0.2,0.5,0.4,1.1,0.6,1.7l2,5.6h-5.7l-1.2-3.7c-0.3-0.9-0.5-1.6-0.8-2.2c-0.2-0.6-0.5-1-0.8-1.4s-0.6-0.6-1-0.7
		c-0.4-0.1-0.8-0.2-1.3-0.2h-1.2v8.1h-5.5V172.1z M101.4,180.6h1.4c0.4,0,0.9,0,1.4,0c0.5,0,0.9-0.1,1.3-0.3c0.4-0.1,0.7-0.4,1-0.7
		c0.2-0.3,0.4-0.8,0.4-1.4c0-0.5-0.1-0.9-0.3-1.2c-0.2-0.3-0.5-0.5-0.9-0.7c-0.4-0.2-0.8-0.3-1.3-0.3c-0.5-0.1-1-0.1-1.5-0.1h-1.4
		V180.6z"/>
	<path d="M115.9,172.1h7l7,14h0.1l-0.1-14h5v20.6H128l-7.2-14.1h-0.1l0.2,14.1h-5V172.1z"/>
	<path d="M147.6,172.1h9.5c1,0,1.9,0.1,2.7,0.3c0.8,0.2,1.5,0.5,2.1,1c0.6,0.4,1.1,1,1.4,1.6c0.3,0.7,0.5,1.4,0.5,2.3
		c0,0.7-0.1,1.2-0.2,1.7c-0.2,0.5-0.4,1-0.7,1.3s-0.7,0.7-1.1,1c-0.5,0.3-1,0.5-1.5,0.7v0.1c2.8,0.6,4.2,2.1,4.2,4.5
		c0,1.2-0.2,2.3-0.7,3c-0.5,0.8-1.1,1.4-1.9,1.8c-0.8,0.5-1.6,0.8-2.6,0.9c-0.5,0.1-1,0.1-1.4,0.2c-0.5,0-0.9,0.1-1.4,0.1h-8.7
		V172.1z M153.1,180.2h1.5c0.5,0,0.9,0,1.3-0.1c0.4-0.1,0.8-0.2,1.2-0.3c0.3-0.2,0.6-0.4,0.8-0.7c0.2-0.3,0.3-0.6,0.3-1.1
		c0-0.5-0.1-0.8-0.3-1.1c-0.2-0.3-0.5-0.5-0.8-0.6c-0.3-0.1-0.7-0.2-1.2-0.3c-0.4,0-0.9-0.1-1.3-0.1h-1.6V180.2z M153.1,188.8h1.6
		c0.5,0,1,0,1.5-0.1c0.5-0.1,0.9-0.2,1.3-0.3s0.7-0.4,0.9-0.7c0.2-0.3,0.4-0.7,0.4-1.3c0-0.6-0.1-1-0.4-1.3s-0.6-0.6-0.9-0.7
		c-0.4-0.2-0.8-0.3-1.3-0.3c-0.5,0-1-0.1-1.4-0.1h-1.7V188.8z"/>
	<path d="M185.2,184.9c0,1.4-0.2,2.6-0.7,3.7c-0.4,1-1.1,1.9-1.8,2.6c-0.8,0.7-1.7,1.2-2.9,1.5c-1.1,0.3-2.3,0.5-3.7,0.5
		c-1.3,0-2.6-0.2-3.7-0.5c-1.1-0.3-2.1-0.8-2.8-1.5c-0.8-0.7-1.4-1.5-1.8-2.6c-0.4-1-0.7-2.2-0.7-3.7v-12.8h5.5V184
		c0,0.7,0.1,1.3,0.2,1.9s0.3,1.1,0.6,1.6c0.3,0.5,0.6,0.8,1.1,1.1c0.5,0.3,1,0.4,1.7,0.4c0.7,0,1.3-0.1,1.7-0.4
		c0.5-0.3,0.8-0.6,1.1-1.1c0.3-0.5,0.5-1,0.6-1.6s0.2-1.2,0.2-1.9v-11.9h5.5V184.9z"/>
	<path d="M188.8,187.6c0.7,0.4,1.6,0.7,2.5,1c1,0.2,2,0.4,3.1,0.4c0.4,0,0.9,0,1.3-0.1c0.4-0.1,0.8-0.2,1.1-0.3
		c0.3-0.1,0.6-0.3,0.8-0.6c0.2-0.3,0.3-0.6,0.3-1c0-0.7-0.2-1.1-0.7-1.5c-0.5-0.3-1.1-0.6-1.8-0.9c-0.7-0.2-1.5-0.5-2.3-0.7
		c-0.8-0.2-1.6-0.6-2.3-1c-0.7-0.5-1.3-1-1.8-1.8c-0.5-0.8-0.7-1.8-0.7-3c0-1.2,0.3-2.3,0.8-3.1c0.5-0.8,1.3-1.5,2.1-1.9
		c0.8-0.5,1.8-0.8,2.9-1c1.1-0.2,2.1-0.3,3.2-0.3c1,0,2,0.1,2.9,0.2c0.9,0.1,1.7,0.3,2.4,0.6l-0.3,4.3c-0.7-0.3-1.5-0.6-2.2-0.7
		c-0.8-0.1-1.6-0.2-2.3-0.2c-0.3,0-0.7,0-1.2,0c-0.4,0-0.8,0.1-1.2,0.2c-0.4,0.1-0.7,0.3-0.9,0.6c-0.3,0.3-0.4,0.6-0.4,1.1
		c0,0.5,0.2,1,0.7,1.3c0.5,0.3,1.1,0.5,1.8,0.8c0.7,0.2,1.5,0.5,2.3,0.7c0.8,0.2,1.6,0.6,2.3,1c0.7,0.5,1.3,1.1,1.8,1.8
		c0.5,0.8,0.7,1.8,0.7,3c0,1.3-0.3,2.4-0.8,3.3c-0.5,0.9-1.2,1.6-2,2.1s-1.8,0.9-2.9,1.1c-1.1,0.2-2.2,0.3-3.4,0.3
		c-0.5,0-1,0-1.5-0.1c-0.5,0-1-0.1-1.6-0.2c-1.1-0.1-2.1-0.4-3-0.7L188.8,187.6z"/>
	<path d="M233,192.2c-0.8,0.2-1.7,0.4-2.6,0.6c-0.5,0.1-1,0.2-1.6,0.2s-1.2,0.1-1.9,0.1c-1.4,0-2.8-0.2-4.2-0.6
		c-1.4-0.4-2.7-1-3.8-1.8c-1.1-0.8-2.1-1.9-2.8-3.3c-0.7-1.4-1.1-3-1.1-5c0-1.8,0.3-3.4,0.9-4.7c0.6-1.3,1.4-2.5,2.5-3.4
		c1.1-0.9,2.3-1.6,3.7-2c1.4-0.4,3-0.7,4.7-0.7c1.1,0,2.1,0.1,3.1,0.3c1,0.2,2,0.5,3,0.8l-0.4,4.5c-0.9-0.5-1.8-0.9-2.6-1.1
		c-0.9-0.2-1.8-0.4-2.7-0.4c-1,0-1.9,0.2-2.7,0.5s-1.5,0.8-2,1.4c-0.6,0.6-1,1.3-1.3,2.1c-0.3,0.8-0.5,1.7-0.5,2.7
		c0,1,0.2,1.9,0.5,2.7c0.3,0.8,0.8,1.5,1.4,2c0.6,0.6,1.3,1,2.2,1.3c0.8,0.3,1.8,0.4,2.8,0.4c0.9,0,1.8-0.1,2.7-0.3
		c0.9-0.2,1.7-0.5,2.5-0.8L233,192.2z"/>
	<path d="M234.8,182.4c0-1.7,0.2-3.1,0.7-4.5c0.4-1.3,1.1-2.4,2-3.4c0.9-0.9,1.9-1.6,3.2-2.1c1.3-0.5,2.8-0.7,4.5-0.7
		c1.7,0,3.2,0.2,4.5,0.7c1.3,0.5,2.4,1.2,3.2,2.1c0.9,0.9,1.5,2,2,3.4c0.4,1.3,0.7,2.8,0.7,4.5c0,1.6-0.2,3.1-0.7,4.4
		c-0.4,1.3-1.1,2.4-2,3.4s-1.9,1.6-3.2,2.1c-1.3,0.5-2.8,0.7-4.4,0.7c-1.7,0-3.2-0.2-4.5-0.7c-1.3-0.5-2.4-1.2-3.2-2.1
		c-0.9-0.9-1.5-2-2-3.4C235,185.5,234.8,184,234.8,182.4z M240.5,182.4c0,0.9,0.1,1.7,0.3,2.5c0.2,0.8,0.5,1.5,0.8,2.1
		c0.4,0.6,0.9,1.1,1.4,1.5c0.6,0.4,1.3,0.5,2.1,0.5c0.8,0,1.5-0.2,2.1-0.5c0.6-0.4,1.1-0.9,1.4-1.5c0.4-0.6,0.6-1.3,0.8-2.1
		c0.2-0.8,0.3-1.6,0.3-2.5c0-0.9-0.1-1.7-0.3-2.5c-0.2-0.8-0.4-1.5-0.8-2.1c-0.4-0.6-0.9-1.1-1.4-1.4c-0.6-0.4-1.3-0.5-2.1-0.5
		c-0.8,0-1.5,0.2-2.1,0.5c-0.6,0.4-1.1,0.8-1.4,1.4s-0.7,1.3-0.8,2.1C240.5,180.7,240.5,181.5,240.5,182.4z"/>
	<path d="M258.4,172.1h8.6l4.4,13.7h0.1l4.6-13.7h8.3v20.6H279l0.1-15.8H279l-5.2,15.8h-5l-5-15.8h-0.1l0.1,15.8h-5.4V172.1z"/>
	<path d="M287.8,172.1h6.5c1.6,0,3,0.1,4.1,0.4s2.1,0.7,2.9,1.2c0.8,0.6,1.3,1.3,1.7,2.1c0.4,0.9,0.6,1.9,0.6,3
		c0,2.1-0.7,3.7-2.2,4.9c-1.4,1.2-3.4,1.7-6,1.7h-2.1v7.2h-5.5V172.1z M293.3,181.6h1.4c0.5,0,0.9,0,1.3-0.1
		c0.4-0.1,0.8-0.2,1.1-0.5c0.3-0.2,0.5-0.5,0.7-0.9c0.2-0.4,0.3-0.8,0.3-1.4c0-0.5-0.1-1-0.3-1.3c-0.2-0.4-0.4-0.6-0.7-0.9
		c-0.3-0.2-0.7-0.4-1.1-0.5c-0.4-0.1-0.9-0.1-1.3-0.1h-1.4V181.6z"/>
	<path d="M310,172.1h6.7l7.9,20.6h-6l-1.5-4.4h-7.7l-1.6,4.4h-5.6L310,172.1z M313.4,176.3L313.4,176.3l-2.7,8.1h5.2L313.4,176.3z"
		/>
	<path d="M326.9,172.1h7l7,14h0.1l-0.1-14h5v20.6h-6.8l-7.2-14.1h-0.1l0.2,14.1h-5V172.1z"/>
	<path d="M355.8,184.9l-7.6-12.8h6.3l4,8.3l4-8.3h6.3l-7.6,12.8v7.8h-5.5V184.9z"/>
	<path d="M380.2,172.1h5.5v16.5h8.5v4.1h-14V172.1z"/>
	<path d="M396.9,172.1h5.5v20.6h-5.5V172.1z"/>
	<path d="M406.3,172.1h8.6l4.4,13.7h0.1l4.6-13.7h8.3v20.6h-5.4l0.1-15.8H427l-5.2,15.8h-5l-5-15.8h-0.1l0.1,15.8h-5.4V172.1z"/>
	<path d="M436.3,172.1h5.5v20.6h-5.5V172.1z"/>
	<path d="M449.4,176.2h-5.1v-4.1H460v4.1h-5.1v16.5h-5.5V176.2z"/>
	<path d="M462.1,172.1h14.5v3.9h-9v4.3h8.5v3.9h-8.5v4.7h9.4v3.9h-14.8V172.1z"/>
	<path d="M480.3,172.1h7.5c1.8,0,3.4,0.2,4.9,0.5c1.5,0.3,2.8,0.9,3.9,1.6c1.1,0.8,1.9,1.8,2.5,3.1c0.6,1.3,0.9,3,0.9,5
		c0,1.3-0.1,2.4-0.4,3.4s-0.7,1.9-1.2,2.7c-0.5,0.8-1.1,1.4-1.9,2c-0.7,0.5-1.5,1-2.4,1.3c-0.9,0.3-1.9,0.6-2.9,0.7
		c-1.1,0.2-2.2,0.2-3.4,0.2h-7.5V172.1z M485.8,188.6h2.1c2.1,0,3.7-0.5,4.8-1.6c1.1-1,1.7-2.6,1.7-4.7c0-1-0.1-1.9-0.4-2.7
		c-0.3-0.8-0.7-1.4-1.3-1.9c-0.5-0.5-1.2-0.9-2-1.2c-0.8-0.3-1.7-0.4-2.7-0.4h-2.1V188.6z"/>
</g>
<g>
	<path d="M6.6,153.9c-1.1,0-2-0.2-2.8-0.5c-0.8-0.3-1.5-0.7-2.1-1.2c-0.6-0.5-1-1.1-1.3-1.9c-0.3-0.7-0.4-1.5-0.4-2.3
		c0-0.9,0.1-1.6,0.3-2.4c0.2-0.7,0.5-1.4,0.8-1.9s0.8-1.1,1.2-1.5c0.5-0.4,1-0.8,1.5-1.1c0.5-0.3,1-0.5,1.6-0.7
		c0.5-0.1,1.1-0.2,1.6-0.2c0.8,0,1.6,0.2,2.5,0.5c0.8,0.3,1.6,0.8,2.2,1.4c0.6,0.6,1.2,1.5,1.6,2.4c0.4,1,0.6,2.1,0.6,3.4
		c0,0.8-0.2,1.5-0.5,2.2c-0.3,0.7-0.7,1.3-1.3,1.9c-0.6,0.5-1.2,1-2,1.3c-0.8,0.3-1.7,0.5-2.7,0.5H6.6z M1.3,134.8
		c0-0.3,0.1-0.7,0.2-1c0.1-0.3,0.3-0.6,0.5-0.8c0.2-0.2,0.5-0.4,0.8-0.5c0.3-0.1,0.6-0.2,1-0.2s0.7,0.1,0.9,0.2
		c0.3,0.1,0.6,0.3,0.8,0.5c0.2,0.2,0.4,0.5,0.5,0.8c0.1,0.3,0.2,0.6,0.2,1c0,0.3-0.1,0.7-0.2,1c-0.1,0.3-0.3,0.6-0.5,0.8
		c-0.2,0.2-0.5,0.4-0.8,0.5c-0.3,0.1-0.6,0.2-0.9,0.2s-0.7-0.1-1-0.2c-0.3-0.1-0.6-0.3-0.8-0.5c-0.2-0.2-0.4-0.5-0.5-0.8
		C1.3,135.4,1.3,135.1,1.3,134.8z M4.7,147.6c0,0.3,0,0.6,0.1,0.9c0.1,0.3,0.2,0.5,0.4,0.7c0.2,0.2,0.4,0.3,0.7,0.4s0.6,0.2,1,0.2
		c0.4,0,0.7-0.1,1-0.2c0.3-0.1,0.5-0.3,0.6-0.5c0.2-0.2,0.3-0.4,0.3-0.7c0.1-0.3,0.1-0.5,0.1-0.8c0-0.5-0.1-1-0.2-1.4
		c-0.1-0.4-0.3-0.7-0.5-1c-0.2-0.3-0.4-0.5-0.7-0.6c-0.3-0.1-0.5-0.2-0.8-0.2c-0.3,0-0.5,0.1-0.8,0.2c-0.3,0.1-0.5,0.3-0.7,0.6
		c-0.2,0.3-0.4,0.6-0.5,1C4.7,146.6,4.7,147.1,4.7,147.6z M7.2,134.8c0-0.3,0.1-0.7,0.2-1c0.1-0.3,0.3-0.6,0.5-0.8
		c0.2-0.2,0.5-0.4,0.8-0.5c0.3-0.1,0.6-0.2,0.9-0.2c0.3,0,0.7,0.1,0.9,0.2c0.3,0.1,0.6,0.3,0.8,0.5c0.2,0.2,0.4,0.5,0.5,0.8
		c0.1,0.3,0.2,0.6,0.2,1c0,0.3-0.1,0.7-0.2,1c-0.1,0.3-0.3,0.6-0.5,0.8c-0.2,0.2-0.5,0.4-0.8,0.5c-0.3,0.1-0.6,0.2-0.9,0.2
		c-0.3,0-0.7-0.1-0.9-0.2c-0.3-0.1-0.6-0.3-0.8-0.5c-0.2-0.2-0.4-0.5-0.5-0.8C7.3,135.4,7.2,135.1,7.2,134.8z"/>
	<path d="M16.1,153.9v-4.1h6c0.4,0,0.8,0,1.1-0.1c0.3-0.1,0.5-0.2,0.7-0.4c0.2-0.2,0.3-0.3,0.3-0.5c0.1-0.2,0.1-0.4,0.1-0.6
		c0-0.3-0.2-0.7-0.5-1.2c-0.3-0.5-0.7-0.9-1.2-1.5c-0.5-0.5-1-1-1.7-1.6c-0.6-0.5-1.2-1-1.9-1.5l3.6-3.5c1,0.8,1.8,1.6,2.6,2.5
		c0.8,0.8,1.4,1.6,2,2.4s1,1.5,1.3,2.2c0.3,0.7,0.4,1.4,0.4,2.1c0,0.8-0.1,1.5-0.3,2.2c-0.2,0.7-0.6,1.3-1.2,1.8
		c-0.5,0.5-1.3,1-2.2,1.3c-0.9,0.3-2,0.5-3.3,0.5H16.1z"/>
	<path d="M33.6,155.7c1.1,0,2-0.1,2.8-0.2c0.8-0.1,1.5-0.3,2.1-0.5c0.6-0.2,1.1-0.5,1.6-0.9c0.4-0.4,0.8-0.8,1.1-1.4
		c-0.6,0.2-1.2,0.4-1.8,0.5s-1.1,0.2-1.6,0.2c-0.9,0-1.7-0.1-2.4-0.4c-0.7-0.3-1.4-0.6-1.9-1.1c-0.5-0.5-0.9-1.1-1.2-1.8
		c-0.3-0.7-0.4-1.5-0.4-2.4c0-1,0.2-1.8,0.5-2.7c0.4-0.8,0.9-1.5,1.5-2.2c0.7-0.6,1.5-1.1,2.4-1.4c0.9-0.3,2-0.5,3.1-0.5
		c0.5,0,1,0,1.5,0.1c0.5,0.1,1,0.2,1.5,0.4c0.5,0.2,1,0.5,1.4,0.9c0.5,0.4,0.9,0.8,1.2,1.3c0.3,0.5,0.6,1.2,0.8,1.9
		c0.2,0.8,0.3,1.6,0.3,2.6v2.3c0,1.1-0.1,2.1-0.4,3s-0.7,1.7-1.2,2.3c-0.5,0.7-1.1,1.3-1.8,1.7c-0.7,0.5-1.5,0.9-2.4,1.2
		c-0.9,0.3-1.9,0.6-2.9,0.8c-1.1,0.2-2.2,0.4-3.4,0.5L33.6,155.7z M36.7,147.3c0,0.4,0.1,0.8,0.2,1.1c0.1,0.3,0.3,0.6,0.5,0.8
		c0.2,0.2,0.5,0.4,0.8,0.5c0.3,0.1,0.6,0.2,1,0.2c0.3,0,0.6,0,0.9-0.1c0.3-0.1,0.7-0.1,1-0.3v-1.4c0-1.1-0.2-1.9-0.6-2.4
		c-0.4-0.5-0.9-0.8-1.6-0.8c-0.3,0-0.6,0.1-0.9,0.2c-0.3,0.1-0.5,0.3-0.7,0.5c-0.2,0.2-0.4,0.5-0.5,0.8
		C36.8,146.6,36.7,147,36.7,147.3z"/>
	<path d="M48.7,153.9v-4.1h6c0.4,0,0.8,0,1.1-0.1c0.3-0.1,0.5-0.2,0.7-0.4c0.2-0.2,0.3-0.3,0.3-0.5c0.1-0.2,0.1-0.4,0.1-0.6
		c0-0.3-0.2-0.7-0.5-1.2c-0.3-0.5-0.7-0.9-1.2-1.5c-0.5-0.5-1-1-1.7-1.6c-0.6-0.5-1.2-1-1.9-1.5l3.6-3.5c1,0.8,1.9,1.6,2.6,2.5
		c0.8,0.8,1.4,1.6,2,2.4c0.5,0.8,1,1.5,1.3,2.2c0.3,0.7,0.4,1.4,0.4,2.1c0,0.2,0,0.3,0,0.5c0,0.2,0,0.3,0,0.5
		c0.5,0.3,1.1,0.5,1.6,0.6s1.1,0.2,1.7,0.2h0.1c0.2,0,0.4,0,0.5,0.1s0.2,0.2,0.3,0.3c0.1,0.1,0.1,0.3,0.1,0.5c0,0.2,0,0.5,0,0.8v0.8
		c0,0.4,0,0.7-0.1,0.9c0,0.2-0.1,0.4-0.2,0.5c-0.1,0.1-0.2,0.2-0.3,0.2c-0.1,0-0.3,0.1-0.5,0.1h-0.1c-0.8,0-1.6-0.2-2.4-0.5
		c-0.8-0.3-1.5-0.8-2.2-1.4c-0.5,0.6-1.3,1.1-2.2,1.4s-2.1,0.5-3.5,0.5H48.7z"/>
	<path d="M70.4,149.8c0.2,0,0.4,0,0.5,0.1c0.1,0.1,0.2,0.2,0.3,0.3c0.1,0.1,0.1,0.3,0.1,0.5c0,0.2,0,0.5,0,0.8v0.8
		c0,0.4,0,0.7-0.1,0.9s-0.1,0.4-0.2,0.5c-0.1,0.1-0.2,0.2-0.3,0.2c-0.1,0-0.3,0.1-0.5,0.1h-5.5c-0.2,0-0.3,0-0.5-0.1
		c-0.1,0-0.2-0.1-0.3-0.2c-0.1-0.1-0.1-0.3-0.2-0.5c0-0.2-0.1-0.5-0.1-0.9v-0.8c0-0.3,0-0.5,0-0.8c0-0.2,0.1-0.4,0.1-0.5
		c0.1-0.1,0.2-0.2,0.3-0.3c0.1-0.1,0.3-0.1,0.5-0.1H70.4z"/>
	<path d="M79.6,149.8c-0.1-0.2-0.2-0.4-0.2-0.6c-0.1-0.2-0.1-0.5-0.2-0.7c-0.1-0.5-0.2-1-0.3-1.4c-0.1-0.5-0.3-0.9-0.5-1.2
		c-0.2-0.4-0.5-0.6-0.9-0.8c-0.4-0.2-0.9-0.3-1.6-0.3c-0.1,0-0.3,0-0.5,0c-0.2,0-0.5,0-0.8,0.1c-0.3,0-0.7,0.1-1.1,0.2
		c-0.4,0.1-0.8,0.2-1.3,0.3v-3.8c0.9-0.2,1.7-0.4,2.5-0.6c0.8-0.2,1.7-0.3,2.5-0.3c0.9,0,1.8,0.1,2.5,0.4c0.7,0.2,1.4,0.6,1.9,1.1
		c0.5,0.5,1,1,1.3,1.7c0.3,0.7,0.6,1.4,0.7,2.2c0.1,0.5,0.1,0.9,0.2,1.4c0.1,0.5,0.2,0.9,0.4,1.3c0.2,0.4,0.4,0.7,0.6,0.9
		c0.3,0.2,0.6,0.4,1,0.4c0.2,0,0.4,0,0.5,0.1c0.1,0.1,0.2,0.2,0.3,0.3c0.1,0.1,0.1,0.3,0.1,0.5c0,0.2,0,0.5,0,0.8v0.8
		c0,0.4,0,0.7-0.1,0.9s-0.1,0.4-0.2,0.5c-0.1,0.1-0.2,0.2-0.3,0.2c-0.1,0-0.3,0.1-0.5,0.1H70.4c-0.2,0-0.3,0-0.5-0.1
		c-0.1,0-0.2-0.1-0.3-0.2c-0.1-0.1-0.1-0.3-0.2-0.5s-0.1-0.5-0.1-0.9v-0.8c0-0.3,0-0.5,0-0.8c0-0.2,0.1-0.4,0.1-0.5
		c0.1-0.1,0.2-0.2,0.3-0.3c0.1-0.1,0.3-0.1,0.5-0.1H79.6z"/>
	<path d="M90.8,152.3c-0.5,0.5-1,0.9-1.6,1.2c-0.6,0.3-1.3,0.4-2.1,0.4h-1c-0.2,0-0.3,0-0.5-0.1c-0.1,0-0.2-0.1-0.3-0.2
		c-0.1-0.1-0.1-0.3-0.2-0.5s-0.1-0.5-0.1-0.9v-0.8c0-0.3,0-0.5,0-0.8c0-0.2,0.1-0.4,0.1-0.5c0.1-0.1,0.2-0.2,0.3-0.3
		c0.1-0.1,0.3-0.1,0.5-0.1h0.8c0.3,0,0.5,0,0.7-0.1c0.2-0.1,0.4-0.2,0.5-0.3c0.1-0.1,0.3-0.3,0.3-0.5c0.1-0.2,0.2-0.4,0.2-0.6
		c0.5-1.4,1-2.6,1.7-3.5c0.7-0.9,1.4-1.7,2.1-2.2c0.7-0.6,1.5-0.9,2.2-1.2c0.7-0.2,1.4-0.3,1.9-0.3c0.8,0,1.5,0.1,2.1,0.3
		c0.6,0.2,1.2,0.5,1.7,0.8c0.5,0.3,1,0.7,1.3,1.2c0.4,0.4,0.7,0.9,0.9,1.4c0.2,0.5,0.4,1,0.6,1.5c0.1,0.5,0.2,1,0.2,1.5
		c0,0.4-0.1,0.9-0.2,1.4c0.5,0.3,1,0.4,1.6,0.5c0.6,0.1,1.1,0.2,1.6,0.2h0.1c0.2,0,0.4,0,0.5,0.1c0.1,0.1,0.2,0.2,0.3,0.3
		c0.1,0.1,0.1,0.3,0.1,0.5c0,0.2,0,0.5,0,0.8v0.8c0,0.4,0,0.7-0.1,0.9c0,0.2-0.1,0.4-0.2,0.5c-0.1,0.1-0.2,0.2-0.3,0.2
		c-0.1,0-0.3,0.1-0.5,0.1h-0.1c-0.4,0-0.8,0-1.2-0.1c-0.4-0.1-0.8-0.2-1.2-0.4c-0.4-0.2-0.8-0.4-1.1-0.6c-0.4-0.2-0.7-0.5-1-0.8
		c-0.6,0.6-1.3,1.2-2.1,1.6c-0.9,0.4-1.9,0.6-3.1,0.6c-0.7,0-1.3-0.1-1.8-0.2c-0.6-0.1-1.1-0.2-1.6-0.4c-0.5-0.2-0.9-0.3-1.3-0.5
		c-0.4-0.2-0.7-0.4-1-0.6L90.8,152.3z M98.8,147.6c0-0.3-0.1-0.6-0.2-0.9s-0.3-0.5-0.5-0.8c-0.2-0.2-0.5-0.4-0.8-0.5
		c-0.3-0.1-0.6-0.2-1-0.2c-0.7,0-1.4,0.3-2,0.9s-1.1,1.6-1.5,2.9c0.2,0.1,0.5,0.2,0.7,0.4c0.3,0.1,0.5,0.2,0.8,0.3
		c0.3,0.1,0.6,0.2,0.9,0.2s0.5,0.1,0.8,0.1c0.4,0,0.7,0,1-0.1c0.3-0.1,0.6-0.2,0.8-0.4c0.2-0.2,0.4-0.4,0.6-0.7
		C98.7,148.4,98.8,148,98.8,147.6z"/>
	<path d="M112.1,149.8c0.2,0,0.4,0,0.5,0.1c0.1,0.1,0.2,0.2,0.3,0.3c0.1,0.1,0.1,0.3,0.1,0.5c0,0.2,0,0.5,0,0.8v0.8
		c0,0.4,0,0.7-0.1,0.9c0,0.2-0.1,0.4-0.2,0.5c-0.1,0.1-0.2,0.2-0.3,0.2c-0.1,0-0.3,0.1-0.5,0.1h-5.5c-0.2,0-0.3,0-0.5-0.1
		c-0.1,0-0.2-0.1-0.3-0.2c-0.1-0.1-0.1-0.3-0.2-0.5c0-0.2-0.1-0.5-0.1-0.9v-0.8c0-0.3,0-0.5,0-0.8c0-0.2,0.1-0.4,0.1-0.5
		c0.1-0.1,0.2-0.2,0.3-0.3c0.1-0.1,0.3-0.1,0.5-0.1H112.1z"/>
	<path d="M112.1,153.9c-0.2,0-0.3,0-0.5-0.1c-0.1,0-0.2-0.1-0.3-0.2c-0.1-0.1-0.1-0.3-0.2-0.5c0-0.2,0-0.5,0-0.9v-0.8
		c0-0.3,0-0.5,0-0.8c0-0.2,0.1-0.4,0.1-0.5c0.1-0.1,0.2-0.2,0.3-0.3c0.1-0.1,0.3-0.1,0.5-0.1h2.9v-16.7h5.2v20.8H112.1z"/>
	<path d="M124.5,133.1h5.2v20.8h-5.2V133.1z"/>
	<path d="M155.2,148.7c0,0.2,0,0.4,0,0.5c0,0.1,0.1,0.3,0.1,0.3c0.1,0.1,0.1,0.1,0.2,0.2c0.1,0,0.2,0.1,0.4,0.1h2.3
		c0.2,0,0.4,0,0.5,0.1c0.1,0.1,0.2,0.2,0.3,0.3c0.1,0.1,0.1,0.3,0.1,0.5c0,0.2,0,0.5,0,0.8v0.8c0,0.4,0,0.7,0,0.9
		c0,0.2-0.1,0.4-0.2,0.5c-0.1,0.1-0.2,0.2-0.3,0.2c-0.1,0-0.3,0.1-0.5,0.1h-3c-0.6,0-1.2,0-1.7-0.1c-0.5-0.1-0.9-0.2-1.3-0.3
		c-0.4-0.1-0.7-0.3-0.9-0.5c-0.3-0.2-0.5-0.4-0.6-0.7c-0.6,0.2-1.2,0.4-1.7,0.5s-1.1,0.2-1.7,0.2c-0.7,0-1.5-0.1-2.2-0.3
		c-0.8-0.2-1.4-0.5-2.1-0.9c-0.6-0.4-1.1-0.9-1.5-1.6c-0.4-0.6-0.6-1.4-0.6-2.3c0-0.7,0.1-1.4,0.4-2s0.7-1.1,1.1-1.6
		c0.5-0.5,1-0.9,1.6-1.3c0.6-0.4,1.3-0.7,1.9-1c0.7-0.3,1.4-0.5,2-0.7c0.7-0.2,1.3-0.4,2-0.5c0-0.3,0-0.6,0-0.9c0-0.3,0-0.6,0-0.9
		h5.2V148.7z M144.9,134c0-0.3,0.1-0.7,0.2-1c0.1-0.3,0.3-0.6,0.5-0.8c0.2-0.2,0.5-0.4,0.8-0.5c0.3-0.1,0.6-0.2,1-0.2
		s0.7,0.1,0.9,0.2s0.6,0.3,0.8,0.5c0.2,0.2,0.4,0.5,0.5,0.8c0.1,0.3,0.2,0.6,0.2,1s-0.1,0.7-0.2,1c-0.1,0.3-0.3,0.6-0.5,0.8
		c-0.2,0.2-0.5,0.4-0.8,0.5c-0.3,0.1-0.6,0.2-0.9,0.2s-0.7-0.1-1-0.2c-0.3-0.1-0.6-0.3-0.8-0.5c-0.2-0.2-0.4-0.5-0.5-0.8
		C144.9,134.6,144.9,134.3,144.9,134z M150,144.7c-0.6,0.2-1.2,0.3-1.7,0.5c-0.5,0.2-0.9,0.4-1.3,0.7c-0.4,0.2-0.6,0.5-0.8,0.8
		c-0.2,0.3-0.3,0.6-0.3,1c0,0.4,0.2,0.7,0.5,1s0.8,0.4,1.3,0.4c0.4,0,0.8,0,1.2-0.1c0.4-0.1,0.7-0.2,1.1-0.4L150,144.7z M150.8,134
		c0-0.3,0.1-0.7,0.2-1c0.1-0.3,0.3-0.6,0.5-0.8c0.2-0.2,0.5-0.4,0.8-0.5s0.6-0.2,0.9-0.2s0.7,0.1,0.9,0.2c0.3,0.1,0.6,0.3,0.8,0.5
		c0.2,0.2,0.4,0.5,0.5,0.8c0.1,0.3,0.2,0.6,0.2,1s-0.1,0.7-0.2,1c-0.1,0.3-0.3,0.6-0.5,0.8c-0.2,0.2-0.5,0.4-0.8,0.5
		c-0.3,0.1-0.6,0.2-0.9,0.2s-0.7-0.1-0.9-0.2c-0.3-0.1-0.6-0.3-0.8-0.5c-0.2-0.2-0.4-0.5-0.5-0.8C150.9,134.6,150.8,134.3,150.8,134
		z"/>
	<path d="M163.8,149.8c0.2,0,0.4,0,0.5,0.1c0.1,0.1,0.2,0.2,0.3,0.3c0.1,0.1,0.1,0.3,0.1,0.5c0,0.2,0,0.5,0,0.8v0.8
		c0,0.4,0,0.7-0.1,0.9c0,0.2-0.1,0.4-0.2,0.5c-0.1,0.1-0.2,0.2-0.3,0.2c-0.1,0-0.3,0.1-0.5,0.1h-5.5c-0.2,0-0.3,0-0.5-0.1
		c-0.1,0-0.2-0.1-0.3-0.2c-0.1-0.1-0.1-0.3-0.2-0.5s-0.1-0.5-0.1-0.9v-0.8c0-0.3,0-0.5,0-0.8c0-0.2,0.1-0.4,0.1-0.5
		c0.1-0.1,0.2-0.2,0.3-0.3c0.1-0.1,0.3-0.1,0.5-0.1H163.8z"/>
	<path d="M169.3,149.8c0.2,0,0.4,0,0.5,0.1c0.1,0.1,0.2,0.2,0.3,0.3c0.1,0.1,0.1,0.3,0.1,0.5c0,0.2,0,0.5,0,0.8v0.8
		c0,0.4,0,0.7-0.1,0.9c0,0.2-0.1,0.4-0.2,0.5c-0.1,0.1-0.2,0.2-0.3,0.2c-0.1,0-0.3,0.1-0.5,0.1h-5.5c-0.2,0-0.3,0-0.5-0.1
		c-0.1,0-0.2-0.1-0.3-0.2c-0.1-0.1-0.1-0.3-0.2-0.5c0-0.2-0.1-0.5-0.1-0.9v-0.8c0-0.3,0-0.5,0-0.8c0-0.2,0.1-0.4,0.1-0.5
		c0.1-0.1,0.2-0.2,0.3-0.3c0.1-0.1,0.3-0.1,0.5-0.1H169.3z"/>
	<path d="M177.6,148.7c0,0.1,0,0.1,0,0.2c0,0.1,0,0.1,0,0.2c0.5,0.3,1.1,0.5,1.7,0.6c0.6,0.1,1.2,0.2,1.7,0.2h0.1
		c0.2,0,0.4,0,0.5,0.1c0.1,0.1,0.2,0.2,0.3,0.3c0.1,0.1,0.1,0.3,0.1,0.5c0,0.2,0,0.5,0,0.8v0.8c0,0.4,0,0.7-0.1,0.9
		s-0.1,0.4-0.2,0.5c-0.1,0.1-0.2,0.2-0.3,0.2c-0.1,0-0.3,0.1-0.5,0.1h-0.1c-0.7,0-1.5-0.2-2.2-0.5c-0.8-0.3-1.5-0.7-2.1-1.3
		c-0.4,0.5-0.9,1-1.5,1.3c-0.6,0.3-1.5,0.5-2.5,0.5h-3.3c-0.2,0-0.3,0-0.5-0.1c-0.1,0-0.2-0.1-0.3-0.2c-0.1-0.1-0.1-0.3-0.2-0.5
		c0-0.2,0-0.5,0-0.9v-0.8c0-0.3,0-0.5,0-0.8c0-0.2,0.1-0.4,0.1-0.5c0.1-0.1,0.2-0.2,0.3-0.3c0.1-0.1,0.3-0.1,0.5-0.1h2
		c0.4,0,0.7-0.1,0.9-0.3c0.2-0.2,0.3-0.6,0.3-1.1v-7.2h5.2V148.7z M169,134.8c0-0.3,0.1-0.7,0.2-1c0.1-0.3,0.3-0.6,0.5-0.8
		c0.2-0.2,0.5-0.4,0.8-0.5c0.3-0.1,0.6-0.2,1-0.2s0.7,0.1,0.9,0.2c0.3,0.1,0.6,0.3,0.8,0.5c0.2,0.2,0.4,0.5,0.5,0.8
		c0.1,0.3,0.2,0.6,0.2,1c0,0.3-0.1,0.7-0.2,1c-0.1,0.3-0.3,0.6-0.5,0.8c-0.2,0.2-0.5,0.4-0.8,0.5c-0.3,0.1-0.6,0.2-0.9,0.2
		s-0.7-0.1-1-0.2c-0.3-0.1-0.6-0.3-0.8-0.5c-0.2-0.2-0.4-0.5-0.5-0.8C169.1,135.4,169,135.1,169,134.8z M172,129.2
		c0-0.3,0.1-0.7,0.2-1c0.1-0.3,0.3-0.6,0.5-0.8c0.2-0.2,0.5-0.4,0.8-0.5c0.3-0.1,0.6-0.2,0.9-0.2s0.7,0.1,0.9,0.2
		c0.3,0.1,0.6,0.3,0.8,0.5c0.2,0.2,0.4,0.5,0.5,0.8c0.1,0.3,0.2,0.6,0.2,1c0,0.3-0.1,0.7-0.2,1c-0.1,0.3-0.3,0.6-0.5,0.8
		c-0.2,0.2-0.5,0.4-0.8,0.5c-0.3,0.1-0.6,0.2-0.9,0.2s-0.7-0.1-0.9-0.2c-0.3-0.1-0.6-0.3-0.8-0.5c-0.2-0.2-0.4-0.5-0.5-0.8
		C172,129.9,172,129.6,172,129.2z M175,134.8c0-0.3,0.1-0.7,0.2-1c0.1-0.3,0.3-0.6,0.5-0.8c0.2-0.2,0.5-0.4,0.8-0.5
		c0.3-0.1,0.6-0.2,0.9-0.2c0.3,0,0.7,0.1,0.9,0.2c0.3,0.1,0.6,0.3,0.8,0.5c0.2,0.2,0.4,0.5,0.5,0.8c0.1,0.3,0.2,0.6,0.2,1
		c0,0.3-0.1,0.7-0.2,1c-0.1,0.3-0.3,0.6-0.5,0.8c-0.2,0.2-0.5,0.4-0.8,0.5c-0.3,0.1-0.6,0.2-0.9,0.2c-0.3,0-0.7-0.1-0.9-0.2
		c-0.3-0.1-0.6-0.3-0.8-0.5c-0.2-0.2-0.4-0.5-0.5-0.8C175,135.4,175,135.1,175,134.8z"/>
	<path d="M186.6,149.8c0.2,0,0.4,0,0.5,0.1c0.1,0.1,0.2,0.2,0.3,0.3c0.1,0.1,0.1,0.3,0.1,0.5c0,0.2,0,0.5,0,0.8v0.8
		c0,0.4,0,0.7-0.1,0.9c0,0.2-0.1,0.4-0.2,0.5c-0.1,0.1-0.2,0.2-0.3,0.2c-0.1,0-0.3,0.1-0.5,0.1H181c-0.2,0-0.3,0-0.5-0.1
		c-0.1,0-0.2-0.1-0.3-0.2c-0.1-0.1-0.1-0.3-0.2-0.5c0-0.2-0.1-0.5-0.1-0.9v-0.8c0-0.3,0-0.5,0-0.8c0-0.2,0.1-0.4,0.1-0.5
		c0.1-0.1,0.2-0.2,0.3-0.3c0.1-0.1,0.3-0.1,0.5-0.1H186.6z"/>
	<path d="M192,149.8c0.2,0,0.4,0,0.5,0.1c0.1,0.1,0.2,0.2,0.3,0.3c0.1,0.1,0.1,0.3,0.1,0.5c0,0.2,0,0.5,0,0.8v0.8
		c0,0.4,0,0.7-0.1,0.9s-0.1,0.4-0.2,0.5c-0.1,0.1-0.2,0.2-0.3,0.2c-0.1,0-0.3,0.1-0.5,0.1h-5.5c-0.2,0-0.3,0-0.5-0.1
		c-0.1,0-0.2-0.1-0.3-0.2c-0.1-0.1-0.1-0.3-0.2-0.5s-0.1-0.5-0.1-0.9v-0.8c0-0.3,0-0.5,0-0.8c0-0.2,0.1-0.4,0.1-0.5
		c0.1-0.1,0.2-0.2,0.3-0.3c0.1-0.1,0.3-0.1,0.5-0.1H192z"/>
	<path d="M192,153.9c-0.2,0-0.3,0-0.5-0.1c-0.1,0-0.2-0.1-0.3-0.2c-0.1-0.1-0.1-0.3-0.2-0.5c0-0.2-0.1-0.5-0.1-0.9v-0.8
		c0-0.3,0-0.5,0-0.8c0-0.2,0.1-0.4,0.1-0.5c0.1-0.1,0.2-0.2,0.3-0.3s0.3-0.1,0.5-0.1h4.4v-8.6h5.2v12.7H192z M192.9,159.3
		c0-0.3,0.1-0.7,0.2-1c0.1-0.3,0.3-0.6,0.5-0.8c0.2-0.2,0.5-0.4,0.8-0.5c0.3-0.1,0.6-0.2,1-0.2s0.7,0.1,0.9,0.2
		c0.3,0.1,0.6,0.3,0.8,0.5c0.2,0.2,0.4,0.5,0.5,0.8c0.1,0.3,0.2,0.6,0.2,1c0,0.3-0.1,0.7-0.2,1c-0.1,0.3-0.3,0.6-0.5,0.8
		c-0.2,0.2-0.5,0.4-0.8,0.5c-0.3,0.1-0.6,0.2-0.9,0.2s-0.7-0.1-1-0.2c-0.3-0.1-0.6-0.3-0.8-0.5c-0.2-0.2-0.4-0.5-0.5-0.8
		C192.9,159.9,192.9,159.6,192.9,159.3z M198.8,159.3c0-0.3,0.1-0.7,0.2-1c0.1-0.3,0.3-0.6,0.5-0.8c0.2-0.2,0.5-0.4,0.8-0.5
		c0.3-0.1,0.6-0.2,0.9-0.2c0.3,0,0.7,0.1,0.9,0.2c0.3,0.1,0.6,0.3,0.8,0.5c0.2,0.2,0.4,0.5,0.5,0.8c0.1,0.3,0.2,0.6,0.2,1
		c0,0.3-0.1,0.7-0.2,1c-0.1,0.3-0.3,0.6-0.5,0.8c-0.2,0.2-0.5,0.4-0.8,0.5c-0.3,0.1-0.6,0.2-0.9,0.2c-0.3,0-0.7-0.1-0.9-0.2
		c-0.3-0.1-0.6-0.3-0.8-0.5c-0.2-0.2-0.4-0.5-0.5-0.8C198.8,159.9,198.8,159.6,198.8,159.3z"/>
	<path d="M204.5,153.9v-4.1h6c0.4,0,0.8,0,1.1-0.1c0.3-0.1,0.5-0.2,0.7-0.4c0.2-0.2,0.3-0.3,0.3-0.5c0.1-0.2,0.1-0.4,0.1-0.6
		c0-0.3-0.2-0.7-0.5-1.2c-0.3-0.5-0.7-0.9-1.2-1.5c-0.5-0.5-1-1-1.7-1.6s-1.2-1-1.9-1.5l3.6-3.5c1,0.8,1.9,1.6,2.6,2.5
		c0.8,0.8,1.4,1.6,2,2.4c0.5,0.8,1,1.5,1.3,2.2c0.3,0.7,0.4,1.4,0.4,2.1c0,0.2,0,0.3,0,0.5c0,0.2,0,0.3,0,0.5
		c0.5,0.3,1.1,0.5,1.6,0.6c0.6,0.1,1.1,0.2,1.7,0.2h0.1c0.2,0,0.4,0,0.5,0.1c0.1,0.1,0.2,0.2,0.3,0.3c0.1,0.1,0.1,0.3,0.1,0.5
		c0,0.2,0,0.5,0,0.8v0.8c0,0.4,0,0.7,0,0.9c0,0.2-0.1,0.4-0.2,0.5c-0.1,0.1-0.2,0.2-0.3,0.2c-0.1,0-0.3,0.1-0.5,0.1h-0.1
		c-0.8,0-1.6-0.2-2.4-0.5c-0.8-0.3-1.5-0.8-2.2-1.4c-0.5,0.6-1.3,1.1-2.2,1.4c-0.9,0.4-2.1,0.5-3.5,0.5H204.5z"/>
	<path d="M229.9,149.8c-0.1-0.2-0.2-0.4-0.2-0.6c-0.1-0.2-0.1-0.5-0.2-0.7c-0.1-0.5-0.2-1-0.3-1.4c-0.1-0.5-0.3-0.9-0.5-1.2
		c-0.2-0.4-0.5-0.6-0.9-0.8c-0.4-0.2-0.9-0.3-1.6-0.3c-0.1,0-0.3,0-0.5,0c-0.2,0-0.5,0-0.8,0.1c-0.3,0-0.7,0.1-1.1,0.2
		c-0.4,0.1-0.8,0.2-1.3,0.3v-3.8c0.9-0.2,1.7-0.4,2.5-0.6c0.8-0.2,1.7-0.3,2.5-0.3c0.9,0,1.8,0.1,2.5,0.4c0.7,0.2,1.4,0.6,1.9,1.1
		c0.5,0.5,1,1,1.3,1.7c0.3,0.7,0.6,1.4,0.7,2.2c0.1,0.5,0.1,0.9,0.2,1.4c0.1,0.5,0.2,0.9,0.4,1.3c0.2,0.4,0.4,0.7,0.6,0.9
		c0.3,0.2,0.6,0.4,1,0.4c0.2,0,0.4,0,0.5,0.1c0.1,0.1,0.2,0.2,0.3,0.3c0.1,0.1,0.1,0.3,0.1,0.5c0,0.2,0,0.5,0,0.8v0.8
		c0,0.4,0,0.7,0,0.9c0,0.2-0.1,0.4-0.2,0.5c-0.1,0.1-0.2,0.2-0.3,0.2c-0.1,0-0.3,0.1-0.5,0.1h-15.7c-0.2,0-0.3,0-0.5-0.1
		c-0.1,0-0.2-0.1-0.3-0.2c-0.1-0.1-0.1-0.3-0.2-0.5s-0.1-0.5-0.1-0.9v-0.8c0-0.3,0-0.5,0-0.8c0-0.2,0.1-0.4,0.1-0.5
		c0.1-0.1,0.2-0.2,0.3-0.3c0.1-0.1,0.3-0.1,0.5-0.1H229.9z"/>
	<path d="M241.8,149.8c0.2,0,0.4,0,0.5,0.1c0.1,0.1,0.2,0.2,0.3,0.3c0.1,0.1,0.1,0.3,0.1,0.5c0,0.2,0,0.5,0,0.8v0.8
		c0,0.4,0,0.7-0.1,0.9c0,0.2-0.1,0.4-0.2,0.5c-0.1,0.1-0.2,0.2-0.3,0.2c-0.1,0-0.3,0.1-0.5,0.1h-5.5c-0.2,0-0.3,0-0.5-0.1
		c-0.1,0-0.2-0.1-0.3-0.2c-0.1-0.1-0.1-0.3-0.2-0.5c0-0.2-0.1-0.5-0.1-0.9v-0.8c0-0.3,0-0.5,0-0.8c0-0.2,0.1-0.4,0.1-0.5
		c0.1-0.1,0.2-0.2,0.3-0.3c0.1-0.1,0.3-0.1,0.5-0.1H241.8z"/>
	<path d="M241.8,153.9c-0.2,0-0.3,0-0.5-0.1c-0.1,0-0.2-0.1-0.3-0.2c-0.1-0.1-0.1-0.3-0.2-0.5c0-0.2-0.1-0.5-0.1-0.9v-0.8
		c0-0.3,0-0.5,0-0.8c0-0.2,0.1-0.4,0.1-0.5c0.1-0.1,0.2-0.2,0.3-0.3s0.3-0.1,0.5-0.1h2.9v-16.7h5.2v20.8H241.8z"/>
	<path d="M254.2,133.1h5.2v20.8h-5.2V133.1z"/>
	<path d="M292.1,149.8v-8.6h5.2v12.7h-17.5c-1.3,0-2.4-0.1-3.3-0.2c-0.9-0.1-1.7-0.3-2.4-0.6c-0.7-0.3-1.2-0.6-1.7-1
		c-0.4-0.4-0.8-0.8-1-1.2c-0.3-0.4-0.4-0.9-0.5-1.4c-0.1-0.5-0.2-1-0.2-1.6c0-0.2,0-0.4,0-0.7s0.1-0.6,0.1-0.9
		c0-0.3,0.1-0.7,0.2-1.1c0.1-0.4,0.1-0.7,0.2-1c0.8,0.1,1.6,0.1,2.3,0.2c0.8,0.1,1.6,0.1,2.3,0.2c-0.1,0.5-0.2,1-0.2,1.4
		c0,0.4-0.1,0.8-0.1,1c0,0.5,0.1,0.9,0.2,1.2c0.1,0.3,0.4,0.6,0.8,0.9c0.4,0.2,0.9,0.4,1.6,0.5c0.7,0.1,1.5,0.2,2.6,0.2H292.1z
		 M279.6,134.8c0-0.3,0.1-0.7,0.2-1c0.1-0.3,0.3-0.6,0.5-0.8c0.2-0.2,0.5-0.4,0.8-0.5c0.3-0.1,0.6-0.2,1-0.2c0.3,0,0.7,0.1,0.9,0.2
		c0.3,0.1,0.6,0.3,0.8,0.5c0.2,0.2,0.4,0.5,0.5,0.8c0.1,0.3,0.2,0.6,0.2,1c0,0.3-0.1,0.7-0.2,1c-0.1,0.3-0.3,0.6-0.5,0.8
		c-0.2,0.2-0.5,0.4-0.8,0.5c-0.3,0.1-0.6,0.2-0.9,0.2c-0.3,0-0.7-0.1-1-0.2c-0.3-0.1-0.6-0.3-0.8-0.5c-0.2-0.2-0.4-0.5-0.5-0.8
		C279.7,135.4,279.6,135.1,279.6,134.8z M285.6,134.8c0-0.3,0.1-0.7,0.2-1c0.1-0.3,0.3-0.6,0.5-0.8c0.2-0.2,0.5-0.4,0.8-0.5
		c0.3-0.1,0.6-0.2,0.9-0.2c0.3,0,0.7,0.1,0.9,0.2c0.3,0.1,0.6,0.3,0.8,0.5c0.2,0.2,0.4,0.5,0.5,0.8c0.1,0.3,0.2,0.6,0.2,1
		c0,0.3-0.1,0.7-0.2,1c-0.1,0.3-0.3,0.6-0.5,0.8c-0.2,0.2-0.5,0.4-0.8,0.5c-0.3,0.1-0.6,0.2-0.9,0.2c-0.3,0-0.7-0.1-0.9-0.2
		c-0.3-0.1-0.6-0.3-0.8-0.5c-0.2-0.2-0.4-0.5-0.5-0.8C285.6,135.4,285.6,135.1,285.6,134.8z"/>
	<path d="M320.4,148.7c0,0.1,0,0.1,0,0.2c0,0.1,0,0.1,0,0.2c0.5,0.3,1.1,0.5,1.7,0.6c0.6,0.1,1.2,0.2,1.7,0.2h0.1
		c0.2,0,0.4,0,0.5,0.1c0.1,0.1,0.2,0.2,0.3,0.3c0.1,0.1,0.1,0.3,0.1,0.5c0,0.2,0,0.5,0,0.8v0.8c0,0.4,0,0.7-0.1,0.9
		s-0.1,0.4-0.2,0.5c-0.1,0.1-0.2,0.2-0.3,0.2c-0.1,0-0.3,0.1-0.5,0.1h-0.1c-0.7,0-1.5-0.2-2.2-0.5c-0.8-0.3-1.5-0.7-2.1-1.3
		c-0.4,0.5-0.9,1-1.5,1.3c-0.6,0.3-1.5,0.5-2.5,0.5h-14.2v-4.1h4.8v-10.6h5.2v10.6h2.9c0.4,0,0.7-0.1,0.9-0.3
		c0.2-0.2,0.3-0.6,0.3-1.1v-15.3h5.2V148.7z"/>
	<path d="M329.4,149.8c0.2,0,0.4,0,0.5,0.1c0.1,0.1,0.2,0.2,0.3,0.3c0.1,0.1,0.1,0.3,0.1,0.5c0,0.2,0,0.5,0,0.8v0.8
		c0,0.4,0,0.7-0.1,0.9s-0.1,0.4-0.2,0.5c-0.1,0.1-0.2,0.2-0.3,0.2c-0.1,0-0.3,0.1-0.5,0.1h-5.5c-0.2,0-0.3,0-0.5-0.1
		c-0.1,0-0.2-0.1-0.3-0.2c-0.1-0.1-0.1-0.3-0.2-0.5s-0.1-0.5-0.1-0.9v-0.8c0-0.3,0-0.5,0-0.8c0-0.2,0.1-0.4,0.1-0.5
		c0.1-0.1,0.2-0.2,0.3-0.3c0.1-0.1,0.3-0.1,0.5-0.1H329.4z"/>
	<path d="M334.8,149.8c0.2,0,0.4,0,0.5,0.1c0.1,0.1,0.2,0.2,0.3,0.3c0.1,0.1,0.1,0.3,0.1,0.5c0,0.2,0,0.5,0,0.8v0.8
		c0,0.4,0,0.7-0.1,0.9s-0.1,0.4-0.2,0.5c-0.1,0.1-0.2,0.2-0.3,0.2c-0.1,0-0.3,0.1-0.5,0.1h-5.5c-0.2,0-0.3,0-0.5-0.1
		c-0.1,0-0.2-0.1-0.3-0.2c-0.1-0.1-0.1-0.3-0.2-0.5c0-0.2-0.1-0.5-0.1-0.9v-0.8c0-0.3,0-0.5,0-0.8c0-0.2,0.1-0.4,0.1-0.5
		c0.1-0.1,0.2-0.2,0.3-0.3c0.1-0.1,0.3-0.1,0.5-0.1H334.8z"/>
	<path d="M337.4,149.8c-0.1-0.2-0.1-0.4-0.2-0.6c-0.1-0.2-0.1-0.4-0.2-0.6c0-0.2-0.1-0.4-0.1-0.6c0-0.2,0-0.4,0-0.6
		c0-1.1,0.2-2,0.6-2.9c0.4-0.8,0.9-1.5,1.6-2.1c0.7-0.6,1.5-1,2.4-1.3c0.9-0.3,1.9-0.4,3-0.4c1,0,2,0.2,2.9,0.5
		c0.9,0.3,1.6,0.7,2.2,1.3c0.6,0.6,1.1,1.3,1.4,2.1c0.3,0.8,0.5,1.7,0.5,2.8v6.7h-16.6c-0.2,0-0.3,0-0.5-0.1c-0.1,0-0.2-0.1-0.3-0.2
		c-0.1-0.1-0.1-0.3-0.2-0.5s-0.1-0.5-0.1-0.9v-0.8c0-0.3,0-0.5,0-0.8c0-0.2,0.1-0.4,0.1-0.5c0.1-0.1,0.2-0.2,0.3-0.3
		c0.1-0.1,0.3-0.1,0.5-0.1H337.4z M341.5,134.8c0-0.3,0.1-0.7,0.2-1c0.1-0.3,0.3-0.6,0.5-0.8c0.2-0.2,0.5-0.4,0.8-0.5
		c0.3-0.1,0.6-0.2,1-0.2c0.3,0,0.7,0.1,0.9,0.2c0.3,0.1,0.6,0.3,0.8,0.5c0.2,0.2,0.4,0.5,0.5,0.8c0.1,0.3,0.2,0.6,0.2,1
		c0,0.3-0.1,0.7-0.2,1c-0.1,0.3-0.3,0.6-0.5,0.8c-0.2,0.2-0.5,0.4-0.8,0.5c-0.3,0.1-0.6,0.2-0.9,0.2c-0.3,0-0.7-0.1-1-0.2
		c-0.3-0.1-0.6-0.3-0.8-0.5c-0.2-0.2-0.4-0.5-0.5-0.8C341.6,135.4,341.5,135.1,341.5,134.8z M346.2,149.8v-2c0-0.6-0.1-1-0.2-1.4
		c-0.1-0.4-0.3-0.7-0.5-0.9c-0.2-0.2-0.4-0.4-0.7-0.5c-0.3-0.1-0.5-0.1-0.7-0.1c-0.3,0-0.5,0-0.8,0.1c-0.3,0.1-0.5,0.2-0.7,0.4
		c-0.2,0.2-0.4,0.4-0.5,0.7c-0.1,0.3-0.2,0.6-0.2,1.1c0,0.3,0.1,0.7,0.2,1c0.1,0.3,0.3,0.6,0.5,0.8s0.5,0.4,0.8,0.5
		c0.3,0.1,0.7,0.2,1.1,0.2H346.2z"/>
	<path d="M355.5,133.1h5.2v14.7c0,0.7,0.1,1.2,0.4,1.5c0.2,0.3,0.6,0.5,1.2,0.5h1.7c0.2,0,0.4,0,0.5,0.1c0.1,0.1,0.2,0.2,0.3,0.3
		c0.1,0.1,0.1,0.3,0.1,0.5c0,0.2,0,0.5,0,0.8v0.8c0,0.4,0,0.7-0.1,0.9s-0.1,0.4-0.2,0.5c-0.1,0.1-0.2,0.2-0.3,0.2
		c-0.1,0-0.3,0.1-0.5,0.1h-3.1c-0.9,0-1.7-0.1-2.4-0.3c-0.7-0.2-1.2-0.6-1.7-1c-0.4-0.4-0.7-1-0.9-1.7c-0.2-0.7-0.3-1.4-0.3-2.2
		V133.1z"/>
	<path d="M373.1,149.8c-0.1-0.2-0.2-0.4-0.2-0.6c-0.1-0.2-0.1-0.5-0.2-0.7c-0.1-0.5-0.2-1-0.3-1.4c-0.1-0.5-0.3-0.9-0.5-1.2
		c-0.2-0.4-0.5-0.6-0.9-0.8c-0.4-0.2-0.9-0.3-1.6-0.3c-0.1,0-0.3,0-0.5,0c-0.2,0-0.5,0-0.8,0.1c-0.3,0-0.7,0.1-1.1,0.2
		c-0.4,0.1-0.8,0.2-1.3,0.3v-3.8c0.9-0.2,1.7-0.4,2.5-0.6c0.8-0.2,1.7-0.3,2.5-0.3c0.9,0,1.8,0.1,2.5,0.4c0.7,0.2,1.4,0.6,1.9,1.1
		c0.5,0.5,1,1,1.3,1.7c0.3,0.7,0.6,1.4,0.7,2.2c0.1,0.5,0.1,0.9,0.2,1.4c0.1,0.5,0.2,0.9,0.4,1.3c0.2,0.4,0.4,0.7,0.6,0.9
		c0.3,0.2,0.6,0.4,1,0.4c0.2,0,0.4,0,0.5,0.1c0.1,0.1,0.2,0.2,0.3,0.3c0.1,0.1,0.1,0.3,0.1,0.5c0,0.2,0,0.5,0,0.8v0.8
		c0,0.4,0,0.7,0,0.9c0,0.2-0.1,0.4-0.2,0.5c-0.1,0.1-0.2,0.2-0.3,0.2c-0.1,0-0.3,0.1-0.5,0.1h-15.7c-0.2,0-0.3,0-0.5-0.1
		c-0.1,0-0.2-0.1-0.3-0.2c-0.1-0.1-0.1-0.3-0.2-0.5c0-0.2-0.1-0.5-0.1-0.9v-0.8c0-0.3,0-0.5,0-0.8c0-0.2,0.1-0.4,0.1-0.5
		c0.1-0.1,0.2-0.2,0.3-0.3c0.1-0.1,0.3-0.1,0.5-0.1H373.1z"/>
	<path d="M385,149.8c0.2,0,0.4,0,0.5,0.1c0.1,0.1,0.2,0.2,0.3,0.3c0.1,0.1,0.1,0.3,0.1,0.5c0,0.2,0,0.5,0,0.8v0.8
		c0,0.4,0,0.7-0.1,0.9s-0.1,0.4-0.2,0.5c-0.1,0.1-0.2,0.2-0.3,0.2c-0.1,0-0.3,0.1-0.5,0.1h-5.5c-0.2,0-0.3,0-0.5-0.1
		c-0.1,0-0.2-0.1-0.3-0.2c-0.1-0.1-0.1-0.3-0.2-0.5c0-0.2-0.1-0.5-0.1-0.9v-0.8c0-0.3,0-0.5,0-0.8c0-0.2,0.1-0.4,0.1-0.5
		c0.1-0.1,0.2-0.2,0.3-0.3c0.1-0.1,0.3-0.1,0.5-0.1H385z"/>
	<path d="M390.5,149.8c0.2,0,0.4,0,0.5,0.1c0.1,0.1,0.2,0.2,0.3,0.3c0.1,0.1,0.1,0.3,0.1,0.5c0,0.2,0,0.5,0,0.8v0.8
		c0,0.4,0,0.7-0.1,0.9s-0.1,0.4-0.2,0.5c-0.1,0.1-0.2,0.2-0.3,0.2c-0.1,0-0.3,0.1-0.5,0.1H385c-0.2,0-0.3,0-0.5-0.1
		c-0.1,0-0.2-0.1-0.3-0.2c-0.1-0.1-0.1-0.3-0.2-0.5s-0.1-0.5-0.1-0.9v-0.8c0-0.3,0-0.5,0-0.8c0-0.2,0.1-0.4,0.1-0.5
		c0.1-0.1,0.2-0.2,0.3-0.3c0.1-0.1,0.3-0.1,0.5-0.1H390.5z"/>
	<path d="M390.5,153.9c-0.2,0-0.3,0-0.5-0.1c-0.1,0-0.2-0.1-0.3-0.2c-0.1-0.1-0.1-0.3-0.2-0.5c0-0.2-0.1-0.5-0.1-0.9v-0.8
		c0-0.3,0-0.5,0-0.8c0-0.2,0.1-0.4,0.1-0.5c0.1-0.1,0.2-0.2,0.3-0.3s0.3-0.1,0.5-0.1h2.9v-16.7h5.2v20.8H390.5z"/>
	<path d="M402.9,133.1h5.2v20.8h-5.2V133.1z"/>
	<path d="M433.7,148.7c0,0.2,0,0.4,0,0.5c0,0.1,0.1,0.3,0.1,0.3c0.1,0.1,0.1,0.1,0.2,0.2c0.1,0,0.2,0.1,0.4,0.1h2.3
		c0.2,0,0.4,0,0.5,0.1c0.1,0.1,0.2,0.2,0.3,0.3c0.1,0.1,0.1,0.3,0.1,0.5c0,0.2,0,0.5,0,0.8v0.8c0,0.4,0,0.7-0.1,0.9
		s-0.1,0.4-0.2,0.5c-0.1,0.1-0.2,0.2-0.3,0.2c-0.1,0-0.3,0.1-0.5,0.1h-3c-0.6,0-1.2,0-1.7-0.1c-0.5-0.1-0.9-0.2-1.3-0.3
		c-0.4-0.1-0.7-0.3-0.9-0.5c-0.3-0.2-0.5-0.4-0.6-0.7c-0.6,0.2-1.2,0.4-1.7,0.5c-0.6,0.1-1.1,0.2-1.7,0.2c-0.7,0-1.5-0.1-2.2-0.3
		c-0.8-0.2-1.4-0.5-2.1-0.9c-0.6-0.4-1.1-0.9-1.5-1.6c-0.4-0.6-0.6-1.4-0.6-2.3c0-0.7,0.1-1.4,0.4-2c0.3-0.6,0.7-1.1,1.1-1.6
		c0.5-0.5,1-0.9,1.6-1.3c0.6-0.4,1.3-0.7,1.9-1c0.7-0.3,1.4-0.5,2-0.7c0.7-0.2,1.3-0.4,2-0.5c0-0.3,0-0.6,0-0.9s0-0.6,0-0.9h5.2
		V148.7z M423.3,134c0-0.3,0.1-0.7,0.2-1c0.1-0.3,0.3-0.6,0.5-0.8c0.2-0.2,0.5-0.4,0.8-0.5c0.3-0.1,0.6-0.2,1-0.2
		c0.3,0,0.7,0.1,0.9,0.2c0.3,0.1,0.6,0.3,0.8,0.5c0.2,0.2,0.4,0.5,0.5,0.8c0.1,0.3,0.2,0.6,0.2,1s-0.1,0.7-0.2,1
		c-0.1,0.3-0.3,0.6-0.5,0.8c-0.2,0.2-0.5,0.4-0.8,0.5c-0.3,0.1-0.6,0.2-0.9,0.2c-0.3,0-0.7-0.1-1-0.2c-0.3-0.1-0.6-0.3-0.8-0.5
		c-0.2-0.2-0.4-0.5-0.5-0.8C423.4,134.6,423.3,134.3,423.3,134z M428.5,144.7c-0.6,0.2-1.2,0.3-1.7,0.5c-0.5,0.2-0.9,0.4-1.3,0.7
		c-0.4,0.2-0.6,0.5-0.8,0.8c-0.2,0.3-0.3,0.6-0.3,1c0,0.4,0.2,0.7,0.5,1c0.3,0.2,0.8,0.4,1.3,0.4c0.4,0,0.8,0,1.2-0.1
		c0.4-0.1,0.7-0.2,1.1-0.4L428.5,144.7z M429.2,134c0-0.3,0.1-0.7,0.2-1c0.1-0.3,0.3-0.6,0.5-0.8c0.2-0.2,0.5-0.4,0.8-0.5
		c0.3-0.1,0.6-0.2,0.9-0.2c0.3,0,0.7,0.1,0.9,0.2c0.3,0.1,0.6,0.3,0.8,0.5c0.2,0.2,0.4,0.5,0.5,0.8c0.1,0.3,0.2,0.6,0.2,1
		s-0.1,0.7-0.2,1c-0.1,0.3-0.3,0.6-0.5,0.8c-0.2,0.2-0.5,0.4-0.8,0.5c-0.3,0.1-0.6,0.2-0.9,0.2c-0.3,0-0.7-0.1-0.9-0.2
		c-0.3-0.1-0.6-0.3-0.8-0.5c-0.2-0.2-0.4-0.5-0.5-0.8C429.3,134.6,429.2,134.3,429.2,134z"/>
	<path d="M442.2,149.8c0.2,0,0.4,0,0.5,0.1c0.1,0.1,0.2,0.2,0.3,0.3c0.1,0.1,0.1,0.3,0.1,0.5c0,0.2,0,0.5,0,0.8v0.8
		c0,0.4,0,0.7-0.1,0.9c0,0.2-0.1,0.4-0.2,0.5c-0.1,0.1-0.2,0.2-0.3,0.2c-0.1,0-0.3,0.1-0.5,0.1h-5.5c-0.2,0-0.3,0-0.5-0.1
		c-0.1,0-0.2-0.1-0.3-0.2c-0.1-0.1-0.1-0.3-0.2-0.5s-0.1-0.5-0.1-0.9v-0.8c0-0.3,0-0.5,0-0.8c0-0.2,0.1-0.4,0.1-0.5
		c0.1-0.1,0.2-0.2,0.3-0.3c0.1-0.1,0.3-0.1,0.5-0.1H442.2z"/>
	<path d="M442.2,153.9c-0.2,0-0.3,0-0.5-0.1c-0.1,0-0.2-0.1-0.3-0.2c-0.1-0.1-0.1-0.3-0.2-0.5c0-0.2-0.1-0.5-0.1-0.9v-0.8
		c0-0.3,0-0.5,0-0.8c0-0.2,0.1-0.4,0.1-0.5c0.1-0.1,0.2-0.2,0.3-0.3s0.3-0.1,0.5-0.1h4.7c0.4,0,0.8,0,1.1-0.1
		c0.3-0.1,0.5-0.2,0.7-0.3c0.2-0.1,0.3-0.3,0.3-0.4c0.1-0.2,0.1-0.3,0.1-0.5c0-0.7-0.5-1.4-1.5-2.3c-1-0.9-2.4-1.8-4.3-2.9l6.9-11.1
		l4,2.5l-4.5,7.5c0.7,0.4,1.3,0.9,1.8,1.4c0.5,0.5,1,1,1.4,1.5c0.4,0.5,0.7,1.1,0.9,1.7c0.2,0.6,0.3,1.2,0.3,1.8
		c0,0.7-0.1,1.4-0.4,2.1c-0.3,0.7-0.7,1.2-1.2,1.7c-0.5,0.5-1.3,0.9-2.1,1.2c-0.9,0.3-1.9,0.4-3.1,0.4H442.2z"/>
	<path d="M455.7,156.2c0.8-0.2,1.5-0.4,2-0.7c0.5-0.3,0.8-0.7,1-1.1c0.2-0.4,0.4-0.9,0.4-1.3c0-0.5,0.1-1,0.1-1.6v-10.2h5.2v8.6h3.1
		c0.2,0,0.4,0,0.5,0.1c0.1,0.1,0.2,0.2,0.3,0.3c0.1,0.1,0.1,0.3,0.1,0.5c0,0.2,0,0.5,0,0.8v0.8c0,0.4,0,0.7-0.1,0.9
		s-0.1,0.4-0.2,0.5c-0.1,0.1-0.2,0.2-0.3,0.2c-0.1,0-0.3,0.1-0.5,0.1h-3.4c-0.2,0.9-0.4,1.7-0.8,2.5c-0.4,0.7-0.9,1.4-1.5,1.9
		c-0.6,0.5-1.4,1-2.3,1.4c-0.9,0.4-1.9,0.7-3.1,0.9L455.7,156.2z"/>
	<path d="M473,149.8c0.2,0,0.4,0,0.5,0.1c0.1,0.1,0.2,0.2,0.3,0.3c0.1,0.1,0.1,0.3,0.1,0.5c0,0.2,0,0.5,0,0.8v0.8
		c0,0.4,0,0.7-0.1,0.9c0,0.2-0.1,0.4-0.2,0.5c-0.1,0.1-0.2,0.2-0.3,0.2c-0.1,0-0.3,0.1-0.5,0.1h-5.5c-0.2,0-0.3,0-0.5-0.1
		c-0.1,0-0.2-0.1-0.3-0.2c-0.1-0.1-0.1-0.3-0.2-0.5s-0.1-0.5-0.1-0.9v-0.8c0-0.3,0-0.5,0-0.8c0-0.2,0.1-0.4,0.1-0.5
		c0.1-0.1,0.2-0.2,0.3-0.3c0.1-0.1,0.3-0.1,0.5-0.1H473z"/>
	<path d="M494.6,149.8v-8.6h5.2v12.7h-5c-0.6,0-1.2,0-1.8-0.1c-0.5-0.1-1-0.2-1.4-0.3c-0.4-0.1-0.8-0.3-1.2-0.4
		c-0.4-0.2-0.7-0.4-1-0.6c-0.4,0.4-0.9,0.8-1.5,1c-0.6,0.2-1.3,0.4-2.2,0.4c-0.7,0-1.3,0-1.8-0.1c-0.5-0.1-1-0.2-1.5-0.3
		c-0.4-0.1-0.9-0.3-1.2-0.5c-0.4-0.2-0.7-0.4-1-0.6c-0.4,0.5-0.9,0.8-1.5,1.1s-1.4,0.4-2.3,0.4H473c-0.2,0-0.3,0-0.5-0.1
		c-0.1,0-0.2-0.1-0.3-0.2c-0.1-0.1-0.1-0.3-0.2-0.5s-0.1-0.5-0.1-0.9v-0.8c0-0.3,0-0.5,0-0.8c0-0.2,0.1-0.4,0.1-0.5
		c0.1-0.1,0.2-0.2,0.3-0.3c0.1-0.1,0.3-0.1,0.5-0.1h2c0.4,0,0.7-0.1,0.9-0.4c0.2-0.3,0.3-0.7,0.3-1.2V144h5.2v4.7c0,0.1,0,0.2,0,0.3
		c0,0.1,0,0.2,0,0.3c0.5,0.2,0.9,0.3,1.4,0.4c0.5,0.1,0.9,0.2,1.3,0.2c0.2,0,0.4,0,0.6-0.1c0.2,0,0.3-0.1,0.5-0.2
		c0.1-0.1,0.3-0.2,0.3-0.4c0.1-0.2,0.1-0.4,0.1-0.7v-5.7h5.2v5.9c0,0.1,0,0.2,0,0.3c0,0.1,0,0.2,0,0.3c0.4,0.1,0.8,0.3,1.2,0.3
		c0.4,0.1,0.8,0.1,1.2,0.1H494.6z M482.6,134.8c0-0.3,0.1-0.7,0.2-1c0.1-0.3,0.3-0.6,0.5-0.8c0.2-0.2,0.5-0.4,0.8-0.5
		c0.3-0.1,0.6-0.2,1-0.2c0.3,0,0.7,0.1,0.9,0.2c0.3,0.1,0.6,0.3,0.8,0.5c0.2,0.2,0.4,0.5,0.5,0.8c0.1,0.3,0.2,0.6,0.2,1
		c0,0.3-0.1,0.7-0.2,1c-0.1,0.3-0.3,0.6-0.5,0.8c-0.2,0.2-0.5,0.4-0.8,0.5c-0.3,0.1-0.6,0.2-0.9,0.2c-0.3,0-0.7-0.1-1-0.2
		c-0.3-0.1-0.6-0.3-0.8-0.5c-0.2-0.2-0.4-0.5-0.5-0.8C482.7,135.4,482.6,135.1,482.6,134.8z M485.5,129.2c0-0.3,0.1-0.7,0.2-1
		c0.1-0.3,0.3-0.6,0.5-0.8c0.2-0.2,0.5-0.4,0.8-0.5c0.3-0.1,0.6-0.2,0.9-0.2c0.3,0,0.7,0.1,0.9,0.2c0.3,0.1,0.6,0.3,0.8,0.5
		c0.2,0.2,0.4,0.5,0.5,0.8c0.1,0.3,0.2,0.6,0.2,1c0,0.3-0.1,0.7-0.2,1c-0.1,0.3-0.3,0.6-0.5,0.8c-0.2,0.2-0.5,0.4-0.8,0.5
		c-0.3,0.1-0.6,0.2-0.9,0.2c-0.3,0-0.7-0.1-0.9-0.2c-0.3-0.1-0.6-0.3-0.8-0.5c-0.2-0.2-0.4-0.5-0.5-0.8
		C485.6,129.9,485.5,129.6,485.5,129.2z M488.5,134.8c0-0.3,0.1-0.7,0.2-1c0.1-0.3,0.3-0.6,0.5-0.8c0.2-0.2,0.5-0.4,0.8-0.5
		c0.3-0.1,0.6-0.2,0.9-0.2s0.7,0.1,0.9,0.2c0.3,0.1,0.6,0.3,0.8,0.5c0.2,0.2,0.4,0.5,0.5,0.8c0.1,0.3,0.2,0.6,0.2,1
		c0,0.3-0.1,0.7-0.2,1c-0.1,0.3-0.3,0.6-0.5,0.8c-0.2,0.2-0.5,0.4-0.8,0.5c-0.3,0.1-0.6,0.2-0.9,0.2s-0.7-0.1-0.9-0.2
		c-0.3-0.1-0.6-0.3-0.8-0.5c-0.2-0.2-0.4-0.5-0.5-0.8C488.6,135.4,488.5,135.1,488.5,134.8z"/>
</g>
</svg>
