<?xml version="1.0" encoding="utf-8"?>
<!-- Generator: Adobe Illustrator 26.0.1, SVG Export Plug-In . SVG Version: 6.00 Build 0)  -->
<svg version="1.1" id="Layer_1" xmlns="http://www.w3.org/2000/svg" xmlns:xlink="http://www.w3.org/1999/xlink" x="0px" y="0px"
	 viewBox="0 0 292.9 339" style="enable-background:new 0 0 292.9 339;" xml:space="preserve">
<style type="text/css">
	.st0{fill:#12491D;}
	.st1{fill:none;stroke:#000000;stroke-width:2;stroke-miterlimit:10;}
	.st2{fill:#151011;}
	.st3{fill:none;stroke:#151011;stroke-miterlimit:10;}
</style>
<g>
	<g>
		<path d="M8.3,334.2l-4.2-7.4c-0.5-1-0.9-1.8-1.2-2.6c0.1,1.2,0.1,4.5,0.1,6.4v3.7H0.6v-13.5H4l4.1,7.3c0.5,0.8,0.9,1.8,1.3,2.7
			c-0.1-1.4-0.1-4.7-0.1-6.6v-3.4h2.5v13.5H8.3z"/>
		<path d="M19.8,334.2c0-0.6,0-1.2,0.1-1.7l0,0c-0.5,1.1-1.7,1.9-3.2,1.9c-1.8,0-2.8-1.2-2.8-2.8c0-2.4,2.3-3.5,5.7-3.5v-0.4
			c0-1.2-0.5-1.7-1.8-1.7c-0.9,0-2.1,0.3-3,0.7l-0.4-2c1-0.4,2.4-0.7,3.8-0.7c3.1,0,4,1.3,4,3.5v4.1c0,0.8,0,1.7,0.1,2.6H19.8z
			 M19.6,329.8c-2.6,0-3.3,0.6-3.3,1.5c0,0.6,0.5,1.2,1.2,1.2c1.2,0,2.1-1.2,2.1-2.4V329.8z"/>
		<path d="M28.2,334.4c-2.2,0-2.9-0.8-2.9-3.1v-5h-1.7v-2h1.7v-3.1l2.5-0.7v3.7h2.4v2h-2.4v4.4c0,1.3,0.3,1.6,1.2,1.6
			c0.4,0,0.8,0,1.1-0.1l0.2,2C29.7,334.3,28.9,334.4,28.2,334.4z"/>
		<path d="M33.6,322.8c-0.9,0-1.6-0.7-1.6-1.5c0-0.9,0.7-1.6,1.6-1.6c0.9,0,1.6,0.7,1.6,1.6C35.2,322.1,34.5,322.8,33.6,322.8z
			 M32.3,334.2v-9.9h2.6v9.9H32.3z"/>
		<path d="M41.6,334.4c-2.8,0-4.7-1.5-4.7-5c0-3.1,2.1-5.3,5.1-5.3c2.8,0,4.7,1.6,4.7,5C46.7,332.1,44.5,334.4,41.6,334.4z
			 M41.8,326.2c-1.1,0-2.3,0.9-2.3,2.9c0,2,0.8,3.1,2.2,3.1c1.3,0,2.2-1,2.2-3C44,327.2,43.3,326.2,41.8,326.2z"/>
		<path d="M54.8,334.2v-6.4c0-1-0.3-1.6-1.2-1.6c-1.3,0-2.3,1.5-2.3,3.2v4.8h-2.6v-9.9h2.4c0,0.5,0,1.3-0.1,1.8h0
			c0.6-1.2,1.8-2,3.4-2c2.2,0,3,1.4,3,3.2v7H54.8z"/>
		<path d="M65.4,334.2c0-0.6,0-1.2,0.1-1.7l0,0c-0.5,1.1-1.7,1.9-3.2,1.9c-1.8,0-2.8-1.2-2.8-2.8c0-2.4,2.3-3.5,5.7-3.5v-0.4
			c0-1.2-0.5-1.7-1.8-1.7c-0.9,0-2.1,0.3-3,0.7l-0.4-2c1-0.4,2.4-0.7,3.8-0.7c3.1,0,4,1.3,4,3.5v4.1c0,0.8,0,1.7,0.1,2.6H65.4z
			 M65.2,329.8c-2.6,0-3.3,0.6-3.3,1.5c0,0.6,0.5,1.2,1.2,1.2c1.2,0,2.1-1.2,2.1-2.4V329.8z"/>
		<path d="M70.6,334.2v-14.6h2.6v14.6H70.6z"/>
		<path d="M88.5,334.2l-0.9-2.8h-5.1l-0.9,2.8h-2.6l4.7-13.5h3.1l4.8,13.5H88.5z M85.6,325.3c-0.2-0.7-0.4-1.3-0.5-1.9h0
			c-0.2,0.6-0.3,1.2-0.5,1.9l-1.4,4h3.8L85.6,325.3z"/>
		<path d="M94.1,322.8c-0.9,0-1.6-0.7-1.6-1.5c0-0.9,0.7-1.6,1.6-1.6c0.9,0,1.6,0.7,1.6,1.6C95.7,322.1,95,322.8,94.1,322.8z
			 M92.8,334.2v-9.9h2.6v9.9H92.8z"/>
		<path d="M103.4,326.5c-1.8-0.4-2.8,0.8-2.8,3.6v4.1h-2.6v-9.9h2.4c0,0.5-0.1,1.3-0.2,2h0c0.5-1.3,1.4-2.4,3.2-2.2L103.4,326.5z"/>
		<path d="M109.1,334.3c-0.5,0-0.9,0-1.3-0.1v4.8h-2.6v-14.8h2.4c0,0.5,0,1.1-0.1,1.7h0c0.6-1.2,1.6-1.9,3.1-1.9
			c2.4,0,3.6,1.7,3.6,4.6C114.3,332.1,112.5,334.3,109.1,334.3z M109.9,326.1c-1.3,0-2.1,1.6-2.1,3.3v2.8c0.4,0.1,0.8,0.2,1.3,0.2
			c1.4,0,2.5-0.9,2.5-3.4C111.6,327.1,111.1,326.1,109.9,326.1z"/>
		<path d="M120.3,334.4c-2.8,0-4.7-1.5-4.7-5c0-3.1,2.1-5.3,5.1-5.3c2.8,0,4.7,1.6,4.7,5C125.4,332.1,123.3,334.4,120.3,334.4z
			 M120.6,326.2c-1.1,0-2.3,0.9-2.3,2.9c0,2,0.8,3.1,2.2,3.1c1.3,0,2.2-1,2.2-3C122.8,327.2,122.1,326.2,120.6,326.2z"/>
		<path d="M132.8,326.5c-1.8-0.4-2.8,0.8-2.8,3.6v4.1h-2.6v-9.9h2.4c0,0.5-0.1,1.3-0.2,2h0c0.5-1.3,1.4-2.4,3.2-2.2L132.8,326.5z"/>
		<path d="M138.2,334.4c-2.2,0-2.9-0.8-2.9-3.1v-5h-1.7v-2h1.7v-3.1l2.5-0.7v3.7h2.4v2h-2.4v4.4c0,1.3,0.3,1.6,1.2,1.6
			c0.4,0,0.8,0,1.1-0.1l0.2,2C139.8,334.3,138.9,334.4,138.2,334.4z"/>
		<path d="M150.5,334.3c-1.4,0-2.6-0.1-3.8-0.1v-13.5c1.1,0,2.7-0.1,4.4-0.1c4.2,0,6.8,1.9,6.8,6.6
			C158,331.8,154.9,334.3,150.5,334.3z M151,322.8c-0.6,0-1.2,0-1.6,0.1v9.1c0.4,0.1,0.9,0.1,1.4,0.1c2.5,0,4.4-1.4,4.4-4.6
			C155.2,324.5,154,322.8,151,322.8z"/>
		<path d="M168.1,329.7H162c0,1.8,0.8,2.7,2.7,2.7c0.9,0,1.9-0.2,2.9-0.6l0.3,1.9c-1.1,0.4-2.4,0.6-3.6,0.6c-3.1,0-4.9-1.6-4.9-5.1
			c0-3,1.8-5.3,4.7-5.3c2.9,0,4.1,1.9,4.1,4.2C168.2,328.6,168.2,329.3,168.1,329.7z M164,325.9c-1.1,0-1.8,0.8-2,2.1h3.7
			C165.7,326.6,165.1,325.9,164,325.9z"/>
		<path d="M175.4,334.2h-3l-3.4-9.9h2.8l1.6,4.8c0.3,0.9,0.5,1.7,0.6,2.5h0c0.2-0.8,0.3-1.5,0.6-2.5l1.6-4.8h2.7L175.4,334.2z"/>
		<path d="M188,329.7h-6.1c0,1.8,0.8,2.7,2.7,2.7c0.9,0,1.9-0.2,2.9-0.6l0.3,1.9c-1.1,0.4-2.4,0.6-3.6,0.6c-3.1,0-4.9-1.6-4.9-5.1
			c0-3,1.8-5.3,4.7-5.3c2.9,0,4.1,1.9,4.1,4.2C188.1,328.6,188.1,329.3,188,329.7z M183.8,325.9c-1.1,0-1.8,0.8-2,2.1h3.7
			C185.6,326.6,184.9,325.9,183.8,325.9z"/>
		<path d="M190.2,334.2v-14.6h2.6v14.6H190.2z"/>
		<path d="M199.5,334.4c-2.8,0-4.7-1.5-4.7-5c0-3.1,2.1-5.3,5.1-5.3c2.8,0,4.7,1.6,4.7,5C204.6,332.1,202.4,334.4,199.5,334.4z
			 M199.7,326.2c-1.1,0-2.3,0.9-2.3,2.9c0,2,0.8,3.1,2.2,3.1c1.3,0,2.2-1,2.2-3C201.9,327.2,201.2,326.2,199.7,326.2z"/>
		<path d="M210.4,334.3c-0.5,0-0.9,0-1.3-0.1v4.8h-2.6v-14.8h2.4c0,0.5,0,1.1-0.1,1.7h0c0.6-1.2,1.6-1.9,3.1-1.9
			c2.4,0,3.6,1.7,3.6,4.6C215.7,332.1,213.9,334.3,210.4,334.3z M211.3,326.1c-1.3,0-2.1,1.6-2.1,3.3v2.8c0.4,0.1,0.8,0.2,1.3,0.2
			c1.4,0,2.5-0.9,2.5-3.4C213,327.1,212.5,326.1,211.3,326.1z"/>
		<path d="M229.8,334.2v-6.3c0-1.1-0.2-1.7-1.2-1.7c-1.1,0-2.3,1.3-2.3,3.2v4.8h-2.5v-6.3c0-1-0.2-1.7-1.2-1.7
			c-1.2,0-2.3,1.4-2.3,3.2v4.8h-2.6v-9.9h2.4c0,0.5,0,1.2-0.1,1.8l0,0c0.6-1.2,1.8-2,3.3-2c1.8,0,2.5,1,2.7,2c0.5-1,1.6-2,3.2-2
			c1.9,0,3,1.1,3,3.3v6.8H229.8z"/>
		<path d="M243.1,329.7H237c0,1.8,0.8,2.7,2.7,2.7c0.9,0,1.9-0.2,2.9-0.6l0.3,1.9c-1.1,0.4-2.4,0.6-3.6,0.6c-3.1,0-4.9-1.6-4.9-5.1
			c0-3,1.8-5.3,4.7-5.3c2.9,0,4.1,1.9,4.1,4.2C243.2,328.6,243.2,329.3,243.1,329.7z M239,325.9c-1.1,0-1.8,0.8-2,2.1h3.7
			C240.7,326.6,240.1,325.9,239,325.9z"/>
		<path d="M251.5,334.2v-6.4c0-1-0.3-1.6-1.2-1.6c-1.3,0-2.3,1.5-2.3,3.2v4.8h-2.6v-9.9h2.4c0,0.5,0,1.3-0.1,1.8h0
			c0.6-1.2,1.8-2,3.4-2c2.2,0,3,1.4,3,3.2v7H251.5z"/>
		<path d="M260,334.4c-2.2,0-2.9-0.8-2.9-3.1v-5h-1.7v-2h1.7v-3.1l2.5-0.7v3.7h2.4v2h-2.4v4.4c0,1.3,0.3,1.6,1.2,1.6
			c0.4,0,0.8,0,1.1-0.1l0.2,2C261.5,334.3,260.7,334.4,260,334.4z"/>
		<path d="M274.2,334.3c-4.7,0-6.2-3.1-6.2-6.5c0-4.3,2.2-7.3,6.8-7.3c1,0,2,0.1,2.9,0.4l-0.4,2.4c-0.8-0.3-1.7-0.5-2.6-0.5
			c-2.5,0-3.8,1.9-3.8,4.5c0,2.9,1.2,4.6,3.9,4.6c0.8,0,1.9-0.2,2.6-0.6l0.4,2.3C276.7,334.1,275.4,334.3,274.2,334.3z"/>
		<path d="M283.4,334.4c-2.8,0-4.7-1.5-4.7-5c0-3.1,2.1-5.3,5.1-5.3c2.8,0,4.7,1.6,4.7,5C288.5,332.1,286.4,334.4,283.4,334.4z
			 M283.7,326.2c-1.1,0-2.3,0.9-2.3,2.9c0,2,0.8,3.1,2.2,3.1c1.3,0,2.2-1,2.2-3C285.9,327.2,285.2,326.2,283.7,326.2z"/>
		<path d="M291.3,334.4c-0.9,0-1.6-0.7-1.6-1.6c0-0.9,0.7-1.6,1.6-1.6c0.9,0,1.6,0.7,1.6,1.6C292.9,333.7,292.2,334.4,291.3,334.4z"
			/>
	</g>
	<g>
		<polygon class="st0" points="102.1,38.4 121.2,64.9 121.2,75.5 102.1,49 		"/>
		<polygon class="st0" points="167.7,129.6 167.7,140.2 131.1,89.3 131.1,78.7 		"/>
		<polygon class="st0" points="189.7,160.2 189.7,170.8 177.7,154 177.7,143.4 		"/>
		<g>
			<path d="M102.1,238.2v-30.9h6.1l12.7,20.7v-20.7h5.8v30.9h-6.3L107.9,218v20.2H102.1z"/>
			<path d="M161.2,238.2h-6.8l-2.7-7h-12.4l-2.6,7h-6.6l12-30.9h6.6L161.2,238.2z M149.7,225.9l-4.3-11.5l-4.2,11.5H149.7z"/>
			<path d="M164.5,207.2h11.4c2.6,0,4.5,0.2,5.9,0.6c1.8,0.5,3.4,1.5,4.7,2.8c1.3,1.4,2.3,3,3,5c0.7,2,1,4.4,1,7.3
				c0,2.5-0.3,4.7-1,6.6c-0.8,2.3-1.9,4.1-3.3,5.5c-1.1,1.1-2.5,1.9-4.4,2.5c-1.4,0.4-3.2,0.7-5.5,0.7h-11.8V207.2z M170.7,212.4
				v20.5h4.7c1.7,0,3-0.1,3.8-0.3c1-0.3,1.9-0.7,2.5-1.3c0.7-0.6,1.2-1.6,1.6-3s0.6-3.3,0.6-5.7s-0.2-4.2-0.6-5.5s-1-2.3-1.8-3
				s-1.7-1.2-2.9-1.5c-0.9-0.2-2.6-0.3-5.1-0.3H170.7z"/>
		</g>
		<polygon class="st0" points="101.9,65.3 101.9,197.7 107.7,197.7 107.7,84.4 184.7,190.5 189.5,197.7 189.5,187.2 		"/>
		<polygon class="st0" points="189.5,143.4 189.5,11 183.7,11 183.7,124.3 106.7,18.2 101.9,11 101.9,21.5 		"/>
		<rect x="89.4" y="1" class="st1" width="112.6" height="245.8"/>
	</g>
	<g>
		<path class="st2" d="M6.8,302.3c-0.6,0-1.1,0-1.5-0.1c-0.4-0.1-0.9-0.1-1.2-0.3c-0.4-0.1-0.7-0.3-1-0.5c-0.3-0.2-0.6-0.4-0.9-0.7
			c-0.5-0.4-0.8-1-1-1.7c-0.2-0.7-0.3-1.4-0.3-2.1v-3.5h2.6v3.2c0,0.6,0.1,1,0.2,1.4c0.1,0.4,0.3,0.7,0.6,0.9
			c0.3,0.3,0.7,0.5,1.2,0.6c0.5,0.1,1,0.1,1.5,0.1h5.1v-7.8h2.6v10.3H6.8z M6.9,291c-0.3,0.2-0.6,0.3-1,0.3s-0.7-0.1-1-0.3
			c-0.3-0.2-0.4-0.6-0.4-1c0-0.4,0.1-0.7,0.4-0.9c0.3-0.2,0.6-0.4,1-0.4c0.4,0,0.7,0.1,1,0.4c0.3,0.2,0.4,0.6,0.4,0.9
			C7.4,290.4,7.2,290.8,6.9,291z M10.9,291c-0.3,0.2-0.6,0.3-1,0.3s-0.7-0.1-1-0.3s-0.4-0.6-0.4-1c0-0.4,0.1-0.7,0.4-0.9
			c0.3-0.2,0.6-0.4,1-0.4c0.4,0,0.8,0.1,1,0.4c0.3,0.2,0.4,0.6,0.4,0.9C11.4,290.4,11.2,290.8,10.9,291z"/>
		<path class="st2" d="M18.2,287.4h2.6v14.9h-2.6V287.4z"/>
		<path class="st2" d="M24.2,306.3c-0.2,0-0.5,0-0.7,0c-0.2,0-0.4-0.1-0.6-0.1l-0.2-2.6c0.2,0.1,0.5,0.1,0.6,0.1c0.2,0,0.4,0,0.6,0
			c0.5,0,0.9-0.1,1.1-0.4c0.2-0.3,0.3-0.7,0.3-1.4v-10h2.6v9.6c0,0.8-0.1,1.5-0.2,2.1c-0.1,0.6-0.3,1.1-0.6,1.5s-0.7,0.7-1.1,0.9
			C25.5,306.2,24.9,306.3,24.2,306.3z"/>
		<path class="st2" d="M31.4,287.4H34v12.3h2.4v2.6h-4.9V287.4z"/>
		<path class="st2" d="M36,299.7h1.8v-12.3h2.6v5.5h5.6c0.8,0,1.6,0.1,2.2,0.3c0.6,0.2,1.2,0.6,1.6,1.1c0.4,0.4,0.7,0.9,0.8,1.6
			c0.2,0.6,0.2,1.3,0.2,2.1v1.8h2v2.6H36V299.7z M40.3,295.4v4.3h7.9v-1.9c0-0.4,0-0.7-0.1-1c-0.1-0.3-0.2-0.5-0.4-0.7
			c-0.2-0.2-0.4-0.4-0.7-0.5c-0.3-0.1-0.6-0.2-0.9-0.2H40.3z"/>
		<path class="st2" d="M52.5,299.7h1.8c0-0.2-0.1-0.4-0.1-0.6c0-0.2,0-0.4,0-0.6c0-0.8,0.1-1.5,0.4-2.2c0.3-0.7,0.7-1.3,1.2-1.8
			c0.5-0.5,1.1-0.9,1.7-1.2s1.4-0.4,2.1-0.4c0.8,0,1.5,0.1,2.2,0.4c0.7,0.3,1.3,0.7,1.8,1.2c0.5,0.5,0.9,1.1,1.2,1.8
			c0.3,0.7,0.4,1.4,0.4,2.2c0,0.2,0,0.4,0,0.6c0,0.2-0.1,0.4-0.1,0.6h2.1v2.6h-3.4c-0.5,0.6-1.1,1-1.8,1.3c-0.7,0.3-1.5,0.5-2.3,0.5
			c-0.8,0-1.5-0.2-2.2-0.5c-0.7-0.3-1.3-0.7-1.8-1.3h-3.1V299.7z M58.4,301.2c0.4,0.2,0.7,0.2,1.2,0.2s0.8-0.1,1.2-0.2
			c0.4-0.1,0.7-0.4,1-0.6c0.3-0.3,0.5-0.6,0.6-0.9c0.2-0.4,0.2-0.8,0.2-1.2s-0.1-0.8-0.2-1.2s-0.4-0.7-0.6-1s-0.6-0.5-1-0.6
			c-0.4-0.2-0.8-0.2-1.2-0.2c-0.4,0-0.8,0.1-1.2,0.2c-0.4,0.2-0.7,0.4-0.9,0.6s-0.5,0.6-0.6,1s-0.2,0.8-0.2,1.2
			c0,0.4,0.1,0.8,0.2,1.2s0.4,0.7,0.6,0.9C57.8,300.8,58.1,301,58.4,301.2z"/>
		<path class="st2" d="M66.8,299.7h1.8v-12.3h3.8v2.6h-1.2v12.3h-4.4V299.7z"/>
		<path class="st2" d="M75.4,287.4H78v14.9h-2.6V287.4z"/>
		<path class="st2" d="M86.9,306.3c-0.2,0-0.5,0-0.7,0c-0.2,0-0.4-0.1-0.6-0.1l-0.2-2.6c0.2,0.1,0.5,0.1,0.6,0.1c0.2,0,0.4,0,0.6,0
			c0.5,0,0.9-0.1,1.1-0.4c0.2-0.3,0.3-0.7,0.3-1.4v-10h2.6v7.8h2v2.6h-2c-0.1,1.4-0.4,2.5-1,3.1C89.1,306,88.2,306.3,86.9,306.3z"/>
		<path class="st2" d="M92.3,299.7h3.8v-7.8h2.6v10.3h-6.4V299.7z M95.3,305.8c-0.3,0.2-0.6,0.3-1,0.3c-0.4,0-0.7-0.1-1-0.3
			s-0.4-0.5-0.4-1c0-0.4,0.1-0.7,0.4-1c0.3-0.2,0.6-0.4,1-0.4c0.4,0,0.7,0.1,1,0.4s0.4,0.6,0.4,1C95.7,305.3,95.6,305.6,95.3,305.8z
			 M99.3,305.8c-0.3,0.2-0.6,0.3-1,0.3s-0.7-0.1-1-0.3c-0.3-0.2-0.4-0.5-0.4-1c0-0.4,0.1-0.7,0.4-1c0.3-0.2,0.6-0.4,1-0.4
			c0.4,0,0.8,0.1,1,0.4s0.4,0.6,0.4,1C99.7,305.3,99.6,305.6,99.3,305.8z"/>
		<path class="st2" d="M110.3,299.7h1.7v2.6h-1.7c0,0.6-0.2,1.1-0.3,1.6c-0.2,0.5-0.5,0.9-0.8,1.3c-0.4,0.4-0.8,0.6-1.4,0.8
			s-1.3,0.3-2.1,0.3c-0.2,0-0.5,0-0.7,0c-0.2,0-0.4,0-0.6-0.1c-0.2,0-0.4-0.1-0.6-0.1l-0.8-0.2l-0.2-2.6c0.5,0.2,1,0.3,1.4,0.3
			c0.4,0.1,0.9,0.1,1.3,0.1c0.4,0,0.7,0,0.9,0c0.3,0,0.5-0.1,0.7-0.2c0.2-0.1,0.3-0.3,0.5-0.5c0.1-0.2,0.2-0.5,0.2-0.8h-0.3
			c-0.9,0-1.7-0.1-2.5-0.3s-1.4-0.5-2-0.9c-0.6-0.4-1-1-1.3-1.6c-0.3-0.7-0.5-1.4-0.5-2.4c0-0.8,0.2-1.5,0.5-2.2s0.7-1.2,1.3-1.6
			c0.6-0.4,1.2-0.8,2-1c0.8-0.2,1.6-0.4,2.5-0.4h2.9L110.3,299.7z M103.6,297.1c0,0.4,0.1,0.8,0.2,1.1c0.2,0.3,0.4,0.6,0.6,0.8
			c0.3,0.2,0.6,0.4,0.9,0.5c0.4,0.1,0.8,0.2,1.2,0.2h1.1v-5.2h-1.1c-0.4,0-0.8,0.1-1.1,0.2c-0.4,0.1-0.7,0.3-1,0.5
			c-0.3,0.2-0.5,0.5-0.7,0.8C103.7,296.3,103.6,296.7,103.6,297.1z"/>
		<path class="st2" d="M111.6,299.7h1.8v-12.3h2.6v5.5h5.6c0.8,0,1.6,0.1,2.2,0.3c0.6,0.2,1.2,0.6,1.6,1.1c0.4,0.4,0.7,0.9,0.8,1.6
			c0.2,0.6,0.2,1.3,0.2,2.1v1.8h2v2.6h-16.8V299.7z M116,295.4v4.3h7.9v-1.9c0-0.4,0-0.7-0.1-1c-0.1-0.3-0.2-0.5-0.4-0.7
			c-0.2-0.2-0.4-0.4-0.7-0.5c-0.3-0.1-0.6-0.2-0.9-0.2H116z"/>
		<path class="st2" d="M128.1,299.7h3.8v-7.8h2.6v7.8h3.4v2.6h-9.8V299.7z M132.1,290c-0.3,0.2-0.6,0.3-1,0.3s-0.7-0.1-1-0.3
			c-0.3-0.2-0.4-0.6-0.4-1c0-0.4,0.1-0.7,0.4-0.9c0.3-0.2,0.6-0.4,1-0.4s0.7,0.1,1,0.4c0.3,0.2,0.4,0.6,0.4,0.9
			C132.6,289.5,132.4,289.8,132.1,290z M136.1,290c-0.3,0.2-0.6,0.3-1,0.3s-0.7-0.1-1-0.3s-0.4-0.6-0.4-1c0-0.4,0.1-0.7,0.4-0.9
			c0.3-0.2,0.6-0.4,1-0.4c0.4,0,0.8,0.1,1,0.4c0.3,0.2,0.4,0.6,0.4,0.9C136.6,289.5,136.4,289.8,136.1,290z"/>
		<path class="st2" d="M137.5,299.7h1.8v-12.3h3.8v2.6h-1.2v12.3h-4.4V299.7z"/>
		<path class="st2" d="M161.3,299.7v2.6h-4.6c-0.9,0-1.8-0.1-2.5-0.3c-0.8-0.2-1.4-0.5-2-1s-1-1-1.3-1.6s-0.5-1.4-0.5-2.3
			c0-0.7,0.1-1.4,0.4-2.1c0.3-0.6,0.7-1.2,1.2-1.6c0.5-0.5,1.2-0.8,2-1.1c0.8-0.3,1.7-0.4,2.7-0.4h0.4V291h2.6v8.7H161.3z
			 M155.1,289.3c-0.3,0.2-0.6,0.3-1,0.3c-0.4,0-0.7-0.1-1-0.3c-0.3-0.2-0.4-0.6-0.4-1c0-0.4,0.1-0.7,0.4-0.9c0.3-0.2,0.6-0.4,1-0.4
			s0.7,0.1,1,0.4c0.3,0.2,0.4,0.6,0.4,0.9C155.5,288.7,155.4,289.1,155.1,289.3z M157,299.7v-5.2h-1c-0.4,0-0.8,0.1-1.1,0.2
			s-0.7,0.3-1,0.5c-0.3,0.2-0.5,0.5-0.7,0.8c-0.2,0.3-0.3,0.7-0.3,1.1c0,0.4,0.1,0.8,0.2,1.1c0.2,0.3,0.4,0.6,0.7,0.8
			c0.3,0.2,0.6,0.4,0.9,0.5c0.4,0.1,0.7,0.2,1.1,0.2H157z M159.1,289.3c-0.3,0.2-0.6,0.3-1,0.3s-0.7-0.1-1-0.3
			c-0.3-0.2-0.4-0.6-0.4-1c0-0.4,0.1-0.7,0.4-0.9c0.3-0.2,0.6-0.4,1-0.4c0.4,0,0.8,0.1,1,0.4c0.3,0.2,0.4,0.6,0.4,0.9
			C159.5,288.7,159.3,289.1,159.1,289.3z"/>
		<path class="st2" d="M160.9,299.7h3.8v-7.8h2.6v7.8h3.4v2.6h-9.8V299.7z M164.9,305.8c-0.3,0.2-0.6,0.3-1,0.3
			c-0.4,0-0.7-0.1-1-0.3c-0.3-0.2-0.4-0.5-0.4-1c0-0.4,0.1-0.7,0.4-1c0.3-0.2,0.6-0.4,1-0.4s0.7,0.1,1,0.4s0.4,0.6,0.4,1
			C165.4,305.3,165.2,305.6,164.9,305.8z M168.9,305.8c-0.3,0.2-0.6,0.3-1,0.3c-0.4,0-0.7-0.1-1-0.3c-0.3-0.2-0.4-0.5-0.4-1
			c0-0.4,0.1-0.7,0.4-1c0.3-0.2,0.6-0.4,1-0.4c0.4,0,0.8,0.1,1,0.4s0.4,0.6,0.4,1C169.4,305.3,169.2,305.6,168.9,305.8z"/>
		<path class="st2" d="M170.4,299.7h2.3v-7.8h2.6v7.8h2v2.6h-6.8V299.7z M174.9,290c-0.3,0.2-0.7,0.3-1.1,0.3s-0.8-0.1-1.1-0.3
			c-0.3-0.2-0.5-0.6-0.5-1c0-0.4,0.1-0.7,0.4-1s0.6-0.4,1.1-0.4s0.8,0.1,1.1,0.4c0.3,0.3,0.4,0.6,0.4,1
			C175.4,289.4,175.2,289.8,174.9,290z"/>
		<path class="st2" d="M176.8,299.7h1.8v-12.3h2.6v5.5h5.6c0.8,0,1.6,0.1,2.2,0.3c0.6,0.2,1.2,0.6,1.6,1.1c0.4,0.4,0.7,0.9,0.8,1.6
			c0.2,0.6,0.2,1.3,0.2,2.1v4.4h-14.9V299.7z M181.2,295.4v4.3h7.9v-1.9c0-0.4,0-0.7-0.1-1c-0.1-0.3-0.2-0.5-0.4-0.7
			c-0.2-0.2-0.4-0.4-0.7-0.5s-0.6-0.2-0.9-0.2H181.2z"/>
		<path class="st2" d="M202.8,299.7h1.7v2.6h-1.7c0,0.6-0.2,1.1-0.3,1.6s-0.5,0.9-0.8,1.3c-0.4,0.4-0.8,0.6-1.4,0.8
			c-0.6,0.2-1.3,0.3-2.1,0.3c-0.2,0-0.5,0-0.7,0c-0.2,0-0.4,0-0.6-0.1c-0.2,0-0.4-0.1-0.6-0.1l-0.8-0.2l-0.2-2.6
			c0.5,0.2,1,0.3,1.4,0.3c0.4,0.1,0.9,0.1,1.3,0.1c0.4,0,0.7,0,0.9,0s0.5-0.1,0.7-0.2c0.2-0.1,0.3-0.3,0.5-0.5s0.2-0.5,0.2-0.8h-0.3
			c-0.9,0-1.7-0.1-2.5-0.3c-0.8-0.2-1.4-0.5-2-0.9c-0.6-0.4-1-1-1.3-1.6c-0.3-0.7-0.5-1.4-0.5-2.4c0-0.8,0.2-1.5,0.5-2.2
			c0.3-0.6,0.7-1.2,1.3-1.6c0.6-0.4,1.2-0.8,2-1s1.6-0.4,2.5-0.4h2.9L202.8,299.7z M196.2,297.1c0,0.4,0.1,0.8,0.2,1.1
			c0.2,0.3,0.4,0.6,0.6,0.8c0.3,0.2,0.6,0.4,0.9,0.5c0.4,0.1,0.8,0.2,1.2,0.2h1.1v-5.2h-1.1c-0.4,0-0.8,0.1-1.1,0.2
			c-0.4,0.1-0.7,0.3-1,0.5s-0.5,0.5-0.7,0.8S196.2,296.7,196.2,297.1z"/>
		<path class="st2" d="M204.2,299.7h1.8v-12.3h3.8v2.6h-1.2v12.3h-4.4V299.7z"/>
		<path class="st2" d="M212.9,287.4h2.6v14.9h-2.6V287.4z"/>
		<path class="st2" d="M234.3,299.7v2.6h-4.6c-0.9,0-1.8-0.1-2.5-0.3c-0.8-0.2-1.4-0.5-2-1c-0.6-0.4-1-1-1.3-1.6
			c-0.3-0.6-0.5-1.4-0.5-2.3c0-0.7,0.1-1.4,0.4-2.1c0.3-0.6,0.7-1.2,1.2-1.6c0.5-0.5,1.2-0.8,2-1.1c0.8-0.3,1.7-0.4,2.7-0.4h0.4V291
			h2.6v8.7H234.3z M228.1,289.3c-0.3,0.2-0.6,0.3-1,0.3c-0.4,0-0.7-0.1-1-0.3c-0.3-0.2-0.4-0.6-0.4-1c0-0.4,0.1-0.7,0.4-0.9
			c0.3-0.2,0.6-0.4,1-0.4s0.7,0.1,1,0.4c0.3,0.2,0.4,0.6,0.4,0.9C228.5,288.7,228.3,289.1,228.1,289.3z M230,299.7v-5.2h-1
			c-0.4,0-0.8,0.1-1.1,0.2s-0.7,0.3-1,0.5c-0.3,0.2-0.5,0.5-0.7,0.8c-0.2,0.3-0.3,0.7-0.3,1.1c0,0.4,0.1,0.8,0.2,1.1
			s0.4,0.6,0.7,0.8c0.3,0.2,0.6,0.4,0.9,0.5c0.4,0.1,0.7,0.2,1.1,0.2H230z M232,289.3c-0.3,0.2-0.6,0.3-1,0.3c-0.4,0-0.7-0.1-1-0.3
			c-0.3-0.2-0.4-0.6-0.4-1c0-0.4,0.1-0.7,0.4-0.9c0.3-0.2,0.6-0.4,1-0.4c0.4,0,0.8,0.1,1,0.4c0.3,0.2,0.4,0.6,0.4,0.9
			C232.5,288.7,232.3,289.1,232,289.3z"/>
		<path class="st2" d="M233.9,299.7h11.4v-2c0-0.4,0-0.7-0.1-1c-0.1-0.3-0.2-0.5-0.4-0.7c-0.2-0.2-0.4-0.4-0.7-0.5s-0.6-0.2-0.9-0.2
			h-7.7c-0.2-0.3-0.4-0.7-0.6-1.1c-0.2-0.4-0.3-0.9-0.3-1.5l3-5.4h2.8l-2.8,5.4h5.4c0.8,0,1.6,0.1,2.2,0.3c0.6,0.2,1.2,0.6,1.6,1.1
			c0.4,0.4,0.7,0.9,0.8,1.6c0.2,0.6,0.2,1.3,0.2,2.1v4.4h-14V299.7z"/>
		<path class="st2" d="M250.9,306.3c-0.2,0-0.5,0-0.7,0c-0.2,0-0.4-0.1-0.6-0.1l-0.2-2.6c0.2,0.1,0.5,0.1,0.6,0.1c0.2,0,0.4,0,0.6,0
			c0.5,0,0.9-0.1,1.1-0.4c0.2-0.3,0.3-0.7,0.3-1.4v-10h2.6v7.8h2v2.6h-2c-0.1,1.4-0.4,2.5-1,3.1C253.1,306,252.2,306.3,250.9,306.3z
			"/>
		<path class="st2" d="M269.7,297.4L269.7,297.4c0,0.9,0.2,1.5,0.7,1.9c0.4,0.4,1,0.6,1.7,0.6c0.7,0,1.3-0.2,1.7-0.6
			c0.4-0.4,0.6-1,0.6-1.7v-6.9h2.6v6.6c0,0.3,0,0.6,0,0.9c0,0.3-0.1,0.6-0.1,0.8c0.3,0.2,0.7,0.4,1.2,0.6c0.5,0.1,1,0.2,1.4,0.2v2.6
			c-0.5,0-0.9,0-1.3-0.1c-0.4-0.1-0.7-0.2-0.9-0.3c-0.3-0.1-0.5-0.3-0.6-0.5s-0.3-0.4-0.4-0.6c-0.8,1.1-2.1,1.7-3.9,1.7
			c-0.4,0-0.7,0-1-0.1c-0.3-0.1-0.7-0.1-1-0.3c-0.3-0.1-0.6-0.3-0.9-0.5s-0.5-0.5-0.7-0.9c-0.5,0.5-1,0.9-1.7,1.2
			c-0.6,0.3-1.3,0.4-2,0.4h-8.5v-2.6h4v-6.9h2.6v6.9h1.9c0.3,0,0.5,0,0.8-0.1c0.3-0.1,0.6-0.2,0.8-0.4c0.2-0.2,0.4-0.4,0.6-0.7
			c0.1-0.3,0.2-0.7,0.2-1.1v-4.6h2.6V297.4z M267.4,289.9c-0.3,0.2-0.6,0.3-1,0.3c-0.4,0-0.7-0.1-1-0.3c-0.3-0.2-0.4-0.5-0.4-1
			c0-0.4,0.1-0.7,0.4-0.9c0.3-0.2,0.6-0.3,1-0.3c0.4,0,0.7,0.1,1,0.3c0.3,0.2,0.4,0.5,0.4,0.9C267.8,289.4,267.7,289.7,267.4,289.9z
			 M268.4,287.3c-0.3,0-0.6-0.1-0.9-0.3s-0.4-0.5-0.4-0.8c0-0.3,0.1-0.6,0.3-0.8c0.2-0.2,0.5-0.3,0.9-0.3c0.4,0,0.6,0.1,0.9,0.3
			c0.2,0.2,0.3,0.5,0.3,0.8c0,0.4-0.1,0.6-0.4,0.8S268.7,287.3,268.4,287.3z M270.3,290.2c-0.4,0-0.7-0.1-1-0.3
			c-0.3-0.2-0.4-0.5-0.4-1c0-0.4,0.1-0.7,0.4-0.9c0.3-0.2,0.6-0.3,1-0.3c0.4,0,0.7,0.1,1,0.3c0.3,0.2,0.4,0.5,0.4,0.9
			c0,0.4-0.1,0.8-0.4,1C271,290.1,270.7,290.2,270.3,290.2z"/>
		<path class="st2" d="M278.8,299.7h1.8v-12.3h3.8v2.6h-1.2v12.3h-4.4V299.7z"/>
		<path class="st2" d="M287.5,287.4h2.6v14.9h-2.6V287.4z"/>
	</g>
	<line class="st3" x1="0" y1="313.5" x2="291.5" y2="313.5"/>
</g>
</svg>
