<?xml version="1.0" encoding="utf-8"?>
<!-- Generator: Adobe Illustrator 26.0.1, SVG Export Plug-In . SVG Version: 6.00 Build 0)  -->
<svg version="1.1" id="Layer_1" xmlns="http://www.w3.org/2000/svg" xmlns:xlink="http://www.w3.org/1999/xlink" x="0px" y="0px"
	 viewBox="0 0 500 415.1" style="enable-background:new 0 0 500 415.1;" xml:space="preserve">
<style type="text/css">
	.st0{fill:#606060;}
	.st1{fill:#CFD1D1;}
</style>
<g>
	<g>
		<path class="st1" d="M52.1,92.1h34.3h10.1h34.3H141h34.3h10.1h34.3h10.1h34.3h10.1h34.3h10.1h34.3h10.1h29h12.1h34.3h10.1h16.4
			c4.7,0,10.2-2.7,16.3-8.2c12.3-11.1,18.5-33.5,18.5-51c0-13.1-3.3-24-9.8-32.9l-9.8,25.8c1.1,0.7,2.5,3.7,4.3,8.9
			c1.8,5.2,2.7,13.8,2.7,15.4c0,1.2-0.3,4.9-1.3,6.5c-1.9,3.1-6.4,3-9.5,3c-3,0-6,0-8.9,0c-5.9,0-11.9,0-17.8,0c-0.4,0-0.8,0-1.1,0
			h-10.1h-34.3h-12.1h-29h-10.1h-34.3h-10.1h-34.3h-10.1h-34.3h-10.1h-34.3h-10.1H141h-10.1H96.6H86.4H52.1H42H0v32.4h42H52.1z"/>
		<path class="st1" d="M107.7,209.4h10.1h34.3h10.1h34.3h10.1h31.4c5.5,0,10.8-1.9,15-5.5l8.7-7.3c0.2,2.6,5.7,6.5,16.4,11.7
			c10.8,5.2,18.4,14,22.9,14c4.7,0,8.3-10.7,10.8-19.6c8.6,4.4,15,6.6,19.1,6.6h11.5h9.3H387h10.1h9.1h10.1h34.3h10.1h34.3h4.1V177
			h-4.1h-34.3h-10.1h-34.3h-10.1h-9.1H387h-44.4v0.2c-10.5-0.3-19.2-3.3-25.9-9c-1.7-1.4-6.4-7.1-14.2-17.1
			c-4.8-6.1-9.9-9.2-15.3-9.2c-3.3,0-8.9,4.1-16.8,12.2c-5.3,5.7-10.5,11.4-15.7,17.1c-3.8,3.9-40,5.9-58.1,5.9h-34.3h-10.1h-34.3
			h-10.1H100V52.4h4l10.3-20.7c-10.6-2.1-16-8-16-17.7c0-1.3,0.2-3.1,0.5-5.5c0.3-2.4,0.5-4.2,0.5-5.5c0-0.8-0.1-1.5-0.2-2.1h-0.2
			c-1.8,0-8.8,6.4-14.7,16c-5.9,9.6-8.8,15.8-8.8,18.7c0,4.4,2.5,7.3,8,12V177H73.4H63.2H28.9H18.8H0v32.4h18.8h10.1h34.3h10.1h10.1
			v59.3l-21.7,25.3H59H48.9H14.6H4.4H0v32.4h4.4h10.1h34.3H59h141.4h10.1h34.3H255h34.3h10.1h34.3h10.1h34.3h10.1h34.3h10.1h34.3
			h10.1h22.1v-32.4h-22.1h-10.1h-34.3h-10.1h-34.3h-10.1h-34.3h-10.1h-34.3h-10.1H255h-10.1h-34.3h-10.1H196v0h-30.2
			c15.3-16.5,23-31,23-43.2c0-6.7-3.3-12.7-9.8-17.9c-6.1-4.7-12.7-7.1-19.6-7.1c-6.4,0-18.1,5.1-35,15.2
			c-16.1,9.7-24.3,15.8-24.5,18.3v-50H107.7z M277.4,161.5c3.4-3.7,6.5-5.5,9.5-5.5c2.2,0,5,4.4,8.2,13.1c3,8.1,4.4,13.8,4.4,16.9
			c0,1.5-0.9,2.2-2.7,2.2c-3.1,0-7.9-2.1-14.5-6.3c-6.6-4.2-10-7.6-10-10.3C272.4,168.6,274.1,165.2,277.4,161.5 M140.3,255.3
			c4,0,9.6,1.3,16.8,3.8c8.1,3.1,12.2,6.1,12.2,9.2c0,0.4-0.2,0.8-0.5,1.3c-5.2,8.4-17.8,15-37.8,19.8c-15.5,3.8-30.4,5.7-44.8,5.7
			c-3.6,0-6.1-0.3-7.6-1c6.9-7.2,13.7-13.4,20.4-18.7C116,262,129.8,255.3,140.3,255.3"/>
		<path class="st1" d="M449.1,19.7c-3,3.9-7.9,6.7-12.2,14.3c-1.5,0.5-4.9-3-10.4-7.6c-5.5-4.6-7.7-8.3-6.7-11
			c0.3-0.8,15.9-15.3,17.8-14.6c0.6,0.2,1.2,0.7,1.8,1.3c2.9,2.9,5.7,5.7,8.6,8.6c2.2,2.8,2.9,5.3,2.1,7.4
			C449.8,18.6,449.5,19.2,449.1,19.7"/>
		<path class="st0" d="M82.4,383.1v-2.2c0-0.3,0.2-0.5,0.5-0.5h3.3c0.3,0,0.5,0.2,0.5,0.5v17.3c0,1,0.2,1.7,0.6,2.1
			c0.4,0.4,1,0.6,1.9,0.6h6.4c1.4,0,2,0.7,2,2c0,0.9-0.2,1.4-0.5,1.6c-0.3,0.2-0.8,0.3-1.6,0.3h-7.2c-1.7,0-3-0.3-3.9-0.9
			c-0.9-0.6-1.6-1.7-1.9-3.1c-0.7,0.6-1.5,1.1-2.5,1.4c-1,0.3-2,0.5-3.1,0.5c-1.3,0-2.6-0.2-3.7-0.6c-1.1-0.4-2.1-0.9-3-1.7
			c-0.8-0.8-1.5-1.7-2-2.9c-0.5-1.2-0.7-2.6-0.7-4.2c0-1.9,0.3-3.5,0.8-4.8c0.5-1.3,1.3-2.3,2.1-3.1c0.9-0.8,1.9-1.4,3.1-1.7
			c1.2-0.4,2.4-0.5,3.7-0.5H82.4z M77.1,398.7c1.9,0,3.3-0.6,4.1-1.7c0.8-1.1,1.2-2.7,1.2-4.8v-5.1h-5c-1.6,0-2.9,0.5-3.9,1.4
			c-1,0.9-1.5,2.5-1.5,4.9c0,1.8,0.4,3.1,1.3,4C74.2,398.2,75.5,398.7,77.1,398.7 M72.7,376.9c-0.3,0-0.5-0.2-0.5-0.5v-3.7
			c0-0.3,0.2-0.5,0.5-0.5h3.5c0.3,0,0.5,0.2,0.5,0.5v3.7c0,0.3-0.2,0.5-0.5,0.5H72.7z M78.9,376.9c-0.3,0-0.5-0.2-0.5-0.5v-3.7
			c0-0.3,0.2-0.5,0.5-0.5h3.5c0.3,0,0.5,0.2,0.5,0.5v3.7c0,0.3-0.2,0.5-0.5,0.5H78.9z"/>
		<path class="st0" d="M95.9,404.9c-0.7,0-5.3-0.1-5.7-0.4c-0.3-0.2-0.5-0.7-0.5-1.4c0-0.9,0.2-1.4,0.5-1.7c0.3-0.3,5-0.5,5.7-0.5
			h3.5c0.9,0,1.5-0.2,1.9-0.6c0.4-0.4,0.6-1.1,0.6-2.1v-13.7c0-0.3,0.2-0.5,0.5-0.5h3.3c0.3,0,0.5,0.2,0.5,0.5v12.9
			c0,1.2,0.4,2,1.3,2.6c0.8,0.6,2,0.9,3.3,0.9h0.6c0.7,0,1.2,0.1,1.5,0.4c0.3,0.3,0.5,0.8,0.5,1.5c0,0.9-0.2,1.5-0.5,1.7
			c-0.3,0.3-0.8,0.4-1.6,0.4h-1.1c-1.1,0-2-0.2-2.9-0.7c-0.8-0.4-1.4-1.1-1.9-2c-0.9,1.8-2.6,2.7-5.3,2.7H95.9z M98.5,414.4
			c-0.3,0-0.5-0.2-0.5-0.5v-3.7c0-0.3,0.2-0.5,0.5-0.5h3.5c0.3,0,0.5,0.2,0.5,0.5v3.7c0,0.3-0.2,0.5-0.5,0.5H98.5z M104.8,414.4
			c-0.3,0-0.5-0.2-0.5-0.5v-3.7c0-0.3,0.2-0.5,0.5-0.5h3.5c0.3,0,0.5,0.2,0.5,0.5v3.7c0,0.3-0.2,0.5-0.5,0.5H104.8z"/>
		<path class="st0" d="M111.4,404.9c-0.7,0-1.2-0.1-1.5-0.4c-0.3-0.2-0.5-0.7-0.5-1.4c0-0.9,0.2-1.4,0.5-1.7
			c0.3-0.3,0.8-0.5,1.6-0.5h3.2c0.9,0,1.5-0.2,1.9-0.6c0.4-0.4,0.6-1.1,0.6-2.1v-27.6c0-0.3,0.2-0.5,0.5-0.5h3.3
			c0.3,0,0.5,0.2,0.5,0.5v26.8c0,1.2,0.4,2,1.3,2.6c0.8,0.6,2,0.9,3.3,0.9h0.6c0.7,0,1.2,0.1,1.5,0.4c0.3,0.3,0.5,0.8,0.5,1.5
			c0,0.9-0.2,1.5-0.5,1.7c-0.3,0.3-0.8,0.4-1.6,0.4h-1.1c-1.1,0-2-0.2-2.9-0.7c-0.8-0.4-1.4-1.1-1.9-2c-0.9,1.8-2.6,2.7-5.3,2.7
			H111.4z"/>
		<path class="st0" d="M141.2,386.4c-1.2,0-2.4,0.2-3.6,0.5c-1.3,0.3-2.6,0.9-3.9,1.6c-0.1,0.1-0.3,0.1-0.4,0.2s-0.2,0-0.3-0.1
			l-1.4-2.4c-0.2-0.4-0.2-0.6,0-0.8c1.6-1,3.2-1.8,5-2.2c1.8-0.5,3.5-0.7,5.2-0.7c2.6,0,4.7,0.4,6.3,1.2c1.6,0.8,2.9,1.8,3.9,3.1
			c1,1.3,1.7,2.7,2,4.2c0.4,1.5,0.6,3.1,0.6,4.6c0,1.9-0.1,3.4-0.4,4.7c-0.3,1.2-0.7,2.2-1.3,2.9c-0.6,0.7-1.4,1.2-2.3,1.5
			c-0.9,0.3-2,0.4-3.3,0.4h-20.6c-1.4,0-2-0.7-2-2c0-0.9,0.2-1.4,0.5-1.6c0.3-0.2,0.8-0.3,1.6-0.3h6.4c-0.5-1-0.7-2.2-0.7-3.6
			c0-2.4,0.6-4.2,1.9-5.5c1.3-1.2,2.9-1.8,4.8-1.8c0.9,0,1.8,0.2,2.6,0.5c0.8,0.3,1.5,0.8,2.1,1.4c0.6,0.6,1.1,1.4,1.4,2.3
			c0.3,0.9,0.5,2,0.5,3.2c0,1.4-0.2,2.6-0.7,3.6h0.7c1,0,1.7-0.1,2.3-0.3c0.6-0.2,1-0.5,1.3-0.9c0.3-0.4,0.5-1,0.6-1.7
			c0.1-0.7,0.2-1.6,0.2-2.8c0-1.2-0.1-2.3-0.4-3.4c-0.3-1.1-0.8-2.1-1.5-2.9c-0.7-0.8-1.6-1.5-2.7-2
			C144.2,386.6,142.8,386.4,141.2,386.4 M138.9,393.7c-1,0-1.7,0.3-2.2,0.9c-0.5,0.6-0.8,1.5-0.8,2.7c0,1.2,0.2,2.1,0.7,2.6
			c0.5,0.6,1.1,0.9,2,0.9h0.6c0.9-0.1,1.6-0.4,2-0.9c0.4-0.6,0.7-1.4,0.7-2.6c0-1.2-0.2-2.1-0.7-2.7
			C140.6,394,139.8,393.7,138.9,393.7"/>
		<path class="st0" d="M174.2,400.9h6c0.9,0,1.5-0.2,1.9-0.6c0.4-0.4,0.6-1.1,0.6-2.1v-27.6c0-0.3,0.2-0.5,0.5-0.5h3.3
			c0.3,0,0.5,0.2,0.5,0.5v27.8c0,2.2-0.5,3.8-1.4,4.9c-0.9,1-2.5,1.6-4.6,1.6h-21.1c-0.3,0-0.5-0.2-0.5-0.5v-3
			c0-0.3,0.2-0.5,0.5-0.5h10.1v-23.1c0-0.3,0.2-0.5,0.5-0.5h3.3c0.3,0,0.5,0.2,0.5,0.5V400.9z M168.8,371.9
			c-0.3-0.4-0.5-0.8-0.7-1.4c-0.2-0.5-0.3-1.1-0.3-1.8c0-0.5,0.1-1.1,0.3-1.7c0.2-0.6,0.5-1.1,0.9-1.6c0.4-0.5,0.9-0.9,1.6-1.2
			c0.7-0.3,1.5-0.5,2.5-0.5c0.9,0,1.7,0.2,2.4,0.5c0.7,0.3,1.3,0.7,1.7,1.3c0.1,0.2,0.1,0.4,0,0.5l-1.1,0.9
			c-0.2,0.2-0.4,0.2-0.6,0.1c-0.3-0.3-0.7-0.6-1.1-0.8c-0.4-0.2-0.9-0.3-1.4-0.3c-1,0-1.7,0.3-2.1,0.9c-0.5,0.6-0.7,1.3-0.7,2
			c0,0.8,0.2,1.4,0.6,2c0.4,0.6,0.8,1,1.2,1.3h5.3c0.2,0,0.3,0.1,0.3,0.4v1.4c0,0.2-0.1,0.4-0.3,0.4h-10.4c-0.2,0-0.3-0.1-0.3-0.4
			v-1.4c0-0.2,0.1-0.4,0.3-0.4H168.8z"/>
		<path class="st0" d="M198.4,404.4c0,0.3-0.2,0.5-0.5,0.5h-3.3c-0.3,0-0.5-0.2-0.5-0.5v-33.7c0-0.3,0.2-0.5,0.5-0.5h3.3
			c0.3,0,0.5,0.2,0.5,0.5V404.4z"/>
		<path class="st0" d="M218.2,400.9c0.9,0,1.5-0.2,1.9-0.6c0.4-0.4,0.6-1.1,0.6-2.1v-27.6c0-0.3,0.2-0.5,0.5-0.5h3.3
			c0.3,0,0.5,0.2,0.5,0.5l0,15.6c1.7-0.9,3.5-1.6,5.6-2.2c2-0.6,4.1-0.9,6.3-0.9c2.4,0,4.4,0.3,5.9,1c1.6,0.6,2.8,1.5,3.8,2.6
			c0.9,1.1,1.6,2.4,2,3.9c0.4,1.5,0.6,3,0.6,4.7c0,0.4,0,0.9,0,1.3c0,0.4,0,0.7,0,1c0,1.2,0.4,2,1.3,2.6c0.8,0.6,2,0.9,3.3,0.9h0.5
			c0.7,0,1.2,0.1,1.5,0.4c0.3,0.3,0.5,0.8,0.5,1.5c0,0.9-0.2,1.5-0.5,1.7c-0.3,0.3-0.8,0.4-1.6,0.4h-1c-1.2,0-2.3-0.3-3.2-0.8
			c-0.9-0.5-1.6-1.3-2-2.4c-0.6,1.2-1.4,2-2.5,2.5c-1.1,0.5-2.4,0.7-4.1,0.7h-17.2c-0.8,0-1.4-0.2-1.7-0.7c-0.9,0.4-2,0.7-3.4,0.7
			h-2.8c-0.3,0-0.5-0.2-0.5-0.5v-3c0-0.3,0.2-0.5,0.5-0.5H218.2z M236.5,387.1c-1,0-2.1,0.1-3.1,0.3c-1.1,0.2-2.1,0.4-3.1,0.7
			c-1,0.3-2,0.6-2.9,1c-0.9,0.4-1.7,0.8-2.5,1.1v8.2c0,0.9-0.1,1.7-0.3,2.5h15.1c1,0,1.7-0.1,2.4-0.3c0.6-0.2,1.1-0.5,1.4-0.9
			c0.3-0.4,0.6-1,0.7-1.8c0.1-0.8,0.2-1.7,0.2-2.9c0-1.3-0.1-2.4-0.4-3.4c-0.3-1-0.7-1.8-1.3-2.5c-0.6-0.7-1.4-1.2-2.5-1.6
			C239.3,387.3,238,387.1,236.5,387.1"/>
		<path class="st0" d="M269.5,405.3c-1.6,0-3-0.2-4.2-0.7c-1.2-0.5-2.3-1.2-3.1-2.2c-0.7,1.1-1.6,1.8-2.8,2.1
			c-1.1,0.3-2.2,0.4-3.1,0.4h-2.2c-1.4,0-2-0.7-2-2c0-0.9,0.2-1.4,0.5-1.6c0.3-0.2,0.8-0.3,1.6-0.3h2.6c0.4,0,0.7-0.1,1.1-0.2
			c0.4-0.2,0.7-0.4,1-0.8c0.3-0.4,0.6-0.8,0.7-1.4c0.2-0.6,0.3-1.3,0.3-2.2c0-0.3-0.1-0.7-0.1-1v-1c0-3.9,0.9-6.8,2.6-8.5
			c1.7-1.8,4.1-2.6,7.2-2.6c3,0,5.4,0.9,7.2,2.6c1.7,1.8,2.6,4.6,2.6,8.5c0,0.4,0,0.7,0,1.1c0,0.4,0,0.7-0.1,1.1
			c0,1.7,0.4,2.9,1,3.6c0.7,0.6,1.4,0.9,2.1,0.9h1.5c0.7,0,1.2,0.1,1.5,0.4c0.3,0.3,6.7,0.8,6.7,1.5c0,0.9-6.4,1.5-6.7,1.7
			c-0.3,0.3-0.8,0.4-1.6,0.4h-1.1c-0.5,0-1,0-1.5-0.1c-0.5-0.1-1.1-0.2-1.6-0.3c-0.5-0.2-1-0.4-1.5-0.7c-0.5-0.3-0.9-0.8-1.2-1.3
			c-0.9,1-1.9,1.7-3.1,2.1C272.5,405,271.1,405.3,269.5,405.3 M269.5,387.1c-1.9,0-3.3,0.6-4.2,1.9c-0.9,1.3-1.3,3-1.3,5.3
			c0,2.5,0.4,4.2,1.3,5.4c0.9,1.1,2.3,1.7,4.2,1.7c1.9,0,3.3-0.6,4.2-1.7c0.9-1.1,1.3-2.9,1.3-5.4c0-2.2-0.4-4-1.3-5.3
			C272.8,387.7,271.5,387.1,269.5,387.1"/>
		<path class="st0" d="M284.2,404.9c-0.7,0-1.2-0.1-1.5-0.4c-0.3-0.2-0.5-0.7-0.5-1.4c0-0.9,0.2-1.4,0.5-1.7
			c0.3-0.3,0.8-0.5,1.6-0.5h9.4c0.9,0,1.5-0.2,1.9-0.6c0.4-0.4,0.6-1.1,0.6-2.1v-13.7c0-0.3,0.2-0.5,0.5-0.5h3.3
			c0.3,0,0.5,0.2,0.5,0.5v14c0,2.2-0.5,3.8-1.4,4.9c-0.9,1-2.5,1.6-4.6,1.6H284.2z M296.5,378.9c-0.3,0-0.5-0.2-0.5-0.5v-3.7
			c0-0.3,0.2-0.5,0.5-0.5h3.5c0.3,0,0.5,0.2,0.5,0.5v3.7c0,0.3-0.2,0.5-0.5,0.5H296.5z"/>
		<path class="st0" d="M331.8,383.1v-2.2c0-0.3,0.2-0.5,0.5-0.5h3.3c0.3,0,0.5,0.2,0.5,0.5v17.3c0,1,0.2,1.7,0.6,2.1
			c0.4,0.4,1,0.6,1.9,0.6h2.2c1.4,0,8.3,0.7,8.3,2c0,0.9-0.2,1.4-0.5,1.6c-0.3,0.2-7.1,0.3-7.8,0.3h-3c-1.7,0-3-0.3-3.9-0.9
			c-0.9-0.6-1.6-1.7-1.9-3.1c-0.7,0.6-1.5,1.1-2.5,1.4c-1,0.3-2,0.5-3.1,0.5c-1.3,0-2.6-0.2-3.7-0.6c-1.1-0.4-2.1-0.9-3-1.7
			s-1.5-1.7-2-2.9c-0.5-1.2-0.7-2.6-0.7-4.2c0-1.9,0.3-3.5,0.8-4.8c0.5-1.3,1.3-2.3,2.1-3.1c0.9-0.8,1.9-1.4,3.1-1.7
			c1.2-0.4,2.4-0.5,3.7-0.5H331.8z M326.5,398.7c1.9,0,3.3-0.6,4.1-1.7c0.8-1.1,1.2-2.7,1.2-4.8v-5.1h-5c-1.6,0-2.9,0.5-3.9,1.4
			c-1,0.9-1.5,2.5-1.5,4.9c0,1.8,0.4,3.1,1.3,4C323.6,398.2,324.8,398.7,326.5,398.7 M322,376.9c-0.3,0-0.5-0.2-0.5-0.5v-3.7
			c0-0.3,0.2-0.5,0.5-0.5h3.5c0.3,0,0.5,0.2,0.5,0.5v3.7c0,0.3-0.2,0.5-0.5,0.5H322z M328.3,376.9c-0.3,0-0.5-0.2-0.5-0.5v-3.7
			c0-0.3,0.2-0.5,0.5-0.5h3.5c0.3,0,0.5,0.2,0.5,0.5v3.7c0,0.3-0.2,0.5-0.5,0.5H328.3z"/>
		<path class="st0" d="M356,384h4.6c2.6,0,4.7,0.7,6.4,2.2c1.7,1.5,2.5,3.8,2.5,6.9v3.1c0,1.7-0.1,3.1-0.4,4.2
			c-0.3,1.1-0.7,2-1.3,2.7c-0.6,0.7-1.4,1.1-2.3,1.4c-0.9,0.3-2,0.4-3.3,0.4h-21.2c-1.4,0-2-0.7-2-2c0-0.9,0.2-1.4,0.5-1.6
			c0.3-0.2,0.8-0.3,1.6-0.3h19.7c1,0,1.7-0.1,2.3-0.2c0.6-0.2,1-0.4,1.3-0.8c0.3-0.4,0.5-0.8,0.6-1.4c0.1-0.6,0.2-1.3,0.2-2.2v-3.2
			c0-3.4-1.9-5.2-5.8-5.2h-8.2c-0.3,0-0.5-0.2-0.5-0.5v-2.9c0-0.2,0.1-0.3,0.2-0.5c0.1-0.2,0.2-0.3,0.3-0.3l11.2-13.2
			c0.2-0.2,0.4-0.3,0.7-0.2l2.5,2c0.3,0.2,0.3,0.4,0.2,0.7L356,384z"/>
		<path class="st0" d="M372.7,415.1c-0.3,0-0.5-0.2-0.5-0.5v-3c0-0.3,0.2-0.5,0.5-0.5h1.2c2.8,0,4.1-1.4,4.1-4.3v-22.2
			c0-0.3,0.2-0.5,0.5-0.5h3.3c0.3,0,0.5,0.2,0.5,0.5v12.9c0,1.2,0.4,2,1.3,2.6c0.8,0.6,2,0.9,3.3,0.9h0.6c0.7,0,1.2,0.1,1.5,0.4
			s0.5,0.8,0.5,1.5c0,0.9-0.2,1.5-0.5,1.7c-0.3,0.3-0.8,0.4-1.6,0.4h-1.1c-1.8,0-3.1-0.5-4.1-1.6v3.4c0,2.8-0.7,4.9-2.1,6.3
			c-1.4,1.4-3.4,2.1-6.1,2.1H372.7z"/>
		<path class="st0" d="M403.1,404.9c-1.1,0-2-0.2-2.9-0.7c-0.8-0.4-1.4-1.1-1.9-2c-0.9,1.8-2.6,2.7-5.3,2.7h-5.5
			c-0.7,0-1.2-0.1-1.5-0.4c-0.3-0.2-0.5-0.7-0.5-1.4c0-0.9,0.2-1.4,0.5-1.7c0.3-0.3,0.8-0.5,1.6-0.5h4.8c0.9,0,1.5-0.2,1.9-0.6
			c0.4-0.4,0.6-1.1,0.6-2.1v-9.3c0-0.3,0.2-0.5,0.5-0.5h3.3c0.3,0,0.5,0.2,0.5,0.5v8.5c0,1.2,0.4,2,1.2,2.6c0.8,0.6,1.9,0.9,3.3,0.9
			h1.3c0.9,0,1.5-0.2,1.9-0.6c0.4-0.4,0.6-1.1,0.6-2.1v-9.3c0-0.3,0.2-0.5,0.5-0.5h3.3c0.3,0,0.5,0.2,0.5,0.5v8.5
			c0,1.2,0.4,2,1.2,2.6c0.8,0.6,1.9,0.9,3.3,0.9h1.3c0.9,0,1.5-0.2,1.9-0.6c0.4-0.4,0.6-1.1,0.6-2.1v-13.7c0-0.3,0.2-0.5,0.5-0.5
			h3.3c0.3,0,0.5,0.2,0.5,0.5v14c0,2.2-0.5,3.8-1.4,4.9c-0.9,1-2.5,1.6-4.6,1.6h-2.5c-1.1,0-2-0.2-2.9-0.7c-0.8-0.4-1.4-1.1-1.9-2
			c-0.9,1.8-2.6,2.7-5.3,2.7H403.1z M404.4,378.9c-0.3,0-0.5-0.2-0.5-0.5v-3.7c0-0.3,0.2-0.5,0.5-0.5h3.5c0.3,0,0.5,0.2,0.5,0.5v3.7
			c0,0.3-0.2,0.5-0.5,0.5H404.4z M407.6,373c-0.3,0-0.5-0.2-0.5-0.5v-3.7c0-0.3,0.2-0.5,0.5-0.5h3.5c0.3,0,0.5,0.2,0.5,0.5v3.7
			c0,0.3-0.2,0.5-0.5,0.5H407.6z M410.6,378.9c-0.3,0-0.5-0.2-0.5-0.5v-3.7c0-0.3,0.2-0.5,0.5-0.5h3.5c0.3,0,0.5,0.2,0.5,0.5v3.7
			c0,0.3-0.2,0.5-0.5,0.5H410.6z"/>
	</g>
</g>
</svg>
