<?xml version="1.0" encoding="utf-8"?>
<!-- Generator: Adobe Illustrator 26.0.1, SVG Export Plug-In . SVG Version: 6.00 Build 0)  -->
<svg version="1.1" id="Layer_1" xmlns="http://www.w3.org/2000/svg" xmlns:xlink="http://www.w3.org/1999/xlink" x="0px" y="0px"
	 viewBox="0 0 500 409.8" style="enable-background:new 0 0 500 409.8;" xml:space="preserve">
<style type="text/css">
	.st0{fill:#606060;}
	.st1{fill:#CFD1D1;}
</style>
<g>
	<polygon class="st0" points="123.6,409.8 118.2,409.8 99.1,379.6 99,379.6 99,409.8 93.6,409.8 93.6,370.2 99,370.2 118.1,400.4 
		118.2,400.4 118.2,370.2 123.6,370.2 	"/>
	<path class="st0" d="M186.2,399.6h-14.9l-3.5,10.2h-5.5l14.3-39.6h4.6l14,39.6h-5.5L186.2,399.6z M172.8,395.1h11.8l-5.8-17h-0.2
		L172.8,395.1z"/>
	<polygon class="st0" points="253,402.4 253.1,402.4 265.8,370.2 272.5,370.2 272.5,409.8 267.1,409.8 267.1,380.1 266.9,380.1 
		254.9,409.8 251.2,409.8 238.8,379.1 238.7,379.1 238.7,409.8 233.3,409.8 233.3,370.2 240.4,370.2 	"/>
	<path class="st0" d="M335.1,399.6h-14.9l-3.5,10.2h-5.5l14.3-39.6h4.6l14,39.6h-5.5L335.1,399.6z M321.7,395.1h11.8l-5.8-17h-0.2
		L321.7,395.1z"/>
	<polygon class="st0" points="406.4,374.4 393.3,374.4 393.3,409.8 388,409.8 388,374.4 375,374.4 375,370.2 406.4,370.2 	"/>
	<path class="st1" d="M52.1,92.1h34.3h10.1h34.3H141h34.3h10.1h34.3h10.1h34.3h10.1h34.3h10.1h34.3h10.1h29h12.1h34.3h10.1h16.4
		c4.7,0,10.2-2.7,16.3-8.2c12.3-11.1,18.5-33.5,18.5-51c0-13.1-3.3-24-9.8-32.9l-9.8,25.8c1.1,0.7,2.5,3.7,4.3,8.9
		c1.8,5.2,2.7,13.8,2.7,15.4c0,1.2-0.3,4.9-1.3,6.5c-1.9,3.1-6.4,3-9.5,3c-3,0-6,0-8.9,0c-5.9,0-11.9,0-17.8,0c-0.4,0-0.8,0-1.1,0
		h-10.1h-34.3h-12.1h-29h-10.1h-34.3h-10.1h-34.3h-10.1h-34.3h-10.1h-34.3h-10.1H141h-10.1H96.6H86.4H52.1H42H0v32.4h42H52.1z"/>
	<path class="st1" d="M107.7,209.4h10.1h34.3h10.1h34.3h10.1h31.4c5.5,0,10.8-1.9,15-5.5l8.7-7.3c0.2,2.6,5.7,6.5,16.4,11.7
		c10.8,5.2,18.4,14,22.9,14c4.7,0,8.3-10.7,10.8-19.6c8.6,4.4,15,6.6,19.1,6.6h11.5h9.3H387h10.1h9.1h10.1h34.3h10.1h34.3h4.1V177
		h-4.1h-34.3h-10.1h-34.3h-10.1h-9.1H387h-44.4v0.2c-10.5-0.3-19.2-3.3-25.9-9c-1.7-1.4-6.4-7.1-14.2-17.1
		c-4.7-6.1-9.9-9.2-15.3-9.2c-3.3,0-8.9,4.1-16.8,12.2c-5.3,5.7-10.5,11.4-15.7,17.1c-3.8,3.9-40,5.9-58.1,5.9h-34.3h-10.1h-34.3
		h-10.1H100V52.4h4l10.3-20.7c-10.6-2.1-16-8-16-17.7c0-1.3,0.2-3.1,0.5-5.5c0.3-2.4,0.5-4.2,0.5-5.5c0-0.8-0.1-1.5-0.2-2.1h-0.2
		c-1.8,0-8.8,6.4-14.7,16c-5.9,9.6-8.8,15.8-8.8,18.7c0,4.4,2.5,7.3,8,12V177H73.4H63.2H28.9H18.8H0v32.4h18.8h10.1h34.3h10.1h10.1
		v59.3l-21.7,25.3H59H48.9H14.6H4.5H0v32.4h4.5h10.1h34.3H59h141.4h10.1h34.3H255h34.3h10.1h34.3h10.1h34.3h10.1h34.3h10.1h34.3
		h10.1h22.1v-32.4h-22.1h-10.1h-34.3h-10.1h-34.3h-10.1h-34.3h-10.1h-34.3h-10.1H255h-10.1h-34.3h-10.1H196v0h-30.2
		c15.3-16.5,23-31,23-43.2c0-6.7-3.3-12.7-9.8-17.9c-6.1-4.7-12.7-7.1-19.6-7.1c-6.4,0-18.1,5.1-35,15.2
		c-16.1,9.7-24.3,15.8-24.5,18.3v-50H107.7z M277.4,161.5c3.4-3.7,6.5-5.5,9.5-5.5c2.2,0,5,4.4,8.2,13.1c3,8.1,4.4,13.8,4.4,16.9
		c0,1.5-0.9,2.2-2.7,2.2c-3.1,0-7.9-2.1-14.5-6.3c-6.6-4.2-10-7.6-10-10.3C272.4,168.6,274.1,165.2,277.4,161.5 M140.3,255.3
		c4,0,9.6,1.3,16.8,3.8c8.1,3.1,12.2,6.1,12.2,9.2c0,0.4-0.2,0.8-0.5,1.3c-5.2,8.4-17.8,15-37.8,19.8c-15.5,3.8-30.4,5.7-44.8,5.7
		c-3.6,0-6.1-0.3-7.6-1c6.9-7.2,13.7-13.4,20.4-18.7C116,262,129.8,255.3,140.3,255.3"/>
	<path class="st1" d="M449.1,19.7c-3,3.9-7.9,6.7-12.2,14.3c-1.5,0.5-4.9-3-10.4-7.6c-5.5-4.6-7.7-8.3-6.7-11
		c0.3-0.8,15.9-15.3,17.8-14.6c0.6,0.2,1.2,0.7,1.8,1.3c2.9,2.9,5.7,5.7,8.6,8.6c2.2,2.8,2.9,5.3,2.1,7.4
		C449.8,18.6,449.5,19.2,449.1,19.7"/>
</g>
</svg>
