<?xml version="1.0" encoding="utf-8"?>
<!-- Generator: Adobe Illustrator 26.0.1, SVG Export Plug-In . SVG Version: 6.00 Build 0)  -->
<svg version="1.1" id="Layer_1" xmlns="http://www.w3.org/2000/svg" xmlns:xlink="http://www.w3.org/1999/xlink" x="0px" y="0px"
	 viewBox="0 0 500 500" style="enable-background:new 0 0 500 500;" xml:space="preserve">
<style type="text/css">
	.st0{fill:#FFFFFF;}
	.st1{fill-rule:evenodd;clip-rule:evenodd;fill:#0A51A1;}
	.st2{fill-rule:evenodd;clip-rule:evenodd;fill:#13017C;}
</style>
<g>
	<circle class="st0" cx="250" cy="250" r="250"/>
	<g>
		<g>
			<path class="st1" d="M249.6,83.5c88.9,0,162,69.6,168.1,157.2l-3.3,1.2c-67.1,42.9-101.3,5.7-101.3,5.7L264,212.3
				c-52.2-40.4-92-13.3-92-13.3l-32.9,15.8c0,0-37.4,21.7-57.7,32.8C83.7,156.8,158.4,83.5,249.6,83.5L249.6,83.5z M353,199.7
				c10.3,0,18.6,8.5,18.6,18.9s-8.4,18.9-18.6,18.9s-18.6-8.5-18.6-18.9C334.3,208.2,342.7,199.7,353,199.7L353,199.7z"/>
			<path class="st2" d="M249.3,420.5c-88.9,0-162-69.6-168.1-157.2l3.3-1.2c67.1-42.9,101.3-5.7,101.3-5.7l49.1,35.3
				c52.2,40.4,92,13.3,92,13.3l32.9-15.8c0,0,37.4-21.7,57.7-32.8C415.1,347.2,340.5,420.5,249.3,420.5L249.3,420.5z"/>
		</g>
		<g>
			<path d="M56.8,165.4c-0.7-0.3-1.4-0.4-2.1-0.4c-2.3,0-4.4,1.4-5.2,3.5c-0.6,1.4-0.6,2.9,0,4.3c0.6,1.4,1.7,2.5,3.1,3
				c0.7,0.3,1.4,0.4,2.1,0.4c2.3,0,4.3-1.4,5.2-3.5c0.6-1.4,0.6-2.9,0-4.3C59.2,167,58.1,166,56.8,165.4z"/>
			<path d="M58.4,135.3c-0.4-0.2-0.9-0.4-1.3-0.4c-0.9,0-1.8,0.5-2.3,1.3c-0.7,1.2-0.3,2.9,0.9,3.6c0.4,0.3,0.9,0.4,1.4,0.4l0,0
				c0.9,0,1.8-0.5,2.3-1.2c0.4-0.6,0.5-1.3,0.3-2C59.5,136.3,59,135.7,58.4,135.3z"/>
			<path d="M62.2,129.4c-0.4-0.2-0.9-0.4-1.3-0.4c-0.9,0-1.8,0.5-2.3,1.3c-0.7,1.2-0.3,2.9,0.9,3.6c0.4,0.3,0.9,0.4,1.4,0.4
				c0.9,0,1.8-0.5,2.3-1.2C63.9,131.9,63.5,130.2,62.2,129.4z"/>
			<path d="M97.9,133.2c-0.5-0.4-1-0.5-1.6-0.5c-0.8,0-1.6,0.4-2.1,1.1c-0.9,1.2-0.6,2.9,0.6,3.8c0.4,0.3,1,0.5,1.5,0.5
				c0.9,0,1.7-0.4,2.2-1.1c0.4-0.6,0.6-1.3,0.5-2C98.8,134.3,98.5,133.7,97.9,133.2z"/>
			<path d="M93.7,138.8c-0.5-0.4-1-0.5-1.6-0.5c-0.8,0-1.6,0.4-2.1,1.1c-0.9,1.2-0.6,2.9,0.6,3.8c0.4,0.3,1,0.5,1.5,0.5
				c0.9,0,1.7-0.4,2.2-1.1C95.1,141.3,94.9,139.7,93.7,138.8z"/>
			<path d="M67.9,130.9l-4.2,6.8c-1.1,1.8-1.4,3.6-1,5.4c0.4,1.8,1.6,3.3,3.4,4.3l3.6,2.2c1.3,0.8,2.7,1.2,4,1.2
				c2.4,0,4.5-1.3,5.9-3.6l-1.5-4l0.1,0.1L81,145l3.7-6l0.1,0.1l3.2-4.3c1.2-1.6,1.7-3.5,1.4-5.3c-0.3-1.8-1.3-3.4-2.9-4.6l-9.3-6.8
				l-3.1,4.3l9.2,6.7c1.3,1,0.8,2.1,0.4,2.7l-3.1,4.2l-0.1-0.1l-1.2,1.9l0,0L67.9,130.9z M76.5,142.3l-1.4,2.4
				c-0.4,0.7-1,0.9-1.4,0.9c-0.3,0-0.7-0.1-1-0.3L69,143c-0.5-0.3-0.9-0.7-1-1.2c-0.1-0.4,0-0.9,0.2-1.3l1.5-2.4l0,0L76.5,142.3
				L76.5,142.3z"/>
			<path d="M128.9,98.8c-0.6,0-1.2,0.2-1.7,0.6c-0.5,0.5-0.9,1.1-0.9,1.8c-0.1,0.7,0.2,1.4,0.6,2c0.5,0.6,1.2,0.9,2,0.9
				c0.6,0,1.3-0.2,1.7-0.6c1.1-0.9,1.3-2.6,0.3-3.7C130.4,99.1,129.7,98.8,128.9,98.8z"/>
			<path d="M120.1,66.4l-4.2,3.1L127,84.8c0.3,0.5,0.5,1,0.4,1.4c-0.1,0.5-0.3,0.9-0.8,1.2l-2,1.4l0,0l-1.7,1.4l0,0L114.4,80
				l-4.1,3.4l8.5,10.2l0,0l-5.4,4.5l-0.1-0.1l-1.6,1.6l0,0l-4.3-4.3c-1.4-1.4-3.2-2.2-5.1-2.2c-1.8,0-3.5,0.7-4.9,2.1l-5.7,5.7
				l3.7,3.7l5.7-5.7c0.4-0.4,0.8-0.5,1.3-0.5s0.9,0.2,1.3,0.6l4.3,4.3l0,0l-9.9,9.9l0.1,0.1l0,0l-1.4,1.7l0,0l-10.1-8.5l-3.4,4
				L97,122.1c1.7,1.4,3.2,3.2,1.1,7.3l6,0.3c1.4-5.1,0.7-7.9-2.4-10.6l-0.9-0.7l0,0l1.4-1.7l-0.1-0.1l0,0l14.6-14.5l0.1,0.1l11-9.2
				l0,0l1.9-1.4c1.8-1.3,2.8-3,3-4.9c0.2-1.7-0.3-3.5-1.4-5L120.1,66.4z"/>
			<polygon points="144.2,81.7 129.9,59.8 125.5,62.6 141.3,86.9 			"/>
			<path d="M161.3,42.7c-0.4,0-0.7,0.1-1.1,0.2c-1.3,0.6-2,2.2-1.4,3.5c0.4,1,1.4,1.6,2.5,1.6c0.4,0,0.8-0.1,1.1-0.2
				c1.3-0.6,1.9-2.2,1.3-3.6C163.3,43.4,162.3,42.7,161.3,42.7z"/>
			<path d="M154.6,45.8c-0.4,0-0.7,0.1-1.1,0.2c-1.3,0.6-2,2.2-1.4,3.5c0.4,1,1.4,1.6,2.5,1.6c0.4,0,0.8-0.1,1.1-0.2
				c1.3-0.6,1.9-2.2,1.3-3.6C156.6,46.4,155.6,45.8,154.6,45.8z"/>
			<path d="M157.4,72.9c1.1,0,2.3-0.3,3.4-0.8l15.3-6.9c1.9-0.9,3.3-2.2,3.9-3.9c0.6-1.7,0.5-3.6-0.3-5.5L175,45.3l-4.8,2.2
				l4.6,10.2c0.3,0.7,0.4,1.2,0.2,1.7c-0.1,0.4-0.5,0.7-1,0.9l-15.4,7c-0.3,0.1-0.6,0.2-0.9,0.2c-0.7,0-1.2-0.4-1.6-1.3l-3.2-7
				l-3.4,5.3l1.9,4.2C152.5,71.4,154.7,72.9,157.4,72.9z"/>
			<path d="M204.6,61c0.7,0,1.4-0.1,2.2-0.3c3.4-0.8,6.9-3.6,5.7-8.9l-2-8.8c-0.8-3.5-3.4-5.5-6.8-5.5c-0.7,0-1.4,0.1-2.1,0.3
				c-2,0.5-3.7,1.5-4.7,2.8c-1.2,1.6-1.5,3.6-1,5.9l1.4,6.2l-4.2,1l0.1,0.2l-0.4,0.1c-0.3,0.1-0.5,0.1-0.7,0.1
				c-0.8,0-1.3-0.5-1.6-1.3l-5.8-18.1l-5,1.6l5.9,18.3c0.9,2.9,3.5,4.9,6.3,4.9c0.7,0,1.4-0.1,2-0.3l0.9-0.3l-0.1-0.2h0.1l4.1-0.9
				l0,0C199.9,59.9,202,61,204.6,61z M202.5,42.9c0.3-0.1,0.6-0.1,0.8-0.1c1,0,1.6,0.5,1.9,1.5l2.1,8.9c0.1,0.5,0.1,1-0.2,1.4
				c-0.3,0.5-0.9,0.8-1.6,1c-0.3,0.1-0.6,0.1-0.8,0.1c-1,0-1.6-0.5-1.9-1.5l-2.1-8.9C200.5,44.1,201.1,43.2,202.5,42.9z"/>
			<path d="M245.4,24.3L245.4,24.3c-1.4,0-2.7,1.3-2.7,2.7c0,1.4,1.3,2.6,2.7,2.6h0.1c1.5,0,2.7-1.3,2.6-2.8
				C248,25.5,246.8,24.3,245.4,24.3z"/>
			<path d="M268.3,51.7l2.1,0.2c0.3,0,0.7,0.1,1,0.1c4.2,0,6.5-3.1,6.9-6.3l2.2-18.9l-5.2-0.6L273.1,45c-0.1,1.1-0.8,1.7-1.8,1.7
				c-0.1,0-0.2,0-0.3,0l-2.4-0.3l0,0l-2.1-0.1v-0.1l1.2-20.8l-5.2-0.3L261.3,46l0,0l-4.2-0.2v-0.2h-2.3l0,0l-0.1-6.1
				c-0.1-4.1-3-7-7-7c-0.1,0-0.1,0-0.2,0l-8,0.2l0.1,5.3l8.1-0.2c1,0,1.8,0.7,1.8,1.8l0.1,6.1h-0.1L235.4,46l-2.2,0.3l0,0l-0.4-3
				c-0.5-4.4-3.3-9-9.3-9c-0.5,0-1,0-1.6,0.1l-3.2,0.4l0.7,5.3l2.7-0.3c0.3,0,0.7-0.1,1-0.1c2.5,0,4.1,1.4,4.4,4L228,47l0,0
				l-10.7,1.3l0.7,5.3l17.9-2.2l20.9-0.5v0.2L268.3,51.7z"/>
			<path d="M305.9,31c-0.2,0-0.4-0.1-0.6-0.1c-1.2,0-2.3,0.9-2.6,2c-0.3,1.4,0.6,2.9,2,3.2c0.2,0,0.4,0.1,0.6,0.1
				c1.3,0,2.3-0.9,2.6-2.1c0.2-0.7,0-1.4-0.3-2C307.2,31.6,306.6,31.2,305.9,31z"/>
			<path d="M298.8,29.6c-0.2,0-0.4-0.1-0.6-0.1c-1.2,0-2.3,0.9-2.6,2c-0.2,0.7,0,1.4,0.3,2c0.4,0.6,1,1,1.6,1.2
				c0.2,0,0.4,0.1,0.6,0.1c1.2,0,2.4-0.9,2.6-2.1C301.2,31.4,300.3,29.9,298.8,29.6z"/>
			<path d="M306.8,64c-0.3-0.1-0.5-0.1-0.8-0.1c-1.2,0-2.2,0.8-2.6,1.9c-0.2,0.7-0.2,1.4,0.2,2c0.3,0.6,0.9,1.1,1.6,1.3
				c0.3,0.1,0.5,0.1,0.8,0.1c1.1,0,2.2-0.7,2.5-1.8C309,65.9,308.2,64.5,306.8,64z"/>
			<path d="M313.8,65.9c-0.3-0.1-0.5-0.1-0.8-0.1c-1.2,0-2.2,0.8-2.6,1.9c-0.4,1.4,0.4,2.9,1.7,3.4c0.3,0.1,0.5,0.1,0.8,0.1
				c1.2,0,2.2-0.7,2.5-1.8c0.2-0.7,0.2-1.4-0.1-2.1C315,66.6,314.4,66.2,313.8,65.9z"/>
			<path d="M338.8,71.2l-0.1,0.2l2.1,1.1c1.2,0.6,2.4,0.9,3.6,0.9c2.5,0,4.8-1.4,6.1-3.9l8.9-16.8l-4.6-2.5L345.9,67
				c-0.4,0.7-0.9,1.1-1.6,1.1c-0.3,0-0.6-0.1-0.9-0.3l-2.1-1.1l0.1-0.2l-2.1-0.9l2.5-5.8c0.8-2,0.9-3.9,0.1-5.7
				c-0.7-1.7-2.2-3.1-4.2-3.9c-1.2-0.5-2.4-0.8-3.5-0.8c-2.8,0-5,1.6-6.2,4.4l-2.5,5.8l-3.9-1.7l-0.1,0.1l0,0l-2.1-0.7l0,0l4.1-12.6
				l-5-1.6l-4.1,12.6l0,0l-6.7-2.2v-0.1l-2.2-0.5l0,0l3-12.9l-7.8-1.8c-0.6-0.1-1.3-0.2-1.9-0.2c-3.3,0-5.8,2.1-6.6,5.6l-1,4.1
				c-0.5,2-0.2,3.9,0.7,5.5c1,1.6,2.6,2.7,4.6,3.2l3.4-2.7v0.1l-0.8,3.2l6.9,1.6v0.1l13.9,4.5v-0.1l0,0l3.8,1.6l0,0
				c-0.3,3.1,1.5,5.7,4.8,7.1c1.2,0.5,2.4,0.8,3.5,0.8c2,0,3.7-0.8,4.9-2.3l0,0l0,0L338.8,71.2z M302,44.1l-1.8,7.7l-2.7-0.6
				c-1-0.2-1.5-1.1-1.3-2.1l1-4.1c0.2-1,0.9-1.6,1.7-1.6c0.1,0,0.3,0,0.4,0.1L302,44.1L302,44.1z M333.4,66.2
				c-0.3,0.8-0.9,1.2-1.7,1.2c-0.4,0-0.8-0.1-1.2-0.3c-0.7-0.3-1.2-0.7-1.4-1.3c-0.2-0.4-0.1-0.9,0.1-1.5l3.6-8.4
				c0.3-0.8,0.9-1.2,1.7-1.2c0.4,0,0.8,0.1,1.2,0.3c1.3,0.6,1.8,1.6,1.3,2.7L333.4,66.2z"/>
			<path d="M384.6,100.3c2,0,3.9-0.9,5.3-2.5l12.6-14.3l-3.9-3.5L386,94.2c-0.4,0.5-0.9,0.7-1.4,0.7c-0.4,0-0.9-0.2-1.2-0.5
				l-1.8-1.6l0,0l0.2-0.2l-5.6-4.1h0.1c1.9-0.5,4.2-0.9,5.8-0.9c0.2,0,0.4,0,0.5,0c1.4-1.8,2-3.9,1.7-6.1c-0.3-2.6-1.9-5.1-4.2-6.8
				c-1.8-1.3-4-2-6.2-2c-2.9,0-5.4,1.3-6.9,3.7c0.5,1.4,1,4.1,1.2,6.3v0.1l-0.1-0.1l-7.2-5.2l-0.2,0.3l-0.4-0.2
				c-1-0.6-1.2-1.5-0.6-2.5l9.8-16.3l-4.5-2.7l-9.9,16.5c-0.9,1.6-1.3,3.4-1,5.1c0.3,1.8,1.4,3.3,3,4.3l0.8,0.5l0.2-0.3l0,0l8.3,6
				c0.8,0.6,1.6,1,3,1l0,0l0,0c0.5,1.3,0.8,1.8,1.9,2.6l6.7,4.9l-0.2,0.2l1.8,1.6C381.3,99.6,382.9,100.3,384.6,100.3z M373.9,83.4
				L373.9,83.4c-0.1-1.4-0.3-3.1-1-4.8l0,0l0,0c1.7-0.5,3.1-0.4,4.2,0.4s1.7,2.2,1.6,3.9l0,0h-0.1C377.2,82.7,375.5,82.9,373.9,83.4
				L373.9,83.4z"/>
			<polygon points="411.1,91.6 407.3,88 387,108.6 392.7,110.3 			"/>
			<path d="M443.9,134.8c-0.5,0-0.9,0.1-1.3,0.4c-0.6,0.4-1.1,1-1.2,1.7c-0.2,0.7-0.1,1.4,0.3,2c0.5,0.8,1.3,1.3,2.3,1.3
				c0.5,0,1-0.1,1.4-0.4c1.2-0.8,1.7-2.4,0.9-3.6C445.7,135.3,444.8,134.8,443.9,134.8z"/>
			<path d="M426.8,149.7c1.3,0,2.6-0.4,3.8-1.1l9.8-5.9l-2.7-4.5L428,144c-0.4,0.2-0.8,0.4-1.1,0.4c-0.7,0-1.2-0.5-1.5-1l-2.7-4.5
				l0.1-0.1l-1.3-1.8l0,0l5.1-3.7c3.5-2.5,4-6.7,1.4-10.3c-1.6-2.2-3.7-3.4-5.9-3.4c-1.5,0-2.9,0.5-4.3,1.6l-5.1,3.7l0,0l-2.5-3.4
				l-0.2,0.1l0,0l-0.3-0.3c-0.8-0.9-0.7-1.8,0.2-2.6l14.4-12.4l-3.4-4l-14.6,12.5c-1.4,1.2-2.3,2.8-2.5,4.5c-0.2,1.8,0.3,3.6,1.5,5
				l0.6,0.7l0.1-0.1l0,0l2.5,3.4l0,0c-1.8,2.5-1.6,5.7,0.5,8.6c1.6,2.1,3.7,3.4,5.9,3.4c0.7,0,1.4-0.1,2.1-0.4l0,0l0,0l1.2,1.7
				l-0.1,0.1l2.8,4.6C422.3,148.4,424.4,149.7,426.8,149.7z M416.2,134.4c-0.4,0.3-0.7,0.4-1.1,0.4c-0.6,0-1.3-0.4-1.8-1.1
				c-0.9-1.2-0.8-2.3,0.2-3l7.4-5.4c1-0.7,2.1-0.5,2.9,0.7c0.4,0.6,0.6,1.1,0.6,1.6c0,0.6-0.3,1-0.8,1.4L416.2,134.4z"/>
			<path d="M444.6,160.3c-0.8,0-1.5,0.2-2.3,0.5c-2.8,1.2-4.1,4.5-2.8,7.4c0.9,2,2.9,3.4,5.2,3.4c0.8,0,1.5-0.2,2.2-0.5
				c2.8-1.2,4.1-4.6,2.9-7.4C448.9,161.6,446.9,160.3,444.6,160.3z"/>
		</g>
		<g>
			<polygon points="34.1,184.8 32.8,190.2 48.8,194.2 48.7,194.3 30.1,200.7 28.8,205.9 54.9,212.4 56.3,207 40.2,203 40.3,202.9 
				58.9,196.5 60.2,191.3 			"/>
			<path d="M27.7,212.1l-0.7,6.1l4.8,2.1l0,0l-0.9,8.1l0,0l-5.1,0.9l-0.7,6.2l27.7-5.6l0.7-6L27.7,212.1z M35.7,227.7L35.7,227.7
				l0.6-5.5l9.3,3.9L35.7,227.7z"/>
			<polygon points="31.4,256 31.6,256 51.6,250.5 51.3,241.4 24.5,242.2 24.6,247.7 44.3,247.1 44.3,247.2 24.8,253 24.9,259.4 
				44.7,264.1 44.7,264.2 25.1,264.7 25.2,270.2 52.1,269.5 51.9,261.1 			"/>
			<polygon points="35.3,291.7 35.5,291.6 54.3,282.9 52.6,274.1 26.2,279.2 27.3,284.6 46.6,280.8 46.6,280.9 28.3,289.8 29.5,296 
				49.8,297.5 49.8,297.6 30.5,301.3 31.6,306.7 57.9,301.6 56.3,293.4 			"/>
			<path d="M33.5,313.1l2,5.8l5.2-0.2l0,0l2.7,7.7l0,0l-4.2,3l2.1,5.9l22.5-17.2l-2-5.7L33.5,313.1z M55.6,317.9l-8.1,5.7v-0.1
				l-1.8-5.2h0.1l10-0.6L55.6,317.9z"/>
			<rect x="47" y="341.5" transform="matrix(0.8949 -0.4462 0.4462 0.8949 -147.3265 63.1707)" width="26.9" height="5.9"/>
			<polygon points="70.4,368.1 70.4,367.9 78.7,350.1 75.8,345.6 53.1,359.8 56.1,364.6 70.1,355.8 70,356 61.8,373.8 64.6,378.3 
				87.4,364.1 84.4,359.3 			"/>
			<polygon points="85.8,370.1 89.9,375.1 89.8,375.2 72.8,388.9 76.5,393.5 93.6,379.7 93.6,379.7 97.4,384.5 101.8,382 89.6,367 
							"/>
			<polygon points="85.3,403.8 97,415.1 101,412.1 93,404.4 93,404.3 97.4,399.8 97.4,399.8 103.6,405.8 107.6,402.8 100.8,396.3 
				100.8,396.2 104.8,392.1 104.8,392.2 112.2,399.3 116.3,396.4 104,384.5 			"/>
			<path d="M112.8,428.5l5.1,4.1l1.9-11h0.1c0.6,0.1,1.2,0.2,1.8,0.2c2.5,0,4.8-1.3,6.7-3.6c2.1-2.6,4.6-7.9-2.3-13.5l-7-5.6
				l-16.8,21l4.6,3.7l5.5-6.9l0,0l2.6,2l0,0L112.8,428.5z M115.4,413l5.2-6.5l0,0l2.7,2.1c0.8,0.6,1.3,1.5,1.4,2.4
				c0.1,1.1-0.3,2.2-1.1,3.3c-0.9,1.1-2.1,1.8-3.2,1.8c-0.8,0-1.6-0.3-2.3-0.9L115.4,413L115.4,413z"/>
			<polygon points="142.7,435.9 142,416.3 137.5,413.5 123.5,436.5 128.3,439.4 136.9,425.2 136.9,425.4 137.5,445 142.1,447.8 
				156.1,424.8 151.3,421.9 142.7,436.1 			"/>
			<path d="M163.6,457.8l5.7,2.5l2.8-28.1l-5.5-2.4l-18.9,21l5.7,2.5l3.4-4l0,0l7.4,3.3l0,0L163.6,457.8z M159.9,445.5L159.9,445.5
				l6.5-7.7v0.2l-1.4,9.8h-0.1L159.9,445.5z"/>
			<polygon points="189.4,443.8 189.5,443.8 195.2,445.7 197.6,441.2 179.2,435.3 177.6,439.9 183.8,441.9 183.8,442 177,462.8 
				182.6,464.6 			"/>
			<polygon points="200.7,469.4 206.9,443.3 201.1,441.9 194.9,468.1 			"/>
			<path d="M223.7,445.7c-0.8-0.1-1.5-0.1-2.2-0.1c-6.8,0-11,4.4-12.1,12.2c-1.1,8.7,2.7,14.3,10.7,15.4c0.8,0.1,1.5,0.1,2.2,0.1
				c6.7,0,11-4.3,12.1-12.2C235.5,452.4,231.6,446.8,223.7,445.7z M228.3,460.3c-0.4,2.9-1.1,4.9-2.2,6.2c-1,1.3-2.4,1.9-4.2,1.9
				c-0.4,0-0.8,0-1.2-0.1c-2.2-0.3-3.7-1.2-4.5-2.7c-0.9-1.6-1.2-3.9-0.7-7.1c0.7-5.5,2.8-8.1,6.4-8.1c0.4,0,0.8,0,1.2,0.1
				C227.5,451.2,229.1,454.2,228.3,460.3z"/>
			<polygon points="256.4,447.8 256.5,464.4 256.4,464.3 245.5,447.9 240.2,448 240.4,474.8 246,474.8 245.9,458.2 246,458.4 
				256.8,474.7 262.2,474.7 262,447.8 			"/>
			<path d="M273.5,446.5l-5,27.8l6.1-0.8l0.8-5.2l0,0l8-1.1l0,0l2.2,4.7l6.2-0.8l-12.4-25.4L273.5,446.5z M281.5,462.6l-5.4,0.7
				v-0.1l1.4-9.9L281.5,462.6L281.5,462.6z"/>
			<polygon points="302.1,463.5 302.1,463.4 296.8,442.2 291.1,443.7 297.6,469.7 312.2,466 311.8,461.1 			"/>
			<polygon points="334.3,429 337.3,449.9 337.2,449.7 324.5,433.3 316.3,436.9 327,461.5 332.1,459.3 324.2,441.3 324.3,441.3 
				337,457.2 342.8,454.6 339.7,434.5 339.8,434.5 347.7,452.4 352.8,450.2 342,425.6 			"/>
			<path d="M351.8,419.6l6.8,27.4l5.2-3.3l-1.4-5l0,0l6.9-4.3l0,0l3.9,3.4l5.3-3.3l-21.7-18.1L351.8,419.6z M358.4,424.3l7.4,6.6
				l-4.7,2.9v-0.1l-2.8-9.6L358.4,424.3z"/>
			<path d="M388.8,413.9L388.8,413.9c1.4-3,0.9-6.1-1.5-9.1c-1.9-2.3-4.2-3.6-6.6-3.6c-2.2,0-4.6,1-7,3l-7,5.6l16.9,20.9l4.6-3.7
				l-5.6-6.9l0,0l2.5-2.1l8.9,4.1l5.1-4.1L388.8,413.9z M382.2,414.3l-2.7,2.2l0,0l-5.3-6.5l0,0l2.6-2.1c0.7-0.6,1.5-0.9,2.3-0.9
				c1.2,0,2.4,0.6,3.3,1.8c0.8,1,1.2,2,1.1,2.9C383.6,412.6,383.1,413.5,382.2,414.3z"/>
			<rect x="393.2" y="388.8" transform="matrix(0.72 -0.694 0.694 0.72 -168.2383 387.5965)" width="5.9" height="26.9"/>
			<polygon points="415.9,385.6 415.7,385.5 396.3,383 392.8,387 413.1,404.5 416.8,400.3 404.2,389.5 404.4,389.5 423.8,392.1 
				427.3,388 407,370.5 403.3,374.8 			"/>
			<polygon points="432,381.5 441.1,368 437.5,364.6 431.2,373.9 431.2,373.9 426,370.4 426,370.3 430.8,363.2 427.1,359.8 
				421.9,367.6 421.8,367.6 417.1,364.4 417.1,364.4 422.8,355.8 419.2,352.4 409.7,366.6 			"/>
			<path d="M452.1,348.5c1.3-2.8,1.7-5.3,1.1-7.4s-2.2-3.8-4.7-5c-1-0.5-2.1-0.8-3.2-0.8c-3.2,0-5.9,2.3-8,4.2
				c-1.5,1.3-2.8,2.4-3.9,2.4c-0.2,0-0.4,0-0.6-0.1c-0.6-0.3-1-0.7-1.1-1.3c-0.2-0.8,0-1.8,0.6-3.1c1.1-2.2,2.6-3.6,4.1-4.9
				l-4.2-3.1c-1.6,1.3-3.4,3.6-4.3,5.6c-1.3,2.7-1.8,5.1-1.5,7.1c0.4,2.2,1.7,3.8,4,4.9c1.1,0.5,2.2,0.8,3.3,0.8
				c3,0,5.3-2.1,7.3-3.9c1.6-1.5,3-2.7,4.5-2.7c0.4,0,0.7,0.1,1.1,0.3c0.7,0.4,1.2,0.9,1.5,1.5c0.2,0.6,0.3,1.7-0.5,3.4
				c-1.4,2.9-3.7,5-4.5,5.7l4.3,3C449.1,353.6,450.8,351.2,452.1,348.5z"/>
			<polygon points="443.2,311.2 438.8,308.7 433,324.8 458.3,333.9 463.8,318.6 459.5,316.2 455.7,326.7 455.6,326.7 449.7,324.5 
				449.7,324.5 452.6,316.4 448.3,314 445.1,322.9 439.7,320.9 439.7,320.9 			"/>
			<path d="M459.9,294.8L459.9,294.8c-0.7-3.2-3.1-5.4-6.7-6.3c-0.9-0.2-1.8-0.3-2.7-0.3c-3,0-6.9,1.4-8.5,8.2l-2.1,8.7l26.1,6.2
				l1.4-5.7l-8.6-2l0,0l0.8-3.2l0,0l9.6-2.2l1.5-6.3L459.9,294.8z M454.9,299.1l-0.8,3.4l0,0l-8.1-1.9l0,0l0.8-3.3
				c0.4-1.8,1.8-2.8,3.7-2.8c0.4,0,0.9,0.1,1.3,0.2C454.3,295.1,455.5,296.8,454.9,299.1z"/>
			<polygon points="447.5,261.2 446.8,267.3 466.1,275.1 465.9,275.1 445.5,278.3 444.8,284.4 472.5,278.9 473.2,272.9 			"/>
			
				<rect x="458" y="241.8" transform="matrix(2.527121e-02 -0.9997 0.9997 2.527121e-02 194.0618 709.5759)" width="5.9" height="26.9"/>
			<path d="M446.4,234.3c0.5,7.7,5.8,12.6,13.8,12.6l0,0c0.4,0,0.9,0,1.3,0c8.4-0.5,13.1-6,12.6-14.6c-0.1-1.6-0.6-5-1.3-6.6
				l-5.5-0.6c0.7,1.7,1.6,5.1,1.7,6.9c0.1,1.5,0,3.6-1.1,5.4c-1.2,2.1-3.4,3.3-6.5,3.5c-0.4,0-0.9,0-1.3,0c-5.4,0-8.3-2.4-8.6-7.2
				c-0.2-2.8,0.6-5.5,1.1-6.8l-5.3-0.7C446.6,228.7,446.2,231.5,446.4,234.3z"/>
			<polygon points="464.4,202.2 466.3,213.2 466.3,213.2 460.1,214.3 460.1,214.2 458.6,205.8 453.6,205.8 455.3,215.2 455.2,215.2 
				449.6,216.2 449.6,216.1 447.8,206 442.8,206 445.8,222.8 472.2,218.1 469.4,202.1 			"/>
			<path d="M466.1,188.1c-1.4-4.8-4.1-7.3-8-7.3c-0.9,0-1.9,0.2-3,0.5c-5,1.4-5.6,6.2-6,10.1c-0.3,2.4-0.5,4.3-1.8,4.7
				c-0.2,0.1-0.5,0.1-0.7,0.1c-1.2,0-2.1-1-2.7-3c-0.7-2.4-0.5-4.4-0.2-6.3l-5.2,0.5c-0.3,1.6-0.2,4.5,0.5,7.1c1.4,5,4,7.6,7.5,7.6
				c0.7,0,1.5-0.1,2.4-0.4c4.9-1.4,5.4-5.6,5.8-9.4c0.3-2.7,0.5-5,2.5-5.6c1.9-0.5,3.3,0.5,4,3c0.9,3,0.6,6.2,0.5,7.2l5.2-0.6
				C467.3,193.9,466.9,191,466.1,188.1z"/>
		</g>
		<path d="M250,500C112.1,500,0,387.8,0,250S112.1,0,250,0s250,112.2,250,250S387.9,500,250,500z M250,2.4
			C113.4,2.4,2.4,113.4,2.4,250S113.5,497.7,250,497.7c136.6,0,247.6-111.1,247.6-247.7S386.6,2.4,250,2.4z"/>
	</g>
</g>
</svg>
