<?xml version="1.0" encoding="utf-8"?>
<!-- Generator: Adobe Illustrator 26.0.1, SVG Export Plug-In . SVG Version: 6.00 Build 0)  -->
<svg version="1.1" id="Layer_1_xA0_Image_00000060713344043398959330000011120003404378323365_"
	 xmlns="http://www.w3.org/2000/svg" xmlns:xlink="http://www.w3.org/1999/xlink" x="0px" y="0px" viewBox="0 0 500 482.3"
	 style="enable-background:new 0 0 500 482.3;" xml:space="preserve">
<style type="text/css">
	.st0{fill:#0A033C;}
	.st1{fill:#FEFDFE;}
	.st2{fill:#0D053D;}
	.st3{fill:#0B043C;}
	.st4{fill:#0B033C;}
	.st5{fill:#0B043D;}
	.st6{fill:#0C043D;}
	.st7{fill:#F9F7F9;}
	.st8{fill:#0F063E;}
	.st9{fill:#0E063D;}
	.st10{fill:#12083E;}
	.st11{fill:#090237;}
	.st12{fill:#080233;}
	.st13{fill:#6D5489;}
	.st14{fill:#090236;}
	.st15{fill:#150943;}
	.st16{fill:#090333;}
	.st17{fill:#0D0636;}
	.st18{fill:#362454;}
	.st19{fill:#180B43;}
	.st20{fill:#080232;}
	.st21{fill:#28184D;}
	.st22{fill:#0E0726;}
	.st23{fill:#181121;}
	.st24{fill:#786681;}
	.st25{fill:#221B24;}
	.st26{fill:#090235;}
	.st27{fill:#4A385F;}
	.st28{fill:#0A0434;}
	.st29{fill:#0F0A23;}
	.st30{fill:#6D5A79;}
	.st31{fill:#150942;}
	.st32{fill:#08022F;}
	.st33{fill:#FFFFFF;}
	.st34{fill:#FEFEFE;}
	.st35{fill:#FFFEFF;}
	.st36{fill:#FCFBFC;}
	.st37{fill:#FDFDFD;}
	.st38{fill:#FBF9FB;}
	.st39{fill:#FAF8FA;}
	.st40{fill:#FAF9FA;}
	.st41{fill:#FDFCFD;}
	.st42{fill:#090339;}
	.st43{fill:#F5F3F5;}
	.st44{fill:#F9F8F9;}
	.st45{fill:#FAF8F9;}
	.st46{fill:#FBFAFB;}
	.st47{fill:#F7F5F7;}
	.st48{fill:#F6F4F6;}
	.st49{fill:#D5CDD6;}
	.st50{fill:#F8F7F8;}
	.st51{fill:#F8F6F8;}
	.st52{fill:#F7F6F7;}
	.st53{fill:#F3F0F2;}
	.st54{fill:#F3F0F3;}
	.st55{fill:#F7F4F6;}
	.st56{fill:#F9F7F8;}
	.st57{fill:#F5F2F5;}
	.st58{fill:#F6F3F5;}
	.st59{fill:#10063F;}
	.st60{fill:#E3DCE4;}
	.st61{fill:#E8E2E8;}
	.st62{fill:#E7E2E6;}
	.st63{fill:#D8D0D7;}
	.st64{fill:#E3DDE3;}
	.st65{fill:#E2DBDF;}
	.st66{fill:#D3CBD2;}
	.st67{fill:#F8F6F7;}
	.st68{fill:#090337;}
	.st69{fill:#725C84;}
	.st70{fill:#7D688D;}
	.st71{fill:#B4A4B8;}
	.st72{fill:#EAE4EA;}
	.st73{fill:#D0C5D0;}
	.st74{fill:#140943;}
	.st75{fill:#FFFFF4;}
	.st76{fill:#BEB0BE;}
	.st77{fill:#080231;}
	.st78{fill:#C9BCCB;}
	.st79{fill:#CFC5D0;}
	.st80{fill:#0A0335;}
	.st81{fill:#0D0634;}
	.st82{fill:#FFFFFC;}
	.st83{fill:#DAD1D9;}
	.st84{fill:#0B0436;}
	.st85{fill:#1A0D44;}
	.st86{fill:#0C053D;}
	.st87{fill:#10073F;}
	.st88{fill:#1E1045;}
	.st89{fill:#140940;}
	.st90{fill:#10063E;}
</style>
<g>
	<path class="st0" d="M279,472.1c1.5,2.1-0.1,6.4,4.6,7.2c-5,0.6-10,1.1-15,1.7c-1.6,0.5-2.9,0.7-2.2-1.8c1.8-6.2-0.3-12.3-1.5-18.2
		c-0.6-2.8-3.5-2.7-6.1-2.3c-2.6,0.4-3.7,1.9-3.5,4.4c0.3,3.2,0.7,6.4,1,9.7c0.2,2.8,1.9,4.3,4.9,3.7c1.1-0.2,2.5-0.5,2.9,0.9
		c0.5,1.6-0.9,2.1-2,2.8c-2.7,1.9-6.1,0.8-8.9,2.3c-1.4,0-2.8,0-4.2,0c-4.5-2.4-4.9-6.7-5-11.1c-0.1-3-0.2-5.9-0.1-8.9
		c0.1-2.7-0.1-5.1-3.7-5.9c2-0.5,3.3-1.4,4.4-3c1.7-2.3,4.1-4.2,6.4-6.1c1.9-1.5,3.2-1.5,3.4,1.6c0.3,6,0.5,5.6,6.3,6.4
		c4.6,0.7,8.9,0.4,13.3-0.3c1.8-0.3,3.1-0.2,3.2,2.4c0.1,3.5,0.9,6.9,1.3,10.4C278.3,469.4,277.7,470.8,279,472.1z"/>
	<path class="st1" d="M253.3,482.3c2.6-2.2,6.3-1.6,9.1-3.4c0.7-0.4,1.9-0.6,1.5-1.6c-0.4-1.1-1.2-0.5-2.1-0.2
		c-4.4,1.4-6.2,0.3-6.8-4.3c-0.4-3.1-0.6-6.2-0.6-9.3c0-1.9-1.1-4.7,0.9-5.4c3.1-1.1,6.6-1.4,9.8-0.1c0.7,0.3,0.8,1,0.9,1.8
		c0.8,5.8,1.7,11.6,2.6,17.5c0.1,0.9,0.1,1.7-0.7,2.2c-3,1.9,0.9,0.7,0.6,1.4c0,0.5,0,0.9,0,1.4
		C263.5,482.3,258.4,482.3,253.3,482.3z"/>
	<path class="st2" d="M500,171.3c-2.2,1.2-2.2,3.4-2.5,5.4c-0.4,2.3-1.5,2.8-3.5,2c-0.8-0.3-1.6-0.5-2.4-0.9c-1.4-0.8-4.1-1.1-4-2.7
		c0.1-2.5,1.2-5.1,2.2-7.5c0.5-1.2,1.9-0.7,3-0.3c2.4,0.8,4.8,1.5,7.1,2.3C500,170.1,500,170.7,500,171.3z"/>
	<path class="st0" d="M157.5,171.9c0.9-0.7,1.9-0.4,2.8-0.4c3.9-0.1,7.3,0.3,10.5-3.8c4.7-6,12-4.6,16.6,1.8c1,1.4,2.1,2.1,3.9,2
		c2.1-0.2,4.2-0.2,6.4,0c3.6,0.2,6.4-0.4,8.9-3.7c3.7-4.9,11.4-5,15.1-0.1c2.6,3.5,5.4,3.8,9,3.6c2.7-0.1,5.4,0,8,0
		c5.3-0.6,10.6-1.4,16-1.1c1.4,0.1,2.8,0.3,4.1-0.6c1.3-3.5,1.1-3.9-2.4-3.8c-3,0.1-6,1.1-9.1,0.4c-1.4-0.3-2,0.6-2.2,1.9
		c-0.2,1.1-0.2,2.2-1.3,2.9c-1.6-0.1-3.2,0.6-4.7-0.5c0.8-5.9-2.8-8-7.4-10.6c-22.9-12.6-22.7-40.8-5-55.2
		c15.3-12.5,42.5-11.6,54.4,8c5.1,8.3,12.1,12.2,19.7,16.5c2.5,1.4,6.2,1.8,6.9,5.1c0.8,3.7,2.3,6.6,5.4,8.8c0.9,0.6,1.4,2.1,1,3.1
		c-2.6,6.2,1.7,11.3,2.5,16.9c0.2,1.6,0.7,1.6,2.1,1.5c5-0.6,8.6,1.7,11,6c4.9,1.4,9.9,0.7,14.7,0.5c3.9-0.2,5.6,0.9,5.5,4.8
		c0.1,8.2,0.1,16.3,0.2,24.5c0,1.4-0.2,2.2-1.9,1.8c-4.5-0.6-9-0.6-13.5,0c-2.2,0-2.9,1.1-3.5,3.2c-2.4,8.9-11,12.4-17.8,7.5
		c-1.8-1.3-2.5-3.4-3.9-4.9c-1-1.1-0.1-4-2.6-3.5c-3.6,0.7-8.1-0.7-10.6,3.4c-5,8.1-9.9,9.3-18,4.1c-2.9-1.8-5,1-7.5,1.5
		c-0.1,0,1,1.8,0.9,3.2c-0.3,7-0.6,14.1-1.5,21c-0.4,3.4,0.6,4.9,3.7,7.1c5.2,3.7,11.7,5.1,16.4,9.9c2.3,2.4,5.1,5.1,9.1,5.6
		c2.8,0.3,5.8,6.7,4.7,9.6c-0.6,1.7,0,2.6,1.2,3.6c2.9,2.5,3.1,5.4,1.3,8.6c-0.6,1-0.6,1.6,0,2.8c1.7,3.4,1.8,7-1.5,9.8
		c-1.8,1.5-3,3.1-3.2,5.6c-0.2,2.7-1.9,4.8-5,4.5c-2.2-0.2-3.1,1.1-3.7,2.8c-1.3,3.5-3.9,5-7.5,4.9c-3-0.1-4.7,2-6.9,3.4
		c-5.9,3.7-4.6,8.8-4.7,13.9c0,2.7,0.2,5.4-0.1,8c-0.3,3.1,1.2,3.2,3.5,2.5c10.8-3.5,21.7-6.7,32-11.5c2.1-1,3.8-2.3,5.4-4
		c1.4-1.4,0.4-1.8-0.8-2.3c0.6-1.5-1-3.2,0.3-4.6c0.6-0.3,1.2-0.4,1.8-0.4c6.8,1.5,7.4,2.9,3.9,10.3c-0.7,1.4-1.7,2.5-3.1,3.2
		c-4.1,2.4-8.6,4-12.9,6.2c-6.4,2.8-13.1,4.8-19.9,6.5c-0.4,0-0.8-0.1-1.2-0.3c-0.7-0.5-0.9-1.3-1.4-2c0,0.9,0.9,1.8,0.1,2.7
		c-1.2,0.8-2.6,1.2-4,1.4c-3,0.4-5.6-1.1-8.5-1.2c-1.1-1.1-1.2-2.5-1.2-3.9c-0.1-12.4-0.4-24.9,0-37.3c0.1-0.9,0.3-1.8,1-2.5
		c1.9-1.2,2.6,1.3,4,1.3c0.8,0,1.3-0.4,1.8-0.9c3.2-3.6,7.4-6.1,9.5-10.9c1.4-3.2,2.6-7,2.3-9.8c-0.3-2.8-2.5-6.6-5.5-8.7
		c-1.5-1.1-2.9-2.2-3.7-3.9c-1.1-1.8-2.9-1.1-4.5-1c-2.2-0.4-4.4-0.1-6.7,0c-4.7-0.8-9.5,0.4-14.2-0.8c-0.9-0.2-2,0.1-3.5-0.8
		c3.4,3.3,4.6,7,6,10.7c0.4,1.1,0.4,2.3-0.4,3.2c-2.3,2.8-1.9,6-2,9.3c-0.2,9.7,0.5,19.5-0.7,29.2c-0.9,7,1,14.1,0.7,21.1
		c-0.2,5.3-0.6,10.6,0.7,15.9c0.5,2,0,4.2-0.6,6.3c-1.5,5.1-0.2,6.9,5.1,6.5c7.9-0.5,15.7-1.5,23.2-4.3c12.5-4.7,25.1-9.3,35.7-17.9
		c5.7-4.6,11.8-8.8,18.2-12.4c0.5-0.3,1-0.6,1.5-0.9c1.6-0.8,3.4-2,4.9,0c1.4,1.9,0.1,3.6-1.2,4.9c-2.8,2.8-5.6,5.7-8.7,8
		c-6.9,5.1-12.7,11.6-20.9,14.9c-3.4,1.4-6.2,3.9-9.3,5.8c-7.6,4.7-16.1,7.4-23.8,12c-4.3,2.6-9,4-13.4,6.4
		c-2.3,1.3-4.7,2.5-7.3,4.9c6.3-2.4,11.1-5.8,16.3-8.5c12.8-6.5,25.9-12.6,38.5-19.5c4.2-2.3,8.4-4.7,12-7.8c1.4-1.2,3-2.7,4.8-2.5
		c6.1,0.7,8.5-3.9,11.6-7.6c0.8-1,1.4-2.1,2.4-2.9c3.9-3.1,7.6-1.9,9,2.9c0.4,1.5-0.1,3.7,2.2,4.1c2,0.3,3.4-1,4.7-2.4
		c1.8-1.9,3.2-4,4.2-6.3c6.9-15.6,12-31.7,11.6-49c-0.2-9.1-1.8-17.9-5-26.5c-1.2-3.1-2.2-6.3-2-9.5c0.5-0.4,0.1-0.4,0-0.2
		c-0.4,3.3-1.8,5.7-5.5,5.8c-2.5,0.1-4.2-2.8-4.4-6.8c-0.3-6.4,1.9-8.5,8.3-7.3c-0.3-2-0.3-4.3-3.1-4.3c-2.5,0-4.2,1.4-4.8,4
		c-1.4,6.2-1.8,12.6-3.4,18.7c-1.6,6.2-3.6,12.2-6.1,18c-5,8.7-12.1,15.6-19.7,22c-1.1,0.8-2,1.8-3.1,2.7c-3.9,3.3-8.8,4.8-12.9,7.7
		c-1.4,1-3.2,2-0.6,3.6c1.9,1.7,3.3,3.4-0.2,5c-2.2-0.5-4.4-0.8-6.4-1.6c-4.2-1.6-4.6-3.5-1.6-6.8c3.1-3.5,7.3-5.6,11.2-8.1
		c15.3-9.6,28.4-20.7,32.8-39.6c1.8-7.5,3.2-15.1,4.5-22.7c1-6.1,8-10.8,13.9-9.1c3.3,1,4.1,4.1,4.5,7.1c1.2,8.9,3,17.7,5.8,26.3
		c1.8,5.6,2.9,11.4,3.4,17.3c1.2,14.5-2,28.4-6.6,42.1c-2,5.9-4,11.6-7.3,16.9c-1.2,1.9-2.5,3.7-4.1,5.3c-7,6.8-13.1,5.3-15.8-4.5
		c-1.9,2.3-3.6,4.4-5.3,6.4c-9.4,11.4-21.2,19.4-34.5,25.6c-16,7.5-31.7,15.6-46.8,24.9c-7.5,4.6-10.8,3-16.7-2.4
		c-3.2-2.9-6.8-4.9-10.8-6.4c-2.3-0.8-3.3-0.7-3.5,2.1c-0.3,4.1-2,7.9-4.4,11.2c-2.2,3-3.8,2.5-7,0.6c-6.6-4-12.1-9.8-19.6-12.4
		c-2.8-1-4.6-3.2-6.2-5.5c-1.5-2-3.3-4.1-3.8-6.5c-2.6-11.7-11.1-18.4-20.3-24.4c-1.3-0.8-2.6-1.8-3.7-2.8c-2.5-2.4-4.2-4.3-7.7-0.5
		c-3.6,3.9-12.5,0.8-16.5-4.9c-3.2-4.5-5.5-9.4-7.6-14.5c-7.3-17.9-11.1-36.5-11-55.8c0.1-13.9,5.3-25.6,16-34.8
		c1.7-1.4,3.5-2.3,5.7-2.6c3.6-0.5,6.5,1.5,6.8,5.1c0.4,3.8,0.5,7.6,0.7,11.4c-0.3,1.4-0.8,2.9,0.3,4.2c2,7.4,4.2,14.7,8,21.5
		c5.6,10,13.7,17.3,23.2,23.4c2.7,1.8,5.5,3.4,8.2,5.2c2.9,1.8,6.4,2.9,5.6,7.7c-0.8,4.6-3.6,6-7.7,6c1.8,4,8.8,5.9,12.1,3.2
		c8.1-6.6,17.6-11,26.3-16.6c2.2-1.4,3-2.8,3-5.3c0-11.4,0.1-22.8,0.2-34.3c0-0.3,0.1-0.6,0-0.8c-1.2-2.4,3.7-6.6-2.2-7.6
		c-3-0.5-5.6-3.6-9-1.4c-1,0.7-2.3,0.4-2.7-0.2c-2.2-3.3-5.4-2.3-8.4-2.4c-0.8,0-2.3-0.1-2.4-0.4c-1.2-5.7-9.7-3.9-10.4-10.1
		c-0.1-0.8-1.6-1.4-2.6-2c-2.8-1.7-4.4-4-3.7-7.3c0.3-1.5-0.5-2.3-1.3-3.3c-0.8-1-1.5-2.1-2-3.2c-1.5-3.8,3.8-7-0.1-11.8
		c-2.6-3.2,2.3-7.4,4.4-11c0.8-1.4,2.4-2.4,1.8-4.3c-1.9-0.1-2,1.5-2.7,2.5c-5.6,7.8-14.9,7.4-19.3-1.2c-1.2-2.4-2.7-3-5.2-3.1
		c-4.5-0.2-9,0.4-13.5-0.3c-1.9-0.3-1.6-0.9-1.4-2.1c0.6-9.6,0.6-19.2,0-28.8c0.1-0.7-1-1.9,0.8-1.8
		C151.9,172.8,154.7,173.1,157.5,171.9z"/>
	<path class="st0" d="M245,24.6c0.4-5.5,0.1-10.9-0.6-16.4c-0.4-3,2.1-5.2,4.2-8.3c1.7,7.9,3.1,15.1,4.8,22.2c1,4.2,1,8.6,3.4,12.4
		c2.4,1.6,5.2-0.2,7.6,1c0.7,0,1.4-0.1,2.1,0c3.3,0.6,4.8-0.3,4.7-4c-0.1-5.1,1.1-6.4,8.1-11.3c1.3,3.2,0.3,6.3-0.2,9.4
		c-1.1,6.4-0.7,6.9,5.6,7.9c6.5,1,12.9,2.1,20.5,3.4c-3.6-3.6-4.3-7.9-8.8-9.7c-2.9-1.2-4.5-9-3.1-12.1c0.1-0.1,0.2-0.2,0.2-0.4
		c3.2-12.6,13.5-10.4,22.5-11c1.6,0.5,3.2-0.6,4.8,0.3c0.1,0.1,0.3,0.3,0.4,0.4c-0.3,0.9-0.6,1.9-1,2.8c-1.3,3.7-3.3,6.2-7.8,6.2
		c-3.5,0.1-6.9,0.9-10.6,1.4c0.7,3.3,3.3,5.3,4.6,8.1c0.6,1.4,1.5,2.8,2.4,4c6.5,8,4.1,15.8-0.2,23.8c-0.9,1.7-1.9,2.2-3.7,1.7
		c-9.6-2.4-19.2-4.4-29.1-4.8c-3.3-0.1-4.1-3-5.1-5.4c-2.3,0.7-1.6,4.6-4.5,4.4c-4.8-0.3-9.5-0.8-14.2-1.6c-1.5-0.2-1.3-2.2-1.4-3.7
		c-0.3-4.2-1.1-8.2-2.8-12.1c-1.3,5.1-1.4,10.5-4.4,15c-4.4,6.5-11.6,7.8-18.6,9.3c-0.7,0.1-1.4,0.1-2.1,0.2c-1,0.1-2.5,1.2-2.7-1
		c4.9-4.4,10-8.7,14.8-13.2c4.1-3.9,4.2-5.8,1.7-10.8c-1.4-2.7-3.5-4.7-5.4-7c-0.4-0.5-1.5-1.2-1.7-1c-4.3,3.3-5.9-1.8-8.5-3.1
		c-3.7-1.9-3.1-5.9-2.7-9.5c0.3-2.9,0.3-5.8,1.5-9c12.4,6.7,20.2,16.5,22.1,31.3c2.1-2,1.5-4.4,2.7-5.9
		C245.8,27.4,245.2,26,245,24.6z"/>
	<path class="st0" d="M110.6,85.4c2.9,6.9,7.7,12.7,5.3,20c-2.4,7.2-7.5,12.4-13.5,17.7c0.6-6.7,2.6-12.5,3.8-18.4
		c1.8-8.8-4.8-16.2-13.9-15.4c-0.4,0-0.9,0-1.2,0.2c-7.2,5.3-12.3,4-16.9-4.1c-1.3-2.3-4-5-2.8-7.1c1.2-2.3,4.9-0.9,7.5-0.9
		c10,0.2,18.6,3.7,25.8,10.7c0.8,0.7,1.7,1.4,3.3,2.7c-3-8.2-6.5-15-12.3-20.3c-3.6-3.3-4-7.1-4.1-12.1c6.3,5.6,12.1,10.8,17.9,16
		c0.3,0.3,0.6,0.5,1,0.8c7.4,6.4,7.3,6.3,15.1,0.6c1.6-1.2,1.8-2.1,0.6-3.3c-5.4-5.5-8.9-13-16.5-16.4c-1-0.5-1.5-1.3-1.6-2.3
		c-0.5-3.4-0.8-6.9-1.4-11.6c4.1,4,8.3,4.7,12.7,4.4c2-0.2,3,0.8,2.6,2.7c-1.6,7.8,3,13,7.5,18.2c1.2,1.3,2.2,3.1,4.4,2.7
		c7-1.4,9.7,3.2,11.8,8.6c0.7,1.8,1.1,3.7,1.8,6c-9.9-2.4-15.1,5-21.3,10c-2.1,1.7-3.1,2-4.9-0.1C118.2,91.4,115.4,87.9,110.6,85.4z
		"/>
	<path class="st0" d="M337.9,466.3c-2.5,0.9-5,1.8-7.5,2.6c-2.6,0.8-5.3,1.5-9.3,2.6c3.3-3,2.1-5.5,1.3-8c-1.1-3.5-2.2-7-3.4-10.4
		c-0.5-1.5-1.6-3-3.4-2.5c-1.8,0.5-3.6,1.7-3,3.9c1.2,5,2.8,9.9,4.2,14.9c0.5,1.6,2.3,0.6,3.5,2.1c-5.1,1.4-9.9,2.8-16,4.5
		c3-2.6,2-4.7,1.3-6.8c-1.2-3.6-2.2-7.2-3.5-10.7c-0.7-1.8-1.6-3.8-4.3-2.8c-2.4,0.9-3.2,2.4-2.4,4.9c1.2,3.6,2.2,7.2,3.2,10.9
		c0.6,2.1,1.5,3.9,4.2,4.5c-5.1,1.3-9.7,3.6-16,3.9c2.5-1.5,2.5-3.1,2-4.7c-1.3-4.4-2.8-8.9-4-13.3c-0.7-2.7-1.6-5-5.3-4.5
		c4-2.4,9.4-4.8,12.3-3.6c4.4,2,5.2-1.1,7.5-2.4c3.4-1.9,6.8-3.6,10.5-0.7c1.2,0.9,2,0.2,2.8-0.7c0.9-1.1,1.9-2.2,3-2.9
		c7.5-5,12.1-3.2,14.6,5.4c1.2,4,2.4,8.1,3.6,12.1C334.6,466.6,336.8,465.2,337.9,466.3z"/>
	<path class="st0" d="M199.8,22.7c0-1.7,0.5-1.6,1.7-0.6c5.9,5.2,8.5,12.2,9.4,19.7C212.2,54,212,54,200.4,57.6
		c-4.4,1.4-8.8,2.7-13.3,4c-5.7,1.6-9.7-0.1-12.2-5.4c-3.5-7.4-5-15-2.6-24.2c1.9,3.9,1.6,7.4,2.9,10.4c1.5,3.5,4.1,5,7.2,4.3
		c7-1.5,13.8-3.7,20.6-5.6c1.5-0.4,1.6-1.4,0.8-2.5c-1.3-1.8-2.6-3.6-3.9-5.4C199.2,29.7,199.3,26.2,199.8,22.7z"/>
	<path class="st0" d="M203.3,475.3c-4.3-0.8-8.5-1.6-12.9-2.4c7-5.5,6-13.7,7.9-20.8c0.2-1-0.1-1.1-2.7-3.9
		c5.3,1.1,9.9,2.1,14.4,3.1c0.2,1.6-1.5,2.9-0.3,5c5-6.5,11.3-1.9,17.1-1.9c3.2,0,7.5-0.5,9.3,1.2c1.5,1.5,0.1,5.9,0,9.1
		c-0.2,3.4-0.4,6.7-0.5,10.1c-0.1,2-0.5,4.1,2.7,4.7c-4.9,0.8-9.2,0.2-13.6-0.2c-1-0.1-1.3-0.5-1.1-1.6c1.3-6.2,1.3-12.5,1.7-18.8
		c0.1-1.3,0.3-2.6-1.4-3c-1.6-0.4-2.6,0.1-3.3,1.7c-0.7,1.6-1.7,3.1-2.9,5.3c-1.2-3-2.1-5.7-5.6-5c-1.3,0.3-2.5,0.6-3.2,1.8
		c-2.2,4.1-3,8.6-4.1,13.1c-0.3,1.1,1,1.2,1.3,2C205.4,475.6,204.2,474.8,203.3,475.3z"/>
	<path class="st0" d="M68.5,351.8c3.2,1.3,6,2.9,7.5,6.3c0.2,0.5,0.8,1.2,0.6,1.5c-2.2,5.1,1.7,6.4,4.8,8.4c1.4,0.9,2.7,2.4,3.5,4.1
		c1.8,4,1.4,5.7-2.4,7.9c-4.2,2.4-8.4,4.5-12.6,6.9c-3.5,2-3.5,2.1-3.5,6.6c-3.2-5.1-6-9.4-9.3-14.6c5.3,2.1,8.1-1.7,11.6-2.9
		c2.3-0.8,4.3-2.5,6.6-3.6c1.6-0.8,2.6-1.8,2.2-3.6c-0.5-1.9-2.3-2.9-3.9-2.5c-5.7,1.7-10.4,5.3-15.8,7.9c-0.6,0.3-0.5,2-0.9,3.7
		c-3.2-4-5.4-8.1-7.8-12.1c6.8-1,12-5.1,17.5-8.3c1.8-1.1,2.2-2.8,0.9-4.7C67.4,351.9,67.6,351.5,68.5,351.8z"/>
	<path class="st3" d="M26.9,231.3c0.2-2.2,0.3-4.4,0.5-6.6c0.5,0,1-0.1,1,0c1.2,5.1,5.3,4.9,9.3,5.2c5.8,0.5,11.7,1.4,17.5,2.2
		c2.4,0.3,4.7,0.5,6.9-1c1.3,7.5-0.6,11.3-6.9,14.6c-6.3,3.3-12.5,6.9-18.6,10.8c7.3,0.2,14.5,3.9,22.2,0.3c0.5,2.7-0.3,5.6-1.5,8.8
		c-1-4.4-4.2-4.2-7.4-4.6c-7.8-0.9-15.6-2-23.3-3.2c-1.3-0.2-3.8,0.8-3.5-1.7c0.3-2.2-0.8-5,2.5-6.4c9.3-4,17.8-9.6,26.6-14.5
		c0.2-0.1,0.3-0.4,1.2-1.6c-8.8-0.2-16.9-2.4-25.3-1.1C27.3,232.4,27,231.9,26.9,231.3z"/>
	<path class="st0" d="M463.7,350c0.3-2.4-0.6-3.5-2.8-4.2c-4.4-1.4-8.4-3.8-12.9-5.1c-2.1-0.6-3.8-0.3-4.5,1.7
		c-0.7,2.1-0.5,4.2,2.2,5.2c4.1,1.5,8.1,3.1,12.1,4.9c2.1,0.9,3.9,1.3,6-0.3c-2.2,4.7-4.5,9.5-7,14.7c-1.7-6.1-19.4-13.2-24.9-9.8
		c2.1-4.4,3.8-8.1,5.6-11.8c1-2.1,2.5,0.5,3.9-0.5c0.3-2.6-0.7-5.3,0-8.1c1.3-5.4,5.3-7.5,10.5-5.4c4.3,1.7,8.6,3.5,12.9,5.2
		c2.2,0.9,4.4,2,6-1.4c0.3,0.3,0.5,0.6,0.8,0.9c-2.2,4.7-4.4,9.3-6.6,14C464.5,349.9,464.1,349.9,463.7,350z"/>
	<path class="st0" d="M51.3,307c3.2,2.5,7.6,5.5,6.2,9.6c-1.8,5,1,7.1,3.3,10.1c2.5,3.3,2.7,6.9,1,10.7l0.1-0.1
		c-5.9,1.6-11.9,3.2-17.8,4.8c-2.2,0.6-5.3,0.6-3.3,5.5c-0.6-0.3-1.1-0.6-1.7-0.9c-1.5-4.7-3.1-9.5-4.7-14.3
		c7.7,1.2,14.2-1.9,20.9-4.1c1-0.3,1.5-1.3,1.2-2.4c-0.3-1.3-1.1-2.3-2.3-2.8c-2.2-0.9-17.7,3.2-19.2,5c-0.4,0.5,0,1.4-1.3,1.8
		c-1.4-4.5-2.9-8.9-4.7-14.7c3.9,3.5,6.8,0.9,9.8,0.6c3-0.3,6-1.5,8.9-2.4c2.9-0.8,4.3-2.5,3-5.6C50.5,307.3,50.7,307,51.3,307z"/>
	<path class="st4" d="M139,438.3c-2.7,3.4-6.6,5.1-10.1,7.3c-2.6,1.7-4.1-1.6-6.2-2.3c-2-0.7-1-2.2-0.7-3.5c1.5-7.3,2.9-14.7,4.3-22
		c-0.4-0.2-0.7-0.4-1.1-0.5c-3.6,5.8-7.2,11.5-10.8,17.3c-1.2,1.9,1.8,2.3,1,4.4c-2.9-1.4-5.8-2.7-8.2-5.2c3.3,0.8,4.8-1.1,6.3-3.3
		c4.5-6.4,8.9-12.9,13.8-19.1c1.8-2.2-1.3-2.7-0.7-4.8c3.6,2,7.1,3.9,10.5,5.9c2.1,1.3,1,3.3,0.7,5c-1.3,7-2.7,14-4.2,21.5
		c1.9-0.8,3.2-1.3,4.4-1.8C138.5,437.4,138.9,437.7,139,438.3z"/>
	<path class="st0" d="M139,438.3c-0.3-0.4-0.7-0.7-1-1.1c5.6-3.8,11.2-7.6,16.7-11.5c1.7-1.2,3-1.6,4.8-0.2c2.5,2.1,5.9,2.9,9.1,6
		c-3.5-0.6-4.8,0.6-6.1,2.8c-4.1,6.8-8.5,13.4-12.8,20.1c-0.5,0.8-0.8,1.5-0.6,2.4c0.1,0.9,0,1.5-1.2,1.1c-4.4-2.5-8.8-5-13.3-7.4
		c4.4,0.6,5.7-2.6,7.5-5.3c2.2-3.4,4.5-6.7,6.7-10c0.5-0.8,1.6-1.7,0.7-2.5c-0.8-0.7-1.8,0-2.8,0.8
		C144.3,435.3,141.6,436.7,139,438.3z"/>
	<path class="st5" d="M480.4,242.5c-0.5-0.6-1.1-1.2-1.6-1.8c-1.4-0.5-2.8-0.8-4.2,0.2c-1.1,1.8-2.6,3.4-3.3,5.3
		c-1.6,4.2-4.2,6.6-8.8,6.3c-4-0.2-7.3-3.3-8.6-8c-0.4-1.5-0.5-3.1-0.6-4.6c-0.8-7.7-0.2-8.2,7.7-6.1c-0.7,1.8-2.4,0.8-3.6,1.4
		c-1.9,1-2.9,2.4-2.8,4.3c0.1,1.9,1.7,3.2,3.3,3.4c1.7,0.2,3.7,0.2,4.6-2.1c0.4-1.2,1.1-2.3,1.6-3.5c2.4-5.7,3.5-6.5,9.4-6
		c4.6,0.4,6.9,3,7.4,7.6c0,0.2,0.4,0.4,0.5,0.6C481.5,240.7,482.8,242.3,480.4,242.5z"/>
	<path class="st3" d="M449.3,313.7c0.2-0.8,0.3-1.6,0.6-2.4c3.1-8.9,2.9-9.6,11.5-3.9c-1.7,1.5-3.5-0.2-5.1,0.1
		c-1.8,0.3-3.3,0.4-4.1,2.3c-0.8,1.8-0.1,3.3,1,4.7c2.8,3.5,14.4,7,18.7,5.4c2-0.7,3.7-2.1,3.9-4.5c0.1-0.8,0.1-1.8,1.4-1.6
		c0.8,0.2,0.9,1,0.9,1.7c0.2,6.3-4.6,13.4-10.2,14.4c-6.3,1.1-16.3-1.3-18.3-8.5C449.7,318.7,449.8,316.2,449.3,313.7z"/>
	<path class="st5" d="M137,29.7c7.2,10.5,13.2,20.4,18.7,30.7c2.3,4.4,2.8,9.2,1.8,14.9c-6.8-10.3-13.2-20-19.6-29.6
		c-1.5-2.2-0.6-4.6-0.8-6.9C136.9,36.1,137,33.4,137,29.7z"/>
	<path class="st5" d="M68.5,351.8c-0.3,0.3-0.6,0.6-0.8,0.9c-0.9-0.6-2-1.4-3.1-1c-5.7,2-10.9,5-15.9,8.4c-0.6,0.4-0.4,1.7-0.8,3.5
		c-2.9-4.5-5.4-8.4-7.8-12.2c7.9-1.5,14.3-6.1,21.1-9.8c1.8-1,0.2-2.9,0.7-4.3c0,0-0.1,0.1-0.1,0.1c3.8,2.5,4.5,7.2,7.3,10.5
		c0.9,1.1-0.2,1.3-0.9,1.7C65.9,350.7,68.2,351.1,68.5,351.8z"/>
	<path class="st3" d="M50.6,307.8c-5.6-2.7-10.6,1-15.7,2c-2.1,0.4-5.5,0-6.1,4c-1.6-4.7-3.1-9.3-4.9-14.7c5.4,3.7,9.9,0.8,14.3-0.4
		c4.1-1.1,9.7-0.1,11.4-6.4c2.1,3.6,2.4,7.4,3.9,10.8c1.1,2.4-2.5,2-2.2,3.9C51.1,307.3,50.8,307.5,50.6,307.8z"/>
	<path class="st3" d="M456,286.4c6.7,0.7,13.3,1.3,20,2c1.5,0.2,3,0.4,4.5,0c1.2,0.5,1.4,1.4,1.1,2.5c-0.4,3.6-0.9,7.3-1.4,11.3
		c-2.9-3.8-21.9-6.3-26.5-3.7c0.1-3,0.5-5.8,1.4-8.5C456.1,289,454.9,287.4,456,286.4z"/>
	<path class="st6" d="M190.7,10.3c4.8,0.6,5,0.8,3.3,4.9c-2.2,5.5-2.3,5.8-7.6,3.6c-3.2-1.3-4.4-0.3-5,2.5c-0.5,2.4-1.8,3.1-3.9,1.8
		c-0.1-0.1-0.3-0.1-0.4-0.1c-6.9-2.5-7.3-3.8-3.5-10.2c0.7-1.3,1.5-1,2.4-0.8c1.2,0.3,2.4,0.7,3.5,1.3c2.6,1.4,4,1,4.8-2
		c0.3-1.1,0-4,2.9-2.6C188.1,9.8,189,10.8,190.7,10.3z"/>
	<path class="st5" d="M90,162.7c-0.1,2.2-2,2.6-3.4,3.2c-3.3,1.3-4.8,3.2-2.3,6.4c1.2,1.5,0.6,2.5-0.9,3.3c-0.4,0.2-0.7,0.4-1.1,0.6
		c-5.6,3.2-8.9,1.4-10-5.1c-0.2-1.2,0.2-1.5,1.1-1.9c1.3-0.5,2.6-1,3.9-1.5c2.1-0.9,3.4-1.9,1.6-4.5c-1.9-2.7-1.1-4.8,2.3-5.5
		c1.8-0.4,3.4-3,5.1-1.9C88.5,157.2,88.7,160.4,90,162.7z"/>
	<path class="st5" d="M383.8,41.9c-0.3,1.6-2,1.7-3.1,2.3c-5.4,2.6-6,2.5-8.3-2.9c-1.1-2.7-2.1-3.8-4.7-1.9
		c-2.4,1.8-3.7,0.5-4.7-1.7c-0.5-1-0.8-2.2-1.4-3c-1.8-2.4-0.9-3.8,1.6-4.7c0.7-0.2,1.3-0.5,1.9-0.8c3.1-1.5,5.5-1.7,6.2,2.7
		c0.5,3.2,2.1,4.9,5.5,2.8c2.2-1.3,3.5-0.6,4.3,1.8C381.8,38.3,382.8,40,383.8,41.9z"/>
	<path class="st6" d="M0,185.2c1.1-0.7,1.9-1.3,2.7-1.8c4.8-3.2,4.8-3.2,1.7-7.9c-0.8-1.2-1.6-2,0.5-2.6c0.8-0.2,1.4-1,2.1-1.4
		c4.9-3.3,4.7-3.2,8.3,1.8c1.9,2.6,1.1,3.8-1.1,5.3c-2.7,1.8-4.8,3.2-1.9,7.2c2.4,3.5-2.5,4.4-4.3,6.3c-1.8,1.9-3.3,0.4-4.4-1.3
		C2.3,188.9,1.2,187.1,0,185.2z"/>
	<path class="st3" d="M284.9,63.8c-0.9,1-1.3,1.6-1.8,2.1c-4.8,5.5-5,5.7-10.3,0.8c-2-1.8-2.6-0.8-4,0.4c-1,0.9-1.7,3.2-3.6,2
		c-2.4-1.5-5.6-3.3-5.7-5.8c-0.2-2.8,3.2-4.7,5.4-6.5c1.6-1.3,2.5,0.9,3.2,1.7c2.5,3,4.8,4.5,7.5,0.2c0.9-1.4,2-1.4,3.3,0
		C280.6,60.7,282.2,62.7,284.9,63.8z"/>
	<path class="st7" d="M434.6,417.4c-3.2,0.1-5.8,3.5-9.6,1.6c-2.3-1.1-2.7-1.6-0.6-3.3c2.2-1.7,4.3-3.5,6.5-5.3
		c1.6-1.3,3.3-2.9,5.6-1.6c2.7,1.5,0.7,3.7,0.8,5.6C436.6,415.6,434.9,415.9,434.6,417.4z"/>
	<path class="st8" d="M270.5,452.8c-3.3-0.1-5.2-1.5-5.2-4.3c0-3,2.1-4.4,5.1-4.3c2.9,0.1,4.9,1.3,4.8,4.4
		C275.1,452,272.5,452.4,270.5,452.8z"/>
	<path class="st2" d="M231.9,443.2c2.6,0.4,4.8,1.7,4.7,4.7c-0.1,3.2-2.6,4.1-5.3,4c-2.8,0-4.7-1.7-4.5-4.4
		C226.9,444.7,228.7,442.9,231.9,443.2z"/>
	<path class="st9" d="M444.9,286.5c2.3-1.7,4.3-0.7,5.8,1c1.4,1.6,1.5,3.7,0.1,5.4c-1.3,1.7-3.1,2.4-5.2,1.7
		c-2.6-0.9-3.9-2.7-3.1-5.6C443.6,288.5,444.4,287.7,444.9,286.5z"/>
	<path class="st10" d="M480.4,242.5c1.2-0.7,0.9-1.9,1.1-3c1.1,1.8,0.8,3.8,0.9,5.7c0.4,7.2-1.6,8.4-9.6,5.4
		C477.5,249.6,481.9,248.5,480.4,242.5z"/>
	<path class="st11" d="M148.3,173.8c1.7,5.1,0.6,10.3,0.7,15.5c0,4.4,1,9-0.7,13.3C148.3,193,148.3,183.4,148.3,173.8z"/>
	<path class="st12" d="M349.9,175.5c-0.5-3.9-2.8-4.6-6.3-4.3c-3.3,0.3-6.7,0.1-10.1,0c-1.3,0-2.9,0.6-3.8-1c5.2,0,10.4,0.5,15.5,0
		C349.7,169.8,350.8,171.5,349.9,175.5z"/>
	<path class="st13" d="M239.1,170.3c1.7,0,3.3,0.1,5,0.1c5.6-2.1,11.1-2,16.7-0.1c-2.2,2-4.8,0.8-7.3,0.9c-4.9,0.2-9.9,0-14.8-0.1
		C238.9,170.8,239,170.6,239.1,170.3z"/>
	<path class="st0" d="M314.4,317.8c0.7,1.4,2.5,2.8,0,4.2c-1,0.4-1.8-0.2-2.6-0.7c1.6-1.4,1.9-2.7,0-4.1
		C312.9,316.3,313.9,316,314.4,317.8z"/>
	<path class="st14" d="M334.7,201.7c4.5-1.3,9-1.3,13.5,0C343.7,201.7,339.2,201.7,334.7,201.7z"/>
	<path class="st15" d="M199.8,22.7c0,3.5,0,7,0,10.5C198.1,29.7,199.4,26.2,199.8,22.7z"/>
	<path class="st16" d="M157.5,171.9c-2.8,1.7-5.6,1.5-8.4,0.1C151.9,172,154.7,171.9,157.5,171.9z"/>
	<path class="st17" d="M264.4,35.6c-2.5-0.4-5.3,1.1-7.6-1C259.3,34.9,262,34.4,264.4,35.6z"/>
	<path class="st18" d="M384.2,425.6c-0.8-0.1-1.6,0.1-2-0.8c0.9-1.3,2-2.4,3.8-2.2c0.2,0.1,0.3,0.2,0.5,0.3
		C385.9,424.1,385.8,425.5,384.2,425.6z"/>
	<path class="st14" d="M449.3,313.7c1.1,2.5,1.1,5,0,7.6C448.6,318.7,448.7,316.2,449.3,313.7z"/>
	<path class="st19" d="M389.8,419.6c0.3,0.2,0.6,0.4,0.8,0.5c-1.1,1.4-2.2,2.8-4.2,2.8c0,0,0.1,0,0.1,0
		C386.3,420.6,387.5,419.6,389.8,419.6z"/>
	<path class="st20" d="M203.3,475.3c0.8-0.8,1.8-0.6,2.7-0.7c0.6,0.1,1.5,0,1.4,1c0,0.7-0.7,0.9-1.2,0.8
		C205.3,476.1,204.3,475.7,203.3,475.3z"/>
	<path class="st21" d="M451.8,374.1c-0.3-0.6-0.6-1.3-0.8-1.9c-0.2-0.8-0.4-1.9,0.6-2.1c1.3-0.2,0.9,1,1,1.7
		C452.6,372.7,452.5,373.5,451.8,374.1z"/>
	<path class="st22" d="M26.9,231.3c0.4,0.4,0.7,0.9,1.1,1.3c0.4,1.4-0.8,1.5-1.6,2.4C26.2,233.4,25.5,232.2,26.9,231.3z"/>
	<path class="st23" d="M190.7,10.3c-2.1,1.5-3,0.5-3.4-1.6C188.4,9.2,189.5,9.8,190.7,10.3z"/>
	<path class="st24" d="M316.8,7.5c1.4-0.2,2.7-0.6,4.1-0.6c1.1,0,1.3,0.8,0.4,1.6c0,0-0.2,0.2-0.2,0.2l-0.2-0.1
		C319.7,7.4,317.9,8.8,316.8,7.5z"/>
	<path class="st25" d="M481.6,290.9c-0.4-0.8-0.7-1.7-1.1-2.5c0.3-0.5,0.7-1.6,1-1.6c1.3,0,0.6,1.2,0.6,1.8
		C482.1,289.3,481.8,290.1,481.6,290.9z"/>
	<path class="st26" d="M245,24.6c1.1,1.3,0.8,2.8,0.5,4.2c0,0.1-0.3,0.1-0.4,0.1c-0.1,0-0.2-0.2-0.3-0.2
		C244.8,27.4,244.9,26,245,24.6z"/>
	<path class="st27" d="M337.9,466.3c-1.5-0.3-3.7,1.1-4.1-1.8C334.8,466.1,336.9,465,337.9,466.3z"/>
	<path class="st28" d="M401.5,397.2c-0.1,1.8,0.7,3.7-0.6,5.4C400.9,400.8,400.1,398.9,401.5,397.2z"/>
	<path class="st29" d="M444.9,286.5c0.3,1.8-0.5,2.8-2.4,2.6C442.8,287.8,443.7,287.1,444.9,286.5z"/>
	<path class="st26" d="M316,68.4c-1.5,1.8-3.2,1.4-5,0.3C312.6,68.6,314.3,68.5,316,68.4z"/>
	<path class="st12" d="M316.8,7.5c1.2,0.9,3.1-0.8,4.1,1c-1.6-0.3-3.4,0.6-4.8-0.8C316.3,7.6,316.5,7.5,316.8,7.5z"/>
	<path class="st30" d="M220.2,56.8c0.5,1.3,1.9,0.4,2.7,1c-1.1,0.5-2.2,1.3-3.2,0.2C219.3,57.6,219.7,57.1,220.2,56.8z"/>
	<path class="st31" d="M147.9,457.9c0.4-0.4,0.8-0.7,1.2-1.1c0.9,0.5,1.6,1,1.9,2.2C149.6,459.6,148.8,458.6,147.9,457.9z"/>
	<path class="st20" d="M150.1,261.9c-1.6-1.3-1.3-2.7-0.3-4.2C149.9,259.1,150,260.5,150.1,261.9z"/>
	<path class="st10" d="M474.6,240.9c1.3-1.5,2.8-1.3,4.2-0.2C477.4,240.8,476,240.8,474.6,240.9z"/>
	<path class="st12" d="M279,472.1c-1.7-1.2-1.3-2.7-0.4-4.1C278.7,469.3,278.9,470.7,279,472.1z"/>
	<path class="st32" d="M456,286.4c-0.2,1.2,0.4,2.6-0.9,3.6C455.3,288.7,454.1,287.2,456,286.4z"/>
	<path class="st33" d="M269.4,301.8c0,12.1,0,24.2,0.1,36.3c0,2.1-0.8,4.5,1.5,6.1c1.9,0.3,3.9,0.3,5.8,0.5c0.4,0.3,0.6,0.6,0.5,1.1
		c-0.6,1-1.6,1.4-2.7,1.7c-1.7,0.5-3.6-0.2-5.1,1c-0.9,1-1.2,2.6-2.9,2.8c-0.7,0.1-1.5,0.4-1.3,1.3c0.2,1.1,1.1,1.1,2,1.1
		c0.6,0,1.1-0.1,1.6-0.4c5.9-3.4,12.5-4.2,19-5.5c4.3-0.8,8.4-2.3,12.2-4.7c4.5-2.8,9.5-4.3,14.8-4.9c3.6-0.4,6.1-2,7.4-5.4
		c0.7-2,2.1-3.3,4.3-3.4c1.8-0.1,3.5-1.1,5.3-1.3c2.8-0.3,4.2-1.5,4.6-4.5c0.4-3.9,3-6.9,5.4-9.9c1.6-2.1,2.2-3.8-0.1-5.8
		c-2.8-2.3-2.2-4.2,0.4-6.5c7.5-6.7,11.4-16,16.7-24.3c1.9-2.9-0.3-6-0.4-9.1c0-1.6-1.4-0.8-2.1-0.1c-1.3,1.4-1.7,3.2-2.5,4.9
		c-1.3,2.9-2.3,6.1-5.3,7.9c-0.4,0-0.8-0.1-1.1-0.4c4.9-12.1,7.9-24.7,9.3-37.7c0.3-3.1,5.5-5.9,8.2-4.8c0.7,0.3,1.1,0.9,1.1,1.6
		c0.1,2.2,1.1,4.3,0.6,7c-2.6-2.5-5.5-3.5-8-0.5c-1.6,1.9,0.1,10.5,2.1,10.9c5.1,1.1,5.2-3.3,6.4-7.1c4.1,15.3,9.8,29.7,8.2,45.3
		c-1.7,16.3-5.7,31.9-13.9,46.3c-1,1.8-2.4,3.1-4,4.3c-4.2,3.1-6.3,2.1-6.9-2.9c-0.2-1.8,0.3-4.5-2.2-4.8c-2.4-0.3-4.9,0.2-6.4,3
		c-1.2,2.4-2.7,4.7-4.9,6.3c-1.9,1.4-2.7,5.3-6.5,2.7c-0.8-0.5-3.3,0.7-4.5,1.7c-9.5,8.2-21.2,12.7-32.1,18.4
		c-11.3,5.9-23,11.1-34,17.7c-1.6,1-3.4,2.2-6,0.9c3.6-4,8.1-6.1,12.6-8c8.7-3.7,17-8.2,25.4-12.4c5.7-2.8,11.3-6.7,17-9.6
		c7-3.6,12.5-8.8,18.8-13.2c4.4-3.1,8.2-7.2,12.2-10.9c1.1-1,1.8-2.4,0.7-3.7c-1.3-1.5-2.4,0.2-3.2,0.7
		c-8.1,5.3-16.1,10.7-23.9,16.4c-6.5,4.7-13.3,9.3-21.5,11c-2.4,0.5-4.7,1.9-7,2.9c-9.8,4.5-20.3,5.5-30.9,5.4c-4,0-3.7-3.3-2.9-5.5
		c1.7-4.9,2.5-9.5-0.3-14.2c-0.4-0.7-0.4-1.7-0.2-2.5c3-10.3-1.1-20.6,0.2-31c1.3-10.2,1.2-20.5,0.4-30.8c-0.1-1.2-0.2-2.4,0.8-3.1
		c3-2.5,2.4-4.9,0.7-7.9c-1.9-3.4-3-7.2-7.4-8.4c0.4-0.7,0.5-0.9,0.6-1.1c3.7,2.3,8.3,0.2,12.1,2.3c0.9,0.5,2.8,0.6,3.2,0.1
		c2.1-2.9,3.6-0.3,5.4,0.2c1,0.5,2.4-0.2,3.2,1c0.7,1.6,0.7,3.1-0.1,4.6c-1.8,1.5-3.1-0.1-4.5-0.9c-1.7-0.9-3.4-1.7-5.1-0.2
		c-1.1,1-0.4,2.1,0.4,3c1.4,1.6,3,3,5.5,1.9c4.2-1.9,4.5-1.9,4.3,2.8c-0.2,5.4,1,10.9-0.7,16.3c-2.2,0.7-2.1-1.3-2.7-2.3
		c-0.9-1.7-2.2-2.5-4.1-2.2c-1.8,0.2-2.7,1.4-3,3.1c-0.6,2.9-1,5.8-1.2,8.7c-0.2,3,1,3.7,3.9,2.8c2.1-0.6,3.5-2.4,5.6-2.8
		C268.7,301.4,269.1,301.5,269.4,301.8z"/>
	<path class="st0" d="M348.3,280.6c2.6-3.2,4.2-6.9,5.6-10.8c0.5-1.5,1.1-2.9,2.4-3.8c0.9-0.6,1.8-1,2.7-0.4
		c0.8,0.5,0.7,1.4,0.9,2.2c1.2,6.5-0.6,11.9-4.6,17.3c-4.7,6.4-7.9,13.8-14.5,18.8c-2.1,1.6,0.2,2.6,1.1,3.1
		c4.4,2.4,3.1,4.7,0.4,7.7c-2.8,3.2-5.6,6.7-5.4,11.5c0.1,1.7-0.9,2.5-2.6,2.6c-3.1,0.1-5.8,2.2-9,1.8c-1.3-0.2-1.6,0.6-1.8,1.7
		c-1,4.6-3.9,6.7-8.6,7.1c-5.8,0.5-11.2,2.6-16.2,5.7c-4.9,3-10.5,4.1-16.1,4.9c-4.8,0.7-9.3,1.9-13.3,4.6c-1.7,1.2-3.1,0.9-4.7,0.1
		c-1.3-0.7-1.2-1.7-1.2-2.9c0-1.2,0.6-2.2,1.7-1.7c2.9,1.2,2.6-1.2,3.3-2.6c1.9-1.1,4.1,0.3,6-0.8c0.8-0.3,1.7-0.6,2.5-1
		c2.3-1.8,5.3-1.5,7.7-2.8c6.7-2,13.4-3.7,19.8-6.6c5.4,0.1,8.4-4.3,12.6-6.7c0.7-0.7,1.5-1.4,2.2-2.1c2.8-3.6,6.2-6.5,10.3-8.4
		c-4.4-1.6-9.2-0.8-13.7-1.9c-1.2-0.4-2.7-0.4-2.8-2.1c-0.1-1.4,1.1-2.3,2.3-2.8c4-1.7,7.1-4.6,10.1-7.5c1-0.9,2-2,3.1-2.9
		c7.2-4.5,11.9-11.3,17-17.8C346.6,283.2,347.2,281.7,348.3,280.6z"/>
	<path class="st33" d="M250.2,181.1c6.6,0,13.3,0.1,19.9,0c2.7-0.1,4.2,0.3,3.9,3.6c-0.4,4.3-0.2,8.7-0.1,13.1
		c0.1,2.3-0.8,3.3-3.2,4c-5.7,1.8-11.6,3.4-16.8,6.5c-1.5,0.9-3,1.2-4.8,0.4c-6.1-2.9-12.6-4.7-19.2-6.2c-2.7-0.6-4.1-1.6-3.8-4.8
		c0.3-4.5,0.2-9,0-13.5c-0.1-2.2,0.6-2.9,2.8-2.8c7.1,0.1,14.1,0,21.2,0C250.2,181.3,250.2,181.2,250.2,181.1z"/>
	<path class="st34" d="M145,250.1c-0.4,14.1,3.9,26.9,10.8,39c0.6,0.9,0.4,1.6-0.6,2.1c-1.7,0.2-2.5-1.1-3.2-2.3
		c-5.9-9.8-10.9-19.8-9.8-31.7c0.1-0.7,0-1.4-0.1-2.1c-0.2-1.1,0.1-2.5-1.3-2.9c-1.2-0.4-2.1,0.6-2.9,1.4c-1.1,1.2-1.8,2.5-2.5,3.9
		c-0.8,1.6-1.7,2.9,1.3,3.4c2.2,0.4,2.8,2.8,2.9,4.7c0.5,10,4.4,18.9,8.8,27.6c3.1,5.9,7.8,10.2,13.3,13.9c1,0.7,2.3,1.1,3.2,2.1
		c1.4,1.5,1.9,2.7-0.7,3.7c-4.2,1.7-4.9,3.8-2.1,7.2c6.1,7.3,12.7,14,22.1,16.9c0.8,0.3,1.7,0.8,2.4,0.1c1.1-1.3-0.7-2.3-0.5-3.5
		c0.3-0.6,0.6-1.1,1.4-0.6c3,0.6,6,1.1,9.5,1.8c-3.4,2.9-6.3,5.7-8.1,9.4c0.2,0.1,0.3,0.2,0.3,0.4c-0.1,0.2-0.1,0.2-0.2,0.2
		c-3.2,4.8-3.2,4.7-8.1,0.8c-17-13.6-29.5-30.6-37.2-50.9c-2.3-6-3.8-12.3-5.7-18.4c-0.3-0.9-0.3-2.2-1.5-2.3
		c-1.4-0.2-1.6,1.2-2.2,2.1c-1.7,2.7-0.8,6.1-2.1,8.9c-1-0.6-1-1.7-1.3-2.6c-0.7-0.8-0.4-2.5-1.9-2.9c-0.8,1.9,1.2,1.9,1.6,2.9
		c-1.5,2.1-4.6,3.3-3.7,6.7c-0.1,0.4,0,1-0.2,1.2c-0.6,0.4-0.9,0.1-1.1-0.6c-4.2-12.9,3.4-34.9,14.6-42.6c1.3-0.9,2.8-1.3,4.4-1
		C145.9,247.2,145,248.7,145,250.1z"/>
	<path class="st34" d="M126.9,289.1c-2.1-4-0.4-5.9,3.5-6.6c0.1-0.3,0.4-0.4,0.7-0.2c1.1,0.6,1,1.7,1.1,2.8
		c0,11.3,0.9,22.4,4.4,33.2c1,2.9,2.4,5.7,3.6,8.5c0.3,0.7,0.5,1.9,1.5,1.8c1.1-0.1,1.4-1.2,1.7-2.1c0.8-2.9,1-6,2.7-8.4
		c6.9,10,16.5,17.6,24.8,26.4c2.7,2.8,5.9,5.2,8.8,7.8c0.6,0.5,1.2,1,2.1,1.3c1.3,0.4,3.7-1,3.6,1.5c0,2.8-0.5,5.6-1.3,8.3
		c-0.4,1.2-1.7,0-2.4-0.5c-6.1-4.7-12.1-9.5-18.2-14.3c-0.3-0.7,0.1-1.1,0.4-1.6c1-1,0.8-2-0.1-2.9c-4.4-5.1-9-10.1-13.8-14.7
		c-1.5-1.5-2.6-1.5-3.3,0.7c-0.7,2.5-1.7,4.6-4.1,6.2c-2.3,1.5-0.3,3.3,0.4,4.8c0.7,1.6,1.6,3.6,3.9,3.3c2.2-0.3,2.5-2,2.4-3.8
		c-0.1-1.7,0.7-3,2.3-3.7c1.6-0.7,2.9,0,3.8,1.1c2.3,2.7,6.1,4.2,6.6,8.3c-0.4,0.3-0.7,0.2-1.1,0c-2.6-1.1-4.2,0.5-5.8,2.1
		c-3.4,3.5-6.9,3.5-10.4-0.1c-5.4-5.5-7.7-12.7-10.4-19.6c-3.9-9.9-6.4-20.3-7.8-30.9c-0.2-1.5-1-3.5,2.3-2.7
		c1.4,0.4,1.8-1.8,1.7-3.3c-0.1-1.6,0.5-3.7-1.6-4.4C127.5,286.8,127.4,288.4,126.9,289.1z"/>
	<path class="st35" d="M207.6,360.3c-2-5-0.1-12.5,4.6-16.1c5.6-4.4,11.3-8.7,17.4-12.4c3.2-2,7.6-1.5,11.1-3.5
		c1.1-0.6,1.7,1.1,1.7,2.2c0,2.1,0.2,4.3-0.2,6.3c-1,5.8-0.6,11.5,0.4,17.2c0.6,3.4-0.4,5.5-3.6,6.4c-1.5,0.4-2.3,1-2.2,2.5
		c0.3,4.2-2.3,3.3-4.8,3.1c-6.9-0.4-12.6-4.5-19.2-5.6C210.9,360.8,209.2,361,207.6,360.3z"/>
	<path class="st33" d="M218.5,216.1c2.7,0,5.2-1.2,7.7-1.9c3.1-0.9,5.3,0.5,5.3,3.7c0,3.9-0.1,7.9-0.6,11.8
		c-0.3,1.9-0.5,3.8,0.4,5.3c1.2,2.1,0.8,4-0.5,5.4c-1.3,1.6-3.9,1.7-5.5,1c-2.7-1.2-5.3-1.4-8.2-1.1c-0.8,0.1-1.8-0.2-2.4-0.7
		c-6.2-5.4-12.2-10.8-10.9-20.5c0.5-4,1.8-5.3,5.6-4c1.3,0.4,2.7,0.7,4.1,1C215.2,215.5,216.9,215.7,218.5,216.1z"/>
	<path class="st33" d="M286.3,137.6c1.3,3.1,3.5,3.9,5.8,4.9c4.1,1.8,6.8,4.1,7.3,9.8c0.5,5.5,0.9,10.7-0.6,16c-0.3,0.9,0,2-1.4,2.1
		c-1.1,0.1-1.6-0.4-2.3-1.3c-6.1-7.1-12.7-7-18.6,0.1c-1.2,1.4-8.8,2.2-9.9,1c-1-1,0.3-9,1.7-9.8
		C277.3,155.5,283.5,148.3,286.3,137.6z"/>
	<path class="st34" d="M250.7,129.1c2.5-2.9,5.5-4.2,9.5-3.7c2.9,0.3,3.6,2.1,2.3,3.9c-2.2,3-0.3,4.8,1.2,6.8
		c1.1,1.5,2.2,2.9,3.3,4.3c1.1,1.4,3.2,2.7,2.2,4.6c-1.2,2.4-3.8,3.7-6.1,4.9c-0.3,0.1-0.9,0-1.1-0.2c-3.6-3.7-8.6-3.8-13.2-5
		c-3.7-1-6.3-3-6.8-7.1c-0.2-1.4-0.8-2.7-1.1-4c-0.7-2.8-3.6-6-1.7-8.2c2.4-2.8,6.4-4.4,10.1-5.7c1.1-0.4,2.3-0.5,3,0.8
		c1.1,2.1-0.7,3.4-1.5,4.9C250.4,126.7,250.1,127.9,250.7,129.1z"/>
	<path class="st1" d="M220.2,200.9c-0.8,2.7-1.7,5.3-5,6c-2.6,0.5-4.2-0.9-5.7-2.7c-1-1.1-1-2.5-0.9-4c0-6.7,0.2-13.5,0-20.2
		c-0.1-3.6,0.3-7,4.2-8.1c3.6-1,5.9,1.1,7.4,6.1C221,185.7,220.9,193.3,220.2,200.9z"/>
	<path class="st33" d="M325.4,189.5c0,3.9,0,7.9,0,11.8c0,3.7-2.3,5.4-5.5,5.5c-3.3,0.1-5.4-2.1-5.5-5.2c-0.2-8.2-0.2-16.3,0-24.5
		c0.1-3.4,2.3-5.5,5.8-5.3c3.1,0.2,5.2,2.1,5.2,5.4C325.5,181.3,325.4,185.4,325.4,189.5C325.4,189.5,325.4,189.5,325.4,189.5z"/>
	<path class="st33" d="M172.7,189.4c0-3.9-0.1-7.9,0-11.8c0.1-3.7,2.2-5.6,5.9-5.7c3.6-0.1,4.9,2.5,5.1,5.5c0.7,8,0.6,16,0.1,24
		c-0.2,3.6-2.3,5.7-6,5.5c-3.7-0.2-4.9-2.8-5-6.1C172.7,197,172.8,193.2,172.7,189.4C172.7,189.4,172.7,189.4,172.7,189.4z"/>
	<path class="st33" d="M280.2,189.4c0-3.7-0.1-7.3,0-11c0.1-4,2.2-6.5,5.6-6.6c4,0,5.4,2.7,5.5,6c0.2,7.6,0.2,15.2,0,22.8
		c-0.1,3.9-2.7,6.4-6,6.2c-3.7-0.2-5-2.7-5-6c-0.1-3.8,0-7.6,0-11.4C280.3,189.4,280.3,189.4,280.2,189.4z"/>
	<path class="st36" d="M278.7,266.4c0.2,0.7,0.3,1.8,0.7,1.9c4.6,1.3,4.9,6.5,8,9c0.6,0.5,1.6,1.7,1.4,1.9
		c-2.1,3.3-1.3,7.5-3.3,10.8c-0.2,0.3-0.9,0.6-0.9,0.9c-0.3,6-6.8,6.7-9.2,10.9c-2-0.2-1.9-1.9-2-3.2c-0.1-9.7-0.2-19.5,0-29.2
		C273.5,265.7,274.4,265.3,278.7,266.4z"/>
	<path class="st34" d="M233,301c1.2-1.3,0.6-3,0.7-4.5c0.1-9.3,0.1-18.6,0.2-27.9c0-3.8,4.6-6.6,8.5-4.7c-4.3,0.7-3.5,3.5-3.2,6.2
		c1.4,11.8,1.7,23.6,1.3,35.4c-0.1,4.3-4.5,3.9-7.5,4.7C232.3,307.2,232.3,304.1,233,301z"/>
	<path class="st37" d="M247.4,116.3c-5.3,2.7-10.6,0.7-15.9-0.2c12-13.5,34-9.1,40.1,2.9c-6.5,2.5-12.3-0.7-18.2-2.6
		C251.3,116.8,249.4,116.8,247.4,116.3z"/>
	<path class="st37" d="M252.4,242.6c-3.8,0.7-6.6-0.3-9.3-2.2c-2.7-1.9-4.1-4.1-2.6-7.5c1.3-2.8,0.5-5.8,0-8.7
		c-0.4-2.8,0.9-3.1,3-2.8c5,0.7,7.1,3.1,6.3,7.8c-0.8,4.5-0.9,8.3,4.5,10c1,0.3,2.8,1.1,2.2,2.6
		C255.5,243.9,253.4,242.2,252.4,242.6z"/>
	<path class="st36" d="M202.3,189.6c0,7.7,0,7.5-7.7,7.2c-3.4-0.1-4.9-1.1-4.4-4.6c0.2-1.1,0-2.2,0-3.4c0-7.2,0-6.9,7.3-7.3
		c3.9-0.2,5.4,0.8,4.7,4.7C202.1,187.4,202.3,188.5,202.3,189.6z"/>
	<path class="st37" d="M292.3,138.3c-1.7-0.5-4.1-0.7-4.1-2.8c0-2.9-0.1-6.1,1.6-8.5c1.4-2.1,3.5-0.1,4.7,0.8
		c2.4,1.9,4.2,4.5,7.8,4.6c1.9,0,2.7,1.9,2.6,3.7c-0.1,2.9,0.8,6.3-1.6,8.3c-1.2,1.1-4,1.8-4.7-1.7c-0.2-1.3-0.1-2.9-1.4-3.8
		C295.7,138.4,293.9,138.9,292.3,138.3z"/>
	<path class="st38" d="M187.5,333c-0.4,0.3-0.8,0.6-1.2,0.9c-0.4,0.2-0.8,0.4-1.2,0.2c-5.2-3-10.5-6-14-11c-0.9-1.2-2-2.7-0.9-4.2
		c0.9-1.4,2.5-0.8,3.9-0.7c2.2,0.2,5.3,1.4,6.2-0.8c1.1-2.5-2.5-3.1-3.9-4.6c-1.8-1.9-4.7-2.7-5.6-5.5c0-0.7,0.5-1.1,1.1-1.3
		c5.5,3.5,10.9,7,16.4,10.5c1.8,1.1,3.3,2.4,1.3,4.6c-2.5,1.2-5,0.6-7.5,0.3c-4.1,2.2-1.4,4.7,0,6.6
		C183.5,330,185.7,331.4,187.5,333z"/>
	<path class="st37" d="M267,228.3c-0.4,3.4-0.9,6.5-1.2,9.5c-0.1,1.6-1,2.3-2.4,2.4c-1.6,0.1-3.4,0.8-4.5-1.3
		c-2.2-4.4-2.1-9.3-1.1-13.6c0.6-2.4,5.2-3.2,7.5-3C267.7,222.5,266.6,226.4,267,228.3z"/>
	<path class="st39" d="M297.8,180.7l0.3,0.1l0.2-0.2c3.1-0.6,6.2-0.7,9.3,0.1c0.2,1.9,0.5,3.9,0.5,5.8c0.1,7.2-2.9,9.3-10.5,7.6
		C296.8,189.6,296.3,185.1,297.8,180.7z"/>
	<path class="st40" d="M248.8,386c-0.9,1.3-2.4,1.8-3.6,1c-3.8-2.5-8.5-3-12-5.8c-3.4-2.7-7.7-3.5-11.5-3.3
		c-4.6,0.2-7.1-2.3-10.5-4.4C218,370.4,236.5,376.7,248.8,386z"/>
	<path class="st41" d="M235.4,136.8c0,1-3.6,2.8-5.6,1.6c-1.4-0.9-2.8-1.8-4-2.9c-4-3.5-4-4.7,0.3-7.8c1.6-1.2,3.1-2.5,4.1-4.1
		c0.5-0.8,0.9-1.9,2.2-1.5c1,0.3,1.4,1.2,1.6,2.3c0.1,1,0.5,1.9,0.6,2.9C234.8,130.1,235,132.9,235.4,136.8z"/>
	<path class="st42" d="M273.7,302.6c-2.3,0.6-2.3-1.7-3.5-2.6c-1.1-1.2-1-2.6-0.9-4.1c0.3-1.3,0.8-2.6,0.7-4c0.6-1.8,0.4-3.5,0-5.3
		c0-3.7,0-7.4,0-11.1c1-3.2-0.7-6.6,0.8-9.7c1.1,0,2.3-0.4,3.3,0.5c0.3,10.1,0.1,20.3,0.1,30.4C274,298.7,272.9,300.6,273.7,302.6z"
		/>
	<path class="st43" d="M227.9,387.5c-2.7-0.4-1.8-3.6-3.7-4.7c8.2,1.7,16.2,3.4,22.5,9.4c3.5,3.3,7.2,5.5,12.2,2.6
		c-6.1,5.4-7.1,5.4-12.7,0.5c-3.9-3.5-8.2-6.4-13.3-7.8C231.3,388,229.6,388,227.9,387.5z"/>
	<path class="st44" d="M260.8,170.3c-5.6,0-11.1,0.1-16.7,0.1c0-0.8,0.1-1.7,0-2.5c-0.3-2.6,0.4-4,3.4-3.1c3.2,1,6.5,0.3,9.5-0.5
		c3.8-1,4.3,0.5,4,3.6C260.9,168.7,260.9,169.5,260.8,170.3z"/>
	<path class="st45" d="M188.9,344.9c0-0.2-0.1-0.4-0.1-0.6c4-0.7,8-1.5,11.9-2.1c1.2-0.2,2.5-0.2,3.7,0c1.2,0.2,2,1,2,2.3
		c0.1,1.3-0.9,1.8-1.8,2c-3.9,0.9-7.8,2-11.8,2.4C190.5,349.2,189.4,347.1,188.9,344.9z"/>
	<path class="st40" d="M231.4,144.7c2.8,0.5,5.6,0.5,8.4,0.2c2.7-0.3,4.5,1,6.5,2.3c2,1.2,2.5,3.5,1.9,5.1c-0.5,1.3-2.9,0.5-4.3,0.2
		C239,151.2,234.7,148.9,231.4,144.7z"/>
	<path class="st46" d="M212.5,395.4c-1.9,0.1-2.7-0.9-2.2-2.8c1-3.4,2.5-6.5,4.6-9.3c1.2-1.6,3-1.5,4.5-0.8c1.4,0.7,0.7,2.1,0.2,3.3
		c-0.8,1.9-1.3,4-2,5.9C216.8,394,215.2,395.4,212.5,395.4z"/>
	<path class="st44" d="M229.8,324.7c-2.9-0.4-7.4-0.6-7.5-3.5c-0.1-2.6,4.6-3.4,7.5-3.8c1.8-0.2,4.4-1.5,5.6,1.2
		c0.5,1.1,1.6,2.3,0.6,3.5C234.5,324,232.3,324.6,229.8,324.7z"/>
	<path class="st46" d="M193.6,377.3c-1.4,0.2-2.4-0.3-2.9-1.4c-0.4-1,0.1-1.9,0.8-2.6c2.6-2.8,5.7-4.9,8.9-6.8
		c1.3-0.8,2.7-0.6,3.7,0.8c0.9,1.4,0,2.3-1,3.2c-2,1.7-3.9,3.6-5.9,5.3C196.1,376.7,195,377.6,193.6,377.3z"/>
	<path class="st46" d="M191.1,369.7c-1.4,0.1-2.3-0.4-2.8-1.3c-0.6-1-0.5-2.1,0.5-3c2.7-2.7,5.8-4.8,9.1-6.6
		c1.1-0.6,2.5-0.6,3.3,0.7c0.6,0.9,0.7,1.9-0.1,2.6c-2.6,2.3-5.3,4.5-8,6.7C192.4,369.3,191.6,369.4,191.1,369.7z"/>
	<path class="st44" d="M207.9,374.2c0,1.7-6.4,10.7-7.9,10.9c-1.1,0.2-2.4,0.1-3.1-0.8c-0.6-0.8-0.5-1.9,0-2.8c2-3,4-6,6.6-8.5
		c0.8-0.8,1.9-1.2,3.1-0.7C207.4,372.6,207.9,373.2,207.9,374.2z"/>
	<path class="st47" d="M338.6,185.5c-0.4,3,1.7,7.1-4.1,6.2c-1.9-0.3-2.8-0.7-2.6-2.7c0.1-1-0.1-2,0-2.9c0.4-2.3-1.8-5.7,3.4-5.7
		C340.5,180.4,337.8,184,338.6,185.5z"/>
	<path class="st37" d="M166.2,188.5c0,1.1,0,2.2,0,3.4c0.1,1.8,0,3.5-2.6,3.1c-1.8-0.3-4.2,0.1-3.9-3c0.1-2.1,0-4.2,0-6.3
		c0.1-3.1,2.6-4.8,5.5-3.8c1.1,0.4,0.9,1.2,0.9,2C166.3,185.4,166.2,186.9,166.2,188.5C166.2,188.5,166.2,188.5,166.2,188.5z"/>
	<path class="st44" d="M202.3,352.2c0,0.1-0.1,0.3-0.1,0.4c-0.5,1.6-11.1,7.1-12.7,6.4c-0.8-0.4-1.6-1.1-2.1-1.9
		c-0.4-0.8,0.3-1.6,1-2.1c3.2-2.2,6.6-4,10.5-4.8C200.5,349.8,202,350.1,202.3,352.2z"/>
	<path class="st39" d="M190.7,223.3c-1,0.1-2-0.2-2.4-1.2c-0.4-0.9,0-1.7,0.7-2.2c3.3-2.3,6.1-5.3,10-6.8c1.3-0.5,2.9-1,3.8,0.5
		c0.8,1.3-0.7,2-1.3,2.7C198.6,219.4,192.7,223.2,190.7,223.3z"/>
	<path class="st39" d="M228.7,254.1c0,1.2,0,1.9,0,2.6c0.1,2-0.3,3.9-2.5,4.2c-2.9,0.4-2-2.2-2.2-3.6c-0.6-3.2-1-6.4-0.4-9.7
		c0.2-1.1,0.7-2.6,2.3-2.6c1.6,0,1.5,1.5,1.8,2.4C228.7,249.8,228.8,252.2,228.7,254.1z"/>
	<path class="st7" d="M262.1,250.2c-0.2-1.2,0.5-1.9,1.4-2.4c1.1-0.6,1.8,0.1,2.5,0.9c2.4,2.7,3.2,6.1,4.1,9.5
		c0.4,1.3-0.5,2.1-1.6,2.6c-1.2,0.5-2.1,0.2-2.9-0.8C264.5,258.5,262.1,251.9,262.1,250.2z"/>
	<path class="st48" d="M245.7,250.2c-0.1-1.8-0.2-3.1,1.3-3.7c1.8-0.7,2.4,0.7,3.2,1.8c1.9,2.4,2.2,5.4,2.7,8.2
		c0.2,1.4-0.7,2.5-2.1,2.8c-1.4,0.3-2.3,0-2.8-1.7C247.2,255,245.5,252.6,245.7,250.2z"/>
	<path class="st43" d="M326.3,305.3c-2.8,3.6-6.1,6.4-10.4,8.1c-1,0.4-2.5,0.6-2.4,1.9c0,1.4,1.7,1,2.5,1.7c0.2,0.2,0.3,0.3,0.2,0.5
		c-0.1,0.2-0.1,0.3-0.2,0.3c-0.6,0-1.1,0.1-1.7,0.1c-0.7-0.9-1.6-0.8-2.6-0.6c-1-0.9-3.2-0.4-3.4-2c-0.2-1.4,1.7-2.1,2.7-2.8
		c4.6-2.9,9.3-5.5,14-8.2C326.1,304,326.4,304.4,326.3,305.3z"/>
	<path class="st49" d="M282.4,303.7c1.2,0,2.2-0.1,3.2,0c1.6,0.2,2.6,1.2,2.9,2.7c0.3,1.6-1.2,1.9-2.3,2.4c-2.5,1.2-5.1,1.2-7.8,0.9
		c-2-0.3-2.6-1.2-2.6-3.1c0-1.9,1-2.4,2.6-2.5C279.9,304,281.2,303.1,282.4,303.7z"/>
	<path class="st44" d="M254.9,253.4c0.5-2.6-0.8-6.3,2.6-6.5c3.2-0.1,2.7,3.6,3.1,5.9c0.3,1.5,0.3,3.1,0,4.6
		c-0.2,1.2-0.4,2.9-2.4,2.9c-1.9,0-2.4-1.2-2.7-2.6C255.2,256.3,255.1,254.7,254.9,253.4z"/>
	<path class="st50" d="M293.1,295c-1.6,0.3-3-0.1-3.4-2c-0.4-1.9,0.7-2.6,2.4-3.3c2.4-0.9,4.7-1.6,7.3-1.5c1.5,0.1,2.3,1,2.7,2.2
		c0.5,1.5-0.9,1.8-1.8,2.4C298.1,294.1,295.8,295.1,293.1,295z"/>
	<path class="st46" d="M292.7,276.3c-2.1-0.7-4-2.1-2.8-3.9c1.8-2.7,4.1-5.4,7.8-5.8c1.2-0.1,2.2,0.2,3,1.2c0.8,1.1-0.3,1.8-0.7,2.6
		C298.3,273.5,295.3,274.7,292.7,276.3z"/>
	<path class="st51" d="M316,317.7c0-0.3,0-0.5,0-0.8c5.1-0.3,10.2-0.7,15.2,2c-4.1,3-8,5.8-11.9,8.7c0.1-0.4,0.1-0.8,0.3-1.2
		C322.3,320.1,322.3,320.1,316,317.7z"/>
	<path class="st36" d="M303.3,278.7c0,2.7-7,8.5-9.2,7.9c-2-0.5-2.6-2.4-1.7-3.6c1.9-2.7,4.2-5.3,7.8-5.9
		C301.6,276.8,302.8,277.5,303.3,278.7z"/>
	<path class="st7" d="M219.8,250.8c-0.2,1.8-0.2,3.9-0.7,6c-0.3,1.4-1.2,2.7-2.9,2.5c-2-0.2-1.9-1.9-1.8-3.2
		c0.2-2.9,0.5-5.9,1.1-8.7c0.2-1.2,0.6-3.1,2.5-2.8c1.9,0.3,1.5,2.1,1.6,3.4C219.7,248.8,219.8,249.7,219.8,250.8z"/>
	<path class="st36" d="M291.5,302.2c-1.4-0.1-2.7-0.2-3.9-0.3c-1.6-0.2-2-1.3-2-2.7c0-1.3,0.6-2.3,1.9-2.4c2.5-0.1,4.9-1.1,7.5-0.4
		c1.5,0.4,3.2,0.7,3.3,2.6c0.2,2.1-1.8,2.3-3.1,2.7C293.9,302.1,292.6,302.1,291.5,302.2z"/>
	<path class="st52" d="M277.9,257.9c0.2,1.8-0.6,3.5-2.4,3.1c-4.4-1.1-3.5-5.3-4.2-8.5c-0.3-1.6,0.2-3.2,2.3-3.2
		C275.8,249.2,278,253.7,277.9,257.9z"/>
	<path class="st51" d="M210,334.1c1.5,1,4.6,1.3,3.1,3.8c-0.9,1.5-3.2,2.7-6,1.7c-2.9-1-5.8-1.7-8.7-3.4c1.8-2.3,4.6-1,6.5-2.2
		C206.7,333.4,208.4,333.3,210,334.1z"/>
	<path class="st51" d="M286.3,259.6c-0.1,1.3-0.2,2.5-0.4,3.8c-0.2,1.6-1.4,2-2.8,2c-1.5,0-1.8-0.7-2-2.1c-0.3-1.9-0.7-3.9-0.5-5.8
		c0.2-1.9,0.5-4,2.9-4c2.4,0,2.5,2.2,2.8,4C286.4,258.2,286.3,258.9,286.3,259.6z"/>
	<path class="st50" d="M235.8,252.8c0,1.5,0,1.9,0,2.4c-0.2,1.9,0.4,4.6-2.2,4.8c-3.1,0.2-2-2.7-2.2-4.4c-0.3-2.2-0.4-4.5-0.5-6.7
		c-0.1-1.8,1-3.2,2.6-3.3c1.3-0.1,1.7,1.7,1.9,2.9C235.7,250.3,235.8,252.1,235.8,252.8z"/>
	<path class="st53" d="M348.3,280.6c-4.8,8.9-10.4,17-19.4,22.1c-0.9,0.3-1.2-0.1-1-1c7.2-6.4,14.1-13.1,19.5-21.2
		C347.7,280.6,348,280.6,348.3,280.6z"/>
	<path class="st51" d="M200.7,225.5c-0.2,0.4-0.4,0.7-0.7,1c-2.4,3-5.5,5.2-8.9,6.9c-1.1,0.6-1.8,0.5-2.6-0.4
		c-0.7-0.8-0.5-1.6,0.2-2.2c2.9-2.4,5.4-5.4,9.1-6.7C199.2,223.7,200.4,223.7,200.7,225.5z"/>
	<path class="st51" d="M193.9,244.8c-1.7-0.3-2.3-1.4-1.8-2.5c1.6-3.4,2.8-7.1,5.8-9.6c0.7-0.6,1.5-1.1,2.3-0.7
		c0.9,0.5,0.5,1.5,0.3,2.3c-0.9,3.5-2.7,6.4-4.9,9.2C195.2,244.1,194.4,244.5,193.9,244.8z"/>
	<path class="st54" d="M243.8,256c0.2,1.5-0.4,2.3-1.6,2.7c-1.7,0.6-1.9-0.7-2.3-1.7c-1.2-3.1-2.3-6.3-1.6-9.8
		c0.1-0.7,0.4-1.4,1.1-1.6c0.8-0.2,1.2,0.5,1.6,1C243.6,249.4,242.8,253.1,243.8,256z"/>
	<path class="st55" d="M273.2,130.8c0.3,2.2-1.4,1.8-2.2,1.2c-2.7-2.1-4.8-4.8-5.7-8.1c-0.4-1.4,0-2.2,1.7-1.7
		c3,0.9,6.7,0.9,5.7,5.8C272.6,128.8,273,129.9,273.2,130.8z"/>
	<path class="st56" d="M217.4,324.6c3.1-0.1,5.2-0.4,5.6,2.2c0.4,2.8-2,3-3.9,3.5c-2.3,0.6-8.4-1.7-7.8-2.6
		C212.9,325,215.9,324.8,217.4,324.6z"/>
	<path class="st48" d="M302.4,168.2c0.4-3.7,1.7-5.9,3.2-8.1c1-1.5,2.4-1.9,4-1.5c1,0.2,1.8,1,1.8,2.1c0.1,1.5-0.1,3.1-1.7,3.9
		C307.5,165.7,305.2,166.8,302.4,168.2z"/>
	<path class="st47" d="M205.7,241.3c-1.1,3.5-2.9,6.8-5.8,9.3c-0.8,0.7-1.9,0.5-2.7-0.1c-0.8-0.7-0.3-1.5,0.1-2.3
		c1.6-2.6,2.7-5.5,5.1-7.7c0.8-0.7,1.7-1,2.7-0.7C205.6,240,205.8,240.5,205.7,241.3z"/>
	<path class="st51" d="M310.1,146.3c0.3,2.2-0.4,3.9-1.5,5.4c-0.8,1.1-1.8,2.6-3.3,2c-1.5-0.7-2.4-2.5-2.1-4.2c0.5-3,2.8-5,5.4-5.7
		C311,143.1,309.8,145.5,310.1,146.3z"/>
	<path class="st40" d="M211.9,246.1c0.2,2.8-0.9,5.2-1.9,7.7c-0.4,1-1.3,1.5-2.4,1.3c-1.3-0.3-1.2-1.4-1-2.3c0.4-2.5,0.6-5,1.4-7.3
		c0.4-1.3,1.1-3.3,3.1-2.9C212.9,243,211.8,244.9,211.9,246.1z"/>
	<path class="st57" d="M202.6,386.7c1.2-2.9,3-5.9,6.2-7.7c0.5-0.3,1.4-0.1,2,0.2c0.7,0.4,0.7,1.2,0.3,1.8c-1.5,2.4-3,4.9-4.8,7.3
		c-0.7,0.9-2,1.1-3.1,0.6C202.4,388.6,202.4,387.8,202.6,386.7z"/>
	<path class="st58" d="M293.3,262.4c0,2.4-1.8,4.4-3.1,6.5c-0.5,0.8-1.4,0.8-2.2,0.3c-0.9-0.5-1.8-1.1-1.5-2.2
		c0.7-2.4,1.8-4.7,3.6-6.6c0.5-0.5,1.6-0.8,2.3-0.7C293.6,260,293.2,261.3,293.3,262.4z"/>
	<path class="st59" d="M273.7,302.6c-0.7-1.6-3.6-3.1-0.1-4.9c0.3-0.2,0-1.6,0-2.5c0-9.7,0-19.5,0-29.2c-0.2-0.1-0.4-0.2-0.3-0.4
		c0-0.2,0.1-0.3,0.2-0.3c1.9-0.3,3.8-1,5.2,1c-3.5-0.9-4.6,0.3-4.5,3.9c0.2,9.3,0,18.5,0.1,27.8c0,1.2-0.8,2.9,1,3.7
		C275,302.5,274.4,302.6,273.7,302.6z"/>
	<path class="st60" d="M305.3,336.8c-6.5,2.9-13.1,5.6-20.3,6.7c-0.8,0.3-1.3,0.1-1.2-0.8c6.8-2.3,13.6-4.5,20.4-6.8
		C304.7,336,305.2,336.1,305.3,336.8z"/>
	<path class="st61" d="M305.3,336.8c-0.4-0.3-0.8-0.6-1.1-0.9c4.3-2,8.7-4.1,13-6.1c-2,2.1-4.2,3.9-6.3,5.8
		C309.1,337.2,307.4,337.5,305.3,336.8z"/>
	<path class="st62" d="M283.9,130.6c-2.1-0.9-3.5-2.4-4.8-4c-1.1-1.2-1-2.7,0.2-3.7c1.3-1,2,0.4,2.6,1.2
		C283.2,125.9,285.1,127.6,283.9,130.6z"/>
	<path class="st11" d="M220.2,200.9c0-7.6,0-15.2-0.1-22.8c1.6,1.3,0.9,3.2,0.9,4.8c0.1,6.2,0,12.4,0,18.6c0,0.1-0.2,0.2-0.2,0.3
		C220.6,201.4,220.4,201.2,220.2,200.9z"/>
	<path class="st63" d="M311.8,366.3c2.8-1.9,5.6-3.7,8.3-5.6c0.9-0.7,1.7-0.8,2.7-0.4l-0.1-0.1c-2.3,3.8-6,5.5-9.9,6.9
		C311.9,367.6,311.7,367.1,311.8,366.3z"/>
	<path class="st64" d="M171.9,306c-0.2,0.3-0.4,0.5-0.7,0.8c-4.4-0.2-6.7-3.1-8.2-6.7c0.2-0.7,0.5-1.2,1.3-0.9
		C166.9,301.5,169.4,303.8,171.9,306z"/>
	<path class="st60" d="M195.3,211.6c-0.2,1.7-0.9,2.5-2.4,2.5c-1.3,0-2.3-0.7-2.1-1.9c0.2-1.1,0.6-2.7,2.1-2.6
		C194.1,209.6,195.2,210.4,195.3,211.6z"/>
	<path class="st65" d="M269.8,389.3c-1.4,2.2-3.9,2.5-6.8,4.2c1.2-2.3,1-4.5,3.7-4.4C267.7,388.6,268.8,388.4,269.8,389.3z"/>
	<path class="st66" d="M154.9,290.8c0.3-0.6,0.6-1.2,0.9-1.8c1.2,2,3.4,3.3,3.3,6c-0.2,0.1-0.3,0.2-0.5,0.3
		C155.9,295.1,154.7,293.5,154.9,290.8z"/>
	<path class="st26" d="M297.8,180.7c-0.1,4.5-0.2,8.9-0.2,13.4C296,189.6,295.6,185.1,297.8,180.7z"/>
	<path class="st67" d="M283.8,342.6c0.4,0.3,0.8,0.6,1.2,0.8c-2.4,1.8-5.3,1.8-8,2.3c0-0.2,0-0.5,0-0.7c0.1-0.5,0.6-0.6,0.9-0.8
		c1.4-0.3,2.8-0.7,4.2-1c0.2-0.3,0.5-0.5,0.9-0.6C283.3,342.5,283.6,342.5,283.8,342.6z"/>
	<path class="st0" d="M277.9,344.2c-0.3,0.3-0.6,0.6-0.9,0.8c-1.9-0.7-4.2,1-6-0.8c0.8,0,0.3-2.5,1.8-1.2
		C274.4,344.4,276.2,344.1,277.9,344.2z"/>
	<path class="st68" d="M233,301c0,3.1,0,6.2,0,9.3C231.5,307.2,231.7,304.1,233,301z"/>
	<path class="st69" d="M270.2,296.1c0,1.3,0,2.6,0,4c-0.2,0.6-0.5,1.2-0.7,1.7c-0.3,0-0.6,0-0.9,0c-1.5-2.1-1.6-4.2,0.4-6.1
		C269.4,295.5,269.9,295.6,270.2,296.1z"/>
	<path class="st14" d="M307.5,180.7c-3.1,0-6.2,0-9.3-0.1C301.4,179.3,304.5,179.1,307.5,180.7z"/>
	<path class="st70" d="M273.5,265.4c0,0.2,0,0.5,0.1,0.7c-1.1,0.1-2.2,0.1-3.3,0.2c-0.3,0.3-0.6,0.3-0.9-0.1c-0.9-0.1-2,0.4-2.6-0.7
		C269,265.1,271.2,264.6,273.5,265.4z"/>
	<path class="st33" d="M307.6,369.6c-1.4,1.1-2.9,2.1-5.1,1.3c1.8-0.9,3.1-2.2,5-2.3c0.2,0.2,0.3,0.4,0.2,0.6
		C307.7,369.5,307.6,369.6,307.6,369.6z"/>
	<path class="st0" d="M283,342.6c-0.1,0.5-0.3,0.8-0.9,0.6c-0.6-0.9-1.2-1.9-2.4-3.8C281.7,340.5,283.9,339.6,283,342.6z"/>
	<path class="st20" d="M182.1,321.4c2.5-0.1,5-0.2,7.5-0.3C187.2,323,184.7,322.4,182.1,321.4z"/>
	<path class="st26" d="M247.4,116.3c2-0.7,3.9-0.5,5.9,0C251.3,117.8,249.4,117.8,247.4,116.3z"/>
	<path class="st71" d="M325.2,357.6c1.1-1.1,2.3-1.9,4.4-2.3c-1.3,1.4-1.7,2.9-3.4,3.2C325.9,358.3,325.3,358.2,325.2,357.6z"/>
	<path class="st72" d="M327.9,301.8c0.3,0.3,0.7,0.6,1,1c-0.9,0.9-1.8,1.7-2.6,2.6c-0.4-0.3-0.7-0.7-1.1-1
		C325.9,303.3,326.6,302.2,327.9,301.8z"/>
	<path class="st73" d="M164.4,299.2c-0.3,0.3-0.7,0.7-1,1c-1.5,0.2-2.2-0.7-2.7-2c0-0.5,0.2-0.7,0.6-0.8
		C163.3,296.5,163.5,298.4,164.4,299.2z"/>
	<path class="st33" d="M284.8,380.8c0.5-1.5,1.5-2,3.3-1.8C287.3,380.6,285.9,380.5,284.8,380.8z"/>
	<path class="st74" d="M292.3,138.3c1.6,0.6,3.5-1,4.9,0.7C295.5,139.7,293.8,139.4,292.3,138.3z"/>
	<path class="st57" d="M325.2,357.6c0.3,0.3,0.7,0.6,1,1c-1.1,0.7-1.9,1.9-3.5,1.7c0,0,0.1,0.1,0.1,0.1
		C322.7,358.7,324.2,358.3,325.2,357.6z"/>
	<path class="st75" d="M161.3,297.4L161.3,297.4c-2.4,0.6-2.9-0.4-2.1-2.4c0,0-0.1,0-0.1,0C160.6,295.2,161.5,295.8,161.3,297.4z"/>
	<path class="st76" d="M311.8,366.3c0.3,0.3,0.6,0.6,1,0.8c-0.7,1-1.8,1-2.8,1.4c-0.4-0.2-0.9-0.2-0.9-0.8
		C310,367.3,310.9,366.8,311.8,366.3z"/>
	<path class="st77" d="M207.6,360.3c1.7-0.3,3.4-0.4,5.1,0.1C210.9,361.5,209.2,361.6,207.6,360.3z"/>
	<path class="st78" d="M282.1,382.6c-1,0.9-1.9,1.5-3,1.4c-0.1-0.2-0.3-0.5-0.2-0.6C279.6,382.3,280.3,381.3,282.1,382.6z"/>
	<path class="st32" d="M227.9,387.5c1.7-0.5,3.4-0.5,5.1,0.1C231.2,388.6,229.6,388.7,227.9,387.5z"/>
	<path class="st79" d="M164.4,347.5c-0.3,0.3-0.6,0.6-0.9,0.9c-1.1-0.6-2.1-1.3-2.7-2.4c0.4-0.1,0.9-0.1,1.3-0.2
		C163.3,345.8,164.4,345.9,164.4,347.5z"/>
	<path class="st80" d="M210,334.1c-1.7,0-3.4,0-5-0.1C206.7,332.7,208.4,332.6,210,334.1z"/>
	<path class="st20" d="M218.5,216.1c-1.7,0.3-3.4,0.7-5.1,0.1C215.2,214.9,216.8,215,218.5,216.1z"/>
	<path class="st81" d="M250.7,129.1c-1.3-1.2-1.3-2.4,0-3.7C251.7,126.7,250.4,127.9,250.7,129.1z"/>
	<path class="st82" d="M309.1,367.8c0.3,0.3,0.6,0.5,0.9,0.8c-0.8,0.4-1.6,0.7-2.4,1.1c0-0.3,0-0.6,0-0.9
		C308.1,368.4,308.6,368.1,309.1,367.8z"/>
	<path class="st83" d="M269.8,389.3c-1-0.1-2.1-0.1-3.1-0.2c1.1-0.7,2.4-1.2,3.5-0.7C271.5,388.9,270.3,389.1,269.8,389.3z"/>
	<path class="st84" d="M145,250.1c-0.2-1.4-0.4-2.7-0.5-4.1C146.4,247.1,145.8,248.6,145,250.1z"/>
	<path class="st0" d="M419.6,59.6c-3.4,1.2-5.8,2-8.1,2.9c-2.8,1.1-4.6,2.6-5.5,6c-1.4,5.9-5,10.8-8.9,15.5c-1.1,1.3-2,1.6-3.5,0.5
		c-3.4-2.7-6.8-5.5-10.5-7.8c-2.2-1.4-1.7-2.6-0.8-4.1c1.6-2.9,3.4-5.8,5-8.8c3.2-5.8,6.7-11.5,9.7-19c-5.3,3-10.1,4.5-12.4,9.6
		c-2.1,4.6-4.5,9-6.8,13.5c-1.3,2.5-2.8,3.8-5.6,1.4c-1.7-1.5-3.7-2.7-5.7-3.5c-3.7-1.5-3.5-3.7-1.7-6.6c2.1-3.4,4.4-6.6,5.5-11.4
		c-5.7,2.3-11.4,2.8-13.2,9.4c-0.4,1.3-1.4,3.2-3.4,1.8c-4-3-8.8-4.5-13.3-6.3c-1.8-0.7-2-1.6-1.6-3.2c0.8-3.3,1.1-6.7,1-10.1
		c-0.1-2.5-0.4-5-2.9-6.1c-2.4-1.1-4.5,0.4-6.2,1.9c-5.6,4.8-10.2,10.5-12.6,17.6c-1.2,3.7,0.9,7.8,4.5,9.2c1.1,0.4,2.2,0.6,3.6,1
		c-3.1,3.2-6.8,4.2-10.3,5.3c-1.6,1.4-3.3,0.8-5,0.3c-2.7-0.5-5.4-1.1-8.8-1.8c2.6,3.8,6,5.6,9.1,7.5c6.2,3.7,10.7,2.9,15.5-2.6
		c5.4-6.3,5.4-6.3,13-3.1c0.4,0.2,0.8,0.3,1.1,0.5c3.4,2.2,6.8,4,10.8-0.2c-2.2,6.7,3.1,7.9,6.6,9.5c3.3,1.6,6.2,6.3,11.2,2.6
		c0,2.3-0.7,4.3,1.8,5.5c5.5,2.6,9.7,7.1,14.4,10.8c1.8,1.4,3.3,1.6,5.2,0.2c4.9-3.5,9.1-7.6,12.3-12.6c2.8-4.4,5.9-7.7,11.3-8.4
		c2.7-0.3,3.6-1.9,3.4-4.7C417.6,68.2,416.2,64.2,419.6,59.6z M330.8,49.2c-1.7-0.4-3-1.4-3.1-3.3c-0.1-1.2,0.6-1.8,2-1.8
		c1.9,0.3,2.1,2.1,2.4,3.6C332.2,48.5,332.1,49.5,330.8,49.2z"/>
	<path class="st0" d="M488.8,186.3c-0.6-1.3-2-0.4-3-0.7c-6.1-1.8-11-0.5-14.2,5.4c-0.3,0.5-0.9,0.7-1.2,1.2
		c-1.6,1.9-2.4,1.1-3.1-0.8c-1.1-3.2-2.1-6.4-3.5-9.4c-2-4.2-1-7.3,2.7-9.7c1.6-1.1,3.1-2.5,4.9-3.2c3.5-1.3,3-3.1,1.2-5.4
		c-4-5.1-9.5-6.2-15.5-5.8c-2.6,0.2-4.1-0.4-5.4-2.7c-8-14.2-16.5-28-27.3-40.3c-1.5-1.7-1.3-2.4,0.3-3.9c6.6-6.1,13-12.5,19.5-18.8
		c1.1-1,2.6-1.8,2.5-4.3c-4.3,1.2-9.1-0.5-12.6,2.9c-8.5,8.1-16.7,16.3-25.1,24.5c-1.4,1.4-1.9,2.4-0.2,4.2
		c10.3,10.8,18.2,23.5,25.6,36.4c2.7,4.7,5.5,6.8,10.7,5.7c2.5-0.5,3,0.4,2.2,2.7c-1.5,3.9-2.9,7.9-4.2,11.9
		c-0.6,1.9-1.3,4.3,2.3,3.6c1.9-0.4,2,1.1,2.5,2.2c1.3,3.4,2.7,6.8,3.8,10.3c2.7,8.3,2.7,8.4,11.4,8.2c9.5-0.3,17.9-3.3,24.3-10.7
		C487.7,188.5,489.4,187.8,488.8,186.3z M459.4,168.5c-0.3-2-0.2-4,1.5-5.1c0.6-0.4,1.9,0.6,2,1.7C463,167.2,461.4,168,459.4,168.5z
		"/>
	<path class="st0" d="M79.8,133.5c-2.5-4.5-4.4-10.1-2.1-14.8c2.4-4.9-0.1-7.4-2.6-10.5c-1.2-1.5-2-1.7-3.2-0.1
		c-3.7,4.8-8.9,7.7-14.1,10.5c-4.2,2.2-5.9,6.2-4.4,10.6c1.3,3.8,4.3,6.1,7.4,8.4c1.3,1,1.7,0,1.8-1.2c0.1-3.2,2.1-5.4,4-7.7
		c1-1.3,2.8-3.3,3.8-2.6c1.8,1.3,1.1,3.8,0.6,5.8c-0.1,0.5-0.7,0.8-1,1.3c-3.5,5.3-7.1,10.4-10.3,15.8c-1.4,2.3-2.7,1.8-4.5,0.9
		c-4-1.9-7.7-4.5-13-5.4c2.4,5.5,3.6,10.9,9.9,12.3c2.9,0.7,2.8,2.4,1.5,4.7c-1.5,2.5-3,5.1-3.9,7.9c-1.5,4.3-4.2,4.6-8.2,4
		c-7.6-1.3-15.3-2.5-23.9-2.5c3.2,2.9,5.1,6.8,8.3,7.3c3.3,0.6,4.2,2.1,4.8,4.6c2,7.9,7,13.1,14.3,16.5c3,1.4,5.6,2.5,6.7-2
		c0.3-1.3,1.2-2.5,2-3.7c3.8-6,3.8-6-1.6-10.7c-0.4-0.4-0.8-0.8-0.3-1.7c4.7,0.1,10.3,1.4,11.9-5.5c1.1-4.5,7.5-8.5,0.8-13.6
		c3-0.8,6.4-0.1,7.5-3.5c1.4-4.2,3.7-8.1,6.6-11.1C82.6,142.9,82.6,138.7,79.8,133.5z M40.1,187.1c-1.5-2.3-2-5.1-4.8-7.1
		c3.1-0.6,6.4-1.3,7.6,0.7C43.9,182.5,42.2,185.3,40.1,187.1z"/>
	<path class="st3" d="M104.9,396c-3.6-5.7-8.5-10-14.3-13.3c-1-0.5-1.7-1.1-2.2,0.2c-0.8,1.8-3,2.7-3.3,5.4c1-0.3,1.5-0.4,2-0.6
		c4.9-2,8.1-1.2,10.5,2.7c2.1,3.4-0.6,5.1-2.5,7.1c-2.2,2.3-2.9-0.5-3.8-1.4c-2.8-2.6-5.5-5.3-9.2-6.5c-3.9-1.2-7.2-0.2-9.8,3
		c-2.6,3.3-1.9,6.4,0.9,9.3c2,2,4.2,3.6,6.9,4.8c1.1,0.5,1.5,0.9,2.1,2.3c1.7,4.3,5.5,7,9.4,9.9c-1.7-3-0.2-4.5,1.9-6.1
		c3.6-2.9,7-6.1,10.6-9C106.7,401.5,106.6,398.7,104.9,396z M89.3,402.5c-1.2,1.1-2.5,2.3-3.9,3.2c-1.5,1-2.9,0.6-4-0.8
		c-1.2-1.4-1.9-2.8-0.4-4.4c1.7-1.9,3.2-3.9,5.6-3.8c2.5,0.2,4.2,1.3,5,2.9C92.3,401.1,90.3,401.6,89.3,402.5z"/>
	<path class="st5" d="M49.6,267.7c-0.3-0.9-0.5-2.4-2.2-1.9c-1.9,0.6-3.8,1.2-5.8,1.8c0.9,1.7,2.2,1.1,3.2,1.5
		c3.3,1.2,5.1,3.4,5,6.9c-0.1,3-2.9,5.1-6.5,5.3c-3.9,0.2-2.3-2.8-2.6-4.5c-0.4-2.3-0.6-4.7-1.6-6.9c-2.3-5.2-6.1-7.1-11.2-5.4
		c-4.3,1.4-6.2,5.3-4.9,10.6c0.8,3.4,3.3,6.1,1.5,10.3c-1.1,2.6,0.5,6.3,0.8,9.5c0.3,0.3,0.7,0.7,1,1c0.4-4.4,3.3-3.4,5.5-3.6
		c4.2-0.4,8.4-0.5,12.6-0.8c4.7-0.3,7.4-2.7,7.6-7.3C52.5,278.6,51.5,273.1,49.6,267.7z M38.8,279.4c-0.5,4.3-4.3,2-6.2,2.8
		c-2.5-0.1-5.2,0.6-5.2-3c0.1-4.1,3.2-4,6-4C36.2,275.2,39.2,275.6,38.8,279.4z"/>
	<path class="st85" d="M187.8,460.7c4.8-11.8,7-14.1-9.2-19.2c-0.4-0.1-0.8,0-1.2,0c-1.8-1.3-3.9-1.3-5.9-1.7
		c-1.6-0.4-3.7-0.8-4.6,0.7c-1,1.7-1.5,4-0.2,6.5c2.4-3.8,5.6-5,9.5-4.6c1,0.5,2.1,0.9,2.9,1.6c2.3,2.2,1.8,4.7,0.6,7.3
		c-1.3,2.9-2.9,0.3-4.1,0c-3.5-0.8-7-2.2-10.7-2c-4.3,0.2-7.4,3.1-7.9,7.4c-0.4,4.1,1.9,6.2,5.5,7.4c2.2,0.7,4.5,1.8,6.9,1.2
		c0.6-0.6,1.2-1.1,1.8-1.7c-2.9-2.7-3-6.9-0.1-9.3c1.8-1.5,3.9-1.7,5.9-0.5c1.9,1.1,0.8,2.7,0.2,4.1c-0.8,1.9-1.8,3.8-2.7,5.7
		c-0.6,1.5-2.6,0.4-3.3,1.7h0c0.8,0.2,1.8,0.2,2.3,0.7c3.7,4.1,8.8,4.2,13.5,5.4c-2.4-2.4-2.4-2.4-1.4-5.3
		C186.2,464.3,187,462.5,187.8,460.7z"/>
	<path class="st0" d="M451,372.2c-2.5,6-4.7,7.7-9.7,7.4c-4.2-0.3-5.4-2-4.1-6c1-2.9,1.7-6,3-8.7c1.5-3,0.4-4.4-2.4-5.1
		c-1.9-0.5-3.7-0.6-5.7,0.2c-4.4,1.8-6.5,5.6-8.5,9.4c-4.7,9.2,1.1,19.2,11.4,19.7c8.3,0.4,14.5-5.1,17-15
		C452,373.3,452.6,372.3,451,372.2z M433.4,375.9c-2.3,0.4-7.3-4.7-7.1-6.8c0.2-2,1.5-3.1,4.2-2.8c1.8,1.1,5.5,0.9,5.4,4.5
		C435.8,372.5,435.9,375.4,433.4,375.9z"/>
	<path class="st4" d="M348.4,452.5c-1.2-1.5-1.7-2.7,0.3-4.1c2.6-1.9,5-4,7.5-6.2c1.4-1.3,4.5-1.7,3.4-4.5c-1.1-2.7-3.3-4.4-6.5-4.6
		c-5.5-0.3-10.1,2.1-14.2,5.3c-5.4,4.2-6.8,9.4-4.2,14.9c2.8,6.1,9,9.7,15,8.4c5.4-1.2,10.3-3.6,13.9-8.1c-0.3-0.3-0.5-0.6-0.8-0.9
		C356.8,457.2,352.2,457.1,348.4,452.5z M346.4,447.8c-2.4-1.8-3.4-4.5-4-7.3c-0.1-2.7,1.9-3.8,3.7-3.7c3.2,0.2,4.3,3.1,5.4,5.7
		C352,443.4,347.1,448.3,346.4,447.8z"/>
	<path class="st4" d="M480.7,259.2c0.5,9-1,11.3-7.2,12.4c-2.3,0.4-3.1-0.4-3.6-2.2c-1-3.5-2-7-3-10.5c-0.6-2.2-1.6-3.3-4.2-2.9
		c-3.5,0.5-5.7,2.3-6.7,5.5c-1,3.2-1.2,6.6-0.5,10c1.2,6.3,5.2,10.9,10.4,11.9c6.6,1.3,12.9-1,15.8-5.5
		C485.1,272.2,484.8,264.7,480.7,259.2z M467.8,272.2c-2.4,1.4-5,0.7-7.6,0.5c0,0-0.1-0.2-0.1-0.4c0-0.1,0.2-0.2,0.2-0.3
		c-1.5-1.3-4-2.3-3.2-4.8c0.8-2.9,3.7-2.2,6-2.7c2.8-0.7,3.9,1,4.3,3.2C467.7,269.1,469.7,270.6,467.8,272.2z"/>
	<path class="st3" d="M441.7,404.2c-0.3-6.1-6.6-9.2-11.7-5.9c-3.9,2.5-7,5.9-10.4,9c-1.5,1.3-2.9,2.7-5.1,2.2c-1-1.6,0.1-2,1.2-2.8
		c3.7-2.5,7-5.5,8.6-9.9c1.8-4.9-0.4-10.1-5.3-11.3c-2.5-0.6-3.3-1.5-3-4.3c-4.8,5.7-12,8.6-14.3,16.1c-0.7,1.8,0.1,3.6-0.6,5.4
		c1.6,3.9,4.3,6.3,8.8,6c1.4-0.1,2.5,0,2.8,1.7c-0.3,1.4,0.1,2.7,0.8,4c0.6,1.1,2.8,2,1.2,3.4c-1.1,0.9-2.7,0.5-4.3-0.3
		c-8.3-4.4-16.5-9-24.5-13.9c-1.1-0.7-2.5-2.2-3.8-1.3c-3.8,2.9-7.4,6.1-11,9.2c3.3-1.2,4.3,0.4,5.1,3c0.8,2.8,2.2,5.5,3,8.3
		c2,7.1,6,13.7,5.1,21.9c2.3-1.8,4.2-3.4,6.1-4.9c-4.2-3.4-5.5-8.1-7.1-12.6c-0.1-0.3,0.6-0.9,0.9-1.3c-0.2-0.5-0.5-0.9-0.8-1.2
		c-0.4,0.3-0.8,0.4-1.3,0.4c-1.7-4.4-3.4-8.8-5.1-13.2c0.3-0.3,0.6-0.6,0.8-0.9c3.7,3.4,9.3,3.8,11.9,8.9c-0.1,0.1-0.2,0.1-0.3,0.2
		c0,0,0,0,0.1,0c0.4,0.2,0.7,0.3,1.1,0.3c4.1,0.1,11.8,5.3,12.7,8.9c0.9-0.6,1.7-1.1,2.5-1.7c3.2-2.7,6.4-5.5,9.7-8
		c3.2-2.5,4.6-2.1,6.1,1.7c0.8,2,2.4,2.3,4.1,2.2c4-0.4,7.2-2.1,9-5.8c-1.4-1.7-2.7-0.2-4,0.2c-1.3,0.4-2.6,1.1-4.1,0.6
		c-1.1-0.3-1.9-1.1-0.8-2.1c2.3-2,4.3-4.5,7.2-5.8c2.1-0.9,3.6-0.6,3.6,2.2c0,0.7,0.1,1.4,0.7,1.9
		C440.7,411.8,441.9,408.3,441.7,404.2z M406.4,395.1c-1.7-2.3,0-3.7,2.2-4.2c2.5-0.5,10.8,6.4,11,9.2c-0.2,2.4-1.9,3.1-4.1,2.2
		C411.7,401,408.7,398.3,406.4,395.1z"/>
	<path class="st5" d="M365.4,295.9c-0.3,4.9-0.1,9.8-1,14.7c-0.5,3.2-2.1,3.9-4.9,2.4c-4-2.1-6-4.7-4.5-9.7
		c1.8-6.2,3.6-12.3,6.2-18.2c0.6-1.3,1.2-3,2.8-2.5c1.5,0.4,1.4,2.2,1.4,3.6C365.4,289.4,365.4,292.6,365.4,295.9z"/>
	<path class="st2" d="M356.6,322.6c-0.8,3.8-1.4,7.7-6,9.2c-2,0.6-3.8,1.9-5.7,2.8c-1.4,0.6-3,0.8-2-1.4c2.5-5.3,2.2-11.2,4.3-16.6
		c1.7-4.4,3.3-4.5,6.2-0.7C355,317.9,357.1,319.6,356.6,322.6z"/>
	<path class="st5" d="M269.4,295.7c-1.7,1.8-0.4,4-0.9,6c-0.9,0.7-1.6,1.6-2.6,2.2c-2.3,1.4-5,3-7.4,1.4c-2.1-1.4-0.8-4.1-0.6-6.3
		c0.2-2.5,0.7-5,1.1-7.5c0.3-1.9,1.4-2.8,3.3-3.2c3.4-0.7,5.7,0.1,6,3.9c0.1,0.9,0,1.7,1.1,2C269.9,294.7,269.9,295.2,269.4,295.7z"
		/>
	<path class="st86" d="M267.7,337.7c0.8,2.9-0.4,5.2-3.4,5.5c-3,0.3-4.3-2.4-4.9-4.9c-0.7-3-0.5-6.2,1.7-8.8c1.9-2.2,3.7-2,4.9,0.4
		C267.3,332.2,268.1,334.8,267.7,337.7z"/>
	<path class="st8" d="M266,323.9c-2.5-4-6-4.3-8.9-5.4c-2.6-1-2.5-2.4-1.1-4.1c1-1.2,2-2.5,3.2-3.3c3.2-2.2,6-0.9,6.5,2.7
		c0.1,0.8,0.2,1.7,0.3,2.5C266,318.4,266,320.5,266,323.9z"/>
	<path class="st87" d="M269.4,295.7c0-0.5,0-1,0-1.6c0-7,0-13.9,0-20.9c-0.9,2.8-3.1,4.1-5.6,3.6c-2.6-0.5-4.8-2.7-5.5-5.4
		c-0.6-2.2,0.9-3,3-3.5c3.7-0.8,5.5,2.4,8.2,3.4c1.5,0.7,1.3,1.9,0.9,3.1c0,4.3-0.1,8.5-0.1,12.8c0.6,1.4,0.5,2.8,0.1,4.2
		c-0.1,1.5-0.2,3-0.2,4.5C269.9,296,269.7,295.9,269.4,295.7z"/>
	<path class="st59" d="M270.4,274.6c-0.3-1-0.6-2.1-0.9-3.1c0-1.8-0.1-3.5-0.1-5.3c0.3,0,0.6,0.1,0.9,0.1
		C270.5,269.1,271.8,271.8,270.4,274.6z"/>
	<path class="st26" d="M274.5,346.7c-1.8,1.6-4,0.5-6,0.8C270.3,345.4,272.5,346.9,274.5,346.7z"/>
	<path class="st0" d="M159.3,295c-0.1,1.5,0.7,2.2,2,2.5c-0.2,1.6,1.1,2,2.1,2.8c2.1,2.8,4.8,5,7.9,6.6c2.5,3.2,6.1,5.2,9.2,7.7
		c1,0.8,3,1.1,2.3,3c-0.6,1.6-2.3,1.9-3.9,1.9c-2.8-0.1-5.5-0.2-8.8-0.4c3.4,7.8,10.2,10.9,16.3,14.9c0.5,1.5,3.9,1.5,2.1,4.1
		c-1.7,2.4-3.3,0.7-5.1,0c-9.2-3.1-15.4-9.9-21.6-16.7c-2-2.2-2.9-4.5-1.9-7.3c1-2.9,3.6-2,5.7-2.3c0.2-1.3-0.7-1.9-1.5-2.3
		c-16.7-8.9-22.4-24.4-25.1-41.7c-0.3-1.7-0.4-3.4-0.9-5c-0.3-1.1-1-2.2-2.4-1c-2.6,2.2-2.6-0.4-2.2-1.5c1.1-3.3,2.4-6.6,5.3-9
		c2.4-2,4-1.3,4.4,1.5c0.4,2.9,0.4,5.9,0.4,8.8c0.3,11.1,4.9,20.5,11.5,29.2C156,292.6,156.4,295.1,159.3,295z"/>
	<path class="st88" d="M130.5,267.1c1.7,0.5,2.2,2.2,2.1,3.3c-0.1,1.6-1.9,1.6-3.2,1.7c-1.8,0.2-1.5-1.1-1.5-2.2
		C127.9,268.1,129.3,267.7,130.5,267.1z"/>
	<path class="st89" d="M131.1,282.2c-0.3-0.1-0.5,0-0.7,0.2c-1.4-0.2-3.5,1.3-3.5-1.7c0-1.8,1-3.5,2.4-3.1
		C131.3,278.1,131.7,280.2,131.1,282.2z"/>
	<path class="st6" d="M164.4,347.5c-0.8-0.6-1.5-1.1-2.3-1.7c-2.5-2.6-5.1-5.2-7.6-7.9c-0.9-0.9-1.7-1-3-0.6
		c-1.5,0.5-1.6,1.6-1.3,2.7c1,3.1-0.6,4.7-3.1,5.4c-2.9,0.8-3.7-1.7-4.8-3.6c-0.7-1.2-1.1-2.6-2-3.7c-1-1.3-0.3-2.6,0.6-2.7
		c3.9-0.8,4.3-3.9,5-6.8c0.7-2.8,1.7-3.2,3.8-1c5.2,5.6,10.3,11.1,15.7,16.5C167.7,346.2,166.6,346.9,164.4,347.5z"/>
	<path class="st5" d="M229.9,346.7c-2.5-0.6-5-1.8-6.3-4.8c-0.2-0.5-0.4-1.1-0.3-1.6c0.2-2.1,9.5-8,11.5-7.1c1.6,0.7,3,1.6,2.6,4
		C236.5,342.8,233.9,346.7,229.9,346.7z"/>
	<path class="st90" d="M228.6,351.7c0.4,0,1.1,0,1.8,0c1.5-0.1,2.5-0.1,2.8,2c0.4,2.1-1.1,2.7-2.2,2.9c-3.9,0.7-7.8,0.4-11.4-1.2
		c-1.7-0.7-1.4-1.3,0.1-2.1C222.4,351.8,225.4,352,228.6,351.7z"/>
	<path class="st59" d="M270.4,291.6c0-1.4-0.1-2.8-0.1-4.2C271.5,288.8,271.5,290.2,270.4,291.6z"/>
</g>
</svg>
