<?xml version="1.0" encoding="utf-8"?>
<!-- Generator: Adobe Illustrator 26.0.1, SVG Export Plug-In . SVG Version: 6.00 Build 0)  -->
<svg version="1.1" id="Layer_1" xmlns="http://www.w3.org/2000/svg" xmlns:xlink="http://www.w3.org/1999/xlink" x="0px" y="0px"
	 viewBox="0 0 500 165.2" style="enable-background:new 0 0 500 165.2;" xml:space="preserve">
<style type="text/css">
	.st0{fill:#084C8E;}
</style>
<g>
	<g>
		<path class="st0" d="M5.4,131.8c-0.3-0.2-0.8-0.7-1.4-1.7c-0.6-1-1.2-2-1.8-3.1c-0.7-1.1-1.2-2.2-1.6-3.3C0.2,122.5,0,121.6,0,121
			c0-1.6,0.5-3.5,1.6-5.7c1.1-2.1,2.2-4.1,3.3-5.9c2-3.4,4.9-8.4,8.7-14.9c3.9-6.5,9.2-15.5,16.1-27c3.8-6.2,7.4-12.6,10.8-19
			c3.4-6.4,5.9-11.5,7.4-15.3c0.7-1.6,1-3,1-4.2c0-1.8-0.5-3.1-1.6-3.9c-1.1-0.8-2.5-1.2-4.3-1.2c-2,0-4.2,0-6.7,0.1
			c-2.5,0.1-4.6,0.2-6.4,0.4c-0.7,0-1.2-0.4-1.6-1.1c-0.4-0.7-0.6-1.5-0.6-2.3c0-0.7,0.2-1,0.7-1c1.6,0.5,3.7,0.9,6,1.1
			c2.4,0.2,4.7,0.4,7,0.4c3.1,0,6.2-0.2,9.4-0.7c3.1-0.5,5.7-1.1,7.6-1.7c1.1,0,1.8,0.7,2,2.2c0.3,1.3,0.8,3.2,1.4,5.8
			c0.6,2.5,1.1,4.7,1.6,6.5c1.3,4.9,3,10.5,5.2,16.6c2.1,6.2,4.4,12.5,6.8,19.1c2.4,6.6,4.8,13.1,7.1,19.5
			c2.4,6.4,4.5,12.2,6.3,17.5c0.3,1.3,0.7,2.4,1,3.2c0.3,0.8,0.9,1.2,1.7,1.2c0.5,0,1-0.5,1.6-1.4c0.6-0.9,1.1-1.9,1.6-2.8
			c3.8-7.7,7.7-15.6,11.7-23.6c4-8,8.1-16,12.2-23.9c4.1-7.9,8.3-15.5,12.4-22.9c4.2-7.4,8.3-14.3,12.4-20.7c1-1.6,2.2-3.4,3.6-5.2
			c1.4-1.8,3-3.4,4.7-4.9c1.7-1.5,3.5-2.7,5.4-3.7c1.9-1,3.9-1.5,6-1.5c1.1,0,2.6,0.5,4.3,1.6c1.7,1.1,2.8,2.3,3.3,3.6
			c0,0.3-0.2,0.5-0.7,0.5c-2,0-3.9,0.2-5.9,0.7c-2,0.5-4.1,1.4-6.3,2.7c-2.2,1.3-4.5,3.2-6.9,5.7c-2.4,2.5-5,5.6-7.8,9.4
			c-7.9,10.8-15.6,23.3-23.2,37.5c-7.6,14.1-14.5,28.3-20.9,42.6c-1.8,4.3-3.7,8.6-5.5,13.1c-1.9,4.4-3.7,8.5-5.5,12.1
			c-0.5,1.1-1,1.7-1.5,1.7c-0.7,0-1.4-0.6-2.2-1.7c-2-6.9-4.3-14.5-7-22.7c-2.7-8.2-5.5-16.3-8.4-24.4c-2.9-8-5.6-15.6-8.3-22.7
			c-2.6-7.1-4.8-12.7-6.7-17c-1-2.1-1.9-3.2-2.7-3.2c-0.8,0-1.9,1-3.2,3c-4.1,6.4-7.9,12.4-11.5,18c-3.5,5.6-6.8,11-9.7,16.4
			c-3,5.3-5.7,10.6-8.4,15.6c-2.6,5.1-5.1,10.3-7.4,15.5c-0.7,1.5-1.3,3.2-1.8,5.2c-0.6,2-1.1,4.1-1.6,6.3c-0.5,2.2-0.9,4.4-1.2,6.7
			c-0.3,2.2-0.5,4.1-0.5,5.8H5.4z"/>
		<path class="st0" d="M169.8,76.8c-2.3,2.9-4.9,5.7-7.7,8.6c-2.8,2.9-5.6,5.5-8.5,7.9c-2.9,2.3-5.7,4.2-8.5,5.7
			c-2.8,1.4-5.4,2.1-7.7,2.1c-2,0-3.5-0.5-4.3-1.5c-0.8-1-1.2-2.3-1.2-3.8c0-1.4,0.4-3.3,1.3-5.7c0.9-2.4,2.2-5,3.9-7.7
			c-1.3,1.7-2.9,3.6-4.6,5.5c-1.7,1.9-3.5,3.7-5.3,5.3c-1.8,1.6-3.7,2.9-5.5,4c-1.8,1.1-3.5,1.6-4.9,1.6c-2.1,0-3.2-1.1-3.2-3.2
			c0-2.3,0.9-5.3,2.7-8.9c1.8-3.6,4.3-7,7.4-10.3c3.1-3.3,6.6-6.2,10.6-8.6c4-2.4,8.1-3.6,12.4-3.6c0.5-1,1-1.7,1.4-2.1
			c0.4-0.4,0.8-0.7,1.2-0.9l4.3-1.2L154,60c-0.5,0.5-1,1.1-1.5,1.9c-0.5,0.8-0.9,1.6-1.5,2.4c0.5,0,1.3,0.1,2.3,0.2
			c1,0.1,1.8,0.2,2.3,0.3c0.5,0.2,0.8,0.5,0.8,0.8c0,0.3-0.2,0.5-0.5,0.5c-0.6-0.2-1.5-0.4-2.8-0.5c-1.2-0.1-2.1-0.2-2.7-0.2
			c-4.7,8.2-8.1,14.8-10.3,19.6c-2.2,4.8-3.3,8.4-3.3,10.8c0,0.9,0.2,1.7,0.7,2.3c0.5,0.6,1.4,0.9,2.8,0.9c1.6,0,3.6-0.6,5.8-1.8
			c2.2-1.2,4.6-2.8,7.2-4.9c2.5-2.1,5.2-4.5,7.9-7.3c2.7-2.7,5.3-5.7,7.7-8.7c0.2-0.3,0.4-0.4,0.6-0.2
			C169.7,76.3,169.8,76.5,169.8,76.8z M146,65.2c-3.5,0-6.8,1.2-9.9,3.7c-3.2,2.4-6,5.3-8.4,8.6c-2.4,3.3-4.4,6.6-5.9,9.9
			c-1.5,3.3-2.2,5.7-2.2,7.2c0,0.8,0.3,1.2,0.9,1.2c0.6,0,1.6-0.4,2.8-1.2c1.3-0.8,2.7-1.9,4.4-3.3c1.6-1.4,3.3-3,5-4.8
			c1.7-1.8,3.2-3.8,4.7-6c1.6-2.4,3.2-5,4.7-7.8c1.5-2.7,2.9-5.2,4.1-7.3L146,65.2z"/>
		<path class="st0" d="M218.6,84.6c-1.4,1.6-3.1,3.5-5.1,5.5c-2,2-4.1,4-6.3,5.8c-2.2,1.8-4.6,3.4-7,4.6c-2.4,1.2-4.7,1.8-7,1.8
			c-2,0-3.5-0.4-4.3-1.2c-0.8-0.8-1.2-2.1-1.2-3.8c0-1.1,0.6-3,1.8-5.5c1.2-2.5,2.5-5.2,3.9-7.9c1.4-2.7,2.7-5.4,3.9-7.9
			c1.2-2.5,1.8-4.3,1.8-5.3c0-0.6-0.3-0.9-0.8-0.9c-1.3,0.7-2.8,1.8-4.5,3.1c-1.7,1.4-3.3,2.9-5,4.5c-1.6,1.6-3.1,3.2-4.5,4.7
			c-1.4,1.5-2.4,2.8-3.1,3.8c-0.7,1-1.4,2.2-2.1,3.7c-0.7,1.4-1.4,2.8-2.1,4.1c-0.7,1.3-1.3,2.4-2,3.4c-0.7,0.9-1.2,1.4-1.8,1.4
			c-0.5,0-1-0.3-1.4-0.8c-0.4-0.5-0.6-1-0.6-1.5c0-0.3,0.2-0.8,0.5-1.6c0.3-0.8,0.9-1.7,1.7-2.8c1.3-1.8,2.5-3.8,3.6-5.8
			c1.1-2,2-3.9,2.8-5.7c0.8-1.7,1.3-3.2,1.8-4.4c0.4-1.2,0.6-1.9,0.6-2.1c0-0.8-0.2-1.2-0.6-1.2c-0.6,0-1.7,0.6-3.1,1.9
			c-1.5,1.3-3.1,2.8-4.8,4.7c-1.7,1.8-3.4,3.8-5.1,5.8c-1.7,2-3.1,3.9-4.2,5.5c-1.4,2.1-2.6,4-3.7,5.7c-1,1.6-1.8,2.4-2.3,2.4
			c-0.8,0-1.3-0.4-1.5-1.1c-0.2-0.7-0.2-1.4-0.2-2.1c0-0.8,0.2-1.5,0.6-2c2.7-4.4,5.4-8.9,8.1-13.4c2.6-4.6,5.3-9.1,7.9-13.6
			c0.5-0.9,1.1-1.4,1.7-1.4c0.5,0,1,0.3,1.4,0.8c0.4,0.6,0.6,1.1,0.6,1.6c-0.7,2-1.9,4.5-3.7,7.5c-1.7,3-3.3,5.7-4.6,8.1
			c4.1-4.7,7.5-8.2,10.2-10.6c2.7-2.4,5-3.6,6.7-3.6c1.1,0,1.7,0.8,1.7,2.3c0,1-0.5,2.6-1.4,4.7c-0.9,2.1-1.7,3.8-2.4,5.1
			c-0.2,0.4-0.2,0.6-0.1,0.5c0.2,0,0.3-0.2,0.5-0.4c1.2-1.4,2.6-2.9,4.2-4.5c1.6-1.6,3.3-3.1,5-4.5c1.8-1.4,3.6-2.7,5.3-4
			c1.8-1.2,3.4-2.2,5-2.9c1.5,0,2.3,0.7,2.3,2.1c0,0.3-0.1,0.6-0.2,0.9c-0.1,0.3-0.3,0.7-0.5,1.1c-0.5,1.1-1.5,3-2.8,5.5
			c-1.4,2.5-2.8,5.3-4.2,8.2c-1.4,2.9-2.7,5.7-3.7,8.4c-1.1,2.7-1.6,4.8-1.6,6.2c0,2,1,3.1,2.9,3.1c1.8,0,3.8-0.6,5.8-1.8
			c2-1.2,4.1-2.7,6.1-4.4c2-1.7,3.9-3.5,5.7-5.4c1.7-1.9,3.2-3.5,4.4-5c0.4-0.6,0.8-0.9,1.2-0.8C219.3,83.2,219.2,83.7,218.6,84.6z"
			/>
		<path class="st0" d="M272.4,84.6c-1.4,1.6-3.1,3.5-5.1,5.5c-2,2-4.1,4-6.3,5.8c-2.2,1.8-4.6,3.4-7,4.6c-2.4,1.2-4.7,1.8-6.9,1.8
			c-2,0-3.5-0.4-4.3-1.2c-0.8-0.8-1.2-2.1-1.2-3.8c0-1.1,0.6-3,1.8-5.5c1.2-2.5,2.5-5.2,3.9-7.9c1.4-2.7,2.7-5.4,3.9-7.9
			c1.2-2.5,1.8-4.3,1.8-5.3c0-0.6-0.3-0.9-0.8-0.9c-1.3,0.7-2.8,1.8-4.5,3.1c-1.7,1.4-3.3,2.9-5,4.5c-1.6,1.6-3.1,3.2-4.5,4.7
			c-1.4,1.5-2.4,2.8-3.1,3.8c-0.7,1-1.4,2.2-2.1,3.7c-0.7,1.4-1.4,2.8-2.1,4.1c-0.7,1.3-1.3,2.4-2,3.4c-0.7,0.9-1.2,1.4-1.8,1.4
			c-0.5,0-1-0.3-1.4-0.8c-0.4-0.5-0.6-1-0.6-1.5c0-0.3,0.2-0.8,0.5-1.6c0.3-0.8,0.9-1.7,1.7-2.8c1.3-1.8,2.5-3.8,3.6-5.8
			c1.1-2,2-3.9,2.8-5.7c0.8-1.7,1.4-3.2,1.8-4.4c0.4-1.2,0.6-1.9,0.6-2.1c0-0.8-0.2-1.2-0.6-1.2c-0.6,0-1.7,0.6-3.1,1.9
			c-1.5,1.3-3.1,2.8-4.8,4.7c-1.7,1.8-3.4,3.8-5.1,5.8c-1.7,2-3.1,3.9-4.2,5.5c-1.4,2.1-2.6,4-3.7,5.7c-1,1.6-1.8,2.4-2.3,2.4
			c-0.8,0-1.3-0.4-1.5-1.1c-0.2-0.7-0.2-1.4-0.2-2.1c0-0.8,0.2-1.5,0.6-2c2.7-4.4,5.4-8.9,8.1-13.4c2.6-4.6,5.3-9.1,7.9-13.6
			c0.5-0.9,1.1-1.4,1.7-1.4c0.5,0,1,0.3,1.4,0.8c0.4,0.6,0.6,1.1,0.6,1.6c-0.7,2-1.9,4.5-3.7,7.5c-1.7,3-3.3,5.7-4.6,8.1
			c4.1-4.7,7.5-8.2,10.2-10.6c2.7-2.4,5-3.6,6.7-3.6c1.1,0,1.7,0.8,1.7,2.3c0,1-0.5,2.6-1.4,4.7c-0.9,2.1-1.7,3.8-2.4,5.1
			c-0.2,0.4-0.2,0.6-0.1,0.5c0.2,0,0.3-0.2,0.5-0.4c1.2-1.4,2.6-2.9,4.2-4.5c1.6-1.6,3.3-3.1,5-4.5c1.8-1.4,3.6-2.7,5.3-4
			c1.8-1.2,3.4-2.2,5-2.9c1.5,0,2.3,0.7,2.3,2.1c0,0.3-0.1,0.6-0.2,0.9c-0.1,0.3-0.3,0.7-0.5,1.1c-0.5,1.1-1.5,3-2.8,5.5
			c-1.4,2.5-2.8,5.3-4.2,8.2c-1.4,2.9-2.7,5.7-3.7,8.4c-1.1,2.7-1.6,4.8-1.6,6.2c0,2,1,3.1,2.9,3.1c1.8,0,3.8-0.6,5.8-1.8
			c2-1.2,4.1-2.7,6.1-4.4c2-1.7,3.9-3.5,5.7-5.4c1.7-1.9,3.2-3.5,4.4-5c0.4-0.6,0.8-0.9,1.2-0.8C273.1,83.2,273,83.7,272.4,84.6z"/>
		<path class="st0" d="M321,76.8c-2.3,2.9-4.9,5.7-7.7,8.6c-2.8,2.9-5.6,5.5-8.5,7.9c-2.9,2.3-5.7,4.2-8.5,5.7
			c-2.8,1.4-5.4,2.1-7.7,2.1c-2,0-3.5-0.5-4.3-1.5c-0.8-1-1.2-2.3-1.2-3.8c0-1.4,0.4-3.3,1.3-5.7c0.9-2.4,2.2-5,3.9-7.7
			c-1.3,1.7-2.9,3.6-4.6,5.5c-1.7,1.9-3.5,3.7-5.3,5.3c-1.8,1.6-3.7,2.9-5.5,4c-1.8,1.1-3.5,1.6-4.9,1.6c-2.1,0-3.2-1.1-3.2-3.2
			c0-2.3,0.9-5.3,2.7-8.9c1.8-3.6,4.3-7,7.4-10.3c3.1-3.3,6.6-6.2,10.6-8.6c4-2.4,8.1-3.6,12.4-3.6c0.5-1,1-1.7,1.4-2.1
			c0.4-0.4,0.8-0.7,1.2-0.9l4.3-1.2l0.3,0.2c-0.5,0.5-1,1.1-1.5,1.9c-0.5,0.8-0.9,1.6-1.5,2.4c0.5,0,1.3,0.1,2.3,0.2
			c1,0.1,1.8,0.2,2.3,0.3c0.5,0.2,0.8,0.5,0.8,0.8c0,0.3-0.2,0.5-0.5,0.5c-0.6-0.2-1.5-0.4-2.7-0.5c-1.2-0.1-2.1-0.2-2.7-0.2
			c-4.7,8.2-8.1,14.8-10.3,19.6c-2.2,4.8-3.3,8.4-3.3,10.8c0,0.9,0.2,1.7,0.7,2.3c0.5,0.6,1.4,0.9,2.8,0.9c1.6,0,3.6-0.6,5.8-1.8
			c2.2-1.2,4.6-2.8,7.2-4.9c2.5-2.1,5.2-4.5,7.9-7.3c2.7-2.7,5.3-5.7,7.7-8.7c0.2-0.3,0.4-0.4,0.6-0.2C320.9,76.3,321,76.5,321,76.8
			z M297.1,65.2c-3.5,0-6.8,1.2-9.9,3.7c-3.2,2.4-6,5.3-8.4,8.6c-2.4,3.3-4.4,6.6-5.9,9.9c-1.5,3.3-2.2,5.7-2.2,7.2
			c0,0.8,0.3,1.2,0.9,1.2c0.6,0,1.6-0.4,2.8-1.2c1.3-0.8,2.7-1.9,4.4-3.3c1.6-1.4,3.3-3,5-4.8c1.7-1.8,3.2-3.8,4.7-6
			c1.6-2.4,3.2-5,4.7-7.8c1.5-2.7,2.9-5.2,4.1-7.3L297.1,65.2z"/>
		<path class="st0" d="M364.2,23.4c-6.2,0-11.7,0.3-16.4,0.9c-4.8,0.6-9,1.8-12.6,3.6c-3.6,1.8-6.9,4.5-9.7,8
			c-2.9,3.5-5.5,8.2-7.9,14c-0.2,0.5-0.5,0.6-0.8,0.4c-0.3-0.2-0.5-0.6-0.8-1.3c1-3.1,2.2-6.1,3.6-9c1.4-2.9,3-5.6,4.7-8.1
			c1.8-2.5,3.8-4.6,5.9-6.3c2.2-1.7,4.6-2.8,7.2-3.3c2.9-0.6,6.1-0.8,9.6-0.8c3.6,0.1,7.1,0.1,10.7,0.1c3.3,0,6.7,0,10,0.1
			c3.3,0.1,6.7,0.1,10,0.1h7.4c9.2-0.1,16.5-1.7,22-4.6c1.7-0.9,3.4-2.3,5.2-4.1c1.7-1.8,2.6-3.8,2.6-6c0-0.6-0.1-1-0.2-1.2
			c-0.1-0.1-0.2-0.3-0.2-0.5c0-0.5,0.2-0.7,0.5-0.7c0.1,0,0.3,0.1,0.5,0.3c1.4,1.5,2.4,3,3.1,4.5c0.3,0.5,0.5,1.1,0.5,2.1
			c0,0.7-0.2,1.5-0.7,2.4c-2,3.2-4.9,5.5-8.7,6.9c-3.8,1.4-8.5,2.2-14,2.4c-1.9,0.1-4,0.1-6.2,0.1c-2.2-0.1-4.1,0-5.9,0.1
			c-1.6,0-2.8,0.6-3.6,1.7c-6.4,9.8-12.4,19.3-17.8,28.6c-5.5,9.3-10.4,18-14.9,26.2c-1,2-1.9,3.8-2.5,5.4c-0.6,1.7-1,3.2-1.1,4.6
			c0,0.9,0.1,1.8,0.3,2.7c0.2,0.9,0.7,1.6,1.6,2.2c0.8,0.6,2,1.1,3.5,1.5c1.5,0.4,3.6,0.6,6.1,0.6c0.6,0,1.3,0,2.1,0
			c0.8,0,1.5-0.1,2.1-0.2c0.3,0.5,0.2,0.9-0.5,1.4c-2,0.2-4.1,0.4-6.5,0.4c-2.4,0.1-4.7,0.1-6.7,0.1c-1.7,0-3.4,0-4.9-0.1
			c-1.6-0.1-2.9-0.3-4.1-0.7c-1.2-0.4-2.2-1-2.9-1.8c-0.7-0.8-1.1-2-1.1-3.4c0-0.9,0.2-2,0.7-3.1c0.5-1.1,1.1-2.4,1.9-3.6
			c3.1-5.1,6.2-10.2,9.4-15.5c3.2-5.3,6.3-10.5,9.3-15.8c3-5.2,6-10.3,8.9-15.3c2.9-5,5.5-9.8,7.9-14.4c0.6-1,0.3-1.6-0.9-1.6H364.2
			z"/>
		<path class="st0" d="M421.3,71.8c-1.7,2.3-3.8,4.5-6.3,6.3c-2.5,1.9-5.3,2.8-8.5,2.8c-1.7,0-3.4-0.4-5.1-1.3c-1.7-0.9-3-2.2-4-3.9
			c-0.7,1.6-1.6,3.5-2.8,5.6c-1.1,2.1-2.4,4.2-4,6.3c-1.5,2.1-3.2,4-5.1,5.7c-1.9,1.7-3.9,3.2-6,4.3c-1.8,0.8-3.4,1.2-4.6,1.2
			c-3.7,0-5.5-1.6-5.5-4.9c0-1.8,0.3-3.7,1-5.6c0.7-1.9,1.5-3.8,2.5-5.7c1-1.8,2.1-3.6,3.3-5.2c1.2-1.6,2.3-3,3.3-4
			c2.1-2.3,4.6-4.3,7.3-6c2.7-1.6,5.7-2.6,8.9-2.9c0.2-0.8,0.5-1.8,0.9-2.8c0.4-1.1,1.1-1.7,2.1-1.9c0.5-0.1,1-0.2,1.5-0.3
			c0.5-0.1,1-0.3,1.4-0.5c0.3-0.2,0.6-0.2,0.9-0.1c0.3,0.2,0.4,0.4,0.2,0.8c-0.7,1.1-1.2,2.5-1.6,4.3c-0.4,1.7-0.5,3.6-0.5,5.7
			c0,2.9,0.5,5.2,1.6,7c1.1,1.8,2.9,2.7,5.6,2.7c2.6,0,5-0.9,7.2-2.6c2.1-1.7,3.9-3.6,5.3-5.7c0.2-0.5,0.5-0.7,1-0.5
			C421.7,71.1,421.7,71.4,421.3,71.8z M396.1,72.9c-0.2-0.9-0.4-2-0.5-3.2c-0.1-1.2-0.2-2.4-0.2-3.5c0-0.5-0.2-0.8-0.6-0.8
			c-1.1,0-2.3,0.4-3.5,1.1c-1.2,0.8-2.4,1.8-3.7,3.1c-1.2,1.3-2.4,2.7-3.7,4.4c-1.2,1.6-2.3,3.3-3.4,5c-1.3,2.2-2.5,4.7-3.6,7.3
			c-1.1,2.6-1.6,5.1-1.5,7.4c0,0.7,0.1,1.4,0.4,2c0.3,0.6,0.8,0.9,1.8,0.9c1.7,0,3.6-1,5.7-2.9c2-1.9,4-4.2,5.8-6.8
			c1.8-2.6,3.4-5.2,4.7-7.9C395.1,76.3,395.9,74.3,396.1,72.9z"/>
		<path class="st0" d="M455.5,79.4c-1.7,2.4-3.8,5-6.1,7.7c-2.3,2.7-4.8,5.2-7.3,7.4c-2.5,2.2-5.1,4.1-7.8,5.6
			c-2.6,1.5-5.1,2.2-7.5,2.2c-1.7,0-3.1-0.5-4.1-1.4c-1-0.9-1.5-2.3-1.5-4.3c0-0.9,0.1-2,0.4-3.1c0.3-1.2,0.7-2.5,1.3-3.9
			c-0.6,0.7-1.3,1.6-2.1,2.5c-0.8,1-1.6,1.9-2.6,2.8c-1,0.9-2,1.6-3.2,2.1c-1.2,0.6-2.5,0.8-3.9,0.8c-1.1,0-2-0.3-2.7-1
			c-0.7-0.7-1.1-1.7-1.1-3.1c0-0.8,0.2-1.8,0.5-3.1c0.4-1.2,1-2.9,2-5c1-2.1,2.3-4.7,4-7.8c1.7-3.1,3.8-7,6.5-11.5
			c0.5-1,1-1.5,1.4-1.5c0.7,0,1.4,0.4,2.2,1.3c0.8,0.9,1.1,1.5,1.1,1.8c0,0.3-0.3,0.9-0.9,1.8c-1.6,2.4-3.2,4.9-4.6,7.3
			c-1.4,2.4-2.7,4.7-3.7,6.9c-1.1,2.1-1.9,4-2.6,5.7c-0.7,1.7-1,3-1,3.9c0,1.5,0.6,2.3,1.7,2.3c1,0,2.4-0.8,4.2-2.4
			c1.8-1.6,3.9-4.3,6.3-8c0.9-1.6,1.9-3.3,2.8-5.1c1-1.8,1.9-3.5,2.8-5.1c0.9-1.6,1.8-3.1,2.6-4.5c0.8-1.4,1.4-2.4,1.8-3.1
			c0.5-0.7,0.9-1.1,1.2-1.1c0.4,0,0.9,0.4,1.4,1.3c0.5,0.9,0.8,1.9,0.8,3.1c0,0.8-0.2,1.6-0.6,2.3c-1.2,1.8-2.5,3.6-3.9,5.4
			c-1.4,1.8-2.6,3.6-3.8,5.6c-1.2,1.9-2.2,4-3,6.1c-0.8,2.1-1.2,4.5-1.2,7c0,2.2,1.1,3.4,3.2,3.4c1.4,0,3.1-0.5,5.1-1.6
			c2-1.1,4.2-2.6,6.5-4.5c2.3-1.9,4.8-4.3,7.3-7c2.5-2.7,4.9-5.8,7.1-9C455.2,78.5,455.5,78.7,455.5,79.4z"/>
		<path class="st0" d="M482,66.6c-0.6,0.7-1.2,1.6-1.9,2.6c-0.7,1-1.1,1.8-1.3,2.3c-0.1,0.3-0.3,0.5-0.6,0.5c-0.1,0-0.3-0.2-0.5-0.5
			c-0.2-0.3-0.5-0.6-0.8-1c-0.4-0.4-0.8-0.7-1.5-1c-0.6-0.3-1.5-0.5-2.6-0.5c-1.3,0-2.8,0.5-4.4,1.4c-1.6,0.9-3.1,1.9-4.3,3.1
			c-1.9,1.6-3.6,3.4-5.1,5.3c-1.5,1.9-2.9,3.9-4.2,6c-1.3,2.1-2.6,4.2-3.8,6.4c-1.2,2.2-2.5,4.4-4,6.6c-0.1,0.3-0.4,0.5-0.9,0.5
			c-0.2,0-0.6-0.3-1.3-0.9c-0.7-0.6-1-1.1-1-1.4c0-0.6,0.4-1.5,1.1-2.8c1.6-2.8,3.3-5.7,5-8.6c1.7-2.9,3.3-5.6,4.7-8.2
			c1.5-2.5,2.8-4.8,3.9-6.6c1.1-1.9,1.9-3.3,2.3-4.2c0.5-0.9,0.9-1.4,1.1-1.4c0.2,0,0.7,0.3,1.5,0.8c0.8,0.5,1.2,1.2,1.2,2.1
			c0,0.3-0.2,0.8-0.5,1.5c-0.4,0.7-0.8,1.5-1.2,2.2c-0.5,0.8-0.9,1.5-1.3,2.2c-0.4,0.7-0.7,1.2-0.9,1.5c-0.3,0.5-0.4,0.8-0.2,0.8
			s0.5-0.2,0.8-0.5c1-1,2.3-2.1,3.7-3.4c1.5-1.2,3-2.4,4.7-3.4c1.6-1.1,3.2-2,4.8-2.7c1.6-0.7,3-1.1,4.2-1.1c0.9,0,1.7,0.2,2.4,0.7
			C481.6,65.6,482,66.1,482,66.6z"/>
		<path class="st0" d="M498.3,69.8c-0.3,0.5-0.6,0.6-0.8,0.2c-0.6-1.3-1.9-2-3.8-2c-1.4,0-2.9,0.4-4.3,1.2c-1.4,0.8-2.1,2-2.1,3.7
			c0,0.8,0.3,1.6,0.8,2.4c0.5,0.8,1.2,1.9,2.1,3.2c0.8,1.2,1.6,2.4,2.3,3.7c0.7,1.2,1.1,2.5,1.1,3.8c0,2.6-0.6,4.8-1.8,6.5
			c-1.2,1.7-2.7,3-4.4,4.1c-1.7,1-3.4,1.7-5.1,2.1c-1.7,0.4-3.1,0.5-4.1,0.5c-6.2,0-9.6-2.1-10.2-6.3c0.5-0.3,1.1-0.7,1.8-1.1
			c0.7-0.5,1.1-0.9,1.4-1.3c0.2,0,0.4,0.2,0.5,0.6c0.5,1.8,1.5,3.4,2.9,4.7c1.4,1.3,3.1,2,5,2c0.8,0,1.8-0.1,2.9-0.2
			c1.1-0.2,2.2-0.5,3.1-1.1c1-0.6,1.8-1.3,2.5-2.4c0.7-1,1.1-2.4,1.1-4.1c0-1.3-0.3-2.5-0.8-3.7c-0.5-1.1-1.1-2.1-1.7-3.1
			c-0.6-1-1.2-2-1.8-3.1c-0.6-1-0.9-2.1-0.9-3.4c0-1.2,0.4-2.5,1.3-4c0.9-1.4,2-2.7,3.3-3.9c1.3-1.2,2.8-2.2,4.4-3
			c1.6-0.8,3.1-1.2,4.7-1.2c1.6,0,2.4,0.5,2.4,1.5c-0.3,0.5-0.6,1.1-0.9,1.8C498.8,68.7,498.5,69.3,498.3,69.8z"/>
	</g>
	<g>
		<path class="st0" d="M288.1,150.5h-1.5c-2.7,0-4.7-1-6.1-3.1c-0.6-0.9-1.2-2.8-2-5.9c-0.5-2-1.2-3.1-2.2-3.1
			c-1.8,0-3.8,1.5-5.8,4.7c-1.8,2.9-3.4,6-5.1,8.9c-1.9,3.2-3.6,4.7-5,4.7c-2.3,0-4.5-2.2-6.4-6.6c-1.6-3.7-2.4-7-2.4-9.7
			c0-3.8,0.7-7.3,2.3-10.7c1.8-3.9,4.2-6.4,7.4-7.3c0.7-0.1,1.5-0.2,2.7-0.3c0.8-0.1,2-0.1,3.3,0c1.6,0.1,2.6,0.1,2.8,0.1
			c3.1,0,5.5-0.5,7.1-1.5v0.4c-1.6,1.7-4.7,2.6-9.2,2.8c-5,0.3-8.3,1-9.9,2c-3.1,1.8-4.7,5.6-4.7,11.4c0,2.7,0.7,5.5,2,8.3
			c1.5,3.4,3.4,5.3,5.8,5.7c1.5-0.8,3.3-2.8,5.3-6.1c3.4-5.3,5-8,5.1-8c2-2.7,3.9-4,5.7-4c1.5,0,2.6,1,3.2,3.1c0.6,2,1.1,4,1.7,6
			c0.9,2.2,2.4,3.3,4.5,3.3h3.1C289.5,147.3,288.9,148.9,288.1,150.5z M278.3,118.5c-0.6-0.2-1.2-0.7-2-1.4
			c-0.6-0.6-1.2-1.2-1.8-1.7c-0.5,0.2-1.1,0.8-1.8,1.7c-0.7,0.9-1.2,1.5-1.8,1.7c-0.3-0.1-0.9-0.7-2-1.6c-1-1-1.6-1.7-1.8-2
			c0.7-0.8,1.9-1.9,3.7-3.2c0.8,0.6,2,1.5,3.7,2.6c0.4-0.1,0.9-0.7,1.8-1.5c0.8-0.8,1.5-1.2,2-1.2c0.4,0,1,0.5,1.9,1.5
			c0.9,1,1.4,1.8,1.4,2.1C280.8,116.1,279.7,117.1,278.3,118.5z"/>
		<path class="st0" d="M319.1,142.1c-3.1-0.1-7,0.9-11.5,2.7c-5.9,2.4-9.6,3.8-11.1,4.2c-0.9,2.6-1.5,5-1.8,7.4h-0.6
			c0,0.3,0.1-1.9,0.2-6.5c-0.4,0-1.2,0.1-2.5,0.4c-1.2,0.2-2.2,0.4-2.8,0.4h-2.8c0-0.9,0.2-1.8,0.7-2.6c0.4-0.7,0.8-1.5,1.2-2.2h1.1
			c0.8,0,2.8-0.4,6.1-1.2c1.5-4.1,2.8-7,3.8-8.7c2.1-3.6,4.4-5.4,6.9-5.4c1.8,0,3.9,1.2,6.5,3.5c2.5,2.3,4.8,3.5,7,3.5
			c0.4,0,0.9,0,1.2-0.1C320.8,138.8,320.2,140.3,319.1,142.1z M304.4,135.6c-1.7,0-3.2,1.1-4.6,3.1c-1.1,1.6-1.8,3.4-2.3,5.3
			c4.7-1.3,9-3,12.7-5C308.1,136.7,306.2,135.6,304.4,135.6z"/>
		<path class="st0" d="M337.1,150.5h-1.8c-3.5,0-5.8-1.3-6.9-4c-0.7-1.8-1.1-4.7-1.1-8.8v-24c0,0,1-1.1,3.1-3.4v24.3
			c0,3.7,0.3,6.4,0.8,7.8c0.8,2.3,2.5,3.4,4.9,3.4h2.6C338.4,147.5,337.9,149,337.1,150.5z"/>
		<path class="st0" d="M360.7,148.6c-0.6,1.3-0.9,2-1,2h-4.1c-3.1,0-5.1-1.8-6.2-5.3c-2.3,3.6-5.9,5.3-10.7,5.3H336
			c-0.1-1.5,0.2-3.1,0.9-4.7h3.7c2.2,0,3.9-0.3,4.9-0.8c0.7-0.4,1.5-1.1,2.3-2.1c1.1-1.4,2.1-2.4,3.1-3.1c0.4,0.2,0.7,0.9,1.1,2.1
			c0.4,1.2,0.9,2,1.5,2.6c0.9,0.9,2.4,1.4,4.4,1.4h3.6C361.6,146.3,361.3,147.3,360.7,148.6z M352,165.1c-0.8-0.6-2-1.5-3.6-2.6
			c-0.4,0.1-1,0.6-1.8,1.5c-0.9,0.9-1.5,1.3-1.9,1.3c-0.3,0-0.9-0.4-1.7-1.2c-0.6-0.7-1.2-1.2-1.8-1.8v-0.6c0.8-0.7,2-1.7,3.4-3.1
			c0.5,0.2,1.2,0.7,1.9,1.4c0.6,0.6,1.2,1.1,1.8,1.7c0.3-0.1,0.9-0.7,1.8-1.7c0.7-0.8,1.3-1.2,1.8-1.2c0.2,0,0.9,0.4,1.8,1.3
			c1,0.9,1.6,1.5,1.8,1.8C354.9,162.6,353.6,163.7,352,165.1z"/>
		<path class="st0" d="M369.6,150.5h-11.2c0-0.7,0.1-1.5,0.4-2.5c0.3-0.8,0.6-1.5,0.9-2.3c2.6,0,4.3-0.4,5-1
			c0.2-0.2,0.7-1.1,1.5-2.7c0.7-1.4,1.2-2,1.5-1.8c0.1,0.1,0.2,0.2,0.2,0.4c0,0.5-0.2,1.3-0.7,2.5c-0.4,1.2-0.7,2-0.7,2.3
			c0.1,0.1,0.6,0.3,1.5,0.3h2.6C370.4,146.9,370.1,148.5,369.6,150.5z"/>
		<path class="st0" d="M384.8,150.5h-1.9c-1.4,0-2.3-0.4-2.8-1.2l-2.1,1.2c-2.5,0-4-0.1-4.7-0.4c-0.7,0.3-1.7,0.4-3.1,0.4
			c-0.2,0-0.6,0-1.1,0c-0.6,0-1,0-1.2,0c0.2-1.2,0.8-2.8,1.7-4.7h1.2c1.5,0,2.6-0.5,3.5-1.3c0.4-0.4,0.8-1.1,1.4-2.3
			c0.4-0.9,0.9-1.3,1.4-1.4c0.1,0.1,0.1,0.4,0.1,0.6c0,0.4-0.2,1.1-0.7,2.1c-0.4,1.2-0.7,2-0.8,2.3h0.8c0.9,0,1.7-0.2,2.4-0.7
			c0.4-0.2,0.7-1.1,1.2-2.4c0.5-1.2,1-2,1.6-2.1c0.4,0.1,0.4,0.4,0,0.9c-0.7,1.3-0.9,2.4-0.9,3.4c0,0.7,0.4,1,1.2,1h4.1
			C386.2,147.7,385.8,149.2,384.8,150.5z"/>
		<path class="st0" d="M400.6,150.5c-1.9,0-3.1-0.1-3.8-0.3c-1.5-0.4-2.5-1.3-2.9-2.8c-0.3-0.7-0.5-1.1-0.7-1.1
			c-0.2,0-0.6,0.4-1.2,1.1c-1.5,2-3.7,3.1-6.8,3.1h-1.8c-0.2-2.3,0.2-3.9,1.4-4.7h1.8c1.2,0,2.5-0.3,3.7-0.7
			c1.7-0.5,2.5-1.3,2.5-2.2c0-13.6-0.4-22.6-1-27.2c0.7-1.2,1.8-3,3.5-5.3h0.4v28.5c0,4.5,1.6,6.9,4.7,6.9h1.8
			C401.8,146.9,401.4,148.5,400.6,150.5z"/>
		<path class="st0" d="M413.1,133.3c0,4.7-0.8,8.6-2.6,11.8c-2,3.7-5,5.5-9,5.5h-2.3c0-1.2,0.1-2.2,0.5-3.1c0.2-0.6,0.4-1.2,0.7-1.7
			h1.7c2.8,0,5.1-1,6.6-2.9c1.4-1.8,2-4.1,2-6.9c0-1.1-0.1-2.2-0.4-3.3c-0.4-2.3-1.1-5-2.2-8.2c-0.9-2.7-1.8-5.3-2.7-8
			c-0.4,0.8-0.6,2-0.6,3.7c0,1.2,0.1,3.5,0.5,6.7c0.4,3.3,0.5,5.6,0.5,7.2c0,1.4-0.1,2.6-0.3,3.6l-0.4,0.1c-1-6.6-1.5-11.8-1.5-15.5
			c0-5,0.7-9.5,2.2-13.4c0.9,0.3,2.2,3.1,3.9,8.5c1.5,4.6,2.3,8,2.7,10.1C413,129.4,413.1,131.3,413.1,133.3z"/>
		<path class="st0" d="M448.2,150.5h-1.8c-3.5,0-5.8-1.3-6.9-4c-0.7-1.8-1.1-4.7-1.1-8.8v-24c0,0,1-1.1,3.1-3.4v24.3
			c0,3.7,0.3,6.4,0.8,7.8c0.8,2.3,2.5,3.4,4.9,3.4h2.6C449.5,147.5,449,149,448.2,150.5z"/>
		<path class="st0" d="M454.5,150.5h-8l1.7-4.7h8.7L454.5,150.5z"/>
		<path class="st0" d="M460.8,150.5h-8l1.7-4.7h8.7L460.8,150.5z"/>
		<path class="st0" d="M467.2,150.5h-8l1.7-4.7h8.7L467.2,150.5z"/>
		<path class="st0" d="M494.4,134.1c-0.4,0.1-2.6,0.5-6.5,1.2c-2.6,0.4-4.5,1.4-5.6,3.1c0.7,0.6,1.8,0.9,3,0.9
			c1.2,0,2.6-0.3,4.2-0.7v0.4c0,0.9-0.2,2-0.9,3.1c-0.6,0.9-1.2,1.8-1.8,2.7c-0.9-0.1-2-0.3-2.9-0.3c-2.6,0-5.3,1-8.2,3.1
			c-2.9,2-5.6,3.1-8.1,3.1h-2c-0.1-0.1-0.1-0.4-0.1-0.6c0-0.5,0.3-1.2,0.7-2.3c0.4-0.7,0.7-1.3,0.9-1.9h4.1c2.1,0,4.1-0.9,5.8-2.5
			c1-0.9,2.4-2.8,4.2-5.3c1.7-2.6,3.1-4.3,4.2-5.3c1.4-1.2,3.9-1.9,7.6-2.3c3.1-0.2,5.2-1.2,6.1-3.1c0.1-0.1,0.3-0.1,0.4-0.1
			c0.4,0,0.5,0.4,0.2,1.1C498.6,131.3,496.8,133.2,494.4,134.1z M491.6,121.6c-0.7,0.8-1.4,1.2-2,1.4c0-0.1-0.6-0.7-1.6-1.8
			c-0.9-0.9-1.5-1.5-1.5-1.7c0-0.2,0.5-0.8,1.5-1.7c1-0.9,1.7-1.5,2.1-1.7c0.7,0.6,1.3,1.1,2,1.8c0.8,0.7,1.2,1.5,1.2,2.2
			C492.9,120.3,492.4,120.8,491.6,121.6z"/>
	</g>
</g>
</svg>
