<?xml version="1.0" encoding="utf-8"?>
<!-- Generator: Adobe Illustrator 26.0.1, SVG Export Plug-In . SVG Version: 6.00 Build 0)  -->
<svg version="1.1" id="Layer_1" xmlns="http://www.w3.org/2000/svg" xmlns:xlink="http://www.w3.org/1999/xlink" x="0px" y="0px"
	 viewBox="0 0 500 486" style="enable-background:new 0 0 500 486;" xml:space="preserve">
<style type="text/css">
	.st0{fill-rule:evenodd;clip-rule:evenodd;fill:#13017C;}
	.st1{fill-rule:evenodd;clip-rule:evenodd;fill:#0A51A1;}
</style>
<g>
	<path class="st0" d="M254.8,80.3c91.7,0,167.2,71.8,173.4,162.2l-3.4,1.3c-69.3,44.3-104.5,5.9-104.5,5.9l-50.7-36.5
		c-53.9-41.7-94.9-13.7-94.9-13.7l-34,16.3c0,0-38.6,22.4-59.6,33.8C83.7,155.9,160.7,80.3,254.8,80.3L254.8,80.3z M361.4,200.1
		c10.6,0,19.2,8.8,19.2,19.5c0,10.8-8.6,19.5-19.2,19.5c-10.6,0-19.2-8.8-19.2-19.5C342.2,208.9,350.8,200.1,361.4,200.1
		L361.4,200.1z"/>
	<path class="st0" d="M254.4,427.9c-91.7,0-167.2-71.8-173.4-162.2l3.4-1.3c69.3-44.3,104.5-5.9,104.5-5.9l50.7,36.5
		c53.9,41.7,94.9,13.7,94.9,13.7l34-16.3c0,0,38.6-22.4,59.6-33.8C425.5,352.3,348.5,427.9,254.4,427.9L254.4,427.9z"/>
	<path class="st1" d="M6.9,193c0.8,0.9,2,2.7,3.6,5.2l-5.1,3l2.9,4.8c-1.4,1.1-3.2,2.1-5.2,3c-0.8-1.1-1.8-2.8-3.1-4.9l5-3
		c-1.3-2.1-2.2-3.8-2.8-4.9C3.3,195.4,4.9,194.4,6.9,193L6.9,193z M496.3,206.3c-1.2-0.6-3.1-1.7-5.8-3.4l3.6-6.3l5.9,3.5
		L496.3,206.3L496.3,206.3z M453.1,227.4c-8.7-35-12.6-47.1-27.7-77.6l-1.5-2.2c-2.2-3.4-1.7-7,1.5-10.8c2.1-2.5,9.9-8.2,23.4-17
		c3.5-2.3,5.7-3.9,6.7-5c1.3,0.2,4,1,8.2,2.5c-13.2,8.9-20.1,13.5-20.9,14c-1.9,1.2-2,3.2-0.3,5.7l0.8,1.3l0.1,0
		c5.6,10.6,14.3,34.6,23.5,38.9c3.3,1.2,6.6,2.5,9.8,3.7c3.6,1.5,5.7,3.4,6.3,5.7c0.5,1.9-1.7,5.4-6.5,10.2
		c-4.8,4.9-7.1,7.8-6.9,8.9l2.4,10.4c0.1,0,0.3,0,0.4,0c1.4-0.3,4-2.6,7.9-6.6c1.9,0.6,4.7,1.6,8.4,2.9c-0.9,1.2-3.3,3-7.1,5.5
		c-3.8,2.5-6.5,3.9-8,4.3L453.1,227.4L453.1,227.4z M459,196.5c1.2-0.3,2.3-1,3.2-2.2c1-1.2,1.3-2.4,1-3.6c-0.7-2.7-3.5-4.7-8.6-6.1
		c0.2,1,0.3,2.5,0.2,4.5c-0.1,2-0.1,3.4,0.2,4.4c0.2,1,0.7,1.8,1.5,2.5C457.2,196.5,458.1,196.7,459,196.5L459,196.5z M406.1,121.8
		l-9.9-11.4l-0.2,0.2l-13.8-12.9l0.2-0.2l-16.8-13.1l-33.2-18.4l-14.1-5.4l-25.4-6.8l5.5-20.6c1.7,0.3,4-0.2,6.9-1.5
		c2.9-1.3,4.5-2.7,4.9-4.3c0.4-1.4-0.2-3.6-1.8-6.7c-1.6-3-3.1-4.7-4.5-5.2c-2.2-2.8-3.1-4.7-2.9-5.6l2-7.4l0.7,0.2
		c5.9,7.8,9.6,15.2,11.3,22.2c0.2-1,0.5-2.9,0.7-5.7c0.2-2.4,0.5-4.3,0.9-5.6c0.3-1.1,2.9-3.1,7.8-6l-5.9,30.8l5.9,1.6l0-0.1
		l0.5,0.2l0.8,0.2l0,0.1l16.4,6.3l0,0.1l5.5,3c1.2-0.1,4.9-1.6,11.2-4.4c5.3-2.4,8.8-3.1,10.4-2.2c2,1.1,2.9,4.3,2.8,9.7
		c-0.1,6,0.5,9.8,1.7,11.4l5,2.8l-0.1,0.2l8.9,6.9l8.8-14.8c2.5-4.2,3.7-6.3,3.7-6.2c0,0,0.2-0.2,0.6-0.6c2.4-0.7,5.2-1.2,8.4-1.8
		l-16.5,27.3c9,7,17.9,15.9,25.6,24.8l12-13.3c3.1-3.4,4.6-5.1,4.5-5.1c0.4-0.3,3.5-0.5,9.1-0.5c-3.4,4-6.8,8.1-10.2,12.1
		c-4.1,4.8-7.8,8.6-11,11.3L406.1,121.8L406.1,121.8z M360.6,65.7c0.6-1,0.7-2.1,0.4-3.2c-0.3-1.1-0.9-1.9-2-2.5
		c-1.1-0.6-2.7-0.6-4.6,0c-1.6,0.6-3.1,1.2-4.6,1.8c3.1,3.3,4.9,5.2,5.5,5.5C357.6,68.5,359.4,68,360.6,65.7L360.6,65.7z M311,46.7
		l0.8-6.7c-0.6,0.7-2.7,2.5-6.4,5.4c0.9,0.4,1.8,0.8,2.7,1l0.6,0.2C309.8,46.9,310.5,46.9,311,46.7L311,46.7z M288.4,52.6l-30.8-3.8
		l0,0.5l-18.9,0.3l0-0.3l-33.2,4.1l-2.6-21.1c-0.3-2.1,1.1-5.6,4-10.6c3-5.2,5.6-7.9,7.7-8.1c2.7-0.3,5.8,1.7,9.3,6.1
		c4.2,5.3,7,8.3,8.3,9l7.3-0.9l0.1,0.5l17.3-0.3l0.1-0.8l21.8,2.7c-2.2-3.9-3.5-6.2-4-6.8c-2-2.7-3.9-4.2-5.9-4.5
		c-1.7-0.2-3.9,1-6.7,3.5c-0.1-0.7-0.1-1-0.1-1c1-8.2,4.5-12,10.4-11.3c2.7,0.3,5.1,2,7.2,5c0.3,0.5,2,3.5,5.1,9
		c2.1,3.7,4.1,6.2,6.2,7.5L288.4,52.6L288.4,52.6z M220.6,3.2c-0.6,1.1-1.8,2.9-3.6,5.2l-4.6-3.7L209,9.2c-1.5-0.9-3.1-2.2-4.7-3.8
		c0.8-1.1,1.9-2.7,3.5-4.7l4.6,3.6c1.5-2,2.8-3.4,3.6-4.3C217.1,0.7,218.6,1.8,220.6,3.2L220.6,3.2z M222.7,40l-0.1-1.1
		c-0.9-1.2-1.8-2.4-2.7-3.7c-1.3-1.4-2.5-2-3.8-1.9c-1.6,0.2-3,1.2-4.2,3c-1,1.6-1.7,3.3-1.8,5.1L222.7,40L222.7,40z M181.4,50
		c-2.6-0.6-4.7-1.9-6.3-3.9c-1.2-1.6-5-11.3-11.6-29c1-2.9,2.4-6.1,4-9.7L181.4,50L181.4,50z M175.3,63.5l-14.9,6.7l-15.5,8.6
		l-0.2-0.4L125,92.1l0.2,0.3l-14.5,12.1l-0.3-0.3l-21.8,25.1l0.3,0.2l-4.7,7.2c2,2.6,3.9,5.1,5.9,7.8c1.7,2.2,2.5,4.3,2.5,6.1
		c-0.1,2.3-1.4,5.4-3.9,9.3c-0.9,1.4-2.8,3.7-5.8,7.1l-0.3-0.4c1.1-3.5,1.2-8.3,0.2-14.2c-1.1-6.5-3-10.6-5.7-12.4
		c-1.7-1.1-4.3-2.4-7.6-3.7c-3.7-1.6-6.4-2.4-7.9-2.4c0,0-2.6,0.1-7.8,0.3l-5-9c4.7-0.8,10.6-0.8,17.5-0.1l4.1-6.3l-0.8-0.7
		l14.6-16.8c-4.8-0.3-7.5-0.4-7.9-0.4c-3.4,0.1-5.7,0.9-7,2.4c-1.3,1.5-1.5,4-0.6,7.4c-0.4-0.1-0.8-0.3-1.2-0.5
		c-3.3-2.9-5.2-5.4-5.6-7.6c-0.5-2.6,0.7-5.4,3.4-8.6c1.4-1.6,6-2,13.9-1.2c7.9,0.7,12.4,0.5,13.5-0.8l3.6-4.1l1.6,1.4l-1-1.2
		L111,76.5l-0.3-0.4l12.6-8.8c0.1,0,0-0.1-0.1-0.3c-0.6-0.8-3.5-2.5-8.8-5.1c-0.3-3.8-0.5-6.7-0.5-8.7c2.3,0.8,4.9,2.3,7.7,4.5
		c2.3,2,4.7,3.9,7,5.8l6.9-4.8l0.4,0.6l14.4-8l0,0l0.5-0.2l0.2-0.1l0,0l9.7-4.3l-9.3-15.3c-2.4-3.9-3.6-5.9-3.5-5.8
		c-0.2-0.5,0.5-3.4,2.2-8.9c2.8,4.5,5.7,8.9,8.6,13.3c3.4,5.3,5.9,10,7.6,13.8L175.3,63.5L175.3,63.5z M143.3,91
		c-0.2,1.5-0.6,3.6-1,6.3c-0.7-0.1-3-0.4-6.6-1.1c0.1-1.3,0.4-3.4,0.9-6.4L143.3,91L143.3,91z M72,157l-10,21.5l-0.1,0l-5,14.6
		l-0.5-0.2l-8.1,32.3L27.7,220c-2-0.5-4.9-3-8.5-7.6c-3.7-4.7-5.3-8-4.8-10.1c0.7-2.6,3.6-4.8,9-6.4c6.4-2,10.2-3.5,11.3-4.5
		l1.8-7.2l0.7,0.2l5.6-16.2l0.3,0.1l6.8-14.7l0.3,0.1c-0.1-0.1-0.2-0.2-0.3-0.3c-0.9-0.4-4.4-0.5-10.3-0.1c-1.1-1.6-2.7-4-4.7-7.3
		c2.1-0.3,5.2-0.3,9.2,0.1c4.2,0.4,7.1,1,8.9,1.8L72,157L72,157z M79.4,163.7c0.8,1.8,1.4,3.7,2,5.8c-0.7,0.3-2.5,1-5.3,2
		c0.8,2.2,1.4,4,1.7,5.2c-0.1,0.3-1,0.7-2.6,1.3c-1.6,0.6-2.6,0.8-2.9,0.7c-0.4-1.1-1.1-2.9-2.2-5.2c0.6-0.3,2.5-1,5.6-2.2l-2.1-5.7
		L79.4,163.7L79.4,163.7z M42,204.2l-1-0.3c-1.5,0.4-2.9,0.8-4.4,1.2c-1.8,0.7-2.8,1.7-3.1,2.9c-0.4,1.6,0.1,3.2,1.3,5
		c1.1,1.6,2.5,2.7,4.1,3.6L42,204.2L42,204.2z"/>
	<g>
		<path class="st1" d="M54.7,263.4l0.7,14.3l-16.9,15.5l0,0.8l17.6-1.7l0.4,8.3l-23.6,2l-0.7-14.1l16.9-15.5l0-0.9l-17.6,1.7
			l-0.4-8.3L54.7,263.4L54.7,263.4z M452.2,322.6l4.5-29.3l5.5,1l-3.2,21.4l3.4,0.6l3.1-20.3l5.1,0.9l-3.1,20.3l3.7,0.7l3.3-21.5
			l5.6,1l-4.5,29.4L452.2,322.6L452.2,322.6z M437.7,359.1l5.1-13.2l21.2-5.2l0.3-0.8l-16.2-7.5l3-7.6l21.7,10.3l-5.1,13.1
			l-21.2,5.3l-0.3,0.8l16.2,7.5l-3,7.6L437.7,359.1L437.7,359.1z M430.4,369.3l4.1-7.3l19.9,14.1l-4.1,7.3L430.4,369.3L430.4,369.3z
			 M412.8,392.8l5-6.5l13.2,13l11.2-14.4l4.5,4.5l-16.3,20.9L412.8,392.8L412.8,392.8z M383.2,432.4l14.1-10
			c0.2,0.3,0.3,0.5,0.4,0.6c1.7,3.2,3,5.7,3.7,7.4c1.2,2.8,0.7,5.3-1.4,7.5c-0.9,1-2,2-3.3,3c-1.3,1-3.3,2.5-6.1,4.4
			c-3.5,2.5-6,4.1-7.6,4.9c-1.6,0.8-2.9,1.2-4.1,1.2c-0.8,0-1.5-0.3-2.2-0.7c-0.7-0.5-1.4-1.2-2.1-2.2c-0.7-0.9-1.8-2.9-3.5-6
			c-1.1-2.1-1.9-3.7-2.4-4.8c-0.5-1.1-0.8-2.2-0.9-3.2c-0.4-2.2,0.3-4.1,2-5.8c1.9-1.9,4.9-4.3,9.2-7.4c2.6-1.8,4.6-3.1,6.2-4.1
			c1.6-0.9,2.9-1.5,4.1-1.9c1.8-0.6,3.4,0,4.7,1.5c0.7,0.8,1.4,2,2.3,3.5l-6.2,4.4c-0.4-0.6-0.6-1-0.8-1.2c-0.2-0.2-0.4-0.3-0.7-0.3
			c-0.5,0-1.3,0.3-2.4,1c-1.1,0.7-2.6,1.7-4.6,3.1c-2.1,1.5-3.6,2.6-4.5,3.4c-0.9,0.8-1.4,1.4-1.5,1.9c-0.2,0.5-0.1,1.2,0.1,2
			c0.3,0.8,0.9,2,1.8,3.7c1,1.9,1.8,3.2,2.4,3.9c0.5,0.7,1,1,1.6,1.1c0.5,0.1,1-0.1,1.6-0.4c0.6-0.3,2.3-1.5,5.2-3.4
			c2.8-2,4.5-3.2,5.1-3.7c0.6-0.5,1-0.9,1.3-1.3c0.2-0.4,0.3-0.7,0.2-1.1c-0.1-0.4-0.3-0.9-0.6-1.6c-0.1-0.1-0.2-0.3-0.4-0.6
			l-8.1,5.7L383.2,432.4L383.2,432.4z M331.6,447.2l11.8-5.4l18,13.2l0.7-0.3l-6.6-18.4l6.8-3.1l8.6,24.8l-11.7,5.4l-18-13.1
			l-0.7,0.3l6.5,18.4l-6.8,3.1L331.6,447.2L331.6,447.2z M319.5,450.5l7.3-2.3l5.8,25.8l-7.3,2.3L319.5,450.5L319.5,450.5z
			 M290.5,483.9l-3.8-26.3l16-3.3c3.2-0.6,5.2-1,6.2-1c2.4-0.1,4.1,0.4,5.1,1.6c1,1.2,1.8,3.5,2.2,6.9c0.5,3.3,0.5,5.6,0,7.1
			c-0.3,1-0.9,1.8-1.6,2.4c-0.8,0.6-1.8,1.2-3.2,1.7c-1,0.3-2.9,0.8-5.7,1.4l-9,1.8l0.9,6.4L290.5,483.9L290.5,483.9z M295.8,469.5
			l8.9-1.8c1.6-0.3,2.6-0.6,3-0.7c0.4-0.1,0.7-0.3,0.9-0.5c0.3-0.3,0.5-0.7,0.6-1.1c0.1-0.5,0-1.2-0.1-2.1c-0.1-0.9-0.3-1.6-0.6-2
			c-0.2-0.4-0.6-0.7-1-0.8c-0.3-0.1-1.6,0.1-3.8,0.5l-8.9,1.8L295.8,469.5L295.8,469.5z M255.1,486l-0.5-26.7l16.2-0.7
			c3.2-0.1,5.3-0.2,6.2-0.1c2.4,0.2,4,1,4.8,2.3c0.8,1.3,1.3,3.7,1.4,7.2c0.1,3.3-0.2,5.6-0.9,7c-0.4,0.9-1.1,1.6-1.9,2.1
			c-0.8,0.5-2,0.9-3.4,1.1c-1,0.2-2.9,0.3-5.8,0.5l-9.1,0.4l0.1,6.5L255.1,486L255.1,486z M262.1,472.5l9-0.4c1.6-0.1,2.6-0.2,3-0.2
			c0.4-0.1,0.7-0.2,1-0.4c0.4-0.2,0.6-0.6,0.7-1c0.1-0.5,0.2-1.2,0.2-2.1c0-1-0.1-1.6-0.3-2.1c-0.2-0.4-0.5-0.7-0.9-0.9
			c-0.3-0.1-1.6-0.2-3.8-0.1l-9,0.4L262.1,472.5L262.1,472.5z M241,458.3l7.6,0.3l-1.1,26.7l-7.6-0.3L241,458.3L241,458.3z
			 M205.7,452.5l7.4,1.4l-1.6,9.4l16,3.1l1.6-9.4l7.4,1.4l-4.4,26.4l-7.4-1.4l1.6-9.6l-16-3.1l-1.6,9.6l-7.4-1.4L205.7,452.5
			L205.7,452.5z M169.4,459l6.6,2.4c-0.4,1.3-0.4,2.1-0.1,2.7c0.3,0.4,0.6,0.7,1.1,0.9c0.5,0.2,2.1,0.9,4.9,1.9
			c2.9,1,4.6,1.6,5.2,1.8c0.6,0.2,1.1,0.3,1.5,0.2c0.6-0.1,1-0.6,1.3-1.6c0.2-0.8,0.2-1.3-0.1-1.7c-0.3-0.4-1-0.8-2-1.2
			c-0.8-0.3-2.6-1-5.3-2.2c-2.7-1.2-4.5-1.9-5.4-2.2c-1.6-0.7-2.8-1.3-3.6-1.9c-0.8-0.6-1.3-1.3-1.6-2.2c-0.5-1.4-0.4-3.4,0.4-6
			c0.9-2.9,1.9-4.7,3.3-5.6c1-0.7,2.3-0.8,3.9-0.5c1.6,0.3,4.7,1.3,9.4,3c3.3,1.2,5.6,2.1,6.8,2.8c2,1.1,3.2,2.2,3.7,3.5
			c0.5,1.3,0.4,3-0.3,5.4c-0.1,0.2-0.2,0.6-0.4,1.2l-6.6-2.4c0.2-0.7,0.3-1.2,0.3-1.5c0-0.3-0.1-0.6-0.3-0.8
			c-0.2-0.3-0.7-0.6-1.4-0.9c-0.7-0.3-2.3-0.9-4.7-1.8c-2.9-1.1-4.7-1.6-5.4-1.6c-0.7,0-1.2,0.4-1.5,1.4c-0.3,0.9-0.1,1.6,0.5,2
			c0.5,0.4,2.8,1.4,7.1,3.1c3.6,1.4,6,2.5,7.1,3.1c1.2,0.6,2,1.3,2.6,2c0.7,0.9,1,1.8,1,2.9c0,1.1-0.2,2.6-0.7,4.4
			c-0.7,2.4-1.5,4.1-2.5,5.1c-0.7,0.7-1.5,1.1-2.4,1.3c-0.9,0.1-2,0-3.5-0.3c-1.5-0.4-4.3-1.3-8.3-2.8c-3.4-1.2-5.8-2.2-7.4-3
			c-1.6-0.8-2.7-1.6-3.3-2.4c-0.7-0.9-1-1.8-1.1-2.8c-0.1-1,0.2-2.4,0.7-4.3L169.4,459L169.4,459z M131.1,449.4l0.5-5.1l-13.2-9.3
			l-3.9,2.6l-6.9-4.9l23.4-15.3l9.4,6.7l-2.4,30.1L131.1,449.4L131.1,449.4z M132.3,437.8l1-11.3l-1.2-0.9l-8.7,5.9L132.3,437.8
			L132.3,437.8z M90.3,378.7l9.4,10l-5.6,18.2l15.7-7.4l9.4,10l-16.4,19.7l-5.1-5.5l12.4-14.6l-0.9-0.9L90.6,416l-4.3-4.6l5.8-21.6
			l-0.9-1L79,403.8l-5.1-5.5L90.3,378.7L90.3,378.7z M67.4,338.9l7,12.4l-9.2,16.2l16.8-2.9l6.9,12.3l-20,14.7l-3.8-6.7L80.1,374
			l-0.6-1.1l-19.8,2.5l-3.2-5.7l10.2-19.4l-0.7-1.2l-14.9,11.2l-3.8-6.7L67.4,338.9L67.4,338.9z M42.5,339l3.2-3.6l-4.6-16.8
			l-4.4-0.8l-2.4-8.8l26.3,5.1l3.3,12l-18.9,21.7L42.5,339L42.5,339z M49.9,330.9l7.2-8.1l-0.4-1.5l-9.9-1.7L49.9,330.9L49.9,330.9z
			"/>
		<path class="st1" d="M473.8,289.2l0.6-7c1.3,0,2.2-0.2,2.6-0.6c0.3-0.3,0.5-0.8,0.6-1.3c0.1-0.5,0.3-2.3,0.5-5.2
			c0.2-3.1,0.4-4.9,0.4-5.5c0-0.6,0-1.1-0.2-1.5c-0.2-0.5-0.8-0.8-1.9-0.9c-0.8,0-1.3,0.2-1.6,0.5c-0.3,0.4-0.5,1.1-0.6,2.3
			c-0.1,0.9-0.3,2.8-0.7,5.7c-0.4,3-0.7,4.9-0.8,5.8c-0.2,1.7-0.5,3.1-0.9,4c-0.4,0.9-0.9,1.6-1.7,2.1c-1.2,0.9-3.2,1.3-5.8,1.2
			c-3-0.1-5.1-0.6-6.2-1.7c-0.9-0.8-1.4-2-1.5-3.6c-0.1-1.6,0-4.9,0.4-9.9c0.3-3.5,0.6-5.9,0.9-7.4c0.5-2.2,1.3-3.7,2.4-4.4
			c1.1-0.8,2.8-1.1,5.3-1.1c0.2,0,0.6,0,1.2,0.1l-0.6,7c-0.7,0-1.3,0-1.5,0.1c-0.3,0.1-0.5,0.2-0.7,0.5c-0.2,0.3-0.4,0.9-0.5,1.6
			c-0.1,0.8-0.3,2.5-0.5,5c-0.3,3.1-0.3,5-0.2,5.6c0.2,0.7,0.7,1,1.7,1.1c0.9,0,1.5-0.3,1.8-1c0.2-0.6,0.6-3.1,1.1-7.7
			c0.4-3.8,0.8-6.4,1.1-7.7c0.3-1.3,0.7-2.3,1.3-3.1c0.7-0.9,1.5-1.5,2.6-1.8c1.1-0.3,2.5-0.5,4.4-0.4c2.5,0.1,4.3,0.4,5.5,1
			c0.9,0.5,1.5,1.1,1.8,1.9c0.4,0.8,0.6,2,0.6,3.4c0,1.6-0.1,4.5-0.5,8.8c-0.3,3.6-0.6,6.2-1,7.9c-0.3,1.7-0.8,3-1.4,3.8
			c-0.6,0.9-1.4,1.5-2.4,1.8c-1,0.3-2.4,0.5-4.3,0.4L473.8,289.2L473.8,289.2z"/>
	</g>
</g>
</svg>
