<?xml version="1.0" encoding="utf-8"?>
<!-- Generator: Adobe Illustrator 26.0.1, SVG Export Plug-In . SVG Version: 6.00 Build 0)  -->
<svg version="1.1" id="Layer_1" xmlns="http://www.w3.org/2000/svg" xmlns:xlink="http://www.w3.org/1999/xlink" x="0px" y="0px"
	 viewBox="0 0 500 167.7" style="enable-background:new 0 0 500 167.7;" xml:space="preserve">
<style type="text/css">
	.st0{fill:none;}
	.st1{fill:#F9B63E;}
	.st2{fill:#FFFFFF;}
	.st3{fill:#515051;}
	.st4{fill:#A3A9AA;}
	.st5{fill:#515759;}
	.st6{fill:#209BBB;}
	.st7{opacity:0.2;}
	.st8{fill:#F41631;}
	.st9{fill:#FFFC01;}
	.st10{fill:#239440;}
	.st11{opacity:0.7;}
</style>
<pattern  x="-189.6" y="416.1" width="69" height="69" patternUnits="userSpaceOnUse" id="Polka_Dot_Pattern" viewBox="2.1 -70.9 69 69" style="overflow:visible;">
	<g>
		<rect x="2.1" y="-70.9" class="st0" width="69" height="69"/>
		<rect x="2.1" y="-70.9" class="st1" width="69" height="69"/>
		<g>
			<path class="st2" d="M61.8-71.7c0,0.1,0,0.1,0,0.2c-0.1,0.1-0.1,0.1-0.2,0.1c-0.1,0.1-0.1,0.3-0.1,0.4c-0.2,0.1,0,0.2,0,0.3
				c0,0,0,0.1,0,0.2c0,0.1,0,0.3,0.1,0.4c0.1,0.2,0.3,0.4,0.4,0.5c0.2,0.1,0.4,0.6,0.6,0.6c0.2,0,0.4-0.1,0.5-0.1
				c0.2,0,0.4,0,0.6-0.1c0.2-0.1,0.1-0.3,0.3-0.5c0.1-0.1,0.3,0,0.4-0.1c0.2-0.1,0.3-0.3,0.4-0.5c0-0.1,0-0.1,0-0.2
				c0-0.1,0.1-0.2,0.1-0.3c0-0.1-0.1-0.1-0.1-0.2c0-0.1,0-0.2,0-0.3c0-0.2,0-0.4-0.1-0.5c-0.4-0.7-1.2-0.9-2-0.8
				c-0.2,0-0.3,0.1-0.4,0.2c-0.2,0.1-0.1,0.2-0.3,0.2c-0.1,0-0.2,0.1-0.2,0.2C61.8-71.7,61.8-71.7,61.8-71.7
				C61.8-71.6,61.8-71.6,61.8-71.7"/>
			<path class="st2" d="M54.1-71.7c0,0.1,0,0.1,0,0.2c-0.1,0.1-0.1,0.1-0.2,0.1c-0.1,0.1-0.1,0.3-0.1,0.4c-0.2,0.1,0,0.2,0,0.3
				c0,0,0,0.1,0,0.2c0,0.1,0,0.3,0.1,0.4c0.1,0.2,0.3,0.4,0.4,0.5c0.2,0.1,0.4,0.6,0.6,0.6c0.2,0,0.4-0.1,0.5-0.1
				c0.2,0,0.4,0,0.6-0.1c0.2-0.1,0.1-0.3,0.3-0.5c0.1-0.1,0.3,0,0.4-0.1c0.2-0.1,0.3-0.3,0.4-0.5c0-0.1,0-0.1,0-0.2
				c0-0.1,0.1-0.2,0.1-0.3c0-0.1-0.1-0.1-0.1-0.2c0-0.1,0-0.2,0-0.3c0-0.2,0-0.4-0.1-0.5c-0.4-0.7-1.2-0.9-2-0.8
				c-0.2,0-0.3,0.1-0.4,0.2c-0.2,0.1-0.1,0.2-0.3,0.2c-0.1,0-0.2,0.1-0.2,0.2C54.1-71.7,54.1-71.7,54.1-71.7
				C54.1-71.6,54.1-71.6,54.1-71.7"/>
			<path class="st2" d="M46.4-71.7c0,0.1,0,0.1,0,0.2c-0.1,0.1-0.1,0.1-0.2,0.1c-0.1,0.1-0.1,0.3-0.1,0.4c-0.2,0.1,0,0.2,0,0.3
				c0,0,0,0.1,0,0.2c0,0.1,0,0.3,0.1,0.4c0.1,0.2,0.3,0.4,0.4,0.5c0.2,0.1,0.4,0.6,0.6,0.6c0.2,0,0.4-0.1,0.5-0.1
				c0.2,0,0.4,0,0.6-0.1c0.2-0.1,0.1-0.3,0.3-0.5c0.1-0.1,0.3,0,0.4-0.1c0.2-0.1,0.3-0.3,0.4-0.5c0-0.1,0-0.1,0-0.2
				c0-0.1,0.1-0.2,0.1-0.3c0-0.1-0.1-0.1-0.1-0.2c0-0.1,0-0.2,0-0.3c0-0.2,0-0.4-0.1-0.5c-0.4-0.7-1.2-0.9-2-0.8
				c-0.2,0-0.3,0.1-0.4,0.2c-0.2,0.1-0.1,0.2-0.3,0.2c-0.1,0-0.2,0.1-0.2,0.2C46.4-71.7,46.4-71.7,46.4-71.7
				C46.4-71.6,46.4-71.6,46.4-71.7"/>
			<path class="st2" d="M38.8-71.7c0,0.1,0,0.1,0,0.2c-0.1,0.1-0.1,0.1-0.2,0.1c-0.1,0.1-0.1,0.3-0.1,0.4c-0.2,0.1,0,0.2,0,0.3
				c0,0,0,0.1,0,0.2c0,0.1,0,0.3,0.1,0.4c0.1,0.2,0.3,0.4,0.4,0.5c0.2,0.1,0.4,0.6,0.6,0.6c0.2,0,0.4-0.1,0.5-0.1
				c0.2,0,0.4,0,0.6-0.1c0.2-0.1,0.1-0.3,0.3-0.5c0.1-0.1,0.3,0,0.4-0.1c0.2-0.1,0.3-0.3,0.4-0.5c0-0.1,0-0.1,0-0.2
				c0-0.1,0.1-0.2,0.1-0.3c0-0.1-0.1-0.1-0.1-0.2c0-0.1,0-0.2,0-0.3c0-0.2,0-0.4-0.1-0.5c-0.4-0.7-1.2-0.9-2-0.8
				c-0.2,0-0.3,0.1-0.4,0.2c-0.2,0.1-0.1,0.2-0.3,0.2c-0.1,0-0.2,0.1-0.2,0.2C38.8-71.7,38.8-71.7,38.8-71.7
				C38.8-71.6,38.8-71.6,38.8-71.7"/>
			<path class="st2" d="M31.1-71.7c0,0.1,0,0.1,0,0.2c-0.1,0.1-0.1,0.1-0.2,0.1c-0.1,0.1-0.1,0.3-0.1,0.4c-0.2,0.1,0,0.2,0,0.3
				c0,0,0,0.1,0,0.2c0,0.1,0,0.3,0.1,0.4c0.1,0.2,0.3,0.4,0.4,0.5c0.2,0.1,0.4,0.6,0.6,0.6c0.2,0,0.4-0.1,0.5-0.1
				c0.2,0,0.4,0,0.6-0.1c0.2-0.1,0.1-0.3,0.3-0.5c0.1-0.1,0.3,0,0.4-0.1c0.2-0.1,0.3-0.3,0.4-0.5c0-0.1,0-0.1,0-0.2
				c0-0.1,0.1-0.2,0.1-0.3c0-0.1-0.1-0.1-0.1-0.2c0-0.1,0-0.2,0-0.3c0-0.2,0-0.4-0.1-0.5c-0.4-0.7-1.2-0.9-2-0.8
				c-0.2,0-0.3,0.1-0.4,0.2c-0.2,0.1-0.1,0.2-0.3,0.2c-0.1,0-0.2,0.1-0.2,0.2C31.1-71.7,31.1-71.7,31.1-71.7
				C31.1-71.6,31.1-71.6,31.1-71.7"/>
			<path class="st2" d="M23.4-71.7c0,0.1,0,0.1,0,0.2c-0.1,0.1-0.1,0.1-0.2,0.1c-0.1,0.1-0.1,0.3-0.1,0.4c-0.2,0.1,0,0.2,0,0.3
				c0,0,0,0.1,0,0.2c0,0.1,0,0.3,0.1,0.4c0.1,0.2,0.3,0.4,0.4,0.5c0.2,0.1,0.4,0.6,0.6,0.6c0.2,0,0.4-0.1,0.5-0.1
				c0.2,0,0.4,0,0.6-0.1c0.2-0.1,0.1-0.3,0.3-0.5c0.1-0.1,0.3,0,0.4-0.1c0.2-0.1,0.3-0.3,0.4-0.5c0-0.1,0-0.1,0-0.2
				c0-0.1,0.1-0.2,0.1-0.3c0-0.1-0.1-0.1-0.1-0.2c0-0.1,0-0.2,0-0.3c0-0.2,0-0.4-0.1-0.5c-0.4-0.7-1.2-0.9-2-0.8
				c-0.2,0-0.3,0.1-0.4,0.2c-0.2,0.1-0.1,0.2-0.3,0.2c-0.1,0-0.2,0.1-0.2,0.2C23.4-71.7,23.4-71.7,23.4-71.7
				C23.4-71.6,23.4-71.6,23.4-71.7"/>
			<path class="st2" d="M15.8-71.7c0,0.1,0,0.1,0,0.2c-0.1,0.1-0.1,0.1-0.2,0.1c-0.1,0.1-0.1,0.3-0.1,0.4c-0.2,0.1,0,0.2,0,0.3
				c0,0,0,0.1,0,0.2c0,0.1,0,0.3,0.1,0.4c0.1,0.2,0.3,0.4,0.4,0.5c0.2,0.1,0.4,0.6,0.6,0.6c0.2,0,0.4-0.1,0.5-0.1
				c0.2,0,0.4,0,0.6-0.1c0.2-0.1,0.1-0.3,0.3-0.5c0.1-0.1,0.3,0,0.4-0.1c0.2-0.1,0.3-0.3,0.4-0.5c0-0.1,0-0.1,0-0.2
				c0-0.1,0.1-0.2,0.1-0.3c0-0.1-0.1-0.1-0.1-0.2c0-0.1,0-0.2,0-0.3c0-0.2,0-0.4-0.1-0.5c-0.4-0.7-1.2-0.9-2-0.8
				c-0.2,0-0.3,0.1-0.4,0.2c-0.2,0.1-0.1,0.2-0.3,0.2c-0.1,0-0.2,0.1-0.2,0.2C15.8-71.7,15.8-71.7,15.8-71.7
				C15.8-71.6,15.8-71.6,15.8-71.7"/>
			<path class="st2" d="M8.1-71.7c0,0.1,0,0.1,0,0.2C8-71.4,8-71.4,7.9-71.3c-0.1,0.1-0.1,0.3-0.1,0.4c-0.2,0.1,0,0.2,0,0.3
				c0,0,0,0.1,0,0.2c0,0.1,0,0.3,0.1,0.4c0.1,0.2,0.3,0.4,0.4,0.5c0.2,0.1,0.4,0.6,0.6,0.6c0.2,0,0.4-0.1,0.5-0.1
				c0.2,0,0.4,0,0.6-0.1c0.2-0.1,0.1-0.3,0.3-0.5c0.1-0.1,0.3,0,0.4-0.1c0.2-0.1,0.3-0.3,0.4-0.5c0-0.1,0-0.1,0-0.2
				c0-0.1,0.1-0.2,0.1-0.3c0-0.1-0.1-0.1-0.1-0.2c0-0.1,0-0.2,0-0.3c0-0.2,0-0.4-0.1-0.5c-0.4-0.7-1.2-0.9-2-0.8
				c-0.2,0-0.3,0.1-0.4,0.2c-0.2,0.1-0.1,0.2-0.3,0.2c-0.1,0-0.2,0.1-0.2,0.2C8.1-71.7,8.1-71.7,8.1-71.7
				C8.1-71.6,8.1-71.6,8.1-71.7"/>
			<path class="st2" d="M0.4-71.7c0,0.1,0,0.1,0,0.2c-0.1,0.1-0.1,0.1-0.2,0.1c-0.1,0.1-0.1,0.3-0.1,0.4c-0.2,0.1,0,0.2,0,0.3
				c0,0,0,0.1,0,0.2c0,0.1,0,0.3,0.1,0.4c0.1,0.2,0.3,0.4,0.4,0.5C0.8-69.4,1-69,1.2-68.9c0.2,0,0.4-0.1,0.5-0.1
				c0.2,0,0.4,0,0.6-0.1c0.2-0.1,0.1-0.3,0.3-0.5c0.1-0.1,0.3,0,0.4-0.1c0.2-0.1,0.3-0.3,0.4-0.5c0-0.1,0-0.1,0-0.2
				c0-0.1,0.1-0.2,0.1-0.3c0-0.1-0.1-0.1-0.1-0.2c0-0.1,0-0.2,0-0.3c0-0.2,0-0.4-0.1-0.5c-0.4-0.7-1.2-0.9-2-0.8
				c-0.2,0-0.3,0.1-0.4,0.2c-0.2,0.1-0.1,0.2-0.3,0.2c-0.1,0-0.2,0.1-0.2,0.2C0.4-71.7,0.4-71.7,0.4-71.7
				C0.4-71.6,0.4-71.6,0.4-71.7"/>
		</g>
		<g>
			<path class="st2" d="M69.4-71.7c0,0.1,0,0.1,0,0.2c-0.1,0.1-0.1,0.1-0.2,0.1c-0.1,0.1-0.1,0.3-0.1,0.4c-0.2,0.1,0,0.2,0,0.3
				c0,0,0,0.1,0,0.2c0,0.1,0,0.3,0.1,0.4c0.1,0.2,0.3,0.4,0.4,0.5c0.2,0.1,0.4,0.6,0.6,0.6c0.2,0,0.4-0.1,0.5-0.1
				c0.2,0,0.4,0,0.6-0.1c0.2-0.1,0.1-0.3,0.3-0.5c0.1-0.1,0.3,0,0.4-0.1c0.2-0.1,0.3-0.3,0.4-0.5c0-0.1,0-0.1,0-0.2
				c0-0.1,0.1-0.2,0.1-0.3c0-0.1-0.1-0.1-0.1-0.2c0-0.1,0-0.2,0-0.3c0-0.2,0-0.4-0.1-0.5c-0.4-0.7-1.2-0.9-2-0.8
				c-0.2,0-0.3,0.1-0.4,0.2c-0.2,0.1-0.1,0.2-0.3,0.2c-0.1,0-0.2,0.1-0.2,0.2C69.4-71.7,69.4-71.7,69.4-71.7
				C69.4-71.6,69.4-71.6,69.4-71.7"/>
		</g>
		<path class="st2" d="M0.5-71.7c0,0.1,0,0.1,0,0.2c-0.1,0.1-0.1,0.1-0.2,0.1c-0.1,0.1-0.1,0.3-0.1,0.4c-0.2,0.1,0,0.2,0,0.3
			c0,0,0,0.1,0,0.2c0,0.1,0,0.3,0.1,0.4c0.1,0.2,0.3,0.4,0.4,0.5C0.9-69.4,1-69,1.3-68.9c0.2,0,0.4-0.1,0.5-0.1c0.2,0,0.4,0,0.6-0.1
			c0.2-0.1,0.1-0.3,0.3-0.5c0.1-0.1,0.3,0,0.4-0.1c0.2-0.1,0.3-0.3,0.4-0.5c0-0.1,0-0.1,0-0.2c0-0.1,0.1-0.2,0.1-0.3
			c0-0.1-0.1-0.1-0.1-0.2c0-0.1,0-0.2,0-0.3c0-0.2,0-0.4-0.1-0.5c-0.4-0.7-1.2-0.9-2-0.8c-0.2,0-0.3,0.1-0.4,0.2
			c-0.2,0.1-0.1,0.2-0.3,0.2c-0.1,0-0.2,0.1-0.2,0.2C0.5-71.7,0.5-71.7,0.5-71.7C0.5-71.6,0.5-71.6,0.5-71.7"/>
		<g>
			<g>
				<path class="st2" d="M69.4-64c0,0.1,0,0.1,0,0.2c-0.1,0.1-0.1,0.1-0.2,0.1c-0.1,0.1-0.1,0.3-0.1,0.4c-0.2,0.1,0,0.2,0,0.3
					c0,0,0,0.1,0,0.2c0,0.1,0,0.3,0.1,0.4c0.1,0.2,0.3,0.4,0.4,0.5c0.2,0.1,0.4,0.6,0.6,0.6c0.2,0,0.4-0.1,0.5-0.1
					c0.2,0,0.4,0,0.6-0.1c0.2-0.1,0.1-0.3,0.3-0.5c0.1-0.1,0.3,0,0.4-0.1c0.2-0.1,0.3-0.3,0.4-0.5c0-0.1,0-0.1,0-0.2
					c0-0.1,0.1-0.2,0.1-0.3c0-0.1-0.1-0.1-0.1-0.2c0-0.1,0-0.2,0-0.3c0-0.2,0-0.4-0.1-0.5c-0.4-0.7-1.2-0.9-2-0.8
					c-0.2,0-0.3,0.1-0.4,0.2c-0.2,0.1-0.1,0.2-0.3,0.2c-0.1,0-0.2,0.1-0.2,0.2C69.4-64,69.4-64.1,69.4-64C69.4-64,69.4-64,69.4-64"
					/>
				<path class="st2" d="M61.8-64c0,0.1,0,0.1,0,0.2c-0.1,0.1-0.1,0.1-0.2,0.1c-0.1,0.1-0.1,0.3-0.1,0.4c-0.2,0.1,0,0.2,0,0.3
					c0,0,0,0.1,0,0.2c0,0.1,0,0.3,0.1,0.4c0.1,0.2,0.3,0.4,0.4,0.5c0.2,0.1,0.4,0.6,0.6,0.6c0.2,0,0.4-0.1,0.5-0.1
					c0.2,0,0.4,0,0.6-0.1c0.2-0.1,0.1-0.3,0.3-0.5c0.1-0.1,0.3,0,0.4-0.1c0.2-0.1,0.3-0.3,0.4-0.5c0-0.1,0-0.1,0-0.2
					c0-0.1,0.1-0.2,0.1-0.3c0-0.1-0.1-0.1-0.1-0.2c0-0.1,0-0.2,0-0.3c0-0.2,0-0.4-0.1-0.5c-0.4-0.7-1.2-0.9-2-0.8
					c-0.2,0-0.3,0.1-0.4,0.2c-0.2,0.1-0.1,0.2-0.3,0.2c-0.1,0-0.2,0.1-0.2,0.2C61.8-64,61.8-64.1,61.8-64C61.8-64,61.8-64,61.8-64"
					/>
				<path class="st2" d="M54.1-64c0,0.1,0,0.1,0,0.2c-0.1,0.1-0.1,0.1-0.2,0.1c-0.1,0.1-0.1,0.3-0.1,0.4c-0.2,0.1,0,0.2,0,0.3
					c0,0,0,0.1,0,0.2c0,0.1,0,0.3,0.1,0.4c0.1,0.2,0.3,0.4,0.4,0.5c0.2,0.1,0.4,0.6,0.6,0.6c0.2,0,0.4-0.1,0.5-0.1
					c0.2,0,0.4,0,0.6-0.1c0.2-0.1,0.1-0.3,0.3-0.5c0.1-0.1,0.3,0,0.4-0.1c0.2-0.1,0.3-0.3,0.4-0.5c0-0.1,0-0.1,0-0.2
					c0-0.1,0.1-0.2,0.1-0.3c0-0.1-0.1-0.1-0.1-0.2c0-0.1,0-0.2,0-0.3c0-0.2,0-0.4-0.1-0.5c-0.4-0.7-1.2-0.9-2-0.8
					c-0.2,0-0.3,0.1-0.4,0.2c-0.2,0.1-0.1,0.2-0.3,0.2c-0.1,0-0.2,0.1-0.2,0.2C54.1-64,54.1-64.1,54.1-64C54.1-64,54.1-64,54.1-64"
					/>
				<path class="st2" d="M46.5-64c0,0.1,0,0.1,0,0.2c-0.1,0.1-0.1,0.1-0.2,0.1c-0.1,0.1-0.1,0.3-0.1,0.4c-0.2,0.1,0,0.2,0,0.3
					c0,0,0,0.1,0,0.2c0,0.1,0,0.3,0.1,0.4c0.1,0.2,0.3,0.4,0.4,0.5c0.2,0.1,0.4,0.6,0.6,0.6c0.2,0,0.4-0.1,0.5-0.1
					c0.2,0,0.4,0,0.6-0.1c0.2-0.1,0.1-0.3,0.3-0.5c0.1-0.1,0.3,0,0.4-0.1c0.2-0.1,0.3-0.3,0.4-0.5c0-0.1,0-0.1,0-0.2
					c0-0.1,0.1-0.2,0.1-0.3c0-0.1-0.1-0.1-0.1-0.2c0-0.1,0-0.2,0-0.3c0-0.2,0-0.4-0.1-0.5c-0.4-0.7-1.2-0.9-2-0.8
					c-0.2,0-0.3,0.1-0.4,0.2c-0.2,0.1-0.1,0.2-0.3,0.2c-0.1,0-0.2,0.1-0.2,0.2C46.5-64,46.5-64.1,46.5-64C46.5-64,46.5-64,46.5-64"
					/>
				<path class="st2" d="M38.8-64c0,0.1,0,0.1,0,0.2c-0.1,0.1-0.1,0.1-0.2,0.1c-0.1,0.1-0.1,0.3-0.1,0.4c-0.2,0.1,0,0.2,0,0.3
					c0,0,0,0.1,0,0.2c0,0.1,0,0.3,0.1,0.4c0.1,0.2,0.3,0.4,0.4,0.5c0.2,0.1,0.4,0.6,0.6,0.6c0.2,0,0.4-0.1,0.5-0.1
					c0.2,0,0.4,0,0.6-0.1c0.2-0.1,0.1-0.3,0.3-0.5c0.1-0.1,0.3,0,0.4-0.1c0.2-0.1,0.3-0.3,0.4-0.5c0-0.1,0-0.1,0-0.2
					c0-0.1,0.1-0.2,0.1-0.3c0-0.1-0.1-0.1-0.1-0.2c0-0.1,0-0.2,0-0.3c0-0.2,0-0.4-0.1-0.5c-0.4-0.7-1.2-0.9-2-0.8
					c-0.2,0-0.3,0.1-0.4,0.2c-0.2,0.1-0.1,0.2-0.3,0.2c-0.1,0-0.2,0.1-0.2,0.2C38.8-64,38.8-64.1,38.8-64C38.8-64,38.8-64,38.8-64"
					/>
				<path class="st2" d="M31.1-64c0,0.1,0,0.1,0,0.2c-0.1,0.1-0.1,0.1-0.2,0.1c-0.1,0.1-0.1,0.3-0.1,0.4c-0.2,0.1,0,0.2,0,0.3
					c0,0,0,0.1,0,0.2c0,0.1,0,0.3,0.1,0.4c0.1,0.2,0.3,0.4,0.4,0.5c0.2,0.1,0.4,0.6,0.6,0.6c0.2,0,0.4-0.1,0.5-0.1
					c0.2,0,0.4,0,0.6-0.1c0.2-0.1,0.1-0.3,0.3-0.5c0.1-0.1,0.3,0,0.4-0.1c0.2-0.1,0.3-0.3,0.4-0.5c0-0.1,0-0.1,0-0.2
					c0-0.1,0.1-0.2,0.1-0.3c0-0.1-0.1-0.1-0.1-0.2c0-0.1,0-0.2,0-0.3c0-0.2,0-0.4-0.1-0.5c-0.4-0.7-1.2-0.9-2-0.8
					c-0.2,0-0.3,0.1-0.4,0.2c-0.2,0.1-0.1,0.2-0.3,0.2c-0.1,0-0.2,0.1-0.2,0.2C31.1-64,31.1-64.1,31.1-64C31.1-64,31.1-64,31.1-64"
					/>
				<path class="st2" d="M23.5-64c0,0.1,0,0.1,0,0.2c-0.1,0.1-0.1,0.1-0.2,0.1c-0.1,0.1-0.1,0.3-0.1,0.4c-0.2,0.1,0,0.2,0,0.3
					c0,0,0,0.1,0,0.2c0,0.1,0,0.3,0.1,0.4c0.1,0.2,0.3,0.4,0.4,0.5c0.2,0.1,0.4,0.6,0.6,0.6c0.2,0,0.4-0.1,0.5-0.1
					c0.2,0,0.4,0,0.6-0.1c0.2-0.1,0.1-0.3,0.3-0.5c0.1-0.1,0.3,0,0.4-0.1c0.2-0.1,0.3-0.3,0.4-0.5c0-0.1,0-0.1,0-0.2
					c0-0.1,0.1-0.2,0.1-0.3c0-0.1-0.1-0.1-0.1-0.2c0-0.1,0-0.2,0-0.3c0-0.2,0-0.4-0.1-0.5c-0.4-0.7-1.2-0.9-2-0.8
					c-0.2,0-0.3,0.1-0.4,0.2c-0.2,0.1-0.1,0.2-0.3,0.2c-0.1,0-0.2,0.1-0.2,0.2C23.5-64,23.5-64.1,23.5-64C23.5-64,23.5-64,23.5-64"
					/>
				<path class="st2" d="M15.8-64c0,0.1,0,0.1,0,0.2c-0.1,0.1-0.1,0.1-0.2,0.1c-0.1,0.1-0.1,0.3-0.1,0.4c-0.2,0.1,0,0.2,0,0.3
					c0,0,0,0.1,0,0.2c0,0.1,0,0.3,0.1,0.4c0.1,0.2,0.3,0.4,0.4,0.5c0.2,0.1,0.4,0.6,0.6,0.6c0.2,0,0.4-0.1,0.5-0.1
					c0.2,0,0.4,0,0.6-0.1c0.2-0.1,0.1-0.3,0.3-0.5c0.1-0.1,0.3,0,0.4-0.1c0.2-0.1,0.3-0.3,0.4-0.5c0-0.1,0-0.1,0-0.2
					c0-0.1,0.1-0.2,0.1-0.3c0-0.1-0.1-0.1-0.1-0.2c0-0.1,0-0.2,0-0.3c0-0.2,0-0.4-0.1-0.5c-0.4-0.7-1.2-0.9-2-0.8
					c-0.2,0-0.3,0.1-0.4,0.2c-0.2,0.1-0.1,0.2-0.3,0.2c-0.1,0-0.2,0.1-0.2,0.2C15.8-64,15.8-64.1,15.8-64C15.8-64,15.8-64,15.8-64"
					/>
				<path class="st2" d="M8.2-64c0,0.1,0,0.1,0,0.2C8.1-63.7,8-63.7,8-63.7c-0.1,0.1-0.1,0.3-0.1,0.4c-0.2,0.1,0,0.2,0,0.3
					c0,0,0,0.1,0,0.2c0,0.1,0,0.3,0.1,0.4C8-62.2,8.2-62,8.3-61.9c0.2,0.1,0.4,0.6,0.6,0.6c0.2,0,0.4-0.1,0.5-0.1
					c0.2,0,0.4,0,0.6-0.1c0.2-0.1,0.1-0.3,0.3-0.5c0.1-0.1,0.3,0,0.4-0.1c0.2-0.1,0.3-0.3,0.4-0.5c0-0.1,0-0.1,0-0.2
					c0-0.1,0.1-0.2,0.1-0.3c0-0.1-0.1-0.1-0.1-0.2c0-0.1,0-0.2,0-0.3c0-0.2,0-0.4-0.1-0.5c-0.4-0.7-1.2-0.9-2-0.8
					c-0.2,0-0.3,0.1-0.4,0.2c-0.2,0.1-0.1,0.2-0.3,0.2c-0.1,0-0.2,0.1-0.2,0.2C8.2-64,8.2-64.1,8.2-64C8.1-64,8.1-64,8.2-64"/>
				<path class="st2" d="M0.5-64c0,0.1,0,0.1,0,0.2c-0.1,0.1-0.1,0.1-0.2,0.1c-0.1,0.1-0.1,0.3-0.1,0.4c-0.2,0.1,0,0.2,0,0.3
					c0,0,0,0.1,0,0.2c0,0.1,0,0.3,0.1,0.4c0.1,0.2,0.3,0.4,0.4,0.5c0.2,0.1,0.4,0.6,0.6,0.6c0.2,0,0.4-0.1,0.5-0.1
					c0.2,0,0.4,0,0.6-0.1c0.2-0.1,0.1-0.3,0.3-0.5C2.8-62,3-61.9,3.1-62c0.2-0.1,0.3-0.3,0.4-0.5c0-0.1,0-0.1,0-0.2
					c0-0.1,0.1-0.2,0.1-0.3c0-0.1-0.1-0.1-0.1-0.2c0-0.1,0-0.2,0-0.3c0-0.2,0-0.4-0.1-0.5c-0.4-0.7-1.2-0.9-2-0.8
					c-0.2,0-0.3,0.1-0.4,0.2c-0.2,0.1-0.1,0.2-0.3,0.2c-0.1,0-0.2,0.1-0.2,0.2C0.5-64,0.5-64.1,0.5-64C0.5-64,0.5-64,0.5-64"/>
			</g>
			<g>
				<path class="st2" d="M69.4-56.3c0,0.1,0,0.1,0,0.2c-0.1,0.1-0.1,0.1-0.2,0.1c-0.1,0.1-0.1,0.3-0.1,0.4c-0.2,0.1,0,0.2,0,0.3
					c0,0,0,0.1,0,0.2c0,0.1,0,0.3,0.1,0.4c0.1,0.2,0.3,0.4,0.4,0.5c0.2,0.1,0.4,0.6,0.6,0.6c0.2,0,0.4-0.1,0.5-0.1
					c0.2,0,0.4,0,0.6-0.1c0.2-0.1,0.1-0.3,0.3-0.5c0.1-0.1,0.3,0,0.4-0.1c0.2-0.1,0.3-0.3,0.4-0.5c0-0.1,0-0.1,0-0.2
					c0-0.1,0.1-0.2,0.1-0.3c0-0.1-0.1-0.1-0.1-0.2c0-0.1,0-0.2,0-0.3c0-0.2,0-0.4-0.1-0.5c-0.4-0.7-1.2-0.9-2-0.8
					c-0.2,0-0.3,0.1-0.4,0.2c-0.2,0.1-0.1,0.2-0.3,0.2c-0.1,0-0.2,0.1-0.2,0.2C69.4-56.4,69.4-56.4,69.4-56.3
					C69.4-56.3,69.4-56.3,69.4-56.3"/>
				<path class="st2" d="M61.8-56.3c0,0.1,0,0.1,0,0.2c-0.1,0.1-0.1,0.1-0.2,0.1c-0.1,0.1-0.1,0.3-0.1,0.4c-0.2,0.1,0,0.2,0,0.3
					c0,0,0,0.1,0,0.2c0,0.1,0,0.3,0.1,0.4c0.1,0.2,0.3,0.4,0.4,0.5c0.2,0.1,0.4,0.6,0.6,0.6c0.2,0,0.4-0.1,0.5-0.1
					c0.2,0,0.4,0,0.6-0.1c0.2-0.1,0.1-0.3,0.3-0.5c0.1-0.1,0.3,0,0.4-0.1c0.2-0.1,0.3-0.3,0.4-0.5c0-0.1,0-0.1,0-0.2
					c0-0.1,0.1-0.2,0.1-0.3c0-0.1-0.1-0.1-0.1-0.2c0-0.1,0-0.2,0-0.3c0-0.2,0-0.4-0.1-0.5c-0.4-0.7-1.2-0.9-2-0.8
					c-0.2,0-0.3,0.1-0.4,0.2c-0.2,0.1-0.1,0.2-0.3,0.2c-0.1,0-0.2,0.1-0.2,0.2C61.8-56.4,61.8-56.4,61.8-56.3
					C61.8-56.3,61.8-56.3,61.8-56.3"/>
				<path class="st2" d="M54.1-56.3c0,0.1,0,0.1,0,0.2C54-56.1,54-56.1,53.9-56c-0.1,0.1-0.1,0.3-0.1,0.4c-0.2,0.1,0,0.2,0,0.3
					c0,0,0,0.1,0,0.2c0,0.1,0,0.3,0.1,0.4c0.1,0.2,0.3,0.4,0.4,0.5c0.2,0.1,0.4,0.6,0.6,0.6c0.2,0,0.4-0.1,0.5-0.1
					c0.2,0,0.4,0,0.6-0.1c0.2-0.1,0.1-0.3,0.3-0.5c0.1-0.1,0.3,0,0.4-0.1c0.2-0.1,0.3-0.3,0.4-0.5c0-0.1,0-0.1,0-0.2
					c0-0.1,0.1-0.2,0.1-0.3c0-0.1-0.1-0.1-0.1-0.2c0-0.1,0-0.2,0-0.3c0-0.2,0-0.4-0.1-0.5c-0.4-0.7-1.2-0.9-2-0.8
					c-0.2,0-0.3,0.1-0.4,0.2c-0.2,0.1-0.1,0.2-0.3,0.2c-0.1,0-0.2,0.1-0.2,0.2C54.1-56.4,54.1-56.4,54.1-56.3
					C54.1-56.3,54.1-56.3,54.1-56.3"/>
				<path class="st2" d="M46.5-56.3c0,0.1,0,0.1,0,0.2c-0.1,0.1-0.1,0.1-0.2,0.1c-0.1,0.1-0.1,0.3-0.1,0.4c-0.2,0.1,0,0.2,0,0.3
					c0,0,0,0.1,0,0.2c0,0.1,0,0.3,0.1,0.4c0.1,0.2,0.3,0.4,0.4,0.5c0.2,0.1,0.4,0.6,0.6,0.6c0.2,0,0.4-0.1,0.5-0.1
					c0.2,0,0.4,0,0.6-0.1c0.2-0.1,0.1-0.3,0.3-0.5c0.1-0.1,0.3,0,0.4-0.1c0.2-0.1,0.3-0.3,0.4-0.5c0-0.1,0-0.1,0-0.2
					c0-0.1,0.1-0.2,0.1-0.3c0-0.1-0.1-0.1-0.1-0.2c0-0.1,0-0.2,0-0.3c0-0.2,0-0.4-0.1-0.5c-0.4-0.7-1.2-0.9-2-0.8
					c-0.2,0-0.3,0.1-0.4,0.2c-0.2,0.1-0.1,0.2-0.3,0.2c-0.1,0-0.2,0.1-0.2,0.2C46.5-56.4,46.5-56.4,46.5-56.3
					C46.5-56.3,46.5-56.3,46.5-56.3"/>
				<path class="st2" d="M38.8-56.3c0,0.1,0,0.1,0,0.2c-0.1,0.1-0.1,0.1-0.2,0.1c-0.1,0.1-0.1,0.3-0.1,0.4c-0.2,0.1,0,0.2,0,0.3
					c0,0,0,0.1,0,0.2c0,0.1,0,0.3,0.1,0.4c0.1,0.2,0.3,0.4,0.4,0.5c0.2,0.1,0.4,0.6,0.6,0.6c0.2,0,0.4-0.1,0.5-0.1
					c0.2,0,0.4,0,0.6-0.1c0.2-0.1,0.1-0.3,0.3-0.5c0.1-0.1,0.3,0,0.4-0.1c0.2-0.1,0.3-0.3,0.4-0.5c0-0.1,0-0.1,0-0.2
					c0-0.1,0.1-0.2,0.1-0.3c0-0.1-0.1-0.1-0.1-0.2c0-0.1,0-0.2,0-0.3c0-0.2,0-0.4-0.1-0.5c-0.4-0.7-1.2-0.9-2-0.8
					c-0.2,0-0.3,0.1-0.4,0.2c-0.2,0.1-0.1,0.2-0.3,0.2c-0.1,0-0.2,0.1-0.2,0.2C38.8-56.4,38.8-56.4,38.8-56.3
					C38.8-56.3,38.8-56.3,38.8-56.3"/>
				<path class="st2" d="M31.1-56.3c0,0.1,0,0.1,0,0.2c-0.1,0.1-0.1,0.1-0.2,0.1c-0.1,0.1-0.1,0.3-0.1,0.4c-0.2,0.1,0,0.2,0,0.3
					c0,0,0,0.1,0,0.2c0,0.1,0,0.3,0.1,0.4c0.1,0.2,0.3,0.4,0.4,0.5c0.2,0.1,0.4,0.6,0.6,0.6c0.2,0,0.4-0.1,0.5-0.1
					c0.2,0,0.4,0,0.6-0.1c0.2-0.1,0.1-0.3,0.3-0.5c0.1-0.1,0.3,0,0.4-0.1c0.2-0.1,0.3-0.3,0.4-0.5c0-0.1,0-0.1,0-0.2
					c0-0.1,0.1-0.2,0.1-0.3c0-0.1-0.1-0.1-0.1-0.2c0-0.1,0-0.2,0-0.3c0-0.2,0-0.4-0.1-0.5c-0.4-0.7-1.2-0.9-2-0.8
					c-0.2,0-0.3,0.1-0.4,0.2c-0.2,0.1-0.1,0.2-0.3,0.2c-0.1,0-0.2,0.1-0.2,0.2C31.1-56.4,31.1-56.4,31.1-56.3
					C31.1-56.3,31.1-56.3,31.1-56.3"/>
				<path class="st2" d="M23.5-56.3c0,0.1,0,0.1,0,0.2c-0.1,0.1-0.1,0.1-0.2,0.1c-0.1,0.1-0.1,0.3-0.1,0.4c-0.2,0.1,0,0.2,0,0.3
					c0,0,0,0.1,0,0.2c0,0.1,0,0.3,0.1,0.4c0.1,0.2,0.3,0.4,0.4,0.5c0.2,0.1,0.4,0.6,0.6,0.6c0.2,0,0.4-0.1,0.5-0.1
					c0.2,0,0.4,0,0.6-0.1c0.2-0.1,0.1-0.3,0.3-0.5c0.1-0.1,0.3,0,0.4-0.1c0.2-0.1,0.3-0.3,0.4-0.5c0-0.1,0-0.1,0-0.2
					c0-0.1,0.1-0.2,0.1-0.3c0-0.1-0.1-0.1-0.1-0.2c0-0.1,0-0.2,0-0.3c0-0.2,0-0.4-0.1-0.5c-0.4-0.7-1.2-0.9-2-0.8
					c-0.2,0-0.3,0.1-0.4,0.2c-0.2,0.1-0.1,0.2-0.3,0.2c-0.1,0-0.2,0.1-0.2,0.2C23.5-56.4,23.5-56.4,23.5-56.3
					C23.5-56.3,23.5-56.3,23.5-56.3"/>
				<path class="st2" d="M15.8-56.3c0,0.1,0,0.1,0,0.2c-0.1,0.1-0.1,0.1-0.2,0.1c-0.1,0.1-0.1,0.3-0.1,0.4c-0.2,0.1,0,0.2,0,0.3
					c0,0,0,0.1,0,0.2c0,0.1,0,0.3,0.1,0.4c0.1,0.2,0.3,0.4,0.4,0.5c0.2,0.1,0.4,0.6,0.6,0.6c0.2,0,0.4-0.1,0.5-0.1
					c0.2,0,0.4,0,0.6-0.1c0.2-0.1,0.1-0.3,0.3-0.5c0.1-0.1,0.3,0,0.4-0.1c0.2-0.1,0.3-0.3,0.4-0.5c0-0.1,0-0.1,0-0.2
					c0-0.1,0.1-0.2,0.1-0.3c0-0.1-0.1-0.1-0.1-0.2c0-0.1,0-0.2,0-0.3c0-0.2,0-0.4-0.1-0.5c-0.4-0.7-1.2-0.9-2-0.8
					c-0.2,0-0.3,0.1-0.4,0.2c-0.2,0.1-0.1,0.2-0.3,0.2c-0.1,0-0.2,0.1-0.2,0.2C15.8-56.4,15.8-56.4,15.8-56.3
					C15.8-56.3,15.8-56.3,15.8-56.3"/>
				<path class="st2" d="M8.2-56.3c0,0.1,0,0.1,0,0.2C8.1-56.1,8-56.1,8-56c-0.1,0.1-0.1,0.3-0.1,0.4c-0.2,0.1,0,0.2,0,0.3
					c0,0,0,0.1,0,0.2c0,0.1,0,0.3,0.1,0.4c0.1,0.2,0.3,0.4,0.4,0.5c0.2,0.1,0.4,0.6,0.6,0.6c0.2,0,0.4-0.1,0.5-0.1
					c0.2,0,0.4,0,0.6-0.1c0.2-0.1,0.1-0.3,0.3-0.5c0.1-0.1,0.3,0,0.4-0.1c0.2-0.1,0.3-0.3,0.4-0.5c0-0.1,0-0.1,0-0.2
					c0-0.1,0.1-0.2,0.1-0.3c0-0.1-0.1-0.1-0.1-0.2c0-0.1,0-0.2,0-0.3c0-0.2,0-0.4-0.1-0.5c-0.4-0.7-1.2-0.9-2-0.8
					c-0.2,0-0.3,0.1-0.4,0.2c-0.2,0.1-0.1,0.2-0.3,0.2c-0.1,0-0.2,0.1-0.2,0.2C8.2-56.4,8.2-56.4,8.2-56.3
					C8.1-56.3,8.1-56.3,8.2-56.3"/>
				<path class="st2" d="M0.5-56.3c0,0.1,0,0.1,0,0.2c-0.1,0.1-0.1,0.1-0.2,0.1c-0.1,0.1-0.1,0.3-0.1,0.4c-0.2,0.1,0,0.2,0,0.3
					c0,0,0,0.1,0,0.2c0,0.1,0,0.3,0.1,0.4c0.1,0.2,0.3,0.4,0.4,0.5c0.2,0.1,0.4,0.6,0.6,0.6c0.2,0,0.4-0.1,0.5-0.1
					c0.2,0,0.4,0,0.6-0.1c0.2-0.1,0.1-0.3,0.3-0.5c0.1-0.1,0.3,0,0.4-0.1c0.2-0.1,0.3-0.3,0.4-0.5c0-0.1,0-0.1,0-0.2
					c0-0.1,0.1-0.2,0.1-0.3c0-0.1-0.1-0.1-0.1-0.2c0-0.1,0-0.2,0-0.3c0-0.2,0-0.4-0.1-0.5c-0.4-0.7-1.2-0.9-2-0.8
					c-0.2,0-0.3,0.1-0.4,0.2c-0.2,0.1-0.1,0.2-0.3,0.2c-0.1,0-0.2,0.1-0.2,0.2C0.5-56.4,0.5-56.4,0.5-56.3
					C0.5-56.3,0.5-56.3,0.5-56.3"/>
			</g>
			<g>
				<path class="st2" d="M69.4-48.7c0,0.1,0,0.1,0,0.2c-0.1,0.1-0.1,0.1-0.2,0.1c-0.1,0.1-0.1,0.3-0.1,0.4c-0.2,0.1,0,0.2,0,0.3
					c0,0,0,0.1,0,0.2c0,0.1,0,0.3,0.1,0.4c0.1,0.2,0.3,0.4,0.4,0.5c0.2,0.1,0.4,0.6,0.6,0.6c0.2,0,0.4-0.1,0.5-0.1
					c0.2,0,0.4,0,0.6-0.1c0.2-0.1,0.1-0.3,0.3-0.5c0.1-0.1,0.3,0,0.4-0.1c0.2-0.1,0.3-0.3,0.4-0.5c0-0.1,0-0.1,0-0.2
					c0-0.1,0.1-0.2,0.1-0.3c0-0.1-0.1-0.1-0.1-0.2c0-0.1,0-0.2,0-0.3c0-0.2,0-0.4-0.1-0.5c-0.4-0.7-1.2-0.9-2-0.8
					c-0.2,0-0.3,0.1-0.4,0.2c-0.2,0.1-0.1,0.2-0.3,0.2c-0.1,0-0.2,0.1-0.2,0.2C69.4-48.7,69.4-48.8,69.4-48.7
					C69.4-48.7,69.4-48.7,69.4-48.7"/>
				<path class="st2" d="M61.8-48.7c0,0.1,0,0.1,0,0.2c-0.1,0.1-0.1,0.1-0.2,0.1c-0.1,0.1-0.1,0.3-0.1,0.4c-0.2,0.1,0,0.2,0,0.3
					c0,0,0,0.1,0,0.2c0,0.1,0,0.3,0.1,0.4c0.1,0.2,0.3,0.4,0.4,0.5c0.2,0.1,0.4,0.6,0.6,0.6c0.2,0,0.4-0.1,0.5-0.1
					c0.2,0,0.4,0,0.6-0.1c0.2-0.1,0.1-0.3,0.3-0.5c0.1-0.1,0.3,0,0.4-0.1c0.2-0.1,0.3-0.3,0.4-0.5c0-0.1,0-0.1,0-0.2
					c0-0.1,0.1-0.2,0.1-0.3c0-0.1-0.1-0.1-0.1-0.2c0-0.1,0-0.2,0-0.3c0-0.2,0-0.4-0.1-0.5c-0.4-0.7-1.2-0.9-2-0.8
					c-0.2,0-0.3,0.1-0.4,0.2c-0.2,0.1-0.1,0.2-0.3,0.2c-0.1,0-0.2,0.1-0.2,0.2C61.8-48.7,61.8-48.8,61.8-48.7
					C61.8-48.7,61.8-48.7,61.8-48.7"/>
				<path class="st2" d="M54.1-48.7c0,0.1,0,0.1,0,0.2c-0.1,0.1-0.1,0.1-0.2,0.1c-0.1,0.1-0.1,0.3-0.1,0.4c-0.2,0.1,0,0.2,0,0.3
					c0,0,0,0.1,0,0.2c0,0.1,0,0.3,0.1,0.4c0.1,0.2,0.3,0.4,0.4,0.5c0.2,0.1,0.4,0.6,0.6,0.6c0.2,0,0.4-0.1,0.5-0.1
					c0.2,0,0.4,0,0.6-0.1c0.2-0.1,0.1-0.3,0.3-0.5c0.1-0.1,0.3,0,0.4-0.1c0.2-0.1,0.3-0.3,0.4-0.5c0-0.1,0-0.1,0-0.2
					c0-0.1,0.1-0.2,0.1-0.3c0-0.1-0.1-0.1-0.1-0.2c0-0.1,0-0.2,0-0.3c0-0.2,0-0.4-0.1-0.5c-0.4-0.7-1.2-0.9-2-0.8
					c-0.2,0-0.3,0.1-0.4,0.2c-0.2,0.1-0.1,0.2-0.3,0.2c-0.1,0-0.2,0.1-0.2,0.2C54.1-48.7,54.1-48.8,54.1-48.7
					C54.1-48.7,54.1-48.7,54.1-48.7"/>
				<path class="st2" d="M46.5-48.7c0,0.1,0,0.1,0,0.2c-0.1,0.1-0.1,0.1-0.2,0.1c-0.1,0.1-0.1,0.3-0.1,0.4c-0.2,0.1,0,0.2,0,0.3
					c0,0,0,0.1,0,0.2c0,0.1,0,0.3,0.1,0.4c0.1,0.2,0.3,0.4,0.4,0.5c0.2,0.1,0.4,0.6,0.6,0.6c0.2,0,0.4-0.1,0.5-0.1
					c0.2,0,0.4,0,0.6-0.1c0.2-0.1,0.1-0.3,0.3-0.5c0.1-0.1,0.3,0,0.4-0.1c0.2-0.1,0.3-0.3,0.4-0.5c0-0.1,0-0.1,0-0.2
					c0-0.1,0.1-0.2,0.1-0.3c0-0.1-0.1-0.1-0.1-0.2c0-0.1,0-0.2,0-0.3c0-0.2,0-0.4-0.1-0.5c-0.4-0.7-1.2-0.9-2-0.8
					c-0.2,0-0.3,0.1-0.4,0.2c-0.2,0.1-0.1,0.2-0.3,0.2c-0.1,0-0.2,0.1-0.2,0.2C46.5-48.7,46.5-48.8,46.5-48.7
					C46.5-48.7,46.5-48.7,46.5-48.7"/>
				<path class="st2" d="M38.8-48.7c0,0.1,0,0.1,0,0.2c-0.1,0.1-0.1,0.1-0.2,0.1c-0.1,0.1-0.1,0.3-0.1,0.4c-0.2,0.1,0,0.2,0,0.3
					c0,0,0,0.1,0,0.2c0,0.1,0,0.3,0.1,0.4c0.1,0.2,0.3,0.4,0.4,0.5c0.2,0.1,0.4,0.6,0.6,0.6c0.2,0,0.4-0.1,0.5-0.1
					c0.2,0,0.4,0,0.6-0.1c0.2-0.1,0.1-0.3,0.3-0.5c0.1-0.1,0.3,0,0.4-0.1c0.2-0.1,0.3-0.3,0.4-0.5c0-0.1,0-0.1,0-0.2
					c0-0.1,0.1-0.2,0.1-0.3c0-0.1-0.1-0.1-0.1-0.2c0-0.1,0-0.2,0-0.3c0-0.2,0-0.4-0.1-0.5c-0.4-0.7-1.2-0.9-2-0.8
					c-0.2,0-0.3,0.1-0.4,0.2c-0.2,0.1-0.1,0.2-0.3,0.2c-0.1,0-0.2,0.1-0.2,0.2C38.8-48.7,38.8-48.8,38.8-48.7
					C38.8-48.7,38.8-48.7,38.8-48.7"/>
				<path class="st2" d="M31.1-48.7c0,0.1,0,0.1,0,0.2c-0.1,0.1-0.1,0.1-0.2,0.1c-0.1,0.1-0.1,0.3-0.1,0.4c-0.2,0.1,0,0.2,0,0.3
					c0,0,0,0.1,0,0.2c0,0.1,0,0.3,0.1,0.4c0.1,0.2,0.3,0.4,0.4,0.5c0.2,0.1,0.4,0.6,0.6,0.6c0.2,0,0.4-0.1,0.5-0.1
					c0.2,0,0.4,0,0.6-0.1c0.2-0.1,0.1-0.3,0.3-0.5c0.1-0.1,0.3,0,0.4-0.1c0.2-0.1,0.3-0.3,0.4-0.5c0-0.1,0-0.1,0-0.2
					c0-0.1,0.1-0.2,0.1-0.3c0-0.1-0.1-0.1-0.1-0.2c0-0.1,0-0.2,0-0.3c0-0.2,0-0.4-0.1-0.5c-0.4-0.7-1.2-0.9-2-0.8
					c-0.2,0-0.3,0.1-0.4,0.2c-0.2,0.1-0.1,0.2-0.3,0.2c-0.1,0-0.2,0.1-0.2,0.2C31.1-48.7,31.1-48.8,31.1-48.7
					C31.1-48.7,31.1-48.7,31.1-48.7"/>
				<path class="st2" d="M23.5-48.7c0,0.1,0,0.1,0,0.2c-0.1,0.1-0.1,0.1-0.2,0.1c-0.1,0.1-0.1,0.3-0.1,0.4c-0.2,0.1,0,0.2,0,0.3
					c0,0,0,0.1,0,0.2c0,0.1,0,0.3,0.1,0.4c0.1,0.2,0.3,0.4,0.4,0.5c0.2,0.1,0.4,0.6,0.6,0.6c0.2,0,0.4-0.1,0.5-0.1
					c0.2,0,0.4,0,0.6-0.1c0.2-0.1,0.1-0.3,0.3-0.5c0.1-0.1,0.3,0,0.4-0.1c0.2-0.1,0.3-0.3,0.4-0.5c0-0.1,0-0.1,0-0.2
					c0-0.1,0.1-0.2,0.1-0.3c0-0.1-0.1-0.1-0.1-0.2c0-0.1,0-0.2,0-0.3c0-0.2,0-0.4-0.1-0.5c-0.4-0.7-1.2-0.9-2-0.8
					c-0.2,0-0.3,0.1-0.4,0.2c-0.2,0.1-0.1,0.2-0.3,0.2c-0.1,0-0.2,0.1-0.2,0.2C23.5-48.7,23.5-48.8,23.5-48.7
					C23.5-48.7,23.5-48.7,23.5-48.7"/>
				<path class="st2" d="M15.8-48.7c0,0.1,0,0.1,0,0.2c-0.1,0.1-0.1,0.1-0.2,0.1c-0.1,0.1-0.1,0.3-0.1,0.4c-0.2,0.1,0,0.2,0,0.3
					c0,0,0,0.1,0,0.2c0,0.1,0,0.3,0.1,0.4c0.1,0.2,0.3,0.4,0.4,0.5c0.2,0.1,0.4,0.6,0.6,0.6c0.2,0,0.4-0.1,0.5-0.1
					c0.2,0,0.4,0,0.6-0.1c0.2-0.1,0.1-0.3,0.3-0.5c0.1-0.1,0.3,0,0.4-0.1c0.2-0.1,0.3-0.3,0.4-0.5c0-0.1,0-0.1,0-0.2
					c0-0.1,0.1-0.2,0.1-0.3c0-0.1-0.1-0.1-0.1-0.2c0-0.1,0-0.2,0-0.3c0-0.2,0-0.4-0.1-0.5c-0.4-0.7-1.2-0.9-2-0.8
					c-0.2,0-0.3,0.1-0.4,0.2c-0.2,0.1-0.1,0.2-0.3,0.2c-0.1,0-0.2,0.1-0.2,0.2C15.8-48.7,15.8-48.8,15.8-48.7
					C15.8-48.7,15.8-48.7,15.8-48.7"/>
				<path class="st2" d="M8.2-48.7c0,0.1,0,0.1,0,0.2C8.1-48.4,8-48.4,8-48.4c-0.1,0.1-0.1,0.3-0.1,0.4c-0.2,0.1,0,0.2,0,0.3
					c0,0,0,0.1,0,0.2c0,0.1,0,0.3,0.1,0.4c0.1,0.2,0.3,0.4,0.4,0.5C8.5-46.4,8.7-46,8.9-46c0.2,0,0.4-0.1,0.5-0.1
					c0.2,0,0.4,0,0.6-0.1c0.2-0.1,0.1-0.3,0.3-0.5c0.1-0.1,0.3,0,0.4-0.1c0.2-0.1,0.3-0.3,0.4-0.5c0-0.1,0-0.1,0-0.2
					c0-0.1,0.1-0.2,0.1-0.3c0-0.1-0.1-0.1-0.1-0.2c0-0.1,0-0.2,0-0.3c0-0.2,0-0.4-0.1-0.5c-0.4-0.7-1.2-0.9-2-0.8
					c-0.2,0-0.3,0.1-0.4,0.2c-0.2,0.1-0.1,0.2-0.3,0.2c-0.1,0-0.2,0.1-0.2,0.2C8.2-48.7,8.2-48.8,8.2-48.7
					C8.1-48.7,8.1-48.7,8.2-48.7"/>
				<path class="st2" d="M0.5-48.7c0,0.1,0,0.1,0,0.2c-0.1,0.1-0.1,0.1-0.2,0.1c-0.1,0.1-0.1,0.3-0.1,0.4c-0.2,0.1,0,0.2,0,0.3
					c0,0,0,0.1,0,0.2c0,0.1,0,0.3,0.1,0.4c0.1,0.2,0.3,0.4,0.4,0.5C0.9-46.4,1-46,1.3-46c0.2,0,0.4-0.1,0.5-0.1c0.2,0,0.4,0,0.6-0.1
					c0.2-0.1,0.1-0.3,0.3-0.5c0.1-0.1,0.3,0,0.4-0.1c0.2-0.1,0.3-0.3,0.4-0.5c0-0.1,0-0.1,0-0.2c0-0.1,0.1-0.2,0.1-0.3
					c0-0.1-0.1-0.1-0.1-0.2c0-0.1,0-0.2,0-0.3c0-0.2,0-0.4-0.1-0.5c-0.4-0.7-1.2-0.9-2-0.8c-0.2,0-0.3,0.1-0.4,0.2
					c-0.2,0.1-0.1,0.2-0.3,0.2c-0.1,0-0.2,0.1-0.2,0.2C0.5-48.7,0.5-48.8,0.5-48.7C0.5-48.7,0.5-48.7,0.5-48.7"/>
			</g>
			<g>
				<path class="st2" d="M69.4-41c0,0.1,0,0.1,0,0.2c-0.1,0.1-0.1,0.1-0.2,0.1c-0.1,0.1-0.1,0.3-0.1,0.4c-0.2,0.1,0,0.2,0,0.3
					c0,0,0,0.1,0,0.2c0,0.1,0,0.3,0.1,0.4c0.1,0.2,0.3,0.4,0.4,0.5c0.2,0.1,0.4,0.6,0.6,0.6c0.2,0,0.4-0.1,0.5-0.1
					c0.2,0,0.4,0,0.6-0.1c0.2-0.1,0.1-0.3,0.3-0.5c0.1-0.1,0.3,0,0.4-0.1c0.2-0.1,0.3-0.3,0.4-0.5c0-0.1,0-0.1,0-0.2
					c0-0.1,0.1-0.2,0.1-0.3c0-0.1-0.1-0.1-0.1-0.2c0-0.1,0-0.2,0-0.3c0-0.2,0-0.4-0.1-0.5c-0.4-0.7-1.2-0.9-2-0.8
					c-0.2,0-0.3,0.1-0.4,0.2c-0.2,0.1-0.1,0.2-0.3,0.2c-0.1,0-0.2,0.1-0.2,0.2C69.4-41.1,69.4-41.1,69.4-41C69.4-41,69.4-41,69.4-41
					"/>
				<path class="st2" d="M61.8-41c0,0.1,0,0.1,0,0.2c-0.1,0.1-0.1,0.1-0.2,0.1c-0.1,0.1-0.1,0.3-0.1,0.4c-0.2,0.1,0,0.2,0,0.3
					c0,0,0,0.1,0,0.2c0,0.1,0,0.3,0.1,0.4c0.1,0.2,0.3,0.4,0.4,0.5c0.2,0.1,0.4,0.6,0.6,0.6c0.2,0,0.4-0.1,0.5-0.1
					c0.2,0,0.4,0,0.6-0.1c0.2-0.1,0.1-0.3,0.3-0.5c0.1-0.1,0.3,0,0.4-0.1c0.2-0.1,0.3-0.3,0.4-0.5c0-0.1,0-0.1,0-0.2
					c0-0.1,0.1-0.2,0.1-0.3c0-0.1-0.1-0.1-0.1-0.2c0-0.1,0-0.2,0-0.3c0-0.2,0-0.4-0.1-0.5c-0.4-0.7-1.2-0.9-2-0.8
					c-0.2,0-0.3,0.1-0.4,0.2c-0.2,0.1-0.1,0.2-0.3,0.2c-0.1,0-0.2,0.1-0.2,0.2C61.8-41.1,61.8-41.1,61.8-41C61.8-41,61.8-41,61.8-41
					"/>
				<path class="st2" d="M54.1-41c0,0.1,0,0.1,0,0.2c-0.1,0.1-0.1,0.1-0.2,0.1c-0.1,0.1-0.1,0.3-0.1,0.4c-0.2,0.1,0,0.2,0,0.3
					c0,0,0,0.1,0,0.2c0,0.1,0,0.3,0.1,0.4c0.1,0.2,0.3,0.4,0.4,0.5c0.2,0.1,0.4,0.6,0.6,0.6c0.2,0,0.4-0.1,0.5-0.1
					c0.2,0,0.4,0,0.6-0.1c0.2-0.1,0.1-0.3,0.3-0.5c0.1-0.1,0.3,0,0.4-0.1c0.2-0.1,0.3-0.3,0.4-0.5c0-0.1,0-0.1,0-0.2
					c0-0.1,0.1-0.2,0.1-0.3c0-0.1-0.1-0.1-0.1-0.2c0-0.1,0-0.2,0-0.3c0-0.2,0-0.4-0.1-0.5c-0.4-0.7-1.2-0.9-2-0.8
					c-0.2,0-0.3,0.1-0.4,0.2c-0.2,0.1-0.1,0.2-0.3,0.2c-0.1,0-0.2,0.1-0.2,0.2C54.1-41.1,54.1-41.1,54.1-41C54.1-41,54.1-41,54.1-41
					"/>
				<path class="st2" d="M46.5-41c0,0.1,0,0.1,0,0.2c-0.1,0.1-0.1,0.1-0.2,0.1c-0.1,0.1-0.1,0.3-0.1,0.4c-0.2,0.1,0,0.2,0,0.3
					c0,0,0,0.1,0,0.2c0,0.1,0,0.3,0.1,0.4c0.1,0.2,0.3,0.4,0.4,0.5c0.2,0.1,0.4,0.6,0.6,0.6c0.2,0,0.4-0.1,0.5-0.1
					c0.2,0,0.4,0,0.6-0.1c0.2-0.1,0.1-0.3,0.3-0.5c0.1-0.1,0.3,0,0.4-0.1c0.2-0.1,0.3-0.3,0.4-0.5c0-0.1,0-0.1,0-0.2
					c0-0.1,0.1-0.2,0.1-0.3c0-0.1-0.1-0.1-0.1-0.2c0-0.1,0-0.2,0-0.3c0-0.2,0-0.4-0.1-0.5c-0.4-0.7-1.2-0.9-2-0.8
					c-0.2,0-0.3,0.1-0.4,0.2c-0.2,0.1-0.1,0.2-0.3,0.2c-0.1,0-0.2,0.1-0.2,0.2C46.5-41.1,46.5-41.1,46.5-41C46.5-41,46.5-41,46.5-41
					"/>
				<path class="st2" d="M38.8-41c0,0.1,0,0.1,0,0.2c-0.1,0.1-0.1,0.1-0.2,0.1c-0.1,0.1-0.1,0.3-0.1,0.4c-0.2,0.1,0,0.2,0,0.3
					c0,0,0,0.1,0,0.2c0,0.1,0,0.3,0.1,0.4c0.1,0.2,0.3,0.4,0.4,0.5c0.2,0.1,0.4,0.6,0.6,0.6c0.2,0,0.4-0.1,0.5-0.1
					c0.2,0,0.4,0,0.6-0.1c0.2-0.1,0.1-0.3,0.3-0.5c0.1-0.1,0.3,0,0.4-0.1c0.2-0.1,0.3-0.3,0.4-0.5c0-0.1,0-0.1,0-0.2
					c0-0.1,0.1-0.2,0.1-0.3c0-0.1-0.1-0.1-0.1-0.2c0-0.1,0-0.2,0-0.3c0-0.2,0-0.4-0.1-0.5c-0.4-0.7-1.2-0.9-2-0.8
					c-0.2,0-0.3,0.1-0.4,0.2c-0.2,0.1-0.1,0.2-0.3,0.2c-0.1,0-0.2,0.1-0.2,0.2C38.8-41.1,38.8-41.1,38.8-41C38.8-41,38.8-41,38.8-41
					"/>
				<path class="st2" d="M31.1-41c0,0.1,0,0.1,0,0.2c-0.1,0.1-0.1,0.1-0.2,0.1c-0.1,0.1-0.1,0.3-0.1,0.4c-0.2,0.1,0,0.2,0,0.3
					c0,0,0,0.1,0,0.2c0,0.1,0,0.3,0.1,0.4c0.1,0.2,0.3,0.4,0.4,0.5c0.2,0.1,0.4,0.6,0.6,0.6c0.2,0,0.4-0.1,0.5-0.1
					c0.2,0,0.4,0,0.6-0.1c0.2-0.1,0.1-0.3,0.3-0.5c0.1-0.1,0.3,0,0.4-0.1c0.2-0.1,0.3-0.3,0.4-0.5c0-0.1,0-0.1,0-0.2
					c0-0.1,0.1-0.2,0.1-0.3c0-0.1-0.1-0.1-0.1-0.2c0-0.1,0-0.2,0-0.3c0-0.2,0-0.4-0.1-0.5c-0.4-0.7-1.2-0.9-2-0.8
					c-0.2,0-0.3,0.1-0.4,0.2c-0.2,0.1-0.1,0.2-0.3,0.2c-0.1,0-0.2,0.1-0.2,0.2C31.1-41.1,31.1-41.1,31.1-41C31.1-41,31.1-41,31.1-41
					"/>
				<path class="st2" d="M23.5-41c0,0.1,0,0.1,0,0.2c-0.1,0.1-0.1,0.1-0.2,0.1c-0.1,0.1-0.1,0.3-0.1,0.4c-0.2,0.1,0,0.2,0,0.3
					c0,0,0,0.1,0,0.2c0,0.1,0,0.3,0.1,0.4c0.1,0.2,0.3,0.4,0.4,0.5c0.2,0.1,0.4,0.6,0.6,0.6c0.2,0,0.4-0.1,0.5-0.1
					c0.2,0,0.4,0,0.6-0.1c0.2-0.1,0.1-0.3,0.3-0.5c0.1-0.1,0.3,0,0.4-0.1c0.2-0.1,0.3-0.3,0.4-0.5c0-0.1,0-0.1,0-0.2
					c0-0.1,0.1-0.2,0.1-0.3c0-0.1-0.1-0.1-0.1-0.2c0-0.1,0-0.2,0-0.3c0-0.2,0-0.4-0.1-0.5c-0.4-0.7-1.2-0.9-2-0.8
					c-0.2,0-0.3,0.1-0.4,0.2c-0.2,0.1-0.1,0.2-0.3,0.2c-0.1,0-0.2,0.1-0.2,0.2C23.5-41.1,23.5-41.1,23.5-41C23.5-41,23.5-41,23.5-41
					"/>
				<path class="st2" d="M15.8-41c0,0.1,0,0.1,0,0.2c-0.1,0.1-0.1,0.1-0.2,0.1c-0.1,0.1-0.1,0.3-0.1,0.4c-0.2,0.1,0,0.2,0,0.3
					c0,0,0,0.1,0,0.2c0,0.1,0,0.3,0.1,0.4c0.1,0.2,0.3,0.4,0.4,0.5c0.2,0.1,0.4,0.6,0.6,0.6c0.2,0,0.4-0.1,0.5-0.1
					c0.2,0,0.4,0,0.6-0.1c0.2-0.1,0.1-0.3,0.3-0.5c0.1-0.1,0.3,0,0.4-0.1c0.2-0.1,0.3-0.3,0.4-0.5c0-0.1,0-0.1,0-0.2
					c0-0.1,0.1-0.2,0.1-0.3c0-0.1-0.1-0.1-0.1-0.2c0-0.1,0-0.2,0-0.3c0-0.2,0-0.4-0.1-0.5c-0.4-0.7-1.2-0.9-2-0.8
					c-0.2,0-0.3,0.1-0.4,0.2c-0.2,0.1-0.1,0.2-0.3,0.2c-0.1,0-0.2,0.1-0.2,0.2C15.8-41.1,15.8-41.1,15.8-41C15.8-41,15.8-41,15.8-41
					"/>
				<path class="st2" d="M8.2-41c0,0.1,0,0.1,0,0.2C8.1-40.8,8-40.8,8-40.7c-0.1,0.1-0.1,0.3-0.1,0.4c-0.2,0.1,0,0.2,0,0.3
					c0,0,0,0.1,0,0.2c0,0.1,0,0.3,0.1,0.4c0.1,0.2,0.3,0.4,0.4,0.5c0.2,0.1,0.4,0.6,0.6,0.6c0.2,0,0.4-0.1,0.5-0.1
					c0.2,0,0.4,0,0.6-0.1c0.2-0.1,0.1-0.3,0.3-0.5c0.1-0.1,0.3,0,0.4-0.1c0.2-0.1,0.3-0.3,0.4-0.5c0-0.1,0-0.1,0-0.2
					c0-0.1,0.1-0.2,0.1-0.3c0-0.1-0.1-0.1-0.1-0.2c0-0.1,0-0.2,0-0.3c0-0.2,0-0.4-0.1-0.5c-0.4-0.7-1.2-0.9-2-0.8
					c-0.2,0-0.3,0.1-0.4,0.2c-0.2,0.1-0.1,0.2-0.3,0.2c-0.1,0-0.2,0.1-0.2,0.2C8.2-41.1,8.2-41.1,8.2-41C8.1-41,8.1-41,8.2-41"/>
				<path class="st2" d="M0.5-41c0,0.1,0,0.1,0,0.2c-0.1,0.1-0.1,0.1-0.2,0.1c-0.1,0.1-0.1,0.3-0.1,0.4c-0.2,0.1,0,0.2,0,0.3
					c0,0,0,0.1,0,0.2c0,0.1,0,0.3,0.1,0.4c0.1,0.2,0.3,0.4,0.4,0.5c0.2,0.1,0.4,0.6,0.6,0.6c0.2,0,0.4-0.1,0.5-0.1
					c0.2,0,0.4,0,0.6-0.1c0.2-0.1,0.1-0.3,0.3-0.5C2.8-39,3-39,3.1-39c0.2-0.1,0.3-0.3,0.4-0.5c0-0.1,0-0.1,0-0.2
					c0-0.1,0.1-0.2,0.1-0.3c0-0.1-0.1-0.1-0.1-0.2c0-0.1,0-0.2,0-0.3c0-0.2,0-0.4-0.1-0.5c-0.4-0.7-1.2-0.9-2-0.8
					c-0.2,0-0.3,0.1-0.4,0.2c-0.2,0.1-0.1,0.2-0.3,0.2c-0.1,0-0.2,0.1-0.2,0.2C0.5-41.1,0.5-41.1,0.5-41C0.5-41,0.5-41,0.5-41"/>
			</g>
			<g>
				<path class="st2" d="M69.4-33.4c0,0.1,0,0.1,0,0.2c-0.1,0.1-0.1,0.1-0.2,0.1c-0.1,0.1-0.1,0.3-0.1,0.4c-0.2,0.1,0,0.2,0,0.3
					c0,0,0,0.1,0,0.2c0,0.1,0,0.3,0.1,0.4c0.1,0.2,0.3,0.4,0.4,0.5c0.2,0.1,0.4,0.6,0.6,0.6c0.2,0,0.4-0.1,0.5-0.1
					c0.2,0,0.4,0,0.6-0.1c0.2-0.1,0.1-0.3,0.3-0.5c0.1-0.1,0.3,0,0.4-0.1c0.2-0.1,0.3-0.3,0.4-0.5c0-0.1,0-0.1,0-0.2
					c0-0.1,0.1-0.2,0.1-0.3c0-0.1-0.1-0.1-0.1-0.2c0-0.1,0-0.2,0-0.3c0-0.2,0-0.4-0.1-0.5c-0.4-0.7-1.2-0.9-2-0.8
					c-0.2,0-0.3,0.1-0.4,0.2c-0.2,0.1-0.1,0.2-0.3,0.2c-0.1,0-0.2,0.1-0.2,0.2C69.4-33.4,69.4-33.5,69.4-33.4
					C69.4-33.4,69.4-33.4,69.4-33.4"/>
				<path class="st2" d="M61.8-33.4c0,0.1,0,0.1,0,0.2c-0.1,0.1-0.1,0.1-0.2,0.1c-0.1,0.1-0.1,0.3-0.1,0.4c-0.2,0.1,0,0.2,0,0.3
					c0,0,0,0.1,0,0.2c0,0.1,0,0.3,0.1,0.4c0.1,0.2,0.3,0.4,0.4,0.5c0.2,0.1,0.4,0.6,0.6,0.6c0.2,0,0.4-0.1,0.5-0.1
					c0.2,0,0.4,0,0.6-0.1c0.2-0.1,0.1-0.3,0.3-0.5c0.1-0.1,0.3,0,0.4-0.1c0.2-0.1,0.3-0.3,0.4-0.5c0-0.1,0-0.1,0-0.2
					c0-0.1,0.1-0.2,0.1-0.3c0-0.1-0.1-0.1-0.1-0.2c0-0.1,0-0.2,0-0.3c0-0.2,0-0.4-0.1-0.5c-0.4-0.7-1.2-0.9-2-0.8
					c-0.2,0-0.3,0.1-0.4,0.2c-0.2,0.1-0.1,0.2-0.3,0.2c-0.1,0-0.2,0.1-0.2,0.2C61.8-33.4,61.8-33.5,61.8-33.4
					C61.8-33.4,61.8-33.4,61.8-33.4"/>
				<path class="st2" d="M54.1-33.4c0,0.1,0,0.1,0,0.2c-0.1,0.1-0.1,0.1-0.2,0.1c-0.1,0.1-0.1,0.3-0.1,0.4c-0.2,0.1,0,0.2,0,0.3
					c0,0,0,0.1,0,0.2c0,0.1,0,0.3,0.1,0.4c0.1,0.2,0.3,0.4,0.4,0.5c0.2,0.1,0.4,0.6,0.6,0.6c0.2,0,0.4-0.1,0.5-0.1
					c0.2,0,0.4,0,0.6-0.1c0.2-0.1,0.1-0.3,0.3-0.5c0.1-0.1,0.3,0,0.4-0.1c0.2-0.1,0.3-0.3,0.4-0.5c0-0.1,0-0.1,0-0.2
					c0-0.1,0.1-0.2,0.1-0.3c0-0.1-0.1-0.1-0.1-0.2c0-0.1,0-0.2,0-0.3c0-0.2,0-0.4-0.1-0.5c-0.4-0.7-1.2-0.9-2-0.8
					c-0.2,0-0.3,0.1-0.4,0.2c-0.2,0.1-0.1,0.2-0.3,0.2c-0.1,0-0.2,0.1-0.2,0.2C54.1-33.4,54.1-33.5,54.1-33.4
					C54.1-33.4,54.1-33.4,54.1-33.4"/>
				<path class="st2" d="M46.5-33.4c0,0.1,0,0.1,0,0.2c-0.1,0.1-0.1,0.1-0.2,0.1c-0.1,0.1-0.1,0.3-0.1,0.4c-0.2,0.1,0,0.2,0,0.3
					c0,0,0,0.1,0,0.2c0,0.1,0,0.3,0.1,0.4c0.1,0.2,0.3,0.4,0.4,0.5c0.2,0.1,0.4,0.6,0.6,0.6c0.2,0,0.4-0.1,0.5-0.1
					c0.2,0,0.4,0,0.6-0.1c0.2-0.1,0.1-0.3,0.3-0.5c0.1-0.1,0.3,0,0.4-0.1c0.2-0.1,0.3-0.3,0.4-0.5c0-0.1,0-0.1,0-0.2
					c0-0.1,0.1-0.2,0.1-0.3c0-0.1-0.1-0.1-0.1-0.2c0-0.1,0-0.2,0-0.3c0-0.2,0-0.4-0.1-0.5c-0.4-0.7-1.2-0.9-2-0.8
					c-0.2,0-0.3,0.1-0.4,0.2c-0.2,0.1-0.1,0.2-0.3,0.2c-0.1,0-0.2,0.1-0.2,0.2C46.5-33.4,46.5-33.5,46.5-33.4
					C46.5-33.4,46.5-33.4,46.5-33.4"/>
				<path class="st2" d="M38.8-33.4c0,0.1,0,0.1,0,0.2c-0.1,0.1-0.1,0.1-0.2,0.1c-0.1,0.1-0.1,0.3-0.1,0.4c-0.2,0.1,0,0.2,0,0.3
					c0,0,0,0.1,0,0.2c0,0.1,0,0.3,0.1,0.4c0.1,0.2,0.3,0.4,0.4,0.5c0.2,0.1,0.4,0.6,0.6,0.6c0.2,0,0.4-0.1,0.5-0.1
					c0.2,0,0.4,0,0.6-0.1c0.2-0.1,0.1-0.3,0.3-0.5c0.1-0.1,0.3,0,0.4-0.1c0.2-0.1,0.3-0.3,0.4-0.5c0-0.1,0-0.1,0-0.2
					c0-0.1,0.1-0.2,0.1-0.3c0-0.1-0.1-0.1-0.1-0.2c0-0.1,0-0.2,0-0.3c0-0.2,0-0.4-0.1-0.5c-0.4-0.7-1.2-0.9-2-0.8
					c-0.2,0-0.3,0.1-0.4,0.2c-0.2,0.1-0.1,0.2-0.3,0.2c-0.1,0-0.2,0.1-0.2,0.2C38.8-33.4,38.8-33.5,38.8-33.4
					C38.8-33.4,38.8-33.4,38.8-33.4"/>
				<path class="st2" d="M31.1-33.4c0,0.1,0,0.1,0,0.2c-0.1,0.1-0.1,0.1-0.2,0.1c-0.1,0.1-0.1,0.3-0.1,0.4c-0.2,0.1,0,0.2,0,0.3
					c0,0,0,0.1,0,0.2c0,0.1,0,0.3,0.1,0.4c0.1,0.2,0.3,0.4,0.4,0.5c0.2,0.1,0.4,0.6,0.6,0.6c0.2,0,0.4-0.1,0.5-0.1
					c0.2,0,0.4,0,0.6-0.1c0.2-0.1,0.1-0.3,0.3-0.5c0.1-0.1,0.3,0,0.4-0.1c0.2-0.1,0.3-0.3,0.4-0.5c0-0.1,0-0.1,0-0.2
					c0-0.1,0.1-0.2,0.1-0.3c0-0.1-0.1-0.1-0.1-0.2c0-0.1,0-0.2,0-0.3c0-0.2,0-0.4-0.1-0.5c-0.4-0.7-1.2-0.9-2-0.8
					c-0.2,0-0.3,0.1-0.4,0.2c-0.2,0.1-0.1,0.2-0.3,0.2c-0.1,0-0.2,0.1-0.2,0.2C31.1-33.4,31.1-33.5,31.1-33.4
					C31.1-33.4,31.1-33.4,31.1-33.4"/>
				<path class="st2" d="M23.5-33.4c0,0.1,0,0.1,0,0.2c-0.1,0.1-0.1,0.1-0.2,0.1c-0.1,0.1-0.1,0.3-0.1,0.4c-0.2,0.1,0,0.2,0,0.3
					c0,0,0,0.1,0,0.2c0,0.1,0,0.3,0.1,0.4c0.1,0.2,0.3,0.4,0.4,0.5c0.2,0.1,0.4,0.6,0.6,0.6c0.2,0,0.4-0.1,0.5-0.1
					c0.2,0,0.4,0,0.6-0.1c0.2-0.1,0.1-0.3,0.3-0.5c0.1-0.1,0.3,0,0.4-0.1c0.2-0.1,0.3-0.3,0.4-0.5c0-0.1,0-0.1,0-0.2
					c0-0.1,0.1-0.2,0.1-0.3c0-0.1-0.1-0.1-0.1-0.2c0-0.1,0-0.2,0-0.3c0-0.2,0-0.4-0.1-0.5c-0.4-0.7-1.2-0.9-2-0.8
					c-0.2,0-0.3,0.1-0.4,0.2c-0.2,0.1-0.1,0.2-0.3,0.2c-0.1,0-0.2,0.1-0.2,0.2C23.5-33.4,23.5-33.5,23.5-33.4
					C23.5-33.4,23.5-33.4,23.5-33.4"/>
				<path class="st2" d="M15.8-33.4c0,0.1,0,0.1,0,0.2c-0.1,0.1-0.1,0.1-0.2,0.1c-0.1,0.1-0.1,0.3-0.1,0.4c-0.2,0.1,0,0.2,0,0.3
					c0,0,0,0.1,0,0.2c0,0.1,0,0.3,0.1,0.4c0.1,0.2,0.3,0.4,0.4,0.5c0.2,0.1,0.4,0.6,0.6,0.6c0.2,0,0.4-0.1,0.5-0.1
					c0.2,0,0.4,0,0.6-0.1c0.2-0.1,0.1-0.3,0.3-0.5c0.1-0.1,0.3,0,0.4-0.1c0.2-0.1,0.3-0.3,0.4-0.5c0-0.1,0-0.1,0-0.2
					c0-0.1,0.1-0.2,0.1-0.3c0-0.1-0.1-0.1-0.1-0.2c0-0.1,0-0.2,0-0.3c0-0.2,0-0.4-0.1-0.5c-0.4-0.7-1.2-0.9-2-0.8
					c-0.2,0-0.3,0.1-0.4,0.2c-0.2,0.1-0.1,0.2-0.3,0.2c-0.1,0-0.2,0.1-0.2,0.2C15.8-33.4,15.8-33.5,15.8-33.4
					C15.8-33.4,15.8-33.4,15.8-33.4"/>
				<path class="st2" d="M8.2-33.4c0,0.1,0,0.1,0,0.2C8.1-33.1,8-33.1,8-33.1c-0.1,0.1-0.1,0.3-0.1,0.4c-0.2,0.1,0,0.2,0,0.3
					c0,0,0,0.1,0,0.2c0,0.1,0,0.3,0.1,0.4c0.1,0.2,0.3,0.4,0.4,0.5c0.2,0.1,0.4,0.6,0.6,0.6c0.2,0,0.4-0.1,0.5-0.1
					c0.2,0,0.4,0,0.6-0.1c0.2-0.1,0.1-0.3,0.3-0.5c0.1-0.1,0.3,0,0.4-0.1c0.2-0.1,0.3-0.3,0.4-0.5c0-0.1,0-0.1,0-0.2
					c0-0.1,0.1-0.2,0.1-0.3c0-0.1-0.1-0.1-0.1-0.2c0-0.1,0-0.2,0-0.3c0-0.2,0-0.4-0.1-0.5c-0.4-0.7-1.2-0.9-2-0.8
					c-0.2,0-0.3,0.1-0.4,0.2c-0.2,0.1-0.1,0.2-0.3,0.2c-0.1,0-0.2,0.1-0.2,0.2C8.2-33.4,8.2-33.5,8.2-33.4
					C8.1-33.4,8.1-33.4,8.2-33.4"/>
				<path class="st2" d="M0.5-33.4c0,0.1,0,0.1,0,0.2c-0.1,0.1-0.1,0.1-0.2,0.1c-0.1,0.1-0.1,0.3-0.1,0.4c-0.2,0.1,0,0.2,0,0.3
					c0,0,0,0.1,0,0.2c0,0.1,0,0.3,0.1,0.4c0.1,0.2,0.3,0.4,0.4,0.5c0.2,0.1,0.4,0.6,0.6,0.6c0.2,0,0.4-0.1,0.5-0.1
					c0.2,0,0.4,0,0.6-0.1c0.2-0.1,0.1-0.3,0.3-0.5c0.1-0.1,0.3,0,0.4-0.1c0.2-0.1,0.3-0.3,0.4-0.5c0-0.1,0-0.1,0-0.2
					c0-0.1,0.1-0.2,0.1-0.3c0-0.1-0.1-0.1-0.1-0.2c0-0.1,0-0.2,0-0.3c0-0.2,0-0.4-0.1-0.5c-0.4-0.7-1.2-0.9-2-0.8
					c-0.2,0-0.3,0.1-0.4,0.2c-0.2,0.1-0.1,0.2-0.3,0.2c-0.1,0-0.2,0.1-0.2,0.2C0.5-33.4,0.5-33.5,0.5-33.4
					C0.5-33.4,0.5-33.4,0.5-33.4"/>
			</g>
			<g>
				<path class="st2" d="M69.4-25.7c0,0.1,0,0.1,0,0.2c-0.1,0.1-0.1,0.1-0.2,0.1c-0.1,0.1-0.1,0.3-0.1,0.4c-0.2,0.1,0,0.2,0,0.3
					c0,0,0,0.1,0,0.2c0,0.1,0,0.3,0.1,0.4c0.1,0.2,0.3,0.4,0.4,0.5c0.2,0.1,0.4,0.6,0.6,0.6c0.2,0,0.4-0.1,0.5-0.1
					c0.2,0,0.4,0,0.6-0.1c0.2-0.1,0.1-0.3,0.3-0.5c0.1-0.1,0.3,0,0.4-0.1c0.2-0.1,0.3-0.3,0.4-0.5c0-0.1,0-0.1,0-0.2
					c0-0.1,0.1-0.2,0.1-0.3c0-0.1-0.1-0.1-0.1-0.2c0-0.1,0-0.2,0-0.3c0-0.2,0-0.4-0.1-0.5c-0.4-0.7-1.2-0.9-2-0.8
					c-0.2,0-0.3,0.1-0.4,0.2c-0.2,0.1-0.1,0.2-0.3,0.2c-0.1,0-0.2,0.1-0.2,0.2C69.4-25.8,69.4-25.8,69.4-25.7
					C69.4-25.7,69.4-25.7,69.4-25.7"/>
				<path class="st2" d="M61.8-25.7c0,0.1,0,0.1,0,0.2c-0.1,0.1-0.1,0.1-0.2,0.1c-0.1,0.1-0.1,0.3-0.1,0.4c-0.2,0.1,0,0.2,0,0.3
					c0,0,0,0.1,0,0.2c0,0.1,0,0.3,0.1,0.4c0.1,0.2,0.3,0.4,0.4,0.5c0.2,0.1,0.4,0.6,0.6,0.6c0.2,0,0.4-0.1,0.5-0.1
					c0.2,0,0.4,0,0.6-0.1c0.2-0.1,0.1-0.3,0.3-0.5c0.1-0.1,0.3,0,0.4-0.1c0.2-0.1,0.3-0.3,0.4-0.5c0-0.1,0-0.1,0-0.2
					c0-0.1,0.1-0.2,0.1-0.3c0-0.1-0.1-0.1-0.1-0.2c0-0.1,0-0.2,0-0.3c0-0.2,0-0.4-0.1-0.5c-0.4-0.7-1.2-0.9-2-0.8
					c-0.2,0-0.3,0.1-0.4,0.2c-0.2,0.1-0.1,0.2-0.3,0.2c-0.1,0-0.2,0.1-0.2,0.2C61.8-25.8,61.8-25.8,61.8-25.7
					C61.8-25.7,61.8-25.7,61.8-25.7"/>
				<path class="st2" d="M54.1-25.7c0,0.1,0,0.1,0,0.2c-0.1,0.1-0.1,0.1-0.2,0.1c-0.1,0.1-0.1,0.3-0.1,0.4c-0.2,0.1,0,0.2,0,0.3
					c0,0,0,0.1,0,0.2c0,0.1,0,0.3,0.1,0.4c0.1,0.2,0.3,0.4,0.4,0.5c0.2,0.1,0.4,0.6,0.6,0.6c0.2,0,0.4-0.1,0.5-0.1
					c0.2,0,0.4,0,0.6-0.1c0.2-0.1,0.1-0.3,0.3-0.5c0.1-0.1,0.3,0,0.4-0.1c0.2-0.1,0.3-0.3,0.4-0.5c0-0.1,0-0.1,0-0.2
					c0-0.1,0.1-0.2,0.1-0.3c0-0.1-0.1-0.1-0.1-0.2c0-0.1,0-0.2,0-0.3c0-0.2,0-0.4-0.1-0.5c-0.4-0.7-1.2-0.9-2-0.8
					c-0.2,0-0.3,0.1-0.4,0.2c-0.2,0.1-0.1,0.2-0.3,0.2c-0.1,0-0.2,0.1-0.2,0.2C54.1-25.8,54.1-25.8,54.1-25.7
					C54.1-25.7,54.1-25.7,54.1-25.7"/>
				<path class="st2" d="M46.5-25.7c0,0.1,0,0.1,0,0.2c-0.1,0.1-0.1,0.1-0.2,0.1c-0.1,0.1-0.1,0.3-0.1,0.4c-0.2,0.1,0,0.2,0,0.3
					c0,0,0,0.1,0,0.2c0,0.1,0,0.3,0.1,0.4c0.1,0.2,0.3,0.4,0.4,0.5c0.2,0.1,0.4,0.6,0.6,0.6c0.2,0,0.4-0.1,0.5-0.1
					c0.2,0,0.4,0,0.6-0.1c0.2-0.1,0.1-0.3,0.3-0.5c0.1-0.1,0.3,0,0.4-0.1c0.2-0.1,0.3-0.3,0.4-0.5c0-0.1,0-0.1,0-0.2
					c0-0.1,0.1-0.2,0.1-0.3c0-0.1-0.1-0.1-0.1-0.2c0-0.1,0-0.2,0-0.3c0-0.2,0-0.4-0.1-0.5c-0.4-0.7-1.2-0.9-2-0.8
					c-0.2,0-0.3,0.1-0.4,0.2c-0.2,0.1-0.1,0.2-0.3,0.2c-0.1,0-0.2,0.1-0.2,0.2C46.5-25.8,46.5-25.8,46.5-25.7
					C46.5-25.7,46.5-25.7,46.5-25.7"/>
				<path class="st2" d="M38.8-25.7c0,0.1,0,0.1,0,0.2c-0.1,0.1-0.1,0.1-0.2,0.1c-0.1,0.1-0.1,0.3-0.1,0.4c-0.2,0.1,0,0.2,0,0.3
					c0,0,0,0.1,0,0.2c0,0.1,0,0.3,0.1,0.4c0.1,0.2,0.3,0.4,0.4,0.5c0.2,0.1,0.4,0.6,0.6,0.6c0.2,0,0.4-0.1,0.5-0.1
					c0.2,0,0.4,0,0.6-0.1c0.2-0.1,0.1-0.3,0.3-0.5c0.1-0.1,0.3,0,0.4-0.1c0.2-0.1,0.3-0.3,0.4-0.5c0-0.1,0-0.1,0-0.2
					c0-0.1,0.1-0.2,0.1-0.3c0-0.1-0.1-0.1-0.1-0.2c0-0.1,0-0.2,0-0.3c0-0.2,0-0.4-0.1-0.5c-0.4-0.7-1.2-0.9-2-0.8
					c-0.2,0-0.3,0.1-0.4,0.2c-0.2,0.1-0.1,0.2-0.3,0.2c-0.1,0-0.2,0.1-0.2,0.2C38.8-25.8,38.8-25.8,38.8-25.7
					C38.8-25.7,38.8-25.7,38.8-25.7"/>
				<path class="st2" d="M31.1-25.7c0,0.1,0,0.1,0,0.2c-0.1,0.1-0.1,0.1-0.2,0.1c-0.1,0.1-0.1,0.3-0.1,0.4c-0.2,0.1,0,0.2,0,0.3
					c0,0,0,0.1,0,0.2c0,0.1,0,0.3,0.1,0.4c0.1,0.2,0.3,0.4,0.4,0.5c0.2,0.1,0.4,0.6,0.6,0.6c0.2,0,0.4-0.1,0.5-0.1
					c0.2,0,0.4,0,0.6-0.1c0.2-0.1,0.1-0.3,0.3-0.5c0.1-0.1,0.3,0,0.4-0.1c0.2-0.1,0.3-0.3,0.4-0.5c0-0.1,0-0.1,0-0.2
					c0-0.1,0.1-0.2,0.1-0.3c0-0.1-0.1-0.1-0.1-0.2c0-0.1,0-0.2,0-0.3c0-0.2,0-0.4-0.1-0.5c-0.4-0.7-1.2-0.9-2-0.8
					c-0.2,0-0.3,0.1-0.4,0.2c-0.2,0.1-0.1,0.2-0.3,0.2c-0.1,0-0.2,0.1-0.2,0.2C31.1-25.8,31.1-25.8,31.1-25.7
					C31.1-25.7,31.1-25.7,31.1-25.7"/>
				<path class="st2" d="M23.5-25.7c0,0.1,0,0.1,0,0.2c-0.1,0.1-0.1,0.1-0.2,0.1c-0.1,0.1-0.1,0.3-0.1,0.4c-0.2,0.1,0,0.2,0,0.3
					c0,0,0,0.1,0,0.2c0,0.1,0,0.3,0.1,0.4c0.1,0.2,0.3,0.4,0.4,0.5c0.2,0.1,0.4,0.6,0.6,0.6c0.2,0,0.4-0.1,0.5-0.1
					c0.2,0,0.4,0,0.6-0.1c0.2-0.1,0.1-0.3,0.3-0.5c0.1-0.1,0.3,0,0.4-0.1c0.2-0.1,0.3-0.3,0.4-0.5c0-0.1,0-0.1,0-0.2
					c0-0.1,0.1-0.2,0.1-0.3c0-0.1-0.1-0.1-0.1-0.2c0-0.1,0-0.2,0-0.3c0-0.2,0-0.4-0.1-0.5c-0.4-0.7-1.2-0.9-2-0.8
					c-0.2,0-0.3,0.1-0.4,0.2c-0.2,0.1-0.1,0.2-0.3,0.2c-0.1,0-0.2,0.1-0.2,0.2C23.5-25.8,23.5-25.8,23.5-25.7
					C23.5-25.7,23.5-25.7,23.5-25.7"/>
				<path class="st2" d="M15.8-25.7c0,0.1,0,0.1,0,0.2c-0.1,0.1-0.1,0.1-0.2,0.1c-0.1,0.1-0.1,0.3-0.1,0.4c-0.2,0.1,0,0.2,0,0.3
					c0,0,0,0.1,0,0.2c0,0.1,0,0.3,0.1,0.4c0.1,0.2,0.3,0.4,0.4,0.5c0.2,0.1,0.4,0.6,0.6,0.6c0.2,0,0.4-0.1,0.5-0.1
					c0.2,0,0.4,0,0.6-0.1c0.2-0.1,0.1-0.3,0.3-0.5c0.1-0.1,0.3,0,0.4-0.1c0.2-0.1,0.3-0.3,0.4-0.5c0-0.1,0-0.1,0-0.2
					c0-0.1,0.1-0.2,0.1-0.3c0-0.1-0.1-0.1-0.1-0.2c0-0.1,0-0.2,0-0.3c0-0.2,0-0.4-0.1-0.5c-0.4-0.7-1.2-0.9-2-0.8
					c-0.2,0-0.3,0.1-0.4,0.2c-0.2,0.1-0.1,0.2-0.3,0.2c-0.1,0-0.2,0.1-0.2,0.2C15.8-25.8,15.8-25.8,15.8-25.7
					C15.8-25.7,15.8-25.7,15.8-25.7"/>
				<path class="st2" d="M8.2-25.7c0,0.1,0,0.1,0,0.2C8.1-25.4,8-25.5,8-25.4c-0.1,0.1-0.1,0.3-0.1,0.4c-0.2,0.1,0,0.2,0,0.3
					c0,0,0,0.1,0,0.2c0,0.1,0,0.3,0.1,0.4C8-24,8.2-23.8,8.3-23.6c0.2,0.1,0.4,0.6,0.6,0.6c0.2,0,0.4-0.1,0.5-0.1
					c0.2,0,0.4,0,0.6-0.1c0.2-0.1,0.1-0.3,0.3-0.5c0.1-0.1,0.3,0,0.4-0.1c0.2-0.1,0.3-0.3,0.4-0.5c0-0.1,0-0.1,0-0.2
					c0-0.1,0.1-0.2,0.1-0.3c0-0.1-0.1-0.1-0.1-0.2c0-0.1,0-0.2,0-0.3c0-0.2,0-0.4-0.1-0.5c-0.4-0.7-1.2-0.9-2-0.8
					c-0.2,0-0.3,0.1-0.4,0.2c-0.2,0.1-0.1,0.2-0.3,0.2c-0.1,0-0.2,0.1-0.2,0.2C8.2-25.8,8.2-25.8,8.2-25.7
					C8.1-25.7,8.1-25.7,8.2-25.7"/>
				<path class="st2" d="M0.5-25.7c0,0.1,0,0.1,0,0.2c-0.1,0.1-0.1,0.1-0.2,0.1c-0.1,0.1-0.1,0.3-0.1,0.4c-0.2,0.1,0,0.2,0,0.3
					c0,0,0,0.1,0,0.2c0,0.1,0,0.3,0.1,0.4c0.1,0.2,0.3,0.4,0.4,0.5C0.9-23.5,1-23.1,1.3-23c0.2,0,0.4-0.1,0.5-0.1
					c0.2,0,0.4,0,0.6-0.1c0.2-0.1,0.1-0.3,0.3-0.5c0.1-0.1,0.3,0,0.4-0.1c0.2-0.1,0.3-0.3,0.4-0.5c0-0.1,0-0.1,0-0.2
					c0-0.1,0.1-0.2,0.1-0.3c0-0.1-0.1-0.1-0.1-0.2c0-0.1,0-0.2,0-0.3c0-0.2,0-0.4-0.1-0.5c-0.4-0.7-1.2-0.9-2-0.8
					c-0.2,0-0.3,0.1-0.4,0.2c-0.2,0.1-0.1,0.2-0.3,0.2c-0.1,0-0.2,0.1-0.2,0.2C0.5-25.8,0.5-25.8,0.5-25.7
					C0.5-25.7,0.5-25.7,0.5-25.7"/>
			</g>
			<g>
				<path class="st2" d="M69.4-18.1c0,0.1,0,0.1,0,0.2c-0.1,0.1-0.1,0.1-0.2,0.1c-0.1,0.1-0.1,0.3-0.1,0.4c-0.2,0.1,0,0.2,0,0.3
					c0,0,0,0.1,0,0.2c0,0.1,0,0.3,0.1,0.4c0.1,0.2,0.3,0.4,0.4,0.5c0.2,0.1,0.4,0.6,0.6,0.6c0.2,0,0.4-0.1,0.5-0.1
					c0.2,0,0.4,0,0.6-0.1c0.2-0.1,0.1-0.3,0.3-0.5c0.1-0.1,0.3,0,0.4-0.1c0.2-0.1,0.3-0.3,0.4-0.5c0-0.1,0-0.1,0-0.2
					c0-0.1,0.1-0.2,0.1-0.3c0-0.1-0.1-0.1-0.1-0.2c0-0.1,0-0.2,0-0.3c0-0.2,0-0.4-0.1-0.5c-0.4-0.7-1.2-0.9-2-0.8
					c-0.2,0-0.3,0.1-0.4,0.2c-0.2,0.1-0.1,0.2-0.3,0.2c-0.1,0-0.2,0.1-0.2,0.2C69.4-18.1,69.4-18.2,69.4-18.1
					C69.4-18,69.4-18.1,69.4-18.1"/>
				<path class="st2" d="M61.8-18.1c0,0.1,0,0.1,0,0.2c-0.1,0.1-0.1,0.1-0.2,0.1c-0.1,0.1-0.1,0.3-0.1,0.4c-0.2,0.1,0,0.2,0,0.3
					c0,0,0,0.1,0,0.2c0,0.1,0,0.3,0.1,0.4c0.1,0.2,0.3,0.4,0.4,0.5c0.2,0.1,0.4,0.6,0.6,0.6c0.2,0,0.4-0.1,0.5-0.1
					c0.2,0,0.4,0,0.6-0.1c0.2-0.1,0.1-0.3,0.3-0.5c0.1-0.1,0.3,0,0.4-0.1c0.2-0.1,0.3-0.3,0.4-0.5c0-0.1,0-0.1,0-0.2
					c0-0.1,0.1-0.2,0.1-0.3c0-0.1-0.1-0.1-0.1-0.2c0-0.1,0-0.2,0-0.3c0-0.2,0-0.4-0.1-0.5c-0.4-0.7-1.2-0.9-2-0.8
					c-0.2,0-0.3,0.1-0.4,0.2c-0.2,0.1-0.1,0.2-0.3,0.2c-0.1,0-0.2,0.1-0.2,0.2C61.8-18.1,61.8-18.2,61.8-18.1
					C61.8-18,61.8-18.1,61.8-18.1"/>
				<path class="st2" d="M54.1-18.1c0,0.1,0,0.1,0,0.2c-0.1,0.1-0.1,0.1-0.2,0.1c-0.1,0.1-0.1,0.3-0.1,0.4c-0.2,0.1,0,0.2,0,0.3
					c0,0,0,0.1,0,0.2c0,0.1,0,0.3,0.1,0.4c0.1,0.2,0.3,0.4,0.4,0.5c0.2,0.1,0.4,0.6,0.6,0.6c0.2,0,0.4-0.1,0.5-0.1
					c0.2,0,0.4,0,0.6-0.1c0.2-0.1,0.1-0.3,0.3-0.5c0.1-0.1,0.3,0,0.4-0.1c0.2-0.1,0.3-0.3,0.4-0.5c0-0.1,0-0.1,0-0.2
					c0-0.1,0.1-0.2,0.1-0.3c0-0.1-0.1-0.1-0.1-0.2c0-0.1,0-0.2,0-0.3c0-0.2,0-0.4-0.1-0.5c-0.4-0.7-1.2-0.9-2-0.8
					c-0.2,0-0.3,0.1-0.4,0.2c-0.2,0.1-0.1,0.2-0.3,0.2c-0.1,0-0.2,0.1-0.2,0.2C54.1-18.1,54.1-18.2,54.1-18.1
					C54.1-18,54.1-18.1,54.1-18.1"/>
				<path class="st2" d="M46.5-18.1c0,0.1,0,0.1,0,0.2c-0.1,0.1-0.1,0.1-0.2,0.1c-0.1,0.1-0.1,0.3-0.1,0.4c-0.2,0.1,0,0.2,0,0.3
					c0,0,0,0.1,0,0.2c0,0.1,0,0.3,0.1,0.4c0.1,0.2,0.3,0.4,0.4,0.5c0.2,0.1,0.4,0.6,0.6,0.6c0.2,0,0.4-0.1,0.5-0.1
					c0.2,0,0.4,0,0.6-0.1c0.2-0.1,0.1-0.3,0.3-0.5c0.1-0.1,0.3,0,0.4-0.1c0.2-0.1,0.3-0.3,0.4-0.5c0-0.1,0-0.1,0-0.2
					c0-0.1,0.1-0.2,0.1-0.3c0-0.1-0.1-0.1-0.1-0.2c0-0.1,0-0.2,0-0.3c0-0.2,0-0.4-0.1-0.5c-0.4-0.7-1.2-0.9-2-0.8
					c-0.2,0-0.3,0.1-0.4,0.2c-0.2,0.1-0.1,0.2-0.3,0.2c-0.1,0-0.2,0.1-0.2,0.2C46.5-18.1,46.5-18.2,46.5-18.1
					C46.5-18,46.5-18.1,46.5-18.1"/>
				<path class="st2" d="M38.8-18.1c0,0.1,0,0.1,0,0.2c-0.1,0.1-0.1,0.1-0.2,0.1c-0.1,0.1-0.1,0.3-0.1,0.4c-0.2,0.1,0,0.2,0,0.3
					c0,0,0,0.1,0,0.2c0,0.1,0,0.3,0.1,0.4c0.1,0.2,0.3,0.4,0.4,0.5c0.2,0.1,0.4,0.6,0.6,0.6c0.2,0,0.4-0.1,0.5-0.1
					c0.2,0,0.4,0,0.6-0.1c0.2-0.1,0.1-0.3,0.3-0.5c0.1-0.1,0.3,0,0.4-0.1c0.2-0.1,0.3-0.3,0.4-0.5c0-0.1,0-0.1,0-0.2
					c0-0.1,0.1-0.2,0.1-0.3c0-0.1-0.1-0.1-0.1-0.2c0-0.1,0-0.2,0-0.3c0-0.2,0-0.4-0.1-0.5c-0.4-0.7-1.2-0.9-2-0.8
					c-0.2,0-0.3,0.1-0.4,0.2c-0.2,0.1-0.1,0.2-0.3,0.2c-0.1,0-0.2,0.1-0.2,0.2C38.8-18.1,38.8-18.2,38.8-18.1
					C38.8-18,38.8-18.1,38.8-18.1"/>
				<path class="st2" d="M31.1-18.1c0,0.1,0,0.1,0,0.2c-0.1,0.1-0.1,0.1-0.2,0.1c-0.1,0.1-0.1,0.3-0.1,0.4c-0.2,0.1,0,0.2,0,0.3
					c0,0,0,0.1,0,0.2c0,0.1,0,0.3,0.1,0.4c0.1,0.2,0.3,0.4,0.4,0.5c0.2,0.1,0.4,0.6,0.6,0.6c0.2,0,0.4-0.1,0.5-0.1
					c0.2,0,0.4,0,0.6-0.1c0.2-0.1,0.1-0.3,0.3-0.5c0.1-0.1,0.3,0,0.4-0.1c0.2-0.1,0.3-0.3,0.4-0.5c0-0.1,0-0.1,0-0.2
					c0-0.1,0.1-0.2,0.1-0.3c0-0.1-0.1-0.1-0.1-0.2c0-0.1,0-0.2,0-0.3c0-0.2,0-0.4-0.1-0.5c-0.4-0.7-1.2-0.9-2-0.8
					c-0.2,0-0.3,0.1-0.4,0.2c-0.2,0.1-0.1,0.2-0.3,0.2c-0.1,0-0.2,0.1-0.2,0.2C31.1-18.1,31.1-18.2,31.1-18.1
					C31.1-18,31.1-18.1,31.1-18.1"/>
				<path class="st2" d="M23.5-18.1c0,0.1,0,0.1,0,0.2c-0.1,0.1-0.1,0.1-0.2,0.1c-0.1,0.1-0.1,0.3-0.1,0.4c-0.2,0.1,0,0.2,0,0.3
					c0,0,0,0.1,0,0.2c0,0.1,0,0.3,0.1,0.4c0.1,0.2,0.3,0.4,0.4,0.5c0.2,0.1,0.4,0.6,0.6,0.6c0.2,0,0.4-0.1,0.5-0.1
					c0.2,0,0.4,0,0.6-0.1c0.2-0.1,0.1-0.3,0.3-0.5c0.1-0.1,0.3,0,0.4-0.1c0.2-0.1,0.3-0.3,0.4-0.5c0-0.1,0-0.1,0-0.2
					c0-0.1,0.1-0.2,0.1-0.3c0-0.1-0.1-0.1-0.1-0.2c0-0.1,0-0.2,0-0.3c0-0.2,0-0.4-0.1-0.5c-0.4-0.7-1.2-0.9-2-0.8
					c-0.2,0-0.3,0.1-0.4,0.2c-0.2,0.1-0.1,0.2-0.3,0.2c-0.1,0-0.2,0.1-0.2,0.2C23.5-18.1,23.5-18.2,23.5-18.1
					C23.5-18,23.5-18.1,23.5-18.1"/>
				<path class="st2" d="M15.8-18.1c0,0.1,0,0.1,0,0.2c-0.1,0.1-0.1,0.1-0.2,0.1c-0.1,0.1-0.1,0.3-0.1,0.4c-0.2,0.1,0,0.2,0,0.3
					c0,0,0,0.1,0,0.2c0,0.1,0,0.3,0.1,0.4c0.1,0.2,0.3,0.4,0.4,0.5c0.2,0.1,0.4,0.6,0.6,0.6c0.2,0,0.4-0.1,0.5-0.1
					c0.2,0,0.4,0,0.6-0.1c0.2-0.1,0.1-0.3,0.3-0.5c0.1-0.1,0.3,0,0.4-0.1c0.2-0.1,0.3-0.3,0.4-0.5c0-0.1,0-0.1,0-0.2
					c0-0.1,0.1-0.2,0.1-0.3c0-0.1-0.1-0.1-0.1-0.2c0-0.1,0-0.2,0-0.3c0-0.2,0-0.4-0.1-0.5c-0.4-0.7-1.2-0.9-2-0.8
					c-0.2,0-0.3,0.1-0.4,0.2c-0.2,0.1-0.1,0.2-0.3,0.2c-0.1,0-0.2,0.1-0.2,0.2C15.8-18.1,15.8-18.2,15.8-18.1
					C15.8-18,15.8-18.1,15.8-18.1"/>
				<path class="st2" d="M8.2-18.1c0,0.1,0,0.1,0,0.2C8.1-17.8,8-17.8,8-17.8c-0.1,0.1-0.1,0.3-0.1,0.4c-0.2,0.1,0,0.2,0,0.3
					c0,0,0,0.1,0,0.2c0,0.1,0,0.3,0.1,0.4C8-16.3,8.2-16.1,8.3-16c0.2,0.1,0.4,0.6,0.6,0.6c0.2,0,0.4-0.1,0.5-0.1
					c0.2,0,0.4,0,0.6-0.1c0.2-0.1,0.1-0.3,0.3-0.5c0.1-0.1,0.3,0,0.4-0.1c0.2-0.1,0.3-0.3,0.4-0.5c0-0.1,0-0.1,0-0.2
					c0-0.1,0.1-0.2,0.1-0.3c0-0.1-0.1-0.1-0.1-0.2c0-0.1,0-0.2,0-0.3c0-0.2,0-0.4-0.1-0.5c-0.4-0.7-1.2-0.9-2-0.8
					c-0.2,0-0.3,0.1-0.4,0.2c-0.2,0.1-0.1,0.2-0.3,0.2c-0.1,0-0.2,0.1-0.2,0.2C8.2-18.1,8.2-18.2,8.2-18.1C8.1-18,8.1-18.1,8.2-18.1
					"/>
				<path class="st2" d="M0.5-18.1c0,0.1,0,0.1,0,0.2c-0.1,0.1-0.1,0.1-0.2,0.1c-0.1,0.1-0.1,0.3-0.1,0.4c-0.2,0.1,0,0.2,0,0.3
					c0,0,0,0.1,0,0.2c0,0.1,0,0.3,0.1,0.4c0.1,0.2,0.3,0.4,0.4,0.5c0.2,0.1,0.4,0.6,0.6,0.6c0.2,0,0.4-0.1,0.5-0.1
					c0.2,0,0.4,0,0.6-0.1c0.2-0.1,0.1-0.3,0.3-0.5C2.8-16.1,3-16,3.1-16c0.2-0.1,0.3-0.3,0.4-0.5c0-0.1,0-0.1,0-0.2
					c0-0.1,0.1-0.2,0.1-0.3c0-0.1-0.1-0.1-0.1-0.2c0-0.1,0-0.2,0-0.3c0-0.2,0-0.4-0.1-0.5c-0.4-0.7-1.2-0.9-2-0.8
					c-0.2,0-0.3,0.1-0.4,0.2c-0.2,0.1-0.1,0.2-0.3,0.2c-0.1,0-0.2,0.1-0.2,0.2C0.5-18.1,0.5-18.2,0.5-18.1C0.5-18,0.5-18.1,0.5-18.1
					"/>
			</g>
			<g>
				<path class="st2" d="M69.4-10.4c0,0.1,0,0.1,0,0.2c-0.1,0.1-0.1,0.1-0.2,0.1c-0.1,0.1-0.1,0.3-0.1,0.4c-0.2,0.1,0,0.2,0,0.3
					c0,0,0,0.1,0,0.2c0,0.1,0,0.3,0.1,0.4c0.1,0.2,0.3,0.4,0.4,0.5c0.2,0.1,0.4,0.6,0.6,0.6c0.2,0,0.4-0.1,0.5-0.1
					c0.2,0,0.4,0,0.6-0.1c0.2-0.1,0.1-0.3,0.3-0.5c0.1-0.1,0.3,0,0.4-0.1c0.2-0.1,0.3-0.3,0.4-0.5c0-0.1,0-0.1,0-0.2
					c0-0.1,0.1-0.2,0.1-0.3c0-0.1-0.1-0.1-0.1-0.2c0-0.1,0-0.2,0-0.3c0-0.2,0-0.4-0.1-0.5c-0.4-0.7-1.2-0.9-2-0.8
					c-0.2,0-0.3,0.1-0.4,0.2c-0.2,0.1-0.1,0.2-0.3,0.2c-0.1,0-0.2,0.1-0.2,0.2C69.4-10.5,69.4-10.5,69.4-10.4
					C69.4-10.4,69.4-10.4,69.4-10.4"/>
				<path class="st2" d="M61.8-10.4c0,0.1,0,0.1,0,0.2c-0.1,0.1-0.1,0.1-0.2,0.1c-0.1,0.1-0.1,0.3-0.1,0.4c-0.2,0.1,0,0.2,0,0.3
					c0,0,0,0.1,0,0.2c0,0.1,0,0.3,0.1,0.4c0.1,0.2,0.3,0.4,0.4,0.5c0.2,0.1,0.4,0.6,0.6,0.6c0.2,0,0.4-0.1,0.5-0.1
					c0.2,0,0.4,0,0.6-0.1C63.9-8,63.8-8.2,64-8.3c0.1-0.1,0.3,0,0.4-0.1c0.2-0.1,0.3-0.3,0.4-0.5c0-0.1,0-0.1,0-0.2
					c0-0.1,0.1-0.2,0.1-0.3c0-0.1-0.1-0.1-0.1-0.2c0-0.1,0-0.2,0-0.3c0-0.2,0-0.4-0.1-0.5c-0.4-0.7-1.2-0.9-2-0.8
					c-0.2,0-0.3,0.1-0.4,0.2c-0.2,0.1-0.1,0.2-0.3,0.2c-0.1,0-0.2,0.1-0.2,0.2C61.8-10.5,61.8-10.5,61.8-10.4
					C61.8-10.4,61.8-10.4,61.8-10.4"/>
				<path class="st2" d="M54.1-10.4c0,0.1,0,0.1,0,0.2c-0.1,0.1-0.1,0.1-0.2,0.1c-0.1,0.1-0.1,0.3-0.1,0.4c-0.2,0.1,0,0.2,0,0.3
					c0,0,0,0.1,0,0.2c0,0.1,0,0.3,0.1,0.4c0.1,0.2,0.3,0.4,0.4,0.5c0.2,0.1,0.4,0.6,0.6,0.6c0.2,0,0.4-0.1,0.5-0.1
					c0.2,0,0.4,0,0.6-0.1c0.2-0.1,0.1-0.3,0.3-0.5c0.1-0.1,0.3,0,0.4-0.1c0.2-0.1,0.3-0.3,0.4-0.5c0-0.1,0-0.1,0-0.2
					c0-0.1,0.1-0.2,0.1-0.3c0-0.1-0.1-0.1-0.1-0.2c0-0.1,0-0.2,0-0.3c0-0.2,0-0.4-0.1-0.5c-0.4-0.7-1.2-0.9-2-0.8
					c-0.2,0-0.3,0.1-0.4,0.2c-0.2,0.1-0.1,0.2-0.3,0.2c-0.1,0-0.2,0.1-0.2,0.2C54.1-10.5,54.1-10.5,54.1-10.4
					C54.1-10.4,54.1-10.4,54.1-10.4"/>
				<path class="st2" d="M46.5-10.4c0,0.1,0,0.1,0,0.2c-0.1,0.1-0.1,0.1-0.2,0.1c-0.1,0.1-0.1,0.3-0.1,0.4c-0.2,0.1,0,0.2,0,0.3
					c0,0,0,0.1,0,0.2c0,0.1,0,0.3,0.1,0.4c0.1,0.2,0.3,0.4,0.4,0.5c0.2,0.1,0.4,0.6,0.6,0.6c0.2,0,0.4-0.1,0.5-0.1
					c0.2,0,0.4,0,0.6-0.1c0.2-0.1,0.1-0.3,0.3-0.5c0.1-0.1,0.3,0,0.4-0.1c0.2-0.1,0.3-0.3,0.4-0.5c0-0.1,0-0.1,0-0.2
					c0-0.1,0.1-0.2,0.1-0.3c0-0.1-0.1-0.1-0.1-0.2c0-0.1,0-0.2,0-0.3c0-0.2,0-0.4-0.1-0.5c-0.4-0.7-1.2-0.9-2-0.8
					c-0.2,0-0.3,0.1-0.4,0.2c-0.2,0.1-0.1,0.2-0.3,0.2c-0.1,0-0.2,0.1-0.2,0.2C46.5-10.5,46.5-10.5,46.5-10.4
					C46.5-10.4,46.5-10.4,46.5-10.4"/>
				<path class="st2" d="M38.8-10.4c0,0.1,0,0.1,0,0.2c-0.1,0.1-0.1,0.1-0.2,0.1c-0.1,0.1-0.1,0.3-0.1,0.4c-0.2,0.1,0,0.2,0,0.3
					c0,0,0,0.1,0,0.2c0,0.1,0,0.3,0.1,0.4c0.1,0.2,0.3,0.4,0.4,0.5c0.2,0.1,0.4,0.6,0.6,0.6c0.2,0,0.4-0.1,0.5-0.1
					c0.2,0,0.4,0,0.6-0.1C40.9-8,40.8-8.2,41-8.3c0.1-0.1,0.3,0,0.4-0.1c0.2-0.1,0.3-0.3,0.4-0.5c0-0.1,0-0.1,0-0.2
					c0-0.1,0.1-0.2,0.1-0.3c0-0.1-0.1-0.1-0.1-0.2c0-0.1,0-0.2,0-0.3c0-0.2,0-0.4-0.1-0.5c-0.4-0.7-1.2-0.9-2-0.8
					c-0.2,0-0.3,0.1-0.4,0.2c-0.2,0.1-0.1,0.2-0.3,0.2c-0.1,0-0.2,0.1-0.2,0.2C38.8-10.5,38.8-10.5,38.8-10.4
					C38.8-10.4,38.8-10.4,38.8-10.4"/>
				<path class="st2" d="M31.1-10.4c0,0.1,0,0.1,0,0.2c-0.1,0.1-0.1,0.1-0.2,0.1c-0.1,0.1-0.1,0.3-0.1,0.4c-0.2,0.1,0,0.2,0,0.3
					c0,0,0,0.1,0,0.2c0,0.1,0,0.3,0.1,0.4c0.1,0.2,0.3,0.4,0.4,0.5c0.2,0.1,0.4,0.6,0.6,0.6c0.2,0,0.4-0.1,0.5-0.1
					c0.2,0,0.4,0,0.6-0.1c0.2-0.1,0.1-0.3,0.3-0.5c0.1-0.1,0.3,0,0.4-0.1c0.2-0.1,0.3-0.3,0.4-0.5c0-0.1,0-0.1,0-0.2
					c0-0.1,0.1-0.2,0.1-0.3c0-0.1-0.1-0.1-0.1-0.2c0-0.1,0-0.2,0-0.3c0-0.2,0-0.4-0.1-0.5c-0.4-0.7-1.2-0.9-2-0.8
					c-0.2,0-0.3,0.1-0.4,0.2c-0.2,0.1-0.1,0.2-0.3,0.2c-0.1,0-0.2,0.1-0.2,0.2C31.1-10.5,31.1-10.5,31.1-10.4
					C31.1-10.4,31.1-10.4,31.1-10.4"/>
				<path class="st2" d="M23.5-10.4c0,0.1,0,0.1,0,0.2c-0.1,0.1-0.1,0.1-0.2,0.1c-0.1,0.1-0.1,0.3-0.1,0.4c-0.2,0.1,0,0.2,0,0.3
					c0,0,0,0.1,0,0.2c0,0.1,0,0.3,0.1,0.4c0.1,0.2,0.3,0.4,0.4,0.5c0.2,0.1,0.4,0.6,0.6,0.6c0.2,0,0.4-0.1,0.5-0.1
					c0.2,0,0.4,0,0.6-0.1c0.2-0.1,0.1-0.3,0.3-0.5c0.1-0.1,0.3,0,0.4-0.1c0.2-0.1,0.3-0.3,0.4-0.5c0-0.1,0-0.1,0-0.2
					c0-0.1,0.1-0.2,0.1-0.3c0-0.1-0.1-0.1-0.1-0.2c0-0.1,0-0.2,0-0.3c0-0.2,0-0.4-0.1-0.5c-0.4-0.7-1.2-0.9-2-0.8
					c-0.2,0-0.3,0.1-0.4,0.2c-0.2,0.1-0.1,0.2-0.3,0.2c-0.1,0-0.2,0.1-0.2,0.2C23.5-10.5,23.5-10.5,23.5-10.4
					C23.5-10.4,23.5-10.4,23.5-10.4"/>
				<path class="st2" d="M15.8-10.4c0,0.1,0,0.1,0,0.2c-0.1,0.1-0.1,0.1-0.2,0.1c-0.1,0.1-0.1,0.3-0.1,0.4c-0.2,0.1,0,0.2,0,0.3
					c0,0,0,0.1,0,0.2c0,0.1,0,0.3,0.1,0.4c0.1,0.2,0.3,0.4,0.4,0.5c0.2,0.1,0.4,0.6,0.6,0.6c0.2,0,0.4-0.1,0.5-0.1
					c0.2,0,0.4,0,0.6-0.1C17.9-8,17.8-8.2,18-8.3c0.1-0.1,0.3,0,0.4-0.1c0.2-0.1,0.3-0.3,0.4-0.5c0-0.1,0-0.1,0-0.2
					c0-0.1,0.1-0.2,0.1-0.3c0-0.1-0.1-0.1-0.1-0.2c0-0.1,0-0.2,0-0.3c0-0.2,0-0.4-0.1-0.5c-0.4-0.7-1.2-0.9-2-0.8
					c-0.2,0-0.3,0.1-0.4,0.2c-0.2,0.1-0.1,0.2-0.3,0.2c-0.1,0-0.2,0.1-0.2,0.2C15.8-10.5,15.8-10.5,15.8-10.4
					C15.8-10.4,15.8-10.4,15.8-10.4"/>
				<path class="st2" d="M8.2-10.4c0,0.1,0,0.1,0,0.2C8.1-10.1,8-10.2,8-10.1C7.9-10,7.9-9.8,7.9-9.8c-0.2,0.1,0,0.2,0,0.3
					c0,0,0,0.1,0,0.2c0,0.1,0,0.3,0.1,0.4C8-8.7,8.2-8.5,8.3-8.3c0.2,0.1,0.4,0.6,0.6,0.6c0.2,0,0.4-0.1,0.5-0.1
					c0.2,0,0.4,0,0.6-0.1c0.2-0.1,0.1-0.3,0.3-0.5c0.1-0.1,0.3,0,0.4-0.1c0.2-0.1,0.3-0.3,0.4-0.5c0-0.1,0-0.1,0-0.2
					c0-0.1,0.1-0.2,0.1-0.3c0-0.1-0.1-0.1-0.1-0.2c0-0.1,0-0.2,0-0.3c0-0.2,0-0.4-0.1-0.5c-0.4-0.7-1.2-0.9-2-0.8
					c-0.2,0-0.3,0.1-0.4,0.2c-0.2,0.1-0.1,0.2-0.3,0.2c-0.1,0-0.2,0.1-0.2,0.2C8.2-10.5,8.2-10.5,8.2-10.4
					C8.1-10.4,8.1-10.4,8.2-10.4"/>
				<path class="st2" d="M0.5-10.4c0,0.1,0,0.1,0,0.2c-0.1,0.1-0.1,0.1-0.2,0.1C0.3-10,0.2-9.8,0.2-9.8c-0.2,0.1,0,0.2,0,0.3
					c0,0,0,0.1,0,0.2c0,0.1,0,0.3,0.1,0.4c0.1,0.2,0.3,0.4,0.4,0.5C0.9-8.2,1-7.8,1.3-7.7c0.2,0,0.4-0.1,0.5-0.1
					c0.2,0,0.4,0,0.6-0.1C2.6-8,2.5-8.2,2.7-8.3c0.1-0.1,0.3,0,0.4-0.1c0.2-0.1,0.3-0.3,0.4-0.5c0-0.1,0-0.1,0-0.2
					c0-0.1,0.1-0.2,0.1-0.3c0-0.1-0.1-0.1-0.1-0.2c0-0.1,0-0.2,0-0.3c0-0.2,0-0.4-0.1-0.5c-0.4-0.7-1.2-0.9-2-0.8
					c-0.2,0-0.3,0.1-0.4,0.2c-0.2,0.1-0.1,0.2-0.3,0.2c-0.1,0-0.2,0.1-0.2,0.2C0.5-10.5,0.5-10.5,0.5-10.4
					C0.5-10.4,0.5-10.4,0.5-10.4"/>
			</g>
		</g>
		<g>
			<path class="st2" d="M69.4-2.8c0,0.1,0,0.1,0,0.2c-0.1,0.1-0.1,0.1-0.2,0.1c-0.1,0.1-0.1,0.3-0.1,0.4c-0.2,0.1,0,0.2,0,0.3
				c0,0,0,0.1,0,0.2c0,0.1,0,0.3,0.1,0.4c0.1,0.2,0.3,0.4,0.4,0.5C69.8-0.5,70-0.1,70.2,0c0.2,0,0.4-0.1,0.5-0.1
				c0.2,0,0.4,0,0.6-0.1c0.2-0.1,0.1-0.3,0.3-0.5c0.1-0.1,0.3,0,0.4-0.1c0.2-0.1,0.3-0.3,0.4-0.5c0-0.1,0-0.1,0-0.2
				c0-0.1,0.1-0.2,0.1-0.3c0-0.1-0.1-0.1-0.1-0.2c0-0.1,0-0.2,0-0.3c0-0.2,0-0.4-0.1-0.5c-0.4-0.7-1.2-0.9-2-0.8
				c-0.2,0-0.3,0.1-0.4,0.2c-0.2,0.1-0.1,0.2-0.3,0.2c-0.1,0-0.2,0.1-0.2,0.2C69.4-2.8,69.4-2.9,69.4-2.8
				C69.4-2.7,69.4-2.8,69.4-2.8"/>
			<path class="st2" d="M61.8-2.8c0,0.1,0,0.1,0,0.2c-0.1,0.1-0.1,0.1-0.2,0.1c-0.1,0.1-0.1,0.3-0.1,0.4c-0.2,0.1,0,0.2,0,0.3
				c0,0,0,0.1,0,0.2c0,0.1,0,0.3,0.1,0.4C61.6-1,61.8-0.8,62-0.7c0.2,0.1,0.4,0.6,0.6,0.6c0.2,0,0.4-0.1,0.5-0.1
				c0.2,0,0.4,0,0.6-0.1c0.2-0.1,0.1-0.3,0.3-0.5c0.1-0.1,0.3,0,0.4-0.1c0.2-0.1,0.3-0.3,0.4-0.5c0-0.1,0-0.1,0-0.2
				c0-0.1,0.1-0.2,0.1-0.3c0-0.1-0.1-0.1-0.1-0.2c0-0.1,0-0.2,0-0.3c0-0.2,0-0.4-0.1-0.5c-0.4-0.7-1.2-0.9-2-0.8
				c-0.2,0-0.3,0.1-0.4,0.2c-0.2,0.1-0.1,0.2-0.3,0.2c-0.1,0-0.2,0.1-0.2,0.2C61.8-2.8,61.8-2.9,61.8-2.8
				C61.8-2.7,61.8-2.8,61.8-2.8"/>
			<path class="st2" d="M54.1-2.8c0,0.1,0,0.1,0,0.2C54-2.5,54-2.5,53.9-2.5c-0.1,0.1-0.1,0.3-0.1,0.4c-0.2,0.1,0,0.2,0,0.3
				c0,0,0,0.1,0,0.2c0,0.1,0,0.3,0.1,0.4C54-1,54.1-0.8,54.3-0.7c0.2,0.1,0.4,0.6,0.6,0.6c0.2,0,0.4-0.1,0.5-0.1
				c0.2,0,0.4,0,0.6-0.1c0.2-0.1,0.1-0.3,0.3-0.5c0.1-0.1,0.3,0,0.4-0.1C56.9-0.8,57-1,57.1-1.2c0-0.1,0-0.1,0-0.2
				c0-0.1,0.1-0.2,0.1-0.3c0-0.1-0.1-0.1-0.1-0.2c0-0.1,0-0.2,0-0.3c0-0.2,0-0.4-0.1-0.5c-0.4-0.7-1.2-0.9-2-0.8
				c-0.2,0-0.3,0.1-0.4,0.2c-0.2,0.1-0.1,0.2-0.3,0.2c-0.1,0-0.2,0.1-0.2,0.2C54.1-2.8,54.1-2.9,54.1-2.8
				C54.1-2.7,54.1-2.8,54.1-2.8"/>
			<path class="st2" d="M46.5-2.8c0,0.1,0,0.1,0,0.2c-0.1,0.1-0.1,0.1-0.2,0.1c-0.1,0.1-0.1,0.3-0.1,0.4c-0.2,0.1,0,0.2,0,0.3
				c0,0,0,0.1,0,0.2c0,0.1,0,0.3,0.1,0.4c0.1,0.2,0.3,0.4,0.4,0.5C46.8-0.5,47-0.1,47.2,0c0.2,0,0.4-0.1,0.5-0.1
				c0.2,0,0.4,0,0.6-0.1c0.2-0.1,0.1-0.3,0.3-0.5c0.1-0.1,0.3,0,0.4-0.1c0.2-0.1,0.3-0.3,0.4-0.5c0-0.1,0-0.1,0-0.2
				c0-0.1,0.1-0.2,0.1-0.3c0-0.1-0.1-0.1-0.1-0.2c0-0.1,0-0.2,0-0.3c0-0.2,0-0.4-0.1-0.5c-0.4-0.7-1.2-0.9-2-0.8
				c-0.2,0-0.3,0.1-0.4,0.2c-0.2,0.1-0.1,0.2-0.3,0.2c-0.1,0-0.2,0.1-0.2,0.2C46.5-2.8,46.5-2.9,46.5-2.8
				C46.5-2.7,46.5-2.8,46.5-2.8"/>
			<path class="st2" d="M38.8-2.8c0,0.1,0,0.1,0,0.2c-0.1,0.1-0.1,0.1-0.2,0.1c-0.1,0.1-0.1,0.3-0.1,0.4c-0.2,0.1,0,0.2,0,0.3
				c0,0,0,0.1,0,0.2c0,0.1,0,0.3,0.1,0.4C38.6-1,38.8-0.8,39-0.7c0.2,0.1,0.4,0.6,0.6,0.6c0.2,0,0.4-0.1,0.5-0.1
				c0.2,0,0.4,0,0.6-0.1c0.2-0.1,0.1-0.3,0.3-0.5c0.1-0.1,0.3,0,0.4-0.1c0.2-0.1,0.3-0.3,0.4-0.5c0-0.1,0-0.1,0-0.2
				c0-0.1,0.1-0.2,0.1-0.3c0-0.1-0.1-0.1-0.1-0.2c0-0.1,0-0.2,0-0.3c0-0.2,0-0.4-0.1-0.5c-0.4-0.7-1.2-0.9-2-0.8
				c-0.2,0-0.3,0.1-0.4,0.2c-0.2,0.1-0.1,0.2-0.3,0.2c-0.1,0-0.2,0.1-0.2,0.2C38.8-2.8,38.8-2.9,38.8-2.8
				C38.8-2.7,38.8-2.8,38.8-2.8"/>
			<path class="st2" d="M31.1-2.8c0,0.1,0,0.1,0,0.2c-0.1,0.1-0.1,0.1-0.2,0.1c-0.1,0.1-0.1,0.3-0.1,0.4c-0.2,0.1,0,0.2,0,0.3
				c0,0,0,0.1,0,0.2c0,0.1,0,0.3,0.1,0.4C31-1,31.1-0.8,31.3-0.7c0.2,0.1,0.4,0.6,0.6,0.6c0.2,0,0.4-0.1,0.5-0.1
				c0.2,0,0.4,0,0.6-0.1c0.2-0.1,0.1-0.3,0.3-0.5c0.1-0.1,0.3,0,0.4-0.1c0.2-0.1,0.3-0.3,0.4-0.5c0-0.1,0-0.1,0-0.2
				c0-0.1,0.1-0.2,0.1-0.3c0-0.1-0.1-0.1-0.1-0.2c0-0.1,0-0.2,0-0.3c0-0.2,0-0.4-0.1-0.5c-0.4-0.7-1.2-0.9-2-0.8
				c-0.2,0-0.3,0.1-0.4,0.2c-0.2,0.1-0.1,0.2-0.3,0.2c-0.1,0-0.2,0.1-0.2,0.2C31.1-2.8,31.1-2.9,31.1-2.8
				C31.1-2.7,31.1-2.8,31.1-2.8"/>
			<path class="st2" d="M23.5-2.8c0,0.1,0,0.1,0,0.2c-0.1,0.1-0.1,0.1-0.2,0.1c-0.1,0.1-0.1,0.3-0.1,0.4c-0.2,0.1,0,0.2,0,0.3
				c0,0,0,0.1,0,0.2c0,0.1,0,0.3,0.1,0.4c0.1,0.2,0.3,0.4,0.4,0.5C23.8-0.5,24-0.1,24.3,0c0.2,0,0.4-0.1,0.5-0.1
				c0.2,0,0.4,0,0.6-0.1c0.2-0.1,0.1-0.3,0.3-0.5c0.1-0.1,0.3,0,0.4-0.1c0.2-0.1,0.3-0.3,0.4-0.5c0-0.1,0-0.1,0-0.2
				c0-0.1,0.1-0.2,0.1-0.3c0-0.1-0.1-0.1-0.1-0.2c0-0.1,0-0.2,0-0.3c0-0.2,0-0.4-0.1-0.5c-0.4-0.7-1.2-0.9-2-0.8
				c-0.2,0-0.3,0.1-0.4,0.2c-0.2,0.1-0.1,0.2-0.3,0.2c-0.1,0-0.2,0.1-0.2,0.2C23.5-2.8,23.5-2.9,23.5-2.8
				C23.5-2.7,23.5-2.8,23.5-2.8"/>
			<path class="st2" d="M15.8-2.8c0,0.1,0,0.1,0,0.2c-0.1,0.1-0.1,0.1-0.2,0.1c-0.1,0.1-0.1,0.3-0.1,0.4c-0.2,0.1,0,0.2,0,0.3
				c0,0,0,0.1,0,0.2c0,0.1,0,0.3,0.1,0.4C15.7-1,15.8-0.8,16-0.7c0.2,0.1,0.4,0.6,0.6,0.6c0.2,0,0.4-0.1,0.5-0.1
				c0.2,0,0.4,0,0.6-0.1c0.2-0.1,0.1-0.3,0.3-0.5c0.1-0.1,0.3,0,0.4-0.1c0.2-0.1,0.3-0.3,0.4-0.5c0-0.1,0-0.1,0-0.2
				c0-0.1,0.1-0.2,0.1-0.3c0-0.1-0.1-0.1-0.1-0.2c0-0.1,0-0.2,0-0.3c0-0.2,0-0.4-0.1-0.5c-0.4-0.7-1.2-0.9-2-0.8
				c-0.2,0-0.3,0.1-0.4,0.2c-0.2,0.1-0.1,0.2-0.3,0.2c-0.1,0-0.2,0.1-0.2,0.2C15.8-2.8,15.8-2.9,15.8-2.8
				C15.8-2.7,15.8-2.8,15.8-2.8"/>
			<path class="st2" d="M8.2-2.8c0,0.1,0,0.1,0,0.2C8.1-2.5,8-2.5,8-2.5C7.9-2.4,7.9-2.2,7.9-2.1c-0.2,0.1,0,0.2,0,0.3
				c0,0,0,0.1,0,0.2c0,0.1,0,0.3,0.1,0.4C8-1,8.2-0.8,8.3-0.7C8.5-0.5,8.7-0.1,8.9,0c0.2,0,0.4-0.1,0.5-0.1c0.2,0,0.4,0,0.6-0.1
				c0.2-0.1,0.1-0.3,0.3-0.5c0.1-0.1,0.3,0,0.4-0.1c0.2-0.1,0.3-0.3,0.4-0.5c0-0.1,0-0.1,0-0.2c0-0.1,0.1-0.2,0.1-0.3
				c0-0.1-0.1-0.1-0.1-0.2c0-0.1,0-0.2,0-0.3c0-0.2,0-0.4-0.1-0.5c-0.4-0.7-1.2-0.9-2-0.8C9-3.5,8.8-3.4,8.7-3.4
				C8.5-3.3,8.6-3.2,8.4-3.1C8.3-3.1,8.2-3,8.2-2.9C8.2-2.8,8.2-2.9,8.2-2.8C8.1-2.7,8.1-2.8,8.2-2.8"/>
			<path class="st2" d="M0.5-2.8c0,0.1,0,0.1,0,0.2C0.4-2.5,0.4-2.5,0.3-2.5C0.3-2.4,0.2-2.2,0.2-2.1c-0.2,0.1,0,0.2,0,0.3
				c0,0,0,0.1,0,0.2c0,0.1,0,0.3,0.1,0.4C0.3-1,0.5-0.8,0.7-0.7C0.9-0.5,1-0.1,1.3,0c0.2,0,0.4-0.1,0.5-0.1c0.2,0,0.4,0,0.6-0.1
				c0.2-0.1,0.1-0.3,0.3-0.5c0.1-0.1,0.3,0,0.4-0.1C3.3-0.8,3.4-1,3.5-1.2c0-0.1,0-0.1,0-0.2c0-0.1,0.1-0.2,0.1-0.3
				c0-0.1-0.1-0.1-0.1-0.2c0-0.1,0-0.2,0-0.3c0-0.2,0-0.4-0.1-0.5c-0.4-0.7-1.2-0.9-2-0.8C1.3-3.5,1.2-3.4,1-3.4
				C0.9-3.3,0.9-3.2,0.7-3.1C0.6-3.1,0.5-3,0.5-2.9C0.5-2.8,0.5-2.9,0.5-2.8C0.5-2.7,0.5-2.8,0.5-2.8"/>
		</g>
	</g>
</pattern>
<g>
	<g>
		<path class="st3" d="M7.1,85.9h7l9,23.6L28,85.9h7.1L28,120.3h-7L12,96.4l-5,23.9H0L7.1,85.9z"/>
		<path class="st3" d="M55.5,120.3h-7c-0.4-0.7-0.5-1.5-0.2-2.6c-1.6,1.3-2.9,2.1-4.1,2.7c-1.4,0.6-3.1,1-4.9,1
			c-5.2,0-7.2-2.6-5.9-7.8c1.1-4.6,4.2-7.3,9.1-8.1c2.4-0.1,4.7-0.5,6.9-1.2c1.2-0.4,2-1.4,2.2-2.9c0.3-1.6-1-2.3-3.8-2.3
			c-2.7,0-4.5,1.4-5.2,4.2h-6.2c1.3-5.9,5.4-8.9,12.4-8.9c2.5,0,4.4,0.3,5.8,0.9c2.8,1.3,3.8,3.6,3.1,7.2l-2.9,13.9
			c-0.2,1.1,0,2.2,0.8,3L55.5,120.3z M50,109.7l0.3-1.5c-0.9,0.5-2,0.8-3.3,1c-1,0.1-2,0.2-3.1,0.4c-0.9,0.2-1.7,0.5-2.4,1.1
			c-0.7,0.6-1.1,1.3-1.3,2.1c-0.1,0.8-0.1,1.4,0.3,1.9c0.3,0.8,1.1,1.2,2.4,1.2c0.4,0,0.8,0,1.3-0.1C47.3,115.4,49.2,113.4,50,109.7
			z"/>
		<path class="st3" d="M66.6,120.3h-6.6l5.3-25.6h6.6l-0.8,3.8h0.1c1.3-1.5,2.5-2.5,3.5-3.2c1.2-0.8,2.6-1.2,4-1.2
			c0.4,0,0.8,0,1.2,0.1c1.4,0.2,2.5,0.6,3.2,1.2c0.5,0.4,1.1,1.2,2,2.5c1.1-1.2,2.2-2.1,3.1-2.7c1.4-0.8,2.9-1.2,4.7-1.2
			c0.6,0,1.2,0.1,1.9,0.2c4.2,0.6,5.8,3.3,4.8,8.2l-3.7,17.7h-6.6l3.6-17.6c0.3-1.6-0.6-2.6-2.7-2.7c-1.6-0.1-2.9,0.4-4.1,1.6
			c-0.9,0.9-1.5,1.9-1.7,3l-3.2,15.7h-6.6l3.6-17.6c0-1.8-1-2.7-3-2.7c-1.2,0-2.3,0.3-3.3,1.1c-1.1,0.9-1.8,2-2.1,3.5L66.6,120.3z"
			/>
		<path class="st3" d="M108.6,120.3H102l5.3-25.6h6.6l-0.8,3.8h0.1c1.3-1.5,2.5-2.5,3.5-3.2c1.2-0.8,2.6-1.2,4-1.2
			c0.4,0,0.8,0,1.2,0.1c1.4,0.2,2.5,0.6,3.2,1.2c0.5,0.4,1.1,1.2,2,2.5c1.1-1.2,2.2-2.1,3.1-2.7c1.4-0.8,2.9-1.2,4.7-1.2
			c0.6,0,1.2,0.1,1.9,0.2c4.2,0.6,5.8,3.3,4.8,8.2l-3.7,17.7h-6.6l3.6-17.6c0.3-1.6-0.6-2.6-2.7-2.7c-1.6-0.1-2.9,0.4-4.1,1.6
			c-0.9,0.9-1.4,1.9-1.7,3l-3.2,15.7h-6.6l3.6-17.6c0-1.8-1-2.7-3-2.7c-1.2,0-2.3,0.3-3.3,1.1c-1.1,0.9-1.8,2-2.1,3.5L108.6,120.3z"
			/>
		<path class="st3" d="M165.6,120.3h-7c-0.4-0.7-0.5-1.5-0.2-2.6c-1.6,1.3-2.9,2.1-4.1,2.7c-1.5,0.6-3.1,1-4.9,1
			c-5.2,0-7.2-2.6-5.9-7.8c1.1-4.6,4.2-7.3,9.1-8.1c2.4-0.1,4.7-0.5,6.9-1.2c1.2-0.4,2-1.4,2.2-2.9c0.3-1.6-1-2.3-3.8-2.3
			c-2.7,0-4.5,1.4-5.2,4.2h-6.2c1.3-5.9,5.4-8.9,12.4-8.9c2.5,0,4.4,0.3,5.8,0.9c2.8,1.3,3.8,3.6,3.1,7.2l-2.9,13.9
			c-0.2,1.1,0,2.2,0.8,3L165.6,120.3z M160.1,109.7l0.3-1.5c-0.9,0.5-2,0.8-3.3,1c-1,0.1-2,0.2-3.1,0.4c-0.9,0.2-1.7,0.5-2.4,1.1
			c-0.7,0.6-1.1,1.3-1.3,2.1c-0.1,0.8-0.1,1.4,0.3,1.9c0.3,0.8,1.1,1.2,2.4,1.2c0.4,0,0.8,0,1.3-0.1
			C157.4,115.4,159.3,113.4,160.1,109.7z"/>
		<path class="st3" d="M208.6,108.6h6.7c-0.4,1.7-1.2,3.5-2.5,5.3c-1.2,1.8-2.6,3.2-4.2,4.2c-3.1,2.1-6.7,3.2-10.8,3.3
			c-3.8,0.1-6.8-0.9-8.9-3.1c-2.1-2.1-3.3-5-3.4-8.8c-0.1-1.8,0.1-3.8,0.6-6c0.5-2.6,1.3-4.8,2.2-6.6c3.9-7.7,9.7-11.5,17.3-11.5
			c3.6,0,6.5,0.9,8.7,2.7c2.9,2.4,4,5.6,3.2,9.5h-6.7c0.2-1.5-0.2-2.9-1-4.1c-1.2-1.7-3.3-2.5-6.4-2.2c-1.6,0.2-3.1,0.7-4.5,1.7
			c-1.4,1-2.6,2.3-3.5,3.8c-0.9,1.5-1.7,3.5-2.3,5.9c-0.7,2.9-0.8,5.3-0.4,7.2c0.6,2.6,1.9,4.3,3.9,5c0.6,0.2,1.4,0.3,2.2,0.4
			c1,0,2-0.1,3-0.4c2.2-0.6,3.9-1.7,5-3.1C207.4,111.2,208,110.1,208.6,108.6z"/>
		<path class="st3" d="M239.4,120.3h-7c-0.4-0.7-0.5-1.5-0.2-2.6c-1.6,1.3-2.9,2.1-4.1,2.7c-1.4,0.6-3.1,1-4.9,1
			c-5.2,0-7.2-2.6-5.9-7.8c1.1-4.6,4.2-7.3,9.1-8.1c2.4-0.1,4.7-0.5,6.9-1.2c1.2-0.4,2-1.4,2.2-2.9c0.3-1.6-1-2.3-3.8-2.3
			c-2.7,0-4.5,1.4-5.2,4.2h-6.2c1.3-5.9,5.4-8.9,12.4-8.9c2.5,0,4.4,0.3,5.8,0.9c2.8,1.3,3.8,3.6,3.1,7.2l-2.9,13.9
			c-0.2,1.1,0,2.2,0.8,3L239.4,120.3z M233.8,109.7l0.3-1.5c-0.9,0.5-2,0.8-3.3,1c-1,0.1-2,0.2-3.1,0.4c-0.9,0.2-1.7,0.5-2.4,1.1
			c-0.7,0.6-1.1,1.3-1.3,2.1c-0.1,0.8-0.1,1.4,0.3,1.9c0.3,0.8,1.1,1.2,2.4,1.2c0.4,0,0.8,0,1.3-0.1
			C231.1,115.4,233,113.4,233.8,109.7z"/>
		<path class="st3" d="M243.9,120.3l5.3-25.6h6.6l-1,5h0.1c0.8-1.5,2.1-2.9,3.9-4c1.6-1,2.9-1.5,4.1-1.5c0.3,0,0.6,0,0.9,0.1
			l-1.4,6.7c-0.9-0.1-1.7-0.1-2.2-0.1c-3.3,0-5.5,1.7-6.6,5l-3,14.4H243.9z"/>
		<path class="st3" d="M283.8,94.7h6.2l-5.4,26.2c-0.3,1.6-1,3-2,4.4c-1,1.4-2.2,2.5-3.6,3.2c-2.3,1.3-5.4,2-9.2,2
			c-3.4,0-5.9-0.7-7.5-2.1c-1.6-1.4-2.1-3.1-1.7-5.2h6.9c-0.1,0.8,0.1,1.4,0.8,2c0.7,0.6,1.8,0.8,3.2,0.8c1.5,0,2.9-0.5,4.3-1.4
			c1.4-0.9,2.2-2.1,2.5-3.5l0.8-3.6c-1.5,1.4-2.7,2.3-3.4,2.7c-1.2,0.7-2.6,1-4.2,1c-1.8,0-3.1-0.2-4.1-0.6c-1-0.4-1.9-1.1-2.7-2.2
			c-1.8-2.4-2.3-5.8-1.4-10.2c1-4.7,3-8.4,6-11c2.6-2.2,5.3-3.3,7.8-3.1c1.7,0.1,3.1,0.6,4,1.4c0.2,0.2,0.9,1.2,1.9,2.9L283.8,94.7z
			 M276.9,100.3c-2.1,0-3.8,1-5.3,2.9c-1.1,1.4-1.9,3.1-2.3,5c-0.4,1.9-0.3,3.5,0.2,5c0.7,1.9,2,2.9,4.1,2.9c2.1,0,3.8-0.9,5.3-2.9
			c1.1-1.4,1.8-3.1,2.2-5c0.4-1.9,0.3-3.6-0.2-5C280.3,101.3,279,100.3,276.9,100.3z"/>
		<path class="st3" d="M302,121.4c-3.6,0-6.3-1-8.2-3.1c-2-2.3-2.6-5.8-1.6-10.4c1-4.6,3-8.1,6-10.4c2.7-2.1,5.8-3.1,9.4-3.1
			c3.6,0,6.3,1,8.2,3.1c2,2.3,2.6,5.8,1.6,10.4c-1,4.6-2.9,8.1-5.9,10.4C308.8,120.3,305.6,121.4,302,121.4z M306.5,100
			c-2.1,0-3.8,1-5.3,2.9c-1.1,1.4-1.9,3.1-2.3,5c-0.4,1.9-0.3,3.5,0.2,5c0.7,1.9,2,2.9,4.1,2.9c2.1,0,3.8-1,5.3-2.9
			c1.1-1.4,1.9-3.1,2.3-5c0.4-1.9,0.3-3.5-0.2-5C309.9,100.9,308.6,100,306.5,100z"/>
	</g>
	<g>
		
			<image style="overflow:visible;opacity:0.75;" width="236" height="235" xlink:href="F615F46A031298A2.png"  transform="matrix(0.6549 6.848294e-02 -6.749520e-02 0.645 345.4511 0)">
		</image>
		<g>
			<g>
				<path class="st4" d="M366,53c-4.3-2.4-8.7-4.8-13-7.2c-0.3-0.2-0.9-0.2-1.1,0.2c-4.8,8.5-7.7,17.7-8.5,27.5
					c0,0.4,0.2,0.7,0.5,0.8c3.9,1.7,7.7,3.5,11.6,5.3c0.5,0.3,1-0.2,1.1-0.7c1.9-8.7,5.2-17,9.6-24.7c0.5-0.9-0.8-1.9-1.3-1
					c-4.5,8-7.9,16.5-9.9,25.5c0.4-0.2,0.7-0.4,1.1-0.7c-2.7-1.3-5.4-2.5-8.2-3.7c-1.7-0.8-2.9-0.9-2.7-3c0.2-1.5,0.4-3.1,0.7-4.6
					c1.2-6.9,3.8-13.6,7.3-19.7c-0.4,0.1-0.8,0.1-1.1,0.2c4.3,2.4,8.7,4.8,13,7.2C366,54.8,367,53.5,366,53z"/>
			</g>
			<g>
				<path class="st4" d="M356.1,78c-3.8-1.8-7.7-3.6-11.6-5.3c-0.5-0.2-1.1,0.2-1.1,0.7c-0.5,7,0.1,13.9,1.7,20.8
					c0.7,3.1,1.7,6,2.9,8.9c0.3,0.7,0.5,2.2,1.4,2.5c1.8,0.7,3.7,1.4,5.5,2.2c0.6,0.2,1.2-0.3,1.1-0.9c-1.7-9.4-1.3-18.8,0.7-28.1
					c0.2-1-1.4-1.2-1.6-0.2c-2,9.4-2.4,19.1-0.7,28.6c0.4-0.3,0.7-0.6,1.1-0.9c-3.1-1.3-5.1-1.7-6.4-4.9c-1.2-3.2-2.1-6.4-2.9-9.7
					c-1.3-5.9-1.6-12.1-1.2-18.1c-0.4,0.2-0.8,0.5-1.1,0.7c3.9,1.7,7.7,3.5,11.6,5.3C356.5,80,357.1,78.5,356.1,78z"/>
			</g>
			<g>
				<path class="st4" d="M421,13.2c-6.4-1-12.9-1-19.3-0.3c-0.7,0.1-0.9,1-0.3,1.5c2.2,1.7,3.9,4.2,6.8,3.2c4.2-1.5,8.6-2.3,13-2.8
					c1-0.1,0.8-1.7-0.3-1.6c-3.3,0.3-6.4,0.9-9.6,1.7c-1.3,0.3-2.6,0.8-3.8,1.2c-1.5,0.5-4-2.2-5.1-3c-0.1,0.5-0.2,1-0.4,1.5
					c6.3-0.8,12.6-0.7,18.9,0.3C421.9,14.9,422,13.3,421,13.2z"/>
			</g>
			<g>
				<path class="st4" d="M355.5,106.4c-1.8-0.7-3.7-1.5-5.5-2.2c-0.7-0.3-1.3,0.4-1,1.1c2.7,5.9,6.1,11.3,10.2,16.2
					c0.6,0.7,1.8,0,1.4-0.8c-2.1-4.4-3.6-8.9-4.6-13.6c-0.2-1-1.8-0.8-1.6,0.3c1,4.9,2.5,9.6,4.7,14c0.5-0.3,0.9-0.6,1.4-0.9
					c-4.1-4.8-7.4-10.1-10-15.8c-0.3,0.4-0.7,0.7-1,1.1c1.8,0.7,3.7,1.4,5.5,2.2C355.9,108.3,356.4,106.8,355.5,106.4z"/>
			</g>
			<g>
				<path class="st4" d="M382.8,31.8c-3.6-2.3-7.1-4.7-10.6-7.1c-0.3-0.2-0.7-0.2-1,0c-7.9,5.7-14.4,12.8-19.3,21.2
					c-0.2,0.3-0.2,0.9,0.2,1.1c4.3,2.4,8.7,4.8,13,7.2c0.4,0.2,0.9,0.2,1.2-0.2c4.5-7.8,10-14.9,16.6-21.1c0.8-0.7-0.3-2-1-1.3
					c-6.7,6.3-12.3,13.5-16.9,21.4c0.4-0.1,0.8-0.1,1.2-0.2c-4.3-2.4-8.7-4.8-13-7.2c0.1,0.4,0.1,0.8,0.2,1.1
					c3.2-5.5,7.1-10.5,11.7-15c1-1,5.9-6.2,7.3-5.2c3.2,2.2,6.4,4.3,9.6,6.4C382.7,33.7,383.7,32.4,382.8,31.8z"/>
			</g>
			<g>
				<path class="st4" d="M407,16.6c-1.6-1.2-3.2-2.3-4.7-3.5c-0.7-0.5-2.1,0.1-2.8,0.2c-3.3,0.5-6.5,1.3-9.7,2.3
					c-6.7,2-12.9,5.3-18.6,9.2c-0.4,0.3-0.4,1,0,1.3c3.5,2.4,7,4.7,10.6,7.1c0.3,0.2,0.7,0.2,1,0c7-6.5,15-11.7,24.1-15.1
					c1-0.4,0.3-1.9-0.7-1.5c-5.9,2.2-11.3,5.2-16.4,8.8c-1.1,0.8-7.1,6.5-8.1,5.8c-3.2-2.1-6.4-4.2-9.5-6.4c0,0.4,0,0.9,0,1.3
					c5-3.5,10.4-6.2,16.2-8.3c3-1.1,6.1-1.9,9.2-2.5c1.3-0.3,3.4-1,4.6-0.1c1.3,1,2.5,1.9,3.8,2.8C406.9,18.5,407.9,17.2,407,16.6z"
					/>
			</g>
			<g>
				<path class="st4" d="M465,79.4c3.9,1.8,7.7,3.6,11.6,5.3c0.5,0.2,1.1-0.2,1.1-0.7c0.5-7-0.1-14-1.7-20.8c-0.7-3-1.7-6-2.9-8.9
					c-0.3-0.7-0.5-2.2-1.4-2.5c-1.8-0.7-3.7-1.4-5.5-2.2c-0.6-0.2-1.2,0.3-1.1,0.9c1.7,9.4,1.3,18.8-0.7,28.1
					c-0.2,1,1.4,1.2,1.6,0.2c2-9.4,2.4-19.1,0.7-28.6c-0.4,0.3-0.7,0.6-1.1,0.9c3.1,1.3,5.1,1.7,6.4,5c1.2,3.1,2.1,6.4,2.9,9.7
					c1.3,5.9,1.6,12.1,1.2,18.1c0.4-0.2,0.7-0.5,1.1-0.7c-3.9-1.7-7.8-3.5-11.6-5.3C464.6,77.5,464.1,79,465,79.4z"/>
			</g>
			<g>
				<path class="st4" d="M400.1,144.3c6.4,1,12.9,1,19.3,0.3c0.7-0.1,0.9-1,0.3-1.5c-2.2-1.7-3.9-4.2-6.8-3.2
					c-4.2,1.5-8.6,2.3-13,2.8c-1.1,0.1-0.8,1.7,0.3,1.6c3.3-0.3,6.4-0.9,9.6-1.7c1.3-0.3,2.6-0.8,3.8-1.2c1.5-0.5,4,2.2,5.1,3
					c0.1-0.5,0.2-1,0.3-1.5c-6.3,0.8-12.6,0.7-18.9-0.3C399.3,142.5,399.1,144.1,400.1,144.3z"/>
			</g>
			<g>
				<path class="st4" d="M414.1,140.9c1.6,1.2,3.2,2.3,4.7,3.5c0.7,0.5,2.1-0.1,2.8-0.2c3.3-0.5,6.5-1.3,9.7-2.3
					c6.7-2,12.9-5.3,18.6-9.2c0.4-0.3,0.4-1,0-1.3c-3.5-2.4-7-4.7-10.6-7.1c-0.3-0.2-0.7-0.2-1,0c-7.1,6.5-15,11.7-24.1,15.1
					c-1,0.4-0.3,1.8,0.7,1.5c5.9-2.2,11.3-5.2,16.4-8.8c1.1-0.8,7.1-6.5,8.1-5.8c3.2,2.1,6.4,4.2,9.5,6.4c0-0.4,0-0.9,0-1.3
					c-5,3.5-10.4,6.2-16.2,8.3c-3,1.1-6.1,1.9-9.2,2.5c-1.3,0.3-3.4,1-4.6,0.1c-1.3-1-2.5-1.9-3.8-2.8
					C414.2,139,413.3,140.3,414.1,140.9z"/>
			</g>
			<g>
				<path class="st4" d="M454.9,103.3c-4.5,7.8-10,14.9-16.6,21.1c-0.4,0.3-0.4,1,0,1.3c3.5,2.3,7.1,4.7,10.6,7.1
					c0.3,0.2,0.7,0.2,1,0c7.9-5.7,14.4-12.8,19.3-21.2c0.2-0.3,0.2-0.9-0.2-1.1c-4.3-2.4-8.7-4.8-13-7.2c-0.9-0.5-1.9,0.8-1,1.3
					c4.3,2.4,8.7,4.8,13,7.2c-0.1-0.4-0.1-0.8-0.2-1.1c-3.2,5.5-7.1,10.5-11.7,15c-1,1-5.9,6.2-7.3,5.2c-3.2-2.2-6.3-4.3-9.6-6.4
					c0,0.4,0,0.9,0,1.3c6.7-6.3,12.3-13.5,16.9-21.4C456.8,103.4,455.4,102.4,454.9,103.3z"/>
			</g>
			<g>
				<path class="st4" d="M455.1,104.4c4.3,2.4,8.7,4.8,13,7.2c0.4,0.2,0.9,0.2,1.2-0.2c4.8-8.5,7.7-17.7,8.5-27.5
					c0-0.4-0.2-0.7-0.5-0.8c-3.9-1.7-7.8-3.5-11.6-5.3c-0.5-0.2-1,0.2-1.1,0.7c-1.9,8.7-5.2,16.9-9.6,24.7c-0.5,0.9,0.8,1.9,1.3,1
					c4.5-8,7.9-16.5,9.9-25.5c-0.4,0.2-0.7,0.4-1.1,0.7c2.7,1.3,5.4,2.5,8.2,3.8c1.8,0.8,2.9,0.9,2.7,3c-0.2,1.5-0.4,3.1-0.7,4.6
					c-1.2,6.9-3.8,13.6-7.3,19.8c0.4-0.1,0.8-0.1,1.2-0.2c-4.3-2.4-8.7-4.8-13-7.2C455.1,102.6,454.2,103.9,455.1,104.4z"/>
			</g>
			<g>
				<path class="st4" d="M465.7,51.1c1.8,0.7,3.6,1.5,5.5,2.2c0.7,0.3,1.3-0.4,1-1.1c-2.7-5.9-6.1-11.3-10.2-16.2
					c-0.6-0.7-1.8,0-1.4,0.8c2.1,4.4,3.6,8.9,4.6,13.6c0.2,1,1.8,0.8,1.6-0.3c-1-4.9-2.5-9.6-4.7-14c-0.5,0.3-0.9,0.5-1.4,0.8
					c4.1,4.8,7.4,10.1,10,15.8c0.3-0.4,0.7-0.7,1-1.1c-1.8-0.7-3.7-1.4-5.5-2.2C465.3,49.2,464.7,50.7,465.7,51.1z"/>
			</g>
			<g>
				<path class="st5" d="M450.2,27.2c3.9,2.9,7.4,6.2,10.5,9.8c0.7,0.8,2-0.2,1.3-1c-3.3-3.7-6.9-7.1-10.8-10.1
					C450.3,25.3,449.4,26.6,450.2,27.2L450.2,27.2z"/>
			</g>
			<g>
				<path class="st5" d="M420.8,14.8c4.8,0.8,9.4,2.1,13.9,3.8c1,0.4,1.6-1.1,0.6-1.5c-4.7-1.8-9.4-3.1-14.4-3.9
					C419.9,13,419.8,14.6,420.8,14.8L420.8,14.8z"/>
			</g>
			<g>
				<path class="st5" d="M400.3,142.7c-4.8-0.8-9.4-2.1-13.9-3.8c-1-0.4-1.6,1.1-0.6,1.5c4.7,1.8,9.4,3.1,14.4,3.9
					C401.2,144.5,401.4,142.9,400.3,142.7L400.3,142.7z"/>
			</g>
			<g>
				<path class="st5" d="M370.9,130.3c-3.8-2.9-7.4-6.2-10.5-9.8c-0.7-0.8-2,0.2-1.3,1c3.2,3.7,6.9,7.1,10.8,10.1
					C370.8,132.2,371.8,130.9,370.9,130.3L370.9,130.3z"/>
			</g>
			<g>
				<path class="st6" d="M386.8,65.5l-21.2-11.8c-4.7,8.2-7.9,16.7-9.7,25.1c6.5,3.1,13.2,6.3,20,9.8
					C378.7,81.1,382.3,73.3,386.8,65.5z"/>
				<g>
					<path class="st4" d="M387.3,64.8C380.2,60.9,373.1,57,366,53c-0.4-0.2-0.9-0.2-1.2,0.2c-4.5,8-7.9,16.5-9.9,25.5
						c-0.1,0.4,0.2,0.7,0.5,0.8c6.7,3.2,13.4,6.4,20,9.8c0.4,0.2,0.9-0.1,1.1-0.5c3-7.9,6.7-15.5,10.9-22.9c0.5-0.9-0.8-1.9-1.3-1
						c-4.2,7.5-8,15.2-11.1,23.3c0.4-0.2,0.7-0.3,1.1-0.5c-3.3-1.7-6.7-3.4-10.1-5.1c-1.8-0.9-3.7-1.8-5.5-2.7
						c-2.6-1.3-3.9-1.1-3.1-4.3c1.9-7.6,5-14.8,8.9-21.6c-0.4,0.1-0.8,0.1-1.2,0.2c7.1,3.9,14.2,7.9,21.2,11.8
						C387.2,66.7,388.2,65.4,387.3,64.8z"/>
				</g>
			</g>
			<g>
				<path class="st4" d="M355,78.7c-1.7,8-2.2,16-1.3,24.1c0.1,1.4,0.2,3.4,0.7,4.7c0.4,0.8,1.9,1,2.6,1.3c4.1,1.7,8.1,3.5,12,5.4
					c0.5,0.2,1.1-0.2,1.1-0.7c1.1-8.5,3.4-16.6,6.4-24.6c0.2-0.5-0.1-0.8-0.5-1.1c-6.6-3.4-13.3-6.6-20-9.8c-1-0.5-1.5,1.1-0.6,1.5
					c6.7,3.2,13.4,6.4,20,9.8c-0.2-0.3-0.3-0.7-0.5-1.1c-3,8.1-5.4,16.4-6.5,25c0.4-0.2,0.8-0.4,1.1-0.7c-2.9-1.4-5.8-2.7-8.8-4
					c-1.4-0.6-2.9-1.2-4.3-1.8c-1.4-0.6-1.2-4.2-1.4-5.4c-0.8-7.5-0.1-15.2,1.5-22.5C356.9,77.8,355.2,77.7,355,78.7z"/>
			</g>
			<g>
				<path class="st4" d="M419.5,113.8c6.3,3.8,12.6,7.8,18.8,11.8c0.3,0.2,0.7,0.2,1,0c6.7-6.3,12.3-13.5,16.9-21.4
					c0.2-0.3,0.2-0.9-0.2-1.1c-7.1-3.9-14.2-7.9-21.2-11.8c-0.3-0.2-0.9-0.2-1.1,0.2c-4.3,7.4-9,14.5-14.3,21.2
					c-0.6,0.8,0.7,1.8,1.3,1c5.3-6.7,10.1-13.8,14.3-21.2c-0.4,0.1-0.8,0.1-1.2,0.2c7.1,3.9,14.2,7.9,21.2,11.8
					c-0.1-0.4-0.1-0.8-0.2-1.1c-4,6.8-8.7,13.2-14.2,18.8c-1.9,1.9-2.2,1.7-4.4,0.3c-1.7-1.1-3.4-2.2-5.2-3.3
					c-3.5-2.2-7.1-4.4-10.6-6.6C419.6,112,418.6,113.3,419.5,113.8z"/>
			</g>
			<g>
				<path class="st4" d="M406,17.9c4.2,3,8.4,5.9,12.8,8.7c0.3,0.2,0.7,0.2,1,0c4.6-3.5,9.6-6.6,15.3-8c0.8-0.2,1-1.3,0.2-1.6
					c-4.7-1.8-9.4-3.1-14.4-3.9c-2.2-0.4-5.3,0.7-7.4,1.1c-2.5,0.5-5,1.3-7.4,2.2c-1,0.4-0.3,1.8,0.7,1.5c4.2-1.5,8.5-2.6,13-3.1
					c4.7-0.5,10.6,2,14.9,3.7c0.1-0.5,0.1-1,0.2-1.6c-4.4,1-8.4,3.1-12.2,5.5c-0.7,0.5-3,2.7-3.9,2.1c-1.4-0.9-2.7-1.8-4-2.7
					c-2.6-1.8-5.2-3.6-7.7-5.4C406.1,16,405.2,17.3,406,17.9z"/>
			</g>
			<g class="st7">
				<path class="st4" d="M466.1,78.8c1.7-8,2.2-16,1.3-24.1c-0.1-1.4-0.2-3.4-0.7-4.7c-0.4-0.8-1.9-1-2.6-1.3
					c-4.1-1.7-8.1-3.5-12-5.4c-0.5-0.2-1.1,0.2-1.1,0.7c-1.1,8.5-3.4,16.6-6.4,24.6c-0.2,0.4,0.1,0.8,0.5,1c6.6,3.4,13.3,6.6,20,9.8
					c1,0.5,1.5-1.1,0.6-1.5c-6.7-3.2-13.4-6.4-20-9.8c0.2,0.4,0.3,0.7,0.5,1.1c3-8.1,5.4-16.4,6.5-25c-0.4,0.2-0.8,0.4-1.1,0.7
					c2.9,1.4,5.8,2.7,8.8,4c1.4,0.6,2.9,1.2,4.3,1.8c1.4,0.6,1.2,4.2,1.4,5.4c0.8,7.5,0.1,15.2-1.5,22.5
					C464.3,79.6,465.9,79.8,466.1,78.8z"/>
			</g>
			<g>
				<path class="st4" d="M401.6,43.6c-6.3-3.8-12.6-7.8-18.8-11.8c-0.3-0.2-0.7-0.2-1,0c-6.7,6.3-12.3,13.5-16.9,21.4
					c-0.2,0.3-0.2,0.9,0.2,1.1c7.1,3.9,14.2,7.9,21.2,11.8c0.4,0.2,0.9,0.2,1.2-0.2c4.3-7.4,9-14.5,14.3-21.2c0.7-0.8-0.7-1.8-1.3-1
					c-5.3,6.7-10.1,13.8-14.3,21.2c0.4-0.1,0.8-0.1,1.2-0.2C380.2,60.9,373.1,57,366,53c0.1,0.4,0.1,0.8,0.2,1.1
					c4-6.8,8.7-13.2,14.2-18.8c1.9-1.9,2.2-1.7,4.4-0.3c1.7,1.1,3.4,2.2,5.2,3.3c3.5,2.2,7.1,4.4,10.6,6.6
					C401.6,45.5,402.5,44.2,401.6,43.6z"/>
			</g>
			<g>
				<path class="st8" d="M419.3,26c-4.5-2.9-8.7-5.8-12.8-8.7c-8.5,3.1-16.8,8.3-24.2,15.2c6,3.9,12.3,7.9,18.8,11.8
					C407.2,36.8,413.4,30.5,419.3,26z"/>
				<g>
					<path class="st4" d="M419.8,25.3c-3.7-2.4-7.3-4.8-10.9-7.4c-0.6-0.4-1.6-1.7-2.5-1.5c-1.7,0.3-3.5,1.4-5.1,2.1
						c-7.2,3.3-13.7,8-19.5,13.3c-0.4,0.3-0.4,1,0,1.3c6.2,4,12.5,8,18.8,11.8c0.4,0.2,0.9,0.2,1.2-0.2c5.4-6.7,11.2-12.9,18-18.2
						c0.8-0.6-0.2-1.9-1-1.3c-6.9,5.4-12.9,11.7-18.3,18.5c0.4-0.1,0.8-0.1,1.2-0.2c-6.3-3.8-12.6-7.8-18.8-11.8c0,0.4,0,0.9,0,1.3
						c5.2-4.8,10.9-8.9,17.3-12.2c1.3-0.7,2.6-1.2,3.9-1.8c2.3-1,3-0.6,4.9,0.8c3.3,2.3,6.6,4.5,9.9,6.7
						C419.7,27.2,420.7,25.9,419.8,25.3z"/>
				</g>
			</g>
			<g class="st7">
				<path class="st4" d="M401.3,132.1c3.7,2.4,7.3,4.8,10.9,7.4c0.6,0.4,1.6,1.7,2.5,1.5c1.7-0.3,3.5-1.4,5.1-2.1
					c7.2-3.3,13.7-8,19.5-13.3c0.4-0.3,0.4-1,0-1.3c-6.2-4.1-12.5-8-18.8-11.8c-0.4-0.2-0.9-0.2-1.2,0.2c-5.4,6.7-11.2,12.9-18,18.2
					c-0.8,0.6,0.2,1.9,1,1.3c6.9-5.4,12.9-11.7,18.3-18.5c-0.4,0.1-0.8,0.1-1.1,0.2c6.3,3.8,12.6,7.8,18.8,11.8c0-0.4,0-0.9,0-1.3
					c-5.2,4.8-10.9,8.9-17.3,12.2c-1.3,0.6-2.6,1.2-3.9,1.8c-2.3,1-2.9,0.6-4.9-0.8c-3.3-2.3-6.6-4.5-9.9-6.7
					C401.4,130.3,400.4,131.6,401.3,132.1z"/>
			</g>
			<g>
				<path class="st4" d="M451.5,44.8c4.7,2.2,9.4,4.3,14.2,6.3c0.6,0.2,1.2-0.3,1.1-0.9c-1-4.9-2.5-9.6-4.7-14
					c-0.9-1.8-3.2-3.6-4.7-5c-1.9-1.9-4-3.6-6.2-5.3c-0.7-0.5-1.5,0.3-1.2,1c1.8,5.5,1.6,11.4,1,17.1c-0.1,1,1.5,1.2,1.6,0.2
					c0.7-6,0.7-12.1-1.2-17.9c-0.4,0.3-0.8,0.7-1.2,1c3.5,2.7,6.8,5.7,9.8,9c3.2,3.5,4.3,9.8,5.2,14.3c0.4-0.3,0.7-0.6,1.1-0.9
					c-4.8-2-9.5-4.1-14.2-6.3C451.1,42.8,450.5,44.4,451.5,44.8z"/>
			</g>
			<g>
				<path class="st4" d="M369.6,112.7c-4.7-2.2-9.4-4.3-14.2-6.3c-0.6-0.2-1.2,0.3-1.1,0.9c1,4.9,2.5,9.5,4.7,14
					c0.9,1.8,3.2,3.6,4.7,5c1.9,1.9,4,3.6,6.2,5.2c0.7,0.5,1.5-0.3,1.2-1c-1.8-5.5-1.6-11.4-1-17.1c0.1-1-1.5-1.2-1.6-0.2
					c-0.6,6-0.7,12.1,1.2,17.9c0.4-0.3,0.8-0.7,1.2-1c-3.5-2.7-6.8-5.7-9.8-9c-3.2-3.5-4.3-9.8-5.2-14.3c-0.4,0.3-0.7,0.6-1.1,0.9
					c4.8,2,9.5,4.1,14.2,6.3C370,114.6,370.6,113.1,369.6,112.7z"/>
			</g>
			<g>
				<path class="st4" d="M444.5,68.6c-3,7.9-6.7,15.5-10.9,22.9c-0.2,0.3-0.2,0.9,0.2,1.1c7.1,3.9,14.2,7.9,21.2,11.8
					c0.4,0.2,0.9,0.2,1.2-0.2c4.5-8,7.9-16.5,9.9-25.5c0.1-0.4-0.2-0.7-0.5-0.8c-6.7-3.2-13.4-6.4-20-9.8c-0.9-0.5-1.5,1-0.6,1.5
					c3.4,1.7,6.7,3.4,10.1,5c1.8,0.9,3.7,1.8,5.5,2.7c2.6,1.3,3.9,1.1,3.1,4.3c-1.9,7.6-5,14.8-8.9,21.6c0.4-0.1,0.8-0.1,1.2-0.2
					c-7.1-3.9-14.2-7.9-21.2-11.8c0.1,0.4,0.1,0.7,0.2,1.1c4.3-7.5,8-15.2,11.1-23.3C446.4,68.2,444.9,67.6,444.5,68.6z"/>
			</g>
			<g>
				<path class="st4" d="M415.1,139.6c-4.2-3-8.4-5.9-12.8-8.7c-0.3-0.2-0.7-0.2-1,0c-4.6,3.5-9.6,6.6-15.4,8
					c-0.8,0.2-1,1.3-0.2,1.6c4.7,1.8,9.4,3.1,14.4,3.9c2.2,0.4,5.3-0.7,7.4-1.1c2.5-0.5,5-1.3,7.4-2.2c1-0.4,0.3-1.8-0.7-1.5
					c-4.2,1.5-8.5,2.5-13,3.1c-4.7,0.5-10.6-2.1-14.9-3.7c-0.1,0.5-0.1,1-0.2,1.6c4.4-1,8.4-3.1,12.2-5.5c0.7-0.5,3-2.7,3.9-2.1
					c1.4,0.9,2.7,1.8,4,2.7c2.6,1.7,5.2,3.6,7.7,5.4C415,141.5,416,140.2,415.1,139.6z"/>
			</g>
			<g>
				<path class="st4" d="M434.7,18.6c2.7,1.1,5.4,2.3,7.9,3.7c0.9,0.5,1.9-0.8,1-1.3c-2.7-1.5-5.5-2.8-8.3-3.9
					C434.4,16.7,433.8,18.2,434.7,18.6L434.7,18.6z"/>
			</g>
			<g>
				<path class="st5" d="M442.7,22.3c2.6,1.5,5.1,3.1,7.5,4.9c0.9,0.6,1.8-0.7,1-1.3c-2.4-1.8-4.9-3.4-7.5-4.9
					C442.7,20.5,441.8,21.8,442.7,22.3L442.7,22.3z"/>
			</g>
			<g>
				<path class="st5" d="M378.5,135.1c-2.6-1.5-5.1-3.1-7.5-4.9c-0.8-0.6-1.8,0.7-1,1.3c2.4,1.8,4.9,3.4,7.5,4.9
					C378.4,137,379.4,135.7,378.5,135.1L378.5,135.1z"/>
			</g>
			<g>
				<path class="st4" d="M386.4,138.9c-2.7-1.1-5.4-2.3-7.9-3.7c-0.9-0.5-1.9,0.8-1,1.3c2.7,1.5,5.5,2.8,8.3,3.9
					C386.8,140.8,387.4,139.3,386.4,138.9L386.4,138.9z"/>
			</g>
			<g>
				<path class="st4" d="M386.1,65c-4.2,7.5-8,15.2-11.1,23.3c-0.2,0.5,0.1,0.8,0.5,1.1c7.4,3.8,14.8,7.7,22.1,11.8
					c0.3,0.2,0.9,0.2,1.1-0.2c4.1-7.3,8.3-14.5,12.4-21.8c0.2-0.3,0.2-0.9-0.2-1.1c-7.9-4.4-15.9-8.8-23.8-13.2
					c-0.9-0.5-1.9,0.8-1,1.3c7.9,4.4,15.8,8.8,23.8,13.2c-0.1-0.4-0.1-0.8-0.2-1.1c-4.1,7.3-8.3,14.5-12.4,21.8
					c0.4-0.1,0.8-0.1,1.1-0.2c-7.4-4.1-14.9-8.1-22.5-12c0.2,0.4,0.3,0.7,0.5,1.1c3-7.9,6.7-15.5,10.9-22.9
					C388,65.1,386.6,64.1,386.1,65z"/>
			</g>
			<g class="st7">
				<path class="st4" d="M397.8,101.2c3.8,1.7,7.4,4.2,10.9,6.2c3.6,2.1,7.2,4.2,10.8,6.4c0.4,0.2,0.9,0.2,1.1-0.2
					c5.3-6.7,10.1-13.8,14.3-21.2c0.2-0.4,0.2-0.9-0.2-1.1c-7.9-4.4-15.8-8.8-23.8-13.2c-0.4-0.2-0.9-0.2-1.2,0.2
					c-4.1,7.3-8.3,14.5-12.4,21.8c-0.5,0.9,0.8,1.9,1.3,1c4.1-7.3,8.3-14.5,12.4-21.8c-0.4,0.1-0.8,0.1-1.2,0.2
					c7.9,4.4,15.8,8.8,23.8,13.2c-0.1-0.4-0.1-0.8-0.2-1.1c-4.3,7.4-9,14.5-14.3,21.2c0.4-0.1,0.8-0.1,1.2-0.2
					c-3.9-2.4-7.9-4.7-11.9-7c-3.3-1.9-6.7-4.2-10.2-5.8C397.5,99.3,396.9,100.8,397.8,101.2z"/>
			</g>
			<g>
				<path class="st4" d="M410.1,79.4c7.9,4.4,15.8,8.8,23.8,13.2c0.4,0.2,0.9,0.2,1.2-0.2c4.3-7.5,8-15.2,11.1-23.3
					c0.2-0.4-0.1-0.9-0.5-1.1c-7.4-3.8-14.8-7.7-22.1-11.8c-0.4-0.2-0.9-0.2-1.1,0.2c-4.2,7.3-8.3,14.5-12.4,21.8
					c-0.5,0.9,0.8,1.9,1.3,1c4.1-7.3,8.3-14.5,12.4-21.8c-0.4,0.1-0.8,0.1-1.2,0.2c7.4,4.1,14.9,8.1,22.5,12c-0.2-0.4-0.3-0.7-0.5-1
					c-3,7.9-6.7,15.5-10.9,22.9c0.4-0.1,0.8-0.1,1.1-0.2c-7.9-4.4-15.8-8.8-23.8-13.2C410.1,77.6,409.2,78.9,410.1,79.4z"/>
			</g>
			<g>
				<path class="st4" d="M398.4,99.7L398.4,99.7c-0.3-0.1-0.8,0-1,0.3c-4.1,7.2-8.2,14.3-12.3,21.5c-0.2,0.4-0.2,0.9,0.2,1.1
					c5.2,3.3,10.7,6.2,15.9,9.5c0.3,0.2,0.7,0.2,1,0c6.9-5.4,12.9-11.7,18.3-18.5c0.3-0.3,0.2-0.9-0.2-1.1
					c-7.2-4.4-14.5-8.6-21.9-12.7c-0.9-0.5-1.9,0.8-1,1.3c7.4,4.1,14.6,8.3,21.9,12.7c-0.1-0.4-0.1-0.8-0.2-1.1
					c-4.5,5.6-9.4,10.9-14.9,15.6c-0.6,0.5-2.2,2.4-3.1,1.8c-1.7-1.1-3.5-2.2-5.2-3.2c-3.2-1.9-6.6-3.7-9.7-5.7
					c0.1,0.4,0.1,0.8,0.2,1.1c2-3.6,4.1-7.2,6.1-10.7c1.4-2.4,2.7-4.8,4.1-7.2c0.5-0.8,0.9-1.6,1.4-2.5c0.2-0.3,0.3-0.5,0.5-0.8
					c0.4-0.7-0.1,0.3-0.8,0C398.8,101.7,399.4,100.2,398.4,99.7z"/>
			</g>
			<g>
				<path class="st9" d="M423,57L423,57c-7.5-4.2-14.8-8.4-21.9-12.7c-5,6.2-9.9,13.4-14.3,21.2l23.8,13.2L423,57z"/>
				<g>
					<path class="st4" d="M423.5,56.3c-7.1-4.5-14.7-8.4-21.9-12.7c-0.4-0.2-0.9-0.2-1.2,0.2c-5.3,6.7-10.1,13.8-14.3,21.2
						c-0.2,0.3-0.2,0.9,0.2,1.1c7.9,4.4,15.8,8.8,23.8,13.2c0.3,0.2,0.9,0.2,1.2-0.2c4.1-7.3,8.3-14.5,12.4-21.8
						c0.5-0.9-0.8-1.9-1.3-1c-4.2,7.3-8.3,14.5-12.4,21.8c0.4-0.1,0.8-0.1,1.2-0.2c-7.9-4.4-15.9-8.8-23.8-13.2
						c0.1,0.4,0.1,0.8,0.2,1.1c4.3-7.4,9-14.5,14.3-21.2c-0.4,0.1-0.8,0.1-1.2,0.2c7.2,4.3,14.8,8.2,21.9,12.7
						C423.4,58.2,424.4,56.9,423.5,56.3z"/>
				</g>
			</g>
			<g>
				<path class="st4" d="M422.5,57.6c7.4,4.1,14.9,8.1,22.5,12c0.4,0.2,0.9-0.1,1.1-0.5c3-8.1,5.4-16.4,6.5-25
					c0-0.4-0.2-0.7-0.5-0.8c-5.5-2.7-11-5.5-16.3-8.4c-0.3-0.2-0.9-0.2-1.2,0.2c-4.1,7.2-8.2,14.3-12.3,21.5c-0.5,0.9,0.8,1.9,1.3,1
					c4.1-7.2,8.2-14.3,12.3-21.5c-0.4,0.1-0.8,0.1-1.1,0.2c3,1.7,6,3.3,9,4.8c1.5,0.8,2.9,1.5,4.4,2.2c2.2,1.1,2.7,1.2,2.4,3.7
					c-1.1,7.4-3.4,14.7-6,21.7c0.3-0.2,0.7-0.3,1.1-0.5c-7.4-3.8-14.8-7.7-22.1-11.8C422.6,55.8,421.6,57.1,422.5,57.6z"/>
			</g>
			<g>
				<path class="st4" d="M385.2,121.5c-2.6,4.6-5.3,9.2-7.9,13.8c-0.2,0.3-0.3,0.9,0.2,1.1c2,1.1,4.1,2.2,6.3,3.1
					c2.2,1,3,0.8,5.3,0.1c4.9-1.5,9.3-4.5,13.3-7.5c0.4-0.3,0.4-1,0-1.3c-5.2-3.3-10.7-6.3-15.9-9.5c-0.9-0.6-1.9,0.7-1,1.3
					c5.2,3.3,10.7,6.2,15.9,9.5c0-0.4,0-0.9,0-1.3c-3.2,2.4-6.6,4.6-10.3,6.3c-1.5,0.7-3.9,2-5.6,1.3c-2.4-1-4.7-2.1-6.9-3.3
					c0.1,0.4,0.1,0.8,0.2,1.1c2.6-4.6,5.3-9.2,7.9-13.8C387.1,121.5,385.7,120.6,385.2,121.5z"/>
			</g>
			<g>
				<path d="M398.1,100.5c-7.5-4.2-15-8.2-22.3-11.9c-3.4,9-5.6,17.4-6.5,24.8c5.5,2.6,11,5.4,16.5,8.5L398.1,100.5z"/>
				<g>
					<path class="st4" d="M398.6,99.8c-7.4-4.1-14.9-8.1-22.5-12c-0.4-0.2-0.9,0.1-1.1,0.5c-3,8.1-5.4,16.4-6.5,25
						c0,0.4,0.2,0.7,0.5,0.8c5.5,2.7,11,5.5,16.3,8.4c0.4,0.2,0.9,0.2,1.2-0.2c4.1-7.2,8.2-14.3,12.3-21.5c0.5-0.9-0.8-1.9-1.3-1
						c-4.1,7.2-8.2,14.3-12.3,21.5c0.4-0.1,0.8-0.1,1.2-0.2c-3-1.7-6-3.3-9-4.8c-1.5-0.7-2.9-1.5-4.4-2.2c-2.3-1.1-2.7-1.2-2.4-3.7
						c1.1-7.4,3.4-14.7,6-21.7c-0.4,0.2-0.7,0.3-1.1,0.5c7.4,3.8,14.8,7.7,22.1,11.8C398.6,101.7,399.5,100.3,398.6,99.8z"/>
				</g>
			</g>
			<g>
				<path class="st4" d="M368.5,113.3c-0.5,4.8-0.6,9.5,0.2,14.3c0.2,0.9,0.4,3.4,1.2,4c2.4,1.8,4.9,3.4,7.5,4.9
					c0.4,0.2,0.9,0.3,1.2-0.2c2.6-4.6,5.3-9.2,7.9-13.8c0.2-0.4,0.2-0.9-0.2-1.1c-5.5-3-11-5.9-16.7-8.6c-1-0.5-1.5,1.1-0.6,1.5
					c5.5,2.7,11,5.5,16.3,8.4c-0.1-0.4-0.1-0.8-0.2-1.1c-2.6,4.6-5.3,9.2-7.9,13.8c0.4-0.1,0.8-0.1,1.1-0.2
					c-1.6-0.9-3.2-1.9-4.8-2.9c-2.3-1.5-3-3.2-3.5-5.8c-0.8-4.3-0.5-8.6,0-12.9C370.3,112.5,368.7,112.3,368.5,113.3z"/>
			</g>
			<g>
				<path class="st4" d="M422.5,57.6L422.5,57.6c0.3,0.2,0.9,0.2,1.1-0.2c4.1-7.2,8.2-14.3,12.3-21.5c0.2-0.4,0.2-0.8-0.2-1.1
					c-2.2-1.8-5.2-3-7.6-4.4c-2.8-1.7-5.6-3.4-8.3-5.2c-0.3-0.2-0.7-0.2-1,0c-6.9,5.4-12.9,11.7-18.3,18.5c-0.3,0.3-0.2,0.9,0.2,1.1
					C407.9,49.3,415.1,53.5,422.5,57.6c0.9,0.5,1.9-0.8,1-1.3c-7.4-4.1-14.7-8.3-21.9-12.7c0.1,0.4,0.1,0.8,0.2,1.1
					c4.5-5.6,9.4-10.9,14.9-15.6c0.6-0.5,2.2-2.5,3.1-1.9c1.7,1.1,3.4,2.2,5.2,3.2c3.1,1.9,7,3.4,9.7,5.7c-0.1-0.4-0.1-0.8-0.2-1.1
					c-4.1,7.2-8.2,14.3-12.3,21.5c0.4-0.1,0.8-0.1,1.1-0.2l0,0C422.6,55.8,421.6,57.1,422.5,57.6z"/>
			</g>
			<g>
				<path class="st10" d="M435.3,35.5l7.9-13.8c-2.6-1.5-5.4-2.8-8.1-3.8c-4.7,1-10.1,3.8-15.7,8.1
					C424.4,29.2,429.7,32.4,435.3,35.5L435.3,35.5z"/>
				<g>
					<path class="st4" d="M435.9,36c2.6-4.6,5.3-9.2,7.9-13.8c0.2-0.3,0.2-0.9-0.2-1.1c-2.1-1.1-4.1-2.1-6.3-3.1
						c-2.2-1-3-0.8-5.3-0.1c-4.9,1.5-9.3,4.5-13.3,7.5c-0.4,0.3-0.4,1,0,1.3c2.8,1.8,5.5,3.5,8.3,5.2c2.4,1.4,5.5,2.6,7.6,4.4
						c0.8,0.7,1.8-0.6,1-1.3c-2.2-1.8-5.2-3-7.6-4.4c-2.8-1.7-5.6-3.4-8.3-5.2c0,0.4,0,0.9,0,1.3c3.2-2.4,6.6-4.6,10.3-6.3
						c1.5-0.7,3.9-2,5.6-1.3c2.4,1,4.7,2.1,6.9,3.3c-0.1-0.4-0.1-0.8-0.2-1.1c-2.6,4.6-5.3,9.2-7.9,13.8
						C434.1,35.9,435.4,36.9,435.9,36z"/>
				</g>
			</g>
			<g>
				<path class="st4" d="M452.6,44.1c0.5-4.8,0.6-9.5-0.2-14.3c-0.2-0.9-0.4-3.3-1.2-4c-2.4-1.8-4.9-3.4-7.5-4.9
					c-0.4-0.2-0.9-0.2-1.2,0.2c-2.6,4.6-5.3,9.2-7.9,13.8c-0.2,0.4-0.2,0.9,0.2,1.1c5.5,3,11,5.9,16.7,8.6c1,0.5,1.5-1.1,0.6-1.5
					c-5.5-2.7-11-5.5-16.3-8.4c0.1,0.4,0.1,0.8,0.2,1.1c2.6-4.6,5.3-9.2,7.9-13.8c-0.4,0.1-0.8,0.1-1.1,0.2c1.6,0.9,3.2,1.9,4.8,3
					c2.3,1.5,3,3.2,3.5,5.8c0.8,4.3,0.5,8.6,0,12.9C450.8,45,452.5,45.2,452.6,44.1z"/>
			</g>
		</g>
	</g>
	<g class="st11">
		<g>
			<polygon class="st5" points="409.4,2.9 408.8,2.9 409.1,3 			"/>
			<polygon class="st5" points="408.2,2.8 408.1,2.8 408,2.9 			"/>
			<path class="st5" d="M407.1,2.9h0.6H407.1z"/>
			<polygon class="st5" points="407.9,3 408,2.9 408,2.9 407.6,2.9 			"/>
			<path class="st5" d="M407.9,3l0.2,0.1L407.9,3z"/>
			<path class="st5" d="M407.6,4.1c-0.1,0-0.1-0.3-0.3-0.2l-1.4,0.2c-0.2,0.1-0.6-0.3-0.8-0.2c-0.5,0.1-1.8,0.5-1,0.5
				c1.2,0,1.9-0.1,2.9-0.1l2.5-0.3l0.7,0l-0.9-0.2C408.9,3.7,408.3,4.1,407.6,4.1z"/>
			<path class="st5" d="M414.1,3.2l-0.3,0.1c-0.5-0.2-1-0.2-1.5-0.1l0.2,0.2c0.3,0,0.3-0.1,0.1-0.2c0.6,0.2,1.2,0.2,1.7,0.2
				L414.1,3.2z"/>
			<polygon class="st5" points="414.6,3.4 414.2,3.4 414.2,3.4 414.6,3.4 			"/>
			<path class="st5" d="M404.7,3.2L400.5,3l-0.3,0.1l-0.3-0.1l-0.6,0.1l-0.2,0.1v0v0.1l0.2,0.1l-0.2-0.1l-0.3,0l-0.6,0.1l0.6-0.1
				l0.3-0.1l0.1,0l-1.3,0.2l-0.3,0.1c-0.3,0.1-0.6,0.2-0.8,0.1l-0.2,0l0,0l-0.1,0l-1,0.1l-0.6,0.3l-0.3-0.1L394.2,4l0.5,0.2
				c0.3,0.1,0.5-0.4,0.8-0.1c-0.3-0.3-0.5,0.3-0.8,0.1L394.2,4l-1.1,0c0.4-0.2,0.8-0.1,1.1,0l0.3-0.2l0.3,0.1l0.6-0.3l-2,0.2
				c-4.5,0.2-8.3,1.7-12.7,3.1c-2.5,0.6-4.5,1.8-6.7,2.8c-4.5,1.8-7.6,4.9-11.7,7.5c-1.6,1-3.9,3.7-4.9,5.2c-1.1,2.4,0.9,2,1,2
				c1.8-0.5,1.9-1.7,4.4-3.4c-1.7,1.1,0.5-1.5,2.4-2.2c2.7-0.9,5.1-3.9,8-5.4l2.3-1.2c4.4-2.3,8.8-3.9,13.9-5.6
				c1.4-0.2,2.5-0.7,3.7-1c0.9-0.2,1.8-0.2,2.5-0.3l2.9-0.7c-1,0.2-1.7,0.4-2.9,0.6c-0.8,0.1,0.5-0.5,1-0.7c0.2-0.1,0.6,0.2,0.8,0.1
				l1.4-0.5c0.2-0.1,0.2,0.2,0.3,0.2c0.7-0.2,1.2-0.7,1.6-0.6l0.9,0.2l0.6,0l0.4-0.1l-0.2-0.3l0.6,0.1l-0.6-0.1l0.2,0.3l2.9-0.4l0,0
				c-0.6,0-1.1,0-1.7-0.2c0.3,0.1,0.2,0.2-0.1,0.2l-0.2-0.2c0.5-0.1,1-0.2,1.5,0.1l0.3-0.1l0.2,0.2l0.3,0
				C405.5,3.4,404.7,3.2,404.7,3.2z"/>
			<path class="st5" d="M398.8,3.3l0.3-0.1l-1.1,0.1C398.1,3.5,398.5,3.4,398.8,3.3z"/>
		</g>
	</g>
	<g class="st11">
		<g>
			<polygon class="st5" points="396.2,153.6 397,153.8 396.6,153.6 			"/>
			<polygon class="st5" points="397.6,154.1 397.8,154.1 397.9,154.1 			"/>
			<path class="st5" d="M399,154.3l-0.7-0.1L399,154.3z"/>
			<polygon class="st5" points="397.9,154 397.9,154.1 397.9,154.1 398.3,154.2 			"/>
			<path class="st5" d="M397.9,154l-0.2-0.2L397.9,154z"/>
			<path class="st5" d="M398.5,153c0.1,0,0,0.3,0.3,0.3l1.8,0.1c0.3,0,0.6,0.4,0.9,0.4c0.6,0,2.3-0.1,1.3-0.2
				c-1.4-0.2-2.3-0.3-3.5-0.5l-3-0.5l-0.8-0.3l1.1,0.5C397,153,397.7,152.8,398.5,153z"/>
			<path class="st5" d="M390.9,151.7c0.1,0,0.4,0,0.4,0c0.5,0.4,1.1,0.5,1.8,0.6l-0.2-0.2c-0.3-0.1-0.4,0-0.1,0.1
				c-0.6-0.4-1.3-0.6-2-0.8C390.7,151.5,390.7,151.6,390.9,151.7z"/>
			<polygon class="st5" points="390.3,151.3 390.7,151.4 390.7,151.4 390.3,151.3 			"/>
			<path class="st5" d="M401.8,154.6l5,1l0.4-0.1l0.4,0.1l0.7,0.1h0.3l0,0c0.1,0,0.1-0.1,0-0.1l-0.2-0.1l0.2,0.1l0.4,0.1l0.7,0.1
				l-0.7-0.1l-0.4,0l-0.1,0l1.6,0.2l0.3,0l1,0.2l0.3,0l-0.1,0l0.1,0l1.2,0.2l0.8-0.1l0.3,0.2l0.5-0.2l-0.6-0.3
				c-0.3-0.1-0.6,0.3-0.9,0c0.3,0.3,0.7-0.1,0.9,0l0.6,0.3l1.3,0.1c-0.5,0.1-0.9,0-1.3-0.1l-0.5,0.2l-0.3-0.2l-0.8,0.1l2.5,0.1
				c5.4,0.2,10.4-0.3,15.9-1.5c3-0.6,5.8-1.4,8.6-2.3c5.5-1.8,9.9-4.7,15.1-7.5c2-1.1,5.1-3.9,6.6-5.6c1.7-2.6-0.4-2.3-0.5-2.3
				c-2,0.5-2.5,1.9-5.6,3.6c2.1-1.2-0.9,1.7-3.2,2.4c-3.2,1-6.7,4-10.4,5.4l-3,1.2c-5.8,1.8-11.2,3.7-17.7,4.1
				c-1.7,0.2-3.2,0.4-4.6,0.6c-1.1,0.1-2.2-0.1-3-0.1c-1.3-0.1-2.5-0.1-3.6-0.1c1.2,0.1,2.2,0.1,3.5,0.1c0.9,0.1-0.7,0.3-1.3,0.4
				c-0.3,0-0.7-0.3-0.9-0.3l-1.7,0.1c-0.3,0-0.2-0.3-0.3-0.2c-0.8,0-1.5,0.3-2.1,0.2l-1.1-0.3l-0.7-0.2l-0.5,0l0.1,0.4l-0.7-0.3
				l0.7,0.3l-0.1-0.4l-3.6-0.2l0,0c0.7,0.1,1.4,0.3,2,0.6c-0.3-0.1-0.2-0.2,0.1-0.2l0.2,0.2c-0.6,0-1.3-0.1-1.8-0.4c0,0-0.3,0-0.4,0
				c-0.2-0.1-0.2-0.2-0.2-0.3l-0.4-0.1C401,154.2,401.8,154.6,401.8,154.6z"/>
			<polygon class="st5" points="409,155.8 408.6,155.7 410,155.9 			"/>
		</g>
	</g>
	<g>
		<path class="st3" d="M25,54.7h7.5l1.8,8.4h-7.4v0.1c0,0.8-0.1,2.1-0.2,4.1c-0.2,1.5-0.3,2.7-0.4,3.6c-4,3.3-8.1,4.9-12.1,4.9
			c-2.8,0-5.4-1-7.8-3c-2.4-2-3.9-4.5-4.5-7.5C1,61.6,1.4,56.6,2.9,50.5c0.1,3.3,0.4,6.1,0.9,8.4c0.6,2.7,1.7,4.8,3.4,6.3
			c1.7,1.5,3.7,2.3,6.2,2.3c3.5,0,6.6-1.5,9.4-4.6c-0.6-1.8-1.6-3.8-3-6c-1.4-2.2-2.7-3.9-4-5.1l3.7-5.8c2.1,2.4,3.9,5.2,5.4,8.5
			L25,54.7z M13,43.7l-3.3,3.7l-6.5-4.8l3.3-3.8L13,43.7z"/>
		<path class="st3" d="M63.7,58.5l-0.3-0.1h-1.3c-1.3,0-2.3,0.1-3.1,0.3c-1.6,0.4-3,1.2-4.2,2.6c-0.5,0.5-0.9,0.9-1.2,1.2
			c-0.4,0.5-1.3,0.7-2.7,0.7H33.4l-1.7-8.4h22.1c-0.3-0.1-0.7-0.3-1.2-0.5c-1.1-0.4-2.8-1.2-4.8-2.3c-0.6-0.3-1.4-0.8-2.5-1.3
			c-1.6-0.7-3-1.1-4.4-1.1c-0.5,0-1.2,0.1-2,0.4c0.3-0.5,0.9-1.5,2-3.1c0.6-0.9,1.2-1.7,1.8-2.3c0.9-1,1.8-1.6,2.8-1.6
			c1,0,2.4,0.5,4.3,1.4l4.4,2.1c3.8,1.8,6.9,3.1,9.4,3.8c2.1,0.6,4.5,1,7.3,1.2l0.9,0l-1.4,3.3h9.2l1.8,8.4h-9.9
			c-2.6,0-4.4-0.5-5.7-1.6C64.7,60.6,64,59.6,63.7,58.5z"/>
		<path class="st3" d="M129.1,54.7h7.1l2,8.4h-7.5l-2.3-2.9l-0.6,2.9h-10.9l-1.9-2.9l-1.7,2.9h-12.4L99,60.2l-1.7,2.9H80.5l-1.7-8.4
			h16.6l-4.2-6.3l3.2-5.3l7.9,11.6h9.1l-4.1-6.3l3.1-5.3l7.9,11.6h6c-1.3-2.4-2.6-4.2-3.9-5.3l3.4-6.6c2.7,2.7,4.4,5.6,5,8.8
			C129,52.7,129.1,53.7,129.1,54.7z M108.4,25.6l-3.2,3.8l-6.5-4.8l3.3-3.8L108.4,25.6z M114.8,35l-3.5,3.7l-3.5-2.5l-2.3,2.5
			l-6.3-4.8l3.2-3.7l3.6,2.6l2.3-2.6L114.8,35z"/>
		<path class="st3" d="M157.9,54.7l1.8,8.4h-10.3c-1.3,0-2.2-0.1-2.7-0.2c-0.9-0.3-1.6-0.9-2-1.9l-0.9,2.1h-6.4l-1.7-8.4h7.8
			l-4.1-19.7l5.2-7.3l4.9,23.5c0,0.2,0.2,0.8,0.5,2.1c0,0.2,0.2,0.5,0.4,0.9c0.2,0.4,0.8,0.5,1.6,0.5H157.9z"/>
		<path class="st3" d="M171.3,33.1L170,39l-1.2-0.5l3.6,12.5c0.3,1.5,0.3,2.8,0.2,4c-0.1,0.8-0.2,2-0.5,3.6
			c-0.2,1.6-0.5,3.1-0.8,4.6h-12.5l-1.7-8.4h10.4L162.1,36c-0.1,0-0.3,0-0.4-0.1c-1-0.3-1.6-0.9-1.8-1.7c-0.1-0.4,0-0.9,0.3-1.4
			l0.4-0.9l2-4.3c0.2,0.8,0.4,1.4,0.8,1.9c0.3,0.4,0.7,0.8,1.2,1c0.3,0.1,0.7,0.3,1.3,0.6L171.3,33.1z"/>
		<path class="st3" d="M207.2,54.7l1.8,8.4h-11.2c-2.3,0-3.6-0.9-4-2.8l-0.3-1.6l-0.3-1.1L188.4,35l5.2-7.2l4.9,23.8
			c0.3,1.3,0.6,2.2,0.9,2.6c0.3,0.4,1.1,0.6,2.3,0.6H207.2z"/>
		<path class="st3" d="M223.8,54.7l1.8,8.4h-17.3l-1.7-8.4H223.8z"/>
		<path class="st3" d="M238.8,54.7l1.8,8.4h-17.3l-1.7-8.4H238.8z"/>
		<path class="st3" d="M253.8,54.7l1.8,8.4h-17.3l-1.7-8.4H253.8z"/>
		<path class="st3" d="M286.4,54.7l1.8,8.4h-9.4l-1.4,5.5l-16.3-8.3l-1.3,2.9h-6.7l-1.7-8.4h9.1c0.1-2.3,0.9-4.6,2.3-6.7
			c2-3,5.1-4.5,9.3-4.5c1.5,0,2.7,0.3,3.6,0.9c0.7,0.4,1.2,1.3,1.5,2.6l0.4,1.5l1.3,6.3H286.4z M274.8,58.7l-1.2-6
			c-0.3-1.4-1.4-2.1-3.2-2.1c-1.3,0-2.3,0.2-3.1,0.6c-0.7,0.4-1.5,1.2-2.2,2.4L274.8,58.7z"/>
		<path class="st3" d="M303,54.7l1.8,8.4h-17.3l-1.7-8.4H303z"/>
		<path class="st3" d="M311.2,42.8c2.7,2.6,4.4,5.5,5,8.7c0.4,1.8,0.3,4.2-0.1,7.1c-0.3,1.6-0.6,3.1-0.9,4.6h-12.9l-1.7-8.4h11.1
			c-1.2-2.3-2.5-4.1-3.9-5.3L311.2,42.8z M311.7,34.6l-3.2,3.7l-6.5-4.8l3.2-3.8L311.7,34.6z"/>
	</g>
</g>
</svg>
