<?xml version="1.0" encoding="utf-8"?>
<!-- Generator: Adobe Illustrator 26.0.1, SVG Export Plug-In . SVG Version: 6.00 Build 0)  -->
<svg version="1.1" id="Layer_1" xmlns="http://www.w3.org/2000/svg" xmlns:xlink="http://www.w3.org/1999/xlink" x="0px" y="0px"
	 viewBox="0 0 446.5 500" style="enable-background:new 0 0 446.5 500;" xml:space="preserve">
<style type="text/css">
	.Arched_x0020_Green{fill:url(#SVGID_1_);stroke:#FFFFFF;stroke-width:0.25;stroke-miterlimit:1;}
	.st0{fill:#1A3E41;}
	.st1{fill:#4FB8A4;}
	.st2{fill:#D8DCD7;}
</style>
<linearGradient id="SVGID_1_" gradientUnits="userSpaceOnUse" x1="90.1568" y1="570.7285" x2="90.8639" y2="570.0214">
	<stop  offset="0" style="stop-color:#339A2A"/>
	<stop  offset="0.9831" style="stop-color:#121E0D"/>
</linearGradient>
<g>
	<g>
		<path class="st0" d="M243.5,143.7c-3.9,11.8-8.5,23.7-14,35.6c6.8,0.9,13.8,2,21,3.2C247.3,170.2,244.9,157.3,243.5,143.7z"/>
		<path class="st0" d="M193.6,183.7c-51-5.5-101.1-4.1-139.6,11.3c2,14.2,5.7,27.8,11,40.6c41.9-29.9,85.4-44.3,126.9-49.3
			C192.5,185.5,193,184.6,193.6,183.7z"/>
		<path class="st1" d="M181.7,201.4c-53.3,12.8-93,39.9-108.4,51.6c4.2,7.6,8.9,14.8,14.1,21.6C106.7,267.2,147.6,247.2,181.7,201.4
			z"/>
		<path class="st0" d="M198.2,175.8c23-41,39.5-97.6,37.8-175.3c-4.2-0.3-8.5-0.5-12.8-0.5C128.8,0,52.3,76.5,52.3,170.9
			c0,5.5,0.3,10.8,0.8,16.2C74.8,179.1,120,168.7,198.2,175.8z"/>
		<path class="st1" d="M279.3,187.7c32.4,6.4,68.6,15.3,109,27.5c3.8-14.1,5.8-28.9,5.8-44.2c0-71.9-44.5-133.4-107.4-158.7
			C286.7,12.4,250.1,99.9,279.3,187.7z"/>
		<path class="st1" d="M307.4,205.2c-7.8-2-15.7-3.9-23.8-5.8c12.2,30.4,32.9,60.4,66.3,86.3c11.9-13.1,21.7-28.1,29.1-44.4
			C354.7,224.1,330.7,212.6,307.4,205.2z"/>
		<path class="st0" d="M221.7,195.1c-21.9,41.1-55.2,80.3-105.3,109.2c29.3,23.5,66.4,37.5,106.8,37.5c37.4,0,72-12.1,100.2-32.5
			c-22.4-23.3-52.7-62.1-69.2-114.3C243.1,194.3,232.2,194.4,221.7,195.1z"/>
		<path class="st2" d="M283.6,199.4c8.1,1.9,16.1,3.8,23.8,5.8c-8.1-2.6-16.1-4.6-24-6.2C283.5,199.1,283.6,199.3,283.6,199.4z"/>
		<path class="st2" d="M275.7,197.6c2.6,0.6,5.3,1.2,7.9,1.8c0-0.1-0.1-0.2-0.1-0.4C280.9,198.5,278.3,198,275.7,197.6z"/>
	</g>
	<g>
		<path class="st0" d="M0,500V387.9h17.8l78.8,66c5.6,4.8,9.9,8.8,12.8,12.2c-0.7-10.4-1.1-16.9-1.1-19.3v-58.8h23.5V500H114
			l-82.3-69.3c-3.5-2.9-6.6-5.9-9.3-9.1c0.7,7.2,1.1,13.2,1.1,17.8V500H0z"/>
		<path class="st0" d="M269.7,407.9h-70.4v71h70.4v-24.1l26.1,5.4v13.2c0,10.4-2,17.5-5.9,21.1c-3.9,3.6-11.2,5.4-21.9,5.4h-66.9
			c-10.7,0-18-1.8-21.9-5.4c-3.9-3.6-5.9-10.6-5.9-21.1v-59.1c0-10.4,2-17.4,5.9-21.1c3.9-3.6,11.2-5.4,21.9-5.4H268
			c10.7,0,18,1.8,21.9,5.4c3.9,3.6,5.9,10.6,5.9,21.1v10.6l-26.1,4.1V407.9z"/>
		<path class="st0" d="M336.4,500V387.9h26.1v91h84V500H336.4z"/>
	</g>
</g>
</svg>
