<?xml version="1.0" encoding="utf-8"?>
<!-- Generator: Adobe Illustrator 26.0.1, SVG Export Plug-In . SVG Version: 6.00 Build 0)  -->
<svg version="1.1" id="Layer_1" xmlns="http://www.w3.org/2000/svg" xmlns:xlink="http://www.w3.org/1999/xlink" x="0px" y="0px"
	 viewBox="0 0 500 248.6" style="enable-background:new 0 0 500 248.6;" xml:space="preserve">
<style type="text/css">
	.st0{fill:#FFFFFF;}
	.st1{fill:#F7931E;}
	.st2{fill:#006837;}
</style>
<g>
	<g>
		<path class="st0" d="M315.3,90.4h20.9c-16.1,59.4-60,56.2-60,56.2c-34.5,0-74.4-36-62.6-92.7C224.7,0.5,273.1,0,273.1,0
			C324.2,0,335,53.7,335,53.7h-21.4c0,0-11.3-32.4-41.1-29.7C242.6,26.6,237,54.6,237,54.6s-12.2,42.5,20,63.8
			C257,118.4,294.5,139.5,315.3,90.4z"/>
		<g>
			<path class="st1" d="M282.1,0.6V0.1h-4.5C279.2,0.2,280.6,0.4,282.1,0.6z"/>
			<path class="st1" d="M237,54.6c0,0-12.2,42.5,20,63.8c0,0,11.4,6.4,25.1,4V24.4c-3-0.5-6.2-0.7-9.7-0.4
				C242.6,26.6,237,54.6,237,54.6z"/>
			<path class="st1" d="M213.6,53.9C223.3,7.5,261,1.1,270.7,0.1h-86.6v88.2l-48-88.2h-38v146.4h28.8V41.9l58.5,104.7h90.6
				C241.7,146.6,201.7,110.6,213.6,53.9z"/>
			<path class="st1" d="M278.6,146.6h3.5v-0.3C280.7,146.5,279.6,146.5,278.6,146.6z"/>
		</g>
		<path class="st2" d="M277.6,0.1C324.8,3.2,335,53.7,335,53.7h-21.4c0,0-11.3-32.4-41.1-29.7S237,54.6,237,54.6s-12.2,42.5,20,63.8
			c0,0,37.5,21.2,58.3-28h20.9c-13.8,50.9-48.1,55.8-57.5,56.2h82.2V28h42.9V0.1H277.6z"/>
	</g>
	<g>
		<g>
			<g>
				<path class="st2" d="M0,242.8v-18h4.8l3.7,6.6c1.1,1.9,2.1,4.1,2.9,6.2h0.1c-0.2-2.4-0.3-4.8-0.3-7.5v-5.2h3.7v18h-4.3l-3.8-6.9
					c-1.1-2-2.3-4.3-3.1-6.4H3.6c0.1,2.4,0.2,4.9,0.2,7.9v5.4H0z"/>
				<path class="st2" d="M29.1,239.6c0,1.2,0.1,2.4,0.2,3.2h-3.7l-0.2-1.3h-0.1c-0.9,1-2.2,1.6-3.7,1.6c-2.6,0-4.2-1.9-4.2-4
					c0-3.4,3-5,7.7-5v-0.2c0-0.7-0.4-1.7-2.4-1.7c-1.3,0-2.8,0.5-3.6,1l-0.7-2.6c0.9-0.5,2.7-1.2,5.1-1.2c4.4,0,5.7,2.6,5.7,5.6
					V239.6z M25.2,236.6c-2.1,0-3.8,0.5-3.8,2.1c0,1,0.7,1.6,1.6,1.6c1,0,1.8-0.7,2.1-1.5c0.1-0.2,0.1-0.5,0.1-0.7V236.6z"/>
				<path class="st2" d="M36.7,226.1v3.6h2.9v3h-2.9v4.8c0,1.6,0.4,2.3,1.6,2.3c0.6,0,0.8,0,1.2-0.1l0,3.1c-0.5,0.2-1.5,0.3-2.6,0.3
					c-1.3,0-2.4-0.5-3.1-1.1c-0.7-0.8-1.1-2-1.1-3.9v-5.4H31v-3h1.7v-2.5L36.7,226.1z"/>
				<path class="st2" d="M44,228c-1.4,0-2.2-1-2.2-2.2c0-1.2,0.9-2.2,2.3-2.2c1.4,0,2.2,0.9,2.3,2.2C46.3,227,45.4,228,44,228
					L44,228z M41.9,242.8v-13.1H46v13.1H41.9z"/>
				<path class="st2" d="M55.3,243.1c-3.8,0-6.8-2.5-6.8-6.7c0-4.2,2.8-6.9,7-6.9c4,0,6.7,2.8,6.7,6.7
					C62.2,240.9,58.8,243.1,55.3,243.1L55.3,243.1z M55.4,240.1c1.6,0,2.6-1.6,2.6-3.9c0-1.9-0.7-3.9-2.6-3.9c-1.9,0-2.7,2-2.7,3.9
					C52.7,238.5,53.6,240.1,55.4,240.1L55.4,240.1z"/>
				<path class="st2" d="M64.7,233.9c0-1.6-0.1-3-0.1-4.2h3.5l0.2,1.8h0.1c0.5-0.9,1.8-2.1,4-2.1c2.7,0,4.7,1.8,4.7,5.6v7.7H73v-7.2
					c0-1.7-0.6-2.8-2.1-2.8c-1.1,0-1.8,0.8-2.1,1.5c-0.1,0.3-0.1,0.6-0.1,1v7.5h-4.1V233.9z"/>
				<path class="st2" d="M91.2,239.6c0,1.2,0.1,2.4,0.2,3.2h-3.7l-0.2-1.3h-0.1c-0.9,1-2.2,1.6-3.7,1.6c-2.6,0-4.2-1.9-4.2-4
					c0-3.4,3-5,7.7-5v-0.2c0-0.7-0.4-1.7-2.4-1.7c-1.3,0-2.8,0.5-3.6,1l-0.7-2.6c0.9-0.5,2.7-1.2,5.1-1.2c4.4,0,5.7,2.6,5.7,5.6
					V239.6z M87.3,236.6c-2.1,0-3.8,0.5-3.8,2.1c0,1,0.7,1.6,1.6,1.6c1,0,1.8-0.7,2.1-1.5c0.1-0.2,0.1-0.5,0.1-0.7V236.6z"/>
				<path class="st2" d="M94.5,223.8h4.1v19h-4.1V223.8z"/>
				<path class="st2" d="M120.5,242.3c-0.7,0.3-2.4,0.8-4.6,0.8c-6.2,0-9.4-3.9-9.4-9.1c0-6.1,4.4-9.5,9.8-9.5
					c2.1,0,3.7,0.4,4.4,0.8l-0.9,3.2c-0.8-0.3-2-0.7-3.4-0.7c-3.2,0-5.7,2-5.7,6c0,3.6,2.1,5.9,5.7,5.9c1.3,0,2.6-0.2,3.4-0.6
					L120.5,242.3z"/>
				<path class="st2" d="M128.6,243.1c-3.8,0-6.8-2.5-6.8-6.7c0-4.2,2.8-6.9,7-6.9c4,0,6.7,2.8,6.7,6.7
					C135.5,240.9,132.1,243.1,128.6,243.1L128.6,243.1z M128.6,240.1c1.6,0,2.6-1.6,2.6-3.9c0-1.9-0.7-3.9-2.6-3.9
					c-1.9,0-2.7,2-2.7,3.9C126,238.5,126.9,240.1,128.6,240.1L128.6,240.1z"/>
				<path class="st2" d="M138,233.9c0-1.6-0.1-3-0.1-4.2h3.5l0.2,1.8h0.1c0.5-0.9,1.8-2.1,4-2.1c2.7,0,4.7,1.8,4.7,5.6v7.7h-4.1
					v-7.2c0-1.7-0.6-2.8-2.1-2.8c-1.1,0-1.8,0.8-2.1,1.5c-0.1,0.3-0.1,0.6-0.1,1v7.5H138V233.9z"/>
				<path class="st2" d="M158,226.1v3.6h2.9v3H158v4.8c0,1.6,0.4,2.3,1.6,2.3c0.6,0,0.8,0,1.2-0.1l0,3.1c-0.5,0.2-1.5,0.3-2.6,0.3
					c-1.3,0-2.4-0.5-3.1-1.1c-0.8-0.8-1.1-2-1.1-3.9v-5.4h-1.7v-3h1.7v-2.5L158,226.1z"/>
				<path class="st2" d="M174.2,239.6c0,1.2,0.1,2.4,0.2,3.2h-3.7l-0.2-1.3h-0.1c-0.9,1-2.2,1.6-3.7,1.6c-2.6,0-4.2-1.9-4.2-4
					c0-3.4,3-5,7.7-5v-0.2c0-0.7-0.4-1.7-2.4-1.7c-1.3,0-2.8,0.5-3.6,1l-0.7-2.6c0.9-0.5,2.7-1.2,5.1-1.2c4.4,0,5.7,2.6,5.7,5.6
					V239.6z M170.2,236.6c-2.1,0-3.8,0.5-3.8,2.1c0,1,0.7,1.6,1.6,1.6c1,0,1.8-0.7,2.1-1.5c0.1-0.2,0.1-0.5,0.1-0.7V236.6z"/>
				<path class="st2" d="M179.4,228c-1.4,0-2.2-1-2.2-2.2c0-1.2,0.9-2.2,2.3-2.2c1.4,0,2.2,0.9,2.3,2.2
					C181.7,227,180.8,228,179.4,228L179.4,228z M177.4,242.8v-13.1h4.1v13.1H177.4z"/>
				<path class="st2" d="M184.7,233.9c0-1.6-0.1-3-0.1-4.2h3.5l0.2,1.8h0.1c0.5-0.9,1.8-2.1,4-2.1c2.7,0,4.7,1.8,4.7,5.6v7.7h-4.1
					v-7.2c0-1.7-0.6-2.8-2.1-2.8c-1.1,0-1.8,0.8-2.1,1.5c-0.1,0.3-0.1,0.6-0.1,1v7.5h-4.1V233.9z"/>
				<path class="st2" d="M203.5,237.5c0.1,1.7,1.8,2.5,3.7,2.5c1.4,0,2.5-0.2,3.6-0.6l0.5,2.8c-1.3,0.6-3,0.8-4.7,0.8
					c-4.4,0-7-2.6-7-6.7c0-3.3,2.1-7,6.6-7c4.2,0,5.8,3.3,5.8,6.5c0,0.7-0.1,1.3-0.1,1.6L203.5,237.5z M208.3,234.7
					c0-1-0.4-2.6-2.3-2.6c-1.7,0-2.4,1.6-2.5,2.6H208.3z"/>
				<path class="st2" d="M214.5,234c0-1.9,0-3.2-0.1-4.3h3.5l0.2,2.4h0.1c0.7-1.9,2.2-2.7,3.5-2.7c0.4,0,0.6,0,0.9,0.1v3.8
					c-0.3-0.1-0.7-0.1-1.1-0.1c-1.5,0-2.5,0.8-2.8,2.1c-0.1,0.3-0.1,0.6-0.1,0.9v6.6h-4.1L214.5,234z"/>
				<path class="st2" d="M232.7,228.2h-4.9v-3.4h13.8v3.4h-4.9v14.6h-4.1V228.2z"/>
				<path class="st2" d="M244.7,237.5c0.1,1.7,1.8,2.5,3.7,2.5c1.4,0,2.5-0.2,3.6-0.6l0.5,2.8c-1.3,0.6-3,0.8-4.7,0.8
					c-4.4,0-7-2.6-7-6.7c0-3.3,2.1-7,6.6-7c4.2,0,5.8,3.3,5.8,6.5c0,0.7-0.1,1.3-0.1,1.6L244.7,237.5z M249.5,234.7
					c0-1-0.4-2.6-2.3-2.6c-1.7,0-2.4,1.6-2.5,2.6H249.5z"/>
				<path class="st2" d="M255.7,234c0-1.9,0-3.2-0.1-4.3h3.5l0.2,2.4h0.1c0.7-1.9,2.2-2.7,3.5-2.7c0.4,0,0.6,0,0.9,0.1v3.8
					c-0.3-0.1-0.7-0.1-1.1-0.1c-1.5,0-2.5,0.8-2.8,2.1c-0.1,0.3-0.1,0.6-0.1,0.9v6.6h-4.1L255.7,234z"/>
				<path class="st2" d="M265.8,233.9c0-1.6-0.1-3-0.1-4.2h3.4l0.2,1.8h0.1c0.6-0.9,1.7-2.1,4-2.1c1.7,0,3,0.9,3.6,2.2h0.1
					c0.5-0.7,1.1-1.2,1.7-1.6c0.7-0.4,1.5-0.6,2.5-0.6c2.5,0,4.4,1.8,4.4,5.7v7.7h-4v-7.1c0-1.9-0.6-3-1.9-3c-1,0-1.6,0.6-1.9,1.4
					c-0.1,0.3-0.1,0.7-0.1,1v7.6h-4v-7.3c0-1.6-0.6-2.8-1.9-2.8c-1,0-1.7,0.8-1.9,1.4c-0.1,0.3-0.2,0.7-0.2,1v7.6h-4V233.9z"/>
				<path class="st2" d="M290.8,228c-1.4,0-2.2-1-2.2-2.2c0-1.2,0.9-2.2,2.3-2.2c1.4,0,2.2,0.9,2.3,2.2
					C293.1,227,292.2,228,290.8,228L290.8,228z M288.8,242.8v-13.1h4.1v13.1H288.8z"/>
				<path class="st2" d="M296.1,233.9c0-1.6-0.1-3-0.1-4.2h3.5l0.2,1.8h0.1c0.5-0.9,1.8-2.1,4-2.1c2.7,0,4.7,1.8,4.7,5.6v7.7h-4.1
					v-7.2c0-1.7-0.6-2.8-2.1-2.8c-1.1,0-1.8,0.8-2.1,1.5c-0.1,0.3-0.1,0.6-0.1,1v7.5h-4.1V233.9z"/>
				<path class="st2" d="M322.7,239.6c0,1.2,0.1,2.4,0.2,3.2h-3.7l-0.2-1.3h-0.1c-0.9,1-2.2,1.6-3.7,1.6c-2.6,0-4.2-1.9-4.2-4
					c0-3.4,3-5,7.7-5v-0.2c0-0.7-0.4-1.7-2.4-1.7c-1.3,0-2.8,0.5-3.6,1l-0.7-2.6c0.9-0.5,2.7-1.2,5.1-1.2c4.4,0,5.7,2.6,5.7,5.6
					V239.6z M318.7,236.6c-2.1,0-3.8,0.5-3.8,2.1c0,1,0.7,1.6,1.6,1.6c1,0,1.8-0.7,2.1-1.5c0.1-0.2,0.1-0.5,0.1-0.7V236.6z"/>
				<path class="st2" d="M325.9,223.8h4.1v19h-4.1V223.8z"/>
				<path class="st2" d="M352,242.3c-0.7,0.3-2.4,0.8-4.6,0.8c-6.2,0-9.4-3.9-9.4-9.1c0-6.1,4.4-9.5,9.8-9.5c2.1,0,3.7,0.4,4.4,0.8
					l-0.9,3.2c-0.8-0.3-2-0.7-3.4-0.7c-3.2,0-5.7,2-5.7,6c0,3.6,2.1,5.9,5.7,5.9c1.3,0,2.6-0.2,3.4-0.6L352,242.3z"/>
				<path class="st2" d="M360,243.1c-3.8,0-6.8-2.5-6.8-6.7c0-4.2,2.8-6.9,7-6.9c4,0,6.7,2.8,6.7,6.7
					C366.9,240.9,363.5,243.1,360,243.1L360,243.1z M360.1,240.1c1.6,0,2.6-1.6,2.6-3.9c0-1.9-0.7-3.9-2.6-3.9c-1.9,0-2.7,2-2.7,3.9
					C357.4,238.5,358.3,240.1,360.1,240.1L360.1,240.1z"/>
				<path class="st2" d="M369.4,233.9c0-1.6-0.1-3-0.1-4.2h3.4l0.2,1.8h0.1c0.6-0.9,1.7-2.1,4-2.1c1.7,0,3,0.9,3.6,2.2h0.1
					c0.5-0.7,1.1-1.2,1.7-1.6c0.7-0.4,1.5-0.6,2.5-0.6c2.5,0,4.4,1.8,4.4,5.7v7.7h-4v-7.1c0-1.9-0.6-3-1.9-3c-1,0-1.6,0.6-1.9,1.4
					c-0.1,0.3-0.1,0.7-0.1,1v7.6h-4v-7.3c0-1.6-0.6-2.8-1.9-2.8c-1,0-1.7,0.8-1.9,1.4c-0.1,0.3-0.2,0.7-0.2,1v7.6h-4V233.9z"/>
				<path class="st2" d="M392.4,234.1c0-1.7-0.1-3.2-0.1-4.4h3.5l0.2,1.8h0.1c1-1.4,2.5-2.1,4.4-2.1c2.9,0,5.4,2.5,5.4,6.7
					c0,4.8-3,7-5.9,7c-1.6,0-2.8-0.6-3.4-1.5h-0.1v6.5h-4.1V234.1z M396.4,237.1c0,0.3,0,0.6,0.1,0.9c0.3,1.1,1.2,1.9,2.4,1.9
					c1.8,0,2.8-1.5,2.8-3.7c0-2.1-0.9-3.7-2.8-3.7c-1.1,0-2.2,0.9-2.4,2.1c-0.1,0.2-0.1,0.5-0.1,0.7V237.1z"/>
				<path class="st2" d="M419.2,239.6c0,1.2,0.1,2.4,0.2,3.2h-3.7l-0.2-1.3h-0.1c-0.9,1-2.2,1.6-3.7,1.6c-2.6,0-4.2-1.9-4.2-4
					c0-3.4,3-5,7.7-5v-0.2c0-0.7-0.4-1.7-2.4-1.7c-1.3,0-2.8,0.5-3.6,1l-0.7-2.6c0.9-0.5,2.7-1.2,5.1-1.2c4.4,0,5.7,2.6,5.7,5.6
					V239.6z M415.3,236.6c-2.1,0-3.8,0.5-3.8,2.1c0,1,0.7,1.6,1.6,1.6c1,0,1.8-0.7,2.1-1.5c0.1-0.2,0.1-0.5,0.1-0.7V236.6z"/>
				<path class="st2" d="M422.5,233.9c0-1.6-0.1-3-0.1-4.2h3.5l0.2,1.8h0.1c0.5-0.9,1.8-2.1,4-2.1c2.7,0,4.7,1.8,4.7,5.6v7.7h-4.1
					v-7.2c0-1.7-0.6-2.8-2.1-2.8c-1.1,0-1.8,0.8-2.1,1.5c-0.1,0.3-0.1,0.6-0.1,1v7.5h-4.1V233.9z"/>
				<path class="st2" d="M440.7,229.7l2,6.4c0.2,0.8,0.5,1.7,0.6,2.4h0.1c0.2-0.7,0.4-1.7,0.6-2.4l1.6-6.4h4.4l-3,8.6
					c-1.9,5.2-3.1,7.2-4.6,8.6c-1.4,1.2-2.9,1.7-3.9,1.8l-0.9-3.4c0.5-0.1,1.1-0.3,1.8-0.7c0.6-0.3,1.3-1,1.7-1.6
					c0.1-0.2,0.2-0.4,0.2-0.6c0-0.1,0-0.3-0.2-0.7l-4.8-11.9H440.7z"/>
				<path class="st2" d="M457.2,224.7h4.1v14.6h7.2v3.4h-11.2V224.7z"/>
				<path class="st2" d="M475.2,226.1v3.6h2.9v3h-2.9v4.8c0,1.6,0.4,2.3,1.6,2.3c0.6,0,0.8,0,1.2-0.1l0,3.1
					c-0.5,0.2-1.5,0.3-2.6,0.3c-1.3,0-2.4-0.5-3.1-1.1c-0.7-0.8-1.1-2-1.1-3.9v-5.4h-1.7v-3h1.7v-2.5L475.2,226.1z"/>
				<path class="st2" d="M493,223.8v15.1c0,1.5,0.1,3,0.1,3.9h-3.6l-0.2-1.9h-0.1c-0.8,1.4-2.4,2.2-4.1,2.2c-3.1,0-5.6-2.6-5.6-6.7
					c0-4.4,2.7-7,5.9-7c1.6,0,2.9,0.6,3.4,1.5h0.1v-7.1H493z M489,235.2c0-0.2,0-0.5-0.1-0.7c-0.2-1.1-1.1-2-2.4-2
					c-1.9,0-2.8,1.7-2.8,3.7c0,2.2,1.1,3.6,2.8,3.6c1.2,0,2.1-0.8,2.4-2c0.1-0.3,0.1-0.6,0.1-0.9V235.2z"/>
				<path class="st2" d="M497.6,243.1c-1.4,0-2.4-1-2.4-2.5c0-1.5,1-2.5,2.4-2.5c1.4,0,2.4,1,2.4,2.5C500,242,499,243.1,497.6,243.1
					L497.6,243.1z"/>
			</g>
		</g>
		<g>
			<g>
				<path class="st2" d="M13,198.9c0,3.7-2.5,6.5-6.4,6.5c-3.8,0-6.4-2.9-6.4-6.6c0-3.8,2.7-6.5,6.4-6.5C10.4,192.3,13,195,13,198.9
					z M5.5,189.8h-3v-3h3V189.8z M9.9,198.9c0-2.3-1.3-4-3.4-4c-2,0-3.2,1.6-3.2,3.8c0,2.2,1.4,3.9,3.4,3.9
					C8.7,202.7,9.9,201.1,9.9,198.9z M10.7,189.8h-3v-3h3V189.8z"/>
				<path class="st2" d="M6.7,205.6c-3.8,0-6.6-2.9-6.6-6.8c0-3.9,2.8-6.8,6.6-6.8c3.8,0,6.6,2.9,6.6,6.9
					C13.2,202.8,10.5,205.6,6.7,205.6z M6.7,192.5c-3.6,0-6.2,2.7-6.2,6.3c0,3.7,2.6,6.4,6.2,6.4c3.6,0,6.1-2.6,6.1-6.3
					C12.8,195.2,10.2,192.5,6.7,192.5z M6.7,202.9c-2,0-3.6-1.8-3.6-4.2c0-2.4,1.4-4,3.4-4c2.1,0,3.6,1.7,3.6,4.2
					C10.1,201.3,8.8,202.9,6.7,202.9z M6.6,195.2c-1.8,0-3,1.4-3,3.6c0,2.1,1.4,3.7,3.1,3.7c1.8,0,3-1.4,3-3.6
					C9.7,196.7,8.4,195.2,6.6,195.2z M10.9,190H7.5v-3.4h3.4V190z M7.9,189.6h2.5V187H7.9V189.6z M5.8,190H2.4v-3.4h3.4V190z
					 M2.8,189.6h2.5V187H2.8V189.6z"/>
			</g>
			<g>
				<path class="st2" d="M28.1,205.4H15.4v-3.1h9.7c0-3.5-1.4-5.6-4.1-6.2c-0.8-0.2-1.7-0.2-2.7-0.2v-2.7c1.5,0,2.4,0,2.8,0.1
					c0.4,0,0.9,0.1,1.6,0.4c3.6,1.2,5.4,4.1,5.4,8.7V205.4z"/>
				<path class="st2" d="M28.4,205.6H15.1v-3.5h9.7c-0.1-3.3-1.3-5.2-3.9-5.7c-0.7-0.2-1.6-0.2-2.7-0.2h-0.2V193h0.2
					c1.5,0,2.4,0,2.8,0.1c0.3,0,0.9,0.1,1.7,0.4c3.7,1.2,5.6,4.2,5.6,8.9V205.6z M15.6,205.2h12.3v-2.8c0-4.5-1.8-7.3-5.3-8.5
					c-0.8-0.3-1.3-0.3-1.6-0.4c-0.4,0-1.2-0.1-2.6-0.1v2.3c1,0,1.8,0.1,2.5,0.2c2.8,0.6,4.3,2.8,4.3,6.4v0.2h-9.7V205.2z"/>
			</g>
			<g>
				<path class="st2" d="M42.3,205c0,3.2-1.9,4.8-5.8,4.8v-2.4c1.9-0.1,2.8-1.3,2.9-3.4c-0.5,0.9-1.5,1.4-2.9,1.4
					c-3.5,0-5.8-2.6-5.8-6.1c0-3.6,2.4-6.1,5.8-6.1c3.6,0,5.8,2.6,5.8,6.2V205z M39.2,199.4c0-2.1-1.1-3.5-2.9-3.5
					c-1.6,0-2.6,1.5-2.6,3.4c0,1.9,1.1,3.4,2.8,3.4C38.1,202.7,39.2,201.2,39.2,199.4z"/>
				<path class="st2" d="M36.4,210.1h-0.2v-2.8l0.2,0c1.8-0.1,2.4-1.2,2.6-2.5c-0.6,0.6-1.5,0.9-2.6,0.9c-3.5,0-6-2.6-6-6.4
					c0-3.7,2.5-6.3,6-6.3c3.6,0,6,2.6,6,6.4v5.7C42.5,208.4,40.5,210.1,36.4,210.1z M36.7,207.7v2c3.6-0.1,5.4-1.6,5.4-4.6v-5.7
					c0-3.6-2.2-6-5.6-6c-3.3,0-5.6,2.4-5.6,5.9c0,3.5,2.3,5.9,5.6,5.9c1.3,0,2.2-0.4,2.7-1.3l0.4-0.8l0,0.9
					C39.5,206.3,38.5,207.5,36.7,207.7z M36.5,202.9c-1.7,0-3-1.6-3-3.6c0-2,1.2-3.6,2.9-3.6c1.8,0,3.1,1.5,3.1,3.7
					C39.4,201.4,38.1,202.9,36.5,202.9z M36.3,196.1c-1.4,0-2.4,1.4-2.4,3.1c0,1.8,1.1,3.2,2.6,3.2c1.4,0,2.5-1.3,2.5-3.1
					C39,197.4,37.9,196.1,36.3,196.1z"/>
			</g>
			<g>
				<path class="st2" d="M62.3,205.4H44.8v-3.1h9.7c0-3.5-1.4-5.6-4.1-6.2c-0.8-0.2-1.7-0.2-2.7-0.2v-2.7c1.5,0,2.4,0,2.8,0.1
					c0.4,0,0.9,0.1,1.6,0.4c3.6,1.2,5.4,4.1,5.4,8.7h4.7V205.4z"/>
				<path class="st2" d="M62.5,205.6H44.6v-3.5h9.7c-0.1-3.3-1.3-5.2-3.9-5.7c-0.7-0.2-1.6-0.2-2.7-0.2h-0.2V193h0.2
					c1.5,0,2.4,0,2.8,0.1c0.3,0,0.9,0.1,1.7,0.4c3.6,1.2,5.5,4.1,5.6,8.7h4.7V205.6z M45,205.2h17v-2.6h-4.7l0-0.2
					c0-4.5-1.8-7.3-5.3-8.5c-0.8-0.3-1.3-0.3-1.6-0.4c-0.4,0-1.2-0.1-2.6-0.1v2.3c1,0,1.8,0.1,2.5,0.2c2.8,0.6,4.3,2.8,4.3,6.4v0.2
					H45V205.2z"/>
			</g>
			<g>
				<path class="st2" d="M82.6,205.4H61v-3.1h15.6c0-1.7-0.5-3.1-1.4-4.3c-1.1-1.4-2.7-2-4.6-2c-0.7,0-1.4,0.2-2.3,0.5
					c-1,0.4-1.8,1-2.4,1.7c-0.3-0.6-0.8-1.3-1.5-2.4c0.8-0.8,1.8-1.4,2.9-1.9c1.2-0.5,2.4-0.8,3.6-0.8c1.9,0,3.5,0.4,4.9,1.3
					c2.4,1.5,3.8,4.1,4,7.9h2.9V205.4z"/>
				<path class="st2" d="M82.8,205.6H60.7v-3.5h15.6c0-1.5-0.5-2.8-1.3-3.9c-1-1.3-2.5-2-4.5-2c-0.7,0-1.4,0.2-2.2,0.5
					c-0.9,0.4-1.7,0.9-2.3,1.6l-0.2,0.2l-0.1-0.3c-0.3-0.5-0.7-1.3-1.4-2.3l-0.1-0.2l0.1-0.1c0.9-0.8,1.9-1.5,2.9-2
					c1.2-0.5,2.4-0.8,3.6-0.8c1.9,0,3.6,0.4,5,1.3c2.5,1.5,3.8,4.1,4.1,7.8h2.9V205.6z M61.2,205.2h21.2v-2.6h-2.8l0-0.2
					c-0.2-3.6-1.6-6.2-3.9-7.7c-1.4-0.8-3-1.3-4.8-1.3c-1.2,0-2.3,0.2-3.5,0.7c-1,0.4-1.9,1-2.7,1.7c0.5,0.8,0.9,1.5,1.2,2
					c0.6-0.6,1.4-1.2,2.3-1.5c0.8-0.4,1.6-0.5,2.3-0.5c2.1,0,3.7,0.7,4.8,2.1c1,1.2,1.4,2.7,1.4,4.4v0.2H61.2V205.2z"/>
			</g>
			<g>
				<path class="st2" d="M99.4,205.4h-3.8c-1.2,1.6-2.8,2.3-4.9,2.3c-2.1,0-3.7-0.8-4.8-2.3h-4.1v-3.1h2.9c0-0.3,0-0.6,0-0.9
					c0-1.8,0.6-3.3,1.7-4.4c1.1-1.2,2.6-1.8,4.4-1.8c1.8,0,3.3,0.6,4.4,1.8c1.1,1.2,1.7,2.7,1.7,4.5v0.8h2.7V205.4z M93.6,201.5
					c0-0.9-0.2-1.8-0.7-2.4c-0.6-0.7-1.3-1.1-2.3-1.1c-0.9,0-1.6,0.3-2.2,1.1c-0.5,0.6-0.7,1.4-0.7,2.4c0,1.9,1.2,3.5,3,3.5
					c0.9,0,1.6-0.3,2.2-1C93.4,203.3,93.6,202.5,93.6,201.5z"/>
				<path class="st2" d="M90.7,208c-2.1,0-3.7-0.8-4.9-2.3h-4.2v-3.5h2.9c0-0.2,0-0.4,0-0.7c0-1.8,0.6-3.4,1.7-4.6
					c1.2-1.2,2.7-1.8,4.5-1.8c1.9,0,3.4,0.6,4.5,1.9c1.2,1.3,1.7,2.8,1.7,4.6v0.6h2.7v3.5h-4C94.5,207.2,92.8,208,90.7,208z
					 M82,205.2h4l0.1,0.1c1.1,1.5,2.6,2.3,4.6,2.3c2,0,3.6-0.7,4.7-2.3l0.1-0.1h3.7v-2.6h-2.7v-1c0-1.7-0.5-3.2-1.6-4.3
					c-1.1-1.2-2.4-1.7-4.2-1.7c-1.7,0-3.1,0.5-4.2,1.7c-1.1,1.1-1.6,2.6-1.6,4.3c0,0.3,0,0.6,0,0.9l0,0.2H82V205.2z M90.8,205.2
					c-1.9,0-3.3-1.6-3.3-3.7c0-1,0.3-1.8,0.7-2.5c0.6-0.8,1.4-1.2,2.4-1.2c1,0,1.9,0.4,2.5,1.2c0.5,0.7,0.8,1.6,0.8,2.6
					c0,1-0.3,1.9-0.7,2.5C92.5,204.8,91.7,205.2,90.8,205.2z M90.6,198.2c-0.9,0-1.5,0.3-2,1c-0.4,0.6-0.7,1.4-0.7,2.2
					c0,1.9,1.2,3.3,2.8,3.3c0.8,0,1.5-0.3,2-0.9c0.4-0.6,0.7-1.4,0.7-2.3c0-0.9-0.2-1.7-0.7-2.3C92.2,198.6,91.5,198.2,90.6,198.2z"
					/>
			</g>
			<g>
				<path class="st2" d="M106.1,200.6c0,3.3-1.5,4.9-4.5,4.9h-3.2v-3.1h2.6c1,0,1.6-0.3,1.9-0.9c0.1-0.3,0.2-1,0.2-1.9v-11.5h3
					V200.6z"/>
				<path class="st2" d="M101.6,205.6h-3.4v-3.5h2.8c0.9,0,1.5-0.3,1.7-0.8c0.1-0.2,0.2-0.6,0.2-1.8v-11.7h3.5v12.7
					C106.4,203.9,104.8,205.6,101.6,205.6z M98.7,205.2h3c2.9,0,4.3-1.5,4.3-4.7v-12.3h-2.6v11.2c0,1-0.1,1.7-0.2,2
					c-0.3,0.7-1,1-2.1,1h-2.3V205.2z"/>
			</g>
			<g>
				<path class="st2" d="M111.9,205.4h-3V188h3V205.4z"/>
				<path class="st2" d="M112.1,205.6h-3.4v-17.8h3.4V205.6z M109.1,205.2h2.5v-16.9h-2.5V205.2z"/>
			</g>
			<g>
				<path class="st2" d="M137.2,205.4H134c-2.3,0-4.3-1.6-4.9-4c-0.9,1.3-2.1,2-3.4,2c-3.4,0-5.6-2.6-5.6-6.3c0-4,2.1-6.5,5.6-6.5
					h6.6v8.5c0,2.1,1,3.2,3,3.2h1.9V205.4z M129.2,196.8v-3.9h-2.7c-2.1,0-3.4,1.7-3.4,4.2c0,2.1,1.2,3.8,3,3.8
					C128,201,129.2,199.1,129.2,196.8z M127,188.4h-3v-3h3V188.4z M132.1,188.4h-3v-3h3V188.4z"/>
				<path class="st2" d="M137.5,205.6H134c-2.3,0-4.2-1.4-5-3.7c-0.9,1.2-2.1,1.8-3.4,1.8c-3.5,0-5.8-2.6-5.8-6.5
					c0-4.2,2.2-6.8,5.8-6.8h6.9v8.8c0,2,0.9,3,2.8,3h2.1V205.6z M129.2,200.9l0.1,0.5c0.6,2.3,2.4,3.8,4.7,3.8h3v-2.6h-1.7
					c-2.1,0-3.2-1.2-3.2-3.5v-8.3h-6.4c-3.3,0-5.3,2.4-5.3,6.3c0,3.7,2.1,6.1,5.3,6.1c1.3,0,2.4-0.6,3.3-1.9L129.2,200.9z
					 M126,201.2c-1.8,0-3.2-1.8-3.2-4.1c0-2.7,1.4-4.4,3.6-4.4h2.9v4.1C129.4,199.4,128,201.2,126,201.2z M126.5,193.2
					c-2,0-3.2,1.5-3.2,4c0,2.1,1.2,3.6,2.7,3.6c1.7,0,2.9-1.6,2.9-3.9v-3.7H126.5z M132.3,188.6h-3.4v-3.5h3.4V188.6z M129.3,188.2
					h2.5v-2.6h-2.5V188.2z M127.2,188.6h-3.4v-3.5h3.4V188.6z M124.2,188.2h2.5v-2.6h-2.5V188.2z"/>
			</g>
			<g>
				<path class="st2" d="M139.2,211.3h-3v-3h3V211.3z M148.8,205.4h-12.4v-3.1h2.9c0.9,0,1.5-0.3,1.8-0.9c0.2-0.4,0.3-1.1,0.3-2
					v-6.2h3v6c0,1.6-0.2,2.6-0.7,3.1h5.1V205.4z M144.3,211.3h-3v-3h3V211.3z"/>
				<path class="st2" d="M144.5,211.5h-3.4v-3.5h3.4V211.5z M141.6,211.1h2.5v-2.6h-2.5V211.1z M139.4,211.5H136v-3.5h3.4V211.5z
					 M136.5,211.1h2.5v-2.6h-2.5V211.1z M149,205.6h-12.9v-3.5h3.1c0.8,0,1.4-0.3,1.6-0.8c0.1-0.3,0.3-0.8,0.3-1.9V193h3.4v6.3
					c0,1.4-0.2,2.3-0.5,2.9h4.9V205.6z M136.6,205.2h12v-2.6h-5.3l0.3-0.4c0.4-0.5,0.6-1.4,0.6-3v-5.8h-2.5v6c0,1-0.1,1.7-0.3,2.2
					c-0.4,0.7-1,1-2,1h-2.7V205.2z"/>
			</g>
			<g>
				<path class="st2" d="M160.5,205.4h-12.4v-3.1h2.8c0.9,0,1.5-0.3,1.8-0.9c0.2-0.4,0.3-1.1,0.3-2v-6.2h3v6c0,1.6-0.2,2.6-0.6,3.1
					h5.2V205.4z M156,190.7h-3v-3h3V190.7z"/>
				<path class="st2" d="M160.7,205.6h-12.9v-3.5h3c0.8,0,1.3-0.3,1.6-0.8c0.1-0.3,0.3-0.8,0.3-1.9V193h3.4v6.3
					c0,1.3-0.2,2.3-0.5,2.9h5V205.6z M148.3,205.2h12v-2.6h-5.4l0.3-0.4c0.4-0.5,0.6-1.5,0.6-3v-5.8h-2.5v6c0,1-0.1,1.7-0.3,2.2
					c-0.4,0.7-1,1-2,1h-2.6V205.2z M156.2,190.9h-3.4v-3.4h3.4V190.9z M153.2,190.5h2.5V188h-2.5V190.5z"/>
			</g>
			<g>
				<path class="st2" d="M182,205.4h-22.3v-3.1h5v-14.3h3l-0.3,9.7c2.5-3.2,5.1-4.7,7.9-4.7c4.7,0,7,3.2,7,9.5
					C182.1,203.5,182.1,204.4,182,205.4z M179,202.4v-0.9c0-3.4-1.5-5.7-4.1-5.7c-3,0-6.1,2.7-7.9,6.5H179z"/>
				<path class="st2" d="M182.2,205.6h-22.7v-3.5h5v-14.3h3.4l-0.3,9.3c2.3-2.8,4.9-4.2,7.6-4.2c4.8,0,7.2,3.3,7.2,9.7
					c0,0.8,0,1.7-0.1,2.8L182.2,205.6z M159.9,205.2h21.9c0.1-1,0.1-1.8,0.1-2.6c0-6.2-2.2-9.3-6.7-9.3c-2.8,0-5.3,1.5-7.7,4.6
					l-0.4,0.5l0.3-10.2h-2.5v14.3h-5V205.2z M179.2,202.6h-12.6l0.2-0.3c1.9-4,5.1-6.6,8.1-6.6c2.7,0,4.4,2.3,4.4,5.9V202.6z
					 M167.3,202.1h11.5v-0.6c0-3.3-1.5-5.4-3.9-5.4C172.1,196.1,169.2,198.4,167.3,202.1z"/>
			</g>
			<g>
				<path class="st2" d="M200,205.4h-3.7c-0.4,3-2.4,4.4-5.9,4.4v-2.4c1.6,0,2.6-0.6,3-2.1h-2.9c-3.3,0-5.9-2.7-5.9-6.3
					c0-3.6,2.6-6,6-6c3.3,0,5.6,2.5,5.6,6.1v3.1h3.7V205.4z M193.2,202.4v-3.7c-0.2-1.6-1.1-2.7-2.6-2.7c-1.8,0-2.9,1.2-2.9,3
					c0,1.9,1.3,3.4,2.9,3.4H193.2z"/>
				<path class="st2" d="M190.4,210.1h-0.2v-2.8h0.2c1.4,0,2.2-0.5,2.7-1.6h-2.6c-3.4,0-6.1-2.9-6.1-6.5c0-3.6,2.6-6.2,6.3-6.2
					c3.4,0,5.8,2.6,5.8,6.3v2.9h3.7v3.5h-3.7C196,208.6,194,210.1,190.4,210.1z M190.6,207.7v1.9c3.3-0.1,5-1.5,5.4-4.2l0-0.2h3.6
					v-2.6H196v-3.3c0-3.4-2.2-5.8-5.4-5.8c-3.4,0-5.8,2.4-5.8,5.8c0,3.4,2.5,6,5.7,6h3.2l-0.1,0.3
					C193.2,206.9,192.2,207.7,190.6,207.7z M193.5,202.6h-2.9c-1.7,0-3.1-1.6-3.1-3.6c0-2,1.3-3.3,3.1-3.3c1.6,0,2.7,1.1,2.9,2.9
					L193.5,202.6z M190.6,196.2c-1.6,0-2.7,1.1-2.7,2.8c0,1.7,1.2,3.1,2.7,3.1h2.4v-3.5C192.9,197.1,192,196.2,190.6,196.2z"/>
			</g>
			<g>
				<path class="st2" d="M206.9,200.6c0,3.3-1.5,4.9-4.5,4.9h-3.2v-3.1h2.6c1,0,1.6-0.3,1.9-0.9c0.1-0.3,0.2-1,0.2-1.9v-11.5h3
					V200.6z"/>
				<path class="st2" d="M202.4,205.6H199v-3.5h2.8c0.9,0,1.5-0.3,1.7-0.8c0.1-0.2,0.2-0.6,0.2-1.8v-11.7h3.5v12.7
					C207.1,203.9,205.5,205.6,202.4,205.6z M199.4,205.2h3c2.9,0,4.3-1.5,4.3-4.7v-12.3h-2.6v11.2c0,1-0.1,1.7-0.2,2
					c-0.3,0.7-1,1-2.1,1h-2.3V205.2z"/>
			</g>
			<g>
				<path class="st2" d="M212.6,205.4h-3V188h3V205.4z"/>
				<path class="st2" d="M212.9,205.6h-3.4v-17.8h3.4V205.6z M209.9,205.2h2.5v-16.9h-2.5V205.2z"/>
			</g>
			<g>
				<path class="st2" d="M243.3,193.2v7.9c0,2.7-1.5,4.3-4.2,4.3h-9.8c-5.7,0-8.6-2.5-8.6-7.6v-4.6h3v4.6c0,1.8,0.5,3,1.5,3.7
					c0.8,0.6,2,0.9,3.7,0.9h7.4c1.4,0,2.3-0.2,2.8-0.5c0.8-0.5,1.1-1.4,1.1-2.8v-5.8H243.3z M230.9,193.2H228v-3h2.9V193.2z
					 M236.1,193.2h-2.9v-3h2.9V193.2z"/>
				<path class="st2" d="M239.2,205.6h-9.8c-5.8,0-8.8-2.6-8.8-7.8V193h3.4v4.8c0,1.7,0.5,2.9,1.4,3.5c0.8,0.5,2,0.8,3.6,0.8h7.4
					c1.3,0,2.2-0.2,2.7-0.5c0.7-0.4,1-1.3,1-2.6V193h3.4v8.1C243.6,204,241.9,205.6,239.2,205.6z M221,193.4v4.4
					c0,5,2.7,7.4,8.3,7.4h9.8c2.5,0,4-1.5,4-4.1v-7.7h-2.5v5.6c0,1.5-0.4,2.5-1.2,3c-0.5,0.4-1.5,0.5-2.9,0.5H229
					c-1.7,0-3-0.3-3.8-0.9c-1.1-0.7-1.6-2-1.6-3.9v-4.4H221z M236.3,193.4h-3.4V190h3.4V193.4z M233.3,193h2.5v-2.5h-2.5V193z
					 M231.2,193.4h-3.4V190h3.4V193.4z M228.2,193h2.5v-2.5h-2.5V193z"/>
			</g>
			<g>
				<path class="st2" d="M254.1,205.4h-3.5c-1.5,0-2.6-0.5-3.3-1.4c-0.7-0.9-1.1-2-1.1-3.5v-12.5h3v11.3c0,1.3,0.3,2.2,0.9,2.6
					c0.4,0.3,1.2,0.5,2.3,0.5h1.8V205.4z"/>
				<path class="st2" d="M254.3,205.6h-3.8c-1.5,0-2.7-0.5-3.5-1.5c-0.8-0.9-1.1-2.1-1.1-3.6v-12.7h3.4v11.5c0,1.2,0.3,2,0.8,2.4
					c0.3,0.2,0.8,0.4,2.2,0.4h2V205.6z M246.3,188.3v12.2c0,1.4,0.3,2.5,1,3.4c0.7,0.9,1.8,1.3,3.2,1.3h3.3v-2.6h-1.6
					c-1.2,0-2-0.2-2.4-0.5c-0.6-0.5-1-1.4-1-2.8v-11H246.3z"/>
			</g>
			<g>
				<path class="st2" d="M255.8,211.3h-3v-3h3V211.3z M260.9,200.6c0,3.3-1.5,4.9-4.5,4.9h-3.2v-3.1h2.5c1,0,1.6-0.3,1.9-0.9
					c0.1-0.3,0.2-1,0.2-1.9v-6.3h3V200.6z M260.9,211.3h-3v-3h3V211.3z"/>
				<path class="st2" d="M261.1,211.5h-3.4v-3.5h3.4V211.5z M258.1,211.1h2.5v-2.6h-2.5V211.1z M256,211.5h-3.4v-3.5h3.4V211.5z
					 M253,211.1h2.5v-2.6H253V211.1z M256.4,205.6h-3.4v-3.5h2.8c0.9,0,1.5-0.3,1.7-0.8c0.1-0.2,0.2-0.6,0.2-1.8V193h3.5v7.6
					C261.2,203.9,259.6,205.6,256.4,205.6z M253.5,205.2h3c2.9,0,4.3-1.5,4.3-4.7v-7.1h-2.6v6.1c0,1-0.1,1.7-0.2,2
					c-0.3,0.7-1,1-2.1,1h-2.3V205.2z"/>
			</g>
			<g>
				<path class="st2" d="M275.1,205c0,3.2-1.9,4.8-5.8,4.8v-2.4c1.9-0.1,2.8-1.3,2.9-3.4c-0.5,0.9-1.5,1.4-2.9,1.4
					c-3.5,0-5.8-2.6-5.8-6.1c0-3.6,2.4-6.1,5.8-6.1c3.6,0,5.8,2.6,5.8,6.2V205z M272,199.4c0-2.1-1.1-3.5-2.9-3.5
					c-1.6,0-2.6,1.5-2.6,3.4c0,1.9,1.1,3.4,2.8,3.4C270.9,202.7,272,201.2,272,199.4z"/>
				<path class="st2" d="M269.2,210.1H269v-2.8l0.2,0c1.8-0.1,2.4-1.2,2.6-2.5c-0.6,0.6-1.4,0.9-2.6,0.9c-3.5,0-6-2.6-6-6.4
					c0-3.7,2.5-6.3,6-6.3c3.6,0,6,2.6,6,6.4v5.7C275.3,208.4,273.3,210.1,269.2,210.1z M269.5,207.7v2c3.6-0.1,5.4-1.6,5.4-4.6v-5.7
					c0-3.6-2.2-6-5.6-6c-3.3,0-5.6,2.4-5.6,5.9c0,3.5,2.3,5.9,5.6,5.9c1.3,0,2.2-0.4,2.7-1.3l0.4-0.8l0,0.9
					C272.3,206.3,271.3,207.5,269.5,207.7z M269.3,202.9c-1.7,0-3-1.6-3-3.6c0-2,1.2-3.6,2.9-3.6c1.8,0,3.1,1.5,3.1,3.7
					C272.2,201.4,270.9,202.9,269.3,202.9z M269.1,196.1c-1.4,0-2.4,1.4-2.4,3.1c0,1.8,1.1,3.2,2.5,3.2c1.4,0,2.5-1.3,2.5-3.1
					C271.8,197.4,270.7,196.1,269.1,196.1z"/>
			</g>
			<g>
				<path class="st2" d="M285.8,205.4h-3.5c-1.5,0-2.6-0.5-3.3-1.4c-0.7-0.9-1.1-2-1.1-3.5v-12.5h3v11.3c0,1.3,0.3,2.2,0.9,2.6
					c0.4,0.3,1.2,0.5,2.3,0.5h1.8V205.4z"/>
				<path class="st2" d="M286,205.6h-3.8c-1.5,0-2.7-0.5-3.5-1.5c-0.8-0.9-1.1-2.1-1.1-3.6v-12.7h3.4v11.5c0,1.2,0.3,2,0.8,2.4
					c0.3,0.2,0.8,0.4,2.2,0.4h2V205.6z M278.1,188.3v12.2c0,1.4,0.3,2.5,1,3.4c0.7,0.9,1.8,1.3,3.2,1.3h3.3v-2.6H284
					c-1.2,0-2-0.2-2.4-0.5c-0.6-0.5-1-1.4-1-2.8v-11H278.1z"/>
			</g>
			<g>
				<path class="st2" d="M306.4,205.4h-21.6v-3.1h15.6c0-1.7-0.5-3.1-1.4-4.3c-1.1-1.4-2.7-2-4.6-2c-0.7,0-1.4,0.2-2.3,0.5
					c-1,0.4-1.8,1-2.4,1.7c-0.3-0.6-0.8-1.3-1.5-2.4c0.8-0.8,1.8-1.4,2.9-1.9c1.2-0.5,2.4-0.8,3.6-0.8c1.9,0,3.5,0.4,4.9,1.3
					c2.5,1.5,3.8,4.1,4,7.9h2.9V205.4z"/>
				<path class="st2" d="M306.6,205.6h-22.1v-3.5h15.6c0-1.5-0.5-2.8-1.3-3.9c-1-1.3-2.5-2-4.5-2c-0.7,0-1.4,0.2-2.2,0.5
					c-0.9,0.4-1.7,0.9-2.3,1.6l-0.2,0.2l-0.1-0.3c-0.3-0.5-0.7-1.3-1.4-2.3l-0.1-0.2l0.1-0.1c0.9-0.8,1.9-1.5,2.9-2
					c1.2-0.5,2.4-0.8,3.6-0.8c1.9,0,3.6,0.4,5,1.3c2.5,1.5,3.8,4.1,4.1,7.8h2.9V205.6z M285,205.2h21.2v-2.6h-2.8l0-0.2
					c-0.2-3.6-1.6-6.2-3.9-7.7c-1.4-0.8-3-1.3-4.8-1.3c-1.2,0-2.3,0.2-3.5,0.7c-1,0.4-1.9,1-2.7,1.7c0.5,0.8,0.9,1.5,1.2,2
					c0.6-0.6,1.4-1.2,2.3-1.5c0.8-0.4,1.6-0.5,2.3-0.5c2.1,0,3.7,0.7,4.8,2.1c1,1.2,1.4,2.7,1.4,4.4v0.2H285V205.2z"/>
			</g>
			<g>
				<path class="st2" d="M313.3,200.6c0,3.3-1.5,4.9-4.5,4.9h-3.2v-3.1h2.6c1,0,1.6-0.3,1.9-0.9c0.1-0.3,0.2-1,0.2-1.9v-11.5h3
					V200.6z"/>
				<path class="st2" d="M308.8,205.6h-3.4v-3.5h2.8c0.9,0,1.5-0.3,1.7-0.8c0.1-0.2,0.2-0.6,0.2-1.8v-11.7h3.5v12.7
					C313.5,203.9,311.9,205.6,308.8,205.6z M305.8,205.2h3c2.9,0,4.3-1.5,4.3-4.7v-12.3h-2.6v11.2c0,1-0.1,1.7-0.2,2
					c-0.3,0.7-1,1-2.1,1h-2.3V205.2z"/>
			</g>
			<g>
				<path class="st2" d="M319,205.4h-3V188h3V205.4z"/>
				<path class="st2" d="M319.3,205.6h-3.4v-17.8h3.4V205.6z M316.3,205.2h2.5v-16.9h-2.5V205.2z"/>
			</g>
			<g>
				<path class="st2" d="M349.7,193.2v7.9c0,2.7-1.5,4.3-4.2,4.3h-9.8c-5.7,0-8.6-2.5-8.6-7.6v-4.6h3v4.6c0,1.8,0.5,3,1.5,3.7
					c0.8,0.6,2,0.9,3.7,0.9h7.4c1.4,0,2.3-0.2,2.8-0.5c0.8-0.5,1.1-1.4,1.1-2.8v-5.8H349.7z M337.3,193.2h-2.9v-3h2.9V193.2z
					 M342.5,193.2h-2.9v-3h2.9V193.2z"/>
				<path class="st2" d="M345.5,205.6h-9.8c-5.8,0-8.8-2.6-8.8-7.8V193h3.4v4.8c0,1.7,0.5,2.9,1.4,3.5c0.8,0.5,2,0.8,3.6,0.8h7.4
					c1.3,0,2.2-0.2,2.7-0.5c0.7-0.4,1-1.3,1-2.6V193h3.4v8.1C349.9,204,348.3,205.6,345.5,205.6z M327.4,193.4v4.4
					c0,5,2.7,7.4,8.3,7.4h9.8c2.5,0,4-1.5,4-4.1v-7.7H347v5.6c0,1.5-0.4,2.5-1.2,3c-0.5,0.4-1.5,0.5-2.9,0.5h-7.4
					c-1.7,0-3-0.3-3.8-0.9c-1.1-0.7-1.6-2-1.6-3.9v-4.4H327.4z M342.7,193.4h-3.4V190h3.4V193.4z M339.7,193h2.5v-2.5h-2.5V193z
					 M337.6,193.4h-3.4V190h3.4V193.4z M334.6,193h2.5v-2.5h-2.5V193z"/>
			</g>
			<g>
				<path class="st2" d="M360.5,205.4h-3.5c-1.5,0-2.6-0.5-3.3-1.4c-0.7-0.9-1.1-2-1.1-3.5v-12.5h3v11.3c0,1.3,0.3,2.2,0.9,2.6
					c0.4,0.3,1.2,0.5,2.3,0.5h1.8V205.4z"/>
				<path class="st2" d="M360.7,205.6h-3.8c-1.5,0-2.7-0.5-3.5-1.5c-0.8-0.9-1.1-2.1-1.1-3.6v-12.7h3.4v11.5c0,1.2,0.3,2,0.8,2.4
					c0.3,0.2,0.8,0.4,2.2,0.4h2V205.6z M352.7,188.3v12.2c0,1.4,0.3,2.5,1,3.4c0.7,0.9,1.8,1.3,3.2,1.3h3.3v-2.6h-1.6
					c-1.2,0-2-0.2-2.4-0.5c-0.6-0.5-1-1.4-1-2.8v-11H352.7z"/>
			</g>
			<g>
				<path class="st2" d="M385.4,205.4h-25.8v-3.1h5.2v-14.3h3l-0.4,9.7c2.5-3.2,5.1-4.7,7.9-4.7c4.5,0,6.9,3.1,7,9.2h3V205.4z
					 M379.2,202.4c0-0.3,0-0.6,0-0.9c0-3.4-1.6-5.7-4.1-5.7c-3,0-6.2,2.7-7.9,6.5H379.2z"/>
				<path class="st2" d="M385.6,205.6h-26.2v-3.5h5.2v-14.3h3.4l-0.4,9.3c2.4-2.8,4.9-4.2,7.7-4.2c4.6,0,7.1,3.1,7.2,9.2h3V205.6z
					 M359.8,205.2h25.3v-2.6h-3l0-0.2c-0.1-6-2.3-9-6.7-9c-2.8,0-5.4,1.5-7.8,4.6l-0.4,0.5l0.4-10.2h-2.5v14.3h-5.2V205.2z
					 M379.4,202.6h-12.6l0.1-0.3c1.8-4,5.1-6.6,8.1-6.6c2.7,0,4.4,2.3,4.4,5.9c0,0.3,0,0.6,0,0.9L379.4,202.6z M367.5,202.1H379
					c0-0.2,0-0.4,0-0.6c0-3.3-1.5-5.4-3.9-5.4C372.3,196.1,369.3,198.5,367.5,202.1z"/>
			</g>
			<g>
				<path class="st2" d="M406.3,205.4h-21.6v-3.1h15.6c0-1.7-0.5-3.1-1.4-4.3c-1.1-1.4-2.7-2-4.6-2c-0.7,0-1.4,0.2-2.3,0.5
					c-1,0.4-1.8,1-2.4,1.7c-0.3-0.6-0.8-1.3-1.5-2.4c0.8-0.8,1.8-1.4,2.9-1.9c1.2-0.5,2.4-0.8,3.6-0.8c1.9,0,3.5,0.4,4.9,1.3
					c2.5,1.5,3.8,4.1,4,7.9h2.9V205.4z"/>
				<path class="st2" d="M406.5,205.6h-22.1v-3.5H400c0-1.5-0.5-2.8-1.3-3.9c-1-1.3-2.5-2-4.5-2c-0.7,0-1.4,0.2-2.2,0.5
					c-0.9,0.4-1.7,0.9-2.3,1.6l-0.2,0.2l-0.1-0.3c-0.3-0.5-0.7-1.3-1.4-2.3l-0.1-0.2l0.1-0.1c0.9-0.8,1.9-1.5,2.9-2
					c1.2-0.5,2.4-0.8,3.6-0.8c1.9,0,3.6,0.4,5,1.3c2.5,1.5,3.8,4.1,4.1,7.8h2.9V205.6z M384.9,205.2H406v-2.6h-2.8l0-0.2
					c-0.2-3.6-1.6-6.2-3.9-7.7c-1.4-0.8-3-1.3-4.8-1.3c-1.2,0-2.3,0.2-3.5,0.7c-1,0.4-1.9,1-2.7,1.7c0.5,0.8,0.9,1.5,1.2,2
					c0.6-0.6,1.4-1.2,2.3-1.5c0.8-0.4,1.6-0.5,2.3-0.5c2.1,0,3.7,0.7,4.8,2.1c1,1.2,1.4,2.7,1.4,4.4v0.2h-15.6V205.2z"/>
			</g>
			<g>
				<path class="st2" d="M421.2,201.6c0,3.6-2.4,6.2-6,6.2c-2.1,0-3.7-0.8-4.9-2.4h-4.8v-3.1h3.7l0-0.1c0-0.2-0.1-0.5-0.1-0.7
					c0-3.6,2.5-6.2,6.1-6.2C418.7,195.3,421.2,198.1,421.2,201.6z M418.1,201.6c0-2-1.2-3.6-3-3.6c-1.7,0-2.9,1.4-2.9,3.4
					c0,2,1.3,3.6,3.1,3.6C416.9,205,418.1,203.6,418.1,201.6z"/>
				<path class="st2" d="M415.2,208c-2.1,0-3.8-0.8-5-2.4h-5v-3.5h3.7c0-0.2,0-0.4,0-0.6c0-3.8,2.6-6.4,6.3-6.4
					c3.6,0,6.3,2.7,6.3,6.5C421.4,205.3,418.8,208,415.2,208z M405.7,205.2h4.7l0.1,0.1c1.1,1.5,2.7,2.3,4.7,2.3
					c3.4,0,5.8-2.5,5.8-6c0-3.5-2.4-6.1-5.8-6.1c-3.5,0-5.9,2.5-5.9,6c0,0.2,0,0.4,0,0.7l0.1,0.4h-3.8V205.2z M415.2,205.2
					c-1.9,0-3.3-1.6-3.3-3.8c0-2.1,1.3-3.7,3.1-3.7c1.9,0,3.2,1.6,3.2,3.8C418.3,203.7,417,205.2,415.2,205.2z M415.1,198.2
					c-1.6,0-2.7,1.3-2.7,3.2c0,1.9,1.2,3.3,2.8,3.3c1.6,0,2.6-1.3,2.6-3.2C417.9,199.7,416.7,198.2,415.1,198.2z"/>
			</g>
			<g>
				<path class="st2" d="M446.5,205.4h-3.3c-2.3,0-4.3-1.6-4.9-4c-0.9,1.3-2.1,2-3.4,2c-3.4,0-5.6-2.6-5.6-6.3c0-4,2.1-6.5,5.6-6.5
					h6.6v8.5c0,2.1,1,3.2,3,3.2h1.9V205.4z M438.5,196.8v-3.9h-2.7c-2.1,0-3.4,1.7-3.4,4.2c0,2.1,1.2,3.8,3,3.8
					C437.3,201,438.5,199.1,438.5,196.8z M436.3,188.4h-3v-3h3V188.4z M441.4,188.4h-3v-3h3V188.4z"/>
				<path class="st2" d="M446.8,205.6h-3.5c-2.3,0-4.2-1.4-5-3.7c-0.9,1.2-2.1,1.8-3.4,1.8c-3.5,0-5.8-2.6-5.8-6.5
					c0-4.2,2.2-6.8,5.8-6.8h6.9v8.8c0,2,0.9,3,2.8,3h2.1V205.6z M438.5,200.9l0.1,0.5c0.6,2.3,2.4,3.8,4.7,3.8h3v-2.6h-1.7
					c-2.1,0-3.2-1.2-3.2-3.5v-8.3H435c-3.3,0-5.3,2.4-5.3,6.3c0,3.7,2.1,6.1,5.3,6.1c1.3,0,2.4-0.6,3.3-1.9L438.5,200.9z
					 M435.3,201.2c-1.8,0-3.2-1.8-3.2-4.1c0-2.7,1.4-4.4,3.6-4.4h2.9v4.1C438.7,199.4,437.3,201.2,435.3,201.2z M435.8,193.2
					c-2,0-3.2,1.5-3.2,4c0,2.1,1.2,3.6,2.7,3.6c1.7,0,2.9-1.6,2.9-3.9v-3.7H435.8z M441.6,188.6h-3.4v-3.5h3.4V188.6z M438.6,188.2
					h2.5v-2.6h-2.5V188.2z M436.5,188.6h-3.4v-3.5h3.4V188.6z M433.5,188.2h2.5v-2.6h-2.5V188.2z"/>
			</g>
			<g>
				<path class="st2" d="M463.7,203.5v1.9h-18v-3.1h14.8c0-1.7-0.5-3.1-1.5-4.3c-1.1-1.4-2.7-2-4.7-2h-6.2l5.3-8h3.6l-3.6,5.1h1.3
					c2,0,3.7,0.5,5.2,1.5C462.5,196.4,463.7,199.3,463.7,203.5z"/>
				<path class="st2" d="M464,205.6h-18.5v-3.5h14.8c0-1.5-0.5-2.8-1.4-3.9c-1.1-1.3-2.6-2-4.5-2h-6.6l5.6-8.4h4.1l-3.6,5.1h0.9
					c2,0,3.8,0.5,5.3,1.5c2.6,1.7,3.9,4.8,3.9,9V205.6z M445.9,205.2h17.6v-1.7c0-4.2-1.2-7-3.7-8.7c-1.4-1-3.1-1.4-5-1.4H453
					l3.6-5.1h-3l-5,7.5h5.8c2,0,3.7,0.7,4.8,2.1c1,1.2,1.5,2.7,1.5,4.4v0.2h-14.8V205.2z"/>
			</g>
			<g>
				<path class="st2" d="M477.1,205.4h-4.8c-0.5,2.9-2.9,4.5-6.6,4.5v-2.6c2.5,0,3.7-1.2,3.7-3.8v-10.3h3v9.2h4.6V205.4z"/>
				<path class="st2" d="M465.7,210.1h-0.2v-3h0.2c2.4,0,3.5-1.1,3.5-3.6V193h3.5v9.2h4.6v3.5h-4.9
					C471.9,208.5,469.5,210.1,465.7,210.1z M465.9,207.5v2.1c3.5-0.1,5.7-1.6,6.1-4.3l0-0.2h4.8v-2.6h-4.6v-9.2h-2.6v10.1
					C469.7,206.1,468.4,207.5,465.9,207.5z"/>
			</g>
			<g>
				<path class="st2" d="M476.2,202.4h2.2c1.5,0,2.3-1.1,2.3-3.2v-6h3v5.9c0,1.6-0.2,2.6-0.5,3.1v0.2h2.8c1.5,0,2.3-1,2.3-3v-6.2h3
					v5.9c0,1.8-0.2,2.9-0.6,3.3h2.9c1.5,0,2.3-1,2.3-3v-6.2h3v5.8c0,3.9-2.2,6.4-5.2,6.4h-17.6V202.4z M485.8,190.7v-3h2.9v3H485.8z
					 M488.3,186.5v-3h3v3H488.3z M490.8,190.7v-3h2.9v3H490.8z"/>
				<path class="st2" d="M493.8,205.6h-17.8v-3.5h2.4c0.9,0,2.1-0.3,2.1-3V193h3.5v6.1c0,1.5-0.1,2.5-0.4,3.1h2.5
					c1.4,0,2.1-0.9,2.1-2.8V193h3.5v6.1c0,1.5-0.1,2.5-0.4,3.1h2.5c1.4,0,2.1-0.9,2.1-2.7V193h3.5v6
					C499.2,203,497,205.6,493.8,205.6z M476.4,205.2h17.4c3,0,5-2.5,5-6.2v-5.6h-2.6v6c0,2.1-0.8,3.2-2.5,3.2h-3.5l0.4-0.4
					c0.2-0.2,0.6-0.9,0.6-3.1v-5.6h-2.6v5.9c0,2.1-0.8,3.2-2.5,3.2h-3v-0.4l0-0.1c0.3-0.5,0.4-1.5,0.4-3v-5.6h-2.6v5.8
					c0,2.3-0.8,3.4-2.5,3.4h-2V205.2z M494,190.9h-3.4v-3.4h3.4V190.9z M491.1,190.5h2.5V188h-2.5V190.5z M488.9,190.9h-3.4v-3.4
					h3.4V190.9z M486,190.5h2.5V188H486V190.5z M491.5,186.7h-3.4v-3.5h3.4V186.7z M488.5,186.3h2.5v-2.6h-2.5V186.3z"/>
			</g>
		</g>
	</g>
</g>
</svg>
