<?xml version="1.0" encoding="utf-8"?>
<!-- Generator: Adobe Illustrator 26.0.1, SVG Export Plug-In . SVG Version: 6.00 Build 0)  -->
<svg version="1.1" id="Layer_1" xmlns="http://www.w3.org/2000/svg" xmlns:xlink="http://www.w3.org/1999/xlink" x="0px" y="0px"
	 viewBox="0 0 500 198" style="enable-background:new 0 0 500 198;" xml:space="preserve">
<style type="text/css">
	.st0{fill:#00636D;}
	.st1{fill:#424548;}
</style>
<g>
	<g id="XMLID_7_">
		<g id="XMLID_1906_">
			<g id="XMLID_1907_">
				<path id="XMLID_1908_" class="st0" d="M145.7,0c-20.1,0-36.4,16.3-36.4,36.4c0,20.1-16.3,36.4-36.4,36.4H36.4
					C16.3,72.9,0,89.2,0,109.3v36.5c0,20.1,16.3,36.4,36.4,36.4h36.5c20.1,0,36.4-16.3,36.4-36.4v-36.5c0-20.1,16.3-36.4,36.4-36.4
					c20.1,0,36.4-16.3,36.4-36.4C182.2,16.3,165.9,0,145.7,0z M80.3,157.6H68.6l-26.2-36.4v36.4H29V97.4h12.6l25.3,35.1V97.4h13.4
					V157.6z"/>
			</g>
		</g>
		<g id="XMLID_1784_">
			<g id="XMLID_1814_">
				<g id="XMLID_1902_">
					<g id="XMLID_1903_">
						<path id="XMLID_1904_" class="st1" d="M133.7,182.2h1.8l9.1,12.3v-12.3h1.8v15.6h-1.6l-9.3-12.6v12.6h-1.8V182.2z"/>
					</g>
				</g>
				<g id="XMLID_1897_">
					<g id="XMLID_1898_">
						<path id="XMLID_1899_" class="st1" d="M157.6,182.1h1.8l6.6,15.7h-2l-1.7-4.1h-7.8l-1.7,4.1H151L157.6,182.1z M161.7,192.2
							l-3.3-7.9l-3.3,7.9H161.7z"/>
					</g>
				</g>
				<g id="XMLID_1893_">
					<g id="XMLID_1894_">
						<path id="XMLID_1895_" class="st1" d="M170.7,182.2h1.9l5.3,8.4l5.3-8.4h1.9v15.6h-1.9v-12.6l-5.4,8.4h-0.1l-5.4-8.4v12.6
							h-1.8V182.2z"/>
					</g>
				</g>
				<g id="XMLID_1889_">
					<g id="XMLID_1890_">
						<path id="XMLID_1891_" class="st1" d="M191,182.2h1.9l5.3,8.4l5.3-8.4h2v15.6h-1.9v-12.6l-5.4,8.4h-0.1l-5.4-8.4v12.6H191
							V182.2z"/>
					</g>
				</g>
				<g id="XMLID_1884_">
					<g id="XMLID_1885_">
						<path id="XMLID_1886_" class="st1" d="M216.7,182.1h1.8l6.6,15.7h-2l-1.7-4.1h-7.8l-1.7,4.1h-1.9L216.7,182.1z M220.9,192.2
							l-3.3-7.9l-3.3,7.9H220.9z"/>
					</g>
				</g>
				<g id="XMLID_1880_">
					<g id="XMLID_1881_">
						<path id="XMLID_1882_" class="st1" d="M238.1,182.2h1.8v15.6h-1.8V182.2z"/>
					</g>
				</g>
				<g id="XMLID_1876_">
					<g id="XMLID_1877_">
						<path id="XMLID_1878_" class="st1" d="M246,182.2h1.8l9.1,12.3v-12.3h1.8v15.6h-1.6l-9.3-12.6v12.6H246V182.2z"/>
					</g>
				</g>
				<g id="XMLID_1872_">
					<g id="XMLID_1873_">
						<path id="XMLID_1874_" class="st1" d="M268.3,183.7h-4.8v-1.6H275v1.6h-4.9v14.1h-1.9V183.7z"/>
					</g>
				</g>
				<g id="XMLID_1868_">
					<g id="XMLID_1869_">
						<path id="XMLID_1870_" class="st1" d="M278.7,186.4c1.3-0.4,1.7-1,1.6-1.9h-0.9v-2.3h2.2v2c0,1.8-0.8,2.6-2.6,3L278.7,186.4z"
							/>
					</g>
				</g>
				<g id="XMLID_1864_">
					<g id="XMLID_1865_">
						<path id="XMLID_1866_" class="st1" d="M287,182.2h1.8v14.1h8.1v1.6H287V182.2z"/>
					</g>
				</g>
				<g id="XMLID_1859_">
					<g id="XMLID_1860_">
						<path id="XMLID_1861_" class="st1" d="M309.8,182.2h4.9c4.8,0,8.2,3.1,8.2,7.7v0.2c0,4.6-3.3,7.7-8.2,7.7h-4.9V182.2z
							 M311.6,183.7v12.5h3c3.8,0,6.3-2.5,6.3-6.2v-0.2c0-3.7-2.5-6.2-6.3-6.2H311.6z"/>
					</g>
				</g>
				<g id="XMLID_1855_">
					<g id="XMLID_1856_">
						<path id="XMLID_1857_" class="st1" d="M328.2,182.2h1.8v15.6h-1.8V182.2z"/>
					</g>
				</g>
				<g id="XMLID_1851_">
					<g id="XMLID_1852_">
						<path id="XMLID_1853_" class="st1" d="M335.5,190.1v-0.2c0-4.5,3.2-8,7.7-8c2.3,0,3.8,0.6,5.3,1.7l-1.1,1.3
							c-1.1-0.8-2.3-1.4-4.2-1.4c-3.3,0-5.8,2.7-5.8,6.4v0.1c0,3.9,2.4,6.5,5.9,6.5c1.5,0,2.9-0.5,3.8-1.1V191h-4.3v-1.5h6.1v6.7
							c-1.3,1-3.3,1.8-5.6,1.8C338.5,198,335.5,194.8,335.5,190.1z"/>
					</g>
				</g>
				<g id="XMLID_1847_">
					<g id="XMLID_1848_">
						<path id="XMLID_1849_" class="st1" d="M354.6,182.2h1.8v15.6h-1.8V182.2z"/>
					</g>
				</g>
				<g id="XMLID_1843_">
					<g id="XMLID_1844_">
						<path id="XMLID_1845_" class="st1" d="M366.2,183.7h-4.9v-1.6h11.6v1.6h-4.9v14.1h-1.9V183.7z"/>
					</g>
				</g>
				<g id="XMLID_1839_">
					<g id="XMLID_1840_">
						<path id="XMLID_1841_" class="st1" d="M377.7,182.2h10.6v1.5h-8.7v5.5h7.8v1.5h-7.8v5.6h8.9v1.6h-10.7V182.2z"/>
					</g>
				</g>
				<g id="XMLID_1835_">
					<g id="XMLID_1836_">
						<path id="XMLID_1837_" class="st1" d="M392.7,190.1V190c0-4.7,3.3-8,7.6-8c2.4,0,3.9,0.8,5.3,1.9l-1.2,1.3
							c-1.1-1-2.4-1.6-4.2-1.6c-3.2,0-5.7,2.6-5.7,6.4v0.1c0,3.8,2.5,6.5,5.7,6.5c1.8,0,3-0.7,4.3-1.7l1.1,1.1
							c-1.4,1.3-3.1,2.2-5.5,2.2C395.9,198,392.7,194.8,392.7,190.1z"/>
					</g>
				</g>
				<g id="XMLID_1831_">
					<g id="XMLID_1832_">
						<path id="XMLID_1833_" class="st1" d="M419.8,182.2h10.5v1.5h-8.6v5.7h7.7v1.5h-7.7v6.9h-1.9V182.2z"/>
					</g>
				</g>
				<g id="XMLID_1827_">
					<g id="XMLID_1828_">
						<path id="XMLID_1829_" class="st1" d="M434.3,196.7l9.4-13h-9.1v-1.5h11.5v1.1l-9.5,13h9.5v1.5h-11.8V196.7z"/>
					</g>
				</g>
				<g id="XMLID_1823_">
					<g id="XMLID_1824_">
						<path id="XMLID_1825_" class="st1" d="M458.9,182.2h1.8v14.1h8.1v1.6h-9.9V182.2z"/>
					</g>
				</g>
				<g id="XMLID_1819_">
					<g id="XMLID_1820_">
						<path id="XMLID_1821_" class="st1" d="M473.5,182.2h1.9v14.1h8.1v1.6h-9.9V182.2z"/>
					</g>
				</g>
				<g id="XMLID_1815_">
					<g id="XMLID_1816_">
						<path id="XMLID_1817_" class="st1" d="M486.6,190.1V190c0-4.7,3.3-8,7.6-8c2.4,0,3.9,0.8,5.3,1.9l-1.1,1.3
							c-1.1-1-2.4-1.6-4.2-1.6c-3.2,0-5.7,2.6-5.7,6.4v0.1c0,3.8,2.5,6.5,5.7,6.5c1.8,0,3-0.7,4.3-1.7l1.1,1.1
							c-1.5,1.3-3.1,2.2-5.5,2.2C489.8,198,486.6,194.8,486.6,190.1z"/>
					</g>
				</g>
			</g>
			<g id="XMLID_1809_">
				<g id="XMLID_1810_">
					<path id="XMLID_1811_" class="st0" d="M133.6,97.1h21.6c19.4,0,31.9,12.2,31.9,30v0.8c0,17.8-12.5,30.1-31.9,30.1h-21.6V97.1z
						 M147.4,108.4v38.1h7.7c10.5,0,17.7-6.7,17.7-18.8v-0.4c0-12.1-7.2-18.9-17.7-18.9H147.4z"/>
				</g>
			</g>
			<g id="XMLID_1805_">
				<g id="XMLID_1806_">
					<path id="XMLID_1807_" class="st0" d="M201.8,97.1h13.8v60.8h-13.8V97.1z"/>
				</g>
			</g>
			<g id="XMLID_1801_">
				<g id="XMLID_1802_">
					<path id="XMLID_1803_" class="st0" d="M230.3,127.9v-0.8c0-18,13.1-30.9,31.2-30.9c9.4,0,15.8,2.4,21.9,7.1l-8.2,9.8
						c-3.5-3-7.4-5.2-13.8-5.2c-9.5,0-16.8,7.9-16.8,19.1v0.7c0,12.5,7.5,19.5,17.4,19.5c3.9,0,7.5-0.9,9.9-2.5V134h-12.1V123H285
						v28.1c-6.1,4.2-13.9,7.6-23.8,7.6C243.3,158.7,230.3,146.9,230.3,127.9z"/>
				</g>
			</g>
			<g id="XMLID_1797_">
				<g id="XMLID_1798_">
					<path id="XMLID_1799_" class="st0" d="M299.6,97.1h13.9v60.8h-13.9V97.1z"/>
				</g>
			</g>
			<g id="XMLID_1793_">
				<g id="XMLID_1794_">
					<path id="XMLID_1795_" class="st0" d="M344.9,108.7h-16.8V97.1h47.3v11.6h-16.8v49.2h-13.7V108.7z"/>
				</g>
			</g>
			<g id="XMLID_1789_">
				<g id="XMLID_1790_">
					<path id="XMLID_1791_" class="st0" d="M389.9,97.1H433v11.4h-29.3v13.1h25.8V133h-25.8v13.5h29.7v11.4h-43.4V97.1z"/>
				</g>
			</g>
			<g id="XMLID_1785_">
				<g id="XMLID_1786_">
					<path id="XMLID_1787_" class="st0" d="M448,127.9v-0.8c0-18.4,12.6-30.9,30.3-30.9c9.9,0,16.3,3.3,21.5,8.1l-8.3,9.7
						c-4-3.7-8.2-6.1-13.7-6.1c-9,0-15.5,7.6-15.5,19.4v0.3c0,12.1,6.8,19.5,15.7,19.5c5.3,0,9.2-2.3,13.7-6.4l8.3,8.9
						c-6,5.6-12.4,9.1-22.6,9.1C459.8,158.7,448,146.5,448,127.9z"/>
				</g>
			</g>
		</g>
	</g>
</g>
</svg>
