<?xml version="1.0" encoding="utf-8"?>
<!-- Generator: Adobe Illustrator 26.0.1, SVG Export Plug-In . SVG Version: 6.00 Build 0)  -->
<svg version="1.1" id="Layer_1" xmlns="http://www.w3.org/2000/svg" xmlns:xlink="http://www.w3.org/1999/xlink" x="0px" y="0px"
	 viewBox="0 0 500 321.2" style="enable-background:new 0 0 500 321.2;" xml:space="preserve">
<style type="text/css">
	.st0{fill:#EF6532;}
	.st1{fill:#515054;}
	.st2{fill:#4F4F52;}
	.st3{fill:#4E4D51;}
	.st4{fill:#515154;}
	.st5{fill:#EF6531;}
	.st6{fill:#EF6633;}
	.st7{fill:#504F53;}
	.st8{fill:#4F4E51;}
	.st9{fill:#ED6735;}
	.st10{fill:#4E4E51;}
	.st11{fill:#4F4E52;}
</style>
<g>
	<path class="st0" d="M194.5,30.6c-4.3,0.1-8.6,0.2-12.8,0.3c-1.2,0-2.3,0-3.9,0c0.5-0.8,0.8-1.4,1.2-1.8
		c10.5-10.8,22.6-18.9,36.8-23.9c6.8-2.4,13.8-4,20.9-4.8c0.4,0,0.7-0.3,1.1-0.5c6.7,0,13.4,0,20.1,0c0.6,0.3,1.2,0.7,1.8,0.8
		c2.6,0.5,5.1,0.9,7.7,1.4c1.2,0.2,2.4,0.7,4,1.1c-0.7,0.6-1,0.9-1.4,1.1c-3.6,2.1-7.1,4.3-10.7,6.2c-8.1,4.5-16.7,8.2-25.5,11.2
		c-3.3,1.1-6.7,2.3-10.1,3.4l0,0c-2.3,0.6-4.7,1.2-7,1.8l0,0c-1.2,0.3-2.4,0.6-3.6,0.8l-0.2,0l-0.2,0.1c-0.4,0-0.9,0-1.3,0
		C205.9,28.9,200.2,29.7,194.5,30.6z"/>
	<path class="st1" d="M500,302c-0.9,2.4-1.8,4.9-2.7,7.4c-5.7,0-11.4,0-17.2,0c-0.4-0.5-0.8-1.1-1.4-1.9c-0.4,0.7-0.7,1.2-1,1.9
		c-2.8,0-5.6,0-8.5,0c-0.3-0.6-0.6-1.2-1-1.9c-0.6,0.7-1.1,1.3-1.7,1.9c-3.6,0-7.2,0-10.9,0c-0.3-0.6-0.6-1.1-1-1.9
		c-0.6,0.7-1.1,1.3-1.8,2c-7.5,0-15.2,0-23,0c-0.8,1.6-1.5,3.1-2.3,4.8c-4.4-2.6-8.6-5.2-13.1-7.9c-0.7,1-1.3,2-2.1,3.1
		c-5.1,0-10.2,0-15.2,0c-0.7,0-1.4-0.4-1.9-0.6c-0.7-2.2-1-21.6-0.4-29.6c1.3-1.5,2.8-3.2,4.3-4.8c0.2,0,0.3,0.1,0.5,0.1
		c0,9.3,0,18.7,0,28.4c2.6,0,4.9,0.1,7.2,0.1c2.3,0,4.5,0,6.9,0c0.4-0.8,0.7-1.6,1.1-2.4c2-4.2,4.9-7.4,9.6-8.5
		c1.9-0.4,3.9-0.6,5.8,0.6c1.3,3.2,0.1,6.7,0.8,10.1c7.2,0,14.4,0,21.8,0c-1-2.5-1.9-4.8-2.9-7.2c1-1.3,1.9-2.6,3-4.1
		c1.8,3.9,3.4,7.5,5.1,11.3c2.7,0,5.5,0,8.4,0c-1-2.4-1.9-4.7-2.9-7.1c0.9-1.3,1.8-2.6,3-4.2c1.8,3.9,3.4,7.6,5,11.3
		c1.7,0,3.4,0,5.2,0c0.3-2.5-0.9-4.6-2-6.8c1-1.5,2-3,3-4.5c2.7,2.4,3.4,5.3,2.7,11.2c5.1,0,10.3,0,15.5,0c0.2-2.5-1-4.5-2.2-6.7
		c1-1.5,2.1-3,3.3-4.9c1,1.8,1.9,3.4,2.8,5C500,298.2,500,300.1,500,302z M427.4,306.9c0-2.8,0.1-5.1,0-7.4
		c-0.1-1.6-0.9-2.3-2.6-2.2c-2.8,0.1-4.9,1.4-6.4,4.1C421.3,303.1,424.2,304.9,427.4,306.9z"/>
	<path class="st2" d="M0,305.1c0.6-1.6,1.3-3.1,1.8-4.7c0.5-1.9,1.6-3.3,3.4-4.3c2.4-1.2,4.7-2.7,7-4c0.1-0.6,0.1-1.2,0.1-1.7
		c1.3-1.2,2.5-2.3,4-3.8c1.1,5.7,2.1,11,3.1,16.4c5,0,9.9,0,15.1,0c-0.3-1.4-0.7-2.8-1-4.3c1.2-1.1,2.3-2.3,3.7-3.6
		c0.8,2.7,1.5,5.2,2.2,7.9c4.6,0,9.1,0,13.9,0c-0.2-0.8-0.4-1.6-0.5-2.3c-0.5-4,2.8-10.1,6.5-11.7c2.2-1,4.4-0.8,6.3,0.7
		c1.9,1.5,3,3.4,3.8,5.8c-7-3.2-10.3-2.4-13.5,3.1c0.1,0.1,0.1,0.3,0.2,0.4c3.7,4.2,3.7,4.2,9.3,4.2c2.5,0,5.1,0,7.9,0
		c-0.7,2.3-1.4,4.3-2.1,6.3c-11.6,0-23,0-34.5,0c-0.2-0.4-0.5-0.9-0.8-1.5c-0.6,0.6-1.1,1-1.6,1.5c-6.2,0-12.3,0-18.4,0
		c-0.3-1-0.5-2-0.8-3.2c-0.7,0.9-1.2,1.6-1.8,2.4c-4.1-0.6-8.1-1.2-12.1-1.8c-0.4-0.1-0.8,0-1.2,0.1C0,306.2,0,305.7,0,305.1z
		 M4.8,300.9c3.5,0.6,6.4,1,9.6,1.6c-0.5-2.4-0.9-4.6-1.4-7C10.3,297.3,7.4,298.3,4.8,300.9z"/>
	<path class="st3" d="M500,232.5c-0.6,1.2-1.3,2.3-1.9,3.5c-2.2-0.7-4-2.4-6.4-1.6c-0.8,1-0.6,1.8,0.2,2.6c0.9,0.9,1.8,1.7,2.8,2.5
		c1,0.9,2.1,1.8,3.2,2.7c2,1.8,2.3,3.9,1.4,6.3c-0.3,0.8-0.7,1.6-1.2,2.3c-3.3,5-8,6.2-13.6,1.2c0-1.9,0.3-2.6,2.3-4.5
		c2.4,1.1,4.4,3.6,7.4,2.3c0.8-1.4,0.3-2.4-0.5-3.2c-0.7-0.8-1.5-1.4-2.2-2.1c-0.8-0.7-1.6-1.3-2.4-1.9c-3.5-3.2-3.8-5.7-1-9.5
		c3.2-4.3,7.1-4.4,10.5-2.7c0.5,0.3,1,0.8,1.4,1.2C500,231.9,500,232.2,500,232.5z"/>
	<path class="st4" d="M33.7,321.2c-1.1-1.2-2.1-2.5-3.3-3.8c1-0.9,2-1.8,3.1-2.9c0.8,0.7,1.5,1.4,2.4,2.1c0.8-0.7,1.6-1.3,2.6-2.1
		c1.2,1.3,2.4,2.6,3.9,4.2c-1,0.8-2,1.7-3,2.5c-0.1,0-0.3,0-0.4,0c-0.7-0.7-1.4-1.4-2.2-2.3c-0.8,0.9-1.5,1.6-2.2,2.3
		C34.2,321.2,33.9,321.2,33.7,321.2z"/>
	<path class="st5" d="M294.6,14c0.6,0.1,1.4,0,1.9,0.3c3.1,2.1,6.1,4.2,9.3,6.5c-1.8,2.4-3.3,4.7-5,6.8c-6.7,8.5-14,16.5-21.9,23.9
		c-13.6,12.9-28.4,24.4-44.5,34c-7.6,4.5-15.3,8.9-23.2,12.8c-15.8,7.9-32.3,14.1-49.4,18.7c-1.2,0.3-2.4,0.6-3.6,0.9
		c-0.3,0.1-0.6,0-0.8,0c-2.3-4.4-4.1-20-3.4-28.6c22.2-2.8,42.9-10.2,63-19.7c7.1-3.8,14.4-7.3,21.4-11.3
		c9.5-5.4,18.5-11.5,27.1-18.3c6.3-5,12.5-10.2,18.5-15.5C287.6,21.4,291,17.6,294.6,14z"/>
	<path class="st0" d="M223.8,132.9c-3.8,2.5-7.5,4.9-11.3,7.4c-10.3,6.6-21.1,12.1-32.3,16.9c-0.2,0.1-0.4,0.1-0.8,0.2
		c-6.2-6.5-11.5-13.8-15.6-22.1c1.8-0.8,3.4-1.5,5-2.1c12.5-4.5,24.6-10.1,36.2-16.5c10.9-6,21.5-12.7,31.4-20.3
		c7.4-5.7,14.7-11.6,21.7-17.8c7.1-6.5,13.9-13.3,20.6-20.3c9.8-10.3,18.6-21.4,27-33c0.2-0.2,0.3-0.5,0.4-0.8
		c0.5-0.6,1.1-1.1,1.8-1.9c2.5,2.5,5.1,5,7.5,7.5c0.3,0.3,0.2,0.9,0.3,1.4c-3.3,5.1-6.4,10.3-9.8,15.4
		c-11.1,16.6-23.6,32.2-37.3,46.7c-8.5,9-17.5,17.6-27.1,25.5c-2.7,2.2-5.3,4.5-8,6.7l0,0c-1.2,0.9-2.3,1.8-3.5,2.6l0,0
		C227.8,129.9,225.8,131.4,223.8,132.9z"/>
	<path class="st0" d="M216.8,181c-1.8-0.6-3.6-1.1-5.3-1.8c-6-2.3-11.6-5.4-16.9-9c-0.2-0.1-0.3-0.3-0.5-0.6
		c3.3-2.3,6.6-4.5,9.8-6.9c6.5-5,13-10.1,19.4-15.1c0.2-0.2,0.3-0.5,0.5-0.7c1.2-0.9,2.4-1.8,3.5-2.8c2.8-2.5,5.6-5.1,8.4-7.7
		c0.1,0,0.2,0,0.2-0.2c0.6-0.6,1.2-1.1,1.8-1.7l0,0c0.3-0.3,0.6-0.6,0.9-0.9l0,0c0.8-0.6,1.6-1.2,2.3-1.9
		c7.5-7.8,15.1-15.5,22.6-23.3c8-8.5,15.2-17.5,22.2-26.8c11-14.6,20.9-29.8,29.6-45.9c0.6-1.2,1.5-2.2,2.3-3.3
		c0,0.1,0.1,0.2,0.2,0.2c0.1,0.1,0.2,0.2,0.3,0.4c2.1,2.8,4.2,5.7,6.3,8.5c-1.1,2.5-2,4.8-3.2,6.9c-4.9,8.9-9.7,17.9-14.8,26.7
		c-6.1,10.5-12.7,20.7-19.6,30.6c-6.6,9.4-13.4,18.6-20.8,27.4c-2.3,2.7-4.4,5.5-6.7,8.3l0,0c-1.4,1.5-2.8,3-4.2,4.5l0,0
		c-0.3,0.3-0.6,0.6-0.9,0.9c-0.2,0-0.3,0.1-0.3,0.3c-1.8,1.9-3.7,3.8-5.5,5.8c-0.1,0.1-0.2,0.3-0.3,0.4c-3.5,3.4-6.9,6.8-10.4,10.2
		c-0.1,0-0.1,0.1-0.1,0.2c-3.2,2.8-6.5,5.5-9.7,8.3c-0.6,0.6-1.2,1.2-1.8,1.8l0,0.1l0-0.1c-0.5,0.4-1,0.7-1.5,1.1
		c-0.3,0.3-0.6,0.5-0.9,0.8C221.4,177.4,219.1,179.2,216.8,181z"/>
	<path class="st5" d="M278,5.2c0.1,0.1,0.2,0.1,0.3,0.1c4.4,2,8.9,4,13.3,6.1c0.6,0.8-0.2,1.2-0.6,1.6c-2.2,2.2-4.4,4.5-6.7,6.6
		c-13,11.9-27.4,21.7-43.2,29.8c-7.9,4-15.9,7.6-24.3,10.6c-1.8,0.6-3.5,1.4-5.2,2.1l-0.1,0l-0.1,0.1c-2.8,0.9-5.6,1.7-8.5,2.6
		c-3.9,0.9-7.7,1.9-11.6,2.8c-8.3,1.9-16.7,3.5-25.3,4.3c-2.6,0.2-5.2,0.6-7.8,0.8c-0.7,0.1-1.4,0-2.1,0
		c-0.4-4.7,7.1-23.3,11.8-29.1c6.7,0.6,13.3-0.6,19.9-1.6c2.5-0.5,5-1.1,7.4-1.6c0.1,0.1,0.3,0,0.4-0.1c4.5-1.1,9.1-2.3,13.6-3.4
		c0.1,0.1,0.3,0,0.4-0.1c0.9-0.3,1.8-0.5,2.6-0.8l0,0c1-0.3,2-0.6,3-0.9c0.1,0,0.3,0,0.4-0.1c0.3-0.1,0.6-0.2,0.9-0.3l0,0
		c0.4-0.1,0.9-0.3,1.3-0.4c0.1,0,0.3,0,0.4-0.1c1.6-0.6,3.2-1.1,4.9-1.7c0.1,0.1,0.3,0,0.4-0.1c4.1-1.5,8.2-2.9,12.2-4.5
		c8.3-3.4,16.4-7.3,24-12.1c4.7-3,9.2-6.5,13.8-9.8c0.5-0.4,1-0.8,1.5-1.3C276.2,4.7,277.1,5,278,5.2z"/>
	<path class="st0" d="M274.5,164.3c-3.5,4.8-7,9.7-10.6,14.5c-1.5,2.1-3.1,4.2-4.6,6.3c-6.4,1-12.9,1.2-19.3,0.6
		c-0.7-0.1-1.4,0-2.2,0c-0.5-0.1-1-0.1-1.6-0.2c-0.2-0.1-0.4-0.2-0.6-0.2c-0.7-0.1-1.5-0.1-2.2-0.2c0,0,0,0,0,0
		c0.4-0.6,0.8-1.3,1.3-1.8c3.6-3.9,7.3-7.8,10.9-11.6c0.6-0.6,1.1-1.2,1.7-1.8c0.2-0.2,0.3-0.4,0.5-0.5c0.1-0.1,0.2-0.2,0.3-0.3
		c0.1-0.1,0.1-0.3,0.2-0.4l0,0c0.3-0.3,0.6-0.6,0.8-0.9c1.5-1.7,2.9-3.5,4.4-5.2l0,0c0.3-0.3,0.6-0.6,0.8-0.9
		c0.3-0.3,0.6-0.6,0.8-0.9c0.2-0.1,0.4-0.2,0.5-0.4c5.4-7,10.9-14,16.2-21c1.6-2.1,2.9-4.3,4.3-6.5l0,0c0.3-0.3,0.6-0.6,0.9-0.9
		c3.4-5,6.8-9.9,10.1-14.9c8.8-13.5,17-27.4,24.2-41.8c4.8-9.7,9.2-19.6,13.7-29.4c0.2-0.5,0.5-0.9,0.9-1.5c0.9,1.5,1.7,2.8,2.5,4.1
		c0.1,0.2,0.2,0.3,0.3,0.5c1,2.2,2,4.4,3,6.6c-1.2,3.5-2.4,6.9-3.7,10.3c-4.2,11.1-9.1,22-14.4,32.6c-5.1,10.2-10.6,20.2-16.4,30
		c-3,5-6,9.9-9,14.9l0,0c-0.6,0.9-1.1,1.7-1.7,2.6c-0.9,1.5-1.8,2.9-2.7,4.4c-0.6,0.8-1.2,1.7-1.8,2.5l0,0c-0.9,1.4-1.8,2.8-2.8,4.2
		l0,0C277.9,159.6,276.2,161.9,274.5,164.3z"/>
	<path class="st6" d="M276.2,180.9c0.8-1.4,1.6-2.8,2.3-4.2c0.4-0.7,0.8-1.5,1.2-2.2c3.1-5.4,6.2-10.7,9.2-16.1
		c0.1-0.2,0.2-0.4,0.3-0.7c1.5-2.8,2.9-5.5,4.4-8.3c0,0,0,0,0,0c0.3-0.4,0.6-0.8,0.9-1.2c3.2-6.5,6.6-12.9,9.6-19.5
		c5.3-11.7,10.6-23.4,15.5-35.3c3.9-9.4,7.3-19,10.9-28.5c0.8-2.2,1.5-4.4,2.4-7.1c0.4,1.1,0.7,1.8,0.9,2.5c1.2,3.5,2.3,7,3.4,10.5
		c0.1,3.4-0.6,6.6-1.5,9.9c-1.1,4.2-2.2,8.4-3.6,12.5c-3.4,9.4-6.8,18.8-10.3,28.1c-1.4,3.9-3,7.7-4.6,11.5
		c-5.1,11.6-10.1,23.3-15.2,34.9c-7.4,5.7-15.6,9.8-24.3,13C277.4,181,276.8,180.9,276.2,180.9L276.2,180.9z"/>
	<path class="st1" d="M370.8,281.8c-0.5-0.5-0.9-0.9-1.5-1.3c-0.1-2.5,2-4.1,2.9-6.5c0.9,3.4,4.1,3.3,6.3,5c-1,1.5-0.9,3.8-3,5.1
		c0.3,3.8,0.4,7.9,0.8,11.9c0.5,4.7-0.8,8.9-2.4,13.3c-0.5,0-1.1,0.1-1.6,0.1c-5.9,0-11.8,0.1-17.7,0c-1.2,0-2.4-0.6-3.8-1
		c-0.1,0.1-0.5,0.5-0.9,1c-4.6,0-9.2,0-13.8,0c-3,0-3.9-0.7-4.7-3.5c-0.1-0.5-0.3-0.9-0.5-1.5c-3.4-0.1-6.2,0.9-8.5,3.3
		c-1.4,1.4-2.8,1.8-4.7,1.8c-7-0.1-14,0-21,0c-0.4-0.6-0.7-1.1-1.1-1.8c-0.5,0.6-1,1.1-1.4,1.7c-5.1,0.5-12.3,0.3-14.3-0.5
		c-1.4-2.1-1.3-4,0.6-7.5c0.4,0.5,0.8,1,1.5,1.7c1.6,0,3.4,0,5.2,0c1.8,0,3.6,0,5.9,0c-1.8-3.4-3.4-6.4-5.1-9.6
		c0.8-1.5,1.7-3,2.7-4.8c2.7,5,5.3,9.7,8,14.4c7.1,0,14.1,0.1,21-0.1c1.1,0,2.2-0.9,3.7-1.5c-3.5-2.8-6.8-5.2-11.2-5.5
		c0.9-1.5,2.2-2.6,3.6-3.6c1.3-0.8,2.6-0.8,4-0.1c2,0.9,3.9,1.9,5.8,3c3.9,2.1,8,3.7,12.9,4.3c-0.7,1.2-1.2,2.2-1.9,3.4
		c4.8,0,9.4,0,14.3,0c0-7.7,0-15.5,0-23.2c1.7-1.9,3.2-3.6,4.8-5.4c0.1,0.1,0.3,0.1,0.4,0.2c0,9.4,0,18.8,0,28.4
		c5.4,0,10.6,0,16.2,0C371.8,296,371.3,289,370.8,281.8z"/>
	<path class="st7" d="M102.5,303c4.9,0,9.7,0,14.5,0c-0.3-1.4-0.6-2.6-0.9-4c1.2-1.1,2.4-2.3,3.8-3.6c0.7,2.6,1.4,5,2.2,7.6
		c2.7-1.8,5.3-3.6,7.9-5.3c2.5-1.7,5.1-3.4,7.6-5.1c5.4-3.5,9.9-2.2,12.8,3.7c1,2.1,1.2,4.3,0.9,6.7c5.6,0,11,0,16.7,0
		c-0.5-7-1-14-1.6-21.3c-0.4-0.3-1.1-0.7-2-1.3c1.2-2.1,2.2-4,3.3-6.2c1,3.3,4.2,3.2,6.3,4.9c-1,1.7-0.8,3.9-3,5.1
		c0.3,4.8,0.7,9.8,0.9,14.7c0.1,1.4-0.2,2.9-0.6,4.3c-0.5,2.1-1.2,4.2-1.9,6.3c-16.9,0-33.7,0-50.6,0c-0.2-0.5-0.5-1-0.8-1.8
		c-0.5,0.7-1,1.4-1.4,1.9c-5.9,0-11.5,0-17.1,0c-0.2-0.5-0.4-1-0.8-1.8c-0.5,0.8-0.9,1.4-1.3,1.9c-5.9,0-11.6,0-17.3,0
		c-0.8,0-1.5-0.3-2.4-0.6c-0.1-1.3-0.4-2.5-0.4-3.7c0-8.5,0-17,0-25.7c1.4-1.6,2.9-3.3,4.4-4.9c0.2,0,0.3,0.1,0.5,0.1
		c0,9.3,0,18.6,0,27.8c1.9,0.7,12,0.8,15.3,0.3c-0.3-1.3-0.6-2.6-1-4.1c1.1-1.1,2.3-2.4,3.6-3.8C101.1,297.7,101.8,300.3,102.5,303z
		 M128.1,302.6c0.1,0.1,0.1,0.2,0.2,0.3c6.5,0,13,0,19.6,0c-0.8-3.1-2.3-5.4-4.8-6.9c-1.2-0.7-2.6-1.1-3.8-0.4
		C135.5,297.8,131.8,300.2,128.1,302.6z"/>
	<path class="st8" d="M36.2,254.6c-2.3,0-4.3,0-6.6,0c-4.5-9.6-9-19.2-13.8-29.2c-0.6,8.8-1.9,17.2-2,25.9c2,0.2,3.9,0.5,5.8,0.7
		c0,0.8,0,1.6,0,2.5c-5,0-9.9,0-15,0c0-0.7,0-1.5,0-2.5c1.4-0.2,2.7-0.4,4.2-0.6c1.1-9.3,2.6-18.5,3-28c-1.5-0.3-2.7-0.5-4.1-0.8
		c0.1-0.8,0.2-1.6,0.3-2.6c4,0,7.9,0,12.1,0c4,8.6,8.1,17.4,12.1,26.2c1-7.5,2-15,2.1-22.8c-2.1-0.3-4-0.5-6.1-0.8
		c0.1-0.8,0.2-1.6,0.3-2.5c5.1,0,10.2,0,15.4,0c-0.1,0.9-0.1,1.6-0.2,2.5c-1.4,0.3-2.7,0.5-4.4,0.8C37.7,233.8,36.5,244,36.2,254.6z
		"/>
	<path class="st9" d="M339.2,104.9c-2.5,18.3-9.7,34.5-21.6,48.6c-1.3,1.6-2.5,3.5-5.1,4.4c0.3-0.9,0.4-1.5,0.6-2
		c2-5.3,3.9-10.6,5.9-15.9c0.1-0.3,0.1-0.6,0.1-0.9c0.6-1.3,1.2-2.6,1.7-4c3-8.7,6.1-17.3,9.1-26c2.3-6.8,4.5-13.7,6.7-20.6
		c0.8-2.4,1.5-4.9,2.2-7.3c0.1,0,0.1,0.1,0.2,0.1c0.3,2.7,0.6,5.3,0.9,8c0,2,0,4.1,0,6.1C339.7,98.5,339.5,101.7,339.2,104.9z"/>
	<path class="st8" d="M79.6,253.9c0.7-6.8,1.4-13.3,2.1-19.9c-0.8-0.3-1.7-0.6-2.6-0.9c0-0.5,0-1,0-1.7c2.3-0.6,4.7-1.2,7.2-1.9
		c0.4,0.2,0.8,0.5,1.4,0.8c-0.5,3.3-0.9,6.6-1.3,9.8c0.1,0,0.2,0,0.3,0.1c1-1.7,2-3.5,3.1-5.2c1-1.4,2.1-2.8,3.4-4
		c1.2-1.2,2.7-2,4.6-1.4c1.5,0.9,1.4,2.4,1.2,3.9c-0.2,1.7-0.5,3.4-0.7,5.2c-0.1,0.4,0,0.8,0,1.7c1-1.7,1.7-3.1,2.6-4.3
		c1.2-1.7,2.5-3.2,3.7-4.8c0.3-0.4,0.7-0.7,1.2-1c1.2-0.8,2.5-1.3,3.9-0.6c1.4,0.7,1.4,2.2,1.2,3.5c-0.4,4.4-0.9,8.8-1.3,13.2
		c-0.2,1.7-0.3,3.3-0.5,5.2c1.1,0.3,2.1,0.6,3.3,0.9c0,0.5,0.1,1.1,0.1,1.8c-2.7,0.2-5.4,0.5-8.3,0.7c-0.2-0.3-0.6-0.7-1-1.2
		c0.6-5.8,1.2-11.7,1.8-17.6c-0.2-0.1-0.3-0.2-0.5-0.3c-0.6,0.6-1.3,1-1.6,1.7c-1.1,2.2-2.2,4.4-3.1,6.7c-1.2,3.3-2.2,6.7-3.3,10.2
		c-1.6,0-3.2,0.5-5-0.4c0.6-6,1.2-12,1.8-18c-1.5,0-2,1-2.4,1.9c-1.4,3.1-2.7,6.3-3.9,9.4c-0.8,2.2-1.4,4.6-2.2,7
		C83.1,254.6,81.3,255.2,79.6,253.9z"/>
	<path class="st10" d="M281.7,237.9c1.1-2.1,2.1-4.1,3.3-6.2c0.5-0.9,1.3-1.5,1.8-2.2c2.1-0.2,3.8,0.2,5.6,1.5
		c-0.5,1.5-1,3.1-1.4,4.5c-0.4,0.1-0.4,0.1-0.5,0.1c-3.8-0.7-4.6-0.2-6.6,3.2c-1.8,3.2-3,6.6-3.6,10.2c-0.1,0.6,0,1.3,0,2.1
		c1.6,0.3,3.1,0.7,4.7,1c0,0.8-0.1,1.5-0.1,2.3c-4.6,0-9.1,0-13.6,0c-0.1-0.3-0.3-0.6-0.4-0.9c-0.2,0-0.4,0.1-0.6,0.1
		c-1.8,0.5-3.5,1.1-5.3,1.4c-3.3,0.6-5.8-1.4-5.8-4.8c0-3.5,0.4-7,0.7-10.4c0.2-2.1,0.4-4.2,0.6-6.4c-0.9-0.2-1.6-0.3-2.5-0.4
		c0.1-1,0.2-1.8,0.4-2.7c0.8-0.1,1.5-0.1,2.4-0.2c0.3-1.8,0.5-3.6,0.8-5.5c1.7-0.4,3.3-0.8,5.1-1.2c0.3,0.3,0.7,0.6,1.1,1
		c-0.3,1.7-0.6,3.4-0.9,5.3c2.2-0.1,4-0.2,6-0.4c0.1,0.6,0.2,1.2,0.3,1.9c2.6-0.6,5.1-1.2,7.8-1.9c0.3,0.2,0.8,0.6,1.3,0.9
		c-0.4,2.5-0.7,4.8-1,7.2c0,0.3-0.1,0.7-0.1,1c0.1,0,0.1,0,0.2,0C281.5,238.4,281.6,238.2,281.7,237.9z M267,251.2
		c0.4,0.1,0.9,0.2,1.3,0.3c1,0.2,2.1,0.4,3.4,0.6c0.5-0.1,1.3-0.4,2.4-0.7c0.6-5.8,1.2-11.6,1.8-17.5c-1-0.3-1.7-0.6-2.6-0.9
		c-0.1-0.4-0.3-0.9-0.5-1.6c-0.1,0.9-0.2,1.6-0.3,2.3c-2.1,0-4.1,0-6.2,0c0,0.7-0.1,1.2-0.1,1.8c-0.1,0.9-0.1,1.7-0.2,2.6
		c-0.3,2.5-0.6,5-0.8,7.5c-0.1,1.1,0,2.3,0.1,3.5C265.4,250.2,265.9,251,267,251.2z"/>
	<path class="st7" d="M271.9,312.4c-4.6-2.1-8.9-4.1-13.3-6.1c-0.7,1-1.3,2-1.9,2.9c-4.6,0.6-16,0.3-18-0.6c-0.1-0.9-0.4-2-0.4-3
		c0-8.7,0-17.5,0-26.3c1.5-1.6,2.9-3.2,4.7-5.2c0.2,9.8-0.2,19.2,0.2,28.7c4.6,0,8.9,0,13.4,0c2.4-3.2,4.8-6.5,7.2-9.7
		c0.4-0.5,0.8-1,1.3-1.5c2.2-2.1,4.7-2.1,6.7,0.1c2.5,2.9,4,6.4,4.4,10.3c0.1,0.7,0,1.5-0.3,2.1
		C274.6,306.9,273.3,309.5,271.9,312.4z M266.8,295.2c-1.5,1.8-3.1,3.7-4.9,5.7c3.4,1.5,6.4,2.9,9.5,4.4
		C272.5,300.9,270.6,296.5,266.8,295.2z"/>
	<path class="st10" d="M204.3,243.5c-1.2,2-2.4,4.1-3.7,6c-0.9,1.4-2.1,2.6-3.2,3.8c-0.6,0.6-1.4,1.1-2.2,1.4
		c-2.5,1.1-4.5,0-4.6-2.8c-0.1-2.4,0.1-4.8,0.4-7.2c0.5-3.9,1.8-7.6,3.7-11.1c2.3-4.2,3.9-4.9,8.5-3.8c0.8,0.2,1.5,0.4,2.5,0.6
		c1-4.7,0.8-9.3,0.7-14.1c2-0.6,3.9-1.2,6.3-2c0.2,0.8,0.5,1.6,0.5,2.2c-1.2,11.1-2.4,22.3-3.6,33.4c0,0.4,0,0.9,0,1.5
		c1,0.3,2.1,0.5,3.2,0.8c0,0.5,0.1,1,0.1,1.8c-2.8,0.2-5.6,0.5-8.3,0.7c-0.4-0.4-0.8-0.8-1.3-1.2c0.5-3.4,0.9-6.8,1.4-10.1
		C204.5,243.6,204.4,243.5,204.3,243.5z M204.9,234.5c-0.4-0.1-0.8-0.2-1.2-0.3c-3.6-0.9-4.6-0.3-5.9,3.2c-1.2,3.3-1.4,6.8-1.4,10.3
		c0,0.4,0.3,0.9,0.5,1.3C199.6,247.2,204.7,238,204.9,234.5z"/>
	<path class="st10" d="M350.5,252.8c0.9-3.4,1.8-6.8,2.8-10.4c0.9,0.1,1.7,0.2,2.7,0.3c-0.1,1.5-0.2,3-0.3,4.4
		c-0.1,3.1,0.7,4.2,3.3,4.3c3,0.2,5.4-1.4,5.5-4c0-1.3-0.3-2.8-1-3.9c-1.2-1.9-2.7-3.6-4.1-5.3c-0.9-1.1-1.9-2.2-2.8-3.3
		c-3.7-4.4-2.7-10.2,2.5-13.1c4.2-2.4,8.6-2.6,13.3-0.8c-0.6,3.6-1.1,7-1.7,10.5c-0.9,0-1.6,0-2.5,0c-0.1-1.7-0.2-3.4-0.4-5
		c-0.3-2.4-1.2-3.1-3.4-3c-2.1,0.1-3.6,1.5-3.7,3.5c-0.1,1.8,0.6,3.3,1.7,4.6c1.7,2,3.5,3.9,5.1,6c1.6,2,3.2,4.1,3.3,6.9
		c0.1,2-0.4,3.8-1.5,5.3C365,255.5,356,257,350.5,252.8z"/>
	<path class="st8" d="M234.7,251.7c1.2,0.3,2.2,0.5,3.3,0.8c0,0.6,0,1.2,0,1.8c-2.8,0.2-5.5,0.4-8.3,0.7c-0.4-0.4-0.8-0.9-1.1-1.3
		c0.5-3.5,0.9-6.8,1.3-10.1c-0.1,0-0.2-0.1-0.4-0.1c-0.5,0.9-0.9,1.8-1.5,2.6c-1.7,2.4-3.4,4.9-5.3,7.2c-0.7,0.9-2,1.5-3.1,1.9
		c-1.9,0.6-3.4-0.3-3.6-2.3c-0.1-1.6,0.1-3.3,0.3-5c0.6-4.2,1.3-8.5,2-12.7c0.1-0.3,0-0.7,0-1.1c-0.8-0.3-1.6-0.5-2.6-0.8
		c0-0.6,0-1.1,0-1.8c2.5-0.6,5.1-1.2,7.6-1.8c0.4,0.2,0.7,0.4,1.2,0.8c-0.8,6.1-1.7,12.2-2.6,18.5c2-0.7,2.5-2.2,3.2-3.5
		c2.4-4.6,4.4-9.3,5.7-14.3c0.1-0.3,0.2-0.7,0.3-1c1.9-0.6,3.6,0.2,5.5,0.7C236.2,237.6,235.5,244.5,234.7,251.7z"/>
	<path class="st10" d="M130,230.6c0.4-0.5,0.8-1,1.3-1.7c1.4,0.3,2.8,0.5,4.4,0.8c-0.8,7.3-1.5,14.5-2.3,21.9
		c1.1,0.3,2.1,0.6,3.3,0.9c0,0.5,0.1,1.1,0.1,1.8c-2.8,0.2-5.5,0.4-8.2,0.7c-0.4-0.4-0.8-0.7-1.3-1.1c0.5-3.4,0.9-6.8,1.4-10.1
		c-0.1,0-0.2-0.1-0.3-0.1c-0.3,0.5-0.6,1-0.9,1.5c-1.9,2.7-3.8,5.5-5.8,8.1c-0.6,0.8-1.6,1.3-2.5,1.7c-2.3,1-4.2,0-4.4-2.5
		c-0.2-2.5-0.2-5.1,0.4-7.6c0.7-3.4,2-6.6,3.1-9.9c0.2-0.5,0.4-0.9,0.7-1.4c2.2-3.9,3.7-4.5,8-3.6C127.9,230.1,129,230.4,130,230.6z
		 M129,234.5c-0.7-0.2-1.5-0.4-2.3-0.6c-2.6-0.4-3.7,0.1-4.5,2.6c-0.8,2.4-1.2,4.9-1.6,7.4c-0.2,1.6-0.7,3.3,0.2,4.9
		C123.3,247.8,128.2,239.1,129,234.5z"/>
	<path class="st10" d="M173.3,241.1c0.9-1.6,1.7-3.3,2.8-4.8c1.2-1.8,2.6-3.6,4.1-5c1-0.9,2.5-1.5,3.9-1.7c1.6-0.3,2.5,0.6,2.5,2.3
		c0.1,1.9,0,3.8-0.2,5.7c-0.4,4.6-1,9.2-1.5,14.1c1.1,0.3,2.1,0.6,3.3,0.9c0,0.5,0.1,1,0.1,1.8c-2.8,0.2-5.5,0.5-8.5,0.7
		c-0.3-0.3-0.6-0.7-1-1.1c0.6-6,1.2-11.8,1.8-17.8c-1.8,0-2.4,1.3-2.9,2.3c-1.6,3.5-3.2,7-4.6,10.5c-0.7,1.8-1.1,3.7-1.7,5.5
		c-1.9,0-3.6,0-5.6,0c0.7-6.9,1.4-13.5,2.1-20.4c-0.9-0.3-1.8-0.7-2.7-1c0-0.5,0-1,0-1.7c2.6-0.6,5.2-1.3,7.8-1.9
		c0.4,0.3,0.8,0.6,1.2,0.9c-0.5,3.6-1,7.1-1.4,10.6C173,241,173.1,241.1,173.3,241.1z"/>
	<path class="st3" d="M321.7,254.6c-0.8,0.1-1.6,0.2-2.6,0.3c-0.3-0.3-0.6-0.7-1-1.1c0.5-3.6,1-7.1,1.5-10.6c-0.1,0-0.2,0-0.2-0.1
		c-1.2,2-2.3,4-3.6,5.9c-1,1.5-2.2,2.9-3.5,4.2c-0.7,0.7-1.6,1.2-2.6,1.6c-2.2,0.8-4.1-0.2-4.1-2.6c-0.1-2.7,0.1-5.4,0.4-8
		c0.6-3.9,1.9-7.6,3.8-11c2-3.6,3.5-4.2,7.5-3.5c1.1,0.2,2.3,0.5,3.6,0.8c0.3-0.4,0.6-0.9,1.1-1.6c1.4,0.2,2.9,0.5,4.6,0.8
		c-0.8,7.5-1.5,14.7-2.3,21.9c0.9,0.2,1.6,0.4,2.3,0.6c-0.2,0.6-0.3,1.2-0.5,1.8c-0.4,0-0.7-0.1-1.1,0c-0.7,0.1-1.3,0.3-1.9,0.4
		c-0.1-0.3-0.2-0.6-0.4-1.3C322.1,253.9,321.9,254.3,321.7,254.6z M315.2,233.7c-3,2.6-4.9,11.4-3.4,15.5c4.2-4.2,6.1-9.4,8.4-14.8
		C318.3,234.1,316.7,233.9,315.2,233.7z"/>
	<path class="st11" d="M423,247.9c5.7-4.9,6.5-10.6,3.8-17.4c1.8-0.5,3.4-0.9,5.3-1.4c0.5,1.2,1.1,2.1,1.3,3.1
		c0.9,3.5,0.4,6.8-1.4,9.9c-2.4,4.1-5.5,7.8-9,10.9c-1.3,1.2-3.4,1.5-5.1,2.3c-0.5-0.5-0.9-0.8-1.4-1.2c0.5-6.7,0.8-13.3,0-19.9
		c-1-0.4-1.8-0.7-2.8-1.1c0-0.5-0.1-1-0.1-1.7c2.5-0.6,4.8-1.3,7.1-1.9c1.2,0.4,1.5,1.2,1.6,2.3c0.2,4.9,0.5,9.7,0.7,14.6
		C422.9,246.7,423,247.2,423,247.9z"/>
	<path class="st3" d="M158,251.4c1.4,0.2,2.6,0.4,4,0.7c-0.1,0.9-0.2,1.6-0.4,2.5c-4.8,0-9.5,0-14.4,0c0-0.8,0.1-1.5,0.1-2.4
		c1.4-0.3,2.7-0.5,4.2-0.8c1-9.3,1.9-18.5,2.9-27.8c-1.3-0.2-2.5-0.4-3.9-0.7c0-0.8,0.1-1.6,0.2-2.5c4.9,0,9.5,0,14.3,0
		c0,0.9,0,1.6,0,2.4c-1.3,0.2-2.5,0.4-4.1,0.7C159.8,232.6,159.1,241.9,158,251.4z"/>
	<path class="st4" d="M227.6,296.1c1-1.5,2.1-2.9,3.3-4.7c2.3,3,3.5,6.1,2.7,9.7c-0.6,2.7-1.6,5.4-2.4,8.3c-3.7,0-7.2,0-10.7,0
		c-4,0-8-0.2-12,0c-4.5,0.2-7-2.4-7.1-6.6c-0.1-3.2,0.6-6.3,2.7-9c0,0.7,0,1.3,0,2c0,1-0.1,2,0.1,3c0.3,2.7,1.7,4,4.4,4.1
		c3.7,0.1,7.4,0.1,11.1,0.1c3.3,0,6.5,0,9.9,0C230,300.3,228.6,298.3,227.6,296.1z"/>
	<path class="st11" d="M326,254c0.2-0.6,0.3-1.2,0.5-1.8c1.3-0.2,2.7-0.4,4.3-0.6c1.2-11.7,3-23.3,2.9-35.2c1.9-0.6,3.9-1.2,5.7-1.8
		c1,0.4,1.1,1.1,1,2c-0.8,7.4-1.6,14.7-2.3,22.1c-0.4,3.3-0.7,6.6-1.1,10c-0.1,0.9,0,1.9,0,2.8c0.9,0.2,1.6,0.4,2.5,0.7
		c-0.1,0.7-0.1,1.4-0.2,2.2c-1.4,0-2.7,0-4,0c-2.9,0-5.8,0-8.7-0.1C326.5,254.4,326.3,254.2,326,254z"/>
	<path class="st8" d="M392,234.1c-2.5,5-7.6,6.9-12.2,9.6c0,1.8-0.4,3.8,1.3,5.4c3.7-0.3,5-3.5,7.4-5.5c0.6,0.5,1.2,1,2,1.6
		c-2.4,3.5-4.9,6.8-8.6,8.9c-0.3,0.2-0.6,0.4-1,0.5c-3.9,1.6-6.6,0.1-6.8-4.1c-0.2-5.9,0.8-11.7,3.4-17.1c1.7-3.7,3.6-4.5,7.6-3.7
		c1.5,0.3,3.1,0.8,4.6,1.4C391,231.5,391.8,232.4,392,234.1z M379.8,240.3c2.7-1.6,5.1-2.6,6.4-5.1c-2.4-2.2-4.4-1.8-5.4,0.9
		C380.3,237.2,380.2,238.5,379.8,240.3z"/>
	<path class="st8" d="M472.1,244c0,1.5-0.3,3.4,1.2,5.1c3.6-0.2,5-3.3,7.5-5.5c0.6,0.4,1.2,0.9,2,1.5c-2.3,3.4-4.7,6.5-8.1,8.6
		c-1.2,0.7-2.7,1.2-4.1,1.3c-2.1,0.3-3.4-0.7-3.8-2.7c-0.3-1.5-0.5-3-0.4-4.5c0.4-4.5,1-8.9,2.8-13.1c0.4-1,1-2,1.5-2.9
		c1.1-1.8,2.8-2.8,5-2.4c2,0.4,4,0.8,5.9,1.4c1.3,0.4,2.2,1.3,2.5,2.8c-0.3,1.8-1.4,3.2-2.9,4.2C478.4,239.9,475.3,241.9,472.1,244z
		 M472,240.3c2.6-1.6,5.2-2.6,6.3-5.1c-2.5-2.1-4.4-1.8-5.4,0.9C472.5,237.3,472.4,238.6,472,240.3z"/>
	<path class="st3" d="M48.5,243.8c-0.2,3.2-0.1,3.7,1.1,5.3c1.7,0.3,3-0.7,4.1-1.8c1.1-1.1,2.2-2.3,3.3-3.6c0.7,0.5,1.3,0.9,2.1,1.5
		c-2.6,3.8-5.2,7.4-9.5,9.4c-0.5,0.2-1.1,0.4-1.7,0.5c-2.9,0.6-5-0.7-5.1-3.7c-0.1-2.7,0-5.5,0.4-8.2c0.6-3.9,1.4-7.7,3.6-11.1
		c1.2-1.9,2.9-2.9,5.1-2.5c2.2,0.4,4.4,0.9,6.5,1.8c2.1,0.9,2.5,2.6,1,4.4c-1.3,1.5-2.8,2.9-4.5,4.1C53,241.2,50.8,242.4,48.5,243.8
		z M48.7,239.9c2.2-1.3,4.8-2.1,5.9-4.7c-1.1-1.4-2.4-1.5-3.9-1.2C48.9,235.5,48.7,237.6,48.7,239.9z"/>
	<path class="st10" d="M413,230.8c-0.5,1.7-1,3.2-1.4,4.6c-0.4,0.1-0.6,0.2-0.7,0.2c-3.3-0.7-4.4-0.3-6,2.6c-2,3.4-3.3,7.1-3.9,11
		c-0.1,0.6,0,1.1,0,2c1.5,0.3,3.1,0.7,4.7,1c0,0.8,0,1.5,0,2.3c-4.6,0-9.2,0-13.8,0c0-0.8,0.1-1.5,0.1-2.3c0.8-0.2,1.6-0.4,2.7-0.7
		c1.1-5.6,1.2-11.5,2-17.5c-0.9-0.3-1.8-0.7-2.7-1c0-0.5,0.1-1.1,0.1-1.7c2.6-0.6,5-1.2,7.6-1.9c0.4,0.3,0.8,0.6,1.3,1
		c-0.4,2.5-0.8,4.8-1.2,7.2c0.1,0.1,0.2,0.1,0.4,0.2c0.3-0.3,0.6-0.6,0.8-1c0.9-1.7,1.7-3.4,2.6-5c1.5-2.5,2.3-2.8,5-2
		C411.3,230,412,230.4,413,230.8z"/>
	<path class="st8" d="M249.9,248.9c-0.2-1.8-1.4-2.8-2.6-3.8c-1.3-1.1-2.6-2.1-3.8-3.3c-2.4-2.5-2.7-4.4-1-7.5
		c2.4-4.3,6.5-6,10.6-4.3c0.8,0.3,1.4,1,2.3,1.6c-0.7,1.7-1.3,3-1.9,4.4c-5.6-2.4-4.8-2-6.6-1.6c-0.8,1.1-0.2,2.1,0.6,2.8
		c1.5,1.3,3.1,2.6,4.7,3.9c3.2,2.7,3.7,5.2,1.6,8.8c-0.7,1.2-1.7,2.4-2.8,3.3c-3.3,2.9-8.8,2-11.5-1.8c0.2-1.7,1.2-3,2.4-4.2
		C246.8,250.7,248.2,251,249.9,248.9z"/>
	<path class="st8" d="M76.4,231.6c-0.8,1.7-1.3,3.1-1.9,4.5c-2.2-0.6-4-2.2-6.3-1.8c-1.1,0.8-0.9,1.7-0.1,2.5c1,1,2,1.9,3.1,2.8
		c1,0.9,2.1,1.8,3.1,2.7c1.8,1.7,2.2,3.7,1.3,6c-0.8,2.1-2,3.9-3.8,5.2c-3.4,2.7-8.6,1.8-11.6-2.2c0.7-1.2,1.5-2.5,2.4-4
		c1.4,0.8,2.5,1.6,3.7,2.2c1.2,0.6,2.6,1.1,3.9,0.3c1.2-1.4,0.3-2.5-0.6-3.4c-1.3-1.3-2.9-2.5-4.2-3.7c-0.8-0.7-1.6-1.5-2.1-2.4
		c-0.5-0.9-0.8-2.1-0.8-3.1c0.4-5.2,6.4-9,11.2-7.2C74.6,230.3,75.4,230.9,76.4,231.6z"/>
	<path class="st8" d="M455.8,249c1.8-0.7,2-0.9,5.3-5.5c0.7,0.5,1.5,0.9,2.5,1.5c-2.3,3.7-4.7,7.1-8.4,9.3c-0.4,0.3-0.9,0.4-1.4,0.6
		c-2.7,0.8-4.5-0.2-4.8-3c-0.2-1.9-0.2-3.8,0-5.7c0.4-3.8,1.1-7.6,2.6-11.2c0.2-0.5,0.4-1.1,0.7-1.6c1.9-3.7,3.4-4.5,7.5-3.6
		c1.6,0.3,3.2,0.8,4.6,1.2c0.6,2-0.2,3.3-1,4.7c-2.2-0.4-4.4-0.8-6.3-1.2C454.1,237.3,453.5,246,455.8,249z"/>
	<path class="st8" d="M438.6,234c-1.1-0.4-1.9-0.7-2.8-1c0-0.5,0.1-1,0.1-1.6c2.6-0.6,5.1-1.3,7.7-1.9c0.4,0.3,0.8,0.5,1.2,0.8
		c-0.7,7.1-1.5,14.1-2.2,21.2c1.1,0.3,1.8,0.5,2.6,0.8c0,0.8,0,1.5,0,2.3c-3.9,0-7.7,0-11.7,0c0-0.8,0.1-1.5,0.1-2.3
		c0.9-0.3,1.7-0.5,3-0.8C437.3,245.8,438,239.9,438.6,234z"/>
	<path class="st3" d="M295.7,234c-1.1-0.4-1.9-0.7-2.8-1c0-0.5,0.1-1,0.1-1.6c2.6-0.6,5.1-1.3,7.7-1.9c0.4,0.3,0.8,0.5,1.3,0.8
		c-0.7,7.1-1.5,14.1-2.2,21.2c1.1,0.3,1.8,0.5,2.6,0.7c0,0.7,0,1.4,0,2.3c-3.9,0-7.7,0-11.6,0c0-0.7,0-1.4,0-2.2
		c0.9-0.3,1.7-0.5,3-0.9C294.4,245.8,295,239.9,295.7,234z"/>
	<path class="st8" d="M178.9,311.3c0.8-10.4,0-20.4-0.8-30.8c1.4-1.9,3.1-4,5-6.5c0.5,2.8,0.8,5.2,1.2,7.7c-0.4,0.6-0.7,1.2-1.1,1.7
		c0.2,3.7,0.4,7.2,0.6,10.8C184.3,300.5,182.5,307,178.9,311.3z"/>
	<path class="st1" d="M439.2,218.5c2.3-0.6,4.3-1.1,6.6-1.6c0.3,0.3,0.5,0.6,0.9,1c-0.9,2.8-1.7,5.5-2.6,8.3c-1,0.3-2,0.6-3.2,0.9
		C440.3,224.1,439.7,221.4,439.2,218.5z"/>
	<path class="st7" d="M296.2,218.5c2.3-0.6,4.2-1.1,6.3-1.6c0.3,0.3,0.7,0.6,1.1,1c-0.9,2.8-1.7,5.5-2.6,8.3c-1.1,0.3-2,0.5-3.2,0.9
		C297.3,224.1,296.8,221.4,296.2,218.5z"/>
	<path class="st1" d="M15.8,276.6c1.2,1.3,2.4,2.6,3.6,3.8c-0.8,0.8-1.8,1.8-2.8,2.9c-0.8-0.7-1.5-1.4-2.4-2.1
		c-0.8,0.7-1.6,1.3-2.4,2c-1.2-1.3-2.4-2.6-3.7-4c0.8-0.7,1.7-1.6,2.8-2.7c0.8,0.7,1.5,1.4,2.4,2.1C14.1,278,14.9,277.3,15.8,276.6z
		"/>
	<path class="st7" d="M219.8,293.4c-0.9-0.8-1.6-1.5-2.4-2.2c-0.8,0.7-1.6,1.4-2.3,2c-1.3-1.2-2.5-2.4-3.7-3.6
		c0.8-0.9,1.7-1.9,2.7-3c0.9,0.8,1.6,1.4,2.4,2.1c0.9-0.7,1.7-1.3,2.5-1.9c1.3,1.3,2.5,2.5,3.8,3.8
		C221.9,291.5,220.9,292.4,219.8,293.4z"/>
	<path class="st4" d="M491.5,283.6c1.2-1.1,2.2-2,3.1-2.9c1.3,1.3,2.5,2.6,3.9,4c-0.9,0.9-1.8,1.7-2.9,2.8
		C494.3,286.2,493,285,491.5,283.6z"/>
	<path class="st4" d="M99,290.2c-1.3-1.2-2.5-2.4-3.8-3.7c1-1,2-1.9,3.1-3c1.3,1.2,2.5,2.4,4,3.8C101.1,288.3,100.1,289.2,99,290.2z
		"/>
	<path class="st4" d="M320.2,284.8c1.1-1.1,2-2.1,3.1-3.2c1.2,1.2,2.4,2.5,3.5,3.6c-0.9,1.1-1.8,2.1-2.7,3.3
		C322.7,287.2,321.5,286,320.2,284.8z"/>
	<path class="st11" d="M321.7,254.6c0.2-0.4,0.5-0.8,0.9-1.5c0.2,0.7,0.3,1,0.4,1.3C322.6,254.5,322.1,254.6,321.7,254.6z"/>
	<path class="st6" d="M276.2,180.9C276.2,181,276.1,181.1,276.2,180.9C276,181.1,276.1,181,276.2,180.9L276.2,180.9z"/>
</g>
</svg>
