<?xml version="1.0" encoding="utf-8"?>
<!-- Generator: Adobe Illustrator 26.0.1, SVG Export Plug-In . SVG Version: 6.00 Build 0)  -->
<svg version="1.1" id="Layer_1" xmlns="http://www.w3.org/2000/svg" xmlns:xlink="http://www.w3.org/1999/xlink" x="0px" y="0px"
	 viewBox="0 0 500 120.6" style="enable-background:new 0 0 500 120.6;" xml:space="preserve">
<style type="text/css">
	.st0{fill:#18017C;}
	.st1{fill:none;}
	.st2{fill:#EF1209;}
	.st3{fill:#404040;}
</style>
<g>
	<g>
		<path class="st0" d="M476.9,8.2h-8.3c4,7.3,6.8,15.1,8.7,23.4c1.2,5.6,2,13.8,2.4,20h-40.8c-5.7,0-11.2-6.4-12-11.7v-23
			c0-2.6,0.7-5-0.5-6.9c-1.6-2.6-4.1-4.3-7-4.3c-1.5,0-3,0.5-4.3,1.4c-2.9,1.9-3.4,5.6-3.4,9.8L411.5,71c-0.1,13-5.7,9.8-9.1,4.7
			l-41.8-64.8c0,0-2.9-3-2.9-3h-2.4l1.3,0l-0.2,0h-6.9c-10.8,15-16.2,31.6-16.2,49.9c0,16.5,5.5,35.3,16.9,52c6,0,5.1-6.8,2.9-12.6
			c0,0-8.1-21.9-8.1-39.5c0-9.4,0.9-18.3,2.7-26.5c0.6-2.6,5.7-13.6,6.4-13.6c0.4,3.5,4.5,13.2,6.4,16.1l42.8,68.1
			c3.4,5.1,9.3,12.9,16,11.1c1.1-0.3,1.7-0.5,2.9-0.9c0.1,0,0.2-0.1,0.3-0.2c0.1,0,0.9-0.5,1-0.5c0.2-0.1-0.2,0.1,0,0
			c0,0,0.1,0,0.1-0.1c0.2-0.1,0.4-0.3,0.6-0.4c0.1-0.1,0.2-0.1,0.3-0.2c0.1,0,1.6-1.6,1.6-1.6c1.7-4,1-5.3,1-8.9V74
			c0.8-5.3,7-9.4,12.8-9.4h39.9c-1.5,16-7.8,33-7.8,33c-2.1,5.7-1.8,10.4,4.2,10.4c11.4-16.7,17-33.4,17-49.9
			C493.1,39.9,487.7,23.2,476.9,8.2z"/>
		<g>
			<path class="st1" d="M356.3,3.4l0.2,0l0,0L356.3,3.4l-11.8,0c-11.7,17-17.5,35.8-17.5,56.5c0,18.7,7.8,38.1,20,57.1
				c6.5,0,13.2-5.9,10.9-12.4"/>
		</g>
		<g>
			<g>
				<g>
					<path class="st2" d="M356.3,3.4c-2.8-0.5-6.4-0.9-9.4-1.1l-2.4-0.2h0h0c1-0.5-1.3,0.7-1.1,0.6l0,0l0,0l0,0.1l-0.1,0.1L343,3.2
						l-0.4,0.5l-0.8,1.1c-1,1.5-2.1,3.1-3.2,5c-2.4,4-9,16.8-11.2,29.7c-2.6,12.8-1.9,24.7-1.9,24.7c-0.1,0,0.6,12,5.2,24.2
						c4.3,12.3,11.6,24.4,14.2,28.3l0.4,0.7l0.2,0.3l0.1,0.2l0,0l0,0c-1.2-0.6,1.6,0.9,1.3,0.7l0,0h0l0.1,0c0.6,0,1.1,0,1.7-0.2
						c1.1-0.2,2.1-0.5,3-0.9c1.8-0.8,3.3-1.9,4.5-3.2c2.3-2.5,3.4-6.4,1.6-9.7c0.7,3.6-1,6.3-3.2,8.1c-1.1,0.9-2.4,1.6-3.9,2.1
						c-0.7,0.3-1.5,0.4-2.4,0.5c-0.4,0.1-0.8,0-1.3,0.1l-0.1,0h0h0c-0.3-0.2,2.4,1.3,1.3,0.7l0,0l0,0l-0.1-0.2l-0.2-0.3l-0.4-0.7
						c-2.5-3.8-9.7-15.7-13.9-27.7c-4.4-11.9-5.1-23.4-5-23.3c0,0.1-0.6-11.5,1.9-23.9c2.1-12.5,8.6-24.8,10.8-28.7
						c1-1.8,2.1-3.4,2.9-4.9l0.6-1.1l0.3-0.6l0.2-0.3l0.1-0.1l0-0.1l0,0l0,0c0.2-0.1-2,1.1-1.1,0.6h0h0l2.4-0.2
						C349.9,4.3,353.5,3.9,356.3,3.4z"/>
				</g>
			</g>
		</g>
		<g>
			<path class="st1" d="M406.5,76c0-8.5-0.6-18.4-0.6-26.7c0-11.9-0.1-23.7,0.4-36.2c0.4-11.1,9.5-13.3,17-11.1"/>
		</g>
		<g>
			<g>
				<g>
					<path class="st2" d="M406.5,76c0.9-4.1,1.4-6.9,1.3-11.8c-0.4-5.3-0.4-31.7-0.3-31.7c0,0,0-6.6,0.2-13.9c0.2-3.7-0.1-7.5,1-10
						c1-2.6,2.9-4,3.9-4.5c3.8-1.8,6.6-2.1,10.7-2.1c-3.6-1.9-7.1-3-12.2-0.6c-1.3,0.6-4,2.6-5.3,6.1c-1.4,3.5-1.1,7.5-1.2,11.1
						c-0.2,7.3-0.2,13.9-0.2,13.9c-0.1,0-0.1,26.6,0.3,31.8C404.9,69.2,405.4,71.9,406.5,76z"/>
				</g>
			</g>
		</g>
		<g>
			<path class="st1" d="M461.5,5.8c4.4,8.1,5.1,7.4,9.5,26.8c1.1,4.9,2.1,8.7,1.9,13.7c-7.6,0.4-15.3,0.1-22.9,0.1
				c-5.6,0-13.6,0.9-17.4-3.5"/>
		</g>
		<g>
			<g>
				<g>
					<path class="st2" d="M461.5,5.8c1,4,2.1,6.4,3.6,10.6c1.9,4.5,7.6,29.4,6.3,29.2c0,0,0,0.1,0,0.3l0,0.3v0
						c-1.3,1.3,1.8-1.8,1.5-1.5l0,0h0l0,0l-0.1,0l-0.1,0l-0.2,0c-0.7,0-1.7,0.1-2.9,0.1c-2.4,0.1-5.8,0.1-9.3,0
						c-6.9-0.2-14.8,0-17.1-0.1c-4.5-0.3-6.9,0-10.5-2c2.1,3.5,5.6,4.8,10.4,5.1c2.7,0.1,10.2-0.1,17.2,0.1c3.5,0,6.9,0.1,9.4-0.1
						c1.2,0,2.3-0.1,3-0.1l0.3,0l0.1,0l0.1,0l0,0h0l0,0c-0.3,0.3,2.8-2.8,1.5-1.5v0v-0.4c0-0.2,0-0.3,0-0.3
						c1.3-0.5-4.4-25.5-6.5-30.3C466.3,10.6,464.2,8.7,461.5,5.8z"/>
				</g>
			</g>
		</g>
		<g>
			<path class="st1" d="M353.8,33.2c0,0,28.7,50,49.1,78.8c8.7,12.3,27.3,7.1,26.9-4.9"/>
		</g>
		<g>
			<g>
				<g>
					<path class="st2" d="M353.8,33.2c2.2,5.7,3.8,9.5,7.4,15.8c3.8,6.8,24.4,40.2,24.6,40.1c0,0,5.2,8.3,11.3,17.2
						c3,4.2,6,9.7,10.9,12.2c4.7,2.4,9.3,2.2,11.3,1.7c7.7-1.5,11.6-7.2,10.4-13.2c-1.1,6-4.8,8.8-11,10.2c-1.7,0.4-5.5,0.5-9.3-1.4
						c-3.9-1.8-6.7-6.7-9.8-11.2c-6-8.9-11.3-17.2-11.3-17.2c-0.1,0.1-20.6-33.3-24.5-40.1C360.2,41.2,357.7,38,353.8,33.2z"/>
				</g>
			</g>
		</g>
		<g>
			<path class="st1" d="M469.2,3L469,3l0,0L469.2,3L481,3c11.7,17,17.5,35.8,17.5,56.5c0,18.7-7.8,38.1-20,57.1
				c-6.5,0-13.2-5.9-10.9-12.4"/>
		</g>
		<g>
			<g>
				<g>
					<path class="st2" d="M469.2,3c2.8,0.5,6.4,0.9,9.4,1.2l2.4,0.2l0,0l0,0c1,0.5-1.3-0.7-1.1-0.6l0,0l0,0l0,0.1l0.1,0.1l0.2,0.3
						l0.3,0.5l0.6,1.1c0.9,1.5,1.9,3.1,2.9,4.9c2.3,3.9,8.7,16.3,10.8,28.7c2.5,12.4,1.9,23.9,1.9,23.9c0.1,0-0.6,11.5-5,23.3
						c-4.2,11.9-11.4,23.8-13.9,27.7l-0.4,0.7l-0.2,0.3l-0.1,0.2l0,0l0,0c-1.2,0.6,1.6-0.9,1.3-0.7h0h0l-0.1,0c-0.4,0-0.9,0-1.3-0.1
						c-0.8-0.1-1.6-0.3-2.4-0.5c-1.5-0.5-2.8-1.2-3.9-2.1c-2.2-1.8-3.9-4.4-3.2-8.1c-1.7,3.3-0.7,7.2,1.6,9.7
						c1.2,1.3,2.7,2.4,4.5,3.2c0.9,0.4,1.9,0.7,3,0.9c0.5,0.1,1.1,0.1,1.7,0.2h0.1l0,0h0c-0.3,0.2,2.4-1.3,1.3-0.7l0,0l0,0l0.1-0.2
						l0.2-0.3l0.4-0.7c2.5-3.9,9.9-16,14.2-28.3c4.6-12.2,5.2-24.2,5.2-24.2c0,0,0.7-11.9-1.9-24.7c-2.2-12.9-8.8-25.7-11.2-29.7
						c-1.1-1.9-2.2-3.5-3.2-5l-0.8-1.1l-0.4-0.5l-0.2-0.3l-0.1-0.1l0-0.1l0,0l0,0c0.2,0.1-2-1.1-1.1-0.6l0,0l0,0l-2.4,0.2
						C475.5,2.2,472,2.6,469.2,3z"/>
				</g>
			</g>
		</g>
		<g>
			<path class="st1" d="M471,82.8c0.8-1.6,0.7-10,0.7-12c-9.3-1-28-0.6-36-0.6"/>
		</g>
		<g>
			<g>
				<g>
					<path class="st2" d="M471,82.8c1.6-2,2.1-3.7,2.2-6.4c0-0.7,0-2.2,0-4V71v-0.2v0c-0.6-0.7,1.4,1.5-1.4-1.5h0l0,0l0,0l-0.1,0
						l-0.4,0l-0.8-0.1l-3.1-0.2c-4.1-0.2-7.7-0.3-7.7-0.3c0-0.1-14.7-0.2-17.6-0.1c-2.7,0-4.2,0.6-6.5,1.6c2.2,1,3.8,1.5,6.5,1.5
						c2.9,0,17.5,0,17.5,0.1c0,0,3.6,0.1,7.6,0.3l3,0.2l0.7,0.1l0.4,0l0.1,0l0,0l0,0h0c-2.8-3.1-0.8-0.9-1.4-1.5v0V71l0,1.4
						c0,1.8,0,3.2,0,3.9C470,79,470.6,80.4,471,82.8z"/>
				</g>
			</g>
		</g>
	</g>
	<g>
		<g>
			<g>
				<g>
					<path class="st3" d="M0.3,83.4h8l9.8,13.3h0V83.4h5.2v18.1h-8L5.5,88.3h0v13.3H0.3V83.4z"/>
					<path class="st3" d="M26.7,101.6V83.4h18.4v4.2H31.9v2.9h12.5v3.8H31.9v2.9h13.6v4.4H26.7z"/>
					<path class="st3" d="M53.5,95.7c0.1,0.8,0.2,1.4,0.5,1.6c0.2,0.2,0.8,0.4,1.8,0.4h6.6c1.4,0,2.1-0.5,2.1-1.5
						c0-0.7-0.3-1.1-0.8-1.3c-0.5-0.2-1.8-0.4-3.9-0.4h-3.2c-2.5,0-4.3-0.2-5.5-0.5c-1.2-0.3-1.9-0.9-2.3-1.7
						c-0.3-0.7-0.5-1.8-0.5-3.5c0-2.3,0.5-3.8,1.5-4.5c1-0.7,2.8-1.1,5.2-1.1h7.3c2.6,0,4.3,0.4,5.2,1.1c0.9,0.8,1.4,2.1,1.4,4.1
						v0.7h-5.2c0-0.7-0.2-1.2-0.5-1.4c-0.3-0.2-1-0.4-2.1-0.4h-5.5c-1.4,0-2.1,0.5-2.1,1.4c0,1,0.5,1.5,1.5,1.5c1,0,1.9,0,2.8,0h3.5
						c2.4,0,4.2,0.2,5.4,0.5c1.2,0.3,2,0.9,2.4,1.8c0.4,0.7,0.6,1.9,0.6,3.5c0,1.6-0.2,2.8-0.6,3.5c-0.4,0.8-1.2,1.4-2.3,1.7
						c-1.1,0.3-2.8,0.5-5.1,0.5h-6.8c-2.5,0-4.2-0.4-5.1-1.1c-0.9-0.7-1.4-2-1.4-3.7v-1.3H53.5z"/>
					<path class="st3" d="M72.8,83.4h7.9l5.8,11.7h0l5.8-11.7h7.9v18.1h-5V88.5h0l-6.8,13.1h-3.9l-6.8-13.1h0v13.1h-5V83.4z"/>
					<path class="st3" d="M102.2,101.6l9.3-18.1h6.7l9.3,18.1h-5.7l-1.6-3.2l0,0h-10.6l0,0l-1.6,3.2H102.2z M111.5,94.4L111.5,94.4
						h6.6l0,0l-3.3-6.7h0L111.5,94.4z"/>
					<path class="st3" d="M140.8,83.4h5.2v6.5h10.8v-6.5h5.2v18.1h-5.2v-6.9H146v6.9h-5.2V83.4z"/>
					<path class="st3" d="M163.9,101.6l9.3-18.1h6.7l9.3,18.1h-5.7l-1.6-3.2l0,0h-10.6l0,0l-1.6,3.2H163.9z M173.2,94.4L173.2,94.4
						h6.6l0,0l-3.3-6.7h0L173.2,94.4z"/>
					<path class="st3" d="M201.6,96.9L201.6,96.9l6.6-13.5h5.6l-9.1,18.1h-6.4l-9.1-18.1h5.6L201.6,96.9z"/>
					<path class="st3" d="M213.9,101.6l9.3-18.1h6.7l9.3,18.1h-5.7l-1.7-3.2l0,0h-10.5l0,0l-1.6,3.2H213.9z M223.3,94.4L223.3,94.4
						h6.6l0,0l-3.3-6.7h0L223.3,94.4z"/>
					<path class="st3" d="M239.7,83.4h19.7v4.5h-7.3v13.6H247V87.9h-7.3V83.4z"/>
					<path class="st3" d="M261.7,101.6V83.4h18.4v4.2h-13.3v2.9h12.5v3.8h-12.5v2.9h13.6v4.4H261.7z"/>
					<path class="st3" d="M283.5,83.4h5.2v6.6h2.5l6.5-6.6h7l-9.1,8.8l10.1,9.3h-7.3l-7.4-7h-2.3v7h-5.2V83.4z"/>
				</g>
			</g>
		</g>
		<g>
			<g>
				<path class="st3" d="M62,59.6H42.9c-0.1,0.2-0.1,1.2-0.1,2.9c0,1.1-0.4,2.2-1.2,3.1c-0.8,1-1.7,1.4-2.9,1.4H3.6
					c-1,0-1.9-0.5-2.6-1.6C0.3,64.3,0,63.3,0,62.2V47.5h7.6v11.9h27.5V19.1h7.6v32.8H62V59.6z M25.1,44.6v1.4
					c-0.1,0.2-0.2,0.4-0.4,0.6h-7.1v-2h1.5c0-0.2-0.1-0.5-0.2-0.9c-0.1-0.4-0.2-0.7-0.2-0.9c0-0.7,0.3-1.3,0.8-1.8
					c0.5-0.5,1.1-0.8,1.8-0.8h3.8V42c0.3-0.1-0.3-0.1-1.6-0.1c-1.8,0-2.8,0.6-2.8,1.8C20.7,44.3,22.2,44.6,25.1,44.6z"/>
				<path class="st3" d="M74.5,57.3c0,0.4-0.4,0.9-1.1,1.5c-0.7,0.5-1.3,0.8-1.7,0.8h-13v-7.7h6.6c1-0.1,1.4-1,1.4-2.9v-8.8h7.7
					V57.3z M66.8,34.5c0,2.2-1.1,3.3-3.3,3.3c-2.3,0-3.4-1.1-3.4-3.4c0-1,0.3-1.7,1.1-2.4c0.7-0.6,1.5-1,2.4-1
					C65.7,31,66.8,32.1,66.8,34.5z M75.5,34.6c0,2.1-1.1,3.2-3.4,3.2c-2.2,0-3.4-1.1-3.4-3.4c0-2.2,1.1-3.3,3.4-3.3
					C74.4,31.1,75.5,32.3,75.5,34.6z"/>
				<path class="st3" d="M87.9,59.6h-7.6V19h7.6V59.6z"/>
				<path class="st3" d="M117.5,63.7c0,2.9-0.9,5.5-2.7,7.6c-2,2.4-4.3,3.5-7.1,3.5h-12v-7.4c1.2,0,2.7,0.1,4.5,0.2
					c1.8,0.1,3,0.2,3.5,0.2c2.2,0,3.8-0.5,4.5-1.6c0.8-1,1.2-3.2,1.2-6.6H95.7V44.9c0-2.8,1.2-5.5,3.5-8.1c2.4-2.6,4.9-3.9,7.6-3.9
					h10.7V63.7z M109.8,52.2V40.4h-1.6c-1.3,0-2.4,0.6-3.4,1.9c-1,1.3-1.5,2.5-1.5,3.8v6H109.8z"/>
				<path class="st3" d="M109.5,51.9H127v7.7h-25.3"/>
				<path class="st3" d="M162.9,54.4c0,3.5-1,5.2-2.9,5.2h-37.8v-7.7h6.8c0.2-0.2,0.3-0.9,0.3-1.9c0-2.9,1.4-6,4.2-9.2
					c2.8-3.2,5.6-4.8,8.5-4.7v-3.2h7.6v3c5.1,1.5,8.6,3.6,10.5,6.3C161.9,45,162.9,49,162.9,54.4z M141.8,52.2V45
					c-1.2,0.1-2.3,0.8-3.4,2.2c-1.1,1.4-1.7,2.8-1.7,4c0,0.1,0,0.3,0.1,0.5c0.1,0.2,0.1,0.4,0.1,0.5H141.8z M154.7,52.2v-1.8
					c0-0.8-0.4-1.8-1.3-2.9c-1-1.4-2.3-2.2-3.9-2.5v7.2H154.7z"/>
				<path class="st3" d="M202.4,59.6H179V18.8h7.7v33h15.7V59.6z"/>
				<path class="st3" d="M245.5,51.9v7.7h-17.1v4.2h-19.2c-1.6,0-2.6-0.3-3.1-0.9c-0.5-0.6-0.8-1.7-0.8-3.3h-5.9v-7.7h6V40.3h13.2
					c3,0,5.5,1.2,7.3,3.5c1.8,2.3,2.7,5,2.7,8.1H245.5z M221.1,56.1v-3.9c0-0.9-0.5-1.9-1.6-3c-1.1-1.1-2.1-1.6-3-1.6H213v8.6H221.1
					z"/>
				<path class="st3" d="M249.2,59.6h-9V52h9V59.6z"/>
				<path class="st3" d="M294.3,59.6h-46.8V40.3h7.6V52h7.1V40.3h7.6V52h7.2V40.3h7.6v11.6h9.7V59.6z"/>
				<path class="st3" d="M304.4,57.7c0,0.3-0.3,0.7-0.8,1.2c-0.6,0.5-1,0.7-1.3,0.7h-14.6v-7.7h8c0.9,0.2,1.3-1.6,1.3-5.4
					c0-1.1,0-2.4-0.1-3.9c-0.1-1.5-0.1-2.3-0.1-2.4h7.6V57.7z M303.9,34.6c0,0.9-0.3,1.7-1,2.3c-0.7,0.6-1.5,1-2.5,1
					c-2.1,0-3.2-1.1-3.2-3.4c0-2.2,1.1-3.4,3.3-3.4c1,0,1.8,0.3,2.4,1C303.6,32.8,303.9,33.6,303.9,34.6z"/>
			</g>
		</g>
	</g>
</g>
</svg>
