<?xml version="1.0" encoding="utf-8"?>
<!-- Generator: Adobe Illustrator 26.0.1, SVG Export Plug-In . SVG Version: 6.00 Build 0)  -->
<svg version="1.1" id="Layer_1" xmlns="http://www.w3.org/2000/svg" xmlns:xlink="http://www.w3.org/1999/xlink" x="0px" y="0px"
	 viewBox="0 0 500 322" style="enable-background:new 0 0 500 322;" xml:space="preserve">
<style type="text/css">
	.st0{fill:#948F87;}
	.st1{fill:#896134;}
</style>
<g>
	<g>
		<path class="st0" d="M310.5,30.3c0,0,14.6-15.7-20.2-11.5c0,0-3.6-0.8-4-6.4c0,0-8.4-3.7-24-1.1c0,0-17.3,1.4-18.1,30.6
			c0,0,21.4,2,39.3-1.4c0,0,47.7-0.8,25.2,50.1c0,0-13.6,55.7-103,114.6c0,0,74.5-65.3,90.6-117.8c0,0,14.8-37.7-14-32.5
			c0,0-40.5,6.8-43.3,1.6c0,0-8.4,2.8-6.4-19.2c0,0,3.6-36.5,25.2-36.5L283,0c0,0,8.3,1.5,11.2,5.4c0.4,0.6,0.7,1.2,0.9,1.8
			c0,0,24.8-7.2,26.9,8C321.9,15.2,322.3,24.4,310.5,30.3z"/>
		<path class="st1" d="M287.6,85.1c0,0-8,28.9-44.5,53.3c0,0,10-18,10.8-22c0,0-23.6,22.4-25.7,24.8c0,0,9.6-20.8,10.4-24
			c0,0-31.3,29.3-52.1,35.7c0,0,40.5-28.1,64.1-58.1c0,0-3.2,15.1-5.1,19.6c-0.3,0.8-0.6,1.2-0.9,1.2c-1.6,0,12.4-10,18-15.6
			c0,0,0,1.2-3.2,16.4C259.5,116.4,261.9,118.4,287.6,85.1z"/>
		<polygon class="st1" points="273.1,80.7 281.2,80.3 269.5,96.3 		"/>
		<polygon class="st1" points="262,79.6 270,79.2 258.4,95.3 		"/>
		<polygon class="st1" points="274.4,63.2 282.4,62.8 270.8,78.8 		"/>
	</g>
	<g>
		<path d="M12.5,262.2c0,4.3-3,6.1-6.2,6.1c-3.8,0-6.2-2.3-6.2-6.1v-3.4c0-3.4,2.3-5.9,5.8-5.9h6.6V262.2z M3.7,250.7
			c-1.2,0-2.2-1-2.2-2.3c0-1.2,1-2.2,2.2-2.2c1.2,0,2.3,1,2.3,2.2C6,249.7,5,250.7,3.7,250.7z M5.9,257.4c-0.8,0-1.4,0.6-1.4,1.5
			v3.5c0,1.2,0.8,1.6,1.8,1.6c1.1,0,1.8-0.5,1.8-1.6v-5H5.9z M8.9,250.7c-1.2,0-2.2-1-2.2-2.3c0-1.2,1-2.2,2.2-2.2
			c1.2,0,2.3,1,2.3,2.2C11.1,249.7,10.1,250.7,8.9,250.7z"/>
		<path d="M16.9,263.8h6.8c1.7,0,1.9-1,1.9-2.4c0-2.2-1.2-4-3.9-4h-2.2V253h2.6c6,0,8.1,4.3,8.1,8.7c0,4-2.1,6.6-6.1,6.6h-7.2V263.8
			z"/>
		<path d="M35.5,272.4c3.8,0.1,6.9-1.1,6.9-3.8v-0.3h-2.1c-3.8,0-5.9-2.7-5.9-5.8v-3.5c0-3.2,2.2-5.9,5.9-5.9h6.5v15.4
			c0,4.3-1.7,7.6-8.5,7.9L35.5,272.4z M42.5,257.4h-2.3c-0.9,0-1.4,0.6-1.4,1.4v3.5c0,0.8,0.4,1.5,1.4,1.5h2.2V257.4z"/>
		<path d="M64.4,263.8h1.7v4.4h-15v-4.4H60v-2.7c0-2.2-1.2-3.7-3.9-3.7h-2.3V253h2.7c5.4,0,8,3.9,8,8.4V263.8z"/>
		<path d="M70.9,263.8v4.4h-5v-4.4H70.9z"/>
		<path d="M82.3,258.9c0-0.9-0.6-1.5-1.4-1.5h-6.6V253h6.6c3.5,0,5.8,2.5,5.8,5.9v5h1.8v4.4H70.7v-4.4h11.6V258.9z"/>
		<path d="M88.2,268.3v-4.4h3.5v-5.2c0-4.2,3-5.9,6.2-5.9c3.6,0,6.2,2.3,6.2,5.9v5.2h1.8v4.4h-2.2c-0.8,2.8-3.4,3.9-5.9,3.9
			c-2.5,0-5.1-1.2-5.9-3.9H88.2z M96.1,266.2c0,1.2,0.9,1.6,1.8,1.6c1.1,0,1.8-0.5,1.8-1.6v-7.5c0-1.1-0.8-1.6-1.8-1.6
			c-1.1,0-1.8,0.5-1.8,1.6V266.2z"/>
		<path d="M107.8,263.8c0.9,0,1.5-0.6,1.5-1.5v-15.6h4.4v15.6c0,3-2,5.8-5.9,5.8h-2v-4.4H107.8z"/>
		<path d="M122.3,268.3l-4.4,2.3v-23.8h4.4V268.3z"/>
		<path d="M144.9,262.2c0,4.3-3,6.1-6.2,6.1c-3.8,0-6.2-2.3-6.2-6.1v-3.4c0-3.4,2.3-5.9,5.8-5.9h6.6V262.2z M136.1,250.7
			c-1.2,0-2.2-1-2.2-2.3c0-1.2,1-2.2,2.2-2.2c1.2,0,2.3,1,2.3,2.2C138.3,249.7,137.3,250.7,136.1,250.7z M138.3,257.4
			c-0.8,0-1.4,0.6-1.4,1.5v3.5c0,1.2,0.8,1.6,1.8,1.6c1.1,0,1.8-0.5,1.8-1.6v-5H138.3z M141.2,250.7c-1.2,0-2.2-1-2.2-2.3
			c0-1.2,1-2.2,2.2-2.2c1.2,0,2.3,1,2.3,2.2C143.5,249.7,142.4,250.7,141.2,250.7z"/>
		<path d="M156.3,269c0,3.4-1.4,5.4-5.4,7.3l-3-4c3.2-0.8,4-2.3,4-4.3v-15h4.4V269z"/>
		<path d="M166.8,268.3H166c-3.3,0-5.4-2.7-5.4-5.7v-15.8h4.4v15.6c0,1,0.6,1.5,1.5,1.5h0.4V268.3z"/>
		<path d="M171.6,263.8v4.4h-5v-4.4H171.6z"/>
		<path d="M182.9,258.9c0-0.9-0.6-1.5-1.4-1.5h-6.6V253h6.6c3.5,0,5.8,2.5,5.8,5.9v5h1.8v4.4h-17.8v-4.4h11.6V258.9z M179.9,276.3
			c-1.2,0-2.2-1-2.2-2.2c0-1.2,1.1-2.3,2.2-2.3c1.2,0,2.3,1,2.3,2.3C182.1,275.3,181.1,276.3,179.9,276.3z"/>
		<path d="M188.9,263.8h5.8V253h4.4v10.9h1.8v4.4h-12.1V263.8z M191.8,250.7c-1.2,0-2.3-1-2.3-2.3c0-1.2,1-2.2,2.3-2.2
			c1.2,0,2.2,1,2.2,2.2C194,249.7,193,250.7,191.8,250.7z M196.9,250.7c-1.2,0-2.3-1-2.3-2.3c0-1.2,1-2.2,2.3-2.2
			c1.2,0,2.2,1,2.2,2.2C199.1,249.7,198.2,250.7,196.9,250.7z"/>
		<path d="M200.8,263.8h3.5v-17.1h4.4v17.1h1.8v4.4h-9.7V263.8z"/>
		<path d="M212.3,263.8c0.9,0,1.5-0.6,1.5-1.5v-15.6h4.4v15.6c0,3-2,5.8-5.9,5.8h-2v-4.4H212.3z"/>
		<path d="M248.7,263.8h1.8v4.4h-1.8c0,5.8-5.5,8.2-10.2,8.2c-5,0-10.3-2.5-10.3-8.3v-6.7l4.4-2.9v8.8c0,3.5,3.2,4.6,5.8,4.6
			c2.7,0,5.9-1.2,5.9-4.6V253h4.4V263.8z M238.6,250.7c-1.2,0-2.2-1-2.2-2.3c0-1.2,1-2.2,2.2-2.2c1.2,0,2.3,1,2.3,2.2
			C240.9,249.7,239.9,250.7,238.6,250.7z"/>
		<path d="M255.3,263.8v4.4h-5v-4.4H255.3z"/>
		<path d="M255.1,263.8h5.8V253h4.4v10.9h1.8v4.4h-12.1V263.8z M257.9,276.3c-1.2,0-2.3-1-2.3-2.2c0-1.2,1-2.3,2.3-2.3
			c1.2,0,2.2,1,2.2,2.3C260.2,275.3,259.2,276.3,257.9,276.3z M263.1,276.3c-1.2,0-2.3-1-2.3-2.2c0-1.2,1-2.3,2.3-2.3
			c1.2,0,2.2,1,2.2,2.3C265.3,275.3,264.3,276.3,263.1,276.3z"/>
		<path d="M271.9,263.8v4.4h-5v-4.4H271.9z"/>
		<path d="M284.8,262.6c0,0.4,0,0.8-0.1,1.2h1c1.2,0,1.5-0.9,1.5-1.4v-3.5c0-1-0.6-1.5-1.5-1.5h-10.4V253h10.4c3.6,0,6,2.3,6,5.9
			v3.5c0,3.2-2.3,5.8-5.5,5.8h-4.6c-0.5,0-1-0.1-1.4-0.6c-0.4,0.5-0.8,0.6-1.5,0.6h-6.9v-4.4h3.7c-0.1-0.4-0.1-0.8-0.1-1.2
			c0-2.2,1.7-4.7,4.8-4.7C283,257.9,284.8,260.4,284.8,262.6z M280,261.2c-0.8,0-1.4,0.7-1.4,1.5c0,0.8,0.6,1.4,1.4,1.4
			c0.8,0,1.4-0.6,1.4-1.4C281.5,261.9,280.8,261.2,280,261.2z"/>
		<path d="M302.1,268.3h-0.8c-3.3,0-5.4-2.7-5.4-5.7v-15.8h4.4v15.6c0,1,0.6,1.5,1.5,1.5h0.4V268.3z"/>
		<path d="M325.3,263.8c0.7,0,1.4-0.4,1.4-1.5V253h4.4v9.4c0,3.3-2.1,5.8-6,5.8h-23.2v-4.4h8.7V253h4.4v10.9h3.7V253h4.4v10.9H325.3
			z M318.3,250.7c-1.2,0-2.2-1-2.2-2.3c0-1.2,1-2.2,2.2-2.2c1.2,0,2.3,1,2.3,2.2C320.5,249.7,319.5,250.7,318.3,250.7z M320.9,245.8
			c-0.9,0-1.7-0.8-1.7-1.7c0-1,0.8-1.7,1.7-1.7c1,0,1.7,0.8,1.7,1.7C322.6,245,321.8,245.8,320.9,245.8z M323.4,250.7
			c-1.2,0-2.2-1-2.2-2.3c0-1.2,1-2.2,2.2-2.2c1.2,0,2.3,1,2.3,2.2C325.7,249.7,324.7,250.7,323.4,250.7z"/>
		<path d="M347.4,268.3h-0.8c-3.3,0-5.4-2.7-5.4-5.7v-15.8h4.4v15.6c0,1,0.6,1.5,1.5,1.5h0.4V268.3z"/>
		<path d="M352.2,263.8v4.4h-5v-4.4H352.2z"/>
		<path d="M352,268.3v-4.4h3.5v-5.2c0-4.2,3-5.9,6.2-5.9c3.6,0,6.2,2.3,6.2,5.9v5.2h1.8v4.4h-2.2c-0.8,2.8-3.4,3.9-5.9,3.9
			c-2.5,0-5.1-1.2-5.9-3.9H352z M359.8,266.2c0,1.2,0.9,1.6,1.8,1.6c1.1,0,1.8-0.5,1.8-1.6v-7.5c0-1.1-0.8-1.6-1.8-1.6
			c-1.1,0-1.8,0.5-1.8,1.6V266.2z"/>
		<path d="M400.5,268.3h-31v-4.4h8.7V253h4.4v10.9h3.7V253h4.4v10.9h3.6V253h4.4v10.9h1.8V268.3z"/>
		<path d="M410.5,253v9.4c0,3.5-2.4,5.8-5.8,5.8h-4.4v-4.4h4.3c0.7,0,1.5-0.3,1.5-1.5V253H410.5z M408.3,250.7c-1.2,0-2.3-1-2.3-2.3
			c0-1.2,1-2.2,2.3-2.2c1.2,0,2.2,1,2.2,2.2C410.5,249.7,409.6,250.7,408.3,250.7z"/>
		<path d="M433,263.8h1.8v4.4h-6.2v-2.7l-2.1,2.7c-3.7,0-5.9-2.5-5.9-5.9v-3.5c0-3.5,2.3-5.9,5.8-5.9h6.6V263.8z M424.2,250.7
			c-1.2,0-2.2-1-2.2-2.3c0-1.2,1-2.2,2.2-2.2c1.2,0,2.3,1,2.3,2.2C426.5,249.7,425.4,250.7,424.2,250.7z M428.7,257.4h-2.3
			c-0.7,0-1.4,0.5-1.4,1.6v3.5c0,0.8,0.5,1.4,1.4,1.4h2.3V257.4z M429.4,250.7c-1.2,0-2.2-1-2.2-2.3c0-1.2,1-2.2,2.2-2.2
			c1.2,0,2.3,1,2.3,2.2C431.6,249.7,430.6,250.7,429.4,250.7z"/>
		<path d="M439.7,263.8v4.4h-5v-4.4H439.7z"/>
		<path d="M457.2,262.4c0,3.6-2.6,5.8-6,5.8h-11.7v-4.4h11.9c0.9,0,1.4-0.6,1.4-1.5V259c0-1-0.6-1.6-1.4-1.6h-8.5v-4.7
			c0-3.2,2.1-5.9,6-5.9h6.1v3.7h-6.3c-1.5,0-2.1,0.9-2.1,2.1v0.4h4.8c3,0,5.8,2.2,5.8,5.9V262.4z"/>
		<path d="M468.5,263.8h1.8v4.4h-1.8v0.9c0,3.3-1.3,5.2-5.4,7.2l-3-4c3.8-0.9,4-2.8,4-4.6V253h4.4V263.8z"/>
		<path d="M493.5,263.8c0.7,0,1.4-0.4,1.4-1.5V253h4.4v9.4c0,3.3-2.1,5.8-6,5.8h-23.2v-4.4h8.7V253h4.4v10.9h3.7V253h4.4v10.9H493.5
			z M486.5,250.7c-1.2,0-2.2-1-2.2-2.3c0-1.2,1-2.2,2.2-2.2c1.2,0,2.3,1,2.3,2.2C488.8,249.7,487.8,250.7,486.5,250.7z M489.1,245.8
			c-0.9,0-1.7-0.8-1.7-1.7c0-1,0.8-1.7,1.7-1.7c1,0,1.7,0.8,1.7,1.7C490.8,245,490.1,245.8,489.1,245.8z M491.7,250.7
			c-1.2,0-2.2-1-2.2-2.3c0-1.2,1-2.2,2.2-2.2c1.2,0,2.3,1,2.3,2.2C493.9,249.7,492.9,250.7,491.7,250.7z"/>
	</g>
	<g>
		<path d="M18.1,315.5h-4.5l-8.9-13.6v13.6H0v-22.3h4.5l8.9,13.6v-13.6h4.7V315.5z"/>
		<path d="M35.9,308.5h-9.5c0,1.8,0.2,3.9,4.1,3.9c2.6,0,4.3-0.4,5.3-0.9l-0.7,3.5c-1.1,0.3-2.8,0.7-5.4,0.7c-6.4,0-7.8-3.5-7.8-7.9
			c0-3.7,1.2-8.4,7.3-8.4c5.4,0,7.1,3.3,7.1,7.1C36.1,307,36,307.8,35.9,308.5z M31.5,305.9c0.1-1.1,0.1-3.5-2.4-3.5
			c-2,0-2.7,1.5-2.7,3.5H31.5z"/>
		<path d="M44,315.8c-2.9,0-4.6-0.3-5.7-0.7l0.8-3.4c0.9,0.4,2.9,1,4.1,1c1.4,0,3-0.2,3-1.5c0-2.9-7.3-1.8-7.3-7.3
			c0-3.4,3.4-4.4,6.5-4.4c2.3,0,4.6,0.6,4.8,0.8l-0.7,3.4c-0.4-0.3-2.2-1.1-3.7-1.1c-1.7,0-2.4,0.3-2.4,1.2c0,2.3,7.3,1.6,7.3,7.1
			C50.5,313.9,47.6,315.8,44,315.8z"/>
		<path d="M79.5,315.1c-1,0.5-2.4,0.7-3.7,0.7c-0.9,0-3.1-0.4-3.1-3v-7.3c0-2.1-0.2-2.4-1.6-2.4c-1.3,0-2.6,0.8-3.5,1.6v10.7h-4.5
			v-9.9c0-2.1-0.3-2.4-1.6-2.4c-1.2,0-3,1.1-3.5,1.9v10.5h-4.5v-15.9H58v1.8c0.6-0.8,2.6-2,4.6-2c2.2,0,3.8,0.5,4.5,2.3
			c1.1-1.1,2.9-2.3,5.1-2.3c3.1,0,4.9,0.7,4.9,5v7.5c0,0.6,0.3,0.8,1,0.8c0.2,0,0.5,0,0.9-0.1L79.5,315.1z"/>
		<path d="M96.8,315.1c-1.1,0.5-2.4,0.7-3.6,0.7c-2.1,0-2.7-1.1-3-2.1c-1.2,1.4-2.3,2-4.4,2c-3.6,0-4.9-2-4.9-4.6
			c0-4.2,3.3-5.5,7.1-5.5c0.6,0,1.8,0.1,2.2,0.1V305c0-2-1.1-2.2-3.3-2.2c-2,0-3.7,0.4-4.8,0.9l0.7-3.4c1.5-0.5,3.2-0.8,5-0.8
			c4.5,0,6.9,1.1,6.9,5.9v6.6c0,0.5,0.3,0.8,0.9,0.8c0.2,0,0.5,0,0.9-0.1L96.8,315.1z M90.1,308.3c-0.6-0.1-1.3-0.1-1.9-0.1
			c-2.4,0-3,1.3-3,2.5c0,1.4,1.1,1.9,2.2,1.9c1.3,0,2.7-0.6,2.7-2.4V308.3z"/>
		<path d="M111,315.9c-2.2,0-4.7-0.3-6.7-1.2l0.7-4.4c1.4,0.6,3.7,1.3,5.9,1.3c0.8,0,3.3-0.1,3.3-2.4c0-4-10-2.6-10-10
			c0-4.4,3.3-6.3,8.1-6.3c2.1,0,4.4,0.6,5.8,1.2l-0.8,4.3c-1.4-0.6-3-1.3-5.1-1.3c-2.6,0-3.1,1.1-3.1,2c0,2.8,9.9,2.6,9.9,9.6
			C119,313.3,116.2,315.9,111,315.9z"/>
		<path d="M138.8,315.1c-1,0.5-2.4,0.7-3.7,0.7c-0.9,0-3.1-0.4-3.1-3v-7.3c0-2.1-0.2-2.4-1.6-2.4c-1,0-2.9,1.1-4,1.9v10.5H122v-22.3
			h4.5v8.2c0.7-0.5,2.7-2,5.1-2c3.1,0,4.9,0.7,4.9,5v7.5c0,0.6,0.3,0.8,0.9,0.8c0.2,0,0.6,0,0.9-0.1L138.8,315.1z"/>
		<path d="M156.1,315.1c-1.1,0.5-2.4,0.7-3.6,0.7c-2.1,0-2.7-1.1-3-2.1c-1.2,1.4-2.3,2-4.4,2c-3.6,0-4.9-2-4.9-4.6
			c0-4.2,3.3-5.5,7.1-5.5c0.6,0,1.8,0.1,2.2,0.1V305c0-2-1.1-2.2-3.3-2.2c-2,0-3.7,0.4-4.8,0.9l0.7-3.4c1.5-0.5,3.2-0.8,5-0.8
			c4.5,0,6.9,1.1,6.9,5.9v6.6c0,0.5,0.3,0.8,0.9,0.8c0.2,0,0.5,0,0.9-0.1L156.1,315.1z M149.4,308.3c-0.6-0.1-1.3-0.1-1.9-0.1
			c-2.4,0-3,1.3-3,2.5c0,1.4,1.1,1.9,2.2,1.9c1.3,0,2.7-0.6,2.7-2.4V308.3z"/>
		<path d="M175.1,315.1c-1,0.5-2.4,0.7-3.7,0.7c-0.9,0-3.1-0.4-3.1-3v-7.3c0-2.1-0.2-2.4-1.6-2.4c-1,0-2.9,1.1-4,1.9v10.5h-4.5
			v-22.3h4.5v8.2c0.7-0.5,2.7-2,5.1-2c3.1,0,4.9,0.7,4.9,5v7.5c0,0.6,0.3,0.8,0.9,0.8c0.2,0,0.6,0,0.9-0.1L175.1,315.1z"/>
		<path d="M190.8,308.5h-9.5c0,1.8,0.2,3.9,4.1,3.9c2.6,0,4.3-0.4,5.3-0.9l-0.7,3.5c-1.1,0.3-2.8,0.7-5.5,0.7
			c-6.4,0-7.8-3.5-7.8-7.9c0-3.7,1.2-8.4,7.3-8.4c5.4,0,7.1,3.3,7.1,7.1C191.1,307,191,307.8,190.8,308.5z M186.4,305.9
			c0.1-1.1,0.1-3.5-2.4-3.5c-2,0-2.7,1.5-2.7,3.5H186.4z"/>
		<path d="M207.9,308.5h-9.5c0,1.8,0.2,3.9,4.1,3.9c2.6,0,4.3-0.4,5.3-0.9l-0.7,3.5c-1.1,0.3-2.8,0.7-5.4,0.7
			c-6.4,0-7.8-3.5-7.8-7.9c0-3.7,1.2-8.4,7.3-8.4c5.4,0,7.1,3.3,7.1,7.1C208.1,307,208.1,307.8,207.9,308.5z M203.5,305.9
			c0.1-1.1,0.1-3.5-2.4-3.5c-2,0-2.7,1.5-2.7,3.5H203.5z"/>
		<path d="M228.2,315.1c-1,0.5-2.3,0.7-3.6,0.7c-1,0-3.2-0.4-3.2-3v-7.3c0-2.1-0.2-2.4-1.6-2.4c-1,0-2.9,1.1-4,1.9v10.5h-4.5v-15.9
			h4.5v1.8c1.3-1,3.1-2,5.1-2c3.1,0,4.9,0.7,4.9,5v7.5c0,0.5,0.3,0.8,0.8,0.8c0.2,0,0.6,0,1-0.1L228.2,315.1z"/>
		<path d="M245.8,296.3c-0.5-0.2-1.5-0.4-2.2-0.4c-1.4,0-1.9,0.4-1.9,1.9v1.8h3.5v3.1h-3.5v12.8h-4.4v-12.8h-2.5l0.7-3.1h1.8v-1.4
			c0-2.8,1-5.7,5.4-5.7c1.3,0,2.5,0.1,3.9,0.5L245.8,296.3z"/>
		<path d="M254.9,315.8c-4,0-7.8-1-7.8-8.2c0-6.8,3.5-8.2,7.8-8.2c4.2,0,7.8,1.4,7.8,8.2C262.7,314.7,258.8,315.8,254.9,315.8z
			 M254.9,302.4c-1.3,0-3.3,0.2-3.3,5.2c0,4.9,2,5.2,3.3,5.2c1.3,0,3.3-0.2,3.3-5.2C258.1,302.7,256.1,302.4,254.9,302.4z"/>
		<path d="M275.5,303.5c-0.6-0.3-1.1-0.5-2.2-0.5c-1.4,0-2.4,1.4-2.7,1.8v10.7h-4.5v-15.9h4.5v1.8c0.9-1.4,2.2-2,3.2-2
			c1.1,0,2,0.3,2.5,0.7L275.5,303.5z"/>
		<path d="M300.3,293.2l-0.7,4.2h-5.1v18.2h-5v-18.2h-5.4v-4.2H300.3z"/>
		<path d="M310.4,303.5c-0.6-0.3-1.1-0.5-2.2-0.5c-1.4,0-2.4,1.4-2.7,1.8v10.7h-4.5v-15.9h4.5v1.8c0.9-1.4,2.2-2,3.2-2
			c1.1,0,2,0.3,2.5,0.7L310.4,303.5z"/>
		<path d="M327.9,315.1c-1.1,0.5-2.4,0.7-3.6,0.7c-2.1,0-2.7-1.1-3-2.1c-1.2,1.4-2.3,2-4.4,2c-3.6,0-4.9-2-4.9-4.6
			c0-4.2,3.3-5.5,7.1-5.5c0.6,0,1.8,0.1,2.2,0.1V305c0-2-1.1-2.2-3.3-2.2c-2,0-3.7,0.4-4.8,0.9l0.7-3.4c1.5-0.5,3.2-0.8,5-0.8
			c4.5,0,6.9,1.1,6.9,5.9v6.6c0,0.5,0.3,0.8,0.9,0.8c0.2,0,0.5,0,0.9-0.1L327.9,315.1z M321.1,308.3c-0.6-0.1-1.3-0.1-1.9-0.1
			c-2.4,0-3,1.3-3,2.5c0,1.4,1.1,1.9,2.2,1.9c1.3,0,2.7-0.6,2.7-2.4V308.3z"/>
		<path d="M347.1,315.1c-1,0.5-2.3,0.7-3.6,0.7c-2.3,0-2.9-1.5-3.1-2.2c-1,1.3-2.9,2.1-5,2.1c-3.3,0-5.8-2.5-5.8-8.1
			c0-4.6,1.8-8.3,6.9-8.3c1.9,0,3.1,0.2,3.9,0.5v-6.7h4.5v18.7c0,0.6,0.3,0.8,0.9,0.8c0.2,0,0.5,0,0.9-0.1L347.1,315.1z
			 M340.3,302.9c-0.6-0.2-1.6-0.5-2.9-0.5c-2,0-3.3,0.8-3.3,5c0,3.6,1.1,4.8,3,4.8c2.6,0,3.2-1.4,3.2-3.9V302.9z"/>
		<path d="M351.8,297.7c-1.3,0-2.6-1.2-2.6-2.6c0-1.4,1.3-2.6,2.6-2.6c1.4,0,2.6,1.2,2.6,2.6C354.4,296.5,353.1,297.7,351.8,297.7z
			 M356.3,315.1c-1.1,0.5-2.4,0.7-3.7,0.7c-1,0-3.1-0.4-3.1-3v-13.2h4.4v12.2c0,0.6,0.3,0.8,0.9,0.8c0.2,0,0.5,0,0.9-0.1
			L356.3,315.1z"/>
		<path d="M375.4,315.1c-1,0.5-2.3,0.7-3.6,0.7c-1,0-3.2-0.4-3.2-3v-7.3c0-2.1-0.2-2.4-1.6-2.4c-1,0-2.9,1.1-4,1.9v10.5h-4.5v-15.9
			h4.5v1.8c1.3-1,3.1-2,5.1-2c3.1,0,4.9,0.7,4.9,5v7.5c0,0.5,0.3,0.8,0.8,0.8c0.2,0,0.6,0,1-0.1L375.4,315.1z"/>
		<path d="M392.3,312.5c0,8.7-3.7,9.5-8.4,9.5c-2.4,0-5.3-0.6-6.8-1.1l0.9-3.4c1.4,0.6,3.6,1.1,5.7,1.1c1.7,0,4.1-0.2,4.1-3.5v-1.3
			c-1.1,0.9-2.2,1.6-5,1.6c-3.3,0-5.8-2.6-5.8-8.1c0-5,2.9-7.7,7.5-7.7c3.3,0,5.6,0.4,7.7,0.9V312.5z M387.8,302.8
			c-0.7-0.1-1.8-0.3-2.7-0.3c-1.6,0-3.4,0.5-3.4,4.5c0,3.7,1,4.8,2.8,4.8c2.6,0,3.4-1.3,3.4-3.9V302.8z"/>
		<path d="M418.9,298.4c-1.5-0.7-3.5-1.3-5.6-1.3c-4.6,0-6.4,3.1-6.4,7.7c0,5.8,4.4,6.7,6.9,6.7c1.5,0,4.4-0.6,5.8-1.1l-0.8,4.6
			c-1.3,0.4-4.2,0.7-5.6,0.7c-6.8,0-11.5-3.9-11.5-11.2c0-6.6,3.7-11.9,11.2-11.9c3.5,0,6,0.9,6.7,1.2L418.9,298.4z"/>
		<path d="M430.1,315.8c-4,0-7.8-1-7.8-8.2c0-6.8,3.5-8.2,7.8-8.2c4.2,0,7.8,1.4,7.8,8.2C437.9,314.7,434,315.8,430.1,315.8z
			 M430.1,302.4c-1.3,0-3.3,0.2-3.3,5.2c0,4.9,2,5.2,3.3,5.2c1.3,0,3.3-0.2,3.3-5.2C433.3,302.7,431.4,302.4,430.1,302.4z"/>
		<path d="M460.8,311.4l-0.7,4.2h-12.6v-22.3h5v18.2H460.8z"/>
		<path d="M472.1,315.1c-1.3,0.4-2.5,0.6-4.3,0.6c-1.8,0-4-0.6-4-4.3v-8.7h-2.5l0.7-3.1h1.8v-3.7l4.5-1.5v5.3h3.4v3.1h-3.4v7.7
			c0,1.5,0.3,2,1.4,2c0.6,0,1.2-0.1,1.8-0.4L472.1,315.1z"/>
		<path d="M491.3,315.1c-1,0.5-2.3,0.7-3.6,0.7c-2.3,0-2.9-1.5-3.1-2.2c-1,1.3-2.9,2.1-5,2.1c-3.3,0-5.8-2.5-5.8-8.1
			c0-4.6,1.8-8.3,6.9-8.3c1.9,0,3.1,0.2,3.9,0.5v-6.7h4.5v18.7c0,0.6,0.3,0.8,0.9,0.8c0.2,0,0.5,0,0.9-0.1L491.3,315.1z
			 M484.6,302.9c-0.6-0.2-1.6-0.5-2.9-0.5c-2,0-3.3,0.8-3.3,5c0,3.6,1.1,4.8,3,4.8c2.6,0,3.2-1.4,3.2-3.9V302.9z"/>
		<path d="M497.2,315.8c-1.4,0-2.7-1.2-2.7-2.7s1.3-2.8,2.7-2.8c1.4,0,2.8,1.2,2.8,2.8S498.7,315.8,497.2,315.8z"/>
	</g>
</g>
</svg>
