<?xml version="1.0" encoding="utf-8"?>
<!-- Generator: Adobe Illustrator 26.0.1, SVG Export Plug-In . SVG Version: 6.00 Build 0)  -->
<svg version="1.1" id="Layer_1" xmlns="http://www.w3.org/2000/svg" xmlns:xlink="http://www.w3.org/1999/xlink" x="0px" y="0px"
	 viewBox="0 0 454.4 500" style="enable-background:new 0 0 454.4 500;" xml:space="preserve">
<style type="text/css">
	.st0{fill:#241C20;}
	.st1{fill:#74613C;}
	.st2{fill:#00BAA4;}
</style>
<g>
	<g>
		<path class="st0" d="M33.2,398.1c-1.2,3-2.7,5.2-4.4,6.7c-1.7,1.4-4.2,2.2-7.5,2.2h-9.4v-19.7l11.3,0c0.7,0,1.4,0.3,1.8,0.8
			c0.5,0.5,0.7,1.1,0.7,1.9v1.9h2.3v-12.9h-2.3v1.8c0,0.8-0.2,1.4-0.8,1.9c-0.5,0.5-1.1,0.8-1.9,0.8H11.9V363h13.7
			c0.9,0,1.6,0.4,2.3,1c0.6,0.7,1,1.4,1,2.4v2.1h2.3v-11l-1.1,0.4c-0.7,0.3-1.8,0.5-3.5,0.8c-1.7,0.3-3.3,0.4-4.7,0.4H0l0.2,2.3h1.6
			c1,0,1.9,0.3,2.7,1c0.7,0.6,1.1,1.4,1.1,2.3l0,40c0,1-0.4,1.9-1.2,2.6c-0.7,0.7-1.6,1.1-2.6,1.1H0.1v2.3h31l4.7-13.2h-2.4
			L33.2,398.1z"/>
		<path class="st0" d="M98.2,407.5c-0.8-0.7-1.3-1.6-1.5-2.8l-5.6-46.5h-1.9l-19,42l-19.4-42h-2l-5.4,46.5c-0.2,1.2-0.6,2.1-1.5,2.8
			c-0.8,0.7-1.8,1-2.9,1h-2v2.3h15.5v-2.3h-1.9c-0.6,0-1-0.2-1.5-0.7c-0.4-0.5-0.6-0.9-0.5-1.5l2.8-31.9l17.2,37.4h1.9l0.1-0.7
			c0.3-1.9,1.1-4.2,2.4-7.1l13.7-30.5l2.9,32.9c0.1,0.6-0.1,1.1-0.5,1.5c-0.4,0.4-0.9,0.7-1.5,0.7h-1.9v2.3H103v-2.3h-2
			C100,408.5,99,408.1,98.2,407.5"/>
		<path class="st0" d="M131.8,375.7c-1.2,4.3-4.6,6.4-10.6,6.4h-0.8v1.5l0.1,0.8h0.8c5.3,0,9.3,1.1,11.9,3.2c1,0.8,1.8,2,2.4,3.4
			c0.6,1.4,1,3.1,1,5.1c0,3.4-0.9,6-2.8,7.8c-1.8,1.8-4.5,2.7-7.9,2.7h-6.3v-43.5h3c3.1,0,5.6,0.8,7.2,2.4c1.6,1.6,2.4,3.9,2.4,6.9
			C132.2,373.6,132.1,374.7,131.8,375.7 M133.2,382.6c1.3-0.7,2.5-1.7,3.5-3c1.6-2,2.5-4.6,2.5-7.6c0-3.9-1.5-7-4.4-9.3
			c-2.9-2.3-6.9-3.4-11.9-3.4h-15.1l0.2,2.3h1.6c1,0,1.9,0.3,2.6,1.1c0.7,0.7,1.1,1.6,1.1,2.6l0,39.7c0,1-0.4,1.9-1.1,2.6
			c-0.7,0.7-1.6,1.1-2.6,1.1H108l-0.2,2.3h18.3c5.4,0,9.7-1.3,12.8-3.8c3.1-2.6,4.7-6,4.7-10c0-4-1.2-7.4-3.5-10.1
			C138.3,384.8,136,383.4,133.2,382.6"/>
		<path class="st0" d="M188.5,407.6c-0.6-0.3-1.1-0.6-1.7-1c-0.6-0.5-1.1-0.9-1.6-1.4c-0.5-0.5-1.4-1.4-2.6-2.7
			c-1.2-1.3-3.9-4.9-7.9-10.8c-0.8-1.1-1.7-2.1-2.7-3.1c-0.3-0.3-0.6-0.6-0.8-0.8c2.7-0.5,5-1.9,7-4.3c2.5-2.9,3.7-6.4,3.7-10.5
			c0-4-1.3-7.4-4-9.9c-2.6-2.5-6.3-3.8-10.8-3.8h-20.1v2.3h1.7c1,0,1.9,0.4,2.6,1.1c0.7,0.7,1.1,1.6,1.2,2.6l0,39.6
			c0,1-0.4,1.9-1.1,2.6c-0.7,0.7-1.6,1.1-2.6,1.1h-1.7v2.3h17.4l-0.2-2.3h-1.6c-1.1,0-1.9-0.4-2.7-1.1c-0.7-0.7-1.1-1.6-1.1-2.6V363
			h3.8c1.7,0,3.1,0,4.2,0.1c2.4,0.1,4.3,1.1,5.8,2.8c1.5,1.8,2.2,4.2,2.3,7.2v1.6c0,0.7-0.1,1.6-0.4,2.4c-1.4,4.5-4.8,6.7-10.4,6.9
			c-1.7,0.1-2.9,0.1-3.6,0l-0.9-0.1v2.5h0.8c1.3,0,2.6,0.7,4,2.2c0.5,0.6,1,1.1,1.5,1.7c0.5,0.6,2.2,3,5,7.1
			c2.9,4.2,4.7,6.7,5.4,7.5c0.7,0.8,1.5,1.5,2.4,2.4c1,0.9,2.3,1.7,4.2,2.4c1.9,0.8,3.9,1.2,6,1.2h4.7v-2.3h-0.8
			C191.1,408.5,189.7,408.2,188.5,407.6"/>
		<path class="st0" d="M238.9,385c0,6.9-2,12.5-5.8,16.7c-3.8,4.2-9,6.3-15.3,6.3c-6.3,0-11.5-2.1-15.3-6.3
			c-3.9-4.2-5.8-9.8-5.8-16.7c0-6.9,2-12.5,5.8-16.7c3.8-4.2,9-6.3,15.3-6.3s11.5,2.1,15.3,6.3C236.9,372.5,238.9,378.1,238.9,385
			 M238.2,365.6c-5.2-4.9-12.1-7.4-20.4-7.4c-8.3,0-15.2,2.5-20.4,7.4c-5.2,4.9-7.9,11.5-7.9,19.4s2.7,14.5,7.9,19.4
			c5.2,4.9,12.1,7.4,20.4,7.4c8.3,0,15.2-2.5,20.4-7.4c5.2-4.9,7.9-11.5,7.9-19.4C246.1,377,243.4,370.5,238.2,365.6"/>
		<path class="st0" d="M250.1,361.5h1.7c1,0,1.9,0.3,2.6,1.1c0.7,0.7,1.1,1.6,1.1,2.6l0,39.6c0,1-0.4,1.9-1.2,2.6
			c-0.7,0.7-1.6,1.1-2.6,1.1h-1.7v2.3h17.3v-2.3h-1.7c-1,0-1.9-0.4-2.6-1.1c-0.7-0.7-1.1-1.6-1.1-2.6v-39.6c0-1,0.4-1.9,1.1-2.6
			c0.7-0.7,1.6-1.1,2.6-1.1h1.7v-2.3h-17.3V361.5z"/>
		<path class="st0" d="M317.7,385c0,4.4-0.8,8.3-2.5,11.6c-1.6,3.3-3.9,5.9-6.8,7.7c-2.9,1.8-6.4,2.7-10.2,2.7H285v-44.1h13.3
			c5.8,0,10.5,2,14.1,6C315.9,373,317.7,378.4,317.7,385 M298.2,359.2h-25.1l0.2,2.3h1.6c1,0,1.9,0.3,2.7,1c0.7,0.6,1.1,1.4,1.1,2.3
			l0,40c0,1-0.4,1.9-1.2,2.6c-0.7,0.7-1.6,1.1-2.6,1.1h-1.7v2.3h25c7.8,0,14.2-2.4,19.1-7.1c4.9-4.7,7.4-11,7.4-18.7
			s-2.5-14-7.4-18.7C312.5,361.6,306,359.2,298.2,359.2"/>
		<path class="st0" d="M360.4,398.1c-1.2,3-2.7,5.2-4.4,6.7c-1.7,1.4-4.2,2.2-7.5,2.2H339v-19.7l11.3,0c0.7,0,1.3,0.3,1.8,0.8
			c0.5,0.5,0.7,1.1,0.7,1.9v1.9h2.3v-12.9h-2.3v1.8c0,0.8-0.2,1.4-0.8,1.9c-0.5,0.5-1.1,0.8-1.9,0.8H339V363h13.7
			c0.9,0,1.6,0.4,2.3,1c0.6,0.7,0.9,1.4,0.9,2.4v2.1h2.3v-11l-1.1,0.4c-0.7,0.3-1.8,0.5-3.5,0.8c-1.7,0.3-3.3,0.4-4.7,0.4h-21.8
			l0.2,2.3h1.6c1,0,1.9,0.3,2.7,1c0.7,0.6,1.1,1.4,1.1,2.3l0,40c0,1-0.4,1.9-1.2,2.6c-0.7,0.7-1.6,1.1-2.6,1.1h-1.7v2.3h31l4.7-13.2
			h-2.4L360.4,398.1z"/>
		<path class="st0" d="M407.2,407.6c-0.6-0.3-1.1-0.6-1.7-1c-0.6-0.5-1.2-0.9-1.6-1.4c-0.5-0.5-1.4-1.4-2.6-2.7
			c-1.2-1.3-3.9-4.9-7.9-10.8c-0.8-1.1-1.7-2.1-2.7-3.1c-0.3-0.3-0.6-0.6-0.8-0.8c2.7-0.5,5-1.9,7-4.3c2.5-2.9,3.7-6.4,3.7-10.5
			c0-4-1.3-7.4-4-9.9c-2.6-2.5-6.3-3.8-10.8-3.8h-20.1v2.3h1.7c1,0,1.9,0.4,2.6,1.1c0.7,0.7,1.1,1.6,1.2,2.6l0,39.6
			c0,1-0.4,1.9-1.1,2.6c-0.7,0.7-1.6,1.1-2.6,1.1h-1.7v2.3H383l-0.2-2.3h-1.6c-1.1,0-1.9-0.4-2.7-1.1c-0.7-0.7-1.1-1.6-1.1-2.6V363
			h3.8c1.7,0,3.1,0,4.2,0.1c2.4,0.1,4.3,1.1,5.8,2.8c1.4,1.8,2.2,4.2,2.3,7.2v1.6c0,0.8-0.1,1.6-0.4,2.4c-1.4,4.5-4.8,6.7-10.4,6.9
			c-1.7,0.1-2.9,0.1-3.6,0l-0.9-0.1v2.5h0.8c1.3,0,2.6,0.7,4,2.2c0.5,0.6,1,1.1,1.5,1.7c0.3,0.4,1.5,2,5,7.1
			c2.9,4.2,4.7,6.7,5.4,7.5c0.7,0.8,1.5,1.6,2.4,2.4c1,0.9,2.3,1.6,4.2,2.4c1.9,0.8,3.9,1.2,6,1.2h4.7v-2.3h-0.8
			C409.9,408.5,408.5,408.2,407.2,407.6"/>
		<path class="st0" d="M436.9,359.2v2.3h1.7c0.8,0,1.3,0.3,1.7,1.1c0.2,0.4,0.4,0.7,0.4,1.1c0,0.4-0.1,0.7-0.2,1l-10.7,18.8
			l-10-18.7c-0.2-0.4-0.3-0.7-0.3-1.1c0-0.4,0.1-0.7,0.3-1.1c0.4-0.7,1-1,1.7-1h1.7v-2.3h-19.2v2.3h1.8c1.3,0,2.5,0.4,3.7,1.1
			c1.2,0.7,2.1,1.6,2.8,2.7l13.5,22.6l0,17c0,1-0.4,1.9-1.1,2.6c-0.7,0.7-1.6,1.1-2.6,1.1h-1.7v2.3h17.2v-2.3h-1.7
			c-1.1,0-1.9-0.4-2.7-1.1c-0.7-0.7-1.1-1.6-1.1-2.6v-16.9l13.9-22.6c0.8-1.1,1.8-2,3-2.8c1.1-0.7,2.3-1.1,3.6-1.1h1.8v-2.3H436.9z"
			/>
		<path class="st0" d="M172,288.5c1,0,1.9,0.3,2.7,1c0.7,0.6,1.1,1.4,1.1,2.3v40c0,1-0.4,1.9-1.2,2.6c-0.7,0.7-1.6,1.1-2.6,1.1h-1.7
			v2.3h31l4.7-13.2h-2.4l-0.2,0.5c-1.2,3-2.7,5.2-4.4,6.7c-1.7,1.4-4.2,2.2-7.5,2.2H182v-19.7l11.3,0c0.7,0,1.3,0.3,1.8,0.8
			c0.5,0.5,0.7,1.1,0.7,1.9v1.9h2.3v-12.9h-2.3v1.8c0,0.8-0.2,1.4-0.8,1.9c-0.5,0.5-1.1,0.8-1.9,0.8H182V290h13.7
			c0.9,0,1.6,0.4,2.3,1c0.6,0.7,1,1.4,1,2.4v2.1h2.3v-11l-1.1,0.4c-0.7,0.3-1.8,0.5-3.5,0.8c-1.7,0.3-3.3,0.4-4.7,0.4h-21.8l0.2,2.3
			H172z"/>
		<path class="st0" d="M211.6,334.5l0.2,0.2c1.4,1.4,3.3,2.5,5.8,3.2c2.4,0.7,4.7,1,6.9,1c4.3,0,7.7-1.3,10.3-3.9
			c2.6-2.6,3.9-6,3.9-10c0-4-1.3-7.3-3.8-9.6l-14.1-13c-1.7-1.6-2.6-3.5-2.6-5.7c0-2.2,0.7-4,2.2-5.5c1.5-1.5,3.3-2.2,5.5-2.2
			c2.2,0,4,0.6,5.4,1.8c1.4,1.2,2,2.7,2,4.7v0.8h2.3v-10.4h-3.5c-2.3-0.5-4.4-0.7-6.2-0.7c-4.1,0-7.4,1.3-9.8,3.9
			c-2.4,2.6-3.6,5.7-3.6,9.2c0,3.6,1.4,6.7,4.1,9.2l13.7,12.7c1.7,1.6,2.5,3.6,2.5,6.1c0,2.5-0.9,4.6-2.6,6.2
			c-1.8,1.7-4,2.5-6.8,2.5c-2.7,0-4.8-0.9-6.4-2.6c-1.6-1.8-2.4-4-2.4-6.7c0-0.5,0-1,0.1-1.5l0.1-0.9h-2.1l-0.2,0.6
			c-0.7,2.2-1.1,4.4-1.1,6.3c0,2,0.1,3.3,0.2,4L211.6,334.5z"/>
		<path class="st0" d="M294,333.4c0.1,0.6-0.1,1.1-0.5,1.5c-0.4,0.5-0.9,0.7-1.5,0.7h-1.9v2.3h17.1v-2.3h-2c-1.1,0-2.1-0.3-2.9-1
			c-0.8-0.7-1.3-1.6-1.5-2.8l-5.6-46.5h-1.9l-19,42l-19.4-42h-2l-5.4,46.5c-0.2,1.2-0.6,2.1-1.5,2.8c-0.8,0.7-1.8,1-2.9,1h-2v2.3
			h15.5v-2.3h-1.9c-0.6,0-1-0.2-1.5-0.7c-0.4-0.5-0.6-0.9-0.5-1.5l2.8-31.9l17.2,37.4h1.9l0.1-0.7c0.3-1.9,1.1-4.2,2.4-7.1
			l13.7-30.5L294,333.4z"/>
		<path class="st0" d="M325.8,316.7l7.8-19.9l7.4,19.9H325.8z M323.1,335.5h-1.5c-0.7,0-1.3-0.2-1.6-0.7c-0.4-0.5-0.6-0.9-0.6-1.3
			c0-0.5,0.1-0.9,0.2-1.4l4.6-11.7h18.2l4.4,11.6c0.2,0.5,0.2,1,0.2,1.5c0,0.4-0.2,0.8-0.6,1.3c-0.3,0.4-0.9,0.7-1.6,0.7h-1.5v2.3
			h17.7v-2.3h-1.4c-1.1,0-2.1-0.3-3.1-1c-1-0.7-1.8-1.7-2.4-3l-19.2-45.8l-0.2-0.5h-2v0.8c0,0.5-0.3,2.1-2.6,7l-16.1,38.4
			c-0.7,1.3-1.5,2.4-2.5,3c-1,0.7-2,1-3,1h-1.5v2.3h16V335.5z"/>
		<path class="st0" d="M113.8,334.5c-0.7,0.7-1.5,1-2.5,1h-2.2v2.3h16.4v-2.3h-2.2c-0.6,0-1.2-0.2-1.7-0.5c-1.2-0.7-1.8-1.7-1.8-3
			v-33.6l36.3,40.2c0.5,0.6,1,1.1,1.6,1.6c2.7,2.7,8.5,7.9,13.7,8.5c7,0.8,10.8-0.8,10.8-0.8l-0.3-0.7c-4.7,0.3-8.5-0.8-11.7-3.1
			c-0.9-0.6-2.2-1.9-3.6-3.4c-0.2-0.2-0.5-0.4-0.7-0.6c-0.5-0.4-7.1-8-7.1-8l0-40c0-1,0.4-1.8,1.1-2.5c0.7-0.7,1.5-1,2.5-1h2.1v-2.3
			h-16.3v2.3h2.2c1,0,1.8,0.3,2.5,1c0.7,0.7,1.1,1.5,1.1,2.5v34.5l-34.6-38.4c-1.6-1.8-2.9-3.2-4.1-4.3c0,0-4.5-4.5-10.8-6.4
			c-6.3-1.9-11.1,1.3-11.1,1.3l0.3,0.7c0,0,4.8-0.9,7.6,0.4c2.7,1.3,5.6,3.5,8.5,6.6c0.1,0.1,0.2,0.2,0.2,0.3
			c0.8,0.9,1.4,1.7,1.9,2.2c0.5,0.6,1.1,1.3,1.8,2.2c0.6,0.7,1,1.3,1.3,1.7v39C114.9,333,114.5,333.8,113.8,334.5"/>
		<path class="st0" d="M20.1,446.7c1.1,0,2.1-0.4,2.9-1.2c0.8-0.8,1.2-1.7,1.2-2.9c0-1.1-0.4-2.1-1.2-2.9c-0.8-0.8-1.7-1.2-2.9-1.2
			c-1.1,0-2.1,0.4-2.9,1.2c-0.8,0.8-1.2,1.7-1.2,2.9c0,1.1,0.4,2.1,1.2,2.9C18,446.3,19,446.7,20.1,446.7z"/>
		<path class="st0" d="M161.7,446.7c1.1,0,2.1-0.4,2.9-1.2c0.8-0.8,1.2-1.7,1.2-2.9c0-1.1-0.4-2.1-1.2-2.9c-0.8-0.8-1.7-1.2-2.9-1.2
			c-1.1,0-2.1,0.4-2.9,1.2c-0.8,0.8-1.2,1.7-1.2,2.9c0,1.1,0.4,2.1,1.2,2.9C159.6,446.3,160.6,446.7,161.7,446.7z"/>
		<path class="st0" d="M171.1,446.7c1.1,0,2.1-0.4,2.9-1.2c0.8-0.8,1.2-1.7,1.2-2.9c0-1.1-0.4-2.1-1.2-2.9c-0.8-0.8-1.7-1.2-2.9-1.2
			c-1.1,0-2.1,0.4-2.9,1.2c-0.8,0.8-1.2,1.7-1.2,2.9c0,1.1,0.4,2.1,1.2,2.9C169,446.3,169.9,446.7,171.1,446.7z"/>
		<path class="st0" d="M39.7,491.9c-1.1,0-2.1,0.4-2.9,1.2c-0.8,0.8-1.2,1.7-1.2,2.9c0,1.1,0.4,2.1,1.2,2.9c0.8,0.8,1.7,1.2,2.9,1.2
			s2.1-0.4,2.9-1.2c0.8-0.8,1.2-1.7,1.2-2.9c0-1.1-0.4-2.1-1.2-2.9C41.8,492.3,40.8,491.9,39.7,491.9z"/>
		<path class="st0" d="M49,491.9c-1.1,0-2.1,0.4-2.9,1.2c-0.8,0.8-1.2,1.7-1.2,2.9s0.4,2.1,1.2,2.9c0.8,0.8,1.7,1.2,2.9,1.2
			c1.1,0,2.1-0.4,2.9-1.2c0.8-0.8,1.2-1.7,1.2-2.9c0-1.1-0.4-2.1-1.2-2.9C51.1,492.3,50.2,491.9,49,491.9z"/>
		<path class="st0" d="M40.9,449.8v2.7h1.9c1,0,1.8,0.3,2.5,1c0.6,0.6,1,1.3,1,2.2l0,19.5c-0.4,5.6-5.1,10-10.8,10c0,0-5.3,0-5.3,0
			c-2.5,0-4.8-0.9-6.6-2.3l0-33.1H11.5v2.7h1.9c1,0,1.8,0.3,2.5,1c0.6,0.6,1,1.3,1,2.2c0,0,0,5.8,0,24.9c0,20.1-12.6,14.5-12.6,14.5
			l-1.1,3c1.4,0.4,9,3.6,14.9-1.6c2.9-2.5,4.3-5.6,4.9-8c2.2,1,4.6,1.6,7.2,1.6h5.3c9.4,0,17-7.4,17.4-16.6v-23.7H40.9z"/>
		<path class="st0" d="M220.2,437.1v2.7h1.9c1,0,1.8,0.3,2.5,1c0.6,0.6,1,1.3,1,2.2v32.2c-0.4,5.6-5.1,10-10.8,10
			c-5.7,0-10.4-4.4-10.8-10l0-38.1H192v2.7h1.9c1,0,1.8,0.3,2.5,1c0.6,0.6,1,1.3,1,2.2v32.2c-0.4,5.6-5.2,10-10.9,10
			c0,0-3.7,0-3.7,0c-6,0-10.8-4.8-10.8-10.8l0-24.6h-12.1v2.7h1.9c1,0,1.8,0.3,2.5,1c0.6,0.6,1,1.3,1,2.2v19.5l0,0
			c-0.4,5.6-5.1,10-10.8,10h-14.8c0.4-0.4,1-0.9,1.7-1.6c3.8-4,5.7-8.8,5.7-14.4l0-0.1l0-0.2c0-3.8-1-7.3-2.9-10.4
			c-1.9-3.2-4.6-5.7-8.1-7.5c-3.4-1.8-7.3-2.7-11.6-2.7c-6.4,0-11.4,1.9-15,5.6c-0.6,0.6-1.2,1.3-1.7,2v-18.8H95.8v2.7h1.9
			c1,0,1.8,0.3,2.5,1c0.6,0.6,1,1.3,1,2.2v42.2H89.8c-5.7,0-10.4-4.4-10.8-10l0-25.4H66.9v2.7h1.9c1,0,1.8,0.3,2.5,1
			c0.6,0.6,1,1.3,1,2.2c0,0,0,6.4,0,26.5s-12.6,12.9-12.6,12.9l-1.1,3c1.4,0.4,9,3.6,14.9-1.6c3.9-3.4,5-7.6,5.3-10.2
			c3,2.4,6.8,3.8,10.9,3.8h64.7c5.8,0,10.9-2.8,14.1-7.2c3.1,4.3,8.2,7.1,14,7.2l4,0c5.8,0,10.9-2.9,14-7.2
			c3.2,4.4,8.3,7.3,14.2,7.3c9.4,0,17-7.4,17.4-16.6v-36.4H220.2z M134,483.2c-2.3,1.4-4.7,2-7,2l-1.9,0l0,0H108v-16.4
			c0.2-2.9,1.1-7.7,4.6-11.2c3.1-3.1,7-4.6,11.6-4.6c4.7,0,8.6,1.5,11.5,4.6c2.9,3.1,4.4,6.9,4.4,11.5c0,3-0.6,5.7-1.7,8
			C137.4,479.2,136,481.9,134,483.2z"/>
		<path class="st0" d="M447.1,446.7c1.1,0,2.1-0.4,2.9-1.2c0.8-0.8,1.2-1.7,1.2-2.9c0-1.1-0.4-2.1-1.2-2.9c-0.8-0.8-1.7-1.2-2.9-1.2
			c-1.1,0-2.1,0.4-2.9,1.2c-0.8,0.8-1.2,1.7-1.2,2.9c0,1.1,0.4,2.1,1.2,2.9C445,446.3,446,446.7,447.1,446.7z"/>
		<path class="st0" d="M439,449.8v2.7h1.9c1,0,1.8,0.3,2.5,1c0.6,0.6,1,1.3,1,2.2l0,19.5c-0.4,5.6-5.1,10-10.8,10c0,0-5.3,0-5.3,0
			c-6,0-10.8-4.8-10.8-10.8l0-24.6h-12.1v2.7h1.9c1,0,1.8,0.3,2.5,1c0.6,0.6,1,1.3,1,2.2v19.5c-0.4,5.6-5.1,10-10.8,10
			c-5.7,0-10.4-4.4-10.8-10l0-25.4h0h-12.1h0v2.7h0h1.9c1,0,1.8,0.3,2.5,1c0.6,0.6,1,1.3,1,2.2l0,19.5c-0.4,5.6-5.1,10-10.8,10
			c-5.7,0-10.4-4.4-10.8-10l0-25.4H349v2.7h1.9c1,0,1.8,0.3,2.5,1c0.6,0.6,1,1.3,1,2.2v19.5c-0.4,5.6-5.1,10-10.8,10
			c0,0-5.3,0-5.3,0c-3.4,0-6.3-1.5-8.3-3.9c1.8-2.8,3.1-6.5,3.3-11.4c0.2-6.3-3.4-20.5-23-21.3c-6.5-0.3-22.3,3.7-22.9,21
			c-0.2,5.4,1.2,9.4,3.3,12.4c-2,2-4.7,3.3-7.8,3.3c0,0-5.3,0-5.3,0c-5.7,0-10.3-4.4-10.7-10v-38.1h-12.1v2.7h1.9c1,0,1.8,0.3,2.5,1
			c0.6,0.6,1,1.3,1,2.2l0,30.5c0.4,9.3,8.1,16.6,17.4,16.6h5.3c4.4,0,8.4-1.7,11.5-4.4c4.8,3.6,10.6,4.4,12.8,4.4
			c2.9,0,5.1-0.5,7.2-1.6c4.5-2.4,6.8-8.7,6.8-8.7l-2-1.3c0,0-3.7,6.8-11.6,6.8c-4.1,0-12.4-1.8-13-15.4c-0.2-5,2.5-16.7,15.7-16.7
			c13.2,0,15.6,11.4,15.7,17.4c0.3,11.4-6.6,16-6.6,16l2,1.9c1.6-0.8,3.3-1.8,5-3.2c3.1,2.9,7.3,4.7,11.9,4.7h5.3
			c5.8,0,11-2.8,14.1-7.2c3.2,4.4,8.3,7.2,14.1,7.2c5.8,0,10.9-2.8,14.1-7.2c3.2,4.4,8.3,7.2,14.1,7.2c5.8,0,10.9-2.8,14.1-7.2
			c3.2,4.4,8.3,7.2,14.1,7.2h5.3c9.4,0,17-7.4,17.4-16.6v-23.7H439z"/>
	</g>
	<g>
		<path class="st1" d="M298.2,39.1c0,0.4,0,0.7,0,1l0,0.3c0,1.8-0.4,4.9-1.7,8.5h0c-0.1,0.4,0,0.8,0.3,1.1c0.3,0.3,0.8,0.4,1.2,0.2
			c3.5-1.2,6.7-1.7,8.4-1.7l0.3,0c0.3,0,0.6,0,1,0c0.3,0,0.6-0.1,0.8-0.3c0.2-0.1,0.2-0.3,0.3-0.5c1-3.8,1.4-8.2,0-9.6
			c-1.5-1.5-5.9-1-9.7,0c-0.2,0-0.4,0.1-0.5,0.3C298.3,38.6,298.2,38.8,298.2,39.1"/>
		<path class="st1" d="M334.3,112.9c-0.2,0.3-0.5,0.5-0.7,0.7l-0.2,0.2c-1.2,1.3-3.8,3.2-7.2,4.8l0,0c-0.3,0.2-0.6,0.5-0.6,1
			c0,0.4,0.3,0.8,0.6,1c3.3,1.6,5.9,3.5,7.1,4.8l0.2,0.2c0.2,0.2,0.4,0.4,0.7,0.7c0.2,0.2,0.5,0.3,0.8,0.3c0.2,0,0.4-0.1,0.6-0.2h0
			c3.4-2,6.8-4.8,6.8-6.8c0-2.1-3.4-4.9-6.8-6.9h0c-0.2-0.1-0.4-0.2-0.6-0.2C334.8,112.6,334.5,112.7,334.3,112.9"/>
		<path class="st1" d="M156.2,200.1c0-0.4,0-0.7,0-1l0-0.3c0-1.8,0.4-4.9,1.7-8.5h0c0.1-0.4,0-0.8-0.3-1.1c-0.3-0.3-0.8-0.4-1.2-0.3
			c-3.5,1.2-6.7,1.7-8.4,1.7l-0.3,0c-0.3,0-0.6,0-1,0c-0.3,0-0.6,0.1-0.8,0.3c-0.2,0.2-0.2,0.3-0.3,0.5c-1,3.8-1.4,8.2,0,9.6
			c1.5,1.5,5.9,1,9.7,0c0.2,0,0.4-0.1,0.5-0.3C156.1,200.6,156.2,200.4,156.2,200.1"/>
		<path class="st1" d="M120.1,126.3c0.2-0.3,0.5-0.5,0.7-0.7l0.2-0.2c1.2-1.3,3.8-3.2,7.2-4.8l0,0c0.3-0.2,0.6-0.5,0.6-1
			c0-0.4-0.3-0.8-0.6-1v0c-3.3-1.6-5.9-3.5-7.1-4.8l-0.2-0.2c-0.2-0.2-0.4-0.4-0.7-0.7c-0.2-0.2-0.5-0.3-0.8-0.3
			c-0.2,0-0.4,0.1-0.6,0.2c-3.4,2-6.8,4.8-6.8,6.8c0,2.1,3.4,4.9,6.8,6.9c0.2,0.1,0.4,0.2,0.6,0.2
			C119.6,126.6,119.9,126.5,120.1,126.3"/>
		<path class="st1" d="M307.7,190.6c-0.4,0-0.7,0-1,0l-0.3,0c-1.8,0-4.9-0.4-8.5-1.7v0c-0.4-0.1-0.8,0-1.1,0.3
			c-0.3,0.3-0.4,0.8-0.3,1.2c1.2,3.5,1.7,6.7,1.7,8.4l0,0.3c0,0.3,0,0.6,0,1c0,0.3,0.1,0.6,0.3,0.8c0.2,0.2,0.3,0.2,0.5,0.3
			c3.8,1,8.2,1.4,9.6,0c1.5-1.5,1-5.9,0-9.7c0-0.2-0.1-0.4-0.3-0.5C308.2,190.7,308,190.6,307.7,190.6"/>
		<path class="st1" d="M233.9,226.7c-0.3-0.2-0.5-0.5-0.7-0.7l-0.2-0.2c-1.3-1.2-3.2-3.8-4.8-7.2l0,0c-0.2-0.3-0.5-0.6-1-0.6
			c-0.4,0-0.8,0.3-1,0.6c-1.6,3.3-3.5,5.9-4.8,7.1l-0.2,0.2c-0.2,0.2-0.4,0.4-0.7,0.7c-0.2,0.2-0.3,0.5-0.3,0.8
			c0,0.2,0.1,0.4,0.2,0.6c2,3.4,4.8,6.8,6.8,6.8c2.1,0,4.9-3.4,6.9-6.8c0.1-0.2,0.2-0.4,0.2-0.6
			C234.2,227.2,234.1,226.9,233.9,226.7"/>
		<path class="st1" d="M146.7,48.6c0.4,0,0.7,0,1,0l0.3,0c1.8,0,4.9,0.4,8.5,1.7v0c0.4,0.1,0.8,0,1.1-0.3c0.3-0.3,0.4-0.8,0.3-1.2
			c-1.2-3.5-1.7-6.7-1.7-8.4l0-0.3c0-0.3,0-0.6,0-1c0-0.3-0.1-0.6-0.3-0.8c-0.2-0.2-0.3-0.2-0.5-0.3c-3.8-1-8.2-1.4-9.6,0
			c-1.5,1.5-1,5.9,0,9.7c0,0.2,0.1,0.4,0.3,0.5C146.2,48.5,146.5,48.6,146.7,48.6"/>
		<path class="st0" d="M279.2,119.6c0-28.7-23.3-52-52-52s-52,23.3-52,52s23.3,52,52,52S279.2,148.3,279.2,119.6z M227.2,70.6
			c27,0,49,22,49,49c0,11.2-3.8,21.5-10.1,29.7c-1,0-1.9-0.1-2.7-0.2c-0.8-0.1-1.6-0.4-2.5-0.7c-0.9-0.4-1.7-0.7-2.3-1.1
			c-0.7-0.4-1.4-0.9-2.2-1.5c-0.8-0.6-1.5-1.1-2-1.6c-0.6-0.5-1.2-1.1-1.8-1.8c-0.7-0.7-1.2-1.2-1.6-1.7c-0.4-0.4-0.9-1-1.4-1.6
			c-0.5-0.6-0.9-1.1-1.2-1.3l-0.9-0.9v-36.2c0-0.9,0.4-1.7,1.1-2.4c0.7-0.7,1.4-1,2.4-1h1.8v-1.7h-20.5v1.7h1.7c0.9,0,1.7,0.3,2.4,1
			c0.7,0.7,1,1.4,1.1,2.4V126l-27.7-29.4c-6.6-7-13-10.3-18.9-9.7C199.7,76.9,212.8,70.6,227.2,70.6z M227.2,168.6
			c-27,0-49-22-49-49c0-11.1,3.7-21.3,10-29.6c1,0,2,0.1,3.1,0.2c1,0.2,2.4,0.7,4.1,1.7c0.7,0.4,1.5,0.9,2.3,1.6
			c0.8,0.6,1.8,1.4,2.8,2.4c1,0.9,2.6,2.5,4.6,4.8v35.7c0,1-0.3,1.8-1,2.4c-0.7,0.7-1.5,1-2.4,1H200v1.7h20.5v-1.7h-1.8
			c-0.9,0-1.7-0.3-2.4-1c-0.7-0.6-1-1.4-1-2.3v-24.8l29.4,31.2c5.9,6.3,11.8,9.5,17.5,9.5c0.5,0,0.9,0,1.4-0.1
			C254.7,162.3,241.7,168.6,227.2,168.6z"/>
		<g>
			<path class="st0" d="M279.2,119.6c0-28.7-23.3-52-52-52c-28.7,0-52,23.3-52,52s23.3,52,52,52
				C255.9,171.6,279.2,148.3,279.2,119.6z M227.2,70.6c27,0,49,22,49,49c0,11.2-3.8,21.5-10.1,29.7c-1,0-1.9-0.1-2.7-0.2
				c-0.8-0.1-1.6-0.4-2.5-0.7c-0.9-0.4-1.7-0.7-2.3-1.1c-0.7-0.4-1.4-0.9-2.2-1.5c-0.8-0.6-1.5-1.1-2-1.6c-0.6-0.5-1.2-1.1-1.8-1.8
				c-0.7-0.7-1.2-1.2-1.6-1.7c-0.4-0.4-0.9-1-1.4-1.6c-0.5-0.6-0.9-1.1-1.2-1.3l-0.9-0.9v-36.2c0-0.9,0.4-1.7,1.1-2.4
				c0.7-0.7,1.4-1,2.4-1h1.8v-1.7h-20.5v1.7h1.7c0.9,0,1.7,0.3,2.4,1c0.7,0.7,1,1.4,1.1,2.4V126l-27.7-29.4c-6.6-7-13-10.3-18.9-9.7
				C199.7,76.9,212.8,70.6,227.2,70.6z M227.2,168.6c-27,0-49-22-49-49c0-11.1,3.7-21.3,10-29.6c1,0,2,0.1,3.1,0.2
				c1,0.2,2.4,0.7,4.1,1.7c0.7,0.4,1.5,0.9,2.3,1.6c0.8,0.6,1.8,1.4,2.8,2.4c1,0.9,2.6,2.5,4.6,4.8v35.7c0,1-0.3,1.8-1,2.4
				c-0.7,0.7-1.5,1-2.4,1H200v1.7h20.5v-1.7h-1.8c-0.9,0-1.7-0.3-2.4-1c-0.7-0.6-1-1.4-1-2.3v-24.8l29.4,31.2
				c5.9,6.3,11.8,9.5,17.5,9.5c0.5,0,0.9,0,1.4-0.1C254.7,162.3,241.7,168.6,227.2,168.6z"/>
			<path class="st0" d="M337.7,108.9c2.5-3.6,5-8.9,5-16.4c0-4.7-1.3-8.3-3.9-10.7c-3.6-3.3-8.4-2.9-8.4-2.9
				c-4.2,0.1-7.6,3.5-7.6,7.8c0,1.6,0.5,3,1.2,4.2c3.9,4.9,8.5-1.2,8.6-1.3c-0.2,0-1.1,0.6-2.1,0.6c-1.9,0-3.5-1.5-3.4-3.4
				c0-4.4,5.9-4.1,8.7-1.6c1.7,1.5,2.5,4.1,2.5,7.5c0,3.6-0.6,6.5-1.6,9c-1.7,4.1-5.5,7.7-5.5,7.7s-3.4,3.9-14.2,6.3
				c0,0-3,0.6-4.6,0.9c-11,1.5-27.7,1.1-27.7,1.1c2.5-4.1,8.6-13.1,17.4-21.5c1.9-2,4.3-3.5,7.1-3.5c4.7,0,8.5,3.8,8.5,8.5
				c0,2.3-0.9,4.4-2.5,6c5.7,0.5,6.8-4.1,6.8-6c0-7.1-5.8-12.8-12.9-12.9c-4.9,0-8.2,2.7-8.2,2.7l-19.5,16.7c-1.4-6.5-4-12.6-7.5-18
				l25.6-1.9c0,0,4.3-0.4,7.7-3.8c5-5,5-13.1,0-18.2c-1.4-1.4-5.4-3.8-9.1,0.6c2.3,0,4.4,0.9,6,2.5c3.3,3.3,3.3,8.7,0,12
				c-1.9,1.9-4.7,2.7-7.4,2.6c-12.2,0.4-22.9-1.7-27.5-2.9c0,0,11.5-12.1,20.3-18.8c1.3-1,3.9-2.7,3.9-2.7
				c9.3-5.9,14.5-5.6,14.5-5.6s5.3-0.1,9.4,1.6c2.5,1,5,2.7,7.5,5.2c2.4,2.4,3.7,4.8,3.5,7.1c-0.2,3.7-4.2,8.1-7.3,5
				c-1.4-1.3-1.3-3.5,0-4.9c0.7-0.7,1.7-1,1.9-1.1c-0.2,0-7.8-1-7.1,5.2c0.3,1.4,1,2.8,2.1,3.9c3,3,7.8,3,10.9,0.1
				c0,0,3.7-3.1,3.9-8c0.1-3.5-1.5-7-4.8-10.4c-5.3-5.3-10.8-7.3-15.1-8c2.9-10.4-1.1-14-1.1-14.1c0,0-3.6-4.1-14.1-1.1
				c-0.8-4.3-2.8-9.9-8-15.1c-3.3-3.3-6.8-4.9-10.4-4.8c-4.8,0.2-8,3.9-8,3.9c-2.9,3-2.9,7.9,0.1,10.9c1.1,1.1,2.4,1.8,3.9,2.1
				c6.2,0.7,5.2-6.9,5.2-7.1c-0.1,0.2-0.4,1.2-1.1,1.9c-1.4,1.3-3.5,1.4-4.9,0c-3.1-3.2,1.3-7.1,5-7.3c2.3-0.1,4.6,1.1,7.1,3.5
				c2.5,2.5,4.2,5.1,5.2,7.5c1.7,4.1,1.6,9.4,1.6,9.4s0.3,5.1-5.6,14.5c0,0-1.6,2.6-2.7,3.9c-6.7,8.8-18.8,20.3-18.8,20.3
				c-1.1-4.6-3.2-15.3-2.9-27.5c-0.1-2.8,0.6-5.5,2.6-7.4c3.3-3.3,8.7-3.3,12,0c1.6,1.6,2.5,3.7,2.5,6c4.4-3.7,2-7.7,0.6-9.1
				c-5-5-13.1-5-18.2,0c-3.4,3.4-3.8,7.7-3.8,7.7l-1.9,25.6c-5.4-3.5-11.5-6.1-18-7.5l16.7-19.5c0,0,2.8-3.3,2.7-8.2
				c0-7.1-5.8-12.8-12.9-12.9c-2,0-6.5,1.1-6,6.8c1.6-1.6,3.7-2.5,6-2.5c4.7,0,8.5,3.8,8.5,8.5c0,2.7-1.4,5.2-3.5,7.1
				c-8.3,8.9-17.4,14.9-21.5,17.4c0,0-0.4-16.7,1.1-27.7c0.2-1.7,0.9-4.6,0.9-4.6c2.4-10.8,6.3-14.2,6.3-14.2s3.6-3.8,7.7-5.5
				c2.4-1,5.4-1.6,9-1.6c3.4,0,6,0.8,7.5,2.5c2.5,2.8,2.8,8.7-1.6,8.7c-1.9,0-3.4-1.5-3.4-3.4c0-1,0.5-1.9,0.6-2.1
				c-0.1,0.1-6.2,4.8-1.3,8.6c1.2,0.8,2.7,1.2,4.2,1.2c4.2,0,7.7-3.4,7.8-7.6c0,0,0.4-4.8-2.9-8.4c-2.4-2.6-6-3.9-10.7-3.9
				c-7.4,0-12.7,2.5-16.4,5C232.7-0.3,227.2,0,227.2,0c0,0-5.5-0.3-10.7,9.1c-3.6-2.5-8.9-5-16.4-5c-4.7,0-8.3,1.3-10.7,3.9
				c-3.3,3.6-2.9,8.4-2.9,8.4c0.1,4.2,3.5,7.6,7.8,7.6c1.6,0,3-0.5,4.2-1.2c4.9-3.9-1.2-8.5-1.3-8.6c0,0.2,0.6,1.1,0.6,2.1
				c0,1.9-1.5,3.5-3.4,3.4c-4.4,0-4.1-5.9-1.6-8.7c1.5-1.7,4.1-2.5,7.5-2.5c3.6,0,6.5,0.6,9,1.6c4.1,1.7,7.7,5.5,7.7,5.5
				s3.9,3.4,6.3,14.2c0,0,0.6,3,0.9,4.6c1.5,11,1.1,27.7,1.1,27.7c-4.1-2.5-13.1-8.6-21.5-17.4c-2-1.9-3.5-4.3-3.5-7.1
				c0-4.7,3.8-8.5,8.5-8.5c2.3,0,4.4,0.9,6,2.5c0.5-5.7-4.1-6.8-6-6.8c-7.1,0-12.8,5.8-12.9,12.9c0,4.9,2.7,8.2,2.7,8.2l16.7,19.5
				c-6.5,1.4-12.6,4-18,7.5l-1.9-25.6c0,0-0.4-4.3-3.8-7.7c-5-5-13.1-5-18.2,0c-1.4,1.4-3.8,5.4,0.6,9.1c0-2.3,0.9-4.4,2.5-6
				c3.3-3.3,8.7-3.3,12,0c1.9,1.9,2.7,4.7,2.6,7.4c0.4,12.2-1.7,22.9-2.9,27.5c0,0-12.1-11.5-18.8-20.3c-1-1.3-2.7-3.9-2.7-3.9
				c-5.9-9.3-5.6-14.5-5.6-14.5s-0.1-5.3,1.6-9.4c1-2.5,2.7-5,5.2-7.5c2.4-2.4,4.8-3.7,7.1-3.5c3.7,0.2,8.1,4.2,5,7.3
				c-1.3,1.4-3.5,1.3-4.9,0c-0.7-0.7-1-1.7-1.1-1.9c0,0.2-1,7.8,5.2,7.1c1.4-0.3,2.8-1,3.9-2.1c3-3,3-7.8,0.1-10.9
				c0,0-3.1-3.7-8-3.9c-3.5-0.1-7,1.5-10.4,4.8c-5.3,5.3-7.3,10.8-8,15.1c-10.4-2.9-14,1.1-14.1,1.1c0,0-4.1,3.6-1.1,14.1
				c-4.3,0.8-9.9,2.8-15.1,8c-3.3,3.3-4.9,6.8-4.8,10.4c0.2,4.8,3.9,8,3.9,8c3,2.9,7.9,2.9,10.9-0.1c1.1-1.1,1.8-2.4,2.1-3.9
				c0.7-6.2-6.9-5.2-7.1-5.2c0.2,0.1,1.2,0.4,1.9,1.1c1.3,1.4,1.4,3.5,0,4.9c-3.2,3.1-7.1-1.3-7.3-5c-0.1-2.3,1.1-4.6,3.5-7.1
				c2.5-2.5,5.1-4.2,7.5-5.2c4.1-1.7,9.4-1.6,9.4-1.6s5.1-0.3,14.5,5.6c0,0,2.6,1.6,3.9,2.7c8.8,6.7,20.3,18.8,20.3,18.8
				c-4.6,1.1-15.3,3.2-27.5,2.9c-2.8,0.1-5.5-0.6-7.4-2.6c-3.3-3.3-3.3-8.7,0-12c1.6-1.6,3.7-2.5,6-2.5c-3.7-4.4-7.7-2-9.1-0.6
				c-5,5-5,13.1,0,18.2c3.4,3.4,7.7,3.8,7.7,3.8l25.6,1.9c-3.5,5.4-6.1,11.5-7.5,18l-19.5-16.7c0,0-3.3-2.8-8.2-2.7
				c-7.1,0-12.8,5.8-12.9,12.9c0,2,1.1,6.5,6.8,6c-1.6-1.6-2.5-3.7-2.5-6c0-4.7,3.8-8.5,8.5-8.5c2.7,0,5.2,1.4,7.1,3.5
				c8.9,8.3,14.9,17.4,17.4,21.5c0,0-16.7,0.4-27.7-1.1c-1.7-0.2-4.6-0.9-4.6-0.9c-10.8-2.4-14.2-6.3-14.2-6.3s-3.8-3.6-5.5-7.7
				c-1-2.4-1.6-5.4-1.6-9c0-3.4,0.8-6,2.5-7.5c2.8-2.5,8.7-2.8,8.7,1.6c0,1.9-1.5,3.4-3.4,3.4c-1,0-1.9-0.5-2.1-0.6
				c0.1,0.1,4.8,6.2,8.6,1.3c0.8-1.2,1.2-2.7,1.2-4.2c0-4.2-3.4-7.7-7.6-7.8c0,0-4.8-0.4-8.4,2.9c-2.6,2.4-3.9,6-3.9,10.7
				c0,7.4,2.5,12.7,5,16.4c-9.4,5.3-9.1,10.7-9.1,10.7c0,0-0.3,5.5,9.1,10.7c-2.5,3.6-5,8.9-5,16.4c0,4.7,1.3,8.3,3.9,10.7
				c3.6,3.3,8.4,2.9,8.4,2.9c4.2-0.1,7.6-3.5,7.6-7.8c0-1.6-0.5-3-1.2-4.2c-3.9-4.9-8.5,1.2-8.6,1.3c0.2,0,1.1-0.6,2.1-0.6
				c1.9,0,3.5,1.5,3.4,3.4c0,4.4-5.9,4.1-8.7,1.6c-1.7-1.5-2.5-4.1-2.5-7.5c0-3.6,0.6-6.5,1.6-9c1.7-4.1,5.5-7.7,5.5-7.7
				s3.4-3.9,14.2-6.3c0,0,3-0.6,4.6-0.9c11-1.5,27.7-1.1,27.7-1.1c-2.5,4.1-8.6,13.1-17.4,21.5c-1.9,2-4.3,3.5-7.1,3.5
				c-4.7,0-8.5-3.8-8.5-8.5c0-2.3,0.9-4.4,2.5-6c-5.7-0.5-6.8,4.1-6.8,6c0,7.1,5.8,12.8,12.9,12.9c4.9,0,8.2-2.7,8.2-2.7l19.5-16.7
				c1.4,6.5,4,12.6,7.5,18l-25.6,1.9c0,0-4.3,0.4-7.7,3.8c-5,5-5,13.1,0,18.2c1.4,1.4,5.4,3.8,9.1-0.6c-2.3,0-4.4-0.9-6-2.5
				c-3.3-3.3-3.3-8.7,0-12c1.9-1.9,4.7-2.7,7.4-2.6c12.2-0.4,22.9,1.7,27.5,2.9c0,0-11.5,12.1-20.3,18.8c-1.3,1-3.9,2.7-3.9,2.7
				c-9.3,5.9-14.5,5.6-14.5,5.6s-5.3,0.1-9.4-1.6c-2.5-1-5-2.7-7.5-5.2c-2.4-2.4-3.7-4.8-3.5-7.1c0.2-3.7,4.2-8.1,7.3-5
				c1.4,1.3,1.3,3.5,0,4.9c-0.7,0.7-1.7,1-1.9,1.1c0.2,0,7.8,1,7.1-5.2c-0.3-1.4-1-2.8-2.1-3.9c-3-3-7.8-3-10.9-0.1
				c0,0-3.7,3.1-3.9,8c-0.1,3.5,1.5,7,4.8,10.4c5.3,5.3,10.8,7.3,15.1,8c-2.9,10.4,1.1,14,1.1,14.1c0,0,3.6,4.1,14.1,1.1
				c0.8,4.3,2.8,9.9,8,15.1c3.3,3.3,6.8,4.9,10.4,4.8c4.8-0.2,8-3.9,8-3.9c2.9-3,2.9-7.9-0.1-10.9c-1.1-1.1-2.4-1.8-3.9-2.1
				c-6.2-0.7-5.2,6.9-5.2,7.1c0.1-0.2,0.4-1.2,1.1-1.9c1.4-1.3,3.5-1.4,4.9,0c3.1,3.2-1.3,7.1-5,7.3c-2.3,0.1-4.6-1.1-7.1-3.5
				c-2.5-2.5-4.2-5.1-5.2-7.5c-1.7-4.1-1.6-9.4-1.6-9.4s-0.3-5.1,5.6-14.5c0,0,1.6-2.6,2.7-3.9c6.7-8.8,18.8-20.3,18.8-20.3
				c1.1,4.6,3.2,15.3,2.9,27.5c0.1,2.8-0.6,5.5-2.6,7.4c-3.3,3.3-8.7,3.3-12,0c-1.6-1.6-2.5-3.7-2.5-6c-4.4,3.7-2,7.7-0.6,9.1
				c5,5,13.1,5,18.2,0c3.4-3.4,3.8-7.7,3.8-7.7l1.9-25.6c5.4,3.5,11.5,6.1,18,7.5l-16.7,19.5c0,0-2.8,3.3-2.7,8.2
				c0,7.1,5.8,12.8,12.9,12.9c2,0,6.5-1.1,6-6.8c-1.6,1.6-3.7,2.5-6,2.5c-4.7,0-8.5-3.8-8.5-8.5c0-2.7,1.4-5.2,3.5-7.1
				c8.3-8.9,17.4-14.9,21.5-17.4c0,0,0.4,16.7-1.1,27.7c-0.2,1.7-0.9,4.6-0.9,4.6c-2.4,10.8-6.3,14.2-6.3,14.2s-3.6,3.8-7.7,5.5
				c-2.4,1-5.4,1.6-9,1.6c-3.4,0-6-0.8-7.5-2.5c-2.5-2.8-2.8-8.7,1.6-8.7c1.9,0,3.4,1.5,3.4,3.4c0,1-0.5,1.9-0.6,2.1
				c0.1-0.1,6.2-4.8,1.3-8.6c-1.2-0.8-2.7-1.2-4.2-1.2c-4.2,0-7.7,3.4-7.8,7.6c0,0-0.4,4.8,2.9,8.4c2.4,2.6,6,3.9,10.7,3.9
				c7.4,0,12.7-2.5,16.4-5c5.3,9.4,10.7,9.1,10.7,9.1c0,0,5.5,0.3,10.7-9.1c3.6,2.5,8.9,5,16.4,5c4.7,0,8.3-1.3,10.7-3.9
				c3.3-3.6,2.9-8.4,2.9-8.4c-0.1-4.2-3.5-7.6-7.8-7.6c-1.6,0-3,0.5-4.2,1.2c-4.9,3.9,1.2,8.5,1.3,8.6c0-0.2-0.6-1.1-0.6-2.1
				c0-1.9,1.5-3.5,3.4-3.4c4.4,0,4.1,5.9,1.6,8.7c-1.5,1.7-4.1,2.5-7.5,2.5c-3.6,0-6.5-0.6-9-1.6c-4.1-1.7-7.7-5.5-7.7-5.5
				s-3.9-3.4-6.3-14.2c0,0-0.6-3-0.9-4.6c-1.5-11-1.1-27.7-1.1-27.7c4.1,2.5,13.1,8.6,21.5,17.4c2,1.9,3.5,4.3,3.5,7.1
				c0,4.7-3.8,8.5-8.5,8.5c-2.3,0-4.4-0.9-6-2.5c-0.5,5.7,4.1,6.8,6,6.8c7.1,0,12.8-5.8,12.9-12.9c0-4.9-2.7-8.2-2.7-8.2l-16.7-19.5
				c6.5-1.4,12.6-4,18-7.5l1.9,25.6c0,0,0.4,4.3,3.8,7.7c5,5,13.1,5,18.2,0c1.4-1.4,3.8-5.4-0.6-9.1c0,2.3-0.9,4.4-2.5,6
				c-3.3,3.3-8.7,3.3-12,0c-1.9-1.9-2.7-4.7-2.6-7.4c-0.4-12.2,1.7-22.9,2.9-27.5c0,0,12.1,11.5,18.8,20.3c1,1.3,2.7,3.9,2.7,3.9
				c5.9,9.3,5.6,14.5,5.6,14.5s0.1,5.3-1.6,9.4c-1,2.5-2.7,5-5.2,7.5c-2.4,2.4-4.8,3.7-7.1,3.5c-3.7-0.2-8.1-4.2-5-7.3
				c1.3-1.4,3.5-1.3,4.9,0c0.7,0.7,1,1.7,1.1,1.9c0-0.2,1-7.8-5.2-7.1c-1.4,0.3-2.8,1-3.9,2.1c-3,3-3,7.8-0.1,10.9
				c0,0,3.1,3.7,8,3.9c3.5,0.1,7-1.5,10.4-4.8c5.3-5.3,7.3-10.8,8-15.1c10.4,2.9,14-1.1,14.1-1.1c0,0,4.1-3.6,1.1-14.1
				c4.3-0.8,9.9-2.8,15.1-8c3.3-3.3,4.9-6.8,4.8-10.4c-0.2-4.8-3.9-8-3.9-8c-3-2.9-7.9-2.9-10.9,0.1c-1.1,1.1-1.8,2.4-2.1,3.9
				c-0.7,6.2,6.9,5.2,7.1,5.2c-0.2-0.1-1.2-0.4-1.9-1.1c-1.3-1.4-1.4-3.5,0-4.9c3.2-3.1,7.1,1.3,7.3,5c0.1,2.3-1.1,4.6-3.5,7.1
				c-2.5,2.5-5.1,4.2-7.5,5.2c-4.1,1.7-9.4,1.6-9.4,1.6s-5.1,0.3-14.5-5.6c0,0-2.6-1.6-3.9-2.7c-8.8-6.7-20.3-18.8-20.3-18.8
				c4.6-1.1,15.3-3.2,27.5-2.9c2.8-0.1,5.5,0.6,7.4,2.6c3.3,3.3,3.3,8.7,0,12c-1.6,1.6-3.7,2.5-6,2.5c3.7,4.4,7.7,2,9.1,0.6
				c5-5,5-13.1,0-18.2c-3.4-3.4-7.7-3.8-7.7-3.8l-25.6-1.9c3.5-5.4,6-11.5,7.5-18l19.5,16.7c0,0,3.3,2.8,8.2,2.7
				c7.1,0,12.8-5.8,12.9-12.9c0-2-1.1-6.5-6.8-6c1.6,1.6,2.5,3.7,2.5,6c0,4.7-3.8,8.5-8.5,8.5c-2.7,0-5.2-1.4-7.1-3.5
				c-8.9-8.3-14.9-17.4-17.4-21.5c0,0,16.7-0.4,27.7,1.1c1.7,0.2,4.6,0.9,4.6,0.9c10.8,2.4,14.2,6.3,14.2,6.3s3.8,3.6,5.5,7.7
				c1,2.4,1.6,5.4,1.6,9c0,3.4-0.8,6-2.5,7.5c-2.8,2.5-8.7,2.8-8.7-1.6c0-1.9,1.5-3.4,3.4-3.4c1,0,1.9,0.5,2.1,0.6
				c-0.1-0.1-4.8-6.2-8.6-1.3c-0.8,1.2-1.2,2.7-1.2,4.2c0,4.2,3.4,7.7,7.6,7.8c0,0,4.8,0.4,8.4-2.9c2.6-2.4,3.9-6,3.9-10.7
				c0-7.4-2.5-12.7-5-16.4c9.4-5.3,9.1-10.7,9.1-10.7C346.8,119.6,347.1,114.1,337.7,108.9z M296.6,48.9c1.2-3.5,1.8-6.8,1.7-9.8
				c0-0.3,0.1-0.5,0.3-0.8c0.2-0.2,0.5-0.3,0.5-0.3c3.8-1,8.1-1.4,9.6,0c1.5,1.5,1,5.9,0,9.6c0,0-0.1,0.4-0.3,0.5
				c-0.2,0.2-0.5,0.3-0.8,0.3c-3-0.1-6.2,0.4-9.8,1.7c0,0-0.8,0-1.1-0.3C296.5,49.7,296.6,48.9,296.6,48.9 M157.6,50
				c-0.3,0.3-1.1,0.3-1.1,0.3c-3.5-1.2-6.8-1.8-9.8-1.7c-0.3,0-0.5-0.1-0.8-0.3c-0.2-0.2-0.3-0.5-0.3-0.5c-1-3.8-1.4-8.1,0-9.6
				c1.5-1.5,5.9-1,9.6,0c0,0,0.4,0.1,0.5,0.3c0.2,0.2,0.3,0.5,0.3,0.8c-0.1,3,0.4,6.2,1.7,9.8C157.9,48.9,157.9,49.7,157.6,50z
				 M128.2,120.6c-3.4,1.6-6,3.5-8.1,5.7c-0.2,0.2-0.5,0.3-0.8,0.3c-0.2,0-0.6-0.2-0.6-0.2c-3.4-2-6.8-4.7-6.8-6.8
				c0-2.1,3.4-4.9,6.8-6.8c0,0,0.4-0.2,0.6-0.2c0.3,0,0.6,0.1,0.8,0.3c2.1,2.2,4.7,4.1,8.1,5.7c0,0,0.6,0.5,0.6,1
				C128.8,120,128.2,120.6,128.2,120.6z M157.9,190.3c-1.2,3.5-1.8,6.8-1.7,9.8c0,0.3-0.1,0.5-0.3,0.8c-0.2,0.2-0.5,0.3-0.5,0.3
				c-3.8,1-8.1,1.4-9.6,0c-1.5-1.5-1-5.9,0-9.6c0,0,0.1-0.4,0.3-0.5c0.2-0.2,0.5-0.3,0.8-0.3c3,0.1,6.2-0.4,9.8-1.7
				c0,0,0.8,0,1.1,0.3C157.9,189.5,157.9,190.3,157.9,190.3z M296.8,189.2c0.3-0.3,1.1-0.3,1.1-0.3c3.5,1.2,6.8,1.8,9.8,1.7
				c0.3,0,0.5,0.1,0.8,0.3c0.2,0.2,0.3,0.5,0.3,0.5c1,3.8,1.4,8.1,0,9.6c-1.5,1.5-5.9,1-9.6,0c0,0-0.4-0.1-0.5-0.3
				c-0.2-0.2-0.3-0.5-0.3-0.8c0.1-3-0.4-6.2-1.7-9.8C296.6,190.3,296.5,189.5,296.8,189.2z M220.5,12.5c-0.2-0.2-0.3-0.5-0.3-0.8
				c0-0.2,0.2-0.6,0.2-0.6c2-3.4,4.7-6.8,6.8-6.8c2.1,0,4.9,3.4,6.8,6.8c0,0,0.2,0.4,0.2,0.6c0,0.3-0.1,0.6-0.3,0.8
				c-2.2,2.1-4.1,4.7-5.7,8.1c0,0-0.5,0.6-1,0.6c-0.4,0-1-0.6-1-0.6C224.6,17.2,222.7,14.5,220.5,12.5z M233.9,226.7
				c0.2,0.2,0.3,0.5,0.3,0.8c0,0.2-0.2,0.6-0.2,0.6c-2,3.4-4.7,6.8-6.8,6.8c-2.1,0-4.9-3.4-6.8-6.8c0,0-0.2-0.4-0.2-0.6
				c0-0.3,0.1-0.6,0.3-0.8c2.2-2.1,4.1-4.7,5.7-8.1c0,0,0.5-0.6,1-0.6s1,0.6,1,0.6C229.8,222,231.7,224.7,233.9,226.7z M227.2,168.3
				c-26.9,0-48.7-21.8-48.7-48.7s21.8-48.7,48.7-48.7s48.7,21.8,48.7,48.7S254.1,168.3,227.2,168.3z M335.7,126.4
				c0,0-0.4,0.2-0.6,0.2c-0.3,0-0.6-0.1-0.8-0.3c-2.1-2.2-4.7-4.1-8.1-5.7c0,0-0.6-0.5-0.6-1c0-0.4,0.6-1,0.6-1
				c3.4-1.6,6-3.5,8.1-5.7c0.2-0.2,0.5-0.3,0.8-0.3c0.2,0,0.6,0.2,0.6,0.2c3.4,2,6.8,4.7,6.8,6.8C342.4,121.7,339,124.4,335.7,126.4
				z"/>
			<path class="st2" d="M226.3,20.6c-1.6-3.4-3.5-6-5.7-8.1c-0.2-0.2-0.3-0.5-0.3-0.8c0-0.2,0.2-0.6,0.2-0.6c2-3.4,4.7-6.8,6.8-6.8
				c2.1,0,4.9,3.4,6.8,6.8c0,0,0.2,0.4,0.2,0.6c0,0.3-0.1,0.6-0.3,0.8c-2.2,2.1-4.1,4.7-5.7,8.1l0,0c-0.2,0.3-0.5,0.6-1,0.6
				S226.5,20.9,226.3,20.6L226.3,20.6z"/>
			<path class="st2" d="M296.6,48.9c1.2-3.5,1.8-6.8,1.7-9.8c0-0.3,0.1-0.5,0.3-0.8c0.2-0.2,0.5-0.3,0.5-0.3c3.8-1,8.1-1.4,9.6,0
				c1.5,1.5,1,5.9,0,9.6c0,0-0.1,0.4-0.3,0.5c-0.2,0.2-0.5,0.3-0.8,0.3c-3-0.1-6.2,0.4-9.8,1.7l0.1,0c-0.4,0.1-0.8,0.1-1.2-0.2
				C296.5,49.7,296.5,49.3,296.6,48.9L296.6,48.9C296.6,48.9,296.6,48.9,296.6,48.9L296.6,48.9z"/>
			<path class="st2" d="M326.2,120.6c3.4,1.6,6,3.5,8.1,5.7c0.2,0.2,0.5,0.3,0.8,0.3c0.2,0,0.6-0.2,0.6-0.2c3.4-2,6.8-4.7,6.8-6.8
				c0-2.1-3.4-4.9-6.8-6.8c0,0-0.4-0.2-0.6-0.2c-0.3,0-0.6,0.1-0.8,0.3c-2.1,2.2-4.7,4.1-8.1,5.7l0,0l0,0c-0.3,0.2-0.6,0.5-0.6,1
				C325.7,120,325.9,120.4,326.2,120.6L326.2,120.6z"/>
			<path class="st2" d="M297.9,188.9c3.5,1.2,6.8,1.8,9.8,1.7c0.3,0,0.5,0.1,0.8,0.3c0.2,0.2,0.3,0.5,0.3,0.5c1,3.8,1.4,8.1,0,9.6
				c-1.5,1.5-5.9,1-9.6,0c0,0-0.4-0.1-0.5-0.3c-0.2-0.2-0.3-0.5-0.3-0.8c0.1-3-0.4-6.2-1.7-9.8l0,0c-0.1-0.4,0-0.8,0.3-1.1
				C297.1,188.9,297.5,188.8,297.9,188.9L297.9,188.9L297.9,188.9z"/>
			<path class="st2" d="M228.2,218.6c1.6,3.4,3.5,6,5.7,8.1c0.2,0.2,0.3,0.5,0.3,0.8c0,0.2-0.2,0.6-0.2,0.6c-2,3.4-4.7,6.8-6.8,6.8
				c-2.1,0-4.9-3.4-6.8-6.8c0,0-0.2-0.4-0.2-0.6c0-0.3,0.1-0.6,0.3-0.8c2.2-2.1,4.1-4.7,5.7-8.1l0,0.1c0.2-0.4,0.6-0.6,1-0.6
				C227.6,218.1,228,218.3,228.2,218.6L228.2,218.6L228.2,218.6z"/>
			<path class="st2" d="M156.5,188.9c-3.5,1.2-6.8,1.8-9.8,1.7c-0.3,0-0.5,0.1-0.8,0.3c-0.2,0.2-0.3,0.5-0.3,0.5
				c-1,3.8-1.4,8.1,0,9.6c1.5,1.5,5.9,1,9.6,0c0,0,0.4-0.1,0.5-0.3c0.2-0.2,0.3-0.5,0.3-0.8c-0.1-3,0.4-6.2,1.7-9.8l0,0h0
				c0.1-0.4,0-0.8-0.3-1.1C157.3,188.9,156.8,188.8,156.5,188.9L156.5,188.9z"/>
			<path class="st2" d="M128.2,120.6c-3.4,1.6-6,3.5-8.1,5.7c-0.2,0.2-0.5,0.3-0.8,0.3c-0.2,0-0.6-0.2-0.6-0.2
				c-3.4-2-6.8-4.7-6.8-6.8c0-2.1,3.4-4.9,6.8-6.8c0,0,0.4-0.2,0.6-0.2c0.3,0,0.6,0.1,0.8,0.3c2.1,2.2,4.7,4.1,8.1,5.7l-0.1,0v0
				c0.4,0.2,0.6,0.6,0.6,1C128.8,120,128.5,120.4,128.2,120.6C128.2,120.6,128.2,120.6,128.2,120.6z"/>
			<path class="st2" d="M156.5,50.3c-3.5-1.2-6.8-1.8-9.8-1.7c-0.3,0-0.5-0.1-0.8-0.3c-0.2-0.2-0.3-0.5-0.3-0.5
				c-1-3.8-1.4-8.1,0-9.6c1.5-1.5,5.9-1,9.6,0c0,0,0.4,0.1,0.5,0.3c0.2,0.2,0.3,0.5,0.3,0.8c-0.1,3,0.4,6.2,1.7,9.8l0-0.1
				c0.1,0.4,0.1,0.8-0.3,1.2C157.3,50.3,156.9,50.4,156.5,50.3L156.5,50.3z"/>
		</g>
	</g>
</g>
</svg>
