<?xml version="1.0" encoding="utf-8"?>
<!-- Generator: Adobe Illustrator 26.0.1, SVG Export Plug-In . SVG Version: 6.00 Build 0)  -->
<svg version="1.1" id="Layer_1" xmlns="http://www.w3.org/2000/svg" xmlns:xlink="http://www.w3.org/1999/xlink" x="0px" y="0px"
	 viewBox="0 0 500 113.5" style="enable-background:new 0 0 500 113.5;" xml:space="preserve">
<style type="text/css">
	.st0{fill:#3387FF;}
	.st1{fill:#5C43FF;}
	.st2{fill:#00B4DB;}
	.st3{fill:#231F20;}
	.st4{fill:#272727;}
</style>
<g>
	<g>
		<polygon class="st0" points="445,57 390.2,57 390.2,112.1 445,112 445,57.2 		"/>
		<polygon class="st1" points="500,57.1 500,2.1 445,2.1 445,57 445.2,57 		"/>
		<polygon class="st2" points="500,57.1 445.2,57 445,57 445,57.2 445,112 445.1,112 500,57.1 		"/>
		<polygon class="st4" points="390.2,2.2 445,2.2 390.2,57 		"/>
	</g>
	<g>
		<rect x="347" y="2.2" class="st4" width="17.6" height="14.1"/>
		<path class="st4" d="M363,18.3l-16.1,13.4v19h-34.2V16.1H295v35.1h-11.8V16.1h-17.5v35.1h-12.6V16.1h-17.4v34.6H102v-8.5
			c0-17.1-12.7-25.5-28.9-25.5c-16.2,0-28.9,8.4-28.9,25.5c0,7.6-3.7,8.5-8.3,8.5H17.8V0H0v64.5h28.2L44.5,51l0.1,6.8l0,4.4l0,2.4
			h14.3v0l305.6,0.4V17L363,18.3z M83.7,54.5H73.1c-7.3,0-10.6-5.4-10.6-12.4c0-7,3.3-12.3,10.6-12.3c7.3,0,10.6,5.4,10.6,12.3V54.5
			z"/>
	</g>
	<g>
		<path class="st4" d="M10.8,112.7c-1.6,0-3-0.3-4.2-0.8c-1.2-0.5-2.3-1.3-3.1-2.2s-1.5-2.1-1.9-3.4c-0.4-1.3-0.7-2.7-0.7-4.3
			c0-1.6,0.2-3,0.7-4.3c0.4-1.3,1.1-2.4,1.9-3.4c0.8-0.9,1.9-1.7,3.1-2.2s2.6-0.8,4.2-0.8c1.6,0,3,0.3,4.2,0.8s2.3,1.3,3.1,2.2
			c0.8,0.9,1.5,2.1,1.9,3.4c0.4,1.3,0.7,2.8,0.7,4.3c0,1.6-0.2,3-0.7,4.3c-0.4,1.3-1.1,2.4-1.9,3.4c-0.8,0.9-1.9,1.7-3.1,2.2
			C13.8,112.4,12.4,112.7,10.8,112.7z M10.8,109.1c1,0,2-0.2,2.7-0.5c0.8-0.4,1.4-0.8,1.9-1.5c0.5-0.6,0.9-1.4,1.1-2.2
			c0.3-0.9,0.4-1.8,0.4-2.9c0-1-0.1-2-0.4-2.9c-0.3-0.9-0.6-1.6-1.1-2.2c-0.5-0.6-1.2-1.1-1.9-1.5c-0.8-0.4-1.7-0.5-2.7-0.5
			c-1,0-2,0.2-2.7,0.5c-0.8,0.4-1.4,0.8-1.9,1.5c-0.5,0.6-0.9,1.4-1.1,2.2C4.7,100,4.6,101,4.6,102c0,1,0.1,2,0.4,2.9
			c0.3,0.9,0.6,1.6,1.1,2.2c0.5,0.6,1.2,1.1,1.9,1.5C8.8,109,9.7,109.1,10.8,109.1z M6.2,81.8h3.6v5H6.2V81.8z M13.4,81.8H17v5h-3.6
			V81.8z"/>
		<path class="st4" d="M47.1,108.8c0.2,0,0.4,0,0.6,0.1c0.2,0.1,0.3,0.2,0.3,0.5v2.4c0,0.3-0.3,0.5-0.9,0.5h-2
			c-0.4,0-0.8-0.1-1.3-0.2s-0.9-0.3-1.3-0.6c-0.4-0.2-0.8-0.5-1.1-0.9c-0.3-0.3-0.6-0.7-0.7-1.1h-0.2c0,0.3-0.1,0.7-0.3,1.2
			c-0.2,0.5-0.5,1-0.9,1.5H24.7v-3.4H37v-5.4c0-1-0.1-2-0.4-3c-0.2-1-0.6-1.8-1.2-2.5c-0.5-0.7-1.2-1.3-2-1.7s-1.8-0.7-3-0.7h-3.9
			v-3.4h3.3c1.6,0,3,0.2,4.3,0.6c1.3,0.4,2.4,1.1,3.4,2c1,0.9,1.7,2.1,2.2,3.5c0.5,1.4,0.8,3.2,0.8,5.2v0.6c0,1.6,0.4,2.7,1.3,3.5
			c0.9,0.8,2,1.2,3.2,1.2H47.1z"/>
		<path class="st4" d="M70.3,108.8v-6.7c0-1.1-0.3-2.2-0.8-3.1s-1.2-1.7-2-2.3c-0.8-0.6-1.7-1.1-2.7-1.4c-1-0.3-2-0.5-3.1-0.5
			c-0.9,0-1.8,0.2-2.7,0.5c-0.9,0.3-1.7,0.8-2.5,1.3c-0.8,0.5-1.4,1.2-1.9,1.9c-0.5,0.7-0.8,1.5-1,2.3h-3.5c0.1-1.3,0.5-2.5,1.1-3.6
			c0.6-1.1,1.4-2.1,2.4-3c1-0.9,2.2-1.5,3.5-2c1.4-0.5,2.8-0.7,4.4-0.7c1.8,0,3.4,0.3,4.9,0.8c1.5,0.5,2.8,1.2,3.9,2.2
			c1.1,1,1.9,2.1,2.5,3.5c0.6,1.4,0.9,2.9,0.9,4.6v1.9c0,1.5,0.4,2.6,1.3,3.3s2,1.1,3.2,1.1h2c0.2,0,0.4,0,0.6,0.1
			c0.2,0.1,0.3,0.2,0.3,0.5v2.4c0,0.3-0.3,0.5-0.9,0.5h-2c-0.4,0-0.8-0.1-1.3-0.2c-0.4-0.1-0.9-0.3-1.3-0.6s-0.8-0.5-1.1-0.9
			c-0.3-0.3-0.6-0.7-0.7-1.1H74c0,0.3-0.1,0.7-0.3,1.2c-0.2,0.5-0.5,1-0.9,1.5H47.1c-0.6,0-0.9-0.2-0.9-0.5v-2.4
			c0-0.3,0.1-0.5,0.3-0.5c0.2-0.1,0.4-0.1,0.6-0.1H70.3z"/>
		<path class="st4" d="M98.9,112.2c-0.6,0-1.2-0.1-1.8-0.3s-1.2-0.5-1.8-0.8c-0.6-0.3-1-0.7-1.5-1.2c-0.4-0.4-0.7-0.9-0.9-1.4
			c-0.7,1.3-1.5,2.2-2.7,2.8c-1.1,0.6-2.3,0.9-3.5,0.9h-6.1c-0.6,0-0.9-0.2-0.9-0.5v-2.4c0-0.3,0.1-0.5,0.3-0.5
			c0.2-0.1,0.4-0.1,0.6-0.1h6.2c1,0,1.8-0.3,2.5-1c0.7-0.6,1.1-1.7,1.1-3.3V94.1h3.6v8.9c0,0.8,0.1,1.6,0.4,2.3
			c0.3,0.7,0.6,1.3,1.1,1.8c0.5,0.5,1,0.9,1.6,1.2c0.6,0.3,1.3,0.4,1.9,0.4h1.8c0.2,0,0.4,0,0.6,0.1c0.2,0.1,0.3,0.2,0.3,0.5v2.4
			c0,0.3-0.3,0.5-0.9,0.5H98.9z M86.4,81.8H90v5h-3.6V81.8z M93.6,81.8h3.6v5h-3.6V81.8z"/>
		<path class="st4" d="M100.7,112.2c-0.6,0-0.9-0.2-0.9-0.5v-2.4c0-0.3,0.1-0.5,0.3-0.5c0.2-0.1,0.4-0.1,0.6-0.1h7.3
			c0.6,0,0.9,0.2,0.9,0.5v2.4c0,0.3-0.1,0.5-0.3,0.5c-0.2,0.1-0.4,0.1-0.7,0.1H100.7z"/>
		<path class="st4" d="M123.9,113.5c-2.1,0-3.9-0.4-5.4-1.2c-1.5-0.8-2.6-2-3.4-3.5c-0.3,0.6-0.6,1.1-1,1.5
			c-0.4,0.4-0.9,0.8-1.4,1.1c-0.5,0.3-1.1,0.5-1.7,0.7c-0.6,0.1-1.1,0.2-1.7,0.2h-1.4c-0.6,0-0.9-0.2-0.9-0.5v-2.4
			c0-0.3,0.1-0.5,0.3-0.5c0.2-0.1,0.4-0.1,0.6-0.1h1.4c0.7,0,1.3-0.1,1.8-0.2c0.6-0.2,1-0.4,1.4-0.8c0.4-0.4,0.7-1,1-1.6
			c0.3-0.7,0.4-1.6,0.4-2.6v-0.3c0-3.3,0.9-5.9,2.7-7.7c1.8-1.8,4.2-2.7,7.3-2.7c3.1,0,5.5,0.9,7.3,2.7c1.8,1.8,2.7,4.4,2.7,7.7v0.3
			c0,1.1,0.2,2,0.4,2.6c0.2,0.7,0.6,1.2,1,1.6c0.4,0.4,0.9,0.7,1.5,0.8c0.6,0.2,1.2,0.2,1.8,0.2h1.4c0.2,0,0.4,0,0.6,0.1
			c0.2,0.1,0.3,0.2,0.3,0.5v2.4c0,0.3-0.3,0.5-0.9,0.5h-1.4c-0.6,0-1.1-0.1-1.7-0.2c-0.6-0.1-1.1-0.4-1.6-0.7
			c-0.5-0.3-1-0.7-1.4-1.1c-0.4-0.4-0.8-0.9-1-1.5c-0.8,1.5-1.9,2.7-3.4,3.5C127.8,113.1,126.1,113.5,123.9,113.5z M123.9,109.9
			c1.8,0,3.3-0.6,4.5-1.7c1.2-1.1,1.7-2.9,1.7-5.2s-0.6-4.1-1.7-5.2c-1.1-1.1-2.6-1.7-4.5-1.7c-1.8,0-3.3,0.6-4.5,1.7
			s-1.7,2.9-1.7,5.2s0.6,4,1.7,5.2C120.6,109.4,122.1,109.9,123.9,109.9z"/>
		<path class="st4" d="M147,108.8V81.8h3.6v30.3h-10.7c-0.6,0-0.9-0.2-0.9-0.5v-2.4c0-0.3,0.1-0.5,0.3-0.5c0.2-0.1,0.4-0.1,0.6-0.1
			H147z"/>
		<path class="st4" d="M156.1,112.2V81.8h3.6v30.3H156.1z"/>
		<path class="st4" d="M206.8,108.8V94.1h3.6v18.1H183c-1.2,0-2.4-0.2-3.4-0.5c-1.1-0.3-2-0.9-2.8-1.7c-0.8-0.8-1.4-1.8-1.9-3
			c-0.5-1.2-0.7-2.8-0.7-4.6v-2.8h3.3v2.9c0,2.2,0.5,3.8,1.4,4.8c0.9,1,2.3,1.5,4.1,1.5H206.8z M186.7,85.5h3.6v5h-3.6V85.5z
			 M194,85.5h3.6v5H194V85.5z"/>
		<path class="st4" d="M223.4,108.8c0.2,0,0.4,0,0.6,0.1c0.2,0.1,0.3,0.2,0.3,0.5v2.4c0,0.3-0.3,0.5-0.9,0.5h-7.4V81.8h3.6v26.9
			H223.4z"/>
		<path class="st4" d="M231.9,108.8v-0.2c-0.3-0.3-0.6-0.7-1-1.2c-0.4-0.5-0.7-1.1-1-1.8c-0.3-0.7-0.5-1.4-0.7-2.1s-0.3-1.5-0.3-2.3
			c0-1.5,0.2-2.9,0.7-4.1c0.5-1.2,1.1-2.2,1.9-3.1c0.8-0.8,1.8-1.5,2.9-2c1.1-0.5,2.4-0.7,3.8-0.7c1.4,0,2.6,0.3,3.6,0.8
			c1,0.5,1.8,1.2,2.5,2c0.7,0.8,1.2,1.7,1.6,2.7c0.4,1,0.7,2,0.8,3.1h-3.5c-0.1-0.7-0.3-1.3-0.5-1.9c-0.3-0.6-0.6-1.1-1.1-1.6
			c-0.4-0.5-0.9-0.8-1.5-1.1c-0.6-0.3-1.2-0.4-1.9-0.4s-1.4,0.1-2,0.4c-0.7,0.2-1.3,0.6-1.8,1.1c-0.5,0.5-0.9,1.2-1.3,2
			c-0.3,0.8-0.5,1.7-0.5,2.8s0.1,2.1,0.4,3.1c0.3,0.9,0.7,1.7,1.2,2.4c0.5,0.7,1.1,1.2,1.9,1.5c0.7,0.4,1.5,0.6,2.4,0.6h8.4v3.4
			h-23.6c-0.6,0-0.9-0.2-0.9-0.5v-2.4c0-0.3,0.1-0.5,0.3-0.5c0.2-0.1,0.4-0.1,0.6-0.1H231.9z"/>
		<path class="st4" d="M259.1,108.8c0.2,0,0.4,0,0.6,0.1c0.2,0.1,0.3,0.2,0.3,0.5v2.4c0,0.3-0.3,0.5-0.9,0.5h-7.4V81.8h3.6v26.9
			H259.1z"/>
		<path class="st4" d="M277.4,112.2c-0.6,0-1.2-0.1-1.8-0.3s-1.2-0.5-1.8-0.8c-0.6-0.3-1-0.7-1.5-1.2c-0.4-0.4-0.7-0.9-0.9-1.4
			c-0.7,1.3-1.5,2.2-2.7,2.8c-1.1,0.6-2.3,0.9-3.5,0.9h-6.1c-0.6,0-0.9-0.2-0.9-0.5v-2.4c0-0.3,0.1-0.5,0.3-0.5
			c0.2-0.1,0.4-0.1,0.6-0.1h6.2c1,0,1.8-0.3,2.5-1c0.7-0.6,1.1-1.7,1.1-3.3V94.1h3.6v8.9c0,0.8,0.1,1.6,0.4,2.3
			c0.3,0.7,0.6,1.3,1.1,1.8c0.5,0.5,1,0.9,1.6,1.2c0.6,0.3,1.3,0.4,1.9,0.4h1.8c0.2,0,0.4,0,0.6,0.1c0.2,0.1,0.3,0.2,0.3,0.5v2.4
			c0,0.3-0.3,0.5-0.9,0.5H277.4z M268.9,81.8h3.6v5h-3.6V81.8z"/>
		<path class="st4" d="M279.3,112.2c-0.6,0-0.9-0.2-0.9-0.5v-2.4c0-0.3,0.1-0.5,0.3-0.5c0.2-0.1,0.4-0.1,0.6-0.1h7.3
			c0.6,0,0.9,0.2,0.9,0.5v2.4c0,0.3-0.1,0.5-0.3,0.5c-0.2,0.1-0.4,0.1-0.7,0.1H279.3z"/>
		<path class="st4" d="M286.5,112.2c-0.6,0-0.9-0.2-0.9-0.5v-2.4c0-0.3,0.1-0.5,0.3-0.5c0.2-0.1,0.4-0.1,0.6-0.1h7.3
			c0.6,0,0.9,0.2,0.9,0.5v2.4c0,0.3-0.1,0.5-0.3,0.5c-0.2,0.1-0.4,0.1-0.7,0.1H286.5z"/>
		<path class="st4" d="M293.8,112.2c-0.6,0-0.9-0.2-0.9-0.5v-2.4c0-0.3,0.1-0.5,0.3-0.5c0.2-0.1,0.4-0.1,0.6-0.1h5.8V95.3h3.6v8.4
			h0.2c0.9-1.3,1.9-2.6,3.1-3.9c1.2-1.4,2.4-2.6,3.8-3.7s2.9-2,4.5-2.7c1.6-0.7,3.3-1.1,5.1-1.1c3.3,0,5.8,0.9,7.7,2.7
			s2.8,4.4,2.8,7.8v1.6c0,1.5,0.4,2.6,1.3,3.3c0.9,0.7,2,1.1,3.2,1.1h2.1c0.2,0,0.4,0,0.6,0.1c0.2,0.1,0.3,0.2,0.3,0.5v2.4
			c0,0.3-0.3,0.5-0.9,0.5h-2.1c-0.4,0-0.8-0.1-1.3-0.2s-0.9-0.3-1.3-0.6c-0.4-0.2-0.8-0.5-1.1-0.9c-0.3-0.3-0.5-0.7-0.7-1.1h-0.2
			c0,0.3-0.1,0.7-0.3,1.2c-0.2,0.5-0.5,1-0.9,1.5H293.8z M319.6,95.7c-1.1,0-2.2,0.3-3.3,0.8c-1.1,0.5-2.2,1.2-3.3,2
			c-1.1,0.8-2.1,1.7-3.1,2.7c-1,1-1.9,2-2.7,2.9c-0.8,1-1.5,1.9-2.1,2.7c-0.6,0.8-1,1.5-1.4,1.9h22.9v-6.2c0-1.1-0.2-2.1-0.6-3
			c-0.4-0.9-0.9-1.6-1.5-2.1c-0.6-0.6-1.4-1-2.3-1.3C321.5,95.9,320.5,95.7,319.6,95.7z"/>
		<path class="st4" d="M352.3,112.2c-0.6,0-1.2-0.1-1.8-0.3c-0.6-0.2-1.2-0.5-1.8-0.8c-0.6-0.3-1-0.7-1.5-1.2
			c-0.4-0.4-0.7-0.9-0.9-1.4c-0.7,1.3-1.5,2.2-2.7,2.8c-1.1,0.6-2.3,0.9-3.5,0.9h-3.2c-0.6,0-0.9-0.2-0.9-0.5v-2.4
			c0-0.3,0.1-0.5,0.3-0.5c0.2-0.1,0.4-0.1,0.6-0.1h3.3c1,0,1.8-0.3,2.5-1c0.7-0.6,1.1-1.7,1.1-3.3V81.8h3.6V103
			c0,0.8,0.1,1.6,0.4,2.3c0.3,0.7,0.6,1.3,1.1,1.8c0.5,0.5,1,0.9,1.6,1.2c0.6,0.3,1.3,0.4,2,0.4h1.7c0.2,0,0.4,0,0.6,0.1
			c0.2,0.1,0.3,0.2,0.3,0.5v2.4c0,0.3-0.3,0.5-0.9,0.5H352.3z"/>
		<path class="st4" d="M361.1,108.8V81.8h3.6v30.3H354c-0.6,0-0.9-0.2-0.9-0.5v-2.4c0-0.3,0.1-0.5,0.3-0.5c0.2-0.1,0.4-0.1,0.6-0.1
			H361.1z"/>
	</g>
</g>
</svg>
