<?xml version="1.0" encoding="utf-8"?>
<!-- Generator: Adobe Illustrator 26.0.1, SVG Export Plug-In . SVG Version: 6.00 Build 0)  -->
<svg version="1.1" id="Layer_1" xmlns="http://www.w3.org/2000/svg" xmlns:xlink="http://www.w3.org/1999/xlink" x="0px" y="0px"
	 viewBox="0 0 500 352" style="enable-background:new 0 0 500 352;" xml:space="preserve">
<style type="text/css">
	.st0{fill:#755BA9;}
	.st1{fill:#61B735;}
	.st2{fill:#43B290;}
	.st3{fill:#DB662C;}
	.st4{fill:#2A89A9;}
	.st5{fill:#E3DA1B;}
	.st6{fill:#FC2F23;}
	.st7{fill:#D32B92;}
	.st8{stroke:#000000;stroke-width:0.2541;stroke-miterlimit:10;}
</style>
<g>
	<g>
		<path class="st0" d="M295.4,213.6c10.8-11.1,17.5-26.2,17.5-42.9c-16.7-0.6-31.8-7.6-42.9-18.6c0,15.7-5.8,31.3-17.2,43.5
			C264.1,207,279.2,213.3,295.4,213.6z"/>
		<path class="st1" d="M269.9,61.5c11.1-11,26.2-18.1,42.9-18.6c0-16.7-6.7-31.8-17.5-42.9c-16.1,0.2-31.2,6.6-42.7,18
			C264.1,30.2,269.9,45.9,269.9,61.5z"/>
		<path class="st2" d="M296.1,88c16.3,0,31.6,6.1,43.5,17.2c11.8-11.8,17.8-27.2,18-42.7c-11.6-11.2-26.8-17.4-42.9-17.4
			C314.1,61.8,307.1,76.9,296.1,88z"/>
		<path class="st3" d="M144.1,62.6c0.2,15.5,6.2,30.9,18,42.7c11.8-11.1,27.2-17.2,43.5-17.2c-11-11.1-18-26.2-18.6-42.9
			C170.3,45.1,155.2,51.8,144.1,62.6z"/>
		<path class="st4" d="M296.1,125.6c11,11.1,18,26.2,18.6,42.9c16.7,0,31.8-6.7,42.9-17.5c-0.2-16.1-6.6-31.2-18-42.7
			C327.7,119.4,312.4,125.5,296.1,125.6z"/>
		<path class="st5" d="M206.6,0c-10.8,11.1-17.5,26.3-17.5,42.9c16.2,0.5,31.4,7.1,42.9,18.6c0-15.6,5.8-31.3,17.2-43.5
			C237.9,6.6,222.7,0.2,206.6,0z"/>
		<path class="st6" d="M205.5,125.6c-16.3,0-31.6-6.1-43.5-17.2c-11.4,11.4-17.8,26.5-18,42.6c11.1,10.8,26.2,17.5,42.9,17.5
			C187.5,151.8,194.5,136.6,205.5,125.6z"/>
		<path class="st7" d="M232,152.1c-11.1,11-26.2,18-42.9,18.6c0,16.7,6.7,31.8,17.5,42.9c16.1-0.2,31.2-6.6,42.7-18
			C238.2,183.7,232.1,168.4,232,152.1z"/>
	</g>
	<g>
		<g>
			<path d="M22.6,330.2c0-2.8-0.2-4-0.5-4.3c-0.2-0.2-0.4-0.3-1.2-0.4l-3.5-0.3v-1.8c1.7,0.1,3.7,0.2,5.4,0.2c1.7,0,3.7-0.1,5.8-0.2
				v1.8l-1.6,0.2c-0.5,0-0.8,0.1-1.1,0.4c-0.3,0.4-0.5,1.5-0.5,9.8v10.2c0,2,0,3.9,0.1,5.7h-3.1l-9-13.2c-2.4-3.5-5.6-8.4-7.1-10.8
				H6.1v14.1c0,3,0.1,6,0.4,7c0.1,0.6,0.3,0.7,1.2,0.8l3.4,0.4v1.8c-2-0.1-4.2-0.2-5.8-0.2c-1.6,0-3.5,0.1-5.3,0.2v-1.8l1.9-0.3
				c0.7-0.1,1.1-0.3,1.2-0.8c0.2-1,0.4-4.8,0.4-9.4v-11.5c0-2,0-2.1-1.2-2.3L0,325.3v-1.8c0.7,0,1.3,0.1,1.9,0.1c0.6,0,1.2,0,1.7,0
				c1.1,0,2.4-0.1,3.7-0.2l6.7,10.1c3,4.5,6.7,10,8.4,12.7h0.1V330.2z"/>
			<path d="M39.4,336l4.6-0.1c1.1,0,1.6,0,1.9-0.3c0.3-0.2,0.4-1.4,0.5-2h1.9c-0.1,1.6-0.2,2.2-0.2,3.3c0,1.5,0,2.4,0.3,4.6
				l-1.8,0.1c-0.1-1-0.4-2.1-0.5-2.6c-0.2-0.7-1-0.7-2.2-0.7h-4.4v7.7c0,1.2,0,2,0.2,2.5c0.3,0.8,0.7,1,3.2,1c3.3,0,5-0.2,5.5-0.6
				c0.4-0.4,1-2.1,1.7-5l1.6,0.2l-0.7,7.5c-7.2,0-10-0.2-13.4-0.2c-1.2,0-3.4,0.1-5.5,0.2v-1.8l2.6-0.3c0.9-0.1,1-0.1,1.1-0.6
				c0-0.8,0.1-1.4,0.1-2.8v-17.2c0-1.4,0-1.9-0.1-2.7c0-0.4-0.2-0.5-1.1-0.6l-2.6-0.3v-1.8c2,0.1,3.6,0.2,6.5,0.2
				c3.6,0,7.5-0.1,11.1-0.2l-0.4,7.5h-1.4c-0.4-2.2-0.6-3.3-0.8-4.1c-0.3-0.8-0.7-0.9-3.1-1c-1.6,0-2.2-0.1-3-0.1h-1.4V336z"/>
			<path d="M67.8,331.4c-0.2-2.3-0.5-3.5-0.8-4.2c-0.5-1.2-1.6-1.7-3.4-1.7c-2.9,0-4.8,2-4.8,4.8c0,3.2,2.6,4.3,5.5,5.6
				c3.5,1.5,6.5,2.9,6.5,7.5c0,5.2-3.9,8.7-9.4,8.7c-2.3,0-4.1-0.5-6.4-1.8l0.4-7.7h1.9c0,0.8,0,1.1,0,2c0,3.5,1.2,5.1,4.7,5.1
				c3.1,0,5.5-2.1,5.5-5.3c0-3.1-2.2-4.3-5-5.6c-3.4-1.5-7-2.9-7-7.3c0-5.2,3.9-8.3,9.3-8.3c1.5,0,3.2,0.2,5,0.7l-0.4,7.6H67.8z"/>
			<path d="M90.6,346.9c0.6-1.7,2.2-5.9,3.2-8.7l3.4-9.2c0.7-1.9,1.4-3.9,1.8-5.7c0.8,0.1,1.6,0.2,2.4,0.2c0.8,0,1.6,0,2.3,0
				c1.1,0,2.4,0,3.4-0.1v1.8l-2,0.2c-1.2,0.1-1.5,0.3-1.5,0.8c0,0.4,0,0.7,0,1l1,18.1c0,1.1,0.2,2.3,0.3,3.4c0,0.5,0.1,0.6,0.8,0.7
				l1.5,0.3v1.8c-1.8-0.1-3.6-0.2-5.3-0.2c-1.8,0-3.3,0.1-5.3,0.2v-1.8l3.3-0.3c1.1-0.1,1.4-0.3,1.4-1.1c0-0.4,0-0.6,0-1.2
				l-0.6-10.7c-0.2-3.8-0.3-6.5-0.3-9.3h-0.1l-6.2,16.7c-0.9,2.5-1.8,5.1-2.4,7.5h-2.9L83.9,338c-1.2-3.3-2.9-8.5-3.4-10.6h-0.1
				l-1,19.3c0,0.6,0,0.8,0,1.2c0,1.2,0.1,1.6,1.3,1.6l3.1,0.3v1.8c-1.8-0.1-3.4-0.2-5.1-0.2c-1.7,0-3.3,0.1-5.1,0.2v-1.8l1.4-0.2
				c0.6-0.1,0.8-0.1,0.9-0.3c0.2-0.2,0.4-0.7,0.6-2.8c0.4-3.3,0.7-6.6,1-9.9c0.3-3.2,0.5-7.9,0.5-9.6c0-1.2,0-1.3-1.2-1.5l-2-0.2
				v-1.8c0.9,0.1,2,0.1,3.3,0.1c1.1,0,2.7,0,4.2-0.3l3.3,9.4c1.8,5,4,11.2,4.9,14.2H90.6z"/>
			<path d="M123.6,323.4l8.5,23.8c0.7,2.1,1,2.4,1.8,2.5l1.2,0.1v1.8c-1.8-0.1-3.6-0.2-5.2-0.2c-1.6,0-3.7,0.1-5.5,0.2v-1.8l3.8-0.4
				c0.6,0,0.7-0.1,0.7-0.4c0-0.4-0.1-0.8-0.4-1.5l-2.8-7.9c-1.4,0-2.7,0-4,0c-2.9,0.1-3.8,0.2-4.2,0.8c-0.4,0.6-1.1,1.7-2.3,5.3
				c-0.8,2.3-0.9,2.8-0.9,3.1c0,0.4,0.1,0.4,0.9,0.5l3.9,0.4v1.8c-1.8-0.1-3.9-0.2-5.4-0.2c-1.5,0-3.3,0.1-5.1,0.2v-1.8l2.4-0.3
				c1.4-3.5,3.1-7.6,4.6-11.4c1.9-4.8,3.9-9.9,5.3-14.8H123.6z M121.7,328.2l-3.3,9.1l6.7,0.3L121.7,328.2z"/>
			<path d="M156.9,346.1c0,1.4,0,2,0.1,2.8c0,0.4,0.2,0.4,1.1,0.6l2.6,0.3v1.8c-1.9-0.1-3.7-0.2-5.6-0.2c-1.8,0-3.7,0.1-5.5,0.2
				v-1.8l2.6-0.3c0.9-0.1,1-0.1,1.1-0.6c0-0.8,0.1-1.4,0.1-2.8v-20.5h-1.5c-0.7,0-1.8,0.1-2.2,0.1c-2.3,0.1-2.8,0.2-3.1,1
				c-0.3,0.8-0.4,2-0.8,4.2h-1.4l-0.4-7.5c3.8,0.1,7.5,0.2,11.4,0.2c3.7,0,7.5-0.1,11.2-0.2l-0.4,7.5h-1.4c-0.4-2.2-0.6-3.3-0.8-4.2
				c-0.2-0.8-0.7-0.9-3.1-1c-0.4,0-1.7-0.1-2.2-0.1h-1.6V346.1z"/>
			<path d="M176.1,346.1c0,1.4,0,2,0.1,2.8c0,0.4,0.1,0.4,1,0.6l2.6,0.3v1.8c-1.9-0.1-3.6-0.2-5.5-0.2c-1.8,0-3.7,0.1-5.5,0.2v-1.8
				l2.5-0.3c0.9-0.1,1-0.1,1.1-0.6c0-0.8,0.1-1.4,0.1-2.8v-20.7c-1.2,0-2.4,0.1-3.6,0.1v-1.9c2.5-0.2,4-0.3,7-0.3
				c3.3,0,6.6,0.1,8.8,1c2.3,0.8,3.6,2.6,3.6,5.1c0,3.6-2,5.9-4.9,7.8c1.6,3.2,3.3,5.9,5.2,8.3c1.5,2,3,3.6,4.8,4.9l-0.4,1.2h-0.3
				c-3.3,0-5.8-2-9.5-7.8c-0.7-1-1.7-2.5-2.4-3.7c-1.1-1.6-2.8-1.7-4.5-1.7h-0.3V346.1z M176.1,336.7h0.5c4.8,0,7.9-2.3,7.9-6
				c0-5.1-4.5-5.2-8.4-5.2V336.7z"/>
			<path d="M207,323.4l8.5,23.8c0.7,2.1,1,2.4,1.8,2.5l1.2,0.1v1.8c-1.8-0.1-3.6-0.2-5.2-0.2c-1.6,0-3.7,0.1-5.5,0.2v-1.8l3.8-0.4
				c0.6,0,0.7-0.1,0.7-0.4c0-0.4-0.1-0.8-0.4-1.5l-2.8-7.9c-1.4,0-2.7,0-4,0c-2.9,0.1-3.8,0.2-4.2,0.8c-0.4,0.6-1.1,1.7-2.3,5.3
				c-0.8,2.3-0.9,2.8-0.9,3.1c0,0.4,0.1,0.4,0.9,0.5l3.9,0.4v1.8c-1.8-0.1-3.9-0.2-5.4-0.2s-3.3,0.1-5.1,0.2v-1.8l2.3-0.3
				c1.4-3.5,3.1-7.6,4.6-11.4c1.9-4.8,3.9-9.9,5.3-14.8H207z M205.1,328.2l-3.3,9.1l6.7,0.3L205.1,328.2z"/>
			<path d="M231.5,325.3l-2.6,0.3c-0.9,0.1-1,0.2-1,0.6c0,0.8-0.1,1.3-0.1,2.7v17.2c0,1.4,0,2,0.1,2.8c0,0.4,0.1,0.4,1,0.6l2.6,0.3
				v1.8c-1.8-0.1-3.7-0.2-5.5-0.2c-1.8,0-3.7,0.1-5.5,0.2v-1.8l2.5-0.3c0.9-0.1,1-0.1,1.1-0.6c0-0.8,0.1-1.4,0.1-2.8v-17.2
				c0-1.4,0-1.9-0.1-2.7c0-0.4-0.2-0.5-1.1-0.6l-2.5-0.3v-1.8c1.9,0.1,3.6,0.2,5.5,0.2c1.8,0,3.8-0.1,5.5-0.2V325.3z"/>
			<path d="M257.5,330.2c0-2.8-0.2-4-0.5-4.3c-0.2-0.2-0.4-0.3-1.2-0.4l-3.6-0.3v-1.8c1.7,0.1,3.7,0.2,5.4,0.2
				c1.7,0,3.7-0.1,5.8-0.2v1.8l-1.6,0.2c-0.5,0-0.8,0.1-1.1,0.4c-0.3,0.4-0.5,1.5-0.5,9.8v10.2c0,2,0,3.9,0.1,5.7h-3.1l-9-13.2
				c-2.4-3.5-5.6-8.4-7.1-10.8H241v14.1c0,3,0.1,6,0.4,7c0.1,0.6,0.3,0.7,1.2,0.8l3.4,0.4v1.8c-2-0.1-4.2-0.2-5.8-0.2
				c-1.6,0-3.5,0.1-5.3,0.2v-1.8l1.9-0.3c0.7-0.1,1.1-0.3,1.2-0.8c0.2-1,0.4-4.8,0.4-9.4v-11.5c0-2,0-2.1-1.2-2.3l-2.2-0.2v-1.8
				c0.7,0,1.3,0.1,1.9,0.1c0.6,0,1.2,0,1.7,0c1.1,0,2.4-0.1,3.7-0.2l6.7,10.1c3,4.5,6.7,10,8.4,12.7h0.1V330.2z"/>
			<path d="M277.8,325.3l-2.6,0.3c-0.9,0.1-1,0.2-1,0.6c0,0.8-0.1,1.3-0.1,2.7v17.2c0,1.4,0,2,0.1,2.8c0,0.4,0.1,0.4,1,0.6l2.6,0.3
				v1.8c-1.8-0.1-3.7-0.2-5.5-0.2c-1.8,0-3.7,0.1-5.5,0.2v-1.8l2.5-0.3c0.9-0.1,1-0.1,1.1-0.6c0-0.8,0.1-1.4,0.1-2.8v-17.2
				c0-1.4,0-1.9-0.1-2.7c0-0.4-0.2-0.5-1.1-0.6l-2.5-0.3v-1.8c1.9,0.1,3.6,0.2,5.5,0.2c1.8,0,3.8-0.1,5.5-0.2V325.3z"/>
			<path d="M303.8,330.2c0-2.8-0.2-4-0.5-4.3c-0.2-0.2-0.4-0.3-1.2-0.4l-3.6-0.3v-1.8c1.7,0.1,3.7,0.2,5.4,0.2
				c1.7,0,3.7-0.1,5.8-0.2v1.8l-1.6,0.2c-0.5,0-0.8,0.1-1.1,0.4c-0.3,0.4-0.5,1.5-0.5,9.8v10.2c0,2,0,3.9,0.1,5.7h-3.1l-9-13.2
				c-2.4-3.5-5.6-8.4-7.1-10.8h-0.1v14.1c0,3,0.1,6,0.4,7c0.1,0.6,0.3,0.7,1.2,0.8l3.4,0.4v1.8c-2-0.1-4.2-0.2-5.8-0.2
				c-1.6,0-3.5,0.1-5.3,0.2v-1.8l1.9-0.3c0.7-0.1,1.1-0.3,1.2-0.8c0.2-1,0.4-4.8,0.4-9.4v-11.5c0-2,0-2.1-1.2-2.3l-2.2-0.2v-1.8
				c0.7,0,1.3,0.1,1.9,0.1c0.6,0,1.2,0,1.7,0c1.1,0,2.4-0.1,3.7-0.2l6.7,10.1c3,4.5,6.7,10,8.4,12.7h0.1V330.2z"/>
			<path d="M333.5,331.6c-0.4-1.5-1.2-3.6-1.8-4.5c-0.5-0.8-1.5-1.4-4.1-1.4c-6.3,0-11,4.3-11,11.8c0,7.6,4,12.2,11,12.2
				c1.8,0,3.2-0.3,3.8-0.8c0.3-0.2,0.4-0.6,0.4-1.5v-2.3c0-0.3,0-0.8-0.1-1.2c-0.1-0.7-0.3-0.8-1.4-0.9l-2.1-0.3v-1.9
				c1.6,0.2,3.1,0.2,4.7,0.2c1.5,0,3.1-0.1,4.6-0.2v1.9l-0.8,0.1c-0.7,0.1-1,0.2-1.2,0.5c-0.2,0.3-0.3,1.2-0.3,2.1v5.2
				c-2.9,0.9-5.1,1.4-8.2,1.4c-9,0-14.2-5.1-14.2-13.5c0-4.3,1.6-8.4,4.4-11c4.5-4.2,10.7-4.3,16.9-4.3l0.7,8.3L333.5,331.6z"/>
			<path d="M368.7,331.7c-0.5-1.9-1.1-3.4-1.7-4.5c-0.3-0.5-0.7-0.8-1.1-1.1c-0.6-0.3-1.6-0.4-2.9-0.4c-6.4,0-10.8,4.9-10.8,11.8
				c0,7.1,3.6,12.2,11.1,12.2c2.7,0,3.7-0.4,4.3-1.6c0.6-1.2,1.2-3.1,1.9-5.2l1.3,0.2l-0.4,7.6c-2.6,0.8-5.3,1.2-8,1.2
				c-8.8,0-14-5.3-14-13.5c0-4.5,1.6-8.4,4.4-11.1c4.5-4.2,10.6-4.4,16.6-4.3l0.8,8.3L368.7,331.7z"/>
			<path d="M381.6,336l4.6-0.1c1.1,0,1.6,0,1.9-0.3c0.3-0.2,0.4-1.4,0.5-2h1.9c-0.1,1.6-0.2,2.2-0.2,3.3c0,1.5,0,2.4,0.3,4.6
				l-1.8,0.1c-0.1-1-0.4-2.1-0.5-2.6c-0.2-0.7-1-0.7-2.2-0.7h-4.4v7.7c0,1.2,0,2,0.2,2.5c0.3,0.8,0.7,1,3.2,1c3.3,0,5-0.2,5.5-0.6
				c0.4-0.4,1-2.1,1.7-5l1.6,0.2l-0.7,7.5c-7.2,0-10-0.2-13.4-0.2c-1.2,0-3.4,0.1-5.5,0.2v-1.8l2.6-0.3c0.9-0.1,1-0.1,1.1-0.6
				c0-0.8,0.1-1.4,0.1-2.8v-17.2c0-1.4,0-1.9-0.1-2.7c0-0.4-0.2-0.5-1.1-0.6l-2.6-0.3v-1.8c2,0.1,3.6,0.2,6.5,0.2
				c3.6,0,7.5-0.1,11.1-0.2l-0.4,7.5h-1.4c-0.4-2.2-0.6-3.3-0.8-4.1c-0.3-0.8-0.7-0.9-3.1-1c-1.6,0-2.2-0.1-3-0.1h-1.4V336z"/>
			<path d="M419.5,330.2c0-2.8-0.2-4-0.5-4.3c-0.2-0.2-0.4-0.3-1.2-0.4l-3.5-0.3v-1.8c1.7,0.1,3.7,0.2,5.4,0.2
				c1.7,0,3.7-0.1,5.8-0.2v1.8l-1.6,0.2c-0.5,0-0.8,0.1-1.1,0.4c-0.3,0.4-0.5,1.5-0.5,9.8v10.2c0,2,0,3.9,0.1,5.7h-3.1l-9-13.2
				c-2.4-3.5-5.6-8.4-7.1-10.8H403v14.1c0,3,0.1,6,0.4,7c0.1,0.6,0.3,0.7,1.2,0.8l3.4,0.4v1.8c-2-0.1-4.2-0.2-5.8-0.2
				c-1.6,0-3.5,0.1-5.3,0.2v-1.8l1.9-0.3c0.7-0.1,1.1-0.3,1.2-0.8c0.2-1,0.4-4.8,0.4-9.4v-11.5c0-2,0-2.1-1.2-2.3l-2.2-0.2v-1.8
				c0.7,0,1.3,0.1,1.9,0.1c0.6,0,1.2,0,1.7,0c1.1,0,2.4-0.1,3.7-0.2l6.7,10.1c3,4.5,6.7,10,8.4,12.7h0.1V330.2z"/>
			<path d="M440.8,346.1c0,1.4,0,2,0.1,2.8c0,0.4,0.2,0.4,1.1,0.6l2.6,0.3v1.8c-1.9-0.1-3.7-0.2-5.6-0.2c-1.8,0-3.7,0.1-5.5,0.2
				v-1.8l2.6-0.3c0.9-0.1,1-0.1,1.1-0.6c0-0.8,0.1-1.4,0.1-2.8v-20.5h-1.5c-0.7,0-1.8,0.1-2.2,0.1c-2.3,0.1-2.8,0.2-3.1,1
				c-0.3,0.8-0.4,2-0.8,4.2h-1.4l-0.4-7.5c3.8,0.1,7.5,0.2,11.4,0.2c3.7,0,7.5-0.1,11.2-0.2l-0.4,7.5h-1.4c-0.4-2.2-0.6-3.3-0.8-4.2
				c-0.2-0.8-0.7-0.9-3.1-1c-0.4,0-1.7-0.1-2.2-0.1h-1.6V346.1z"/>
			<path d="M460.1,336l4.6-0.1c1.1,0,1.6,0,1.9-0.3c0.3-0.2,0.4-1.4,0.5-2h1.9c-0.1,1.6-0.2,2.2-0.2,3.3c0,1.5,0,2.4,0.3,4.6
				l-1.8,0.1c-0.1-1-0.4-2.1-0.5-2.6c-0.2-0.7-1-0.7-2.2-0.7h-4.4v7.7c0,1.2,0,2,0.2,2.5c0.3,0.8,0.7,1,3.2,1c3.3,0,5-0.2,5.5-0.6
				c0.4-0.4,1-2.1,1.7-5l1.6,0.2l-0.7,7.5c-7.2,0-10-0.2-13.4-0.2c-1.2,0-3.4,0.1-5.5,0.2v-1.8l2.6-0.3c0.9-0.1,1-0.1,1.1-0.6
				c0-0.8,0.1-1.4,0.1-2.8v-17.2c0-1.4,0-1.9-0.1-2.7c0-0.4-0.2-0.5-1.1-0.6l-2.6-0.3v-1.8c2,0.1,3.6,0.2,6.5,0.2
				c3.6,0,7.5-0.1,11.1-0.2l-0.4,7.5h-1.4c-0.4-2.2-0.6-3.3-0.8-4.1c-0.3-0.8-0.7-0.9-3.1-1c-1.6,0-2.2-0.1-3-0.1h-1.4V336z"/>
			<path d="M482.7,346.1c0,1.4,0,2,0.1,2.8c0,0.4,0.1,0.4,1,0.6l2.6,0.3v1.8c-1.9-0.1-3.6-0.2-5.5-0.2c-1.8,0-3.7,0.1-5.5,0.2v-1.8
				l2.5-0.3c0.9-0.1,1-0.1,1.1-0.6c0-0.8,0.1-1.4,0.1-2.8v-20.7c-1.2,0-2.4,0.1-3.6,0.1v-1.9c2.5-0.2,4-0.3,7-0.3
				c3.3,0,6.6,0.1,8.8,1c2.3,0.8,3.6,2.6,3.6,5.1c0,3.6-2,5.9-4.9,7.8c1.6,3.2,3.3,5.9,5.2,8.3c1.5,2,3,3.6,4.8,4.9l-0.4,1.2h-0.3
				c-3.3,0-5.8-2-9.5-7.8c-0.7-1-1.7-2.5-2.4-3.7c-1.1-1.6-2.7-1.7-4.5-1.7h-0.3V346.1z M482.7,336.7h0.5c4.8,0,7.9-2.3,7.9-6
				c0-5.1-4.5-5.2-8.4-5.2V336.7z"/>
		</g>
		<g>
			<path class="st8" d="M29.6,295.9L29.6,295.9c-0.6,2.6-2.7,4-5.9,4H11.9c-3.7,0-6.6-1.3-6.6-5.5v-8.2c0-1.1-0.7-1.4-3.2-1.4v-1.5
				l7.1-0.3v11.6c0,2.4,1.1,3.6,3,3.7h10.5c2.3,0,3.3-1.7,3.3-4.3v-10.8c0-1.1,0-1.4-2-2l5.9-1.1v11.3c0,2.8,2,6.8,5,6.8h1.3v1.6
				h-0.5C33.3,299.8,30.7,298.2,29.6,295.9z M20.1,305.3c0,1.3-1.1,2.3-2.3,2.3c-1.2,0-2.3-1-2.3-2.3c0-1.3,1.1-2.3,2.3-2.3
				C19,303,20.1,304,20.1,305.3z"/>
			<path class="st8" d="M35.3,298.2h7v1.6h-7V298.2z"/>
			<path class="st8" d="M41.5,298.2h7v1.6h-7V298.2z"/>
			<path class="st8" d="M47.7,298.2h7v1.6h-7V298.2z"/>
			<path class="st8" d="M53.8,298.2h7v1.6h-7V298.2z"/>
			<path class="st8" d="M63.3,306.1c0,1.2-1,2.3-2.3,2.3c-1.4,0-2.3-1-2.3-2.3c0-1.2,0.9-2.2,2.3-2.2
				C62.3,303.9,63.3,304.9,63.3,306.1z M60,298.2h3.6c2.3,0,3.3-1.7,3.3-4.3v-10.8c0-1.1,0-1.4-2-2l5.9-1.1v14
				c0,3.7-2.7,5.8-6.4,5.8H60V298.2z M69.7,306.1c0,1.2-0.9,2.3-2.3,2.3c-1.3,0-2.3-1-2.3-2.3c0-1.2,0.9-2.2,2.3-2.2
				C68.8,303.9,69.7,304.9,69.7,306.1z"/>
			<path class="st8" d="M80.7,283.1c0-1.1,0-1.4-2-2l5.9-1.1v11c0,7.9-0.8,16.7-10.7,16.7c-0.6,0-1.6,0-3.2-0.2
				c6.4-1.7,9.6-4.9,10-13.2V283.1z"/>
			<path class="st8" d="M88.4,298.2h12.9v-5.5c0-7.6-0.6-11.2-2.8-11.2c-1.6,0-3.9,2.9-6.5,6.7l-0.8-3.5c1.1,0,1.9-0.3,3.8-2.5
				c0.9-1.1,2.3-2.2,4-2.2h0.1c5.3,0.1,6.5,10.6,6.6,18.1h4.2v1.6H89.8L88.4,298.2z"/>
			<path class="st8" d="M109.1,298.2h7v1.6h-7V298.2z"/>
			<path class="st8" d="M115.2,298.2h7v1.6h-7V298.2z"/>
			<path class="st8" d="M121.4,298.2h7v1.6h-7V298.2z"/>
			<path class="st8" d="M127.6,298.2h7v1.6h-7V298.2z"/>
			<path class="st8" d="M133.7,298.2h7v1.6h-7V298.2z"/>
			<path class="st8" d="M156.1,299.8c-2.3,0-4.2-1.4-5.6-3.5c-1.1,2.7-3.8,3.5-6.6,3.5h-4v-1.6h3.3c2.3,0,3.3-1.6,3.3-4.1v-11.1
				c0-1-0.2-1.2-2-1.8l5.9-1.1v11.3c0,2.8,1.9,6.8,4.9,6.8h2.5v1.6H156.1z M146.5,273.1c0,1.2-1,2.3-2.3,2.3c-1.4,0-2.3-1-2.3-2.3
				c0-1.3,0.9-2.3,2.3-2.3C145.5,270.9,146.5,271.8,146.5,273.1z M152.9,273.1c0,1.2-0.9,2.3-2.3,2.3c-1.3,0-2.3-1-2.3-2.3
				c0-1.3,0.9-2.3,2.3-2.3C152,270.9,152.9,271.8,152.9,273.1z"/>
			<path class="st8" d="M157.1,298.2h7v1.6h-7V298.2z"/>
			<path class="st8" d="M163.2,298.2h7v1.6h-7V298.2z"/>
			<path class="st8" d="M169.4,298.2h7v1.6h-7V298.2z"/>
			<path class="st8" d="M175.6,298.2h7v1.6h-7V298.2z"/>
			<path class="st8" d="M197.2,299.8c-2.3,0-4.2-1.4-5.6-3.5c-1.1,2.7-3.8,3.5-6.6,3.5h-3.3v-1.6h2.5c2.4,0,3.3-1.6,3.3-4.1v-19.8
				c0-1-0.2-1.2-2-1.8l5.8-1.1v20c0,2.8,2,6.8,5,6.8h1.7v1.6H197.2z"/>
			<path class="st8" d="M197.3,298.2h7v1.6h-7V298.2z"/>
			<path class="st8" d="M203.5,298.2h7v1.6h-7V298.2z"/>
			<path class="st8" d="M209.6,298.2h1c2.5,0,3.5-1.6,3.5-4.3v-19.4c0-1,0-1.3-2-2l5.9-1.1V294c0,3.7-2.7,5.8-6.5,5.8h-1.9V298.2z"
				/>
			<path class="st8" d="M234.5,274.8c0-1.1-0.7-1.5-3.2-1.5v-1.5l7.1-0.3v22.9c0,2.4,1.1,3.6,2.9,3.7h2.2v1.6h-2.5
				c-3.8,0-6.6-1.3-6.6-5.5V274.8z"/>
			<path class="st8" d="M242.7,298.2h7v1.6h-7V298.2z"/>
			<path class="st8" d="M248.9,298.2h7v1.6h-7V298.2z"/>
			<path class="st8" d="M255.1,298.2h7v1.6h-7V298.2z"/>
			<path class="st8" d="M283.3,296.8c-1.3,2.7-4,4.9-8.3,4.9c-4,0-5.9-2.1-7.2-3.8c-1,1.1-2.3,1.9-4.7,1.9h-1.8v-1.6h1.8
				c0.4-0.1,1.2-0.2,1.7-0.7c1.3-1.3,2-3.9,2.6-6.2c1.1-4.1,2.2-8.2,8.7-8.2c5.4,0,8.3,5.4,8.3,9.5c0,0.6,0,1.1-0.1,1.6
				c0.8,2.1,2.3,4,4.3,4h1.9v1.6h-1C286.5,299.8,284.8,298.8,283.3,296.8z M275.3,284.5c-2.8,0-3.7,3.2-4.6,6.7l-0.1,0.3
				c-0.4,1.5-0.8,3.1-1.6,4.7c0.1,0,0.2,0.2,0.2,0.3c1.2,1.4,3.1,3.7,5.9,3.7c2.8,0,5.2-3.3,5.2-7.3c0-4.2-1.6-8.2-4.8-8.3H275.3z"
				/>
			<path class="st8" d="M289.5,298.2h7v1.6h-7V298.2z"/>
			<path class="st8" d="M295.7,298.2h7v1.6h-7V298.2z"/>
			<path class="st8" d="M301.9,298.2h7v1.6h-7V298.2z"/>
			<path class="st8" d="M340.4,296c-0.8,2.4-3.1,3.8-6.2,3.8c-2.9,0-5.1-1.6-6-3.8c-0.6,2.1-3.4,3.8-6.1,3.8c-3,0-4.7-1-6.2-3.1
				c-1,2-3.2,3-6,3h-1.9v-1.6h1c2.4,0,3.5-1.6,3.5-4.3v-7.8c0-1,0-1.2-2-1.8l5.9-1.1v9c0.3,2.7,2,6.1,4.7,6.1c2.5,0,3.6-1.6,3.6-4.3
				v-9.5c0-0.9,0-1.1-2-1.8l5.9-1.1v9.7c0,2.8,1.7,7,4.8,7c2.5,0,3.5-1.6,3.5-4.3v-11c0-1,0-1.3-1.9-2l5.8-1.1V293
				c0.5,2.6,2.4,5.2,4.9,5.2h1.2v1.6h-0.5C344,299.8,341.5,298.3,340.4,296z"/>
			<path class="st8" d="M346.2,298.2h7v1.6h-7V298.2z"/>
			<path class="st8" d="M352.3,298.2h7v1.6h-7V298.2z"/>
			<path class="st8" d="M358.5,298.2h7v1.6h-7V298.2z"/>
			<path class="st8" d="M364.7,298.2h2.3c2.4,0,3.3-1.7,3.3-4.3v-10.8c0-1.1,0-1.4-2-2l5.9-1.1v14c0,3.7-2.7,5.8-6.4,5.8h-3.1V298.2
				z M374.2,273.1c0,1.2-0.9,2.3-2.3,2.3c-1.3,0-2.2-1-2.2-2.3c0-1.3,0.9-2.3,2.2-2.3C373.3,270.9,374.2,271.8,374.2,273.1z"/>
			<path class="st8" d="M392.7,283.1c0-1.1,0-1.4-2-2l5.9-1.1v11c0,2.4-0.1,4.8-0.4,7.1h6.4v1.6h-6.8c-1.1,4.5-3.7,8-9.9,8
				c-0.5,0-1.6,0-3.2-0.2c6.5-1.7,9.7-4.9,10-13.2V283.1z M396.1,274.2c0,1.3-1.1,2.3-2.3,2.3c-1.2,0-2.3-1-2.3-2.3
				c0-1.3,1.1-2.3,2.3-2.3C395.1,271.9,396.1,272.9,396.1,274.2z"/>
			<path class="st8" d="M401.8,298.2h7v1.6h-7V298.2z"/>
			<path class="st8" d="M407.9,298.2h7v1.6h-7V298.2z"/>
			<path class="st8" d="M432.9,274.5c-0.2,2.3-6.6,5.7-11,7c5.1,0.6,9.3,4.7,9.3,9.1v7.6h0.5l1.1,1.6h-18.7v-1.6H427v-7.5
				c0-3.3-1.8-8-6.9-8H416l1-1.6h1.1c2.8,0,11.4-5.9,11.8-10.7L432.9,274.5z"/>
			<path class="st8" d="M442.8,283.1c0-1.1,0-1.4-2-2l5.9-1.1v11c0,2.4-0.1,4.8-0.5,7.1h6.5v1.6H446c-1.1,4.5-3.7,8-9.9,8
				c-0.6,0-1.6,0-3.2-0.2c6.4-1.7,9.6-4.9,10-13.2V283.1z"/>
			<path class="st8" d="M451.9,298.2h7v1.6h-7V298.2z"/>
			<path class="st8" d="M458.1,298.2h7v1.6h-7V298.2z"/>
			<path class="st8" d="M464.2,298.2h7v1.6h-7V298.2z"/>
			<path class="st8" d="M470.4,298.2h1.6c5.1,0,6.1-3.6,7.1-7.2c1-3.7,2.4-7.8,8.7-7.9c5.4,0,8.3,5.4,8.3,9.5c0,4.3-3.1,9.1-9.4,9.1
				c-4.1,0-5.9-2.1-7.3-3.8c-1.1,1.1-2.7,1.9-5,1.9h-4.1V298.2z M487.2,284.5c-2.8,0-3.7,3.2-4.6,6.7c-0.5,1.6-0.8,3.3-1.7,5
				l0.4,0.5c1.2,1.3,3,3.4,5.7,3.4c2.8,0,5.2-3.3,5.2-7.3c0-4.2-1.6-8.2-4.8-8.3H487.2z"/>
		</g>
	</g>
</g>
</svg>
