<?xml version="1.0" encoding="utf-8"?>
<!-- Generator: Adobe Illustrator 26.0.1, SVG Export Plug-In . SVG Version: 6.00 Build 0)  -->
<svg version="1.1" id="Layer_1" xmlns="http://www.w3.org/2000/svg" xmlns:xlink="http://www.w3.org/1999/xlink" x="0px" y="0px"
	 viewBox="0 0 500 164.6" style="enable-background:new 0 0 500 164.6;" xml:space="preserve">
<style type="text/css">
	.st0{fill:#515051;}
	.st1{fill:#F75810;}
	.st2{fill:#515759;}
	.st3{fill:#FFFFFF;}
</style>
<g>
	<g>
		<g>
			<g>
				<path class="st1" d="M453.4,0c-25.6,0-67.6,0-93.1,0c-12.7,22.3-33.8,58.9-46.6,81.3c12.8,22.3,33.9,59,46.6,81.3
					c25.5,0,67.5,0,93.1,0c12.8-22.3,33.8-59,46.6-81.3C487.3,58.9,466.2,22.3,453.4,0z"/>
			</g>
		</g>
		<g>
			<g>
				<path class="st2" d="M450.6,3.2h-88.5h-0.4l-0.2,0.4l-32.1,55.9l-12.2,21.3l-0.2,0.4c0,0,0.2,0.4,0.2,0.4
					c13.1,22.8,32.6,56.6,44.3,77.3l0.2,0.4h0.4h88.5h0.4l0.2-0.4l23.4-40.9l20.8-36.4l0.2-0.4c0,0-0.2-0.4-0.2-0.4l-26.8-46.8
					L451.3,3.6L451,3.2H450.6z M494.2,80.8l-20.8,36.4L450,158.1l0.6-0.4h-88.5l0.6,0.4c-11.8-20.6-31.2-54.5-44.3-77.3v0.7
					l12.2-21.3l32.1-55.9l-0.6,0.4h88.5L450,4.3l17.5,30.5l26.8,46.8L494.2,80.8z"/>
			</g>
		</g>
		<g>
			<g>
				<path class="st2" d="M448.7,7h-84.2H364l-0.2,0.4l-30.6,53.3l-11.6,20.1l-0.2,0.4l0.2,0.4c12.5,21.6,31,53.9,42.2,73.5l0.2,0.4
					h0.4h84.2h0.4l0.2-0.4l21.6-37.8l20.5-35.7l0.2-0.4c0,0-0.2-0.4-0.2-0.4l-25.9-45.2L449.3,7.4L449.1,7H448.7z M490.1,80.8
					l-20.5,35.7L448,154.3l0.6-0.4h-84.2l0.6,0.4c-11.2-19.6-29.7-51.9-42.2-73.5v0.7l11.6-20.1l30.6-53.3l-0.6,0.4h84.2L448,8.1
					l16.2,28.3l25.9,45.2V80.8z"/>
			</g>
		</g>
		<g>
			<g>
				<path class="st2" d="M445.9,11.9H368h-0.4l-0.2,0.4l-28.2,49.2l-10.8,18.8l-0.2,0.4l0.2,0.4c11.6,20.1,28.7,49.9,39,68.1
					l0.2,0.4h0.4h77.9h0.4l0.2-0.4l21.4-37.4L485.5,81l0.2-0.4l-0.2-0.4l-23.4-40.9l-15.6-27.2l-0.2-0.4H445.9z M484.2,80.2
					l-17.5,30.6l-21.4,37.4l0.6-0.4H368l0.6,0.4c-10.3-18.1-27.5-48-39-68.1V81l10.8-18.9L368.6,13l-0.6,0.4h77.9l-0.6-0.4
					l15.6,27.2L484.2,81V80.2z"/>
			</g>
		</g>
		<g>
			<g>
				<path class="st2" d="M444.2,15.2H370h-0.4l-0.2,0.4L342,63.3l-9.7,17l-0.2,0.4l0.2,0.4c11.2,19.5,27.6,48,37.1,64.7l0.2,0.4h0.4
					h74.2h0.4l0.2-0.4l19.6-34.3L481.9,81l0.2-0.4c0,0-0.2-0.4-0.2-0.4l-22.6-39.4l-14.5-25.3l-0.2-0.4H444.2z M480.6,80.2
					l-17.4,30.4L443.6,145l0.6-0.4H370l0.6,0.4c-9.5-16.7-25.9-45.2-37.1-64.7V81l9.7-17l27.4-47.8l-0.6,0.4h74.2l-0.6-0.4
					l14.5,25.3L480.6,81V80.2z"/>
			</g>
		</g>
		<g>
			<g>
				<path class="st2" d="M441,19.7h-68.5h-0.4l-0.2,0.4l-24.7,43.1l-9.6,16.7l-0.2,0.4l0.2,0.4c10.3,17.9,25.4,44.3,34.3,59.8
					l0.2,0.4h0.4H441h0.4l0.2-0.4l18.6-32.5l15.7-27.3l0.2-0.4c0,0-0.2-0.4-0.2-0.4L455.4,44l-13.7-23.9l-0.2-0.4H441z M474.7,79.9
					L459,107.2l-18.6,32.5l0.6-0.4h-68.5l0.6,0.4c-8.9-15.6-24-41.9-34.3-59.8v0.7l9.6-16.7l24.7-43.1l-0.6,0.4H441l-0.6-0.4
					l13.7,23.9l20.6,35.9V79.9z"/>
			</g>
		</g>
		<g>
			<g>
				<path class="st2" d="M439.5,22.6h-65.2h-0.4l-0.2,0.4l-24.4,42.5L341,79.9l-0.2,0.4l0.2,0.4l32.7,56.9l0.2,0.4c0,0,0.4,0,0.4,0
					h65.2h0.4l0.2-0.4l17.3-30.1l15.3-26.8l0.2-0.4c0,0-0.2-0.4-0.2-0.4l-19.9-34.8L440.1,23l-0.2-0.4H439.5z M471.5,79.9
					l-15.3,26.8l-17.3,30.2l0.6-0.4h-65.2l0.6,0.4l-32.7-56.9v0.7l8.3-14.4l24.4-42.5l-0.6,0.4h65.2l-0.6-0.4l12.7,22.1l19.9,34.8
					V79.9z"/>
			</g>
		</g>
		<g>
			<g>
				<path class="st3" d="M436,27.9c-16,0-42.2,0-58.2,0c-8,14.4-21.1,38-29.2,52.4c8,14.4,21.2,38,29.2,52.4c16,0,42.2,0,58.2,0
					c8-14.4,21.1-38.1,29.1-52.4C457.1,65.9,444,42.3,436,27.9z"/>
			</g>
		</g>
	</g>
	<g>
		<path class="st0" d="M15.7,50.1C15,53,15,55.4,15.5,57.5c0.5,2.1,1.5,3.8,2.9,5.2c1.4,1.4,3.1,2.4,5.1,3.1c2,0.7,4.2,1,6.6,1h3.5
			L33.5,77h-2c-2.7,0-5.4-0.1-8.2-0.4c-2.8-0.3-5.4-0.8-7.9-1.6c-2.5-0.8-4.8-1.8-7-3c-2.1-1.3-3.9-2.8-5.3-4.8
			c-1.4-1.9-2.3-4.2-2.8-6.9c-0.5-2.6-0.3-5.7,0.5-9.2C2.5,43.2,4.3,35.3,6,27.5c1.7-7.8,3.5-15.7,5.4-23.6h7.4h7.4L15.7,50.1z"/>
		<path class="st0" d="M94.5,25.7c1.4,0.4,2.8,0.9,4.3,1.6c1.4,0.6,2.7,1.5,3.9,2.4c1.5,1.2,2.8,2.7,3.8,4.3
			c1.1,1.6,1.9,3.4,2.5,5.2c0.6,1.9,1,3.9,1.1,5.9c0.1,2.1-0.1,4.2-0.5,6.3c-0.8,3.3-1.9,6.2-3.4,8.7c-1.5,2.5-3.2,4.7-5.3,6.6h9.3
			L110,77H95.1h-4.3c-0.5,0-1,0-1.5,0.1c-0.5,0-0.9,0.1-1.3,0.2c-0.4,0.1-0.8,0.2-1.2,0.2c-2.9,0.2-5.8,0.4-8.7,0.5
			c-2.9,0.1-5.7,0-8.5-0.4c-2.8-0.3-5.5-1-8.1-1.9c-2.6-0.9-5-2.2-7.2-3.9c-1.6,1.7-3.4,3-5.6,4c-2.2,1-4.6,1.4-7.4,1.2h-7.8
			l0.2-10.3h2.8c5.1,0,8.5-2.9,10.2-8.5c2.3-9.3,5.8-16.6,10.5-22c4.8-5.4,11.5-9,20.1-10.7c3.3-0.6,6.3-0.8,9.2-0.7
			C89.3,24.9,92,25.2,94.5,25.7z M74.1,37.6c-2,1.1-3.9,2.6-5.4,4.3c-1.6,1.7-2.8,3.6-3.8,5.6c-0.9,2-1.5,4.1-1.7,6.2
			c-0.2,2.1,0,4,0.7,5.9c0.6,1.8,1.6,3.3,3,4.4c1.4,1.1,3,1.9,4.8,2.4c1.8,0.4,3.7,0.5,5.8,0.2c2.1-0.3,4.2-1,6.2-2.1
			c2-1.1,3.8-2.6,5.4-4.3c1.6-1.7,2.8-3.6,3.7-5.6c0.9-2,1.5-4.1,1.7-6.2c0.2-2.1,0-4.1-0.6-5.9c-0.7-1.8-1.7-3.3-3.1-4.4
			c-1.3-1.1-2.9-1.9-4.7-2.4c-1.8-0.4-3.7-0.5-5.8-0.2C78.3,35.8,76.2,36.5,74.1,37.6z"/>
		<path class="st0" d="M143.6,25h15l-4.8,19.9c-0.3,1.4-0.7,2.9-1,4.4c-0.3,1.5-0.5,3-0.5,4.5c0,1.5,0.1,2.9,0.5,4.3
			c0.4,1.4,1,2.7,2.1,3.8c1,1.2,2.2,1.9,3.6,2.3c1.4,0.4,2.7,0.4,4.2,0.2c1.4-0.2,2.8-0.7,4.2-1.4c1.3-0.7,2.5-1.5,3.5-2.5
			c2.3-2.1,3.8-4.5,4.7-7.1c0.8-2.6,1.6-5.5,2.4-8.5l4.8-19.9h15l-4.8,19.9c-0.4,1.5-0.7,3-1,4.5c-0.3,1.5-0.4,3-0.4,4.5
			c0,1.5,0.3,2.9,0.8,4.2c0.5,1.3,1.4,2.6,2.7,3.7c1,0.9,2,1.5,3.2,1.9c1.2,0.4,2.4,0.5,3.7,0.4c1.3-0.1,2.5-0.5,3.7-1.1
			c1.2-0.6,2.3-1.4,3.4-2.4c1.2-1.3,2.3-2.9,3.3-4.8c0.9-1.9,1.6-3.8,2-5.8L220,25h15c-0.8,3.3-1.6,6.5-2.5,9.7
			c-0.9,3.2-1.6,6.5-2.3,9.8c-0.3,1.4-0.6,2.9-0.8,4.5c-0.3,1.6-0.4,3.3-0.4,4.9c0,1.7,0.3,3.3,0.8,4.8c0.5,1.6,1.4,3,2.7,4.2
			c1.3,1.3,2.9,2.2,4.9,2.8c1.9,0.6,4,0.9,6.3,0.9h3.7L246.8,77h-2.3c-2,0-4.2-0.1-6.8-0.3c-2.5-0.2-5.1-0.5-7.6-1.1
			c-2.5-0.6-4.9-1.5-7.1-2.6c-2.2-1.1-4-2.6-5.4-4.6c-2.9,2.4-6.1,4.4-9.5,5.8c-3.4,1.4-6.8,2.2-10.3,2.3c-3.5,0.1-6.9-0.4-10.1-1.7
			c-3.3-1.3-6.2-3.4-8.8-6.2c-3.6,2.6-7,4.7-10.4,6.2c-3.3,1.6-6.6,2.5-9.7,2.6c-3.2,0.2-6.3-0.4-9.3-1.8c-3-1.4-6-3.8-9-7.1
			c-2.2,1.6-4.6,3-7.2,4c-2.6,1.1-5.2,2-7.9,2.6c-2.7,0.6-5.4,1.1-8,1.4c-2.7,0.3-5.2,0.4-7.7,0.4l0.3-10.3h5.5
			c2.2,0,4.4-0.3,6.7-0.9c2.2-0.6,4.3-1.5,6.3-2.8c2-1.2,3.7-2.8,5.2-4.7c1.5-1.9,2.7-4.1,3.5-6.7L143.6,25z"/>
		<path class="st0" d="M282.8,25.1h14.7c-1.1,4.4-2.2,8.7-3.3,13c-1.1,4.3-2.2,8.6-3.3,13c-0.9,3.5-2.2,6.6-4,9.3
			c-1.8,2.6-3.8,4.9-6,6.9c-2.3,1.9-4.8,3.5-7.5,4.8c-2.7,1.3-5.6,2.3-8.5,3c-2.9,0.8-5.8,1.3-8.8,1.6c-2.9,0.3-5.7,0.4-8.4,0.4
			h-1.1l0.4-10.3h7.1c2.4,0,4.7-0.3,7-1c2.3-0.7,4.5-1.7,6.5-3.1c2-1.4,3.8-3.1,5.3-5.2c1.5-2.1,2.7-4.5,3.4-7.3L282.8,25.1z
			 M295.4,5.2c1.4,0,2.6,0.2,3.8,0.5c1.1,0.3,2.1,0.7,2.9,1.3c0.8,0.5,1.4,1.1,1.8,1.8c0.3,0.7,0.4,1.4,0.2,2.2
			c-0.2,0.8-0.7,1.5-1.4,2.2c-0.7,0.7-1.6,1.3-2.7,1.8c-1.1,0.5-2.3,1-3.6,1.3c-1.3,0.3-2.6,0.5-4,0.5c-1.3,0-2.5-0.2-3.7-0.5
			c-1.1-0.3-2.1-0.7-2.8-1.3c-0.8-0.5-1.3-1.1-1.7-1.8c-0.4-0.7-0.4-1.4-0.2-2.2c0.2-0.8,0.6-1.5,1.3-2.2c0.7-0.7,1.6-1.3,2.6-1.8
			c1-0.5,2.2-0.9,3.5-1.3C292.7,5.4,294,5.2,295.4,5.2z"/>
	</g>
	<g>
		<path class="st0" d="M72.9,147.8H41.5v16.9h-4.4v-20.9h6.6c0-0.1,0.1-1.7,0.2-5.1c0.3-4.7,2.2-8.9,5.8-12.7
			c3.6-3.8,7.6-5.7,12.2-5.7h5v23.2h6V147.8z M62.6,143.7v-19.2c-5.1,0.4-8.9,2.5-11.4,6.3c-2.2,3.3-3.3,7.6-3.3,12.9H62.6z"/>
		<path class="st0" d="M119.5,147.8H71.2v-4.3h6.5c0.1-0.5,0.2-1.6,0.2-3.4c0.2-4,1.8-7.9,4.9-11.9c3.2-4.2,6.8-6.4,10.6-6.6
			c0.7-0.1,1.8-0.3,3.2-0.4c0.4-1.8,0.8-2.9,1.2-3.4c0.6-0.9,1.6-1.5,3.1-1.7v4.9c1.6,0.2,3.9,0.7,6.9,1.5c2.9,1.3,5.5,3.6,7.9,6.8
			c2.5,3.4,3.8,6.6,3.8,9.7V147.8z M96.6,143.5v-17.6c-6.4,0.3-10.4,2.6-12,7c-0.4,0.7-1,1.7-1.6,3.2c-0.7,1.5-1,3.9-0.9,7.5H96.6z
			 M115.2,143.5v-4.8c0-2.4-1.2-4.9-3.7-7.7c-2.4-2.7-4.8-4.3-7.1-4.8c-0.8-0.1-2-0.2-3.5-0.4v17.6H115.2z"/>
		<path class="st0" d="M146.1,147.8h-15v-42.7c0.8,0.1,1.7,0.7,2.8,1.7c1,1,1.5,1.9,1.5,2.7v34h10.8V147.8z"/>
		<path class="st0" d="M210.2,147.8h-66.5v-4.3H206v-5.2c0-1.7-0.7-3.5-2.2-5.5c-1.5-2-3-3-4.6-3h-48.2c-1.3,0-2-0.4-2-1.2
			c0-0.9,10.6-8.7,31.7-23.4l-18.3,19.2c0.1,0.7,0.6,1.1,1.6,1.1h35.4c1.9,0,3.8,1,5.9,3.1c1.8,1.9,3.4,4.7,4.8,8.4V147.8z"/>
		<path class="st0" d="M232.7,147.8h-5.7v16.9h-13.3v-0.8c0-0.3,0.1-0.6,0.4-0.9c1.3-1.5,2.5-2.3,3.7-2.5h4.6
			c0.1-18.8,0.2-29,0.2-30.8c0-0.8,0.5-1.7,1.5-2.7c1-1,1.9-1.6,2.6-1.6v18.1h6.1V147.8z"/>
		<path class="st0" d="M240.2,147.8h-9.7v-4.4h9.7V147.8z"/>
		<path class="st0" d="M268.3,120.2v27.5h-29.5v-12.6c0-0.6,0.5-1.3,1.4-2.1c0.7-0.5,1.4-1.1,2.1-1.7h0.7v12.3h8.3V130
			c0-0.6,0.6-1.4,1.7-2.5c1.1-1.1,2-1.6,2.5-1.5v17.6h8.4v-18.8c0-0.9,0.4-1.9,1.2-2.8C266.3,121.1,267.2,120.5,268.3,120.2z
			 M248.9,113.8c0,1.7-0.9,2.6-2.6,2.6c-1.9,0-2.8-0.9-2.8-2.8c0-1.7,0.9-2.6,2.6-2.6C248,111.1,248.9,112,248.9,113.8z M253.8,107
			c0,0.9-0.3,1.6-0.9,2c-0.6,0.5-1.2,0.7-1.7,0.7c-0.9,0-1.6-0.3-2.1-1c-0.5-0.5-0.7-1.1-0.7-1.7c0-0.7,0.3-1.4,0.9-2
			c0.6-0.6,1.2-0.9,1.8-0.9c0.9,0,1.6,0.3,2.1,1C253.5,105.7,253.8,106.4,253.8,107z M259.3,113.8c0,0.8-0.3,1.4-0.9,1.9
			c-0.6,0.5-1.2,0.7-1.9,0.7c-1.8,0-2.8-0.9-2.8-2.8c0-0.7,0.3-1.3,0.9-1.8c0.6-0.5,1.2-0.8,1.9-0.8
			C258.4,111.1,259.3,112,259.3,113.8z"/>
		<path class="st0" d="M296,164.5h-23v-0.2c0-0.6,0.4-1.3,1.3-2.3c0.8-1,1.5-1.5,2.1-1.6c0.2-0.2,5.4-0.2,15.5-0.2v-12.5H273V141
			c0-5.4,1.7-10.1,5-14.3c3.6-4.4,8.1-6.6,13.4-6.6h4.6V164.5z M291.9,143.4v-18.7h-1.7c-3.2,0-6.2,1.8-9,5.4
			c-2.6,3.4-3.9,6.7-3.9,10v3.4H291.9z"/>
	</g>
</g>
</svg>
