<?xml version="1.0" encoding="utf-8"?>
<!-- Generator: Adobe Illustrator 26.0.1, SVG Export Plug-In . SVG Version: 6.00 Build 0)  -->
<svg version="1.1" id="Layer_1" xmlns="http://www.w3.org/2000/svg" xmlns:xlink="http://www.w3.org/1999/xlink" x="0px" y="0px"
	 viewBox="0 0 500 234.3" style="enable-background:new 0 0 500 234.3;" xml:space="preserve">
<style type="text/css">
	.st0{fill:#ADBF10;}
	.st1{fill:#C9001A;}
	.st2{fill:#0B8DB0;}
	.st3{fill:#0D0B0B;}
</style>
<path class="st0" d="M249.3,59.8c-18.3-20-40.4-32.6-57.6-32.8c-3.2,0-6.2,0.4-8.9,1.2l-2.8,0.9l2.9,0.6
	c17.8,3.5,38.7,16.9,55.9,35.7c21.1,23.1,33.1,50.3,30.5,69.2l-0.3,2.3l1.6-1.7C284.4,121.2,275.1,88,249.3,59.8z"/>
<path class="st1" d="M314.4,28.9c-5.2-5.3-13-8.2-22.5-8.3c-20.7-0.3-48,12.3-71.3,32.7c-30.3,26.6-47,60.2-40.6,81.5l0.9,2.9
	l0.6-2.9c4.8-22,21.9-47.5,45.6-68.4c26.1-22.9,56.6-37,79.7-36.7c2.4,0,4.7,0.2,6.9,0.6l2.3,0.4L314.4,28.9z"/>
<path class="st2" d="M308.1,93.5c-5-17.5-16.1-36.3-31.4-53C254.1,15.8,226.8,0.3,205.4,0c-4,0-7.7,0.5-11,1.5l-2.8,0.9l2.9,0.6
	c22,4.4,48,20.9,69.3,44.3c26.2,28.7,41.1,62.4,37.8,85.9l-0.3,2.3l1.6-1.7C311.3,125.5,313.1,111.1,308.1,93.5z"/>
<path class="st2" d="M317,54.8c-3.9-4-9.8-6.2-17-6.3c-15.6-0.2-36.1,9.2-53.6,24.6c-22.8,20-35.4,45.2-30.5,61.3l0.9,2.9l0.6-2.9
	c3.6-16.4,16.4-35.6,34.2-51.2C271,66,293.9,55.5,311.2,55.7c1.8,0,3.5,0.2,5.2,0.4l2.3,0.4L317,54.8z"/>
<g>
	<polygon class="st3" points="0.2,212.6 3.9,211.5 14,228.1 14.1,228.1 13.8,211.9 17.8,211.9 17.7,232.9 13.6,234 3.8,217.5 
		3.7,217.6 4,233.6 0,233.6 	"/>
	<polygon class="st3" points="22.8,211.9 34.4,211.9 34.4,215.4 26.8,215.4 26.8,220.9 34.3,220.9 34.3,224.2 26.7,224.2 
		26.7,230.1 34.4,230.1 34.4,233.6 22.6,233.6 	"/>
	<path class="st3" d="M38.6,229.3c1,0.7,2.6,1.5,3.8,1.5c2.2,0,3.5-1.4,3.5-3.1c0-4.3-8.9-2.5-8.9-9.9c0-3.5,2.9-6.3,7.2-6.3
		c2.2,0,4.3,0.8,6.1,1.8l-1.7,2.9c-1.3-0.7-2.5-1.4-4.1-1.4c-1.8,0-3.5,1-3.5,2.9c0,4.3,9.1,2.9,9.1,9.8c0,3.7-3,6.5-7.2,6.5
		c-2.1,0-4.1-0.6-5.9-1.7L38.6,229.3z"/>
	<polygon class="st3" points="56.9,211.9 61,211.9 66.2,229.2 66.3,229.2 72.3,211.9 76.4,211.9 79.6,233.6 75.5,234 73.9,216.9 
		73.8,216.9 68.3,233.6 64.2,233.6 59.2,216.9 59.1,216.9 56.9,234 53,233.6 	"/>
	<path class="st3" d="M91.8,216.1L91.8,216.1l-2.8,8.4h5.3L91.8,216.1z M85.4,234l-3.7-1.1l8.3-21h3.7l7.7,21l-3.9,1.1l-2.1-6.2
		h-7.5L85.4,234z"/>
	<polygon class="st3" points="117.4,215.4 111.3,215.4 111.4,211.9 127.4,211.9 127.4,215.4 121.4,215.4 121.3,233.6 117.3,233.6 	
		"/>
	<polygon class="st3" points="130.7,211.9 142.3,211.9 142.3,215.4 134.7,215.4 134.6,220.9 142.1,220.9 142.1,224.2 134.6,224.2 
		134.6,230.1 142.3,230.1 142.3,233.6 130.5,233.6 	"/>
	<polygon class="st3" points="146.5,211.9 150.5,211.9 150.3,230.1 158.8,230.1 158.8,233.6 146.3,233.6 	"/>
	<polygon class="st3" points="162,211.9 173.6,211.9 173.6,215.4 166,215.4 165.9,220.9 173.5,220.9 173.5,224.2 165.9,224.2 
		165.9,230.1 173.6,230.1 173.6,233.6 161.8,233.6 	"/>
	<path class="st3" d="M195.4,231.9c-2,1.4-4.4,2.1-6.9,2.1c-6.4,0-11.2-4.7-11.2-11.2c0-6.7,4.6-11.3,11.1-11.3
		c2.6,0,5.1,0.8,7.1,2.5l-1.8,2.8c-1.3-1.1-3.5-1.8-5.2-1.8c-4.2,0-7,3.4-7,7.7c0,4.1,2.8,8,6.9,8c2.8,0,4.1-0.7,5.4-1.4
		L195.4,231.9z"/>
	<path class="st3" d="M209,230.8c4.5,0,7.4-3.7,7.4-8c0-4.6-2.9-8-7.4-8c-3.6,0-7.4,3-7.4,8C201.5,227.5,204.5,230.8,209,230.8
		 M209,211.5c7,0,11.6,4.9,11.6,11.3c0,6.3-5,11.3-11.6,11.3c-6.6,0-11.6-4.7-11.6-11.3C197.3,216.4,202.5,211.5,209,211.5"/>
	<polygon class="st3" points="227.3,211.9 231.4,211.9 236.7,229.2 236.7,229.2 242.7,211.9 246.8,211.9 250,233.6 246,234 
		244.3,216.9 244.3,216.9 238.8,233.6 234.6,233.6 229.6,216.9 229.6,216.9 227.3,234 223.5,233.6 	"/>
	<path class="st3" d="M268.4,216.1c0,0.6,0.4,1.5,1.4,2.6c1.2-0.9,2-1.8,2-2.7c0-0.9-0.6-1.6-1.5-1.6
		C269.1,214.4,268.4,214.9,268.4,216.1 M268.9,222.8c-1.3,1-2.4,2.3-2.4,3.9c0,2.4,1.7,4,3.9,4c1.3,0,2.8-0.5,3.9-1.8L268.9,222.8z
		 M276.7,231.5c-1.9,1.7-3.9,2.5-6.5,2.5c-6.4,0-7.6-4.9-7.6-6.7c0-3,2.1-5.4,4.4-6.9c-1-1.3-1.8-2.5-1.8-4.3c0-3,2.3-4.7,5.1-4.7
		c2.5,0,4.8,1.7,4.8,4.4c0,2.2-1.4,3.8-3.3,5l4.5,4.9c0.4-1.4,0.5-3,0.6-4.5h3.4c0,2.5-0.3,4.9-1.4,7.2l3.1,3.4l-2.6,2.3
		L276.7,231.5z"/>
	<polygon class="st3" points="298.3,215.4 292.2,215.4 292.2,211.9 308.3,211.9 308.3,215.4 302.3,215.4 302.1,233.6 298.1,233.6 	
		"/>
	<polygon class="st3" points="311.6,211.9 323.1,211.9 323.1,215.4 315.6,215.4 315.5,220.9 323,220.9 323,224.2 315.5,224.2 
		315.4,230.1 323.1,230.1 323.1,233.6 311.3,233.6 	"/>
	<path class="st3" d="M345,231.9c-2,1.4-4.4,2.1-6.9,2.1c-6.5,0-11.2-4.7-11.2-11.2c0-6.7,4.6-11.3,11.1-11.3c2.6,0,5.1,0.8,7.1,2.5
		l-1.8,2.8c-1.3-1.1-3.5-1.8-5.2-1.8c-4.2,0-7,3.4-7,7.7c0,4.1,2.9,8,6.9,8c2.8,0,4.1-0.7,5.4-1.4L345,231.9z"/>
	<polygon class="st3" points="348.1,211.9 352.1,211.9 352,220.7 361.6,220.7 361.6,211.9 365.7,211.9 365.5,233.6 361.5,233.6 
		361.6,224.2 352,224.2 351.9,233.6 347.9,233.6 	"/>
	<polygon class="st3" points="370.7,212.6 374.4,211.5 384.5,228.1 384.6,228.1 384.3,211.9 388.3,211.9 388.1,232.9 384.1,234 
		374.2,217.5 374.2,217.6 374.5,233.6 370.5,233.6 	"/>
	<path class="st3" d="M403.7,230.8c4.5,0,7.4-3.7,7.4-8c0-4.6-2.9-8-7.4-8c-3.6,0-7.4,3-7.4,8C396.3,227.5,399.3,230.8,403.7,230.8
		 M403.7,211.5c7,0,11.6,4.9,11.6,11.3c0,6.3-5,11.3-11.6,11.3c-6.6,0-11.6-4.7-11.6-11.3C392.1,216.4,397.3,211.5,403.7,211.5"/>
	<polygon class="st3" points="419.5,211.9 423.5,211.9 423.4,230.1 431.8,230.1 431.8,233.6 419.3,233.6 	"/>
	<path class="st3" d="M445.4,230.8c4.5,0,7.4-3.7,7.4-8c0-4.6-2.9-8-7.4-8c-3.6,0-7.4,3-7.4,8C438,227.5,441,230.8,445.4,230.8
		 M445.4,211.5c7,0,11.6,4.9,11.6,11.3c0,6.3-5,11.3-11.6,11.3c-6.6,0-11.6-4.7-11.6-11.3C433.8,216.4,439,211.5,445.4,211.5"/>
	<path class="st3" d="M475,222.6h4.2l-0.2,9.9c-2.4,0.9-4.9,1.6-7.3,1.6c-6.6,0-11.6-4.7-11.6-11.3c0-6.3,5.2-11.3,11.6-11.3
		c2.8,0,5.2,0.6,7,1.6l-1.5,3c-1.6-0.8-3.3-1.3-5.5-1.3c-3.6,0-7.4,3-7.4,8c0,4.7,2.9,8,7.4,8c1.2,0,2.2-0.2,3.1-0.6L475,222.6z"/>
	<polygon class="st3" points="488.4,224.6 481.2,213.5 484.9,211.5 490.6,220.7 496.5,211.5 500,213.5 492.6,224.5 492.5,233.6 
		488.3,233.6 	"/>
</g>
<g>
	<rect x="26.5" y="192" class="st3" width="4.2" height="3.5"/>
	<rect x="33.2" y="192" class="st3" width="4.2" height="3.5"/>
	<rect x="121.9" y="168.2" class="st3" width="4.2" height="3.5"/>
	<rect x="208.2" y="175.4" class="st3" width="4.2" height="3.5"/>
	<rect x="214.9" y="175.4" class="st3" width="4.2" height="3.5"/>
	<rect x="2.2" y="167.8" class="st3" width="4.2" height="3.5"/>
	<rect x="310.1" y="168.2" class="st3" width="4.2" height="3.5"/>
	<rect x="491.6" y="168.2" class="st3" width="4.2" height="3.5"/>
	<rect x="61.4" y="168.2" class="st3" width="4.2" height="3.5"/>
	<rect x="8.9" y="167.8" class="st3" width="4.2" height="3.5"/>
	<rect x="94.6" y="166.7" class="st3" width="4.2" height="3.5"/>
	<rect x="115.2" y="168.2" class="st3" width="4.2" height="3.5"/>
	<rect x="87.9" y="166.7" class="st3" width="4.2" height="3.5"/>
	<rect x="316.8" y="168.2" class="st3" width="4.2" height="3.5"/>
	<path class="st3" d="M367.2,183.1v-14.9h-4.1v15.2c0,1.4-0.8,2.2-2.2,2.2h-17.8c-2,0-3.4-1.3-3.4-3.3v-14h-4.1v15.3
		c0,1.1-0.5,1.8-1.3,2l-0.2,0l0-0.2l-4.1-16.7h-4.2l4.2,16.8h-2.4l-1.6,4.1h8c2.1,0,3.7-0.7,4.7-2.1l0.2-0.2l0.2,0.2
		c1.1,1.4,2.6,2.1,4.6,2.1h17.9C366.5,189.6,367.2,185.5,367.2,183.1z"/>
	<path class="st3" d="M425.5,188.2l0.1-0.2l0.2,0.1c0.7,0.6,2.2,1.5,4,1.5h13.6c2.4,0,4-0.9,5-2.6l0.2-0.3l0.2,0.4
		c1.3,2.7,3.1,3.2,5.5,3.2c1.7,0,4-1.2,4.6-2.7l0.1-0.4l0.2,0.3c1.4,2,2.9,2.8,5,2.8c2,0,3.4-0.8,4.2-2.4l0.1-0.3l0.2,0.2
		c1.1,1.1,2.5,1.7,4.2,1.7h17.9c5.1,0,5.9-4.1,5.9-6.6v-8h-4.1v8.3c0,1.4-0.8,2.2-2.2,2.2h-17.8c-2.1,0-3.4-1.3-3.4-3.3v-7.2H465
		v8.9c0,0.9-0.1,3.5-2.9,3.5c-1.7,0-2.9-1.5-2.9-3.7v-7.7H455v7.9c0,0.9-0.1,3.5-2.9,3.5c-1.7,0-2.9-1.5-2.9-3.7v-7.7H445v7.3
		c0,1.4-0.8,2.2-2.1,2.2h-13.4c-1.4,0-2.2-0.9-2.4-2.5c-0.1-5.1-4-7.8-7.8-7.8c-3.9,0-7.8,2.7-7.8,8c-0.1,1.8-1.5,2.2-2.2,2.2h-16.7
		c-1.3,0-2.1-0.8-2.1-2.2v-15.2h-4.1v14.9c0,5.4,3.2,6.6,5.9,6.6h17.4c1.4,0,2.6-0.4,3.6-1l0.2-0.1l0.1,0.1c1,1.3,2.9,2.8,5.9,2.8
		c0.2,0,0.5,0,0.7,0c1.4-0.3,2.8-0.8,3.9-1.5C424.5,189.5,425,188.9,425.5,188.2z M419.3,188c-2.3,0-3.5-1.6-3.5-4.8
		c0-2.9,1.2-4.6,3.5-4.6c2.3,0,3.5,1.6,3.5,4.6C422.8,186.4,421.6,188,419.3,188z"/>
	<path class="st3" d="M321,183.1v-8h-4.1v8.3c0,1.4-0.8,2.2-2.2,2.2h-9.8l-2.5,0h-5.3l0.1-0.3c0.4-0.9,0.6-1.9,0.6-3
		c0-5.3-5.3-7.7-9-7.7c-1.8,0-6,0.8-8.6,4l-0.4,0.5l0.3-3.4h-4.1v9.8h-20.2c-1.3,0-2.1-0.8-2.1-2.2v-15.2h-4.1v14.9
		c0,3,1,6.6,5.9,6.6h59.6C320.2,189.6,321,185.5,321,183.1z M289.8,185.6h-9.9l0.1-0.2c0.7-3,4-7.2,9.1-6.9c1.7,0.1,4.5,1.1,4.5,3.9
		C293.5,184.1,291.8,185.6,289.8,185.6z"/>
	<rect x="155.4" y="168.2" class="st3" width="4.1" height="21.5"/>
	<path class="st3" d="M179.8,195.4c5.6,0,7.6-3.5,7.6-6.7V175h-7.1c-4.6,0-7.8,2.9-7.8,7.1c0,4.2,3.4,7.5,7.8,7.5h2.8l-0.1,0.3
		c-0.6,1.3-2,2-4.1,2h-0.1c-1,0-1.9-0.2-2.6-0.4l1,3.5C178,195.3,179,195.4,179.8,195.4z M180.2,185.6c-2.2,0-3.3-1.7-3.3-3.4
		c0-1.7,1.3-3.5,3.3-3.5h3.1v6.9H180.2z"/>
	<path class="st3" d="M149.3,183.1v-14.9h-4.1v15.2c0,1.4-0.8,2.2-2.2,2.2h-13.5c-2.1,0-3.4-1.3-3.4-3.5v-6h-4.1v6.6
		c0,2-1,2.9-2.9,2.9H98.7l0.2-0.3c0.9-1.3,1.6-2.4,1.6-4.2c0-4.4-3.6-7.1-7.1-7.1c-4.4,0-7,3.6-7,7.1c0,1.9,0.7,3.1,1.5,4.2l0.2,0.3
		H69c-2.1,0-3.4-1.3-3.4-3.5v-6h-4.1v6.6c0,2-1,2.9-2.9,2.9H40.8c-2.1,0-3.4-1.3-3.4-3.5v-6h-4.1v6.6c0,2-1,2.9-2.9,2.9H16.9
		c-1.3,0-2.1-0.8-2.1-2.2v-10.2l-4.1,1v1.2l-0.2,0c-3.6,0-6.3,0.8-7.8,2.4c-1.1,1.1-1.7,2.7-1.6,4.7c0,3,2.6,5.6,5.6,5.8
		c0.1,0,0.2,0,0.4,0c2,0,3.3-1.1,3.9-1.8l0.2-0.2l0.1,0.3c0.9,2.1,2.6,3.2,5.3,3.2h15c2,0,3.7-0.9,4.5-2.3l0.2-0.3l0.2,0.3
		c1.1,1.5,2.7,2.3,4.7,2.3h18.8c2,0,3.7-0.9,4.5-2.3l0.2-0.3l0.2,0.3c1.1,1.5,2.7,2.3,4.7,2.3h20.9c0.9,0,2.3-0.2,3.2-0.7l0.1-0.1
		l0.1,0c1,0.5,2.1,0.7,3.3,0.7h23.5c2,0,3.7-0.9,4.5-2.3l0.2-0.3l0.2,0.3c1.1,1.5,2.7,2.3,4.7,2.3h13.6
		C148.5,189.6,149.3,185.5,149.3,183.1z M10.7,181.9c0,2.1-1.1,3.4-2.9,3.4H7.7c-0.7,0-1.3-0.3-1.8-0.8C5.2,183.8,5,182.8,5,182
		c0.1-3.2,2.9-4.3,5.5-4.3h0.2V181.9z M93.5,184.6L93.5,184.6l-0.2,0c-0.1,0-2.8-1.2-2.8-3.6c0-1.5,1-3.1,2.9-3.1
		c1.9,0,2.9,1.6,2.9,3.1C96.3,183.4,93.6,184.6,93.5,184.6z"/>
	<path class="st3" d="M227.1,175h-4.2v8.3c0,1.4-0.8,2.2-2.1,2.2h-13.5c-1.7,0-3-1.3-3.2-2.5c-0.3-1.3,0.3-2.4,0.6-2.8
		c-0.4-0.3-1.5-1.3-3-2.6c-1.2,1.6-1.7,3.5-1.6,5.4c0.2,3.2,3.1,6.6,7.4,6.6h13.7c5.2,0,5.9-4.1,5.9-6.6V175z"/>
	<path class="st3" d="M244.3,183.1v-14.8h-4.1v15.3c0,1.1-0.5,1.8-1.3,2l-0.2,0l-4.1-16.9h-4.2l4.2,16.8H232l-1.6,4.1h8
		C243.6,189.6,244.3,185.5,244.3,183.1z"/>
</g>
</svg>
