<?xml version="1.0" encoding="utf-8"?>
<!-- Generator: Adobe Illustrator 26.0.1, SVG Export Plug-In . SVG Version: 6.00 Build 0)  -->
<svg version="1.1" id="Layer_1" xmlns="http://www.w3.org/2000/svg" xmlns:xlink="http://www.w3.org/1999/xlink" x="0px" y="0px"
	 viewBox="0 0 289.2 170.1" style="enable-background:new 0 0 289.2 170.1;" xml:space="preserve">
<style type="text/css">
	.st0{fill:#CB0F22;}
	.st1{fill:#FFFFFF;}
</style>
<g>
	<rect class="st0" width="289.2" height="170.1"/>
	<g>
		<g>
			<path class="st1" d="M69.8,54.5L69.8,54.5c0.6,0,1.1-0.2,1.5-0.6c0.4-0.4,0.6-1,0.6-1.6l-0.1-18.2c0-0.4,0.2-0.8,0.5-1.2
				c0.3-0.3,0.7-0.5,1.2-0.5l13.2-0.1c0.9,0,1.6,0.7,1.7,1.6l0.1,18.2c0,1.2,1,2.2,2.2,2.2c1.2,0,2.2-1,2.2-2.2l-0.1-18.2
				c0-3.3-2.7-5.9-6-5.9l-13.1,0.1c-3.3,0-6,2.7-5.9,6l0.1,18.2C67.7,53.6,68.6,54.5,69.8,54.5z M69.8,54L69.8,54L69.8,54L69.8,54z"
				/>
			<path class="st1" d="M102.7,54.5l14.4-0.1c1.2,0,2.2-1,2.2-2.2c0-1.1-1-2.1-2.2-2.1l-14.4,0.1c-0.9,0-1.6-0.8-1.6-1.6l0-5.3
				l15.6-0.1c1.2,0,2.1-1,2.1-2.2c0-1.2-1-2.1-2.2-2.1L101,39l0-4.8c0-0.9,0.7-1.6,1.6-1.6l14.4-0.1c0.6,0,1.1-0.2,1.5-0.7
				c0.4-0.4,0.6-1,0.6-1.5c0-1.2-1-2.2-2.2-2.2l-14.4,0.1c-3.3,0-6,2.7-5.9,6l0.1,14.4C96.7,51.9,99.4,54.5,102.7,54.5z M102.7,54
				L102.7,54L102.7,54L102.7,54z"/>
			<path class="st1" d="M129.1,43.5l11.3,0c0.9,0,1.6,0.7,1.6,1.6l0,3.4c0,0.9-0.7,1.7-1.6,1.7l-15.1,0.1c-0.6,0-1.1,0.2-1.5,0.6
				c-0.4,0.4-0.6,0.9-0.6,1.5c0,1.2,0.9,2.2,2.1,2.2l15.1-0.1c3.3,0,5.9-2.7,5.9-6l0-3.4c0-3.3-2.7-6-6-6l-11.3,0
				c-0.9,0-1.7-0.7-1.7-1.6l0-3.4c0-0.4,0.2-0.8,0.5-1.1c0.3-0.3,0.7-0.5,1.2-0.5l15.1-0.1c0.6,0,1.1-0.2,1.5-0.6
				c0.4-0.4,0.6-1,0.6-1.5c0-1.2-1-2.2-2.2-2.2L129,28.2c-1.6,0-3.1,0.6-4.2,1.8c-1.1,1.1-1.7,2.6-1.7,4.2l0,3.4
				C123.1,40.9,125.8,43.5,129.1,43.5z M125.3,54L125.3,54L125.3,54L125.3,54z"/>
			<path class="st1" d="M188,34.1l0.1,18.2c0,1.2,0.9,2.2,2.2,2.2c0.6,0,1.1-0.2,1.5-0.6c0.4-0.4,0.6-1,0.6-1.6l-0.1-18.2
				c0-3.3-2.7-5.9-6-5.9l-11.1,0c-1.4,0-2.8,0.5-3.8,1.4c-1.1-0.9-2.5-1.4-3.8-1.4l-11.1,0c-1.6,0-3.1,0.6-4.2,1.8
				c-1.1,1.1-1.7,2.6-1.7,4.2l0.1,18.2c0,1.2,1,2.2,2.2,2.2h0c0.6,0,1.1-0.2,1.5-0.6c0.4-0.4,0.6-1,0.6-1.5l-0.1-18.2
				c0-0.9,0.7-1.6,1.6-1.6l11.1,0c0.9,0,1.7,0.7,1.7,1.6l0.1,18.2c0,1.2,0.9,2.2,2.2,2.2c0.6,0,1.1-0.2,1.5-0.6
				c0.4-0.4,0.6-1,0.6-1.6l-0.1-18.2c0-0.4,0.2-0.8,0.5-1.1c0.3-0.3,0.7-0.5,1.2-0.5l11.1,0C187.3,32.5,188,33.2,188,34.1z
				 M152.8,54.1L152.8,54.1L152.8,54.1L152.8,54.1z"/>
			<path class="st1" d="M200.1,54.5L200.1,54.5c0.6,0,1.1-0.2,1.5-0.6c0.4-0.4,0.6-1,0.6-1.5l0-9.1l15.1-0.1l0,9.1
				c0,1.2,1,2.2,2.2,2.2c1.2,0,2.2-1,2.2-2.2l-0.1-18.2c0-3.3-2.7-5.9-6-5.9l-11.8,0.1c-3.3,0-6,2.7-5.9,6l0.1,18.2
				C197.9,53.5,198.9,54.5,200.1,54.5z M215.6,31.9v0.5c0.9,0,1.6,0.7,1.6,1.6l0,4.8L202.2,39l0-4.8c0-0.4,0.2-0.8,0.5-1.1
				c0.3-0.3,0.7-0.5,1.2-0.5l11.8-0.1L215.6,31.9L215.6,31.9z M200.1,54L200.1,54L200.1,54L200.1,54z"/>
		</g>
		<g>
			<path class="st1" d="M57.3,96.4c0-1.2-1-2.1-2.2-2.1l-14.4,0.1c-0.9,0-1.6-0.8-1.7-1.6L39,78.3c0-0.4,0.2-0.8,0.5-1.1
				c0.3-0.3,0.7-0.5,1.2-0.5l14.4-0.1c0.6,0,1.1-0.2,1.6-0.7c0.4-0.4,0.6-1,0.6-1.5c0-1.2-1-2.2-2.2-2.2l-14.4,0.1
				c-1.6,0-3.1,0.6-4.2,1.8c-1.1,1.1-1.7,2.6-1.7,4.2l0.1,14.4c0,3.3,2.7,5.9,6,5.9l14.4-0.1C56.4,98.6,57.3,97.6,57.3,96.4z
				 M40.7,98.1L40.7,98.1L40.7,98.1L40.7,98.1z"/>
			<path class="st1" d="M87.6,78.1c0-3.3-2.7-5.9-6-5.9l-14.2,0.1c-1.6,0-3.1,0.6-4.2,1.8c-1.1,1.1-1.7,2.6-1.7,4.2l0.1,14.4
				c0,3.3,2.7,5.9,6,5.9l14.2-0.1c1.6,0,3.1-0.6,4.2-1.8c1.1-1.1,1.7-2.6,1.7-4.2L87.6,78.1z M66.2,77.1c0.3-0.3,0.7-0.5,1.1-0.5
				l14.2-0.1l0-0.5l0,0v0.5c0.9,0,1.6,0.7,1.6,1.6l0.1,14.4c0,0.9-0.7,1.7-1.6,1.7l-14.2,0.1c-0.9,0-1.6-0.8-1.6-1.6l-0.1-14.4
				C65.8,77.8,65.9,77.4,66.2,77.1z M67.4,98.1L67.4,98.1L67.4,98.1L67.4,98.1z"/>
			<path class="st1" d="M112.7,78l0.1,18.2c0,1.2,1,2.2,2.2,2.2c1.2,0,2.2-1,2.2-2.2L117,78c0-3.3-2.7-5.9-6-5.9l-13.1,0.1
				c-3.3,0-6,2.7-5.9,6L92,96.3c0,1.2,0.9,2.2,2.1,2.2h0c1.2,0,2.1-1,2.1-2.2l-0.1-18.2c0-0.9,0.7-1.7,1.7-1.7l13.2-0.1
				C112,76.4,112.7,77.1,112.7,78z M94.2,97.9L94.2,97.9L94.2,97.9L94.2,97.9z"/>
			<path class="st1" d="M127.6,98.3l14.4-0.1c0.6,0,1.2-0.2,1.6-0.6c0.4-0.4,0.6-1,0.6-1.5c0-1.2-1-2.1-2.2-2.1L127.6,94
				c-0.9,0-1.6-0.8-1.6-1.6l-0.1-14.4c0-0.4,0.2-0.8,0.5-1.1c0.3-0.3,0.7-0.5,1.2-0.5l14.4-0.1c1.2,0,2.2-1,2.2-2.2
				c0-1.2-1-2.2-2.2-2.2L127.5,72c-1.6,0-3.1,0.6-4.2,1.8c-1.1,1.1-1.7,2.6-1.7,4.2l0.1,14.4C121.6,95.6,124.3,98.3,127.6,98.3z
				 M127.6,97.8L127.6,97.8L127.6,97.8L127.6,97.8z"/>
			<path class="st1" d="M170.2,95.2c-0.8-1.9-1.9-4.5-2.6-6.3c3-0.4,5.2-2.9,5.2-5.9l0-5.2c0-3.3-2.7-5.9-6-5.9l-12.5,0.1
				c-1.6,0-3.1,0.6-4.2,1.8c-1.1,1.1-1.7,2.6-1.7,4.2l0.1,18.2c0,1.2,1,2.2,2.2,2.2h0c1.2,0,2.2-1,2.2-2.2l0-7.1l10.4,0l3.2,7.9
				c0.3,0.8,1.1,1.3,2,1.3c0.3,0,0.6-0.1,0.8-0.2c0.8-0.3,1.4-1.2,1.4-2C170.3,95.6,170.3,95.4,170.2,95.2z M166.7,75.6v0.5
				c0.9,0,1.7,0.7,1.7,1.6l0,5.1c0,0.9-0.8,1.7-1.7,1.7l-14.1,0.1l0-6.8c0-0.9,0.7-1.6,1.6-1.6l12.5-0.1L166.7,75.6L166.7,75.6z
				 M150.5,97.7L150.5,97.7L150.5,97.7L150.5,97.7z"/>
			<path class="st1" d="M183.2,98.1l14.4-0.1c1.2,0,2.2-1,2.2-2.2c0-1.1-1-2.1-2.2-2.1l-14.4,0.1c-0.9,0-1.6-0.8-1.6-1.6l0-5.3
				l15.6-0.1c0.6,0,1.1-0.2,1.5-0.6c0.4-0.4,0.6-1,0.6-1.6c0-1.2-1-2.1-2.2-2.1l-15.6,0.1l0-4.8c0-0.4,0.2-0.8,0.5-1.1
				c0.3-0.3,0.7-0.5,1.1-0.5l14.4-0.1c1.2,0,2.1-1,2.1-2.2c0-1.2-1-2.2-2.2-2.2l-14.4,0.1c-3.3,0-6,2.7-5.9,6l0.1,14.4
				C177.2,95.4,179.9,98.1,183.2,98.1z M183.2,97.6L183.2,97.6L183.2,97.6L183.2,97.6z"/>
			<path class="st1" d="M214.2,95.8c0,1.2,1,2.2,2.2,2.2h0c0.6,0,1.1-0.2,1.5-0.6c0.4-0.4,0.6-1,0.6-1.6l-0.1-19.8l8.2,0
				c0.6,0,1.1-0.2,1.5-0.6c0.4-0.4,0.6-1,0.6-1.5c0-1.2-1-2.2-2.2-2.2l-20.7,0.1c-1.2,0-2.1,1-2.1,2.2c0,1.2,1,2.2,2.2,2.2l8.2,0
				L214.2,95.8z M216.4,97.4L216.4,97.4L216.4,97.4L216.4,97.4z"/>
			<path class="st1" d="M238,97.9l14.4-0.1c0.6,0,1.1-0.2,1.5-0.7c0.4-0.4,0.6-1,0.6-1.5c0-1.1-1-2.1-2.2-2.1L238,93.6
				c-0.9,0-1.6-0.8-1.6-1.6l0-5.3l15.6-0.1c0.6,0,1.1-0.2,1.5-0.7c0.4-0.4,0.6-1,0.6-1.5c0-1.2-1-2.1-2.2-2.1l-15.6,0.1l0-4.8
				c0-0.9,0.7-1.6,1.6-1.6l14.4-0.1c0.6,0,1.1-0.2,1.5-0.7c0.4-0.4,0.6-1,0.6-1.5c0-1.2-1-2.2-2.2-2.2l-14.4,0.1c-3.3,0-6,2.7-5.9,6
				l0.1,14.4C232,95.2,234.7,97.9,238,97.9z M238,97.3L238,97.3L238,97.3L238,97.3z"/>
		</g>
		<g>
			<path class="st1" d="M44.8,126.6l-11.3,0c-0.9,0-1.7-0.7-1.7-1.6l0-3.4c0-0.9,0.7-1.6,1.7-1.6l15.1-0.1c0.6,0,1.1-0.2,1.5-0.6
				c0.4-0.4,0.6-1,0.6-1.5c0-1.2-1-2.2-2.2-2.2l-15.1,0.1c-3.3,0-6,2.7-5.9,6l0,3.4c0,3.3,2.7,5.9,6,5.9l11.3,0
				c0.9,0,1.6,0.8,1.6,1.6l0,3.4c0,0.9-0.7,1.7-1.6,1.7l-15.1,0.1c-1.2,0-2.1,1-2.1,2.2c0,1.2,0.9,2.2,2.1,2.2l15.1-0.1
				c3.3,0,5.9-2.7,5.9-6l0-3.4C50.8,129.2,48.1,126.6,44.8,126.6z M29.8,141.4L29.8,141.4L29.8,141.4L29.8,141.4z"/>
			<path class="st1" d="M75.6,115.5l-14.2,0.1c-3.3,0-6,2.7-5.9,6l0.1,14.4c0,3.3,2.7,5.9,6,5.9l14.2-0.1c1.6,0,3.1-0.6,4.2-1.8
				c1.1-1.1,1.7-2.6,1.7-4.2l-0.1-14.4C81.6,118.2,78.9,115.5,75.6,115.5z M61.4,120l14.2-0.1l0-0.5l0,0v0.5c0.9,0,1.6,0.7,1.6,1.6
				l0.1,14.4c0,0.9-0.7,1.7-1.6,1.7l-14.2,0.1c-0.9,0-1.6-0.8-1.6-1.6l-0.1-14.4C59.8,120.7,60.6,120,61.4,120z M61.5,141.4
				L61.5,141.4L61.5,141.4L61.5,141.4z"/>
			<path class="st1" d="M106.9,137.5l-14.8,0.1c-0.9,0-1.6-0.8-1.7-1.6l-0.1-18.2c0-1.2-1-2.2-2.2-2.2c-1.2,0-2.1,1-2.1,2.2
				l0.1,18.2c0,3.3,2.7,5.9,6,5.9l14.8-0.1c0.6,0,1.1-0.2,1.5-0.6c0.4-0.4,0.6-1,0.6-1.5C109.1,138.5,108.1,137.5,106.9,137.5z
				 M92.1,141.3L92.1,141.3L92.1,141.3L92.1,141.3z"/>
			<path class="st1" d="M134.7,115.5c-0.6,0-1.1,0.2-1.5,0.6c-0.4,0.4-0.6,1-0.6,1.5l0.1,18.2c0,0.9-0.7,1.7-1.6,1.7l-13.2,0.1
				c-0.9,0-1.7-0.7-1.7-1.6l-0.1-18.2c0-1.2-0.9-2.2-2.2-2.2c-0.6,0-1.1,0.2-1.5,0.6c-0.4,0.4-0.6,1-0.6,1.6l0.1,18.2
				c0,3.3,2.7,5.9,6,5.9l13.2-0.1c3.3,0,6-2.7,5.9-6l-0.1-18.2C136.9,116.5,135.9,115.5,134.7,115.5z M117.8,141.4L117.8,141.4
				L117.8,141.4L117.8,141.4z"/>
			<path class="st1" d="M164.1,115.5l-20.7,0.1c-1.2,0-2.1,1-2.1,2.2c0,1.2,1,2.2,2.2,2.2l8.2,0l0.1,19.8c0,1.2,1,2.2,2.2,2.2h0
				c1.2,0,2.1-1,2.1-2.2l-0.1-19.8l8.2,0c0.6,0,1.1-0.2,1.5-0.6c0.4-0.4,0.6-1,0.6-1.5C166.3,116.5,165.4,115.5,164.1,115.5z
				 M153.9,141.4L153.9,141.4L153.9,141.4L153.9,141.4z"/>
			<path class="st1" d="M172.2,115.5c-0.6,0-1.1,0.2-1.5,0.6c-0.4,0.4-0.6,1-0.6,1.5l0.1,22c0,1.2,1,2.2,2.2,2.2h0h0
				c1.2,0,2.2-1,2.2-2.2l-0.1-22C174.4,116.5,173.4,115.5,172.2,115.5z M172.3,141.3L172.3,141.3L172.3,141.3L172.3,141.3z"/>
			<path class="st1" d="M199.4,115.5l-14.2,0.1c-1.6,0-3.1,0.6-4.2,1.8c-1.1,1.1-1.7,2.6-1.7,4.2l0.1,14.4c0,3.3,2.7,5.9,6,5.9
				l14.2-0.1c1.6,0,3.1-0.6,4.2-1.8c1.1-1.1,1.7-2.6,1.7-4.2l-0.1-14.4C205.4,118.2,202.7,115.5,199.4,115.5z M185.2,120l14.2-0.1
				l0-0.5l0,0v0.5c0.9,0,1.6,0.7,1.6,1.6l0.1,14.4c0,0.9-0.7,1.7-1.6,1.7l-14.2,0.1c-0.9,0-1.6-0.8-1.6-1.6l-0.1-14.4
				C183.6,120.7,184.3,120,185.2,120z M185.2,141.4L185.2,141.4L185.2,141.4L185.2,141.4z"/>
			<path class="st1" d="M228.8,115.5l-13.1,0.1c-1.6,0-3.1,0.6-4.2,1.8c-1.1,1.1-1.7,2.6-1.7,4.2l0.1,18.2c0,1.2,0.9,2.2,2.1,2.2h0
				c1.2,0,2.1-1,2.1-2.2l-0.1-18.2c0-0.9,0.7-1.7,1.7-1.7l13.2-0.1c0.9,0,1.6,0.7,1.6,1.6l0.1,18.2c0,1.2,1,2.2,2.2,2.2
				c1.2,0,2.2-1,2.2-2.2l-0.1-18.2C234.8,118.2,232.1,115.5,228.8,115.5z M212,141.4L212,141.4L212,141.4L212,141.4z"/>
			<path class="st1" d="M255.7,126.6l-11.3,0c-0.9,0-1.7-0.7-1.7-1.6l0-3.4c0-0.9,0.7-1.6,1.7-1.6l15.1-0.1c1.2,0,2.2-1,2.2-2.2
				c0-1.2-1-2.2-2.2-2.2l-15.1,0.1c-1.6,0-3.1,0.6-4.2,1.8c-1.1,1.1-1.7,2.6-1.7,4.2l0,3.4c0,3.3,2.7,5.9,6,5.9l11.3,0
				c0.9,0,1.6,0.8,1.6,1.6l0,3.4c0,0.9-0.7,1.7-1.6,1.7l-15.1,0.1c-1.2,0-2.1,0.9-2.1,2.2c0,1.2,0.9,2.2,2.1,2.2l15.1-0.1
				c3.3,0,5.9-2.7,5.9-6l0-3.4C261.7,129.2,259,126.6,255.7,126.6z M240.7,141.4L240.7,141.4L240.7,141.4L240.7,141.4z"/>
		</g>
	</g>
</g>
</svg>
