<?xml version="1.0" encoding="utf-8"?>
<!-- Generator: Adobe Illustrator 26.0.1, SVG Export Plug-In . SVG Version: 6.00 Build 0)  -->
<svg version="1.1" id="Layer_1" xmlns="http://www.w3.org/2000/svg" xmlns:xlink="http://www.w3.org/1999/xlink" x="0px" y="0px"
	 viewBox="0 0 500 159.9" style="enable-background:new 0 0 500 159.9;" xml:space="preserve">
<style type="text/css">
	.st0{fill:#439925;}
	.st1{fill:#E31B23;}
	.st2{fill:#4C7C1C;}
	.st3{fill:#F9180C;}
</style>
<g>
	<polygon points="195.7,100 165,52 165,100 155,100 155,32.4 164.1,32.4 195,80.5 195,32.4 204.8,32.4 204.8,100 	"/>
	<polygon points="257.1,100 218.1,100 218.1,32.4 258.6,32.4 257.1,41.3 228.3,41.3 228.3,61.1 254.7,61.1 253.1,69.8 228.3,69.8 
		228.3,91.2 258.6,91.2 	"/>
	<polygon points="376.9,100 376.9,46.8 360,100 348.3,100 331.3,46.8 331.3,100 321.3,100 321.3,32.4 335.9,32.4 354,88.8 
		372.3,32.4 386.8,32.4 386.8,100 	"/>
	<path d="M442.5,100l-4.9-15.6h-24.9l-4.9,15.6h-11l22.9-67.6h11.2l22.9,67.6H442.5z M425.3,45.5l-9.8,30.4h19.4L425.3,45.5z"/>
	<polygon points="498.6,100 462.8,100 462.8,32.4 473.1,32.4 473.1,91.2 500,91.2 	"/>
	<rect x="155" y="114.2" width="343.3" height="3.9"/>
	<path class="st2" d="M126.7,49.4c-2.3-10.9-7.4-21.1-14.6-29.3c0,0,5.8,8.6,7.9,13.3c11.4,26.1,1.8,57-22.4,71.9
		c-10.4,7.4-23,11-35.4,10.3c-4.5-0.2-8.9-1.1-13.3-2.4c-22.6-7.1-38.3-28.2-39-52.6c-1.8-24.3,12-47.1,34.3-56.9C47,2.5,53,0,53,0
		l-0.1,0C29.5,4.8,10.4,22.2,3.1,45.5c-5.3,16.8-3.9,34.6,3.9,50.1c7.8,15.5,21.1,26.8,37.3,31.9c4.9,1.5,10,2.5,15.1,2.7h0
		c14,0.8,28.3-3.4,40.1-11.6c12.2-8.5,21-20.6,25.4-35C128.5,72.5,129.1,60.7,126.7,49.4"/>
	<path d="M22.5,41.6c-4.3,12-3.7,24.9,1.6,36.4c5.3,11.5,14.8,20.1,26.6,24.3c4.2,1.5,8.6,2.4,13,2.6c8.1,0.4,16.3-1.3,23.7-5
		c0,0-10.2,2.1-15.4,1.8c-3.7-0.2-7.4-0.9-11-2.1c-1.4-0.4-2.5-0.7-3.6-1.1C36,91,24.8,67,32.6,45.2c6.2-17.5,22.7-28.7,41-28
		c1,0,2.1-0.1,3.1,0.1c21.6,2.7,30.5,15.3,30.5,15.3c-5.5-9.3-14.2-16.5-24.4-20.1c-4.2-1.5-8.6-2.4-13-2.6
		c-10-0.6-20.1,2.2-28.6,7.8C32.5,23.3,26.1,31.6,22.5,41.6"/>
	<path d="M286.7,101.1c-6.2,0-13.5-1-19.3-3.6l1.6-9.8c4.2,2,11.3,4.2,17.7,4.2c6.1,0,14-1.9,14-9.6c0-13-32.6-13.3-32.6-32
		c0-12.6,8.7-19,23.3-19c6.4,0,11.9,1.4,16.6,3.8l-1.6,9.4c-5.1-2.3-10.3-4.1-15.4-4.1c-10.9,0-12.6,4.9-12.6,8.5
		c0,11.3,32.4,12.2,32.4,31.3C311.1,94.1,300.5,101.1,286.7,101.1"/>
	<path class="st3" d="M106.9,52.6c-1.2-5.3-3.8-10.3-7.4-14.4c0,0,2.9,4.2,4,6.5c5.8,12.7,1,27.9-11.2,35.1
		c-5.3,3.6-11.6,5.4-17.8,5c-2.3-0.1-4.5-0.5-6.7-1.2C56.3,80.3,48.4,69.9,48,58c-0.9-11.9,6-23,17.3-27.8c1.4-0.6,4.4-1.8,4.4-1.8
		l-0.1,0c-11.8,2.3-21.4,10.8-25,22.2c-2.6,8.2-1.9,16.9,2,24.5c4,7.6,10.7,13.1,18.9,15.6c2.5,0.8,5.1,1.2,7.6,1.4h0
		c7.1,0.4,14.3-1.6,20.2-5.7c6.1-4.2,10.6-10.1,12.8-17.1C107.9,63.9,108.2,58.1,106.9,52.6"/>
	<path d="M162.8,152.4c0,3.4-1.4,5.4-5.4,7.3l-3.1-4c3.3-0.8,4-2.4,4-4.4v-15.2h4.5V152.4z"/>
	<path d="M206.4,131.6c0,1.3,1,2.3,2.3,2.3c1.3,0,2.2-1,2.2-2.3c0-1.2-1-2.2-2.2-2.2C207.4,129.3,206.4,130.3,206.4,131.6z"/>
	<path d="M206,128.9c0.9,0,1.7-0.8,1.7-1.8c0-0.9-0.8-1.7-1.7-1.7c-0.9,0-1.8,0.8-1.8,1.8C204.3,128.1,205.1,128.9,206,128.9z"/>
	<path d="M203.4,133.8c1.3,0,2.2-1,2.2-2.3c0-1.2-1-2.2-2.2-2.2s-2.3,1-2.3,2.2C201.1,132.8,202.2,133.8,203.4,133.8z"/>
	<path d="M220.2,133.8c1.3,0,2.2-1,2.2-2.3c0-1.2-1-2.2-2.2-2.2s-2.3,1-2.3,2.2C217.9,132.8,219,133.8,220.2,133.8z"/>
	<path d="M225.4,133.8c1.3,0,2.2-1,2.2-2.3c0-1.2-1-2.2-2.2-2.2c-1.3,0-2.3,1-2.3,2.2C223.1,132.8,224.2,133.8,225.4,133.8z"/>
	<path d="M259.1,136.2v9.4c0,1.1-0.7,1.5-1.4,1.5h-2.3v-11h-4.5v11h-3.7v-11h-4.4v11h-8.5h-0.2h-4.6h-0.2h-1.6v-11h-4.5v11h-5.7
		h-0.2h-4.6h-0.2h-1.6v-11h-4.5v11h-5.7h-0.2h-4.6h-0.2h-1.6v-5.2c0-3.7-2.6-6-6.3-6c-3.3,0-6.3,1.8-6.3,6v5.2h-3.3H178h-4.6h-0.2
		H173c-0.9,0-1.5-0.5-1.5-1.5v-15.8h-4.4v15.9c0,3,2.1,5.8,5.5,5.8h0.6v0h5v0h3.6c0.9,2.7,3.4,3.9,6,3.9c2.5,0,5.1-1.1,6-3.9h2v0h5
		v0h11.8v0h5v0h11.8v0h5v0h23.2c3.9,0,6-2.6,6-5.9v-9.5H259.1z M189.7,149.5c0,1.1-0.8,1.6-1.9,1.6c-1,0-1.9-0.4-1.9-1.6v-7.6
		c0-1.1,0.8-1.6,1.9-1.6s1.9,0.5,1.9,1.6V149.5z"/>
	<path d="M289.5,129.9v15.7c0,1-0.6,1.5-1.5,1.5h-1.8h-0.2h-1.6v-17.2h-4.5v17.2h-2.6l-4.4-11h-4.5l4.4,11h-4.8v4.5h18h0.2h1.8
		c3.9,0,5.9-2.9,5.9-5.9v-15.8H289.5z"/>
	<path d="M324.8,151.6c0,5.8-5.6,8.3-10.3,8.3c-5.1,0-10.4-2.5-10.4-8.4v-6.8l4.4-2.9v8.9c0,3.5,3.3,4.7,5.9,4.7
		c2.7,0,5.9-1.2,5.9-4.7v-20.8h4.4V151.6z"/>
	<path d="M401.7,133.8c1.3,0,2.2-1,2.2-2.3c0-1.2-1-2.2-2.2-2.2c-1.3,0-2.3,1-2.3,2.2C399.5,132.8,400.5,133.8,401.7,133.8z"/>
	<path d="M399.5,136.2v9.4c0,1.3-0.8,1.5-1.5,1.5h-4.4v0h-4.6h-0.2h-1.6v-11h-4.5v11h-3.7v-11h-4.5v11h-3.7v-11h-4.4v11H358h-0.2
		h-1.6v-5.2c0-3.7-2.6-6-6.3-6c-3.3,0-6.3,1.8-6.3,6v5.2h-3.3H340h-4.6h-0.2H335c-0.9,0-1.5-0.5-1.5-1.5v-15.8h-4.4v15.9
		c0,3,2.1,5.8,5.5,5.8h0.6v0h5v0h3.6c0.9,2.7,3.4,3.9,6,3.9c2.5,0,5.1-1.1,5.9-3.9h2h0.2h30.9v0h4.8h0.2h4.2c3.4,0,5.9-2.4,5.9-5.9
		v-9.5H399.5z M351.7,149.5c0,1.1-0.8,1.6-1.9,1.6c-1,0-1.9-0.4-1.9-1.6v-7.6c0-1.1,0.8-1.6,1.9-1.6c1.1,0,1.9,0.5,1.9,1.6V149.5z"
		/>
	<path d="M423,133.8c1.3,0,2.3-1,2.3-2.3c0-1.2-1-2.2-2.3-2.2c-1.2,0-2.2,1-2.2,2.2C420.7,132.8,421.8,133.8,423,133.8z"/>
	<path d="M417.8,133.8c1.3,0,2.3-1,2.3-2.3c0-1.2-1-2.2-2.3-2.2c-1.2,0-2.2,1-2.2,2.2C415.5,132.8,416.6,133.8,417.8,133.8z"/>
	<path d="M445.2,136.2h-4.8v-0.4c0-1.3,0.6-2.1,2.1-2.1h6.4v-3.8h-6.2c-3.9,0-6,2.7-6,5.9v4.8h8.6c0.8,0,1.4,0.6,1.4,1.6v3.4
		c0,1-0.5,1.5-1.4,1.5h-11.8h-0.2h-4.6h-0.2h-1.7v-11h-6.6c-3.5,0-5.9,2.5-5.9,5.9v3.5c0,3.4,2.3,6,6,6l2.1-2.7v2.7h6.1v0h5v0H445
		c3.5,0,6.1-2.3,6.1-5.9v-3.6C451.1,138.3,448.3,136.2,445.2,136.2z M422.3,147.1H420c-0.9,0-1.4-0.7-1.4-1.4v-3.5
		c0-1.1,0.7-1.6,1.4-1.6h2.3V147.1z"/>
	<path d="M488.1,128.9c1,0,1.8-0.8,1.8-1.8c0-0.9-0.8-1.7-1.8-1.7c-0.9,0-1.7,0.8-1.7,1.8C486.4,128.1,487.2,128.9,488.1,128.9z"/>
	<path d="M488.5,131.6c0,1.3,1,2.3,2.2,2.3c1.3,0,2.3-1,2.3-2.3c0-1.2-1-2.2-2.3-2.2C489.5,129.3,488.5,130.3,488.5,131.6z"/>
	<path d="M494,136.2v9.4c0,1.1-0.7,1.5-1.4,1.5h-2.3v-11h-4.5v11h-3.7v-11h-4.4v11h-8.5h-0.2h-4.6h-0.2h-1.6v-11h-4.5v14.9
		c0,1.8-0.2,3.7-4,4.6l3.1,4c4.1-2,5.4-3.9,5.4-7.3v-0.9h1.6v0h5v0h23.2c3.9,0,6-2.6,6-5.9v-9.5H494z"/>
	<path d="M485.5,133.8c1.3,0,2.3-1,2.3-2.3c0-1.2-1-2.2-2.3-2.2c-1.2,0-2.2,1-2.2,2.2C483.3,132.8,484.3,133.8,485.5,133.8z"/>
</g>
</svg>
