<?xml version="1.0" encoding="utf-8"?>
<!-- Generator: Adobe Illustrator 26.0.1, SVG Export Plug-In . SVG Version: 6.00 Build 0)  -->
<svg version="1.1" xmlns="http://www.w3.org/2000/svg" xmlns:xlink="http://www.w3.org/1999/xlink" x="0px" y="0px"
	 viewBox="0 0 500 63.1" style="enable-background:new 0 0 500 63.1;" xml:space="preserve">
<style type="text/css">
	.st0{display:none;}
	.st1{display:inline;opacity:0.5;}
	.st2{fill:#424242;}
	.st3{display:inline;}
	.st4{fill:url(#SVGID_1_);}
	.st5{fill:url(#SVGID_00000049934428209755719070000006848771235689964206_);}
	.st6{opacity:0.5;}
	.st7{fill:url(#SVGID_00000116947646126622499550000000326033406771848123_);}
	.st8{fill:url(#SVGID_00000145748151247841914840000016915225406087002040_);}
	.st9{fill:url(#SVGID_00000152985638202554544910000012779881283811593888_);}
	.st10{display:inline;fill:url(#SVGID_00000078037405901088476060000014952777117182487740_);}
	.st11{opacity:0.57;clip-path:url(#SVGID_00000161589525600803409980000008548399618434513286_);}
	.st12{fill:url(#SVGID_00000086671028973625795720000017431548392627955388_);}
	.st13{fill:url(#SVGID_00000065785378607141087820000009531549132742703497_);}
	.st14{fill:#FFFFFF;}
	.st15{display:inline;fill:url(#SVGID_00000100344918454331664880000005016198484668614817_);}
	.st16{display:inline;fill:url(#SVGID_00000157277726681195451340000010530445369266994075_);}
	.st17{display:inline;fill:url(#SVGID_00000023984978071985433600000013114605850330316693_);}
	.st18{display:inline;fill:url(#SVGID_00000147906967318992207070000013350209711140023727_);}
	.st19{fill:#3059A6;}
	.st20{clip-path:url(#SVGID_00000152254810863321145100000012843509783930407591_);}
	.st21{fill:#161213;}
	.st22{clip-path:url(#SVGID_00000152254810863321145100000012843509783930407591_);fill:#71CAC6;}
	.st23{fill:url(#SVGID_00000016037192558570533260000012164599929321515655_);}
	.st24{fill:url(#SVGID_00000142895431580820851020000005510312877783962275_);}
	.st25{fill:url(#SVGID_00000130636007164585723800000007439731025029657014_);}
	.st26{fill:url(#SVGID_00000021801286826979970950000005598327764941053362_);}
	.st27{display:inline;fill:url(#SVGID_00000178194125423137121540000004860995829481770939_);}
	.st28{display:inline;fill:#71CAC6;}
	.st29{opacity:0.57;clip-path:url(#SVGID_00000168796107989106634470000004501158269277429165_);}
	.st30{fill:url(#SVGID_00000047045245527802468830000016788811151023380911_);}
	.st31{fill:url(#SVGID_00000043448945293008127660000005276829937943708842_);}
	.st32{fill:url(#SVGID_00000029021425155218305920000014937885144775524791_);}
	.st33{fill:url(#SVGID_00000109002785740126346740000016299382441427370664_);}
	.st34{fill:#333333;}
	.st35{clip-path:url(#SVGID_00000109737421910155836940000007568783985610289296_);fill:#FFFFFF;}
	.st36{clip-path:url(#SVGID_00000105408903097619982350000007273827982543242370_);fill:#FFFFFF;}
	.st37{clip-path:url(#SVGID_00000132766311007733942240000009547854532385294727_);fill:#FFFFFF;}
	.st38{clip-path:url(#SVGID_00000107572197889679375640000014616104096763844026_);fill:#FFFFFF;}
	.st39{display:inline;fill:url(#SVGID_00000029740261423588123260000011812113798282570404_);}
	.st40{display:inline;fill:url(#SVGID_00000065073368910111539530000016463553323280325026_);}
	.st41{clip-path:url(#SVGID_00000183212063765385850850000000875812292799109760_);fill:#FFFFFF;}
	.st42{fill:url(#SVGID_00000145017674172241817430000006995923895690562493_);}
	.st43{fill:url(#SVGID_00000000215716652456221510000016951756027638502586_);}
	.st44{fill:url(#SVGID_00000170996756491964728790000013175321793897138616_);}
	.st45{fill:url(#SVGID_00000137095045129814306010000002880851330087586946_);}
	.st46{clip-path:url(#SVGID_00000183213352865893688290000008301815642056143798_);fill:#FFFFFF;}
	.st47{fill:url(#SVGID_00000060750336762875588680000003992564741668665259_);}
	.st48{fill:url(#SVGID_00000151545214555835852030000009838755084435282584_);}
	.st49{clip-path:url(#SVGID_00000113320341557206783690000007241163590341916080_);fill:#FFFFFF;}
	.st50{fill:#3387FF;}
	.st51{fill:#5C43FF;}
	.st52{fill:#00B4DB;}
	.st53{fill:#272727;}
</style>
<g id="Stationary_Mockup" class="st0">
</g>
<g id="Artwork_Layer">
</g>
<g id="Stationary_on_Template">
</g>
<g id="_x39_SS_Logo_and_Template">
</g>
<g id="Category">
</g>
<g id="Layer_6">
</g>
<g id="Layer_7">
</g>
<g id="Layer_8">
</g>
<g id="Layer_9">
	<g>
		<g>
			<g>
				<polygon class="st50" points="244.6,31.5 214.3,31.5 214.3,61.9 244.6,61.9 244.6,31.6 				"/>
				<polygon class="st51" points="275,31.5 275,1.2 244.6,1.2 244.6,31.5 244.7,31.5 				"/>
				<polygon class="st52" points="275,31.5 244.7,31.5 244.6,31.5 244.6,31.6 244.6,61.9 244.6,61.9 275,31.6 				"/>
				<polygon class="st53" points="214.3,1.2 244.6,1.2 214.3,31.5 				"/>
			</g>
		</g>
		<g>
			<g>
				<path class="st53" d="M292.3,60c0.6,0,1.1-0.1,1.5-0.2c0.4-0.1,0.8-0.3,1.2-0.6c0.3-0.2,0.6-0.5,0.8-0.9
					c0.2-0.3,0.4-0.7,0.5-1.1c0.1-0.3,0.1-0.6,0.2-0.9c0-0.3,0-0.6,0-0.9v-9.9h1.9v9.8c0,0.4,0,0.8-0.1,1.2c0,0.4-0.1,0.8-0.2,1.1
					c-0.2,0.6-0.4,1.1-0.7,1.6c-0.3,0.5-0.7,0.9-1.2,1.3c-0.5,0.4-1.1,0.6-1.7,0.9s-1.5,0.3-2.4,0.3c-0.9,0-1.6-0.1-2.3-0.3
					c-0.7-0.2-1.2-0.5-1.7-0.8c-0.5-0.3-0.9-0.7-1.2-1.2c-0.3-0.5-0.5-1-0.7-1.5c-0.1-0.4-0.2-0.8-0.3-1.3c-0.1-0.5-0.1-0.9-0.1-1.3
					v-9.8h1.9v9.9c0,0.4,0,0.7,0.1,1.1c0.1,0.4,0.1,0.7,0.2,1c0.3,0.8,0.7,1.4,1.4,1.8C290.4,59.7,291.3,60,292.3,60z"/>
				<path class="st53" d="M310.7,54.3c1,1.4,1.9,2.8,2.9,4.3h0.1c-0.1-1.5-0.2-3.1-0.2-4.7v-8.5h1.9v15.9h-1.9l-6.2-8.9
					c-1.1-1.5-2-3-2.9-4.3h-0.1c0.1,1.5,0.2,3.1,0.2,5.1v8.1h-1.9V45.5h1.9L310.7,54.3z"/>
				<path class="st53" d="M319.5,61.4V45.5h1.9v15.9H319.5z"/>
				<path class="st53" d="M331.2,61.4h-1.9V47.2h-5.3v-1.7h12.6v1.7h-5.3V61.4z"/>
				<path class="st53" d="M340.9,59.6h8.2v1.7H339V45.5h9.7v1.7h-7.7v5.1h6.9v1.7h-6.9V59.6z"/>
				<path class="st53" d="M365.3,53.4c0,0.9-0.1,1.8-0.3,2.6c-0.2,0.8-0.6,1.6-1,2.2c-0.5,0.7-1,1.2-1.7,1.7
					c-0.7,0.5-1.5,0.8-2.4,1.1c-0.5,0.2-1.1,0.3-1.7,0.3c-0.6,0.1-1.3,0.1-2,0.1h-3.6V45.5h3.6c0.7,0,1.4,0,2,0.1
					c0.6,0.1,1.2,0.2,1.7,0.3c0.9,0.3,1.7,0.6,2.4,1.1s1.3,1,1.7,1.7c0.5,0.6,0.8,1.4,1,2.2C365.2,51.6,365.3,52.4,365.3,53.4z
					 M363.4,53.4c0-1.5-0.3-2.8-1-3.7c-0.7-1-1.6-1.6-2.9-2c-0.5-0.2-1-0.3-1.6-0.3c-0.6-0.1-1.3-0.1-2-0.1h-1.5v12.4h1.5
					c0.7,0,1.4,0,2-0.1c0.6-0.1,1.1-0.2,1.6-0.3c1.3-0.4,2.2-1.1,2.9-2.1C363,56.2,363.4,54.9,363.4,53.4z"/>
				<path class="st53" d="M373.6,61.4V45.5h1.9v15.9H373.6z"/>
				<path class="st53" d="M387.8,54.3c1,1.4,1.9,2.8,2.9,4.3h0.1c-0.1-1.5-0.2-3.1-0.2-4.7v-8.5h1.9v15.9h-1.9l-6.2-8.9
					c-1.1-1.5-2-3-2.9-4.3h-0.1c0.1,1.5,0.2,3.1,0.2,5.1v8.1h-1.9V45.5h1.9L387.8,54.3z"/>
				<path class="st53" d="M409.4,53.4c0,0.9-0.1,1.8-0.3,2.6c-0.2,0.8-0.6,1.6-1,2.2c-0.5,0.7-1,1.2-1.7,1.7
					c-0.7,0.5-1.5,0.8-2.4,1.1c-0.5,0.2-1.1,0.3-1.7,0.3c-0.6,0.1-1.3,0.1-2,0.1h-3.6V45.5h3.6c0.7,0,1.4,0,2,0.1
					c0.6,0.1,1.2,0.2,1.7,0.3c0.9,0.3,1.7,0.6,2.4,1.1s1.3,1,1.7,1.7c0.5,0.6,0.8,1.4,1,2.2C409.3,51.6,409.4,52.4,409.4,53.4z
					 M407.5,53.4c0-1.5-0.3-2.8-1-3.7c-0.7-1-1.6-1.6-2.9-2c-0.5-0.2-1-0.3-1.6-0.3c-0.6-0.1-1.3-0.1-2-0.1h-1.5v12.4h1.5
					c0.7,0,1.4,0,2-0.1c0.6-0.1,1.1-0.2,1.6-0.3c1.3-0.4,2.2-1.1,2.9-2.1C407.2,56.2,407.5,54.9,407.5,53.4z"/>
				<path class="st53" d="M419,60c0.6,0,1.1-0.1,1.5-0.2c0.4-0.1,0.8-0.3,1.2-0.6c0.3-0.2,0.6-0.5,0.8-0.9c0.2-0.3,0.4-0.7,0.5-1.1
					c0.1-0.3,0.1-0.6,0.2-0.9c0-0.3,0-0.6,0-0.9v-9.9h1.9v9.8c0,0.4,0,0.8-0.1,1.2c0,0.4-0.1,0.8-0.2,1.1c-0.2,0.6-0.4,1.1-0.7,1.6
					c-0.3,0.5-0.7,0.9-1.2,1.3c-0.5,0.4-1.1,0.6-1.7,0.9s-1.5,0.3-2.4,0.3c-0.9,0-1.6-0.1-2.3-0.3c-0.7-0.2-1.2-0.5-1.7-0.8
					c-0.5-0.3-0.9-0.7-1.2-1.2c-0.3-0.5-0.5-1-0.7-1.5c-0.1-0.4-0.2-0.8-0.3-1.3c-0.1-0.5-0.1-0.9-0.1-1.3v-9.8h1.9v9.9
					c0,0.4,0,0.7,0.1,1.1c0.1,0.4,0.1,0.7,0.2,1c0.3,0.8,0.7,1.4,1.4,1.8C417.1,59.7,418,60,419,60z"/>
				<path class="st53" d="M430.8,49.7c0,0.5,0.1,0.9,0.3,1.2c0.2,0.3,0.4,0.6,0.8,0.8c0.3,0.2,0.7,0.4,1.1,0.5s0.9,0.2,1.3,0.4
					c0.6,0.2,1.2,0.3,1.8,0.5c0.6,0.2,1.1,0.4,1.6,0.8c0.5,0.3,0.8,0.7,1.1,1.3c0.3,0.5,0.4,1.2,0.4,2c0,0.8-0.2,1.5-0.5,2.1
					c-0.3,0.6-0.7,1.1-1.3,1.5s-1.2,0.7-2,0.9c-0.8,0.2-1.6,0.3-2.5,0.3c-0.4,0-0.8,0-1.3-0.1c-0.4-0.1-0.8-0.1-1.2-0.2
					c-0.4-0.1-0.7-0.2-1.1-0.3c-0.3-0.1-0.6-0.2-0.7-0.3V59c0.3,0.1,0.6,0.3,1,0.4s0.7,0.2,1.1,0.3s0.8,0.1,1.2,0.2
					c0.4,0,0.8,0.1,1.1,0.1c0.6,0,1.1,0,1.6-0.1c0.5-0.1,0.9-0.3,1.3-0.5c0.4-0.2,0.7-0.5,0.9-0.9c0.2-0.4,0.3-0.9,0.3-1.4
					c0-0.5-0.1-0.9-0.3-1.2c-0.2-0.3-0.5-0.6-0.8-0.8c-0.3-0.2-0.7-0.4-1.1-0.5c-0.4-0.1-0.9-0.2-1.3-0.4c-0.6-0.1-1.2-0.3-1.8-0.5
					c-0.6-0.2-1.1-0.4-1.6-0.7c-0.5-0.3-0.8-0.7-1.1-1.2c-0.3-0.5-0.4-1.1-0.4-1.9c0-0.8,0.1-1.5,0.4-2.1c0.3-0.6,0.7-1.1,1.2-1.4
					c0.5-0.4,1.1-0.7,1.7-0.8c0.7-0.2,1.4-0.3,2.1-0.3c0.8,0,1.6,0.1,2.4,0.2c0.7,0.2,1.4,0.4,2,0.6v1.8c-0.7-0.3-1.3-0.5-2-0.7
					c-0.7-0.2-1.5-0.3-2.3-0.3c-0.6,0-1.1,0.1-1.6,0.2c-0.4,0.1-0.8,0.3-1.1,0.6c-0.3,0.2-0.5,0.5-0.7,0.9
					C430.8,48.9,430.8,49.3,430.8,49.7z"/>
				<path class="st53" d="M448.4,61.4h-1.9V47.2h-5.3v-1.7h12.6v1.7h-5.3V61.4z"/>
				<path class="st53" d="M458.1,54.8v6.6h-1.9V45.5h4.1c0.7,0,1.3,0,1.8,0.1c0.5,0.1,0.9,0.1,1.3,0.2c1.1,0.3,2,0.8,2.5,1.5
					c0.6,0.7,0.9,1.6,0.9,2.7c0,0.6-0.1,1.2-0.3,1.7c-0.2,0.5-0.5,0.9-0.9,1.3c-0.4,0.4-0.8,0.7-1.3,0.9c-0.5,0.2-1.1,0.4-1.7,0.5v0
					l4.7,6.8h-1.9l-4.9-6.6H458.1z M458.1,47.2V53h1.9c0.6,0,1.1,0,1.5-0.1c0.4,0,0.8-0.1,1.1-0.2c0.7-0.2,1.2-0.5,1.6-1
					c0.4-0.5,0.5-1,0.5-1.8c0-0.7-0.2-1.2-0.5-1.6c-0.3-0.4-0.8-0.7-1.4-0.9c-0.3-0.1-0.6-0.2-1-0.2c-0.4,0-0.9-0.1-1.5-0.1H458.1z"
					/>
				<path class="st53" d="M470.6,61.4V45.5h1.9v15.9H470.6z"/>
				<path class="st53" d="M478.5,59.6h8.2v1.7h-10.1V45.5h9.7v1.7h-7.7v5.1h6.9v1.7h-6.9V59.6z"/>
				<path class="st53" d="M491.5,49.7c0,0.5,0.1,0.9,0.3,1.2c0.2,0.3,0.4,0.6,0.8,0.8c0.3,0.2,0.7,0.4,1.1,0.5
					c0.4,0.1,0.9,0.2,1.3,0.4c0.6,0.2,1.2,0.3,1.8,0.5c0.6,0.2,1.1,0.4,1.6,0.8c0.5,0.3,0.8,0.7,1.1,1.3c0.3,0.5,0.4,1.2,0.4,2
					c0,0.8-0.2,1.5-0.5,2.1c-0.3,0.6-0.7,1.1-1.3,1.5c-0.6,0.4-1.2,0.7-2,0.9c-0.8,0.2-1.6,0.3-2.5,0.3c-0.4,0-0.8,0-1.3-0.1
					c-0.4-0.1-0.8-0.1-1.2-0.2c-0.4-0.1-0.7-0.2-1.1-0.3c-0.3-0.1-0.6-0.2-0.7-0.3V59c0.3,0.1,0.6,0.3,1,0.4
					c0.4,0.1,0.7,0.2,1.1,0.3c0.4,0.1,0.8,0.1,1.2,0.2c0.4,0,0.8,0.1,1.1,0.1c0.6,0,1.1,0,1.6-0.1c0.5-0.1,0.9-0.3,1.3-0.5
					c0.4-0.2,0.7-0.5,0.9-0.9c0.2-0.4,0.3-0.9,0.3-1.4c0-0.5-0.1-0.9-0.3-1.2c-0.2-0.3-0.5-0.6-0.8-0.8c-0.3-0.2-0.7-0.4-1.1-0.5
					c-0.4-0.1-0.9-0.2-1.3-0.4c-0.6-0.1-1.2-0.3-1.8-0.5c-0.6-0.2-1.1-0.4-1.6-0.7c-0.5-0.3-0.8-0.7-1.1-1.2
					c-0.3-0.5-0.4-1.1-0.4-1.9c0-0.8,0.1-1.5,0.4-2.1c0.3-0.6,0.7-1.1,1.2-1.4c0.5-0.4,1.1-0.7,1.7-0.8c0.7-0.2,1.4-0.3,2.1-0.3
					c0.8,0,1.6,0.1,2.4,0.2c0.7,0.2,1.4,0.4,2,0.6v1.8c-0.7-0.3-1.3-0.5-2-0.7c-0.7-0.2-1.5-0.3-2.3-0.3c-0.6,0-1.1,0.1-1.6,0.2
					c-0.4,0.1-0.8,0.3-1.1,0.6c-0.3,0.2-0.5,0.5-0.7,0.9C491.6,48.9,491.5,49.3,491.5,49.7z"/>
			</g>
			<g>
				<path class="st53" d="M385,13.9c-2.9-1.1-5.5-2-5.5-3.5c0-1.2,1.7-2,4.2-2c2.7,0,5.5,0.8,10.4,3l1.1,0.5l0-8.4l-0.5-0.2
					c-4.4-1.9-8-2.7-11.9-2.7c-8.2,0-13.8,4.2-13.8,10.5c0,7.8,6.8,10.2,11.7,12c3,1.1,5.6,2,5.6,3.7c0,1.9-2.3,2.3-4.2,2.3
					c-3.6,0-6.4-1.1-11.2-4.2l-1.3-0.8v9.3l0.4,0.2c3.5,1.8,6.5,3.4,12.6,3.4c4.6,0,8.5-1.4,11-3.8c1.9-1.9,2.9-4.4,2.9-7.2
					C396.8,18.2,389.9,15.7,385,13.9z"/>
				<polygon class="st53" points="437.2,1.2 426.6,13.3 416.1,1.2 407.5,1.2 407.5,36.7 417.6,36.7 417.6,16.9 425.6,26.1 
					427.7,26.2 435.6,16.9 435.6,36.7 445.7,36.7 445.7,1.2 				"/>
				<polygon class="st53" points="312.3,20 322.4,19.8 322.4,1.2 312.4,1.2 				"/>
				<polygon class="st53" points="311.9,20 295.4,1.2 286.5,1.2 286.5,36.7 296.6,36.7 296.6,16.4 314.1,36.7 322.4,36.7 
					322.4,31.9 311.8,20 				"/>
				<polygon class="st53" points="481.1,1.2 470.2,1.2 455.9,36.7 466.6,36.7 469.1,30 469.2,30 472,22.4 472,22.4 475.8,12.3 
					480.1,22.4 472.1,22.4 477.3,30 483.2,30 486,36.7 496.9,36.7 				"/>
				<polygon class="st53" points="343,28.8 352.3,36.7 359.5,36.7 359.5,28.8 				"/>
				<polygon class="st53" points="342.9,22.3 358.4,22.3 358.4,14.5 342.9,14.5 342.9,9 359.1,9 359.1,1.2 332.8,1.2 332.8,36.7 
					342.9,36.7 342.9,28.8 342.9,28.8 				"/>
			</g>
		</g>
		<g>
			<g>
				<rect x="193" y="1.2" class="st53" width="9.8" height="7.8"/>
				<path class="st53" d="M201.9,10.2l-9,7.5v10.6h-19V8.9h-9.9v19.5h-6.6V8.9h-9.7v19.5h-7V8.9h-9.7v19.3H56.7v-4.7
					c0-9.5-7-14.2-16.1-14.2c-9,0-16.1,4.7-16.1,14.2c0,4.2-2.1,4.7-4.6,4.7H9.9V0H0v35.9h15.7l9.1-7.5l0,3.8l0,2.4l0,1.3h7.9v0
					l170,0.2V9.4L201.9,10.2z M46.5,30.3h-5.9c-4,0-5.9-3-5.9-6.9c0-3.9,1.8-6.9,5.9-6.9s5.9,3,5.9,6.9V30.3z"/>
			</g>
			<g>
				<path class="st53" d="M6,62.7c-0.9,0-1.7-0.1-2.3-0.4C3,61.9,2.4,61.5,1.9,61c-0.5-0.5-0.8-1.1-1.1-1.9
					c-0.2-0.7-0.4-1.5-0.4-2.4c0-0.9,0.1-1.7,0.4-2.4c0.2-0.7,0.6-1.4,1.1-1.9c0.5-0.5,1-0.9,1.7-1.2C4.3,51,5.1,50.8,6,50.8
					s1.7,0.1,2.3,0.4c0.7,0.3,1.3,0.7,1.7,1.2s0.8,1.1,1.1,1.9c0.2,0.7,0.4,1.5,0.4,2.4c0,0.9-0.1,1.7-0.4,2.4
					c-0.2,0.7-0.6,1.3-1.1,1.9s-1,0.9-1.7,1.2C7.7,62.5,6.9,62.7,6,62.7z M6,60.7c0.6,0,1.1-0.1,1.5-0.3c0.4-0.2,0.8-0.5,1.1-0.8
					c0.3-0.3,0.5-0.8,0.6-1.3c0.1-0.5,0.2-1,0.2-1.6c0-0.6-0.1-1.1-0.2-1.6c-0.1-0.5-0.4-0.9-0.6-1.3c-0.3-0.3-0.6-0.6-1.1-0.8
					c-0.4-0.2-0.9-0.3-1.5-0.3c-0.6,0-1.1,0.1-1.5,0.3c-0.4,0.2-0.8,0.5-1.1,0.8c-0.3,0.3-0.5,0.8-0.6,1.3s-0.2,1-0.2,1.6
					c0,0.6,0.1,1.1,0.2,1.6c0.1,0.5,0.4,0.9,0.6,1.3c0.3,0.3,0.6,0.6,1.1,0.8C4.9,60.6,5.4,60.7,6,60.7z M3.4,45.5h2v2.8h-2V45.5z
					 M7.5,45.5h2v2.8h-2V45.5z"/>
				<path class="st53" d="M26.2,60.5c0.1,0,0.2,0,0.3,0c0.1,0,0.2,0.1,0.2,0.3v1.3c0,0.2-0.2,0.3-0.5,0.3h-1.1c-0.2,0-0.5,0-0.7-0.1
					c-0.2-0.1-0.5-0.2-0.7-0.3c-0.2-0.1-0.4-0.3-0.6-0.5c-0.2-0.2-0.3-0.4-0.4-0.6h-0.1c0,0.2-0.1,0.4-0.2,0.7
					c-0.1,0.3-0.3,0.6-0.5,0.8h-8.2v-1.9h6.8v-3c0-0.6-0.1-1.1-0.2-1.7c-0.1-0.5-0.4-1-0.6-1.4c-0.3-0.4-0.7-0.7-1.1-1
					c-0.5-0.2-1-0.4-1.7-0.4h-2.2v-1.9h1.8c0.9,0,1.7,0.1,2.4,0.4c0.7,0.2,1.4,0.6,1.9,1.1c0.5,0.5,1,1.2,1.3,2
					c0.3,0.8,0.4,1.8,0.4,2.9v0.3c0,0.9,0.2,1.5,0.7,1.9c0.5,0.4,1.1,0.6,1.8,0.6H26.2z"/>
				<path class="st53" d="M39.1,60.5v-3.7c0-0.6-0.1-1.2-0.4-1.7c-0.3-0.5-0.6-0.9-1.1-1.3c-0.4-0.3-1-0.6-1.5-0.8
					c-0.6-0.2-1.1-0.3-1.7-0.3c-0.5,0-1,0.1-1.5,0.3c-0.5,0.2-1,0.4-1.4,0.7c-0.4,0.3-0.8,0.6-1.1,1.1c-0.3,0.4-0.5,0.8-0.5,1.3H28
					c0.1-0.7,0.3-1.4,0.6-2c0.3-0.6,0.8-1.2,1.4-1.7c0.6-0.5,1.2-0.9,2-1.1c0.8-0.3,1.6-0.4,2.5-0.4c1,0,1.9,0.1,2.7,0.4
					c0.8,0.3,1.5,0.7,2.1,1.2c0.6,0.5,1.1,1.2,1.4,1.9c0.3,0.8,0.5,1.6,0.5,2.6V58c0,0.8,0.2,1.4,0.7,1.8c0.5,0.4,1.1,0.6,1.8,0.6
					h1.1c0.1,0,0.2,0,0.3,0c0.1,0,0.2,0.1,0.2,0.3v1.3c0,0.2-0.2,0.3-0.5,0.3h-1.1c-0.2,0-0.5,0-0.7-0.1c-0.2-0.1-0.5-0.2-0.7-0.3
					c-0.2-0.1-0.4-0.3-0.6-0.5c-0.2-0.2-0.3-0.4-0.4-0.6h-0.1c0,0.2-0.1,0.4-0.2,0.7s-0.3,0.6-0.5,0.8H26.2c-0.3,0-0.5-0.1-0.5-0.3
					v-1.3c0-0.2,0.1-0.3,0.2-0.3c0.1,0,0.2,0,0.3,0H39.1z"/>
				<path class="st53" d="M55,62.4c-0.3,0-0.7-0.1-1-0.2c-0.4-0.1-0.7-0.3-1-0.4s-0.6-0.4-0.8-0.6c-0.2-0.2-0.4-0.5-0.5-0.8
					c-0.4,0.7-0.9,1.2-1.5,1.6c-0.6,0.3-1.3,0.5-2,0.5h-3.4c-0.3,0-0.5-0.1-0.5-0.3v-1.3c0-0.2,0.1-0.3,0.2-0.3c0.1,0,0.2,0,0.3,0
					h3.4c0.5,0,1-0.2,1.4-0.5c0.4-0.4,0.6-1,0.6-1.8v-5.8h2v5c0,0.5,0.1,0.9,0.2,1.3c0.1,0.4,0.3,0.7,0.6,1c0.3,0.3,0.6,0.5,0.9,0.6
					c0.3,0.2,0.7,0.2,1.1,0.2h1c0.1,0,0.2,0,0.3,0c0.1,0,0.2,0.1,0.2,0.3v1.3c0,0.2-0.2,0.3-0.5,0.3H55z M48,45.5h2v2.8h-2V45.5z
					 M52.1,45.5h2v2.8h-2V45.5z"/>
				<path class="st53" d="M56,62.4c-0.3,0-0.5-0.1-0.5-0.3v-1.3c0-0.2,0.1-0.3,0.2-0.3c0.1,0,0.2,0,0.3,0h4c0.3,0,0.5,0.1,0.5,0.3
					v1.3c0,0.2-0.1,0.3-0.2,0.3c-0.1,0-0.2,0-0.4,0H56z"/>
				<path class="st53" d="M68.9,63.1c-1.2,0-2.2-0.2-3-0.7c-0.8-0.4-1.4-1.1-1.9-1.9c-0.1,0.3-0.3,0.6-0.6,0.8
					c-0.2,0.2-0.5,0.4-0.8,0.6c-0.3,0.2-0.6,0.3-0.9,0.4c-0.3,0.1-0.6,0.1-0.9,0.1H60c-0.3,0-0.5-0.1-0.5-0.3v-1.3
					c0-0.2,0.1-0.3,0.2-0.3c0.1,0,0.2,0,0.3,0h0.8c0.4,0,0.7,0,1-0.1c0.3-0.1,0.6-0.2,0.8-0.5c0.2-0.2,0.4-0.5,0.6-0.9
					c0.1-0.4,0.2-0.9,0.2-1.5v-0.2c0-1.9,0.5-3.3,1.5-4.3c1-1,2.3-1.5,4-1.5c1.7,0,3.1,0.5,4,1.5c1,1,1.5,2.4,1.5,4.3v0.2
					c0,0.6,0.1,1.1,0.2,1.5c0.1,0.4,0.3,0.7,0.5,0.9c0.2,0.2,0.5,0.4,0.8,0.5c0.3,0.1,0.7,0.1,1,0.1h0.8c0.1,0,0.2,0,0.3,0
					c0.1,0,0.2,0.1,0.2,0.3v1.3c0,0.2-0.2,0.3-0.5,0.3H77c-0.3,0-0.6,0-0.9-0.1s-0.6-0.2-0.9-0.4c-0.3-0.2-0.6-0.4-0.8-0.6
					c-0.2-0.2-0.4-0.5-0.6-0.8c-0.4,0.8-1.1,1.5-1.9,1.9C71.1,62.9,70.1,63.1,68.9,63.1z M68.9,61.1c1,0,1.8-0.3,2.5-0.9
					c0.6-0.6,1-1.6,1-2.9s-0.3-2.3-1-2.9c-0.6-0.6-1.5-1-2.5-1c-1,0-1.9,0.3-2.5,1c-0.6,0.6-1,1.6-1,2.9s0.3,2.3,1,2.9
					C67.1,60.8,67.9,61.1,68.9,61.1z"/>
				<path class="st53" d="M81.8,60.5v-15h2v16.9h-5.9c-0.3,0-0.5-0.1-0.5-0.3v-1.3c0-0.2,0.1-0.3,0.2-0.3c0.1,0,0.2,0,0.3,0H81.8z"
					/>
				<path class="st53" d="M86.8,62.4V45.5h2v16.9H86.8z"/>
				<path class="st53" d="M115,60.5v-8.1h2v10.1h-15.2c-0.7,0-1.3-0.1-1.9-0.3c-0.6-0.2-1.1-0.5-1.6-0.9c-0.4-0.4-0.8-1-1.1-1.7
					c-0.3-0.7-0.4-1.5-0.4-2.5v-1.6h1.8V57c0,1.2,0.3,2.1,0.8,2.7c0.5,0.6,1.3,0.8,2.3,0.8H115z M103.9,47.6h2v2.8h-2V47.6z
					 M107.9,47.6h2v2.8h-2V47.6z"/>
				<path class="st53" d="M124.2,60.5c0.1,0,0.2,0,0.3,0c0.1,0,0.2,0.1,0.2,0.3v1.3c0,0.2-0.2,0.3-0.5,0.3h-4.1V45.5h2v15H124.2z"/>
				<path class="st53" d="M128.9,60.5L128.9,60.5c-0.2-0.3-0.3-0.5-0.5-0.8c-0.2-0.3-0.4-0.6-0.5-1c-0.2-0.4-0.3-0.8-0.4-1.2
					c-0.1-0.4-0.2-0.8-0.2-1.3c0-0.8,0.1-1.6,0.4-2.3c0.3-0.7,0.6-1.3,1.1-1.7c0.5-0.5,1-0.8,1.6-1.1c0.6-0.3,1.3-0.4,2.1-0.4
					s1.4,0.1,2,0.4c0.6,0.3,1,0.6,1.4,1.1c0.4,0.4,0.7,1,0.9,1.5c0.2,0.6,0.4,1.1,0.5,1.7h-1.9c0-0.4-0.1-0.7-0.3-1
					c-0.2-0.3-0.3-0.6-0.6-0.9c-0.2-0.3-0.5-0.5-0.8-0.6c-0.3-0.2-0.7-0.2-1.1-0.2c-0.4,0-0.8,0.1-1.1,0.2c-0.4,0.1-0.7,0.3-1,0.6
					c-0.3,0.3-0.5,0.6-0.7,1.1c-0.2,0.4-0.3,1-0.3,1.6c0,0.6,0.1,1.2,0.2,1.7s0.4,1,0.7,1.3c0.3,0.4,0.6,0.7,1,0.9
					c0.4,0.2,0.8,0.3,1.3,0.3h4.7v1.9h-13.1c-0.3,0-0.5-0.1-0.5-0.3v-1.3c0-0.2,0.1-0.3,0.2-0.3c0.1,0,0.2,0,0.3,0H128.9z"/>
				<path class="st53" d="M144.1,60.5c0.1,0,0.2,0,0.3,0c0.1,0,0.2,0.1,0.2,0.3v1.3c0,0.2-0.2,0.3-0.5,0.3H140V45.5h2v15H144.1z"/>
				<path class="st53" d="M154.3,62.4c-0.3,0-0.7-0.1-1-0.2c-0.4-0.1-0.7-0.3-1-0.4c-0.3-0.2-0.6-0.4-0.8-0.6
					c-0.2-0.2-0.4-0.5-0.5-0.8c-0.4,0.7-0.9,1.2-1.5,1.6c-0.6,0.3-1.3,0.5-2,0.5h-3.4c-0.3,0-0.5-0.1-0.5-0.3v-1.3
					c0-0.2,0.1-0.3,0.2-0.3c0.1,0,0.2,0,0.3,0h3.4c0.5,0,1-0.2,1.4-0.5c0.4-0.4,0.6-1,0.6-1.8v-5.8h2v5c0,0.5,0.1,0.9,0.2,1.3
					c0.1,0.4,0.3,0.7,0.6,1c0.3,0.3,0.6,0.5,0.9,0.6c0.3,0.2,0.7,0.2,1.1,0.2h1c0.1,0,0.2,0,0.3,0c0.1,0,0.2,0.1,0.2,0.3v1.3
					c0,0.2-0.2,0.3-0.5,0.3H154.3z M149.6,45.5h2v2.8h-2V45.5z"/>
				<path class="st53" d="M155.3,62.4c-0.3,0-0.5-0.1-0.5-0.3v-1.3c0-0.2,0.1-0.3,0.2-0.3c0.1,0,0.2,0,0.3,0h4
					c0.3,0,0.5,0.1,0.5,0.3v1.3c0,0.2-0.1,0.3-0.2,0.3c-0.1,0-0.2,0-0.4,0H155.3z"/>
				<path class="st53" d="M159.3,62.4c-0.3,0-0.5-0.1-0.5-0.3v-1.3c0-0.2,0.1-0.3,0.2-0.3c0.1,0,0.2,0,0.3,0h4
					c0.3,0,0.5,0.1,0.5,0.3v1.3c0,0.2-0.1,0.3-0.2,0.3c-0.1,0-0.2,0-0.4,0H159.3z"/>
				<path class="st53" d="M163.4,62.4c-0.3,0-0.5-0.1-0.5-0.3v-1.3c0-0.2,0.1-0.3,0.2-0.3c0.1,0,0.2,0,0.3,0h3.2V53h2v4.7h0.1
					c0.5-0.7,1.1-1.4,1.7-2.2c0.6-0.8,1.4-1.4,2.1-2.1c0.8-0.6,1.6-1.1,2.5-1.5s1.8-0.6,2.8-0.6c1.8,0,3.2,0.5,4.3,1.5
					c1,1,1.6,2.4,1.6,4.3V58c0,0.8,0.2,1.4,0.7,1.8c0.5,0.4,1.1,0.6,1.8,0.6h1.2c0.1,0,0.2,0,0.3,0c0.1,0,0.2,0.1,0.2,0.3v1.3
					c0,0.2-0.2,0.3-0.5,0.3h-1.2c-0.2,0-0.5,0-0.7-0.1c-0.2-0.1-0.5-0.2-0.7-0.3c-0.2-0.1-0.4-0.3-0.6-0.5s-0.3-0.4-0.4-0.6h-0.1
					c0,0.2-0.1,0.4-0.2,0.7s-0.3,0.6-0.5,0.8H163.4z M177.7,53.2c-0.6,0-1.2,0.1-1.9,0.4c-0.6,0.3-1.2,0.7-1.8,1.1
					c-0.6,0.5-1.2,1-1.7,1.5c-0.5,0.6-1,1.1-1.5,1.6c-0.4,0.5-0.8,1-1.2,1.5c-0.3,0.5-0.6,0.8-0.8,1.1h12.7v-3.4
					c0-0.6-0.1-1.2-0.3-1.7c-0.2-0.5-0.5-0.9-0.9-1.2c-0.4-0.3-0.8-0.6-1.3-0.7C178.8,53.3,178.3,53.2,177.7,53.2z"/>
				<path class="st53" d="M195.9,62.4c-0.3,0-0.7-0.1-1-0.2c-0.4-0.1-0.7-0.3-1-0.4c-0.3-0.2-0.6-0.4-0.8-0.6
					c-0.2-0.2-0.4-0.5-0.5-0.8c-0.4,0.7-0.9,1.2-1.5,1.6c-0.6,0.3-1.3,0.5-2,0.5h-1.8c-0.3,0-0.5-0.1-0.5-0.3v-1.3
					c0-0.2,0.1-0.3,0.2-0.3c0.1,0,0.2,0,0.3,0h1.8c0.5,0,1-0.2,1.4-0.5c0.4-0.4,0.6-1,0.6-1.8V45.5h2v11.8c0,0.5,0.1,0.9,0.2,1.3
					c0.2,0.4,0.3,0.7,0.6,1c0.3,0.3,0.6,0.5,0.9,0.6c0.3,0.2,0.7,0.2,1.1,0.2h0.9c0.1,0,0.2,0,0.3,0c0.1,0,0.2,0.1,0.2,0.3v1.3
					c0,0.2-0.2,0.3-0.5,0.3H195.9z"/>
				<path class="st53" d="M200.8,60.5v-15h2v16.9h-5.9c-0.3,0-0.5-0.1-0.5-0.3v-1.3c0-0.2,0.1-0.3,0.2-0.3c0.1,0,0.2,0,0.3,0H200.8z
					"/>
			</g>
		</g>
	</g>
</g>
</svg>
