<?xml version="1.0" encoding="utf-8"?>
<!-- Generator: Adobe Illustrator 26.0.1, SVG Export Plug-In . SVG Version: 6.00 Build 0)  -->
<svg version="1.1" id="Layer_1" xmlns="http://www.w3.org/2000/svg" xmlns:xlink="http://www.w3.org/1999/xlink" x="0px" y="0px"
	 viewBox="0 0 424.9 500" style="enable-background:new 0 0 424.9 500;" xml:space="preserve">
<style type="text/css">
	.st0{fill:#FFFFFF;}
	.st1{fill:#F9423E;}
	.st2{opacity:0.6;fill:#53565A;}
	.st3{fill:#53565A;}
</style>
<g>
	<g>
		<path class="st0" d="M296.7,339l-1.9-0.1l0.9,0.2C296.1,339.1,296.4,339,296.7,339"/>
		<polyline class="st0" points="293.1,338.7 292.8,338.7 292.4,338.7 293.1,338.7 		"/>
		<path class="st0" d="M289.8,338.6l1.7,0.1C291,338.6,290.5,338.6,289.8,338.6"/>
		<path class="st0" d="M292.4,338.8c-0.2-0.1-0.3-0.1,0-0.1h0l-1,0C291.8,338.7,292.1,338.7,292.4,338.8"/>
		<path class="st0" d="M292.4,338.8c0.2,0.1,0.5,0.1,0.6,0.1L292.4,338.8"/>
		<path class="st0" d="M291.5,339.9c-0.3,0-0.2-0.3-0.9-0.3c-1.5,0-2.8,0.1-4.2,0c-0.7,0.1-1.6-0.3-2.3-0.3
			c-1.5,0.1-5.4,0.3-3.1,0.4c3.4,0.1,5.6,0.1,8.8,0.2c2.5,0,4.9,0.1,7.5,0.2c0.7,0.1,1.3,0.1,2,0.2c-0.9-0.1-1.8-0.3-2.7-0.4
			C295.2,339.7,293.6,340,291.5,339.9"/>
		<path class="st0" d="M310.4,340.6c-0.4,0-1,0-1,0c-1.4-0.5-3-0.6-4.5-0.6l0.6,0.2c0.9,0.1,1,0,0.2-0.2c1.8,0.4,3.4,0.7,5.2,0.9
			C310.8,340.8,310.8,340.7,310.4,340.6"/>
		<polyline class="st0" points="311.9,341 310.9,340.8 310.9,340.9 311.9,341 311.9,341 		"/>
		<path class="st0" d="M311.8,270c0-1.1,0.5-2,1.3-2.8c0.8-0.8,1.8-1.2,2.9-1.1c1.2,0.1,2.1,0.5,2.9,1.3c0.7,0.8,1.1,1.9,1,2.9
			c-0.1,1.1-0.5,2-1.3,2.6c-0.8,0.7-1.8,1-2.9,0.9c-1.1-0.1-2.1-0.5-2.8-1.2C312.1,272,311.8,271,311.8,270"/>
		<path class="st1" d="M161.1,53.2c6.7,6.8,5.5,4.2,2.8,1.2C163.2,54.3,158.4,50.3,161.1,53.2"/>
		<path class="st1" d="M56.7,136.9l-1.3,2.6c-2.9,5.8,4.7,15.5,9.3,12.5C57.7,151.3,52.3,144.4,56.7,136.9"/>
		<polyline class="st1" points="59.1,140.6 59.8,132.5 58,145.6 59.1,140.6 		"/>
		<polyline class="st1" points="177.7,140.2 175.8,140.9 149,153.4 177.7,140.2 		"/>
		<g>
			<path class="st2" d="M180.9,499.8c-10.4-0.5-20.9-2-31.4-4.6l-0.4,0.4c-0.5,0.2-1.4,0.3-2.4,0.3c-1.3-0.1-2.8-0.4-4.1-1.1
				l-19.3-8.6c-11.5-5.9-22.9-11.7-32.9-19.4c7.9,6.3,16.7,11.3,25.6,16.2c2.7,1.4,4.5,3.2,3.9,3.7c-0.2,0.2-0.5,0.2-0.9,0.2
				c-1.2-0.1-3.2-0.7-5.2-1.8c-25.1-12.3-49.4-32.7-61.7-53.3C9.6,387.1-4.4,321.1,3.4,262.1c0.2-1.2,0.6-2.6,1-3.1
				c0.2-0.3,0.3-0.4,0.4-0.4c0.2,0,0.3,0.4,0.2,1.1C-2.5,321.4,15.6,393,65.5,438.8l8.8,8.4c-7.9-8.7-15.3-18-22.1-28
				c-1.2-0.7-2.8-2-4.2-3.9l-10.2-13.8l-0.2,0.6c-0.1,0-0.1,0.1-0.2,0c-0.7,0-2.1-1.5-3.4-3.5c-8.7-13.6-10.5-27.5-15.6-41.4l-0.2-1
				c-23.5-70.6,8.6-153.4,67-199.5c0.6-0.8,1.9-1.8,2.6-2.1c0.2-0.1,0.4-0.1,0.5-0.1c0.4,0,0.3,0.4-0.2,1l0.4,0.6
				c-19.3,19.7-34.8,40.7-48.8,65.9c-5,8.6-8.9,17.8-12.2,27.1c4.3-9.3,9.4-17.6,15.3-24.1c12.1-22,28.8-42.3,48.6-56.7l-1,0.3
				c1.4-1.2,2.9-2.1,3.6-2.1c0.1,0,0.2,0,0.3,0.1c0.6,0.3-0.4,1.9-2.1,3.4C33.4,220.4,11,308.8,41.7,377.4c1.7,5.1,3.9,9.9,7.2,14.2
				c0.3,0.5,0.6,0.9,0.9,1.2c3.9,6.6,8.5,13,13.5,19c22.6,27.8,51.7,48.7,84.7,58.9c4.8,2,8.9,3,8.4,4.8c-0.2,0.9-2.5,1.7-5.4,1.6
				c-1.5-0.1-3.1-0.4-4.8-1.1c-33.9-10-64.3-30.8-87.1-58.9c-9.6-12.4-20.4-25.2-24.6-40c2.4,12,9.9,22.4,16.1,33
				c11.6,15.1,24.9,28.9,39.9,41.5c25,20.6,55.6,33.4,87.7,34.9c14,0.6,28.3-0.9,42.5-4.9c45-13.3,70.4-38.3,101.9-64.6
				c1.4-1.2,3.2-2.1,4.1-2.1c0,0,0.1,0,0.1,0c0.8,0,0.5,1-0.9,2.1c-29.9,26.8-58.7,52.7-102.5,66.9c-15.4,5-31.4,7-47.2,6.3
				c-32.2-1.5-63.9-14.2-88.9-35.6l-7.3-6.7c7.2,8.2,15.8,14.8,24,21.9c23.5,14.5,50.9,23.1,78.8,24.4c14.6,0.7,29.3-0.6,43.6-4.2
				c32.4-8.1,60.4-23.7,87-41.5c2.9-2.2,6.1-3.6,7.6-3.5c0.2,0,0.3,0,0.5,0.1c1.3,0.5-0.4,2.9-3.7,5.4
				C281.7,479.4,232.6,502.2,180.9,499.8 M21.6,322.5L21.6,322.5 M34.6,241.9c-10.1,17.8-13.8,39.5-15.1,59.7l1.8,17.4
				C19,292.9,24.2,266.3,34.6,241.9"/>
			<path class="st2" d="M34.6,315.2c-0.2,0-0.3-0.3-0.4-0.8c-2.9-13.3-0.9-28.6,3.6-42.1c0.2-0.6,0.5-1.1,0.7-1c0,0,0,0,0.1,0
				l-0.1,1.6c-4.2,12.9-6.4,27.7-3.5,40.3l-0.2,1.8C34.7,315.2,34.7,315.2,34.6,315.2"/>
			<path class="st2" d="M179.7,468.2c-28.4-1.3-54.6-13.6-77.1-31.5C65.4,405.9,44,367.8,36.2,323.8l0.2-1.8c0-0.1,0.1-0.1,0.1-0.1
				c0.2,0,0.3,0.3,0.4,0.7c7.4,44.2,29.2,83.3,66.7,113.1c21.7,18.3,49.3,29.2,77.4,30.5c18.8,0.9,37.9-2.6,55.6-11l2.5-0.5
				c0.4,0.2,0,0.7-0.9,1.1c-10.2,6.2-22.3,8.4-34.5,10.9C195.7,468,187.6,468.5,179.7,468.2"/>
			<path class="st2" d="M166.7,468c-39.9-3.2-72.6-29.6-98.8-60.9c-11.8-12.6-19.2-24.6-24.2-39.1l-0.4-1.6c-0.2-0.5-0.4-1-0.6-1.5
				c-1.4-4.5-2.6-9.2-3.7-14.3l0.3-1.3l0.6,1.5c5.5,21.9,11.5,35.5,26.1,50.9c10.3,11.4,19.4,22.7,30.3,32.6
				c19.6,19,44.7,30.2,70.6,32.9c0.7,0.1,1.4,0.4,1.4,0.7L166.7,468"/>
			<path class="st2" d="M46.5,433.7c-0.5,0-1.5-0.9-2.5-2.2c-23.3-26.8-36.1-66.8-43.7-96.7L0,332.3c0.1-0.3,0.1-0.4,0.2-0.4
				c0.1,0,0.3,0.2,0.5,0.7c8.1,30.5,21.1,70.7,44.8,98.3c1.1,1.4,1.5,2.5,1.1,2.8C46.6,433.7,46.6,433.7,46.5,433.7"/>
			<path class="st2" d="M87.3,431.7c-0.4,0-1.2-0.4-2-1.1c-16.9-16.5-34.9-37.4-41.7-58.3l-0.6,0c2,7.4,3.4,11.7,7.7,18.2
				c1.1,1.7,1.5,3.3,1,3.6c-0.1,0-0.1,0.1-0.2,0.1c-0.4,0-1.1-0.5-1.7-1.3c-0.3-0.4-0.6-0.8-0.9-1.2c-3.2-4.3-5.4-9.2-7.2-14.2
				c-2.7-7.8-4.3-16.3-7.2-24.6c-8.6-28.5-8.2-59.9,0.5-88.8c5.1-17,14.6-30.5,25-44c11.2-18.9,26.8-35.4,44.7-49.4
				c7.8-9,17.5-17.6,26.5-25.4l1.7-0.8c0.1,0,0.2,0,0.3,0c0.3,0,0.2,0.2-0.2,0.6c-8.9,7.6-17.8,15.9-27.2,25.3
				c-6.9,6.7-15.4,13.3-22.6,20.8C74.6,200.1,67.7,210,61,220c-17.2,24.9-29.6,53.1-29.7,84c1,21,3.7,41.2,11.3,60.8
				c0.2,0.5,0.4,1,0.6,1.5l0.4,1.6l0.4,1.5c6.4,21.6,25.1,42.8,42.3,60.1c1,0.9,1.6,1.8,1.3,2.1C87.6,431.7,87.5,431.8,87.3,431.7"
				/>
			<path class="st3" d="M348.8,305.9c-3.3,72.3-64.7,128.2-137,124.9c-72.3-3.3-128.3-64.7-124.9-137c3.3-72.4,64.7-128.3,137-124.9
				C296.2,172.2,352.2,233.5,348.8,305.9"/>
			<path class="st1" d="M344.3,312.5c-17.1,170.9-251.7,126-252.8-25.4c-0.6-84.4,86.3-121.6,155.9-106.9
				C308.6,193.1,343.8,254.1,344.3,312.5c0-1.9,9.1-8.9,9.1-13.3c-0.7-88.9-89.9-169.6-179.9-128.1c-52.5,24.2-85.3,72.2-91.1,129.3
				c-9.1,91.2,96.7,166.4,179.9,128.1c52.5-24.2,85.3-72.2,91.1-129.3C353.1,301.5,344.7,307.9,344.3,312.5"/>
			<polyline class="st0" points="161.6,281.3 156.8,281.1 144.9,266.2 144.2,280.5 138.5,280.3 139.6,257.9 142.1,258 144.8,258.2 
				156.3,272.4 156.9,258.7 162.6,259 161.6,281.3 			"/>
			<polyline class="st0" points="192.2,282.7 175.4,282 176.5,259.6 193,260.4 192.8,264.5 182,264 181.7,268.7 192.1,269.2 
				191.9,273.2 181.5,272.8 181.3,278.1 192.4,278.6 192.2,282.7 			"/>
			<path class="st0" d="M221.3,267.5c-3.3-1.6-5.2-2.2-7.1-2.3c-2-0.1-3.4,0.6-3.4,1.7c-0.2,3.4,11.5,3,11.1,10.8
				c-0.2,4.3-4,6.6-9,6.4c-4-0.2-5.9-1.3-8.1-2.5l0.2-4.8c3.2,2.3,5.1,3.1,7.6,3.2c2.2,0.1,3.4-0.6,3.4-1.9
				c0.2-3.6-11.5-2.8-11.1-10.9c0.2-3.9,3.7-6.3,9-6c2.5,0.1,4.8,0.7,7.7,2.1L221.3,267.5"/>
			<polyline class="st0" points="254.7,263.2 259.6,263.5 258.6,285.8 252.9,285.5 253.6,271.6 247.1,278.3 246.2,278.3 240.4,271 
				239.8,284.9 234.1,284.7 235.1,262.3 240.1,262.6 247,271.2 254.7,263.2 			"/>
			<path class="st0" d="M283.2,269.9l-3.7,8.5l7,0.3L283.2,269.9L283.2,269.9z M295.8,287.5l-6.1-0.3l-1.7-4.5l-10.2-0.5l-1.9,4.3
				l-6-0.3l10.2-21.9l6.6,0.3L295.8,287.5"/>
			<polyline class="st0" points="205,305.5 214.2,305.9 214.9,290.4 205.8,290 205,305.5 			"/>
			<polyline class="st0" points="251.2,307.6 260.1,308 260.8,292.5 252,292.1 251.2,307.6 			"/>
			<polyline class="st0" points="228.1,306.5 237.3,307 238,291.4 228.9,291 228.1,306.5 			"/>
			<path class="st0" d="M316.5,309.5c-0.9,0.7-1.6,1.1-2,1l-37-1.7c0,0-2.7-0.3-2.5-3.7c0.2-3.3,2.9-3.7,2.9-3.7l30.9,1.4
				c2.6,0.1,2.2-4.2,2.5-9.8c0.1-1.7,0-9.1,0.1-9.3c0,0,1.3-1.4,4-1.3c2.8,0.1,3.5,1.6,3.5,1.6l-1.1,23.7
				C317.8,308.3,317.4,308.9,316.5,309.5"/>
			<path class="st0" d="M164.4,313.7l-0.4,8.7l-19.3-0.9l0.8-17.7l9.1,0.4c5.7,0.5,7.7,2.1,9,3.7
				C164.7,309.3,164.5,312.5,164.4,313.7L164.4,313.7z M138.6,324c0.1,1.2,0.4,2,0.8,2.5c0.7,0.8,2,1.2,4.2,1.3l26.1,1.2l0.7-15.6
				c0.2-3.2-0.2-5.8-1.6-8.3l18.5,0.9c0,0,2.6-0.6,2.7-3.2c0.1-2.7-2.4-3.3-2.4-3.3l-29.5-1.4c-0.1,0-18.4-0.8-18.4-0.8l-0.9,20.3"
				/>
			<path class="st0" d="M125.4,340.3c0,0,141.9-6.2,186.5,0.7"/>
			<path class="st0" d="M282.9,338.5c-4.3-0.2-8.4-0.3-12.3-0.5c-0.3,0.1-0.5,0.1-0.9,0.1l-0.9-0.2l-1.7-0.1l-0.6,0.1h0
				c-0.3,0-0.2,0.1,0,0.1l0.6,0.1c-0.1,0-0.4-0.1-0.6-0.1c-0.2,0-0.6-0.1-0.9-0.1c-0.5,0-1.1,0-1.6,0c0.6,0,1.2-0.1,1.6,0l1,0
				l0.3-0.1l-3.9-0.1c-0.3,0-0.6,0-0.9,0c-1,0-1.9,0-2.5-0.1l-0.7,0l0.2,0l-0.3,0l-3-0.1l-2,0.2c0,0-0.4-0.2-0.6-0.2
				c-0.3,0.1-0.7,0.2-1.1,0.2c0.5,0.1,1.1,0.2,1.5,0.3c0.6,0.2,1.5-0.4,2.3,0c-0.8-0.3-1.6,0.2-2.3,0c-0.4-0.1-1-0.2-1.5-0.3
				c-0.9,0-2.1,0-3.1-0.2c1.2-0.1,2.2,0,3.1,0.2c0.5,0,0.9-0.1,1.1-0.2c0.2,0,0.6,0.2,0.6,0.2l2-0.2c-2,0-3.9-0.1-6-0.2
				c-13-0.3-25-0.2-38.5-0.2c-7.3,0.1-14.3,0-21.2,0c-13.8-0.1-26.2,0.7-40.1,0.4c-5.3-0.2-15.2,0.4-20.3,0.6
				c-6.8,0.9-3.2,2.1-2.8,2.2c4.3,1,7.5,0.2,16.2,0.6c-5.9-0.2,4.2-0.9,9.8-0.3c8.1,1,19.4-0.3,29.3-0.3c2.4,0.1,5.1-0.1,8-0.1
				c15.3,0.1,29.5-0.6,45.5-0.6c4.3,0,8-0.3,11.6-0.4c2.6,0,5.4,0.2,7.5,0.2c3.4,0.1,6.2,0,9-0.1c-3.1,0-5.3,0-8.8,0.1
				c-2.3,0,1.6-0.4,3.1-0.5c0.6,0,1.7,0.3,2.3,0.2c1.4,0.1,2.7-0.1,4.2-0.2c0.6-0.1,0.6,0.3,0.9,0.2c2,0,3.7-0.4,5-0.3
				c1,0.1,1.9,0.2,2.8,0.2l1.7,0.1l1.1-0.1c-0.3-0.1-0.4-0.2-0.5-0.4c0.6,0,1.3,0.1,1.9,0.2c-0.6,0-1.3-0.1-1.9-0.2
				c0.1,0.1,0.2,0.3,0.5,0.4c2.7-0.1,5.9-0.1,8.8-0.1l0,0c-1.7-0.1-3.4-0.1-5.2-0.4c0.8,0.1,0.7,0.1-0.2,0.1l-0.6-0.2
				c1.5-0.1,3-0.1,4.5,0.2c0,0,0.6-0.1,1-0.1c0.5,0,0.5,0.1,0.5,0.2l1,0C285.2,338.8,282.9,338.5,282.9,338.5"/>
			<path class="st0" d="M265.3,337.9c0.2-0.1,0.6,0,0.8,0l-3.3-0.1C263.4,338,264.3,337.9,265.3,337.9"/>
			<path class="st0" d="M121.8,313.2c-0.1,2.1-0.7,3.6,0.9,3.7l18.8,0.8l-0.3,7.3l-19.6-0.9c-5.2-0.2-7.8-2.7-7.5-7.6l2.7-58.3
				c0,0,1.1-1.7,3.9-1.6c2.8,0.1,3.6,2,3.6,2L121.8,313.2"/>
			<polyline class="st3" points="122,0.7 147.1,0 225.4,74.2 305.5,31.4 340.6,34 340,47.9 246.2,108.6 250.5,236.1 233.6,220.5 
				201.6,128.8 121.9,163.3 106.3,199.7 87.6,203.5 85.5,168.1 65.9,149.5 57.6,147.3 60.4,127.9 92.7,133.1 103.7,136.4 
				112.9,136.8 179.8,98.1 180.9,73.1 124,17.5 122,0.7 			"/>
			<path class="st1" d="M252.5,182.4c-0.1,2.7-0.2,5.9-0.4,5.4C252.5,190.8,252.7,191.5,252.5,182.4"/>
			<polyline class="st1" points="252.1,187.9 251.9,185.9 252,187.7 252.1,187.9 			"/>
			<path class="st1" d="M176,131.1c-9.6,4.9-15.3,6.9-24.5,11.2l-5.7,1.2c-10,4.7-4.1,2.8-11.2,6.6c-5.7,4.1-9.7-0.7-20.7,13.2
				c-2.7,6.6-5.2,12.6-6.1,14.8c-1.8,2.8,0.9-4.1,1.3-5.7c-3.1,9.7-7.1,16.9-5.9,21.1l-0.3-0.3l-14.4,3.5c11.1,12.2,2.3-5.5,4.5-6.9
				c-0.3-6.6-0.2-28-11.3-33.2c-5.2-4.3-5.7-6.5-14.8-12.5c-0.8,1.9-9.8-7.2-3.8,3.6l1.1-8.3l1.1-8.3l0.3-2.1
				c-12,7.9-2.2,2.3-4.3,4.2l4.1,0.6l16.1,2.3c-2.8-0.5-2.1-0.7-3.2-1.1c10.6,0.1,22.3,6.4,34.5,5.7c14.5-7,21.5-12.3,32.3-18.5
				c18.3-10.4,45-23.2,36.7-44.7c-0.5,6.4,0.1,12.6-1.8,21.5l-21,11.8c-14.3,8.1-28.6,16.4-38.8,23.5c-8.6,8.2-23.6,1-26.7-0.3
				c-40.3-11.7-43,7.4-10.1,28.7c3.4,3.5,1.3,2.3,1.9,3.7c-6.9-5.9-12.8-12.5-20.5-17.8c4.8,3.1,8,7.5,12.1,11.2
				c-3.6-8-21-11.4-20.1-15.4c7.8,6.4,23,14.9,28.5,27.4c4,10.3-4.9,39.7,10.1,29.3c-14.7,8.2-4.6-14.3-8.7-22.8
				c0.6-4.4-0.6-13.7-1.3-13c7.5,11.5-1,45.1,10.5,33.4c13.5,4,14-22.9,22.1-34.4c8.2-9.5,18.4-9.6,20-11c-5,2.4-1,1.1-5.1,3.2
				c10.8-5.1,0.3-2.3,16.2-8.9l-1.3,2.6c5.5-4.6,19.5-8,30.3-14c4.4-1-2.9,2.6-11.6,6.4c10-3.9,10.4-5.4,18.3-8.7l-6.8,4.7
				c7.7-5,15.1-6.2,20-7.8c0.1,1.6-4-4.7,5.5,0.6c1.4,4.7,0.2,2.5,0.4,3.6c0.6,0.5,2.6,4.1,5.2,11.2c-0.1,1.5-2.4-4.5-3.1-4.7
				c1.9,5.4,3.6,9.7,4.5,13.7c3.8,9.3,0.5-0.9,3.1,4.8c4.7,14.7-1.3,2.1-0.5,7.8c-4.6-10.7-9.7-24.7-12.2-30.5l7.8,20.9
				c-1-1.1,3.9,14.6-0.5,3.7c8.5,21.1,12.5,46.4,27.7,66.1c-2.1-2.2-4.8-4.9-4.1-4.8c8.4,7.2,6.9,6.9,8.3,8.8
				c7.1,3.2,4.6,8.2,12.3,2.1c0.4-16.9-0.3-19.2,0.6-33.6l-1.1,0.9c0.5-10.2-1.2-11.6-0.9-22.6c0.2-0.6,0.6,3.6,1,6.9
				c-0.7-9.7,0.6-9-0.1-18.4l1.5,7.5c-0.3-7.5-1-18.6,0.1-14.7c-2.2-11.4-0.9-40.1-4.4-48.8c-1.9,4.1,2-4,2.1-2.8
				c1.5,2.8,24.9-14.6,29.2-17.9l1.3-0.3l13.5-10.3c6.5-4.1,5.1-1.5,5.4-2.1c14-9.3,25-16.6,34.4-22c3.5,6.4,18.2-33.3-5.7-25.1
				c-38-9.4-63.2,25.3-95.3,36.4c-23.6,1.9-50-39.3-73-54.8C154,4.4,144.3-2.3,131.5,2.1c15.7-0.6,14.9-2.5,25,8.7
				c7.5,7.6,9.4,11.2,15.6,18.1l-2.7-4c11.1,9.3,6.8,7.2,15.8,14.3l-1.5,0.9c3.5,2.1,10.3,9.6,13,12.7l3.5,1.7
				c6.1,6.7,10.2,11,11.5,13.7l0.1-1.4c3.5,0.4,1.8,9.6,17.9,10c6.2-3.2,10.9-5.4,6.6-2c2.2-1.5,4-3.1,9.2-5.7l1.3,0.5
				c7.2-4.2,15.3-8.7,17.7-9.3c-3.9,2.4-5,3.5-6.1,4.6c31.1-16.4,4.9-6.7,32.3-21.5l0,0.8l6.6-4.4l7.7-3.1c-0.1-2.9,15-0.5,25.5,0
				l9,0.8c-5.8-6.5-1.9,3.4-3.3,4.2c1.3,7.6-2.1,2.5-7,8.5c-6.1,4.2-15,8.2-26.8,16l1.4,0.4c-10.1,5.2-45.9,27.5-56.2,31.2
				c-8.5,6.5,1.1-0.4,1.3,0.4c-18.2,25.5-5.4,23.6-10.2,35.5c1,12.8,0.1-9.8,1.2-2.9c-0.2,19.6,1.9,15.9,2,40.1
				c-0.5,2.4-0.6-6.3-1.1-8.7c6.4,14.6-8.4,54.2,13.7,68.6c-23.8-10.4-26.8-63.4-40.4-91.9l-0.6-0.5l-3.1-10.3
				c-23.2-15.7-12.3-1.8-20.2-4.1l-21.9,9.4L176,131.1"/>
			<path class="st1" d="M253.5,183.5c0.6,3.4,0.6,8.2,1,11.8l-0.9-13.8L253.5,183.5"/>
		</g>
		<path class="st1" d="M300,84.1c3.5-4.3,8.8-5.7,2.1-3.2C295.3,85.6,301.6,82.3,300,84.1"/>
		<path class="st1" d="M324.7,65.1c-4,2.5-6.1,4.2-8.2,5.8C322.2,68.2,321.9,67.3,324.7,65.1"/>
	</g>
	<g>
		<path class="st1" d="M319.7,125.4c-0.2,0.7-1,1-2.5,1.2c-5,0.6-10.5,0.4-16.3-0.6c-1.6,6.3-3.1,12.6-4.6,18.9
			c-1.5,7.3-1.8,13.7-0.9,19.1c0.1,0.4-1,0.4-3.4,0.1c-1.7-0.3-2.9-0.6-3.7-0.8c-1.9-0.6-3.4-1.1-4.6-1.7c-0.5-0.2-0.9-0.4-1-0.6
			c-0.4-0.3-0.7-0.6-0.7-0.9c-0.9-5.4-0.6-11.7,0.8-18.9c1.5-6.2,3-12.5,4.5-18.7c-4.2-1.5-8-3.4-11.2-5.6c-1.2-0.8-1.7-1.6-1.5-2.4
			c0.2-0.7,1-1,2.5-1.2c1.5-0.1,3.1,0.1,4.8,0.6c1.1,0.3,2.8,1.1,5.1,2.5l0.3,0.2c0.3,0.1,0.6,0.3,1.1,0.5c0.1-0.4,0.1-0.8,0.2-1.2
			c0.1-0.9,2.5-0.6,7.1,0.7c1.8,0.6,3.4,1.1,4.6,1.7c0.5,0.3,0.9,0.4,1,0.5c0.5,0.4,0.7,0.7,0.7,1l-0.1,0.6l0.5,0.1
			c0.7,0.1,2.5,0,5.6-0.1c2.2-0.2,4,0,5.5,0.4c1.8,0.5,3.3,1.3,4.7,2.3C319.4,123.9,319.9,124.7,319.7,125.4"/>
		<path class="st1" d="M352,168.4c1.5-1.3,2.6-2.9,3.2-4.5c1-2.6,1.2-5.7,0.6-9.2c-0.5-3.3-1.6-6.2-3.1-8.8
			c-0.2-0.3-0.4-0.6-0.6-0.9l-0.3-0.4l0,0l-0.1,0c-0.3,0-0.6,0.1-0.9,0.1c-0.3,0.1-0.6,0.1-1,0.1c-3.2,1.1-6.3,3.7-9.3,7.8
			c-2.5,3.4-4.9,8.5-7.4,15.3c0.8,0.2,2.3,0.8,4.2,1.7c1.8,0.8,3.3,1.2,4.6,1.4c2.2,0.3,4.1,0.3,5.9-0.2
			C349.2,170.2,350.6,169.5,352,168.4L352,168.4z M351,202.3c-1,0.5-2.2,0.4-3.9-0.2c-1.1-0.4-2.1-0.9-3.1-1.6c-1.9-1.3-3.1-3-3.9-5
			c0-0.1-0.2-0.6-0.4-1.3c-1-2.6-2.5-5.9-4.4-9.9c-2.7-5.6-4.2-8.8-4.7-9.8c-0.9,2.4-1.7,4.5-2.5,6.4c-0.4,0.9-1.4,1.1-3.2,0.9
			c-1.5-0.2-3-0.9-4.6-2c-3.4-2.4-4.6-4.8-3.5-7.1c0.6-1.3,2.4-6.1,5.5-14.6c2.2-6,4.5-10.6,6.9-14c2.7-3.7,5.6-6.4,8.8-8
			c5.6-2.8,11.5-2.1,17.5,2.3c4.2,3,7.4,7,9.5,11.8c2.6,6.1,3.6,11.5,3.2,16.2c-0.4,3.3-1.4,6-3,8.3c-1.4,2-3.5,3.6-6.1,4.7
			c-2.4,1.1-4.9,1.7-7.5,1.7c-2.6,0-5.4-0.3-8.1-1.1c1.5,3.3,3,6.5,4.6,9.7c1.7,3.7,3,7.1,4,10C352.5,200.9,352.1,201.8,351,202.3"
			/>
		<path class="st1" d="M392.8,212.4c-1.1-1.1-2.1-2-3.1-2.8c-0.1-0.1-0.3-0.3-0.6-0.5c-1.1-0.9-2.3-1.6-3.5-2.3
			c-0.1,0-0.4-0.2-0.9-0.4c-4-1.9-7.6-2.4-10.9-1.7c-1.3,0.4-2.5,1-3.5,1.9c-0.8,0.9-1.5,1.9-1.9,3.1c-0.5,1.2-0.7,2.1-0.7,2.9
			l0,0.2c0,0.8,0,1.5,0.1,1.9c0.1,0.5,0.2,0.8,0.4,1.2l0.1,0.2l0.2,0.3l0.1,0c0.1,0.1,0.2,0.3,0.4,0.4c0.8,0.6,1.3,0.9,1.7,1
			c1.4,0.7,2.7,1,3.7,1.2c4.6,0.7,9.1-0.2,13.5-2.7C389.8,215.1,391.5,213.8,392.8,212.4L392.8,212.4z M378.8,231.6
			c-2.8-0.5-5.3-1.3-7.6-2.5c-3.9-2-7.1-5.3-9.6-9.8c-2.6-4.5-3.7-9-3.4-13.5c0.4-5.9,2.5-10.1,6.3-12.4c4.1-2.5,9.4-2.6,15.6-0.2
			c5.4,2,10.4,5.5,15.2,10.5c0.6,0.6,1.1,1.2,1.6,1.9c0.2-0.6,0.3-1.2,0.4-1.8c0-0.3,0.1-0.6,0.1-0.8l0-0.1c0-0.5,0-1.1-0.1-1.8
			l-0.1-0.1c-0.1-0.4-0.2-1.1-0.4-1.8c-0.6-1.8-1.5-3.7-2.7-5.8c-0.3-0.5-2.3-3.8-6.3-10c-0.7-1.2-1.2-2.6-1.5-4.1
			c-0.3-1.9,0.1-3.2,1.2-3.8c0.9-0.5,2-0.3,3.3,0.5c1.1,0.7,2.2,1.9,3.4,3.7c3.9,6.2,6.2,9.8,6.8,10.9c3.6,6.4,5.5,12.2,5.6,17.4
			c0.1,4.1-0.9,8-3.2,11.6c-2.2,3.6-5.2,6.5-8.9,8.5C389.4,231.4,384,232.5,378.8,231.6"/>
		<path class="st1" d="M422.5,286.2c-4.7-0.6-10.9-2.7-18.5-6.5c-5.3-2.6-9-4.3-10.9-5c-4.3-1.6-8.2-2.2-11.7-1.9
			c-2.1,0.2-3.5-1.9-4.1-6.5c-0.6-4.4,0.2-6.8,2.3-7.3c11.7-2.8,21.1-6.9,28-12.2c2.7-2,4.8-4,6.3-5.9l0.2-0.2
			c0.9-1.1,1.8-2.3,2.7-3.6c0.4-0.7,0.9-1.1,1.4-1.1c1.2-0.1,2.3,0.9,3.2,3.1c0.5,1.2,0.8,2.4,1,3.7c0.3,2.5,0,4.4-0.9,5.9
			c-4.3,6.8-10.6,12.4-19,16.8c4.2,2.1,7.2,3.5,8.9,4.3c3.6,1.5,6.8,2.5,9.4,2.8c2.2,0.2,3.5,2.4,4.1,6.5c0.2,1.9,0.1,3.6-0.3,5.1
			C424,285.6,423.3,286.3,422.5,286.2"/>
		<path class="st1" d="M402.5,325.9c2.4,0.5,5,0.5,7.6-0.1c2.7-0.6,5-1.7,7-3.2c-1.3-2.2-3.5-4.2-6.5-6.1c-3.6-2.2-7.6-3.8-12.1-4.8
			c-1.2-0.3-2.4-0.5-3.7-0.7l-0.2,0.8c-0.3,1.2-0.4,2.5-0.4,3.7l0,0.2c0,0.7,0.1,1.6,0.3,2.5c0,0.1,0,0.3,0.1,0.5
			c0.2,0.8,0.5,1.5,0.8,2.1C396.8,323.5,399.1,325.2,402.5,325.9L402.5,325.9z M393,335.7c-2.4-3-3.3-8-2.7-15.1
			c0.3-2.7,0.8-6,1.6-9.9c-4.6-0.3-8.3,0.2-11,1.6c0.8,1.7,1.9,3.6,3.2,5.6c0.2,0.4,0.3,1.5,0.1,3.3c-0.2,1.7-0.5,3.4-1,5.3
			c-0.9,3.2-1.7,4.8-2.4,4.7c-0.1,0-0.2-0.1-0.3-0.3c-3.3-4.7-4.9-9.2-5-13.4c-0.1-1.8,0.2-4,0.8-6.8c0.5-2.5,1.1-4.6,1.9-6.3
			c0.9-2,2-3.5,3.2-4.4c2.9-2.3,7.2-3.3,12.7-3c2.4,0.1,4.8,0.5,7.1,1c2.9,0.7,5.7,1.6,8.4,2.8c5.4,2.5,9.1,5.4,11,9
			c1.2,2.2,1.7,4.6,1.5,7.4c-0.3,4.7-1.2,8.8-2.7,12.4c-1,2.5-2.4,4.4-4.1,5.9c-2,1.7-4.5,3-7.5,3.8c-3,0.8-5.8,0.9-8.5,0.3
			C396.7,339,394.5,337.7,393,335.7"/>
		<path class="st1" d="M364,370.6c-0.8-0.4-1.2-1.4-1.3-3c-0.4-3.5-0.4-6.7-0.2-9.7c0.4-4.8,1.1-8.7,2.2-11.5c0.8-2,1.7-3.6,2.7-4.6
			c1.4-1.4,2.5-2,3.4-1.9c6.1,1.1,12.8,3.7,20.2,7.6c5.9,3.1,11.8,6.8,17.7,10.9c2,1.5,2,4.1,0.1,7.9c-0.9,1.7-1.9,3-3.2,3.9
			c-1.4,1-2.5,1.2-3.3,0.7c-5.7-4-11.3-7.5-16.9-10.5c-5.2-2.8-9.9-4.9-14.1-6.3c0,2.3,0,4.7,0.2,7.1c0.1,1.3-0.3,3-1.3,4.9
			c-0.9,1.7-1.9,3-3.2,3.9C366,370.8,364.9,371,364,370.6"/>
	</g>
</g>
</svg>
