<?xml version="1.0" encoding="utf-8"?>
<!-- Generator: Adobe Illustrator 26.0.1, SVG Export Plug-In . SVG Version: 6.00 Build 0)  -->
<svg version="1.1" id="Layer_1" xmlns="http://www.w3.org/2000/svg" xmlns:xlink="http://www.w3.org/1999/xlink" x="0px" y="0px"
	 viewBox="0 0 500 87.5" style="enable-background:new 0 0 500 87.5;" xml:space="preserve">
<style type="text/css">
	.st0{fill:#13017C;}
	.st1{fill:#8DD3D9;}
</style>
<g>
	<g>
		<g>
			<path class="st0" d="M261.3,19.3V0.4h2.5L275.3,13V0.4h3.7v18.8h-2.5L265,6.7v12.6H261.3z"/>
			<path class="st0" d="M295.4,3.6h-6.8v4.2h6.5V11h-6.5v5.1h6.8v3.2H285V0.4h10.4V3.6z"/>
			<path class="st0" d="M310,4.7c-1.1-1.5-2.4-1.6-3.1-1.6c-2,0-2.6,1.2-2.6,2.2c0,0.5,0.1,0.9,0.6,1.3c0.5,0.4,1.1,0.6,2.3,1.1
				c1.5,0.5,2.9,1,3.8,1.9c0.8,0.8,1.6,2,1.6,4c0,3.7-2.7,6.2-6.6,6.2c-3.5,0-5.5-2.1-6.5-3.6l2.4-2.3c0.9,1.8,2.6,2.5,4,2.5
				c1.7,0,2.9-1,2.9-2.6c0-0.7-0.2-1.2-0.7-1.7c-0.7-0.6-1.8-1-2.9-1.4c-1-0.3-2.2-0.8-3.1-1.6c-0.6-0.5-1.5-1.6-1.5-3.5
				c0-2.8,1.9-5.5,6-5.5c1.2,0,3.4,0.2,5.3,2.2L310,4.7z"/>
			<path class="st0" d="M319.7,0.4h2.7l5,12l5.2-12h2.7l3.2,18.8h-3.7L333,7.7L328,19.3h-1.2l-4.8-11.6L320,19.3h-3.7L319.7,0.4z"/>
			<path class="st0" d="M354.6,15.3H347l-1.7,4h-4l8.1-18.8h2.9l7.9,18.8h-4L354.6,15.3z M353.6,12.3l-2.7-6.8l-2.7,6.8H353.6z"/>
			<path class="st0" d="M265,34.3v18.8h-3.7V34.3H265z"/>
			<path class="st0" d="M271,53.2V34.3h2.5L285,46.9V34.3h3.7v18.8h-2.5l-11.5-12.6v12.6H271z"/>
			<path class="st0" d="M304.7,37.5h-6.3v4.2h5.9v3.2h-5.9v8.3h-3.7V34.3h10V37.5z"/>
			<path class="st0" d="M315,34.3c2.6,0,3.9,0.7,4.8,1.4c1.4,1.2,1.9,2.8,1.9,4.2c0,1.8-0.7,3.4-2.2,4.4c-0.5,0.3-1.2,0.6-2.1,0.8
				l5.9,7.9h-4.6l-5-7.6h-0.5v7.6h-3.7V34.3H315z M313.2,43h1c0.7,0,3.6-0.1,3.6-2.9c0-2.8-2.9-2.8-3.6-2.8h-1.1V43z"/>
			<path class="st0" d="M338.6,49.2H331l-1.7,4h-4l8.1-18.8h2.9l7.9,18.8h-4L338.6,49.2z M337.5,46.2l-2.7-6.8l-2.7,6.8H337.5z"/>
			<path class="st0" d="M356.8,38.6c-1.1-1.5-2.4-1.6-3.1-1.6c-2,0-2.6,1.2-2.6,2.2c0,0.5,0.1,0.9,0.6,1.3c0.5,0.4,1.1,0.6,2.3,1.1
				c1.5,0.5,2.9,1,3.8,1.9c0.8,0.8,1.6,2,1.6,4c0,3.7-2.7,6.2-6.6,6.2c-3.5,0-5.5-2.1-6.5-3.6l2.4-2.3c0.9,1.8,2.6,2.5,4,2.5
				c1.7,0,2.9-1,2.9-2.6c0-0.7-0.2-1.2-0.7-1.7c-0.7-0.7-1.8-1-2.9-1.4c-1-0.3-2.2-0.8-3.1-1.6c-0.6-0.5-1.5-1.6-1.5-3.5
				c0-2.8,1.9-5.5,6-5.5c1.2,0,3.4,0.2,5.3,2.2L356.8,38.6z"/>
			<path class="st0" d="M369.9,37.5v15.7h-3.7V37.5H362v-3.2h12.1v3.2H369.9z"/>
			<path class="st0" d="M383.7,34.3c2.6,0,3.9,0.7,4.8,1.4c1.4,1.2,1.9,2.8,1.9,4.2c0,1.8-0.7,3.4-2.2,4.4c-0.5,0.3-1.2,0.6-2.1,0.8
				l5.9,7.9h-4.6l-5-7.6h-0.5v7.6h-3.7V34.3H383.7z M381.9,43h1c0.7,0,3.6-0.1,3.6-2.9c0-2.8-2.9-2.8-3.6-2.8h-1.1V43z"/>
			<path class="st0" d="M399.8,34.3v11.8c0,1.4,0.5,2.3,0.9,2.8c0.5,0.6,1.5,1.3,3,1.3c1.5,0,2.5-0.7,3-1.3c0.4-0.5,0.9-1.4,0.9-2.8
				V34.3h3.7v11.5c0,1.8-0.3,3.6-1.4,5c-1.4,1.8-3.7,2.7-6.2,2.7c-2.4,0-4.8-0.9-6.2-2.7c-1.1-1.4-1.4-3.2-1.4-5V34.3H399.8z"/>
			<path class="st0" d="M430.9,52.5c-1.1,0.6-2.6,1.1-4.7,1.1c-3.3,0-5.3-1.1-6.9-2.6c-2.2-2.1-3-4.4-3-7.2c0-3.4,1.4-5.9,3-7.4
				c1.9-1.8,4.2-2.5,6.9-2.5c1.3,0,2.9,0.2,4.6,1.2v4.3c-1.7-2-3.9-2.1-4.5-2.1c-3.8,0-6.2,3.1-6.2,6.6c0,4.2,3.2,6.4,6.4,6.4
				c1.8,0,3.3-0.8,4.4-2.1V52.5z"/>
			<path class="st0" d="M442.3,37.5v15.7h-3.7V37.5h-4.2v-3.2h12.1v3.2H442.3z"/>
			<path class="st0" d="M454.2,34.3v11.8c0,1.4,0.5,2.3,0.9,2.8c0.5,0.6,1.5,1.3,3,1.3c1.5,0,2.5-0.7,3-1.3c0.4-0.5,0.9-1.4,0.9-2.8
				V34.3h3.7v11.5c0,1.8-0.3,3.6-1.4,5c-1.4,1.8-3.7,2.7-6.2,2.7c-2.4,0-4.8-0.9-6.2-2.7c-1.1-1.4-1.4-3.2-1.4-5V34.3H454.2z"/>
			<path class="st0" d="M477.1,34.3c2.6,0,3.9,0.7,4.8,1.4c1.4,1.2,1.9,2.8,1.9,4.2c0,1.8-0.7,3.4-2.2,4.4c-0.5,0.3-1.2,0.6-2.1,0.8
				l5.9,7.9h-4.6l-5-7.6h-0.5v7.6h-3.7V34.3H477.1z M475.3,43h1c0.7,0,3.6-0.1,3.6-2.9c0-2.8-2.9-2.8-3.6-2.8h-1.1V43z"/>
			<path class="st0" d="M500,37.5h-6.8v4.2h6.5v3.2h-6.5V50h6.8v3.2h-10.4V34.3H500V37.5z"/>
			<path class="st0" d="M277.6,80c-1.1,1.4-1.5,1.8-2,2.3l-0.4,0.4l3.8,4.3h-4.5l-1.8-2.1c-0.9,0.8-3.1,2.5-6.1,2.5
				c-3.9,0-5.9-2.7-5.9-5.4c0-2.8,2.2-4.3,3-4.8l1.5-0.9c-0.6-0.7-1.9-2.1-1.9-4c0-2.3,1.7-4.7,5.2-4.7c3.3,0,5.1,2.2,5.1,4.5
				c0,1.4-0.6,3-2.7,4.2L270,77l3.1,3.6c1.3-1.2,1.9-2.1,2.3-2.6L277.6,80z M267,78.5c-1.4,0.8-2.7,1.8-2.7,3.2
				c0,1.4,1.2,2.5,2.8,2.5c1.5,0,2.9-1,3.5-1.6L267,78.5z M268.3,75l0.8-0.6c1-0.7,1.3-1.5,1.3-2.1c0-0.9-0.6-1.9-1.8-1.9
				c-1.3,0-1.9,0.9-1.9,1.8c0,0.7,0.4,1.3,0.8,1.8L268.3,75z"/>
			<path class="st0" d="M297.3,71.4v15.7h-3.7V71.4h-4.2v-3.2h12.1v3.2H297.3z"/>
			<path class="st0" d="M316,71.4h-6.8v4.2h6.5v3.2h-6.5v5.1h6.8v3.2h-10.4V68.2H316V71.4z"/>
			<path class="st0" d="M334.9,86.4c-1.1,0.6-2.6,1.1-4.7,1.1c-3.3,0-5.3-1.1-6.9-2.6c-2.2-2.1-3-4.4-3-7.2c0-3.4,1.4-5.9,3-7.4
				c1.9-1.8,4.2-2.5,6.9-2.5c1.3,0,2.9,0.2,4.6,1.2v4.3c-1.7-2-3.9-2.1-4.5-2.1c-3.8,0-6.2,3.1-6.2,6.6c0,4.2,3.2,6.4,6.4,6.4
				c1.8,0,3.3-0.8,4.4-2.1V86.4z"/>
			<path class="st0" d="M343.7,75.5h8v-7.3h3.7v18.8h-3.7v-8.4h-8v8.4H340V68.2h3.7V75.5z"/>
			<path class="st0" d="M361.3,87.1V68.2h2.5l11.5,12.6V68.2h3.7v18.8h-2.5L365,74.5v12.6H361.3z"/>
			<path class="st0" d="M404.2,77.7c0,5.7-4.1,9.8-10.1,9.8c-5.9,0-10.1-4.1-10.1-9.8c0-5.7,4.1-9.9,10.1-9.9
				C400.1,67.8,404.2,71.9,404.2,77.7z M400.4,77.7c0-3.8-2.6-6.5-6.3-6.5c-3.7,0-6.3,2.7-6.3,6.5c0,3.8,2.6,6.5,6.3,6.5
				C397.8,84.2,400.4,81.5,400.4,77.7z"/>
			<path class="st0" d="M413,68.2v15.7h5.8v3.2h-9.5V68.2H413z"/>
			<path class="st0" d="M441.6,77.7c0,5.7-4.1,9.8-10.1,9.8c-5.9,0-10.1-4.1-10.1-9.8c0-5.7,4.1-9.9,10.1-9.9
				C437.5,67.8,441.6,71.9,441.6,77.7z M437.8,77.7c0-3.8-2.6-6.5-6.3-6.5c-3.7,0-6.3,2.7-6.3,6.5c0,3.8,2.6,6.5,6.3,6.5
				C435.2,84.2,437.8,81.5,437.8,77.7z"/>
			<path class="st0" d="M456.3,77h8.6v0.2c0,1.3-0.2,5.2-2.8,7.8c-1.9,1.9-4.3,2.5-6.7,2.5s-4.8-0.5-6.8-2.5c-0.6-0.7-2.8-3-2.8-7.3
				c0-3.6,1.6-5.9,2.8-7c1.4-1.4,3.8-2.9,7.4-2.9c1.4,0,2.9,0.2,4.3,1c1.2,0.6,2.5,1.8,3.5,3.4l-3.2,1.7c-0.6-1.3-1.6-1.9-2.2-2.2
				c-0.8-0.4-1.8-0.6-2.7-0.6c-1.5,0-3.2,0.5-4.3,1.7c-1.1,1-1.9,2.9-1.9,5c0,2.5,1.1,4,1.9,4.8c0.8,0.8,2.2,1.6,4.2,1.6
				c1.2,0,2.7-0.3,3.7-1.1c0.7-0.6,1.5-1.5,1.8-2.9h-4.9V77z"/>
			<path class="st0" d="M473.1,78.5l-6.5-10.2h4.3l4,6.6l4-6.6h4.3l-6.6,10.2v8.6h-3.7V78.5z"/>
		</g>
	</g>
	<g>
		<rect x="131.7" y="0.3" class="st0" width="29.9" height="86.6"/>
		<rect y="0.2" class="st0" width="29.9" height="86.7"/>
		<path class="st0" d="M87.7,47.1v39.5c0,0,0,0.1,0,0L36.9,38.4c0,0,0,0,0,0v-38c0,0,0-0.1,0,0L87.7,47.1
			C87.7,47.1,87.7,47.1,87.7,47.1z"/>
		<rect x="94.7" y="30.5" class="st0" width="29.9" height="56.4"/>
		<polygon class="st1" points="94.7,25 94.7,0.2 124.6,0.2 		"/>
		<rect x="167.3" y="31.9" class="st0" width="26.7" height="20.8"/>
	</g>
	<g>
		<rect x="228.3" y="0.2" class="st0" width="1" height="87"/>
	</g>
</g>
</svg>
