<?xml version="1.0" encoding="utf-8"?>
<!-- Generator: Adobe Illustrator 26.0.1, SVG Export Plug-In . SVG Version: 6.00 Build 0)  -->
<svg version="1.1" id="Layer_1" xmlns="http://www.w3.org/2000/svg" xmlns:xlink="http://www.w3.org/1999/xlink" x="0px" y="0px"
	 viewBox="0 0 500 359.2" style="enable-background:new 0 0 500 359.2;" xml:space="preserve">
<style type="text/css">
	.st0{fill:none;}
	.st1{fill:#FFFFFF;}
	.st2{fill:#51B0D1;}
	.st3{fill:#CB9F5B;}
	.st4{fill:#4F7811;}
</style>
<g>
	<path class="st0" d="M481.3,254.4h10.9c0.2-1.3,0.2-3.1-0.8-4.3c-0.8-1-2.2-1.5-4-1.5C485.1,248.6,482.1,249.6,481.3,254.4z"/>
	<path class="st0" d="M248.3,254.4h10.9c0.2-1.3,0.2-3.1-0.8-4.3c-0.8-1-2.2-1.5-4-1.5C252.1,248.6,249.1,249.6,248.3,254.4z"/>
	<path class="st0" d="M221.6,237.1h-6.3v12.8h6c3.3,0,6.7-0.8,6.7-6.4C227.9,239,226,237.1,221.6,237.1z"/>
	<path class="st0" d="M163.7,266.1c0.2,1.9,1.7,3,3.9,3c1.7,0,4.2-0.8,5.9-1.9l0.1-5.6l-6.6,1.3
		C164.5,263.4,163.5,264.3,163.7,266.1z"/>
	<path class="st0" d="M426.4,266.1c0.2,1.9,1.7,3,3.9,3c1.8,0,4.4-0.9,5.9-1.9l0.1-5.6l-6.6,1.3
		C427.2,263.4,426.2,264.3,426.4,266.1z"/>
	<path class="st0" d="M50.2,254.4h11c0.2-1.3,0.2-3.1-0.8-4.3c-0.8-1-2.2-1.5-4-1.5C54,248.6,51,249.6,50.2,254.4z"/>
	<path class="st0" d="M279.5,266.1c0.2,1.9,1.7,3,3.9,3c1.7,0,4.2-0.8,5.9-1.9l0.1-5.6l-6.6,1.3
		C280.3,263.4,279.3,264.3,279.5,266.1z"/>
	<polygon points="3.8,230.3 3.8,274.5 11.1,274.5 11.1,245.1 11.7,245.1 27.1,274.5 35.4,274.5 35.4,230.3 28.1,230.3 28.1,259.8 
		27.5,259.8 27.5,259.7 12.2,230.3 	"/>
	<path d="M56.9,242.5c-10,0-15.3,5.8-15.3,16.9c0,10.5,4.9,15.8,14.4,15.8c4,0,8.3-0.7,11.2-1.8v-5.5c-2.9,1.1-6.8,1.8-9.8,1.8
		c-5.4,0-8.2-3.3-8.4-9.8l0-0.3l19,0c1.2-5.7,0.6-10.5-1.7-13.4C64.3,243.7,61.2,242.5,56.9,242.5z M61.7,254.7l0,0.2H49.5l0-0.3
		c0.6-4.3,3-6.6,6.8-6.6c2,0,3.5,0.6,4.5,1.7C62,251.2,62,253.2,61.7,254.7z"/>
	<path d="M88.1,256c-2.7-1-7.3-2.7-7.3-5.1c0-2.2,2.5-3,4.9-3c2.9,0,6.8,0.8,9.4,1.7V244c-2.8-0.9-6.6-1.5-9.5-1.5
		c-2.8,0-11.9,0.6-11.9,9c0,5.5,4.7,7.5,8.8,9.3l1.6,0.7c3.2,1.4,5.4,2.3,5.4,4.8c0,1.4-0.7,3.7-5.4,3.7c-2.5,0-7.6-0.8-10.5-1.7
		v5.5c2.9,0.9,7.5,1.5,10.4,1.5c4.7,0,12.6-1.3,12.6-10c0-4-2.5-6.8-8.1-9.1L88.1,256z"/>
	<path d="M129.3,246.7L129.3,246.7l-0.5,0.1l-0.1-0.2c-1.5-2.8-4.3-4.2-8.3-4.2c-3.4,0-6.1,1.1-9.7,4l-0.1,0.1h-0.6v-4.1h-0.4
		l-6.9,0.6v31.5h7.3v-24l0.1-0.1c2.7-1.6,5.2-2.5,7.4-2.5c4.7,0,5,3,5,6.9v19.6h7.4v-19.9c0-1.4,0-2.5-0.1-3.9l0-0.2l0.2-0.1
		c2.5-1.6,5.3-2.5,7.5-2.5c4.7,0,5,3,5,6.9v19.6h7.3v-22.1c0-4.6-1.7-10-9.6-10C136.6,242.5,132.9,243.9,129.3,246.7z"/>
	<path d="M171,242.5c-3.6,0-9.5,0.8-13.4,1.8v5.5c3.2-0.8,8-1.7,11.5-1.7c1.9,0,3.4,0.5,4.3,1.4c0.8,0.8,1.1,1.9,1.1,3.3l-0.1,4.1
		l-9.5,1.6c-7.8,1.3-8.9,4.7-8.9,8.2c0,4.1,2.2,8.5,8.4,8.5c3.3,0,6.4-1.3,9.2-3.8l0.1-0.1h0.5v3.2h7.3l0.3-23
		c0-2.4-0.8-4.5-2.3-6.1C177.5,243.5,174.5,242.5,171,242.5z M174.1,267.6l-0.1,0.1c-1.5,1-4.3,2-6.3,2c-2.6,0-4.3-1.3-4.5-3.5
		c-0.3-2.7,1.9-3.4,3.8-3.8l7.3-1.4L174.1,267.6z"/>
	<path d="M227.7,256c5.4-1.5,8.4-5.9,8.4-12.5c0-8.3-4.8-13.2-12.8-13.2h-15.9v44.3h7.3v-17.9h5.2l9,17.9h8.9l-10.4-18.5L227.7,256z
		 M221.2,250.5h-6.6v-14h6.9c4.8,0,7,2.2,7,7C228.5,249.7,224.6,250.5,221.2,250.5z"/>
	<path d="M255,242.5c-10,0-15.3,5.8-15.3,16.9c0,10.5,4.9,15.8,14.4,15.8c4,0,8.3-0.7,11.2-1.8v-5.5c-2.9,1.1-6.8,1.8-9.8,1.8
		c-5.4,0-8.2-3.3-8.4-9.8l0-0.3h19c1.2-5.7,0.6-10.5-1.8-13.4C262.5,243.7,259.3,242.5,255,242.5z M259.8,254.7l0,0.2h-12.1l0-0.3
		c0.6-4.3,3-6.6,6.8-6.6c2,0,3.5,0.6,4.5,1.7C260.1,251.2,260.1,253.2,259.8,254.7z"/>
	<path d="M286.8,242.5c-3.7,0-9.4,0.8-13.4,1.8v5.5c3.2-0.8,8-1.7,11.5-1.7c1.9,0,3.4,0.5,4.3,1.4c0.8,0.8,1.1,1.9,1.1,3.3l-0.1,4.1
		l-9.5,1.6c-7.8,1.3-8.9,4.7-8.9,8.2c0,4.1,2.2,8.5,8.4,8.5c3.3,0,6.4-1.3,9.2-3.8l0.1-0.1h0.5v3.2h7.3l0.3-23
		c0-2.4-0.8-4.5-2.3-6.1C293.3,243.5,290.3,242.5,286.8,242.5z M289.9,267.6l-0.1,0.1c-1.5,1-4.3,2-6.3,2c-2.6,0-4.3-1.3-4.5-3.5
		c-0.3-2.7,1.9-3.4,3.8-3.8l7.3-1.4L289.9,267.6z"/>
	<polygon points="312.3,225.8 312,225.8 305,226.4 305,274.5 312.3,274.5 	"/>
	<polygon points="345.2,255.1 360.6,255.1 360.6,248.9 345.2,248.9 345.2,236.5 363.1,236.5 363.1,230.3 337.9,230.3 337.9,274.5 
		363.8,274.5 363.8,268.4 345.2,268.4 	"/>
	<path d="M383.1,256c-2.7-1-7.3-2.7-7.3-5.1c0-2.2,2.5-3,4.9-3c2.9,0,6.8,0.8,9.4,1.7V244c-2.8-0.9-6.6-1.5-9.5-1.5
		c-2.8,0-11.9,0.6-11.9,9c0,5.5,4.7,7.5,8.8,9.3l1.6,0.7c3.2,1.4,5.4,2.3,5.4,4.8c0,1.4-0.7,3.7-5.4,3.7c-2.5,0-7.6-0.8-10.5-1.7
		v5.5c2.9,0.9,7.5,1.5,10.4,1.5c4.7,0,12.6-1.3,12.6-10c0-4-2.5-6.8-8.1-9.1L383.1,256z"/>
	<path d="M406.6,264.4v-16.3h7.6v-5h-7.6v-9.6h-5.7l-1.7,9.6l-3.6,0.6v4.4h3.6v19.7c0,5.1,2.4,7.4,7.9,7.4c2,0,5.6-0.6,7.5-1.2v-5.7
		c-1.6,0.5-3,0.7-4.3,0.7C407.7,269,406.6,267.7,406.6,264.4z"/>
	<path d="M433.7,242.5c-3.7,0-9.4,0.8-13.4,1.8v5.5c3.2-0.8,8-1.7,11.5-1.7c1.9,0,3.4,0.5,4.3,1.4c0.8,0.8,1.1,1.9,1.1,3.3l-0.1,4.1
		l-9.5,1.6c-7.8,1.3-8.9,4.7-8.9,8.2c0,4.1,2.2,8.5,8.4,8.5c3.3,0,6.4-1.3,9.2-3.8l0.1-0.1h0.5v3.2h7.3l0.3-23
		c0-2.4-0.8-4.5-2.3-6.1C440.2,243.5,437.2,242.5,433.7,242.5z M436.8,267.6l-0.1,0.1c-1.5,1-4.3,2-6.3,2c-2.6,0-4.3-1.3-4.5-3.5
		c-0.3-2.7,1.9-3.4,3.8-3.8l7.3-1.4L436.8,267.6z"/>
	<path class="st1" d="M426.1,266.1c0.3,2.2,2.1,3.3,4.2,3.3c1.9,0,4.6-1,6.2-2l0.1-6.1l-7,1.3C427.6,263,425.9,263.8,426.1,266.1z
		 M429.7,262.9l6.6-1.3l-0.1,5.6c-1.4,0.9-4,1.9-5.9,1.9c-2.3,0-3.7-1.1-3.9-3C426.2,264.3,427.2,263.4,429.7,262.9z"/>
	<path class="st1" d="M425.8,266.2c0.3,2.2,1.9,3.5,4.5,3.5c2,0,4.8-1.1,6.3-2l0.1-0.1l0.1-6.6l-7.3,1.4
		C427.7,262.7,425.5,263.5,425.8,266.2z M436.6,261.3l-0.1,6.1c-1.5,1-4.3,2-6.2,2c-2.2,0-4-1-4.2-3.3c-0.3-2.3,1.5-3.1,3.5-3.5
		L436.6,261.3z"/>
	<path d="M460.7,264.4v-16.3h7.6v-5h-7.6v-9.6h-5.7l-1.7,9.6l-3.6,0.6v4.4h3.7v19.7c0,5.1,2.4,7.4,7.9,7.4c2,0,5.6-0.6,7.5-1.2v-5.7
		c-1.6,0.5-3,0.7-4.3,0.7C461.8,269,460.7,267.7,460.7,264.4z"/>
	<path d="M497.5,246.2c-2-2.5-5.2-3.8-9.5-3.8c-10,0-15.3,5.8-15.3,16.9c0,10.5,4.9,15.8,14.4,15.8c4,0,8.3-0.7,11.2-1.8v-5.5
		c-2.9,1.1-6.8,1.8-9.8,1.8c-5.4,0-8.2-3.3-8.4-9.8l0-0.3h19C500.5,253.9,499.8,249.2,497.5,246.2z M492.8,254.7l0,0.2h-12.1l0-0.3
		c0.6-4.3,3-6.6,6.8-6.6c2,0,3.5,0.6,4.5,1.7C493.2,251.2,493.1,253.2,492.8,254.7z"/>
	<g>
		<path d="M25.1,346.1c-3.1,0-5.5-1-7.3-2.9c-2,1.1-4.5,1.6-7.5,1.7c-6.2,0-10-4.4-10-11.3c0-3.8,1.2-6.8,3.7-9
			c2.5-2.3,5.8-3.5,9.8-3.5h1.9l-0.1-3.2c2.5-0.4,3.6-0.7,6.7-1v19.4c0,3.1,1.4,4.7,4.2,4.7h3.6v5.2H25.1z M12.3,311
			c0,1.8-1.4,3.5-3.5,3.5c-2,0-3.5-1.6-3.5-3.6c0-1.9,1.5-3.5,3.5-3.5C10.7,307.3,12.3,308.8,12.3,311z M16.6,324.8
			c-1.1,0.1-2.1,0.1-3.1,0.1c-2,0.1-3.7,0.8-5.1,2.2c-1.4,1.4-2.1,3.2-2.1,5.4c0.1,5,1.9,7.6,5.4,7.6c1.7,0,3.4-0.2,5-0.7V324.8z
			 M21.5,311c0,1.8-1.4,3.5-3.5,3.5c-2,0-3.6-1.6-3.6-3.6c0-1.9,1.6-3.5,3.6-3.5C19.9,307.3,21.5,308.8,21.5,311z M35.3,355.4
			c0,1.8-1.6,3.5-3.6,3.5c-1.9,0-3.5-1.4-3.5-3.5c0-1.9,1.7-3.5,3.5-3.5C33.7,351.9,35.3,353.4,35.3,355.4z M51,346.1h-4.3
			c-2.3,0-4.2-0.6-5.7-1.7c-1.5,1.2-3.4,1.7-5.6,1.7h-6.9v-5.2h5.4c2.8,0,4.2-1.5,4.2-4.6v-6l0-8l5.7-1v14.9c0,3.1,1.4,4.6,4.2,4.6
			H51V346.1z M44.5,355.4c0,1.8-1.5,3.5-3.5,3.5c-1.9,0-3.5-1.4-3.5-3.5c0-1.9,1.6-3.5,3.5-3.5C42.9,351.9,44.5,353.4,44.5,355.4z
			 M87,346.1h-4.2c-2.1,0-4-0.6-5.5-1.8c-2.8,3.4-6.2,5-10.2,5c-3.2,0-5.7-1.4-7.4-4.3c-1.3,0.7-2.7,1-4.3,1h-6v-5.2h4.5
			c2.6,0,3.9-1.3,4-3.8c0.3-8.3,5.7-13.3,14.5-13.3c2.8,0,5.6,0.5,8.4,1.3l-0.7,6v5.2c0,3.1,1.4,4.6,4.2,4.6H87V346.1z M74.2,342
			v-10.6l-0.5-3.2c-0.9-0.3-1.8-0.4-2.8-0.4c-4.8,0-7.2,3-7.2,9.1c0,4.9,2.1,7.7,4.9,7.7C70.7,344.6,72.5,343.7,74.2,342z
			 M107.9,346.1h-4.3c-2.3,0-4.2-0.6-5.7-1.7c-1.5,1.2-3.4,1.7-5.6,1.7h-6.9v-5.2h5.4c2.8,0,4.2-1.5,4.2-4.6v-5.6l0.1-8.3l5.7-0.7
			v14.7c0,3.1,1.4,4.6,4.2,4.6h2.9V346.1z M100.4,312.4c0,1.9-1.5,3.5-3.5,3.5c-1.9,0-3.6-1.4-3.6-3.5c0-1.9,1.7-3.5,3.6-3.5
			C98.7,308.8,100.4,310.3,100.4,312.4z M128.7,346.1h-4.3c-2.3,0-4.2-0.6-5.7-1.7c-1.6,1.2-3.4,1.7-5.6,1.7h-6.9v-5.2h5.3
			c2.8,0,4.3-1.5,4.3-4.6v-5.6l0-8.3l5.7-0.7v14.7c0,3.1,1.4,4.6,4.2,4.6h3V346.1z M113.6,312.4c0,1.9-1.5,3.5-3.5,3.5
			c-1.9,0-3.5-1.4-3.5-3.5c0-1.9,1.6-3.5,3.5-3.5C112.1,308.8,113.6,310.3,113.6,312.4z M122.9,312.4c0,1.9-1.5,3.5-3.5,3.5
			c-1.9,0-3.5-1.4-3.5-3.5c0-1.9,1.6-3.5,3.5-3.5C121.4,308.8,122.9,310.3,122.9,312.4z M149.3,346.1h-3.9c-2.3,0-4.2-0.6-5.7-1.8
			c-1.4,1.2-3.3,1.8-5.5,1.8h-7.1v-5.2h5.6c2.8,0,4.2-1.6,4.2-4.7v-23.2l0-8.9l5.7-0.7l0.1,32.9c0,3.2,1.4,4.7,4.2,4.7h2.5V346.1z
			 M167.1,337.5c0,5.4-3.3,8.6-8.6,8.6h-10.8v-5.2h9.4c2.8,0,4.2-1.6,4.2-4.7l0.1-23.6l0-8.7l5.7-0.6V337.5z M206.7,346.1
			c-3.1,0-5.5-1-7.3-2.9c-2,1.1-4.5,1.6-7.5,1.7c-6.2,0-10-4.4-10-11.3c0-3.8,1.2-6.8,3.7-9c2.5-2.3,5.8-3.5,9.8-3.5h1.9l0.1-3.1
			c2.5-0.3,4.4-0.7,6.5-1.1v19.4c0,3.1,1.4,4.7,4.2,4.7h3.6v5.2H206.7z M193.9,311c0,1.8-1.4,3.5-3.5,3.5c-2,0-3.5-1.6-3.5-3.6
			c0-1.9,1.5-3.5,3.5-3.5C192.4,307.3,193.9,308.8,193.9,311z M198.3,324.8c-1.1,0.1-2.1,0.1-3.1,0.1c-2,0.1-3.7,0.8-5.1,2.2
			c-1.4,1.4-2.1,3.2-2.1,5.4c0.1,5,1.9,7.6,5.4,7.6c1.7,0,3.4-0.2,5-0.7V324.8z M203.2,311c0,1.8-1.4,3.5-3.5,3.5
			c-2,0-3.6-1.6-3.6-3.6c0-1.9,1.6-3.5,3.6-3.5C201.6,307.3,203.2,308.8,203.2,311z M216.8,355.4c0,1.8-1.6,3.5-3.6,3.5
			c-1.9,0-3.5-1.4-3.5-3.5c0-1.9,1.7-3.5,3.5-3.5C215.1,351.9,216.8,353.4,216.8,355.4z M227.6,337.7c0,5.1-3.3,8.4-8.6,8.4h-8.9
			v-5.2h7.5c2.8,0,4.2-1.5,4.2-4.6v-5.7l0-7.7l5.7-1.2V337.7z M226,355.4c0,1.8-1.5,3.5-3.5,3.5c-1.9,0-3.6-1.4-3.6-3.5
			c0-1.9,1.7-3.5,3.6-3.5C224.3,351.9,226,353.4,226,355.4z M243.6,343.7c0,7.8-4.2,12.9-12.4,15.2l-1.2-2.3c5.3-1.7,8-5.4,8-11.2
			l-0.1-14.5l-0.1-8.2l5.8-1.1V343.7z M264.1,346.1h-4.5c-5.3,0-8.6-3.2-8.6-8.6l0.1-25.9l0-8.3l5.7-0.7v33.6c0,3.2,1.4,4.7,4.2,4.7
			h3.1V346.1z M299.8,346.1h-12.9c-0.2,0-1.8-0.2-4.9-0.7c-2.8,0.5-4.5,0.7-4.9,0.7h-14.6v-5.2h9.9c-2-2-2.9-4.5-2.9-7.5
			c0-3.4,1.1-6.2,3.4-8.4c2.3-2.3,5.3-3.4,9.3-3.4c3.9,0,7,1.1,9.3,3.4c2.3,2.2,3.4,5,3.4,8.4c0,3.1-1,5.6-3,7.5h8.2V346.1z
			 M281,312.4c0,1.9-1.6,3.5-3.6,3.5c-1.9,0-3.5-1.4-3.5-3.5c0-2,1.7-3.5,3.5-3.5C279.3,308.8,281,310.3,281,312.4z M288.4,333.1
			c0-2.5-0.7-4.4-2.1-5.8c-1.2-1.2-2.6-1.7-4.3-1.7c-1.8,0-3.2,0.6-4.4,1.7c-1.3,1.4-2,3.3-2,5.8c0,5.7,2.1,8.5,6.5,8.5
			c2.1,0,3.7-0.9,4.9-2.8C287.9,337.3,288.4,335.4,288.4,333.1z M290.2,312.4c0,1.9-1.5,3.5-3.5,3.5c-1.9,0-3.5-1.4-3.5-3.5
			c0-2,1.6-3.5,3.5-3.5C288.6,308.8,290.2,310.3,290.2,312.4z M339,346.1h-13.8c-1.7,0-3.8-0.5-6-1.5c-0.4,0.2-1.7,1.5-3.9,1.4
			c-0.3,0-1.9,0.1-3.1,0.1h-13.9v-5.2h13.4c0.7,0,1.4-0.1,2.2-0.2c-1.3-1.2-4.5-4.2-9.6-9c0-2.7,1.5-5.2,4.3-7.4
			c3-2.2,6.5-3.3,10.6-3.3c4,0,7.6,1.1,10.6,3.4c2.8,2.1,4.2,4.6,4.2,7.3c-0.6,0.5-3.8,3.5-9.7,9c0.8,0.2,1.6,0.2,2.3,0.2H339V346.1
			z M327.8,330.6c-0.2-1.2-0.9-2.2-2.3-3.1c-1.7-1-3.8-1.6-6.3-1.6c-2.5,0-4.6,0.5-6.3,1.6c-1.4,1-2.2,2-2.4,3.1
			c1.9,1.8,4.7,4.6,8.6,8.2L327.8,330.6z M355,337.5c0,5.4-3.3,8.6-8.6,8.6h-10.8v-5.2h9.4c2.8,0,4.2-1.6,4.2-4.7l0.1-24.6v-8.2
			l5.9-0.8L355,337.5z M368.4,302.5v7.7l0,36h-5.8l-0.1-35.9v-7.2L368.4,302.5z M398.5,346.1H394c-5.3,0-9-3.2-9-8.6l0-25.8v-8.4
			l6.3-0.6v33.4c0,3.2,1.4,4.7,4.2,4.7h3.1V346.1z M434.5,346.1h-4.2c-2.1,0-4-0.6-5.5-1.8c-2.8,3.4-6.2,5-10.2,5
			c-3.2,0-5.7-1.4-7.4-4.3c-1.3,0.7-2.7,1-4.3,1h-6v-5.2h4.5c2.6,0,3.9-1.3,4-3.8c0.3-8.3,5.7-13.3,14.5-13.3c2.8,0,5.6,0.5,8.4,1.3
			l-0.7,6v5.2c0,3.1,1.4,4.6,4.2,4.6h2.8V346.1z M421.7,342v-10.6l-0.5-3.2c-0.9-0.3-1.8-0.4-2.8-0.4c-4.8,0-7.2,3-7.2,9.1
			c0,4.9,2.1,7.7,4.9,7.7C418.2,344.6,420.1,343.7,421.7,342z M483.9,346.1h-3.1c-2.3,0-4.2-0.6-5.8-1.7c-1.4,1.2-3.3,1.7-5.5,1.7
			c-3.1,0-5.6-1.1-7.7-3.3c-1.6,2.2-3.9,3.3-7,3.3c-3,0-5.6-1.2-7.8-3.4c-0.3,0.4-0.7,0.8-1.1,1.2c-1.6,1.4-3.6,2.2-6.2,2.2h-6.7
			v-5.2h5.3c2.8,0,4.2-1.5,4.2-4.6l0.1-11.6l5.7-0.8v14.4v0.7c1.5,1.3,3.1,2,5,2c2.7,0,4.1-1.5,4.1-4.6l0.1-11.6l5.6-0.9v14.9
			c1.4,1.4,3.1,2.1,5,2.1c2.7,0,4.1-1.5,4.1-4.6l0-5.7v-7.9l5.7-1.2v14.8c0,3,1.4,4.5,4.2,4.5h1.7V346.1z M499.7,337.7
			c0,5.1-3.3,8.4-8.6,8.4h-8.9v-5.2h7.5c2.8,0,4.2-1.5,4.2-4.6v-5.7l-0.3-7.4l6.1-1.5V337.7z M496.5,312.4c0,1.9-1.4,3.5-3.5,3.5
			c-2,0-3.5-1.4-3.5-3.5c0-2,1.5-3.5,3.5-3.5C495,308.8,496.5,310.3,496.5,312.4z"/>
		<path d="M231,359.2l-1.5-2.8l0.3-0.1c5.2-1.7,7.8-5.2,7.8-10.9l-0.1-23l6.4-1.2v22.4c0,7.9-4.3,13.1-12.7,15.5L231,359.2
			L231,359.2z M230.4,356.8l0.9,1.7c8-2.3,12-7.3,12-14.9V322l-5.2,1l0.1,8l0.1,14.5C238.2,351.2,235.6,355,230.4,356.8L230.4,356.8
			z M222.4,359.2c-2.2,0-3.9-1.7-3.9-3.8c0-2,1.8-3.8,3.9-3.8c2.1,0,3.8,1.7,3.8,3.8C226.3,357.5,224.5,359.2,222.4,359.2
			L222.4,359.2z M222.4,352.2c-1.8,0-3.3,1.5-3.3,3.2c0,1.8,1.4,3.2,3.3,3.2c1.9,0,3.2-1.6,3.2-3.2
			C225.7,353.6,224.2,352.2,222.4,352.2L222.4,352.2z M213.2,359.2c-2.1,0-3.8-1.7-3.8-3.8c0-2,1.7-3.8,3.8-3.8
			c2.1,0,3.9,1.7,3.9,3.8C217.1,357.5,215.3,359.2,213.2,359.2L213.2,359.2z M213.2,352.2c-1.7,0-3.2,1.5-3.2,3.2
			c0,2,1.6,3.2,3.2,3.2c1.8,0,3.3-1.5,3.3-3.2C216.5,353.6,215,352.2,213.2,352.2L213.2,352.2z M41,359.2c-2.1,0-3.8-1.6-3.8-3.8
			c0-2.1,1.7-3.8,3.8-3.8c2.1,0,3.8,1.7,3.8,3.8C44.8,357.5,43.1,359.2,41,359.2L41,359.2z M41,352.2c-1.8,0-3.2,1.4-3.2,3.2
			c0,1.8,1.4,3.2,3.2,3.2c1.9,0,3.2-1.6,3.2-3.2C44.3,353.6,42.8,352.2,41,352.2L41,352.2z M31.8,359.2c-2.1,0-3.8-1.7-3.8-3.8
			c0-2,1.7-3.8,3.8-3.8c2.1,0,3.9,1.7,3.9,3.8C35.6,357.5,33.9,359.2,31.8,359.2L31.8,359.2z M31.8,352.2c-1.7,0-3.2,1.5-3.2,3.2
			c0,2,1.6,3.2,3.2,3.2c1.8,0,3.3-1.5,3.3-3.2C35.1,353.6,33.6,352.2,31.8,352.2L31.8,352.2z M414.6,349.6c-3.3,0-5.8-1.4-7.5-4.2
			c-1.2,0.6-2.7,0.9-4.2,0.9H394c-5.7,0-9.3-3.5-9.3-8.9l0-25.8l0-8.7l6.9-0.6v33.7c0,3,1.3,4.5,3.9,4.5h6c2.4,0,3.6-1.2,3.7-3.5
			c0.3-8.5,5.8-13.6,14.8-13.6c2.8,0,5.6,0.4,8.5,1.3l0.2,0.1l-0.7,6.3l0,5.2c0,2.9,1.2,4.3,3.9,4.3h6.6c2.6,0,3.9-1.4,3.9-4.3
			l0.1-11.9l6.3-0.9v15.3c1.4,1.2,2.9,1.8,4.7,1.8c2.6,0,3.8-1.4,3.8-4.3l0.1-11.9l6.2-1v15.1c1.4,1.3,2.9,2,4.7,2
			c2.6,0,3.8-1.4,3.8-4.3l0-5.7v-8.1l6.3-1.3v15.1c0,2.8,1.3,4.2,3.9,4.2h7.6c2.7,0,3.9-1.4,3.9-4.3v-5.7l-0.4-7.6l6.7-1.7v16.4
			c0,5.4-3.4,8.7-8.9,8.7h-10.4c-2.3,0-4.2-0.5-5.8-1.7c-1.5,1.1-3.3,1.7-5.5,1.7c-3,0-5.6-1-7.7-3.1c-1.6,2.1-4,3.1-7,3.1
			c-2.9,0-5.5-1.1-7.8-3.3c-0.3,0.3-0.6,0.7-0.9,1c-1.7,1.5-3.8,2.3-6.4,2.3h-9.3c-2.1,0-4-0.6-5.5-1.7
			C422.1,348,418.6,349.6,414.6,349.6L414.6,349.6z M407.3,344.7l0.1,0.2c1.6,2.7,4,4.1,7.2,4.1c3.9,0,7.3-1.7,10-4.9l0.2-0.2
			l0.2,0.2c1.4,1.1,3.2,1.7,5.3,1.7h2.3v-4.6h-1c-3,0-4.5-1.6-4.5-4.9v-5.2l0.7-5.8c-2.8-0.8-5.4-1.2-8.1-1.2
			c-8.6,0-13.9,4.9-14.2,13c-0.1,2.7-1.5,4.1-4.3,4.1h-2.5v4.6h4.1c1.6,0,3-0.3,4.2-1L407.3,344.7L407.3,344.7z M484.2,345.8h7
			c5.1,0,8.3-3.1,8.3-8.1v-15.7l-5.5,1.4l0.3,7.2v5.7c0,3.2-1.5,4.9-4.5,4.9h-5.6V345.8L484.2,345.8z M482.6,345.8h1v-4.6h-1V345.8
			L482.6,345.8z M475,344l0.2,0.1c1.5,1.1,3.4,1.7,5.6,1.7h1.2v-4.6c-2.9,0-4.3-1.7-4.3-4.8V322l-5.2,1.1l0,13.3
			c0,3.2-1.5,4.9-4.4,4.9c-2,0-3.7-0.7-5.2-2.2l-0.1-0.1v-14.7l-5,0.8l-0.1,11.4c0,3.2-1.5,4.9-4.4,4.9c-2,0-3.8-0.7-5.2-2l-0.1-0.1
			v-14.9l-5.1,0.7l-0.1,11.4c0,3.2-1.5,4.9-4.5,4.9h-3.5v4.6h4.9c2.5,0,4.5-0.7,6-2.1c0.4-0.4,0.8-0.8,1.1-1.2l0.2-0.3l0.2,0.2
			c2.2,2.2,4.8,3.3,7.6,3.3c3,0,5.2-1,6.8-3.2l0.2-0.3l0.2,0.2c2.1,2.2,4.6,3.2,7.5,3.2c2.1,0,3.9-0.6,5.3-1.7L475,344L475,344z
			 M433.2,345.8h1v-4.6h-1V345.8L433.2,345.8z M397.1,345.8h1v-4.6h-1V345.8L397.1,345.8z M385.2,303.6l0,8.2l0,25.8
			c0,5,3.4,8.3,8.7,8.3h2.6v-4.6h-1.2c-3,0-4.5-1.7-4.5-5v-33.1L385.2,303.6L385.2,303.6z M67.1,349.6c-3.3,0-5.8-1.4-7.5-4.2
			c-1.2,0.6-2.7,0.9-4.2,0.9h-8.7c-2.3,0-4.2-0.6-5.7-1.7c-1.5,1.1-3.4,1.7-5.6,1.7H25.1c-3,0-5.5-1-7.4-2.9c-2,1-4.4,1.5-7.4,1.6
			c-6.3,0-10.2-4.5-10.2-11.6c0-3.8,1.3-7,3.8-9.2c2.5-2.4,5.9-3.5,10-3.5h1.6l-0.1-3.1l1.7-0.3c1.6-0.3,2.8-0.5,5.3-0.8l0.3,0v19.7
			c0,3,1.3,4.4,3.9,4.4h7.4c2.7,0,3.9-1.4,3.9-4.3l0-14.2l6.3-1.1v15.3c0,2.9,1.2,4.3,3.9,4.3h5.7c2.4,0,3.6-1.2,3.7-3.5
			c0.3-8.5,5.8-13.6,14.8-13.6c2.8,0,5.6,0.4,8.5,1.3l0.2,0.1l-0.7,6.3l0,5.2c0,2.9,1.3,4.3,3.9,4.3h6.6c2.7,0,3.9-1.4,3.9-4.3v-5.6
			l0.1-8.6l6.2-0.8v15c0,2.9,1.3,4.3,3.9,4.3h6.6c2.7,0,4-1.4,4-4.3l0-14.2l6.2-0.8v15c0,2.9,1.3,4.3,3.9,4.3h6.9
			c2.6,0,3.9-1.5,3.9-4.5l0-32.4l6.3-0.8l0.1,33.2c0,3,1.3,4.5,3.9,4.5h10.3c2.7,0,3.9-1.4,3.9-4.5l0.1-32.6l6.2-0.6v34.6
			c0,5.5-3.4,8.9-8.9,8.9h-13.1c-2.3,0-4.2-0.6-5.7-1.7c-1.4,1.1-3.3,1.7-5.5,1.7h-9.8c-2.3,0-4.2-0.6-5.7-1.7
			c-1.6,1.1-3.4,1.7-5.5,1.7h-9.6c-2.3,0-4.2-0.6-5.7-1.7c-1.5,1.1-3.4,1.7-5.6,1.7h-9.5c-2.1,0-4-0.6-5.5-1.7
			C74.5,348,71.1,349.6,67.1,349.6L67.1,349.6z M59.8,344.7l0.1,0.2c1.6,2.7,4,4.1,7.2,4.1c3.9,0,7.3-1.7,10-4.9l0.2-0.2l0.2,0.2
			c1.4,1.1,3.2,1.7,5.3,1.7h2.3v-4.6h-1c-3,0-4.5-1.6-4.5-4.9v-5.2l0.7-5.8c-2.8-0.8-5.4-1.2-8.1-1.2c-8.6,0-13.9,4.9-14.2,13
			c-0.1,2.7-1.5,4.1-4.3,4.1h-2.5v4.6h4.1c1.6,0,3-0.3,4.2-1L59.8,344.7L59.8,344.7z M149.5,345.8h8.9c5.2,0,8.3-3.1,8.3-8.3v-33.9
			l-5.1,0.5l-0.1,32.1c0,3.3-1.5,5-4.5,5h-7.5V345.8L149.5,345.8z M147.9,345.8h1v-4.6h-1V345.8L147.9,345.8z M139.6,343.9l0.2,0.2
			c1.4,1.2,3.3,1.7,5.5,1.7h2v-4.6h-0.6c-3,0-4.5-1.7-4.5-5l-0.1-32.5l-5.1,0.7l0,8.6v23.2c0,3.3-1.5,5-4.5,5H129v4.6h5.1
			c2.2,0,3.9-0.6,5.3-1.7L139.6,343.9L139.6,343.9z M127.4,345.8h1v-4.6h-1V345.8L127.4,345.8z M118.7,344l0.2,0.1
			c1.4,1.1,3.2,1.7,5.5,1.7h2.4v-4.6h-1.1c-3,0-4.5-1.6-4.5-4.9V322l-5.1,0.7l0,13.7c0,3.2-1.5,4.9-4.6,4.9h-3.4v4.6h5
			c2.1,0,3.9-0.6,5.4-1.7L118.7,344L118.7,344z M106.6,345.8h1v-4.6h-1V345.8L106.6,345.8z M97.9,344l0.2,0.1
			c1.4,1.1,3.2,1.7,5.5,1.7h2.4v-4.6h-1c-3,0-4.5-1.6-4.5-4.9V322l-5.1,0.7l-0.1,13.7c0,3.2-1.5,4.9-4.5,4.9h-3.5v4.6h5
			c2.1,0,3.9-0.6,5.4-1.7L97.9,344L97.9,344z M85.7,345.8h1v-4.6h-1V345.8L85.7,345.8z M49.6,345.8h1v-4.6h-1V345.8L49.6,345.8z
			 M41,344l0.2,0.1c1.4,1.1,3.2,1.7,5.5,1.7h2.4v-4.6h-1c-3,0-4.5-1.6-4.5-4.9v-14.6l-5.2,0.9l0,13.7c0,3.2-1.5,4.9-4.5,4.9h-3.5
			v4.6h5c2.1,0,3.9-0.6,5.4-1.7L41,344L41,344z M28.8,345.8h1v-4.6h-1V345.8L28.8,345.8z M17.8,342.8l0.2,0.2
			c1.8,1.9,4.1,2.9,7.1,2.9h3.2v-4.6h-1.7c-3,0-4.5-1.7-4.5-5v-19.1c-2.2,0.2-3.3,0.4-4.9,0.7l-1.2,0.2l0.1,3.2h-2.1
			c-4,0-7.2,1.1-9.6,3.4c-2.4,2.2-3.6,5.1-3.6,8.8c0,6.8,3.7,11.1,9.7,11.1c3-0.1,5.4-0.6,7.3-1.6L17.8,342.8L17.8,342.8z
			 M368.6,346.5h-6.4l-0.1-43.6l6.5-0.6L368.6,346.5L368.6,346.5z M362.8,345.9h5.2l0-43.1l-5.3,0.5v6.9L362.8,345.9L362.8,345.9z
			 M312.9,346.4c-0.2,0-0.4,0-0.6,0h-25.3c-0.1,0-0.3,0-4.9-0.7c-1.5,0.3-4.3,0.7-4.9,0.7h-17.5c-5.5,0-8.8-3.4-8.8-8.9l0.1-34.4
			l6.3-0.8v33.9c0,3,1.3,4.5,3.9,4.5h10.7c-1.7-1.9-2.6-4.4-2.6-7.2c0-3.5,1.1-6.3,3.4-8.6c2.3-2.3,5.4-3.4,9.5-3.4
			c4.1,0,7.1,1.1,9.5,3.4c2.3,2.3,3.4,5.1,3.4,8.6c0,2.9-0.9,5.3-2.6,7.2h19.4c0.6,0,1.1,0,1.6-0.1c-1.6-1.4-4.8-4.5-9.2-8.6
			l-0.1-0.1v-0.1c0-2.8,1.5-5.4,4.5-7.6c3-2.2,6.6-3.4,10.8-3.4c4.1,0,7.7,1.2,10.8,3.4c2.9,2.2,4.3,4.7,4.3,7.6v0.1l-0.1,0.1
			c-0.6,0.5-3.8,3.5-9.3,8.6c0.5,0.1,1.1,0.1,1.7,0.1H345c2.7,0,3.9-1.4,3.9-4.5l0.1-33l6.5-0.9l-0.2,35.3c0,5.5-3.4,8.9-8.9,8.9
			h-21.2c-1.7,0-3.7-0.5-6-1.5c0,0-0.1,0.1-0.1,0.1c-0.6,0.4-1.8,1.3-3.7,1.3c-0.2,0-0.4,0-0.6,0
			C314.2,346.4,313.5,346.4,312.9,346.4L312.9,346.4z M300.1,345.8h12.2c0.8,0,1.8,0,2.5-0.1c0.3,0,0.5,0,0.6,0h0
			c1.8,0,2.9-0.8,3.4-1.2c0.1-0.1,0.2-0.2,0.3-0.2l0.1-0.1l0.1,0.1c2.2,1,4.2,1.5,5.9,1.5h10.1v-4.6h-8.6c-0.9,0-1.7-0.1-2.4-0.2
			l-0.5-0.1l0.4-0.4c5.5-5.1,8.8-8.2,9.6-8.9c0-2.6-1.4-5-4.1-7c-2.9-2.2-6.4-3.3-10.4-3.3c-4,0-7.5,1.1-10.4,3.2
			c-2.8,2.1-4.2,4.5-4.2,7.1c4.7,4.5,8.1,7.7,9.5,8.9l0.4,0.4l-0.5,0.1c-0.7,0.2-1.4,0.2-2.3,0.2h-11.7V345.8L300.1,345.8z
			 M339.2,345.8h7.2c5.2,0,8.3-3.1,8.3-8.3l0.2-34.6l-5.3,0.8v8l-0.1,24.6c0,3.3-1.5,5-4.5,5h-5.8V345.8L339.2,345.8z M335.9,345.8
			h2.8v-4.6h-2.8V345.8L335.9,345.8z M298.6,345.8h0.9v-4.6h-0.9V345.8L298.6,345.8z M282,345.1c4,0.6,4.8,0.7,4.9,0.7H298v-4.6
			h-7.1l0.5-0.5c2-1.9,2.9-4.3,2.9-7.3c0-3.4-1.1-6-3.3-8.2c-2.2-2.2-5.2-3.3-9.1-3.3s-6.9,1.1-9.1,3.3c-2.2,2.1-3.3,4.8-3.3,8.2
			c0,3,0.9,5.4,2.9,7.3l0.5,0.5h-8.7v4.6h12.7C277.5,345.8,279.3,345.6,282,345.1L282,345.1z M262.8,345.8h1v-4.6h-1V345.8
			L262.8,345.8z M251.4,303.5l-0.1,33.9c0,5.2,3.1,8.3,8.3,8.3h2.6v-4.6H261c-3,0-4.5-1.7-4.5-5v-33.2L251.4,303.5L251.4,303.5z
			 M219,346.4h-12.3c-3,0-5.5-1-7.4-2.9c-2,1-4.4,1.5-7.4,1.6c-6.3,0-10.2-4.5-10.2-11.6c0-3.8,1.3-7,3.8-9.2
			c2.5-2.4,5.9-3.5,10-3.5h1.6l0.1-3l0.2,0c2.5-0.3,4.4-0.7,6.5-1.1l0.3-0.1v19.7c0,3,1.3,4.4,3.9,4.4h9.5c2.7,0,3.9-1.4,3.9-4.3
			l0-13.7l6.3-1.3v16.4C227.9,343,224.4,346.4,219,346.4L219,346.4z M212.1,345.8h6.9c5.1,0,8.3-3.1,8.3-8.1V322l-5.1,1.1l0,13.2
			c0,3.2-1.5,4.9-4.5,4.9h-5.6V345.8L212.1,345.8z M210.5,345.8h1v-4.6h-1V345.8L210.5,345.8z M199.4,342.8l0.2,0.2
			c1.8,1.9,4.1,2.9,7.1,2.9h3.2v-4.6h-1.7c-3,0-4.5-1.7-4.5-5v-19c-1.9,0.4-3.7,0.7-5.9,1l-0.1,3.1h-2.1c-4,0-7.2,1.1-9.6,3.4
			c-2.4,2.2-3.6,5.1-3.6,8.8c0,6.8,3.7,11.1,9.7,11.1c3-0.1,5.4-0.6,7.3-1.6L199.4,342.8L199.4,342.8z M416.1,344.9
			c-3.1,0-5.1-3.2-5.1-8c0-6.2,2.5-9.4,7.5-9.4c1.1,0,2,0.1,2.9,0.4l0.2,0.1l0.5,3.4v10.7l-0.1,0.1
			C420.2,344,418.3,344.9,416.1,344.9L416.1,344.9z M418.5,328.1c-4.7,0-6.9,2.9-6.9,8.8c0,4.5,1.8,7.5,4.6,7.5c2,0,3.7-0.8,5.3-2.4
			v-10.5l-0.4-3C420.3,328.2,419.4,328.1,418.5,328.1L418.5,328.1z M68.6,344.9c-3.1,0-5.1-3.2-5.1-8c0-6.2,2.5-9.4,7.5-9.4
			c1.1,0,2,0.1,2.9,0.4L74,328l0.5,3.4l0,10.7l-0.1,0.1C72.7,344,70.8,344.9,68.6,344.9L68.6,344.9z M71,328.1
			c-4.7,0-6.9,2.9-6.9,8.8c0,4.5,1.8,7.5,4.6,7.5c2,0,3.7-0.8,5.3-2.4v-10.5l-0.4-3C72.8,328.2,71.9,328.1,71,328.1L71,328.1z
			 M282.1,341.9c-4.5,0-6.8-3-6.8-8.8c0-2.5,0.7-4.5,2.1-6c1.2-1.2,2.7-1.8,4.6-1.8c1.8,0,3.3,0.6,4.5,1.8c1.5,1.5,2.2,3.4,2.2,6
			c0,2.3-0.5,4.3-1.6,5.9C286,340.9,284.3,341.9,282.1,341.9L282.1,341.9z M282,325.9c-1.7,0-3.1,0.5-4.2,1.7
			c-1.3,1.3-1.9,3.2-1.9,5.6c0,5.5,2,8.2,6.2,8.2c2,0,3.5-0.9,4.6-2.6c1-1.5,1.5-3.4,1.5-5.6c0-2.4-0.7-4.2-2-5.6
			C285.1,326.4,283.7,325.9,282,325.9L282,325.9z M193.2,340.3c-3.7,0-5.6-2.6-5.7-7.9c0-2.2,0.7-4.1,2.2-5.6
			c1.5-1.5,3.3-2.2,5.3-2.3c0.9,0,1.9-0.1,2.9-0.1l0.5,0v15.1l-0.2,0.1C196.7,340.1,195,340.3,193.2,340.3L193.2,340.3z M198,325.1
			c-1,0.1-1.9,0.1-2.8,0.1c-1.9,0.1-3.6,0.8-4.9,2.1c-1.4,1.4-2.1,3.1-2.1,5.2c0.1,4.9,1.7,7.3,5.1,7.3c1.6,0,3.2-0.2,4.7-0.6V325.1
			L198,325.1z M11.6,340.3c-3.7,0-5.6-2.6-5.7-7.9c0-2.2,0.7-4.1,2.2-5.6c1.5-1.5,3.3-2.2,5.3-2.3c0.9,0,1.9-0.1,3-0.1l0.5,0v15.1
			l-0.2,0.1C15,340.1,13.3,340.3,11.6,340.3L11.6,340.3z M16.3,325.1c-1,0.1-1.9,0.1-2.8,0.1c-1.9,0.1-3.6,0.8-4.9,2.1
			c-1.4,1.4-2.1,3.1-2.1,5.2c0.1,4.9,1.7,7.3,5.1,7.3c1.6,0,3.2-0.2,4.7-0.6V325.1L16.3,325.1z M319.3,339.2l-0.2-0.2
			c-3-2.8-5.9-5.5-8.6-8.2l-0.1-0.1l0-0.1c0.2-1.1,1-2.2,2.5-3.3c1.7-1.1,3.9-1.6,6.4-1.6c2.6,0,4.7,0.5,6.5,1.6
			c1.4,0.9,2.2,2,2.4,3.3l0,0.1L319.3,339.2L319.3,339.2z M311,330.5c2.7,2.6,5.4,5.2,8.3,7.9l8.3-7.9c-0.2-1-0.9-1.9-2.1-2.7
			c-1.6-1-3.7-1.5-6.1-1.5c-2.4,0-4.5,0.5-6.1,1.5C311.9,328.7,311.2,329.6,311,330.5L311,330.5z M493.1,316.1
			c-2.2,0-3.8-1.6-3.8-3.8c0-2.2,1.6-3.8,3.8-3.8c2.1,0,3.8,1.7,3.8,3.8C496.8,314.5,495.2,316.1,493.1,316.1L493.1,316.1z
			 M493.1,309.1c-1.9,0-3.2,1.4-3.2,3.2c0,1.8,1.4,3.2,3.2,3.2c1.8,0,3.2-1.4,3.2-3.2C496.2,310.6,494.8,309.1,493.1,309.1
			L493.1,309.1z M286.7,316.1c-2.1,0-3.8-1.7-3.8-3.8c0-2.1,1.7-3.8,3.8-3.8s3.8,1.7,3.8,3.8C290.5,314.5,288.8,316.1,286.7,316.1
			L286.7,316.1z M286.7,309.1c-1.8,0-3.2,1.4-3.2,3.2c0,1.8,1.4,3.2,3.2,3.2c1.8,0,3.2-1.4,3.2-3.2
			C289.9,310.6,288.5,309.1,286.7,309.1L286.7,309.1z M277.4,316.1c-2.1,0-3.8-1.7-3.8-3.8c0-2.1,1.7-3.8,3.8-3.8
			c2.1,0,3.9,1.7,3.9,3.8C281.3,314.5,279.6,316.1,277.4,316.1L277.4,316.1z M277.4,309.1c-1.8,0-3.2,1.5-3.2,3.2
			c0,1.8,1.5,3.2,3.2,3.2c1.8,0,3.3-1.4,3.3-3.2C280.7,310.6,279.2,309.1,277.4,309.1L277.4,309.1z M119.3,316.1
			c-2.1,0-3.8-1.6-3.8-3.8c0-2.1,1.7-3.8,3.8-3.8c2.2,0,3.8,1.6,3.8,3.8C123.2,314.5,121.5,316.1,119.3,316.1L119.3,316.1z
			 M119.3,309.1c-1.8,0-3.2,1.4-3.2,3.2c0,1.8,1.4,3.2,3.2,3.2c1.8,0,3.2-1.4,3.2-3.2C122.6,310.5,121.2,309.1,119.3,309.1
			L119.3,309.1z M110.1,316.1c-2.1,0-3.8-1.6-3.8-3.8c0-2.1,1.7-3.8,3.8-3.8c2.2,0,3.8,1.6,3.8,3.8
			C113.9,314.5,112.2,316.1,110.1,316.1L110.1,316.1z M110.1,309.1c-1.8,0-3.2,1.4-3.2,3.2c0,1.8,1.4,3.2,3.2,3.2
			c1.8,0,3.2-1.4,3.2-3.2C113.3,310.5,112,309.1,110.1,309.1L110.1,309.1z M96.8,316.1c-2.2,0-3.9-1.7-3.9-3.8c0-2,1.8-3.8,3.9-3.8
			c2.1,0,3.8,1.7,3.8,3.8C100.7,314.5,99,316.1,96.8,316.1L96.8,316.1z M96.8,309.1c-1.8,0-3.3,1.5-3.3,3.2c0,1.8,1.4,3.2,3.3,3.2
			c1.8,0,3.2-1.4,3.2-3.2C100.1,310.6,98.6,309.1,96.8,309.1L96.8,309.1z M199.7,314.7c-2.2,0-3.9-1.7-3.9-3.9
			c0-2.1,1.8-3.8,3.9-3.8c2.1,0,3.8,1.7,3.8,3.9C203.5,313.1,201.8,314.7,199.7,314.7L199.7,314.7z M199.7,307.6
			c-1.8,0-3.3,1.5-3.3,3.2c0,1.9,1.4,3.3,3.3,3.3c2,0,3.2-1.7,3.2-3.2C202.9,309.1,201.5,307.6,199.7,307.6L199.7,307.6z
			 M190.4,314.7c-2.2,0-3.8-1.7-3.8-3.9c0-2.1,1.7-3.8,3.8-3.8c2.1,0,3.8,1.7,3.8,3.9C194.2,313.1,192.5,314.7,190.4,314.7
			L190.4,314.7z M190.4,307.6c-1.8,0-3.2,1.5-3.2,3.2c0,1.9,1.4,3.3,3.2,3.3c2,0,3.2-1.7,3.2-3.2
			C193.6,309.1,192.3,307.6,190.4,307.6L190.4,307.6z M18.1,314.7c-2.2,0-3.9-1.7-3.9-3.9c0-2.1,1.8-3.8,3.9-3.8
			c2.1,0,3.8,1.7,3.8,3.9C21.8,313.1,20.1,314.7,18.1,314.7L18.1,314.7z M18.1,307.6c-1.8,0-3.3,1.5-3.3,3.2c0,1.9,1.4,3.3,3.3,3.3
			c2,0,3.2-1.7,3.2-3.2C21.2,309.1,19.8,307.6,18.1,307.6L18.1,307.6z M8.8,314.7c-2.2,0-3.8-1.7-3.8-3.9c0-2.1,1.7-3.8,3.8-3.8
			c2.1,0,3.8,1.7,3.8,3.9C12.6,313.1,10.9,314.7,8.8,314.7L8.8,314.7z M8.8,307.6c-1.8,0-3.2,1.5-3.2,3.2c0,1.9,1.4,3.3,3.2,3.3
			c2,0,3.2-1.7,3.2-3.2C12,309.1,10.6,307.6,8.8,307.6L8.8,307.6z"/>
	</g>
</g>
<g>
	<g>
		<path class="st1" d="M312.2,22.6C289.5,9,260.5,0,233.7,0c-31,0-54.9,11.3-67.3,32c-27.3,45.2,3.7,124.5,47.7,152.9
			c15.1,9.7,32.4,14.9,50,14.9c32.2,0,66.6-21,82.9-49.3C371.7,108,357.5,49.8,312.2,22.6z"/>
	</g>
	<g>
		<path class="st2" d="M264.8,164.8c-18.4-20-20-71.6-2.7-88.9c4.1-4.1,9.2-6.3,15.1-6.3c21,0.2,44,24.1,50.6,32
			c10.5,12.6,15.7,29.9,12.9,45.5c11.5-30.7,1.4-73.2-26.8-91.5c-8.5-5.5-19.9-8.4-33-8.4c-33,0-69.5,17.7-83.2,40.3
			c-22.4,37.1,24,72.7,45,86.3c11,7.1,23.6,10.9,36.4,10.9c7.7,0,15.2-1.3,22.1-3.8c-0.4,0-0.8,0.1-1.2,0.1
			C287,180.9,274.2,175.1,264.8,164.8z"/>
	</g>
	<g>
		<path class="st3" d="M324.8,104.2c-8.4-9.1-29.7-30.4-47.3-30.4c-4.9,0-9.1,1.8-12.6,5.2c-15.7,15.8-14,64.6,2.8,82.9
			c8.6,9.4,20.3,14.8,32.2,14.8c4.2,0,8.2-0.7,12-2c14.5-5.5,19.4-14.2,23.2-22.9C340.7,136.5,337.2,117.7,324.8,104.2z"/>
	</g>
	<g>
		<path class="st4" d="M351,128c12.6-41-6.5-80.1-40.8-102.3c-21.7-14-50.3-22.4-76.5-22.4c-29.8,0-52.1,11.2-64.6,30.4
			c-28.2,43.6,4.9,119.9,46.8,147c14.6,9.4,31.6,14.2,48.6,14.2c2.5,0,6.2-0.3,8.7-0.5c0.5-0.1,8.5-1.2,12.8-2.5
			c4.9-1.5,10.8-3.9,14.2-6.4c-6.7,2.2-13.9,3.3-21.2,3.3c-13.6,0-26.9-4-38.5-11.5c-22-14.2-70.5-51.6-46.5-91.5
			c14.3-23.7,52.4-42.3,86.7-42.3c13.9,0,26,3.1,35.1,9c26.8,17.4,40.2,57,30.6,87.5C347.5,138.8,350.7,129.1,351,128z"/>
	</g>
</g>
</svg>
