<?xml version="1.0" encoding="utf-8"?>
<!-- Generator: Adobe Illustrator 26.0.1, SVG Export Plug-In . SVG Version: 6.00 Build 0)  -->
<svg version="1.1" id="Layer_1" xmlns="http://www.w3.org/2000/svg" xmlns:xlink="http://www.w3.org/1999/xlink" x="0px" y="0px"
	 viewBox="0 0 393.5 500" style="enable-background:new 0 0 393.5 500;" xml:space="preserve">
<style type="text/css">
	.st0{fill:#515051;}
	.st1{fill:#00718A;}
</style>
<path class="st0" d="M232.4,397c-7.6-5-15.4-9.6-23.3-14l0,0c-64-35.1-134.8-55.1-207.2-58.3l0,0L0,324.6V48.9v-1.1l1-0.5
	C1.2,47.2,87.6,0,205.5,0l0,0c57.1,0,121.5,11.1,187,43.9l0,0l1.1,0.5v299.3l-1.9,0.1c-59.2,1.9-111.4,21.5-157.2,53.2l0,0l-1.1,0.7
	L232.4,397L232.4,397z M210.9,379.6c7.7,4.2,15.2,8.7,22.5,13.5l0,0c45.5-31.3,97.5-50.8,156.3-53.1l0,0V46.8
	c-64.5-32.1-127.9-43-184.2-43l0,0c-58.4,0-109.2,11.7-145.2,23.4l0,0C28.7,37.5,8.4,47.7,3.8,50.1l0,0V321
	C76.2,324.5,146.9,344.6,210.9,379.6L210.9,379.6z"/>
<path class="st1" d="M193.1,389.8C132.6,359.5,67,341.1,0.1,338c2.5,17.9,6.9,35.5,13.7,52.1c6.2,15,15.5,30.9,26.2,43.1
	c17.2,19.7,40,36.4,63.7,47.8c5.7,2.7,11.5,5,17.4,7.1c1.6,0.6,16.9,6.1,17.5,5.2c22.6-34,50.1-64.1,81.6-88.3
	C211.5,399.5,202.4,394.5,193.1,389.8z"/>
<path class="st0" d="M233.8,414c-30.3,22.6-56.9,50.9-78.9,82.9c26.7,4.7,45.7,2.8,45.7,2.8c37.3,1.9,67.7-5,92.4-16.6
	C281.2,454.8,259.4,432.2,233.8,414z"/>
<path class="st1" d="M246.8,404.8c25.8,19.2,47.3,42.5,59.7,71.1c69-40.6,86.5-118.3,86.5-118.3l0-0.4
	C338.5,359,289.2,376.5,246.8,404.8z"/>
<g>
	<g>
		<path class="st0" d="M127,147.9l29.4-0.3c0,0,4.8,0,4.7-4.3c0-4.3-4.1-5.1-4.1-5.1l-46.5,0.4"/>
	</g>
	<g>
		<polygon class="st0" points="122.6,116.4 116.2,116.5 99.3,97.1 99.4,116.6 91.9,116.7 91.6,86.3 95,86.3 98.6,86.2 114.9,104.6 
			114.8,86.1 122.3,86 		"/>
	</g>
	<g>
		<polygon class="st0" points="163.6,116.1 141.1,116.3 140.9,85.9 163,85.7 163,91.3 148.5,91.4 148.6,97.7 162.4,97.6 
			162.5,103.2 148.6,103.3 148.7,110.6 163.5,110.5 		"/>
	</g>
	<g>
		<path class="st0" d="M201.2,93.2c-4.4-1.9-7.1-2.7-9.6-2.6c-2.7,0-4.4,1-4.4,2.5c0,4.6,15.5,3.2,15.6,13.8
			c0.1,5.8-4.8,9.3-11.6,9.3c-5.3,0-7.9-1.3-11-2.9l-0.1-6.5c4.4,2.9,7.1,3.9,10.4,3.8c2.9,0,4.4-1,4.4-2.8c0-5-15.5-3-15.6-13.9
			c0-5.3,4.5-8.8,11.5-8.8c3.4,0,6.5,0.7,10.3,2.3L201.2,93.2z"/>
	</g>
	<g>
		<polygon class="st0" points="245.3,85 251.9,84.9 252.2,115.3 244.6,115.4 244.4,96.4 236.3,106 235.2,106 226.9,96.5 227,115.5 
			219.5,115.6 219.2,85.2 225.8,85.1 235.7,96.3 		"/>
	</g>
	<g>
		<path class="st0" d="M301.8,114.9l-8.1,0.1l-2.6-6l-13.6,0.1l-2.2,6l-8,0.1l12-30.5l8.8-0.1L301.8,114.9z M283.8,91.9l-4.3,11.8
			l9.4-0.1L283.8,91.9z"/>
	</g>
	<g>
		
			<rect x="171.8" y="126.1" transform="matrix(1 -8.432802e-03 8.432802e-03 1 -1.1464 1.5052)" class="st0" width="12.2" height="21.1"/>
	</g>
	<g>
		
			<rect x="233.5" y="125.6" transform="matrix(1 -8.565840e-03 8.565840e-03 1 -1.1577 2.0561)" class="st0" width="11.9" height="21.1"/>
	</g>
	<g>
		<polygon class="st0" points="202.8,147.1 215,146.9 214.8,125.8 202.6,125.9 		"/>
	</g>
	<g>
		<path class="st0" d="M327.3,111l0.3,32.2c-0.3,2.4-2.4,2.8-2.4,2.8l-50,0.4c0,0-3.1-0.7-3.2-4.5c0-3.8,3.1-4.5,3.1-4.5l40.7-0.4
			c3.5,0,3-5.8,2.9-13.4c0-2.2-0.1-12.4-0.1-12.6c0,0,0.8-3.1,4.3-3.1C326.3,108,327.3,111,327.3,111z"/>
	</g>
	<g>
		<path class="st0" d="M74.8,198.6c0,0,188.5-18.9,248.4-12.8"/>
	</g>
	<g>
		<path class="st0" d="M302.8,184.1l-2.5-0.1l1.2,0.2C302,184.3,302.3,184.2,302.8,184.1z"/>
	</g>
	<g>
		<polygon class="st0" points="297.9,184 297.5,184 297.1,184 		"/>
	</g>
	<g>
		<path class="st0" d="M293.6,184l2.2,0C295.2,184,294.5,184,293.6,184z"/>
	</g>
	<g>
		<path class="st0" d="M297,184.2c-0.3,0-0.4-0.1,0-0.2l0,0l-1.3,0.1C296.3,184.1,296.7,184.1,297,184.2z"/>
	</g>
	<g>
		<path class="st0" d="M297,184.2c0.3,0.1,0.7,0.2,0.8,0.2L297,184.2z"/>
	</g>
	<g>
		<path class="st0" d="M296,185.8c-0.4,0-0.3-0.4-1.2-0.3c-2.1,0.1-3.8,0.3-5.7,0.3c-0.9,0.1-2.2-0.4-3.1-0.3
			c-2,0.1-7.2,0.8-4.1,0.7c4.5-0.1,7.5-0.3,11.7-0.3c3.3-0.2,6.6-0.3,10-0.4c0.9,0,1.8,0.1,2.7,0.1c-1.2-0.1-2.4-0.2-3.7-0.3
			C300.9,185.1,298.7,185.7,296,185.8z"/>
	</g>
	<g>
		<path class="st0" d="M321.1,185.3c-0.4,0-1.3,0-1.3,0c-1.9-0.5-4-0.5-6-0.5l0.9,0.3c1.2,0.1,1.3-0.1,0.3-0.2
			c2.4,0.4,4.6,0.6,6.9,0.8C321.7,185.5,321.7,185.4,321.1,185.3z"/>
	</g>
	<g>
		<polygon class="st0" points="323.2,185.8 321.8,185.7 321.9,185.7 323.2,185.8 		"/>
	</g>
	<g>
		<path class="st0" d="M284.4,184.5c-5.8,0.1-11.2,0.2-16.5,0.3c-0.4,0.1-0.7,0.2-1.3,0.2l-1.2-0.1l-2.3,0l-0.8,0.1l-0.1,0
			c-0.4,0.1-0.3,0.2,0,0.2l0.8,0.2c-0.1,0-0.5-0.1-0.8-0.2c-0.4,0-0.8-0.1-1.3,0c-0.7,0-1.4,0.1-2.2,0.1c0.9-0.1,1.5-0.1,2.2-0.1
			l1.3-0.1l0.3-0.1l-5.3,0.1c-0.4,0-0.8,0.1-1.1,0.1c-1.3,0.1-2.5,0.2-3.4,0l-0.9,0l0.2,0l-0.4,0l-4,0.1l-2.6,0.4
			c0,0-0.6-0.2-0.9-0.2c-0.4,0.1-0.9,0.2-1.5,0.3c0.7,0.1,1.4,0.2,2,0.3c0.9,0.2,2-0.5,3.1-0.2c-1.1-0.4-2.2,0.3-3.1,0.2
			c-0.6-0.1-1.3-0.2-2-0.3c-1.3,0.1-2.9,0.1-4.2,0c1.6-0.2,3-0.1,4.2,0c0.6-0.1,1.1-0.2,1.5-0.3c0.3,0,0.9,0.2,0.9,0.2l2.6-0.4
			c-2.6,0.1-5.2,0.2-7.9,0.2c-17.3,0.6-33.3,1.6-51.2,2.6c-9.8,0.6-19,1.1-28.2,1.5c-18.3,0.9-34.9,2.9-53.4,3.4
			c-7.1,0.2-20.2,1.6-27,2.4c-9,1.6-4.1,3-3.6,3.1c5.8,1.1,10.1-0.3,21.6-0.3c5.9-0.1,19.7-0.7,13.1-1.1c10.8,0.8,25.8-1.9,39-2.5
			c3.3-0.1,6.8-0.5,10.7-0.7c20.4-1,39.2-3,60.6-4.2c5.7-0.3,10.6-1,15.4-1.5c3.4-0.2,7.2-0.2,10-0.3c4.4-0.2,8.3-0.5,12-0.8
			c-4.1,0.2-7.1,0.4-11.7,0.7c-3.1,0.2,2.1-0.7,4.1-0.8c0.8-0.1,2.2,0.3,3.1,0.2c1.9-0.1,3.6-0.4,5.6-0.6c0.9-0.2,0.8,0.3,1.3,0.2
			c2.8-0.2,4.8-0.8,6.6-0.7c1.3,0,2.6,0.1,3.7,0.1l2.3,0l1.5-0.2c-0.4-0.1-0.5-0.3-0.7-0.4c0.8,0,1.8,0.1,2.5,0.1
			c-0.7,0-1.8-0.1-2.5-0.1c0.2,0.1,0.3,0.3,0.7,0.4c3.6-0.3,7.8-0.6,11.7-0.8l-0.1,0c-2.3,0-4.5,0.1-6.9-0.2c1,0,0.9,0.1-0.3,0.2
			l-0.9-0.2c2-0.2,4-0.3,6,0c0,0,0.9-0.1,1.3-0.1c0.6,0,0.6,0.1,0.7,0.3l1.4,0C287.4,184.8,284.4,184.5,284.4,184.5z"/>
	</g>
	<g>
		<path class="st0" d="M260.9,185c0.3-0.1,0.7,0,1.1-0.1l-4.4,0.1C258.4,185.2,259.6,185.1,260.9,185z"/>
	</g>
	<g>
		<path class="st0" d="M96.7,160.8L76.2,161c-1.9,0.1-1.5-2-1.6-4.7l-0.6-67.2c0,0-1.2-2.9-4.9-2.9c-3.7,0-5,2.4-5,2.4l0.6,72.6
			c0.1,6.3,3.6,9.4,10.6,9.4l21.7-0.2"/>
	</g>
	<g>
		<path class="st0" d="M316.8,89.6c0-1.5,0.5-2.8,1.5-3.9c1-1.1,2.3-1.7,3.8-1.7c1.6,0,2.9,0.5,3.9,1.6c1.1,1.1,1.6,2.4,1.6,3.9
			c0,1.5-0.6,2.8-1.6,3.8c-1,1-2.3,1.5-3.8,1.5c-1.5,0-2.8-0.5-3.8-1.5C317.3,92.3,316.8,91.1,316.8,89.6z"/>
	</g>
	<g>
		<path class="st0" d="M113.9,138.5L92,138.7l0.2,24.8l0.1,8.2c0.3,1.5,0.6,2.4,1.1,3c0.8,0.9,2.5,1.3,5.2,1.3l31.6-0.3l-0.2-19.4
			c0.1-3.9-0.6-7.2-2.5-10.3 M122.8,157.3l0.1,10.8l-23.3,0.2l-0.2-21.9l11-0.1c6.9,0.3,9.5,2.1,11.1,4
			C122.8,152,122.8,155.9,122.8,157.3z"/>
	</g>
</g>
<g>
	<g>
		<path class="st0" d="M219.2,247c2.1,0,4.1,0.5,6,1.5c1.9,1,3.5,2.5,4.6,4.5c1.1,1.9,1.7,4,1.7,6.1c0,2.1-0.5,4.2-1.6,6.1
			c-1.1,1.9-2.6,3.5-4.5,4.6c-1.9,1.1-4,1.6-6.1,1.7c-2.1,0-4.1-0.5-6.1-1.6c-2-1.1-3.5-2.6-4.6-4.5c-1.1-1.9-1.7-4-1.7-6.1
			c0-2.1,0.5-4.2,1.6-6.2c1.1-2,2.6-3.5,4.5-4.6C215.2,247.6,217.2,247.1,219.2,247z M214.4,250.8c-1.6,0.8-2.8,2.1-3.6,3.6
			c-0.9,1.6-1.3,3.2-1.3,4.9c0,1.7,0.5,3.3,1.3,4.9c0.9,1.5,2.1,2.7,3.7,3.6c1.6,0.8,3.2,1.3,4.9,1.2c1.7,0,3.3-0.5,4.9-1.3
			c1.6-0.9,2.8-2.1,3.6-3.7c0.8-1.6,1.3-3.2,1.3-4.9c0-1.7-0.5-3.4-1.4-4.9c-0.9-1.6-2.1-2.8-3.7-3.6c-1.6-0.8-3.2-1.2-4.8-1.2
			C217.6,249.5,216,250,214.4,250.8z M214.9,240c-0.4,0.2-0.7,0.5-0.9,0.9c-0.2,0.4-0.3,0.8-0.3,1.2c0,0.4,0.1,0.8,0.3,1.2
			c0.2,0.4,0.5,0.7,0.9,0.9c0.4,0.2,0.8,0.3,1.2,0.3c0.4,0,0.8-0.1,1.2-0.3c0.4-0.2,0.7-0.5,0.9-0.9c0.2-0.4,0.3-0.8,0.3-1.2
			c0-0.4-0.1-0.8-0.3-1.2c-0.2-0.4-0.5-0.7-0.9-0.9c-0.4-0.2-0.8-0.3-1.2-0.3C215.7,239.7,215.3,239.8,214.9,240z M221,240
			c-0.4,0.2-0.7,0.5-0.9,0.9c-0.2,0.4-0.3,0.8-0.3,1.2c0,0.4,0.1,0.8,0.3,1.2c0.2,0.4,0.5,0.7,0.9,0.9c0.4,0.2,0.8,0.3,1.2,0.3
			c0.4,0,0.8-0.1,1.2-0.3c0.4-0.2,0.7-0.5,0.9-0.9c0.2-0.4,0.3-0.8,0.3-1.2c0-0.4-0.1-0.8-0.3-1.2c-0.2-0.4-0.5-0.7-0.9-0.9
			c-0.4-0.2-0.8-0.3-1.2-0.3C221.8,239.6,221.4,239.8,221,240z"/>
	</g>
	<g>
		<path class="st0" d="M260.3,268.7c-0.1-2-0.3-4-0.7-6c-0.3-2-1-3.8-1.9-5.5c-0.9-1.7-2-3.2-3.2-4.5c-1.2-1.2-2.9-2.2-5.1-2.9
			c-2.2-0.7-4.3-0.8-6.4-0.3c-2.1,0.4-3.8,1.3-5.3,2.7l-1.4-2.1c1.8-1.5,3.9-2.6,6.3-3.1c2.6-0.5,5.1-0.4,7.6,0.3
			c2.5,0.8,4.5,2,5.9,3.4c1.4,1.4,2.7,3.2,3.9,5.3c1.1,2.1,1.9,4.3,2.2,6.8c0.4,2.4,0.5,4.4,0.6,5.9l6.9-0.1l0,2.4l-15.9,0.1
			l-17.2,0.1l0-2.5L260.3,268.7z"/>
	</g>
	<g>
		<path class="st0" d="M267,268.7l29.5-0.2c-0.2-0.1-0.5-0.3-0.7-0.5c-1.8-1.9-2.7-4.5-2.7-7.6c-0.5-4.2-1.6-7.2-3.2-8.8
			c-1.6-1.6-3.4-2.4-5.4-2.3c-2,0-3.5,0.3-4.5,0.8c-1,0.5-1.9,1.1-2.8,2c-0.9,0.9-1.5,1.9-2,3.1c-0.5,1.2-0.7,2.5-0.7,3.8l-2.5,0
			c0-1.7,0.3-3.3,0.9-4.8c0.6-1.5,1.5-2.8,2.5-3.9c1.1-1.1,2.3-2,3.8-2.7c1.4-0.7,3.3-1,5.7-1c2.3,0,4.6,1.1,6.7,3.1
			c2.1,2.1,3.4,5.6,4,10.5c0,2.4,0.6,4.4,1.8,5.8c1.8,1.5,4.1,2.3,7.1,2.3l2.9,0l0,2.4l-2.9,0l-37.5,0.3L267,268.7z"/>
	</g>
	<g>
		<path class="st0" d="M313.4,246.2l0.2,22.1l7.4-0.1l0,2.5l-17.1,0.1l0-2.5l7.3-0.1l-0.2-22.1L313.4,246.2z M308.9,236.4
			c0.4,0,0.8,0.1,1.2,0.3c0.4,0.2,0.7,0.5,0.9,0.9c0.2,0.4,0.3,0.8,0.3,1.2c0,0.4-0.1,0.8-0.3,1.2c-0.2,0.4-0.5,0.7-0.9,0.9
			c-0.4,0.2-0.8,0.3-1.2,0.3c-0.4,0-0.8-0.1-1.2-0.3c-0.4-0.2-0.7-0.5-0.9-0.9c-0.2-0.4-0.3-0.8-0.3-1.2c0-0.4,0.1-0.8,0.3-1.2
			c0.2-0.4,0.5-0.7,0.9-0.9C308.1,236.5,308.5,236.4,308.9,236.4z M315,236.4c0.4,0,0.8,0.1,1.2,0.3c0.4,0.2,0.7,0.5,0.9,0.9
			c0.2,0.4,0.3,0.8,0.3,1.2c0,0.4-0.1,0.8-0.3,1.2c-0.2,0.4-0.5,0.7-0.9,0.9c-0.4,0.2-0.8,0.3-1.2,0.3c-0.4,0-0.8-0.1-1.2-0.3
			c-0.4-0.2-0.7-0.5-0.9-0.9c-0.2-0.4-0.3-0.8-0.3-1.2c0-0.4,0.1-0.8,0.3-1.2c0.2-0.4,0.5-0.7,0.9-0.9
			C314.2,236.5,314.6,236.4,315,236.4z"/>
	</g>
	<g>
		<path class="st0" d="M357.6,270.4L357.6,270.4l-2.4,0l-10.9,0.1c-1.4,2.8-3.1,4.7-5,5.8c-1.9,1.1-4,1.6-6.1,1.6
			c-2.1,0-4.1-0.5-6.1-1.5c-2-1-3.7-2.9-5.1-5.7l-5.9,0l0-2.5l5.1,0l-0.3-2.5c0-2.1,0.5-4.1,1.6-6.1c1.1-2,2.6-3.5,4.5-4.6
			c1.9-1.1,3.9-1.6,6-1.6c2.1,0,4.1,0.5,6.1,1.5c2,1,3.5,2.5,4.6,4.5c1.1,2,1.7,4,1.7,6.1l-0.2,2.4l10-0.1l-0.3-41.6l2.5,0l0.3,41.6
			h0L357.6,270.4z M328.1,257.2c-1.6,0.9-2.7,2.1-3.6,3.7c-0.9,1.6-1.3,3.2-1.3,4.9c0,1.7,0.4,3.3,1.3,4.8c0.9,1.5,2.1,2.7,3.6,3.6
			c1.6,0.8,3.2,1.2,4.9,1.2c1.7,0,3.3-0.4,4.8-1.3c1.5-0.9,2.8-2.1,3.6-3.6c0.9-1.6,1.3-3.2,1.3-4.9c0-1.7-0.5-3.3-1.4-4.9
			c-0.9-1.6-2.1-2.8-3.7-3.6c-1.6-0.8-3.2-1.2-4.9-1.2C331.3,255.9,329.7,256.3,328.1,257.2z"/>
	</g>
	<g>
		<path class="st0" d="M367.2,226.2l0.4,44l-2.6,0l-0.4-44L367.2,226.2z"/>
	</g>
	<g>
		<path class="st0" d="M52.9,266c-0.5,1.8-1.3,3.3-2.4,4.4c-1.1,1.1-2.4,1.9-4.1,2.4c-1.7,0.5-3.7,0.7-6,0.8c-2.3,0-4.3-0.2-5.9-0.7
			c-1.7-0.5-3-1.2-4.1-2.3c-1.1-1.1-1.9-2.6-2.4-4.4c-0.5-1.8-0.8-4.1-0.8-6.8L27,239.6l2.4,0l0.2,19.7c0,2.2,0.2,4.1,0.5,5.7
			c0.3,1.5,0.9,2.8,1.8,3.8c0.8,1,1.9,1.6,3.3,2c1.4,0.4,3.1,0.6,5.2,0.6c2.2,0,3.9-0.2,5.4-0.7c1.4-0.4,2.5-1.1,3.3-2.1
			c0.8-1,1.4-2.2,1.7-3.8c0.3-1.5,0.4-3.4,0.4-5.7L51,239.4l2.4,0l0.2,19.8C53.7,261.9,53.4,264.2,52.9,266z"/>
	</g>
	<g>
		<path class="st0" d="M82.3,272.6L82.1,255c0-0.9-0.1-1.7-0.3-2.4c-0.2-0.7-0.6-1.4-1.1-2c-0.5-0.5-1.2-0.9-2-1.2
			c-0.8-0.3-2-0.5-3.4-0.5c-1.7,0-3.6,0.4-5.7,1.2c-0.5,0.2-1,0.4-1.5,0.7c-0.5,0.3-1.1,0.6-1.7,0.9c-0.6,0.4-1.1,0.7-1.6,1.1
			c-0.5,0.4-1,0.7-1.4,1l0.2,19l-2.4,0L61,247.3l2.4,0c0,0.1,0,0.3,0,0.7c0,0.4,0,0.9,0,1.6c0,0.6,0,1.2-0.1,1.6
			c1.9-1.3,3.8-2.4,5.6-3.2c1.1-0.5,2.2-0.8,3.3-1c1-0.2,2.1-0.3,3.2-0.3c3.1,0,5.4,0.8,7,2.4c0.7,0.7,1.2,1.5,1.6,2.5
			c0.3,0.9,0.5,2.1,0.5,3.4l0.1,17.7L82.3,272.6z"/>
	</g>
	<g>
		<path class="st0" d="M91.8,243.3l0-5.1l2.3,0l0,5.1L91.8,243.3z M92.1,272.5L91.8,247l2.3,0l0.2,25.5L92.1,272.5z"/>
	</g>
	<g>
		<path class="st0" d="M125.3,271.8c-1.8,0.7-3.7,1-5.8,1c-1.2,0-2.4-0.1-3.8-0.3c-1.4-0.2-2.7-0.6-3.8-1.3c-1.2-0.7-2.2-1.6-3-2.8
			c-0.8-1.2-1.2-2.9-1.2-4.9l-0.1-14.4l-7.5,0.1l0-2.3l7.5-0.1l-0.1-7.3l2.4,0l0.1,7.3l16.8-0.1l0,2.3l-16.8,0.1l0.1,14.4
			c0,1.5,0.3,2.7,0.9,3.7c0.6,0.9,1.3,1.6,2.2,2.1c0.9,0.5,1.9,0.9,3.1,1c1.1,0.2,2.3,0.3,3.4,0.3c1.8,0,3.5-0.3,5.1-1
			c1.6-0.6,2.9-1.3,4.1-1.9l1.1,2.1C128.5,270.5,127,271.2,125.3,271.8z"/>
	</g>
	<g>
		<path class="st0" d="M132.5,260c0.1,2,0.5,3.6,1.3,4.9c0.7,1.3,1.7,2.4,2.7,3.2c1.1,0.8,2.3,1.4,3.6,1.7c1.3,0.3,2.5,0.5,3.8,0.5
			c1.3,0,2.6-0.1,4-0.4c1.4-0.2,2.7-0.5,3.9-0.8c1.2-0.3,2.2-0.6,3.1-0.8c0.9-0.3,1.4-0.4,1.6-0.5l0.2,2.1c-1.7,0.5-3.2,1-4.5,1.3
			c-1.3,0.3-2.7,0.6-4.1,0.9c-1.5,0.3-2.8,0.4-4,0.4c-1.8,0-3.6-0.3-5.3-0.8c-1.7-0.6-3.3-1.5-4.6-2.7c-1.2-1.1-2.1-2.5-2.8-4.1
			c-0.7-1.6-1-3.6-1.1-5.8c0-2,0.3-3.8,1-5.5c0.7-1.6,1.7-3,3-4.2c1.2-1.1,2.6-1.9,4.2-2.5c1.6-0.6,3.4-0.9,5.4-1
			c1.8,0,3.5,0.3,5.1,1c1.6,0.7,3,1.7,4.3,3c1.1,1.1,1.9,2.5,2.6,4c0.7,1.6,1,3.5,1,5.8L132.5,260z M153.1,254
			c-0.5-1.1-1.3-2.1-2.2-3c-0.9-0.9-2-1.6-3.2-2.1c-1.2-0.5-2.5-0.7-4-0.7c-1.6,0-3.1,0.3-4.5,0.8c-1.3,0.5-2.5,1.2-3.5,2.1
			c-1,0.9-1.8,1.9-2.3,3c-0.6,1.1-0.9,2.4-1,3.6l21.7-0.2C154,256.3,153.7,255.2,153.1,254z"/>
	</g>
	<g>
		<path class="st0" d="M184.8,271.7c0-0.1,0-0.2,0-0.5c0-0.3,0-0.7,0-1.2c0-0.5,0.1-1,0.1-1.3l-0.3,0.2c-0.5,0.5-1.2,1-2.2,1.6
			c-0.9,0.5-1.9,1-3.2,1.4c-1.2,0.4-2.7,0.6-4.4,0.6c-2.3,0-4.3-0.3-6-1.1c-1.7-0.7-3.2-1.7-4.3-2.9c-1.2-1.2-2-2.6-2.6-4.2
			c-0.6-1.6-0.9-3.2-0.9-4.9c0-1.9,0.3-3.7,0.9-5.3c0.6-1.6,1.5-3,2.7-4.2c1.2-1.2,2.6-2.1,4.3-2.8c1.7-0.7,3.6-1,5.6-1.1
			c1.8,0,3.6,0.2,5.3,0.8c1.7,0.5,3.3,1.4,4.7,2.6l-0.1-11.8l2.4,0l0.3,34.3L184.8,271.7z M184.6,252.1c-1.5-1.6-3.1-2.6-4.8-3.2
			c-1.6-0.6-3.4-0.9-5.2-0.9c-1.8,0-3.4,0.3-4.8,0.9c-1.4,0.6-2.6,1.4-3.6,2.4c-1,1-1.7,2.2-2.2,3.6c-0.5,1.3-0.7,2.8-0.7,4.3
			c0,1.5,0.3,2.8,0.8,4.2c0.5,1.3,1.2,2.5,2.2,3.5c1,1,2.2,1.8,3.6,2.4c1.4,0.6,3.1,0.9,4.9,0.9h0c1.4,0,2.6-0.2,3.7-0.5
			c1-0.3,2-0.7,2.8-1.2c0.4-0.2,0.8-0.5,1.1-0.7c0.3-0.2,0.6-0.5,0.9-0.7c0.2-0.2,0.5-0.4,0.7-0.6c0.2-0.2,0.4-0.4,0.6-0.5
			L184.6,252.1z"/>
	</g>
</g>
</svg>
