<?xml version="1.0" encoding="utf-8"?>
<!-- Generator: Adobe Illustrator 26.0.1, SVG Export Plug-In . SVG Version: 6.00 Build 0)  -->
<svg version="1.1" id="Layer_1" xmlns="http://www.w3.org/2000/svg" xmlns:xlink="http://www.w3.org/1999/xlink" x="0px" y="0px"
	 viewBox="0 0 500 275.1" style="enable-background:new 0 0 500 275.1;" xml:space="preserve">
<style type="text/css">
	.st0{fill:#FF5C00;}
	.st1{fill:#2B85BB;}
	.st2{fill:#026A3A;}
</style>
<g>
	<g>
		<polygon class="st0" points="229.9,40.9 230,14.4 306.6,39.5 306.6,0 175.7,0 175.7,26 		"/>
		<path class="st1" d="M300.3,106.6c-7.6-4.4-16.1-8.5-28-8.7c-11.8-0.2-20.7,4.5-28.6,8.6c-7.3,3.8-13.6,7.2-22.4,7
			c-8.8-0.2-15-3.7-22.1-7.8c-6.6-3.8-14-8-23.5-9.3v34.5h130.9v-20.8C304.5,109.1,302.4,107.9,300.3,106.6"/>
		<path class="st2" d="M199.1,89.4c7.2,4.1,13.3,7.7,22.1,7.8c8.8,0.2,15.1-3.2,22.4-7c7.9-4.1,16.8-8.8,28.6-8.6
			c11.9,0.2,20.5,4.2,28,8.7c2.2,1.3,4.2,2.5,6.3,3.6V55.9l-61.8-19.2L244.7,62l-69-19.9v38C185.2,81.4,192.5,85.6,199.1,89.4"/>
	</g>
	<g>
		<path d="M13.9,172.7c2,0,3.6-1.6,3.6-3.6c0-1.9-1.6-3.5-3.6-3.5c-1.9,0-3.5,1.6-3.5,3.5C10.4,171.1,12,172.7,13.9,172.7z"/>
		<path d="M5.7,172.7c2,0,3.6-1.6,3.6-3.6c0-1.9-1.6-3.5-3.6-3.5c-1.9,0-3.5,1.6-3.5,3.5C2.2,171.1,3.8,172.7,5.7,172.7z"/>
		<path d="M35.5,185.8v7.9h-5.1H30h-7.3h-0.3h-2.6v-17.3H9.3c-5.6,0-9.3,3.9-9.3,9.4v5.5c0,5.4,3.6,9.5,9.5,9.5l3.4-4.3v4.3h9.6h0.3
			H30h0.4H46c5.6,0,9.4-3.8,9.4-9.3v-15H44.9C38.3,176.4,35.5,181.3,35.5,185.8z M12.8,193.7H9.2c-1.5,0-2.2-1-2.2-2.3v-5.5
			c0-1.7,1-2.5,2.2-2.5h3.6V193.7z M48.3,191c0,1.9-0.9,2.6-2.3,2.6h-3.4v-7.8c0-1.3,0.6-2.5,2.2-2.5h3.6V191z"/>
		<path d="M41.2,172.7c2,0,3.6-1.6,3.6-3.6c0-1.9-1.6-3.5-3.6-3.5c-1.9,0-3.5,1.6-3.5,3.5C37.7,171.1,39.3,172.7,41.2,172.7z"/>
		<path d="M49.4,172.7c2,0,3.6-1.6,3.6-3.6c0-1.9-1.6-3.5-3.6-3.5c-1.9,0-3.5,1.6-3.5,3.5C45.9,171.1,47.5,172.7,49.4,172.7z"/>
		<path d="M136.6,191.3c0,1.5-1,2.4-2.3,2.4h-2.9H131h-7.2h-0.4h-7.2h-0.4h-2.6v-9.1c0-4.8-3.7-8.6-8.6-8.6c-1.2,0-2.3,0.2-3.4,0.6
			l-9.6,3.4v-13.6h-7v27.2h-5.1h-0.4H72h-0.3h-0.3c-1.4,0-2.3-0.7-2.3-2.3v-24.8h-7v25.1c0,4.8,3.4,9.1,8.6,9.1h1H72h7.3h0.4h5.1
			v5.7l7-3.7v-2.1h24.1h0.4h7.2h0.4h7.2h0.4h2.8c6.2,0,9.4-4.5,9.4-9.3v-24.9h-7V191.3z M106.4,193.7H91.8v-4.3
			c0-1.6,0.5-2.1,1.9-2.6l9-3.2c0.6-0.2,1.2-0.4,1.8-0.4c1.1,0,1.8,0.9,1.8,2.2V193.7z"/>
		<polygon points="150.5,204.4 157.4,200.7 157.4,166.5 150.5,166.5 		"/>
		<path d="M176.5,185.8v5.6c0,5,3.4,9.3,9.5,9.3h3.4v0.5c0,4.4-5,6.2-11.1,6.1l4.5,6.2c10.8-0.4,13.6-5.7,13.6-12.6v-24.6h-10.3
			C179.9,176.4,176.5,180.6,176.5,185.8z M189.3,193.7h-3.5c-1.6,0-2.3-1.1-2.3-2.4v-5.6c0-1.2,0.7-2.3,2.2-2.3h3.6V193.7z"/>
		<path d="M215.3,185.8v5.4c0,6.1,3.9,9.7,9.9,9.7c5.1,0,9.9-2.9,9.9-9.7v-14.7h-10.5C219,176.4,215.3,180.4,215.3,185.8z
			 M228.2,191.3c0,1.7-1.2,2.5-2.9,2.5c-1.7,0-2.9-0.7-2.9-2.5v-5.6c0-1.4,1-2.3,2.3-2.3h3.6V191.3z"/>
		<path d="M264.4,206.4c-2,0-3.6,1.7-3.6,3.6c0,1.9,1.6,3.5,3.6,3.5c2,0,3.5-1.6,3.5-3.5C267.9,208.1,266.4,206.4,264.4,206.4z"/>
		<path d="M256.2,206.4c-2,0-3.6,1.7-3.6,3.6c0,1.9,1.6,3.5,3.6,3.5c2,0,3.5-1.6,3.5-3.5C259.7,208.1,258.2,206.4,256.2,206.4z"/>
		<path d="M349.3,191.3c0,1.5-1,2.4-2.3,2.4h-2.9h-0.4h-2.6v-27.2h-7v27.2H329h-0.4h-7.2h-0.4h-2.6v-8.2c0-5.8-4.1-9.5-9.9-9.5
			c-5.1,0-9.9,2.8-9.9,9.5v8.2h-5.2h-0.4H286h-0.4h-7.2h-0.4h-7.3h-0.3h-2.6v-17.3h-7v17.3h-9h-0.3h-0.3c-1.4,0-2.3-0.7-2.3-2.3
			v-24.8h-7v25.1c0,4.8,3.4,9.1,8.6,9.1h1h0.3h18.6h0.3h7.3h0.4h7.2h0.4h7.2h0.4h5.6c1.4,4.3,5.4,6.2,9.5,6.2c4,0,8.1-1.8,9.4-6.2
			h3.1h0.4h7.2h0.4h14.7h0.4h2.8c6.2,0,9.4-4.5,9.4-9.3v-24.9h-7V191.3z M311.6,197.4c0,1.7-1.2,2.5-2.9,2.5c-1.5,0-2.9-0.6-2.9-2.5
			v-11.9c0-1.8,1.2-2.5,2.9-2.5c1.7,0,2.9,0.7,2.9,2.5V197.4z"/>
		<path d="M495.9,172.7c2,0,3.5-1.6,3.5-3.6c0-1.9-1.5-3.5-3.5-3.5c-2,0-3.6,1.6-3.6,3.5C492.3,171.1,493.9,172.7,495.9,172.7z"/>
		<path d="M492.4,191.3c0,2-1.3,2.4-2.4,2.4h-6.5H483h-2.6v-17.3h-7v17.3h-5.8v-17.3h-7v17.3h-5.9v-17.3h-7v17.3h-13.4H434h-7.2
			h-0.4h-2.6v-8.2c0-5.8-4.1-9.5-9.9-9.5c-5.1,0-9.9,2.8-9.9,9.5v8.2h-5.2h-0.4h-7.2H391h-7.3h-0.3h-0.3c-1.4,0-2.3-0.7-2.3-2.3
			v-24.8h-7v25.1c0,4.8,3.4,9.1,8.6,9.1h1h0.3h7.3h0.4h7.2h0.4h5.6c1.4,4.3,5.4,6.2,9.5,6.2c4,0,8.1-1.8,9.4-6.2h3.1h0.4h7.2h0.4
			H483h0.4h6.7c5.4,0,9.3-3.8,9.3-9.3v-15h-7V191.3z M416.9,197.4c0,1.7-1.2,2.5-2.9,2.5c-1.5,0-2.9-0.6-2.9-2.5v-11.9
			c0-1.8,1.2-2.5,2.9-2.5c1.7,0,2.9,0.7,2.9,2.5V197.4z"/>
	</g>
	<g>
		<path d="M28,265.2h-6.9L7.5,244.4v20.9H0.2V231h6.9l13.6,20.9V231H28V265.2z"/>
		<path d="M55.2,254.5H40.6c-0.1,2.8,0.4,6,6.2,6c4,0,6.5-0.7,8.1-1.4l-1.1,5.4c-1.7,0.5-4.2,1-8.4,1c-9.8,0-11.9-5.4-11.9-12.2
			c0-5.7,1.9-12.9,11.1-12.9c8.3,0,10.8,5.1,10.8,10.9C55.6,252.2,55.4,253.4,55.2,254.5z M48.5,250.4c0.1-1.7,0.1-5.4-3.7-5.4
			c-3,0-4.1,2.3-4.1,5.4H48.5z"/>
		<path d="M67.7,265.6c-4.5,0-7.1-0.5-8.8-1.1l1.2-5.2c1.3,0.7,4.5,1.5,6.3,1.5c2.1,0,4.5-0.4,4.5-2.3c0-4.5-11.1-2.8-11.1-11.2
			c0-5.2,5.2-6.7,9.9-6.7c3.6,0,7,1,7.3,1.2l-1.1,5.2c-0.6-0.4-3.3-1.6-5.6-1.6c-2.6,0-3.7,0.5-3.7,1.9c0,3.6,11.1,2.4,11.1,10.9
			C77.6,262.8,73.2,265.6,67.7,265.6z"/>
		<path d="M122.1,264.7c-1.5,0.8-3.7,1.1-5.6,1.1c-1.4,0-4.8-0.6-4.8-4.5v-11.1c0-3.2-0.4-3.7-2.4-3.7c-2,0-4,1.2-5.4,2.5v16.4H97
			v-15.2c0-3.2-0.4-3.7-2.5-3.7c-1.8,0-4.6,1.8-5.4,2.9v16.1h-6.9v-24.3h6.9v2.7c1-1.2,4-3.1,7.1-3.1c3.4,0,5.8,0.7,7,3.6
			c1.8-1.8,4.5-3.6,7.8-3.6c4.7,0,7.5,1,7.5,7.7v11.4c0,0.9,0.4,1.2,1.5,1.2c0.4,0,0.8-0.1,1.4-0.2L122.1,264.7z"/>
		<path d="M148.7,264.7c-1.6,0.8-3.7,1.1-5.6,1.1c-3.1,0-4.1-1.8-4.6-3.2c-1.8,2.1-3.6,3.1-6.8,3.1c-5.5,0-7.5-3-7.5-7.1
			c0-6.4,5.1-8.5,10.9-8.5c0.9,0,2.7,0.1,3.3,0.2v-1.1c0-3-1.8-3.4-5.1-3.4c-3.1,0-5.6,0.7-7.4,1.3l1.1-5.3c2.3-0.8,4.9-1.2,7.6-1.2
			c6.9,0,10.6,1.8,10.6,9.1v10c0,0.8,0.4,1.2,1.4,1.2c0.4,0,0.8-0.1,1.4-0.2L148.7,264.7z M138.3,254.3c-0.9-0.1-2-0.2-2.9-0.2
			c-3.7,0-4.5,2.1-4.5,3.8c0,2.2,1.8,2.9,3.3,2.9c2.1,0,4.1-0.9,4.1-3.7V254.3z"/>
		<path d="M202.7,231l-9.7,34.2h-6.8l-5.9-21.8l-5.8,21.8h-6.9L158,231h7.9l5.5,21.9l5.4-21.9h7.1l5.4,21.9l5.4-21.9H202.7z"/>
		<path d="M228,264.7c-1.6,0.8-3.7,1.1-5.6,1.1c-3.2,0-4.1-1.8-4.6-3.2c-1.8,2.1-3.6,3.1-6.8,3.1c-5.5,0-7.5-3-7.5-7.1
			c0-6.4,5.1-8.5,10.9-8.5c0.9,0,2.7,0.1,3.3,0.2v-1.1c0-3-1.8-3.4-5.1-3.4c-3.1,0-5.6,0.7-7.4,1.3l1.1-5.3c2.3-0.8,4.9-1.2,7.6-1.2
			c6.9,0,10.6,1.8,10.6,9.1v10c0,0.8,0.4,1.2,1.4,1.2c0.4,0,0.8-0.1,1.4-0.2L228,264.7z M217.7,254.3c-0.9-0.1-2-0.2-2.9-0.2
			c-3.7,0-4.5,2.1-4.5,3.8c0,2.2,1.8,2.9,3.3,2.9c2.1,0,4.1-0.9,4.1-3.7V254.3z"/>
		<path d="M245.7,264.7c-2.1,0.6-3.8,1-6.5,1c-2.7,0-6.2-1-6.2-6.6v-13.3h-3.8l1-4.8h2.8v-5.7l6.9-2.3v8.1h5.3v4.8h-5.3v11.8
			c0,2.3,0.5,3.1,2.2,3.1c0.9,0,1.9-0.2,2.7-0.6L245.7,264.7z"/>
		<path d="M270,254.5h-14.6c-0.1,2.8,0.4,6,6.2,6c4,0,6.5-0.7,8.1-1.4l-1.1,5.4c-1.7,0.5-4.3,1-8.4,1c-9.8,0-11.9-5.4-11.9-12.2
			c0-5.7,1.9-12.9,11.1-12.9c8.3,0,10.8,5.1,10.8,10.9C270.4,252.2,270.2,253.4,270,254.5z M263.3,250.4c0.1-1.7,0.1-5.4-3.7-5.4
			c-3,0-4.1,2.3-4.1,5.4H263.3z"/>
		<path d="M289.8,246.9c-0.9-0.5-1.8-0.8-3.4-0.8c-2.2,0-3.7,2.1-4.1,2.8v16.4h-6.9v-24.3h6.9v2.7c1.4-2.2,3.4-3.1,4.9-3.1
			c1.8,0,3,0.4,3.8,1L289.8,246.9z"/>
		<path d="M334.2,265.4c-1.1,0.3-2.4,0.4-3.4,0.4c-2.9,0-4.7-1.8-6.5-3.4c-2,2-5.6,3.4-10.1,3.4c-6.7,0-12.1-2.6-12.1-9.3
			c0-7.7,5.4-10,7.1-10.7c-1.3-1.7-3.1-4.3-3.1-7.6c0-4,2.7-7.7,9-7.7c4.4,0,7.5,1,8.8,1.5l-0.8,5.3c-1.8-0.8-4-1.5-6.6-1.5
			c-1.9,0-3.4,0.7-3.4,2.9c0,3.2,2.9,6.3,10.7,14.3c0.9-1.2,1.8-4,1.8-8.5h9.5l-0.8,5.2h-3.4c-0.1,2.1-1.2,5.9-2.9,7.7
			c1.3,1.2,2.7,2.5,4.6,2.5c0.8,0,1.8-0.1,2.6-0.4L334.2,265.4z M312.3,249.9c-1.3,0.7-3.2,2.2-3.2,5.9c0,3.2,2.3,4.6,5.6,4.6
			c2.5,0,4.6-1.1,5.6-2.2C317.4,255.7,314.9,252.9,312.3,249.9z"/>
		<path d="M370.1,258.9l-1.1,6.4h-20.7V231h21.8l-1.1,6.4h-13.1v7.2h12l-1,6.4h-11v7.9H370.1z"/>
		<path d="M401,264.7c-1.5,0.8-3.6,1.1-5.6,1.1c-1.5,0-4.8-0.6-4.8-4.5v-11.1c0-3.2-0.4-3.7-2.4-3.7c-1.5,0-4.5,1.6-6.1,2.9v16.1
			h-6.9v-24.3h6.9v2.7c2-1.5,4.7-3.1,7.8-3.1c4.7,0,7.5,1,7.5,7.7v11.4c0,0.8,0.4,1.2,1.2,1.2c0.4,0,0.9,0,1.5-0.2L401,264.7z"/>
		<path d="M425.1,254.5h-14.6c-0.1,2.8,0.4,6,6.2,6c4,0,6.5-0.7,8.1-1.4l-1.1,5.4c-1.7,0.5-4.3,1-8.4,1c-9.8,0-11.9-5.4-11.9-12.2
			c0-5.7,1.9-12.9,11.1-12.9c8.3,0,10.8,5.1,10.8,10.9C425.5,252.2,425.3,253.4,425.1,254.5z M418.4,250.4c0.1-1.7,0.1-5.4-3.7-5.4
			c-3,0-4.1,2.3-4.1,5.4H418.4z"/>
		<path d="M444.9,246.9c-0.9-0.5-1.8-0.8-3.4-0.8c-2.2,0-3.7,2.1-4.1,2.8v16.4h-6.9v-24.3h6.9v2.7c1.4-2.2,3.4-3.1,4.9-3.1
			c1.8,0,3,0.4,3.8,1L444.9,246.9z"/>
		<path d="M471.3,260.6c0,13.3-5.6,14.6-12.8,14.6c-3.7,0-8.1-0.9-10.4-1.8l1.3-5.3c2.2,0.9,5.6,1.8,8.7,1.8c2.6,0,6.3-0.3,6.3-5.3
			v-2.1c-1.8,1.3-3.4,2.4-7.6,2.4c-5.1,0-8.9-4-8.9-12.5c0-7.7,4.4-11.9,11.5-11.9c5.1,0,8.6,0.7,11.9,1.4V260.6z M464.5,245.7
			c-1-0.2-2.7-0.5-4.2-0.5c-2.5,0-5.3,0.7-5.3,7c0,5.7,1.5,7.3,4.2,7.3c4,0,5.2-2,5.2-5.9V245.7z"/>
		<path d="M500,240.9l-9.6,25.2c-2.8,7.3-5.1,9-8.9,9c-3.5,0-5.7-0.8-7.4-1.8l1.2-5.1c1.3,0.8,2.9,1.5,4.9,1.5c2,0,3.2-0.1,4.5-4.7
			l-9.4-24.3h7.4l5.1,16.2l4.8-16.2H500z"/>
	</g>
</g>
</svg>
