<?xml version="1.0" encoding="utf-8"?>
<!-- Generator: Adobe Illustrator 26.0.1, SVG Export Plug-In . SVG Version: 6.00 Build 0)  -->
<svg version="1.1" id="Layer_1" xmlns="http://www.w3.org/2000/svg" xmlns:xlink="http://www.w3.org/1999/xlink" x="0px" y="0px"
	 viewBox="0 0 500 159.3" style="enable-background:new 0 0 500 159.3;" xml:space="preserve">
<style type="text/css">
	.st0{fill:#515051;}
	.st1{fill:#F75810;}
	.st2{fill:#515759;}
	.st3{fill:#FFFFFF;}
</style>
<g>
	<g>
		<g>
			<path class="st0" d="M42.5,127.4h4.8l0,1.1l0,2.2c0,2.3-0.2,4.3-0.5,6.1l7.5,6.2l-2.6,3.4l-6.3-5.2c-1.8,3.8-6.5,5.7-14.3,5.7
				c-7.5,0-12.4-0.8-14.5-2.5c-2.2-1.7-3.3-5.4-3.3-11.1c0-3.8,0.5-6.4,1.5-7.9c1-1.5,3-2.6,5.9-3.2c0.3-0.1,0.7-0.2,1.3-0.3
				c-2.6-2.2-3.9-4.7-3.9-7.5c0-4,0.9-6.7,2.7-8.2c1.8-1.4,5.1-2.2,10-2.2c4.8,0,8.1,0.7,9.8,2.1c1.8,1.4,2.6,4.1,2.6,8l0,2.7h-4.7
				V115c0-3.2-0.4-5.2-1.3-6c-0.9-0.8-3.1-1.2-6.6-1.2c-3.2,0-5.3,0.3-6.4,1c-1.1,0.7-1.6,2.1-1.6,4.2c0,2.4,0.9,4.3,2.8,5.7
				l1.1,0.9l16.1,13.4v-0.9v-1.8v-2.2V127.4z M24.9,124.3c-3.2,0.7-5.2,1.5-6,2.5c-0.8,1-1.1,3.1-1.1,6.4c0,4.4,0.6,7,1.9,8
				c1.2,1,4.7,1.5,10.4,1.5c6.8,0,10.7-1.5,11.5-4.6L24.9,124.3z"/>
		</g>
		<g>
			<path class="st0" d="M74.4,146.3v-42.7h17.9H94c4.8,0,8.1,0.9,9.8,2.8c1.7,1.9,2.6,5.3,2.6,10.4c0,4.9-0.9,8.2-2.7,10
				c-1.8,1.8-5.3,2.7-10.3,2.7l-1.9,0H79.3v16.9H74.4z M79.3,125.4h11.4c4.8,0,7.8-0.5,9.2-1.5c1.3-1,2-3.2,2-6.8
				c0-4.1-0.5-6.8-1.4-7.9c-0.9-1.1-3.1-1.6-6.4-1.6l-1.8,0h-13V125.4z"/>
		</g>
		<g>
			<path class="st0" d="M116.7,124.7h-4.3c0-3.4,0.8-5.8,2.4-6.9c1.6-1.2,4.7-1.8,9.2-1.8c5,0,8.4,0.7,10.1,2.2
				c1.8,1.5,2.6,4.2,2.6,8.3v19.8h-4.4l0.3-3.2l-0.1,0c-1.7,2.5-5.1,3.7-10.2,3.7c-7.6,0-11.3-3-11.3-9.1c0-3.6,0.9-6.1,2.5-7.5
				c1.7-1.4,4.8-2.1,9.2-2.1c5.3,0,8.4,1,9.5,3.1l0.1,0v-3.6c0-3.4-0.5-5.5-1.4-6.5c-0.9-1-3-1.5-6.2-1.5c-5.4,0-8.1,1.5-8.1,4.4
				C116.6,124,116.6,124.3,116.7,124.7z M123.7,131.5c-3.4,0-5.6,0.4-6.6,1.1c-1,0.7-1.5,2.2-1.5,4.6c0,2.4,0.5,4,1.5,4.8
				c1,0.8,3,1.2,6.1,1.2c6.2,0,9.3-1.9,9.3-5.6c0-2.4-0.6-3.9-1.8-4.8C129.5,131.9,127.2,131.5,123.7,131.5z"/>
		</g>
		<g>
			<path class="st0" d="M145.2,116.4h4.4l-0.4,3.4l0.1,0.1c1.7-2.9,4.6-4.3,8.5-4.3c5.5,0,8.2,2.9,8.2,8.6l0,2.1h-4.3l0.1-0.8
				c0-0.8,0.1-1.3,0.1-1.6c0-3.1-1.7-4.7-5-4.7c-4.9,0-7.3,3-7.3,9.1v17.9h-4.4V116.4z"/>
		</g>
		<g>
			<path class="st0" d="M186.2,116.4v3.6h-11.5v18.3c0,3.2,1.4,4.9,4.2,4.9c2.8,0,4.2-1.4,4.2-4.4v-1.5l0.1-1.7h4.1l0,2.2
				c0,5.9-2.8,8.8-8.4,8.8c-5.8,0-8.7-2.5-8.7-7.4v-1.1V120h-4.1v-3.6h4.1v-7.3h4.4v7.3H186.2z"/>
		</g>
		<g>
			<path class="st0" d="M191.2,116.4h4.2l-0.1,4.1l0.1,0.1c1.3-3.1,4.7-4.6,10-4.6c4.3,0,7.2,0.7,8.7,2.2c1.5,1.5,2.3,4.4,2.3,8.6
				v19.4H212v-19.1v-1.1c0-2.6-0.5-4.3-1.5-5.2c-1-0.9-2.9-1.3-5.7-1.3c-6.2,0-9.3,2.9-9.3,8.8v18h-4.4V116.4z"/>
		</g>
		<g>
			<path class="st0" d="M245.1,137.2h4.5l0.1,1.1c0,3.1-0.9,5.3-2.8,6.6c-1.9,1.2-5.2,1.9-9.9,1.9c-5.5,0-9.1-1-10.8-3
				c-1.7-2-2.6-6.2-2.6-12.7c0-6,0.9-10,2.6-12c1.7-2,5.1-3.1,10.2-3.1c5.5,0,9.1,0.9,10.8,2.7c1.7,1.8,2.6,5.5,2.6,11.2v2.3h-21.5
				c0,4.7,0.5,7.7,1.5,9c1,1.3,3.4,1.9,7.1,1.9c3.5,0,5.8-0.3,6.9-0.9c1.1-0.6,1.6-2,1.6-4V137.2z M245.1,128.7l0-1.4
				c0-3.2-0.5-5.3-1.6-6.3c-1.1-1-3.4-1.5-6.9-1.5c-3.5,0-5.8,0.6-6.9,1.7c-1,1.1-1.6,3.6-1.6,7.5H245.1z"/>
		</g>
		<g>
			<path class="st0" d="M256.9,116.4h4.4l-0.4,3.4l0.1,0.1c1.7-2.9,4.6-4.3,8.5-4.3c5.5,0,8.2,2.9,8.2,8.6l0,2.1h-4.3l0.1-0.8
				c0.1-0.8,0.1-1.3,0.1-1.6c0-3.1-1.6-4.7-5-4.7c-4.9,0-7.3,3-7.3,9.1v17.9h-4.4V116.4z"/>
		</g>
		<g>
			<path class="st0" d="M305.3,124.1h-4.4c0-2.1-0.4-3.3-1.3-3.8c-0.9-0.5-3-0.7-6.5-0.7c-3.3,0-5.3,0.3-6.2,0.8
				c-0.9,0.5-1.3,1.8-1.3,3.8c0,3.1,1.5,4.7,4.4,4.8l3.5,0.2l4.5,0.2c5.4,0.3,8.1,3.1,8.1,8.5c0,3.4-0.9,5.7-2.7,6.9
				c-1.8,1.3-5.1,1.9-9.9,1.9c-4.9,0-8.3-0.6-10.2-1.8c-1.9-1.2-2.8-3.4-2.8-6.5l0-1.6h4.5l0,1.4c0,2,0.5,3.3,1.5,4c1,0.7,3,1,5.9,1
				c3.6,0,6-0.3,7.2-1c1.1-0.7,1.7-2.1,1.7-4.3c0-3.2-1.4-4.7-4.3-4.7c-6.7,0-11.1-0.6-13.2-1.7c-2.1-1.1-3.1-3.5-3.1-7
				c0-3.4,0.8-5.6,2.5-6.7c1.7-1.1,5-1.7,9.9-1.7c7.9,0,11.9,2.4,11.9,7.1L305.3,124.1z"/>
		</g>
	</g>
	<g>
		<g>
			<g>
				<path class="st1" d="M454.4,0c-25.1,0-66.2,0-91.3,0c-12.5,21.9-33.1,57.7-45.7,79.6c12.6,21.8,33.2,57.8,45.7,79.7
					c25,0,66.2,0,91.3,0c12.5-21.9,33.1-57.8,45.6-79.7C487.5,57.7,466.9,21.9,454.4,0z"/>
			</g>
		</g>
		<g>
			<g>
				<path class="st2" d="M451.6,3.2h-86.7h-0.4l-0.2,0.4l-31.4,54.8l-12,20.9l-0.2,0.4c0,0,0.2,0.4,0.2,0.4
					c12.8,22.3,31.9,55.5,43.4,75.7l0.2,0.4h0.4h86.7h0.4l0.2-0.4l23-40.1l20.4-35.6l0.2-0.4c0,0-0.2-0.4-0.2-0.4l-26.3-45.8
					L452.2,3.5L452,3.2H451.6z M494.3,79.2l-20.4,35.6l-23,40.1l0.6-0.4h-86.7l0.6,0.4c-11.5-20.2-30.6-53.4-43.4-75.7v0.7L334,59
					l31.4-54.8l-0.6,0.4h86.7L451,4.2l17.1,29.9l26.2,45.8L494.3,79.2z"/>
			</g>
		</g>
		<g>
			<g>
				<path class="st2" d="M449.7,6.9h-82.5h-0.4l-0.2,0.4l-30,52.3l-11.3,19.7l-0.2,0.4l0.2,0.4c12.2,21.2,30.4,52.8,41.3,72l0.2,0.4
					h0.4h82.5h0.4l0.2-0.4l21.2-37l20.1-35l0.2-0.4c0,0-0.2-0.4-0.2-0.4l-25.4-44.3L450.3,7.2l-0.2-0.4H449.7z M490.3,79.2l-20,35
					l-21.2,37l0.6-0.4h-82.5l0.6,0.4c-11-19.2-29.1-50.8-41.3-72v0.7l11.3-19.7l30-52.3l-0.6,0.4h82.5l-0.6-0.4l15.9,27.7l25.4,44.3
					V79.2z"/>
			</g>
		</g>
		<g>
			<g>
				<path class="st2" d="M447,11.6h-76.4h-0.4L370,12l-27.7,48.2l-10.6,18.5l-0.2,0.4l0.2,0.4C343,99,359.8,128.3,370,146.1l0.2,0.4
					h0.4H447h0.4l0.2-0.4l21-36.7l17.2-30L486,79l-0.2-0.4l-22.9-40L447.6,12l-0.2-0.4H447z M484.6,78.7l-17.2,30l-21,36.7l0.6-0.4
					h-76.4l0.6,0.4c-10.1-17.8-27-47-38.3-66.7v0.7l10.6-18.5l27.7-48.2l-0.6,0.4H447l-0.6-0.4l15.3,26.6l22.9,40V78.7z"/>
			</g>
		</g>
		<g>
			<g>
				<path class="st2" d="M445.3,14.9h-72.7h-0.4l-0.2,0.4L345.2,62l-9.6,16.6l-0.2,0.4l0.2,0.4c11,19.1,27.1,47.1,36.4,63.5l0.2,0.4
					h0.4h72.7h0.4l0.2-0.4l19.2-33.6l17.1-29.8l0.2-0.4c0,0-0.2-0.4-0.2-0.4L460.1,40l-14.2-24.8l-0.2-0.4H445.3z M481,78.7
					l-17.1,29.8l-19.3,33.6l0.6-0.4h-72.7l0.6,0.4c-9.3-16.4-25.4-44.3-36.4-63.5v0.7l9.5-16.6L373.3,16l-0.6,0.4h72.7l-0.6-0.4
					l14.2,24.8L481,79.4V78.7z"/>
			</g>
		</g>
		<g>
			<g>
				<path class="st2" d="M442.2,19.3H375h-0.4l-0.2,0.4l-24.2,42.2l-9.4,16.4l-0.2,0.4l0.2,0.4c10.1,17.5,24.9,43.4,33.6,58.6
					l0.2,0.4h0.4h67.2h0.4l0.2-0.4l18.2-31.9L476.4,79l0.2-0.4c0,0-0.2-0.4-0.2-0.4l-20.2-35.2l-13.4-23.4l-0.2-0.4H442.2z
					 M475.2,78.3l-15.3,26.8L441.6,137l0.6-0.4H375l0.6,0.4c-8.7-15.3-23.6-41.1-33.7-58.6V79l9.4-16.4l24.3-42.3l-0.6,0.4h67.2
					l-0.6-0.4L455,43.8L475.2,79V78.3z"/>
			</g>
		</g>
		<g>
			<g>
				<path class="st2" d="M440.7,22.2h-63.9h-0.4l-0.2,0.4l-23.9,41.6l-8.1,14.1l-0.2,0.4l0.2,0.4l32,55.8l0.2,0.4c0,0,0.4,0,0.4,0
					h63.9h0.4l0.2-0.4l16.9-29.6l15-26.2l0.2-0.4c0,0-0.2-0.4-0.2-0.4l-19.5-34.1l-12.4-21.7l-0.2-0.4H440.7z M472,78.3l-15,26.2
					l-16.9,29.6l0.6-0.4h-63.9l0.6,0.4l-32-55.8V79l8.1-14.1l23.9-41.6l-0.6,0.4h63.9l-0.6-0.4l12.4,21.7L472,79V78.3z"/>
			</g>
		</g>
		<g>
			<g>
				<path class="st3" d="M437.2,27.4c-15.7,0-41.4,0-57,0c-7.8,14.1-20.7,37.2-28.6,51.4c7.9,14.1,20.8,37.3,28.6,51.4
					c15.6,0,41.4,0,57,0c7.8-14.1,20.7-37.3,28.5-51.4C458,64.6,445.1,41.5,437.2,27.4z"/>
			</g>
		</g>
	</g>
	<g>
		<g>
			<path class="st0" d="M51.5,74.9H39L22.5,35.8l-9,39.1H0l13.1-56.5h16.3l14.2,32.7l7.5-32.7h13.5L51.5,74.9z"/>
			<path class="st0" d="M89.1,76.1c-7.3,0-12.9-1.6-16.8-4.8c-4-3.2-5.9-7.7-5.9-13.3c0-3.9,0.6-7.4,1.9-10.7
				c1.3-3.2,3.2-6.1,5.6-8.5c2.3-2.4,5.3-4.3,8.7-5.7c3.5-1.4,7.3-2.1,11.5-2.1c6.4,0,11.2,1.3,14.4,3.9c3.2,2.6,4.8,6.4,4.8,11.4
				c0,1.7-0.2,3.4-0.5,5.1c-0.3,1.6-0.8,3.3-1.4,4.9H79.6c0,0.2,0,0.3,0,0.4c0,0.1,0,0.3,0,0.4c0,2.9,1,5.2,3.1,6.9
				c2.1,1.7,5.3,2.5,9.6,2.5c3,0,5.8-0.5,8.5-1.5c2.7-1,5-2.1,7-3.3h1.5l-2.6,10.9c-2.7,1.2-5.5,2-8.4,2.6
				C95.5,75.8,92.4,76.1,89.1,76.1z M99.7,48.2c0.1-0.5,0.1-0.9,0.2-1.3c0-0.4,0.1-0.8,0.1-1.2c0-2-0.6-3.6-1.9-4.7
				c-1.3-1.1-3.1-1.6-5.5-1.6c-2.9,0-5.3,0.8-7.2,2.3c-1.9,1.5-3.4,3.7-4.4,6.4H99.7z"/>
			<path class="st0" d="M133,76.1c-3.6,0-7.2-0.3-10.6-1c-3.4-0.7-6.1-1.5-7.9-2.4l2.6-11.3h1.3c0.6,0.5,1.3,1,2.1,1.6
				c0.9,0.6,2.1,1.2,3.6,1.9c1.4,0.6,2.9,1.1,4.7,1.5c1.8,0.4,3.7,0.6,5.8,0.6c3.1,0,5.4-0.4,6.9-1.1c1.5-0.7,2.3-1.8,2.3-3.1
				c0-1-0.6-1.8-1.6-2.3c-1.1-0.5-3.4-1.2-6.8-2c-5.8-1.3-9.9-3-12-4.9c-2.2-1.9-3.2-4.3-3.2-7.1c0-4.8,2.2-8.6,6.5-11.4
				c4.3-2.8,10.1-4.2,17.5-4.2c3.2,0,6.4,0.3,9.6,1c3.2,0.6,5.5,1.3,7,2.1l-2.5,10.7H157c-1.8-1.4-4-2.5-6.6-3.4
				c-2.6-0.9-5.2-1.3-7.9-1.3c-2.9,0-5.2,0.4-6.7,1.1c-1.6,0.7-2.3,1.8-2.3,3.3c0,1.1,0.7,2,2,2.6c1.3,0.6,3.5,1.2,6.4,1.8
				c5.4,1.2,9.3,2.6,11.7,4.4c2.4,1.8,3.6,4.3,3.6,7.4c0,4.8-2.2,8.5-6.5,11.3C146.3,74.7,140.4,76.1,133,76.1z"/>
			<path class="st0" d="M239.3,41.8c0,0.8-0.1,1.6-0.2,2.5c-0.1,0.9-0.3,1.9-0.5,2.8l-6.4,27.8h-14l5.1-21.3
				c0.3-1.5,0.6-2.9,0.9-4.2c0.3-1.4,0.4-2.4,0.4-3.2c0-1.5-0.4-2.5-1.2-3.2c-0.8-0.7-2.2-1-4.3-1c-1,0-2.1,0.2-3.3,0.7
				c-1.2,0.5-2.7,1.2-4.5,2.1l-6.9,30.2h-13.9l4.9-21.3c0.3-1.2,0.6-2.6,0.8-4c0.3-1.4,0.4-2.5,0.4-3.3c0-1.5-0.4-2.7-1.2-3.4
				c-0.8-0.7-2.2-1-4.3-1c-1.1,0-2.3,0.3-3.6,0.8c-1.3,0.5-2.7,1.2-4.4,2l-6.9,30.2h-13.7l9.8-42.6h13.7l-1.1,4.7
				c2.8-1.8,5.3-3.3,7.5-4.3c2.2-1,4.7-1.6,7.3-1.6c2.8,0,5.2,0.6,7.1,1.9c1.9,1.3,3.3,3.1,4,5.5c3.4-2.5,6.4-4.3,9.1-5.5
				c2.7-1.2,5.3-1.9,7.7-1.9c3.7,0,6.6,0.9,8.5,2.8C238.3,35.7,239.3,38.3,239.3,41.8z"/>
			<path class="st0" d="M271.6,70.4c-0.9,0.6-1.9,1.2-3.1,2c-1.2,0.8-2.3,1.4-3.4,1.9c-1.4,0.6-2.7,1-4,1.3c-1.2,0.3-3,0.5-5.2,0.5
				c-3.5,0-6.4-1-8.7-3c-2.2-2-3.4-4.6-3.4-7.8c0-3.4,0.8-6.2,2.4-8.6c1.6-2.3,3.9-4.2,7.1-5.6c2.9-1.3,6.4-2.3,10.5-2.9
				c4-0.6,8.4-1,13.1-1.3c0-0.1,0.1-0.4,0.2-0.7c0.1-0.3,0.1-0.7,0.1-1.1c0-1.8-0.8-3-2.5-3.7c-1.7-0.7-4.1-1.1-7.4-1.1
				c-2.2,0-4.7,0.4-7.4,1.1c-2.7,0.7-4.7,1.4-6.1,1.9h-1.2l2-10.1c1.6-0.4,4.1-0.9,7.4-1.4c3.3-0.5,6.7-0.8,10-0.8
				c6.7,0,11.6,0.9,14.7,2.6c3.1,1.7,4.7,4.5,4.7,8.1c0,0.5,0,1.2-0.1,2c-0.1,0.8-0.2,1.5-0.4,2.1l-6.7,29h-13.5L271.6,70.4z
				 M275.2,54.8c-2.4,0.2-4.7,0.4-6.9,0.7c-2.1,0.3-4,0.7-5.5,1.2c-1.6,0.6-2.7,1.3-3.5,2.3c-0.8,1-1.2,2.3-1.2,4
				c0,1.5,0.5,2.5,1.6,3.1c1.1,0.6,2.7,0.9,4.7,0.9c1.4,0,2.8-0.3,4.3-0.9c1.5-0.6,3-1.4,4.3-2.4L275.2,54.8z"/>
		</g>
	</g>
</g>
</svg>
