<?xml version="1.0" encoding="utf-8"?>
<!-- Generator: Adobe Illustrator 26.0.1, SVG Export Plug-In . SVG Version: 6.00 Build 0)  -->
<svg version="1.1" id="Layer_1" xmlns="http://www.w3.org/2000/svg" xmlns:xlink="http://www.w3.org/1999/xlink" x="0px" y="0px"
	 viewBox="0 0 500 239.8" style="enable-background:new 0 0 500 239.8;" xml:space="preserve">
<style type="text/css">
	.st0{fill:#2E58A6;}
	.st1{fill:#FFFFFF;}
</style>
<g>
	<g>
		<rect x="186.1" class="st0" width="127.7" height="126"/>
		<polygon class="st1" points="197.8,11.6 197.8,114.1 209.4,114.1 209.4,23.2 290.4,23.2 290.4,114.1 302.2,114.1 302.2,11.6 		"/>
		<polygon class="st1" points="220.9,114.1 279.8,114.1 279.8,102.5 232.6,102.5 232.6,44.2 279.8,44.2 279.8,32.6 220.9,32.6 		"/>
		<polygon class="st1" points="244.2,90.9 279.8,90.9 279.8,79.2 255.8,79.2 255.8,67.4 279.8,67.4 279.8,55.8 244.2,55.8 		"/>
	</g>
	<g>
		<g>
			<path d="M9.6,193.3c-7,0-9.6-3.2-9.6-8.3c0-4.9,3.1-9.1,9.3-9.1c5.6,0,8.1,3.2,8.1,8.3l0,9.1L9.6,193.3z M6,169.3
				c1.3,0,2.3,1,2.3,2.3c0,1.3-1,2.3-2.3,2.3c-1.4,0-2.3-1.1-2.3-2.3C3.7,170.3,4.7,169.3,6,169.3z M12.9,184.8
				c0-3.6-1.4-5.1-3.8-5.1c-2.7,0-4.3,2-4.3,4.9c0,3.4,1.7,5,5.4,5l2.7,0L12.9,184.8z M11.8,169.3c1.3,0,2.3,1,2.3,2.3
				c0,1.3-1,2.3-2.3,2.3c-1.3,0-2.3-1.1-2.3-2.3C9.5,170.3,10.5,169.3,11.8,169.3z"/>
			<path d="M21.6,189.5l10.6,0c-0.2-5.3-2.8-8.6-8.5-10.1l1.1-4c7.8,2,12,6.5,12,15.4l0,2.4l-15.3,0L21.6,189.5z"/>
			<path d="M41.4,201.9l0.3-3.9c0,0,2.8,0.6,5.6,0.6c3.7,0,6.2-1.4,6.2-4.8l0-0.5l-2.8,0c-7,0-9.6-3.2-9.6-8.3c0-4.7,2.9-9,9.5-9
				c4.3,0,7.5,1.3,7.5,1.3l0,16.2c0,5-3.2,9-11.3,9C44.2,202.3,41.4,201.9,41.4,201.9z M53.5,180.3c0,0-1.4-0.6-3.4-0.6
				c-2.7,0-4.3,2-4.3,4.9c0,3.3,1.6,5,5.4,5l2.3,0L53.5,180.3z"/>
			<path d="M62.8,189.5l10.6,0c-0.2-5.3-2.8-8.6-8.5-10.1l1.1-4c7.4,1.9,11.5,6,12,14l2,0l0,3.7l-17.3,0L62.8,189.5z"/>
			<path d="M77.4,191.4c0-1.1,1.4-1.9,2.2-1.9l12.5,0c0.1-0.9,0.2-1.8,0.2-2.7c0-4.6-1.9-6.9-7-6.9c-1.4,0-2.7,0.1-4,0.4l0-3.7
				c1.4-0.3,2.9-0.4,4.5-0.4c8.1,0,11.3,3.6,11.3,10.5c0,0.9,0,1.9-0.1,2.9l2.3,0l0,3.7l-19.6,0C78.9,193.3,77.4,192.6,77.4,191.4z"
				/>
			<path d="M98.6,189.5l2.9,0l0,3.7l-2.9,0L98.6,189.5z"/>
			<path d="M106.8,190.5c-0.6,1.7-2.1,2.8-5.1,2.8l-0.8,0c-0.7,0-1.4-0.7-1.4-1.9c0-1.1,0.7-1.9,1.4-1.9h0.3c2.2,0,3.6-1.2,3.6-4.9
				c0-4.6,3.1-8.7,9.3-8.7c5.6,0,8.1,3.2,8.1,8.3l0,5.4h2.9l0,3.7l-10.2,0C109.7,193.3,108,192.2,106.8,190.5z M117.6,184.8
				c0-3.6-1.4-5.1-3.8-5.1c-2.7,0-4.3,2-4.3,4.9c0,3.4,1.7,5,5.4,5l2.7,0L117.6,184.8z"/>
			<path d="M124.5,193.3c-0.7,0-2.2-0.7-2.2-1.9c0-1.1,1.4-1.9,2.2-1.9l4.2,0l0-21.6l4.7,0l0,25.3L124.5,193.3z"/>
			<path d="M139.5,167.9l4.7,0l0,25.3l-4.7,0L139.5,167.9z"/>
			<path d="M171.4,193.3c-9.8,0-13.2-4.1-13.2-10.6c0-1.9,0.4-4.2,0.9-5.6l5.1-0.8c-0.8,1.7-1.3,4-1.3,5.9c0,5.1,2.2,7.4,9,7.4
				l4.9,0l0-13.2l4.7,0l0,16.9L171.4,193.3z M167.9,169.3c1.3,0,2.3,1,2.3,2.3c0,1.3-1,2.3-2.3,2.3c-1.4,0-2.3-1.1-2.3-2.3
				C165.6,170.3,166.7,169.3,167.9,169.3z M173.7,169.3c1.3,0,2.3,1,2.3,2.3c0,1.3-1,2.3-2.3,2.3c-1.3,0-2.3-1.1-2.3-2.3
				S172.4,169.3,173.7,169.3z"/>
			<path d="M196.2,186.8l-4.9,0l-5.1-18.5l4.7-0.6L196.2,186.8z M187.7,193.3l0-3.7l11.1,0l0-21.6l4.7,0l0,25.3L187.7,193.3z"/>
			<path d="M208.8,201.9l0.3-3.9c0,0,2.8,0.6,5.6,0.6c3.7,0,6.2-1.4,6.2-4.8v-0.5l-2.8,0c-7,0-9.6-3.2-9.6-8.3c0-4.7,2.9-9,9.5-9
				c4.3,0,7.5,1.3,7.5,1.3l0,16.2c0,5-3.2,9-11.3,9C211.6,202.3,208.8,201.9,208.8,201.9z M220.9,180.3c0,0-1.4-0.6-3.4-0.6
				c-2.7,0-4.3,2-4.3,4.9c0,3.3,1.6,5,5.4,5l2.3,0L220.9,180.3z"/>
			<path d="M231.4,167.9l4.7,0l0,21.6l3.7,0v3.7l-8.4,0L231.4,167.9z"/>
			<path d="M239.4,193.3c-0.7,0-2.2-0.7-2.2-1.9c0-1.1,1.4-1.9,2.2-1.9l2.2,0c1.1,0,2.2,0.2,2.2,0.2c-1.1-1.1-1.7-2.8-1.7-4.9
				c0-5.2,3.7-9,9.2-9c5.1,0,8.3,2.7,8.3,8.4c0,2.1-0.7,4.3-2.1,5.4c0,0,1.5-0.2,2.8-0.2h1.5v3.7L239.4,193.3z M248,169.3
				c1.3,0,2.3,1,2.3,2.3c0,1.3-1,2.3-2.3,2.3c-1.4,0-2.3-1.1-2.3-2.3S246.7,169.3,248,169.3z M254.8,184.5c0-3.2-1.3-4.9-4-4.9
				c-2,0-4,1.4-4,4.8c0,3.4,1.3,5.1,4,5.1C253.1,189.5,254.8,187.9,254.8,184.5z M253.8,169.3c1.3,0,2.3,1,2.3,2.3
				c0,1.3-1,2.3-2.3,2.3c-1.3,0-2.3-1.1-2.3-2.3S252.5,169.3,253.8,169.3z"/>
			<path d="M267.1,190.5c-0.6,1.7-2.1,2.8-5.1,2.8h-0.8c-0.7,0-2.2-0.7-2.2-1.9c0-1.1,1.4-1.9,2.2-1.9h0.3c2.2,0,3.6-1.2,3.6-4.9
				c0-4.6,3.1-8.7,9.3-8.7c5.6,0,8.1,3.2,8.1,8.3l0,5.4l2.9,0v3.7l-10.2,0C270,193.3,268.4,192.2,267.1,190.5z M277.9,184.8
				c0-3.6-1.4-5.1-3.8-5.1c-2.7,0-4.3,2-4.3,4.9c0,3.4,1.7,5,5.4,5l2.7,0V184.8z"/>
			<path d="M282.7,191.4c0-1.1,1.4-1.9,2.2-1.9l4.2,0l0-20.5l4.7,0l0,20.5l3.7,0v3.7l-12.7,0C284.2,193.3,282.7,192.6,282.7,191.4z"
				/>
			<path d="M297,193.3c-0.7,0-2.2-0.7-2.2-1.9c0-1.1,1.4-1.9,2.2-1.9l4.2,0l0-21.6l4.7,0l0,25.3L297,193.3z"/>
			<path d="M320.7,167.9l4.7,0l0,21.6l3.7,0v3.7l-8.4,0L320.7,167.9z"/>
			<path d="M328.6,189.5l4.3,0v3.7l-4.3,0V189.5z"/>
			<path d="M337.6,190.5c-0.6,1.7-1.3,2.8-4.4,2.8l-0.8,0c-0.7,0-2.2-0.7-2.2-1.9c0-1.1,1.4-1.9,2.2-1.9h0.3c2.2,0,2.8-1.2,2.8-4.9
				c0-4.6,3.1-8.7,9.3-8.7c5.6,0,8.1,3.2,8.1,8.3v5.4l2.9,0v3.7l-10.2,0C340.4,193.3,338.8,192.2,337.6,190.5z M348.4,184.8
				c0-3.6-1.4-5.1-3.8-5.1c-2.7,0-4.3,2-4.3,4.9c0,3.4,1.7,5,5.4,5l2.7,0L348.4,184.8z"/>
			<path d="M355.3,189.5l4.3,0v3.7l-4.3,0V189.5z"/>
			<path d="M375.4,190.8c-0.7,1.5-2.6,2.8-5.4,2.8c-2.3,0-4.2-1.1-4.8-2.8c-0.7,1.7-2.2,2.5-4.8,2.5l-1.3,0c-0.7,0-2.2-0.7-2.2-1.9
				c0-1.1,1.4-1.9,2.2-1.9h1.3c2.3,0,3.2-0.9,3.2-4.5l0-6.5l4.7,0l0,6.7c0,3.2,0.4,4.6,2.5,4.6c1.9,0,2.9-1.1,2.9-4.6l0-8.1l4.6,0v9
				c0,2.8,1,3.4,4.3,3.4h1c0.1-1.4,0.2-3.2,0.2-4.3c0-3.6-0.4-6.9-1-9.6l4.6-0.6c0.7,2.9,1.2,6.4,1.2,10c0,1.4,0,3.1-0.1,4.6l3.6,0
				l0,3.7l-9.9,0C378.4,193.3,376.5,192.8,375.4,190.8z"/>
			<path d="M391.5,189.5l4.3,0v3.7l-4.3,0V189.5z"/>
			<path d="M395.4,193.3c-0.7,0-2.2-0.7-2.2-1.9c0-1.1,1.4-1.9,2.2-1.9l3.5,0v-13.2l4.7,0l0,16.9L395.4,193.3z M401.2,169.2
				c1.3,0,2.5,1.1,2.5,2.5c0,1.4-1.2,2.5-2.5,2.5c-1.4,0-2.5-1.2-2.5-2.5C398.7,170.4,399.9,169.2,401.2,169.2z"/>
			<path d="M426.1,193.3c-7,0-9.6-3.2-9.6-8.3c0-4.7,2.9-9,9.5-9c4.3,0,7.5,1.3,7.5,1.3l0,12.4l3.7,0l0,3.7L426.1,193.3z
				 M422.7,169.3c1.3,0,2.3,1,2.3,2.3c0,1.3-1,2.3-2.3,2.3c-1.4,0-2.3-1.1-2.3-2.3S421.4,169.3,422.7,169.3z M429,180.3
				c0,0-1.4-0.6-3.4-0.6c-2.7,0-4.3,2-4.3,4.9c0,3.3,1.6,5,5.4,5l2.3,0V180.3z M428.5,169.3c1.3,0,2.3,1,2.3,2.3
				c0,1.3-1,2.3-2.3,2.3c-1.3,0-2.3-1.1-2.3-2.3S427.2,169.3,428.5,169.3z"/>
			<path d="M436.7,193.3c-0.7,0-2.2-0.7-2.2-1.9c0-1.1,1.4-1.9,2.2-1.9l10.1,0c-0.2-5.6-3.1-8.8-8.8-10.1v-3.5l14.2-8.9v4.7
				l-8.8,5.3c4.8,2.2,8,6.1,8,13.9v2.4L436.7,193.3z"/>
			<path d="M451.9,202l0.4-3.8c0.9,0.3,1.8,0.4,2.9,0.4c2.4,0,3.9-1.2,3.9-5l0-17.3l4.7,0l0,13.2l3.7,0l0,3.7l-3.7,0v0.1
				c0,4.6-1.6,9-8.9,9C453.8,202.4,452.7,202.3,451.9,202z"/>
			<path d="M466.1,189.5l3.6,0l0,3.7l-3.6,0V189.5z"/>
			<path d="M469.1,193.3c-0.7,0-1.4-0.7-1.4-1.9c0-1.1,0.7-1.9,1.4-1.9h1.3c2.3,0,3.2-0.9,3.2-4.5l0-6.5l4.7,0l0,6.7
				c0,3.2,0.4,4.6,2.5,4.6c1.9,0,2.9-1.1,2.9-4.6l0-8.1l4.6,0l0,9c0,2.8,1,3.4,4.3,3.4h1c0.1-1.4,0.2-3.2,0.2-4.3
				c0-3.6-0.4-6.9-1-9.6l4.6-0.6c0.7,2.9,1.2,6.4,1.2,10c0,2.6-0.2,5.8-0.5,8.4l-5.9,0c-3.8,0-5.7-0.5-6.7-2.5
				c-0.7,1.5-2.6,2.8-5.4,2.8c-2.3,0-4.2-1.1-4.8-2.8c-0.7,1.7-2.2,2.5-4.8,2.5H469.1z M482.9,169.4c1.3,0,2.3,1,2.3,2.3
				c0,1.3-1.1,2.3-2.3,2.3c-1.3,0-2.3-1-2.3-2.3C480.6,170.5,481.6,169.4,482.9,169.4z M485.9,164.7c1.3,0,2.3,1,2.3,2.3
				c0,1.3-1,2.3-2.3,2.3c-1.3,0-2.3-1-2.3-2.3C483.6,165.8,484.6,164.7,485.9,164.7z M488.8,169.4c1.3,0,2.3,1,2.3,2.3
				c0,1.3-1,2.3-2.3,2.3c-1.3,0-2.3-1-2.3-2.3C486.5,170.5,487.6,169.4,488.8,169.4z"/>
		</g>
		<g>
			<path d="M15.4,239.4l-7.5-13.3c-0.9-1.8-1.6-3.2-2.1-4.7c0.1,2.1,0.3,8,0.3,11.5v6.6H1.5v-24.2h6.2l7.3,13
				c0.9,1.5,1.7,3.3,2.3,4.8c-0.1-2.4-0.3-8.4-0.3-11.7v-6.1h4.5v24.2H15.4z"/>
			<path d="M28.1,239.4v-24.2h13.1v3.9h-8.5v5.9h8.1v3.8h-8.1v6.5h8.5v4H28.1z"/>
			<path d="M51.5,239.8c-2.1,0-4-0.2-5.6-0.6l0.5-4.5c1.5,0.6,3.3,1,5.3,1c2.2,0,4-0.9,4-3.2c0-4.6-10.2-2.5-10.2-10.5
				c0-4.3,3.3-7.3,9.1-7.3c1.3,0,3,0.2,4.4,0.5l-0.4,4.1c-1.3-0.4-2.7-0.7-4.2-0.7c-2.7,0-4,1.2-4,2.9c0,4.3,10.3,2.7,10.3,10.4
				C60.9,236.5,57.1,239.8,51.5,239.8z"/>
			<path d="M88.7,239.4l-1.8-11.7c-0.3-2.2-0.6-4.4-0.8-6.1h-0.1c-0.3,1.5-0.8,3.5-1.4,5.5l-3.9,12.2h-4.5l-3.7-11.3
				c-0.6-2.1-1.2-4.4-1.6-6.4h-0.1c-0.2,2.1-0.4,4.3-0.6,6.4l-1.4,11.3h-4.7l3.7-24.2h5.5l4.1,12.5c0.4,1.3,1,3.4,1.3,5.1h0.1
				c0.4-1.8,0.9-3.7,1.3-5l4.1-12.6h5.4l3.8,24.2H88.7z"/>
			<path d="M112.9,239.4l-1.6-4.9h-9.2l-1.7,4.9h-4.7l8.3-24.2h5.5l8.5,24.2H112.9z M107.6,223.6c-0.4-1.2-0.7-2.3-1-3.3h0
				c-0.3,1.1-0.6,2.1-0.9,3.3l-2.5,7.2h6.9L107.6,223.6z"/>
			<path d="M140.9,239.7c-8.4,0-11.2-5.6-11.2-11.6c0-7.7,4-13.1,12.1-13.1c1.7,0,3.6,0.3,5.2,0.7l-0.6,4.3
				c-1.5-0.6-3.1-0.9-4.7-0.9c-4.5,0-6.8,3.4-6.8,8.1c0,5.2,2.2,8.2,7.1,8.2c1.5,0,3.3-0.4,4.6-1l0.7,4.1
				C145.4,239.3,143.2,239.7,140.9,239.7z"/>
			<path d="M160.8,239.8c-7.4,0-11-4.7-11-12.1c0-8,5.3-12.9,11.8-12.9c7.4,0,11,4.7,11,12.1C172.6,235,167.3,239.8,160.8,239.8z
				 M161.2,219.1c-3.7,0-6.4,2.9-6.4,8.1c0,5.2,2.1,8.4,6.4,8.4c3.7,0,6.4-2.9,6.4-8.1C167.6,222.4,165.6,219.1,161.2,219.1z"/>
			<path d="M191,239.4l-7.5-13.3c-0.9-1.8-1.6-3.2-2.1-4.7c0.1,2.1,0.3,8,0.3,11.5v6.6h-4.5v-24.2h6.2l7.3,13
				c0.9,1.5,1.7,3.3,2.3,4.8c-0.1-2.4-0.3-8.4-0.3-11.7v-6.1h4.5v24.2H191z"/>
			<path d="M212.1,219.2v20.2h-4.7v-20.2h-6.3v-4h17.2v4H212.1z"/>
			<path d="M233.8,239.4l-6.5-10h-0.4v10h-4.7v-24.2c1.9-0.1,4.2-0.1,6.9-0.1c5.3,0,8.8,1.9,8.8,6.8c0,3.6-2.6,6.2-5.9,6.7
				c0.7,0.9,1.4,1.8,1.9,2.6l5.6,8.1H233.8z M228.7,218.9c-0.7,0-1.4,0-1.8,0.1v7c0.3,0,1,0.1,1.7,0.1c2.8,0,4.5-1.4,4.5-3.7
				C233.1,220.1,231.7,218.9,228.7,218.9z"/>
			<path d="M257.7,239.4l-1.6-4.9h-9.2l-1.7,4.9h-4.7l8.3-24.2h5.5l8.5,24.2H257.7z M252.4,223.6c-0.4-1.2-0.7-2.3-1-3.3h0
				c-0.3,1.1-0.6,2.1-0.9,3.3l-2.5,7.2h6.9L252.4,223.6z"/>
			<path d="M275.8,239.7c-8.4,0-11.2-5.6-11.2-11.6c0-7.7,4-13.1,12.1-13.1c1.7,0,3.6,0.3,5.2,0.7l-0.6,4.3
				c-1.5-0.6-3.1-0.9-4.7-0.9c-4.5,0-6.8,3.4-6.8,8.1c0,5.2,2.2,8.2,7.1,8.2c1.5,0,3.3-0.4,4.6-1l0.7,4.1
				C280.3,239.3,278,239.7,275.8,239.7z"/>
			<path d="M295.7,219.2v20.2H291v-20.2h-6.3v-4H302v4H295.7z"/>
			<path d="M305.9,239.4v-24.2h4.7v24.2H305.9z"/>
			<path d="M331,239.4l-7.5-13.3c-0.9-1.8-1.6-3.2-2.1-4.7c0.1,2.1,0.3,8,0.3,11.5v6.6h-4.5v-24.2h6.2l7.3,13
				c0.9,1.5,1.7,3.3,2.3,4.8c-0.1-2.4-0.3-8.4-0.3-11.7v-6.1h4.5v24.2H331z"/>
			<path d="M354.1,239.8c-7.9,0-12.2-4.5-12.2-11.7c0-7.8,4.7-13.2,13.4-13.2c2.5,0,4.9,0.4,6.8,1l-0.9,4.3
				c-1.8-0.8-3.9-1.1-6.2-1.1c-5.7,0-8.1,3.8-8.1,8.4c0,5.1,2.7,8.1,7.7,8.1c1.1,0,2.1-0.1,3.1-0.4v-8.4h4.7v11.5
				C359.9,239.3,357,239.8,354.1,239.8z"/>
			<path d="M389.1,239.7c-8.4,0-11.2-5.6-11.2-11.6c0-7.7,4-13.1,12.1-13.1c1.7,0,3.6,0.3,5.2,0.7l-0.6,4.3
				c-1.5-0.6-3.1-0.9-4.7-0.9c-4.5,0-6.8,3.4-6.8,8.1c0,5.2,2.2,8.2,7.1,8.2c1.5,0,3.3-0.4,4.6-1l0.7,4.1
				C393.6,239.3,391.3,239.7,389.1,239.7z"/>
			<path d="M408.9,239.8c-7.4,0-11-4.7-11-12.1c0-8,5.3-12.9,11.8-12.9c7.4,0,11,4.7,11,12.1C420.7,235,415.4,239.8,408.9,239.8z
				 M409.4,219.1c-3.7,0-6.4,2.9-6.4,8.1c0,5.2,2.1,8.4,6.4,8.4c3.7,0,6.4-2.9,6.4-8.1C415.8,222.4,413.7,219.1,409.4,219.1z"/>
			<path d="M423.9,239.8c-1.6,0-2.9-1.3-2.9-2.9c0-1.6,1.3-2.9,2.9-2.9c1.6,0,2.9,1.3,2.9,2.9C426.8,238.5,425.5,239.8,423.9,239.8z
				"/>
			<path d="M440.6,239.4v-24.2h4.7v20.1h7.8v4.1H440.6z"/>
			<path d="M462.8,219.2v20.2h-4.7v-20.2h-6.3v-4h17.2v4H462.8z"/>
			<path d="M479.8,239.6c-2.5,0-4.7-0.1-6.7-0.2v-24.1c1.9-0.1,4.8-0.2,7.8-0.2c7.5,0,12.2,3.3,12.2,11.8
				C493.1,235.2,487.6,239.6,479.8,239.6z M480.5,219c-1.1,0-2.1,0-2.8,0.1v16.3c0.6,0.1,1.6,0.2,2.5,0.2c4.5,0,7.8-2.6,7.8-8.3
				C488.1,222.1,486,219,480.5,219z"/>
			<path d="M497.1,239.8c-1.6,0-2.9-1.3-2.9-2.9c0-1.6,1.3-2.9,2.9-2.9c1.6,0,2.9,1.3,2.9,2.9C500,238.5,498.7,239.8,497.1,239.8z"
				/>
		</g>
	</g>
</g>
</svg>
