<?xml version="1.0" encoding="utf-8"?>
<!-- Generator: Adobe Illustrator 26.0.1, SVG Export Plug-In . SVG Version: 6.00 Build 0)  -->
<svg version="1.1" id="Layer_1" xmlns="http://www.w3.org/2000/svg" xmlns:xlink="http://www.w3.org/1999/xlink" x="0px" y="0px"
	 viewBox="0 0 500 65.6" style="enable-background:new 0 0 500 65.6;" xml:space="preserve">
<style type="text/css">
	.st0{fill:#300156;}
</style>
<g>
	<path class="st0" d="M486.5,65.4c0.1,0,0.1,0,0.2,0c0.3,0,0.5-0.1,0.8-0.1c0,0,0.1,0,0.1,0c7.1-1.4,12.4-7.6,12.4-15.1h-4
		c0,2.3-0.7,4.4-1.9,6.2l-0.1,0c-1.8,2.8-4.7,4.6-8,5.1c0,0-0.1,0-0.1,0c-0.2,0-0.4,0-0.6,0.1c0,0-0.1,0-0.1,0c-0.2,0-0.4,0-0.7,0
		c-5.6,0-10.2-4.1-11.2-9.4c0-0.1,0-0.2,0-0.3V40.5c2.3,2.2,5.4,3.5,8.7,3.5c7,0,12.7-5.7,12.7-12.7c0-7-5.7-12.7-12.7-12.7
		c-7,0-12.7,5.7-12.7,12.7c0,0,0,0.1,0,0.1h0v18.9h-0.2c0,0.8,0.1,1.6,0.2,2.4c0.2,3.5,1.9,6.6,4.5,9h-4.8
		c-6.7-0.1-12.1-5.6-12.1-12.3V22.6h7.5v-4h-7.5V6.1h-4v43.2c0,8.4,6.4,15.3,14.5,16.2v0.1h1.5c0.1,0,0.2,0,0.2,0v0h14.2v0
		c0.3,0,0.7,0,1,0l0,0c0,0,0,0,0,0c0,0,0,0,0,0c0.3,0,0.6,0,0.9,0c0.1,0,0.1,0,0.2,0C486,65.5,486.3,65.5,486.5,65.4z M482.2,22.6
		c4.8,0,8.7,3.9,8.7,8.7c0,4.8-3.9,8.7-8.7,8.7c-4.8,0-8.7-3.9-8.7-8.7C473.5,26.5,477.4,22.6,482.2,22.6z"/>
	<path class="st0" d="M164.9,18.6L164.9,18.6c-0.1,0-0.1,0-0.2,0c-0.1,0-0.1,0-0.2,0v0c-4.1,0.1-7.9,1.7-10.9,4.5l2.7,2.9
		c2.2-2.2,5.2-3.4,8.3-3.4c6.7,0.1,12.2,5.6,12.2,12.3v6.7c-2.6-2.7-6.2-4.3-10.2-4.3c-7.8,0-14.1,6.3-14.1,14.1
		c0,3.9,1.6,7.4,4.1,9.9c-5.6-1.2-9.8-6.1-9.8-12.1h-4c0,9,7.3,16.3,16.3,16.3h7.2v0c0.1,0,0.3,0,0.4,0c7.8,0,14.1-6.3,14.1-14.1
		c0-0.1,0-0.2,0-0.3h0V34.7h0C180.7,25.9,173.7,18.8,164.9,18.6z M166.7,61.5c-5.6,0-10.2-4.6-10.2-10.2c0-5.6,4.6-10.1,10.2-10.1
		c5.6,0,10.2,4.6,10.2,10.1C176.9,56.9,172.3,61.5,166.7,61.5z"/>
	<path class="st0" d="M142.9,49.1h4V31c0-6.9-5.6-12.5-12.5-12.5c-4.4,0-8.3,2.3-10.5,5.8c-2.2-3.5-6.1-5.8-10.5-5.8
		c-4.4,0-8.3,2.3-10.5,5.7c-2.4-3.4-6.7-5.7-11.6-5.7v0c-4,0-7.7,1.7-10.2,4.6c-2.5-2.9-6.2-4.6-10.2-4.6l0,0c0,0,0,0,0,0
		c0,0,0,0,0,0l0,0c-6.8,0-12.5,4.4-13.4,10.2c-1.2-5.8-6.3-10.2-12.4-10.2c-7,0-12.7,5.7-12.7,12.7c0,0,0,0.1,0,0.1h0v20.6
		c0,3.8,1.7,7.2,4.5,9.6C30.2,61.2,25,55.8,25,49.2V31c0-6.9-5.6-12.5-12.5-12.5C5.6,18.5,0,24.1,0,31v32.4h4V31
		c0-4.7,3.8-8.5,8.5-8.5c4.7,0,8.5,3.8,8.5,8.5v18.2c0,9,7.3,16.3,16.3,16.3h10.2l0,0c4.3,0,8.3-1.8,11.1-4.8
		c2.7,2.9,6.3,4.6,10.3,4.8v0c0.1,0,0.3,0,0.4,0c0.1,0,0.2,0,0.4,0v0c8-0.4,14.4-6.3,14.4-13.6c0-3.5-1.3-6.8-3.6-9.3
		c-1.8-2-5.3-4.3-11.1-4.3c-5.1-0.4-8.1-3.3-8.1-7.9c0-4.4,4.3-7.9,9.6-7.9c3.5,0,6.8,1.9,8.4,5l1.7,3.2l1.7-3.2
		c1.7-3.1,4.9-5,8.5-5v0c5.3,0,9.6,3.6,9.6,7.9h0c0,0,0,0.1,0,0.1h0v33h4V31c0-4.7,3.8-8.5,8.5-8.5c4.7,0,8.5,3.8,8.5,8.5v23.3v8.9
		h4v-8.9V31c0-4.7,3.8-8.5,8.5-8.5c4.7,0,8.5,3.8,8.5,8.5V49.1z M45,22.5c4.8,0,8.7,3.9,8.7,8.7c0,4.8-3.9,8.7-8.7,8.7
		c-4.8,0-8.7-3.9-8.7-8.7C36.3,26.4,40.2,22.5,45,22.5z M70.5,42.3L70.5,42.3c7.1,0.5,9.6,5.4,9.6,9.6c0,5.2-4.8,9.4-10.7,9.6
		c-3.7-0.1-7.1-2-9.1-5.2l-1.7-2.6l-1.7,2.6c-2.1,3.2-5.6,5.2-9.4,5.2c-6.2,0-11.2-4.3-11.2-9.7V40.4c2.3,2.2,5.3,3.5,8.7,3.5
		c6.4,0,11.7-4.7,12.6-10.9C58.7,38.7,63.5,42.2,70.5,42.3z"/>
	<path class="st0" d="M447.8,35v-0.2h0c-0.2-8.7-7.2-15.7-15.9-15.9v0c-0.1,0-0.1,0-0.2,0c-0.1,0-0.1,0-0.2,0v0
		c-4.1,0.1-7.9,1.7-10.9,4.5l2.7,2.9c2.3-2.2,5.2-3.4,8.3-3.4c6.6,0.1,12,5.5,12.1,12.1v6.6c-2.6-2.7-6.2-4.3-10.2-4.3
		c-7.8,0-14.1,6.3-14.1,14.1c0,4,1.7,7.6,4.3,10.1c-6.4-0.4-11.5-5.6-11.6-12.1V2h-4v47.3h0c0,0.1,0,0.1,0,0.2v0.1h0
		c0.2,8.8,7.4,16,16.3,16h6.8v-0.2c0.8,0.1,1.6,0.2,2.4,0.2c7.8,0,14.1-6.3,14.1-14.1c0,0,0-0.1,0-0.1h0V35.2h0
		C447.8,35.2,447.8,35.1,447.8,35z M433.6,61.6c-5.6,0-10.2-4.6-10.2-10.2c0-5.6,4.6-10.2,10.2-10.2s10.2,4.6,10.2,10.2
		C443.8,57,439.2,61.6,433.6,61.6z"/>
	<path class="st0" d="M380.9,18.6c-12.9,0-23.4,10.5-23.4,23.4c0,6.2-3,12-8,15.7c-3.3,2.5-7.3,3.7-11.5,3.7
		c-10.7,0-19.4-8.6-19.5-19.3c0-0.1,0-0.1,0-0.2c0-0.1,0-0.1,0-0.2c0.1-10.6,8.8-19.3,19.5-19.3c3.9,0,7.7,1.1,10.9,3.3l2.2-3.3
		c-3.9-2.6-8.4-4-13.1-4c-9.6,0-17.8,5.8-21.4,14c-3.6-8.2-11.9-14-21.4-14c-11.4,0-21,8.2-23,19.1v-4.9c0-7.8-6.3-14.1-14.1-14.1
		c-4,0-7.6,1.7-10.2,4.3v-6.7h0c0-6.8,5.5-12.3,12.3-12.3c3.2,0,6.2,1.2,8.5,3.4l2.7-2.9c-3-2.9-7.1-4.5-11.3-4.5
		c-9,0-16.3,7.3-16.3,16.3h0v16.2c0,0.1,0,0.1,0,0.2V42c0,6.2-3,12-8,15.7c-3.3,2.5-7.3,3.8-11.5,3.8c-10.7,0-19.5-8.7-19.5-19.5
		c0-10.7,8.7-19.5,19.5-19.5c3.9,0,7.7,1.1,10.9,3.3l2.2-3.3c-3.9-2.6-8.4-4-13.1-4C211.5,18.6,201,29.1,201,42
		c0,12.9,10.5,23.4,23.4,23.4c5,0,9.8-1.6,13.8-4.5c2.2-1.6,4.1-3.6,5.6-5.9v0.1h4V47h0V32.5c0.1-5.5,4.6-10,10.2-10
		c5.6,0,10.2,4.6,10.2,10.2v30.8h4V46.4c2,10.8,11.6,19.1,23,19.1c9.6,0,17.8-5.8,21.4-14c3.6,8.2,11.9,14,21.4,14
		c5,0,9.8-1.6,13.8-4.5c3.4-2.5,6-5.8,7.6-9.5c3.6,8.2,11.9,14,21.4,14c12.9,0,23.4-10.5,23.4-23.4
		C404.4,29.1,393.9,18.6,380.9,18.6z M295.2,61.5c-10.7,0-19.5-8.7-19.5-19.5c0-10.7,8.7-19.4,19.5-19.4c10.7,0,19.4,8.6,19.5,19.3
		c0,0.1,0,0.1,0,0.2c0,0.1,0,0.1,0,0.2C314.5,52.9,305.8,61.5,295.2,61.5z M380.9,61.5c-10.7,0-19.5-8.7-19.5-19.5
		c0-10.7,8.7-19.4,19.5-19.4c10.7,0,19.5,8.7,19.5,19.4C400.4,52.8,391.7,61.5,380.9,61.5z"/>
</g>
</svg>
