<?xml version="1.0" encoding="utf-8"?>
<!-- Generator: Adobe Illustrator 26.0.1, SVG Export Plug-In . SVG Version: 6.00 Build 0)  -->
<svg version="1.1" id="Layer_1" xmlns="http://www.w3.org/2000/svg" xmlns:xlink="http://www.w3.org/1999/xlink" x="0px" y="0px"
	 viewBox="0 0 289.2 170.1" style="enable-background:new 0 0 289.2 170.1;" xml:space="preserve">
<style type="text/css">
	.st0{fill:#CB0F22;}
	.st1{fill:#FFFFFF;}
</style>
<g>
	<rect class="st0" width="289.2" height="170.1"/>
	<g>
		<g>
			<path class="st1" d="M219.3,27.8c1.4,0,2.6-1.3,2.6-2.7c0-1.5-1.2-2.7-2.6-2.7c-1.5,0-2.7,1.2-2.7,2.7
				C216.6,26.6,217.8,27.8,219.3,27.8z"/>
			<path class="st1" d="M73.4,50.3h36.1c0.8,2.9,3.4,4.6,6.9,4.6c3.7,0,6.1-1.7,6.8-4.6h91.4c4.3,0,6.9-2.5,6.9-6.6V30.9H217v12.9
				c0,1.3-0.6,1.9-2.1,1.9h-33.1V30.9h-4.6v14.8h-5.1V30.9h-4.6v14.8h-5.1V30.9H158v14.8h-34.5v-8.2c0-5-3.7-6.8-7.1-6.8
				c-4.4,0-7.1,2.5-7.1,6.8v8.2H73.4c-1.2,0-1.4-0.9-1.4-1.7V23.5h-4.6v20.6C67.3,47.6,69.9,50.3,73.4,50.3z M118.9,48.1
				c0,1.6-0.7,2.2-2.6,2.2c-1.8,0-2.6-0.6-2.6-2.2V37.4c0-1.6,0.7-2.2,2.6-2.2c1.8,0,2.6,0.6,2.6,2.2V48.1z"/>
		</g>
		<g>
			<path class="st1" d="M47.2,101.2c6,0,12-2.9,12-9.3V64.6h-4.6v26.9c0,3.7-3.8,5-7.3,5c-3.5,0-7.3-1.3-7.3-5V79.3l-4.6,3v9.5
				C35.2,98.2,41.4,101.2,47.2,101.2z"/>
			<path class="st1" d="M72.4,91.4h2.5V92c0,1.2,0,4.8-6.9,4.8h-1.6l3.2,4.3l0.3,0c6.6-0.4,9.6-3.4,9.6-9.6h167.7
				c4.3,0,6.8-2.4,6.8-6.5V64.6h-4.6v20c0,1.7-0.5,2.2-2.3,2.2h-39.7V64.6h-4.5v22.2h-35.6v-8.2c0-4.1-2.6-6.6-6.7-6.6h-7.5v4.6h7.6
				c1.5,0,2.1,0.5,2.1,2.1v8.1h-43.1V64.6h-4.5v22.2H79.6V72H72c-4.2,0-6.8,2.6-6.8,6.8v5.8C65.3,88.9,67.9,91.4,72.4,91.4z
				 M74.9,86.8h-2.2c-2.2,0-2.8-0.3-2.8-2.2v-5.8c0-1.6,0.5-2.2,2-2.2h3V86.8z"/>
		</g>
		<g>
			<path class="st1" d="M38.4,115.3c1.4,0,2.7-1.3,2.7-2.7c0-1.5-1.2-2.7-2.7-2.7c-1.5,0-2.7,1.2-2.7,2.7
				C35.7,114,36.9,115.3,38.4,115.3z"/>
			<path class="st1" d="M33,115.3c1.4,0,2.7-1.3,2.7-2.7c0-1.5-1.2-2.7-2.7-2.7c-1.5,0-2.7,1.2-2.7,2.7
				C30.2,114,31.5,115.3,33,115.3z"/>
			<path class="st1" d="M65.3,142.2c-1.5,0-2.7,1.2-2.7,2.7c0,1.5,1.2,2.7,2.7,2.7c1.5,0,2.7-1.2,2.7-2.7
				C67.9,143.4,66.7,142.2,65.3,142.2z"/>
			<path class="st1" d="M70.7,142.2c-1.5,0-2.7,1.2-2.7,2.7c0,1.5,1.2,2.7,2.7,2.7c1.5,0,2.6-1.2,2.6-2.7
				C73.3,143.4,72.1,142.2,70.7,142.2z"/>
			<path class="st1" d="M102.9,109.8c-1.5,0-2.7,1.2-2.7,2.7c0,1.5,1.2,2.7,2.7,2.7c1.4,0,2.6-1.3,2.6-2.7
				C105.5,111,104.4,109.8,102.9,109.8z"/>
			<path class="st1" d="M100.6,131.4c0,1.3-0.6,1.9-2.1,1.9H73v-14.8h-4.6v14.8H42.8v-14.8h-7.5c-4.1,0-6.8,2.7-6.8,6.8v5.8
				c0,4.4,2.5,6.8,7.1,6.8h1.6l0.9-1.2v1.2h60.2c4.3,0,6.9-2.5,6.9-6.6v-12.7h-4.6V131.4z M33.1,131.2v-6c0-1.7,0.8-2.1,2-2.1h3
				v10.2h-2.8C33.4,133.3,33.1,132.6,33.1,131.2z"/>
			<path class="st1" d="M168.7,131.4c0,1.4-0.6,1.9-2.1,1.9h-3v-14.8H159v14.8H154v-14.8h-4.6v14.8h-32c-1.2,0-1.4-0.9-1.4-1.7
				v-20.5h-4.6v20.6c0,3.5,2.6,6.2,6,6.2h49c4.3,0,6.9-2.5,6.9-6.7v-12.7h-4.6V131.4z"/>
			<path class="st1" d="M210.3,112.5c0,1.5,1.3,2.7,2.7,2.7c0.7,0,1.4-0.3,1.9-0.8c0.5-0.5,0.8-1.2,0.7-1.9c0-1.5-1.2-2.7-2.6-2.7
				C211.5,109.8,210.3,111.1,210.3,112.5z"/>
			<path class="st1" d="M244.8,131.1c0,1.7-0.5,2.2-2.3,2.2h-21v-8.2c0-4.1-2.6-6.6-6.7-6.6h-7.5v4.6h7.6c1.5,0,2.1,0.5,2.1,2.1v8.1
				h-32.3v-14.8h-4.6v19.3c0,3.2-0.6,4.4-4,5.5l-0.7,0.2l3.2,4.1l0.4-0.2c3.7-1.6,5.8-4.6,5.8-8.5l0.5-1.1h57.9
				c3.8,0,6.2-2.4,6.2-6.5v-20.3h-4.6V131.1z"/>
			<polygon class="st1" points="256.1,111.1 256.1,140.3 260.8,137.7 260.8,111.1 			"/>
		</g>
	</g>
</g>
</svg>
