<?xml version="1.0" encoding="utf-8"?>
<!-- Generator: Adobe Illustrator 26.0.1, SVG Export Plug-In . SVG Version: 6.00 Build 0)  -->
<svg version="1.1" id="Layer_1" xmlns="http://www.w3.org/2000/svg" xmlns:xlink="http://www.w3.org/1999/xlink" x="0px" y="0px"
	 viewBox="0 0 500 149.8" style="enable-background:new 0 0 500 149.8;" xml:space="preserve">
<style type="text/css">
	.Arched_x0020_Green{fill:url(#SVGID_1_);stroke:#FFFFFF;stroke-width:0.25;stroke-miterlimit:1;}
	.st0{fill:#2E58A6;}
</style>
<linearGradient id="SVGID_1_" gradientUnits="userSpaceOnUse" x1="-166.4983" y1="337.283" x2="-165.7912" y2="336.5758">
	<stop  offset="0" style="stop-color:#339A2A"/>
	<stop  offset="0.9831" style="stop-color:#121E0D"/>
</linearGradient>
<g>
	<g>
		<polygon class="st0" points="51.2,51.5 56.8,60.5 56.8,52.1 51.2,43.1 		"/>
		<polygon class="st0" points="64.4,72.9 64.4,64.5 58.9,55.5 58.9,63.9 		"/>
		<polygon class="st0" points="56.8,72.9 56.8,64.5 51.2,55.5 51.2,63.9 		"/>
		<polygon class="st0" points="43.6,51.5 49.1,60.5 49.1,52.1 43.6,43.1 		"/>
		<polygon class="st0" points="81.5,88.2 81.5,79.9 66.5,55.5 66.5,63.9 		"/>
		<path class="st0" d="M56.8,77l-5.6-9v70.2c1.8,0.7,3.7,1.3,5.6,1.8V77z"/>
		<path class="st0" d="M35.9,130c1.8,1.3,3.6,2.5,5.5,3.6V52.1l-5.5-9V130z"/>
		<path class="st0" d="M49.1,64.5l-5.5-9v79.2c1.8,1,3.7,1.8,5.5,2.6V64.5z"/>
		<path class="st0" d="M83.6,66.8l5.5,9V9.4c-1.8-0.4-3.7-0.7-5.5-1V66.8z"/>
		<polygon class="st0" points="66.5,51.5 81.5,75.8 81.5,67.4 66.5,43.1 		"/>
		<polygon class="st0" points="89.2,88.2 89.2,79.9 83.6,70.9 83.6,79.2 		"/>
		<path class="st0" d="M96.8,11.5c-1.8-0.6-3.7-1.2-5.5-1.7v69.3l5.5,9V11.5z"/>
		<polygon class="st0" points="58.9,51.5 64.4,60.5 64.4,52.1 58.9,43.1 		"/>
		<path class="st0" d="M98.9,12.3v79.3l5.5,9V14.7C102.7,13.8,100.8,13,98.9,12.3z"/>
		<polygon class="st0" points="104.5,104.7 98.9,95.7 98.9,104.1 104.5,113.1 		"/>
		<path class="st0" d="M112.1,19.1c-1.8-1.2-3.6-2.3-5.5-3.3v88.3l5.5,9V19.1z"/>
		<polygon class="st0" points="91.3,83.3 91.3,91.6 96.8,100.6 96.8,92.3 		"/>
		<path class="st0" d="M33.8,35.6l7.7,12.4V35.6l7.7,12.4V35.6l7.7,12.4V35.6L64.4,48V35.6l17.1,27.7V8.2c-2.2-0.2-4.4-0.3-6.6-0.3
			C37.7,7.9,7.6,38,7.6,75.2c0,21.7,10.3,41,26.2,53.3V35.6z"/>
		<path class="st0" d="M114.3,20.6v100l-7.7-12.4v12.4l-7.7-12.4v12.4l-7.7-12.4v12.4l-7.7-12.4v12.4L66.5,92.8V142
			c2.7,0.3,5.5,0.5,8.4,0.5c37.2,0,67.3-30.1,67.3-67.3C142.2,52.7,131.2,32.8,114.3,20.6z"/>
		<polygon class="st0" points="83.6,83.3 83.6,91.6 89.2,100.6 89.2,92.3 		"/>
		<polygon class="st0" points="81.5,104.7 66.5,80.4 66.5,88.7 81.5,113.1 		"/>
		<polygon class="st0" points="58.9,68 58.9,76.3 64.4,85.3 64.4,77 		"/>
		<polygon class="st0" points="66.5,68 66.5,76.3 81.5,100.6 81.5,92.3 		"/>
		<polygon class="st0" points="96.8,104.7 91.3,95.7 91.3,104.1 96.8,113.1 		"/>
		<path class="st0" d="M64.4,89.4l-5.6-9v60.2c1.8,0.4,3.7,0.8,5.6,1.1V89.4z"/>
		<polygon class="st0" points="89.2,104.7 83.6,95.7 83.6,104.1 89.2,113.1 		"/>
	</g>
	<g>
		<path class="st0" d="M0,74.9C0,33.5,33.5,0,74.9,0l0,0c41.4,0,74.9,33.5,74.9,74.9l0,0c0,41.4-33.5,74.9-74.9,74.9l0,0
			C33.5,149.8,0,116.3,0,74.9L0,74.9z M23.6,23.6C10.5,36.8,2.4,54.9,2.4,74.9l0,0c0,20,8.1,38.1,21.2,51.3l0,0
			c13.1,13.1,31.2,21.2,51.3,21.2l0,0c20,0,38.1-8.1,51.3-21.2l0,0c13.1-13.1,21.2-31.2,21.2-51.3l0,0c0-20-8.1-38.1-21.2-51.3l0,0
			C113,10.5,94.9,2.4,74.9,2.4l0,0C54.9,2.4,36.8,10.5,23.6,23.6L23.6,23.6z"/>
	</g>
	<g>
		<path class="st0" d="M196.1,116.3h-5.9l-11.7-17.9v17.9h-6.2V87.1h5.9l11.7,17.9V87.1h6.2V116.3z"/>
		<path class="st0" d="M220.6,110.9l-0.9,5.5h-17.7V87.1h18.7l-0.9,5.5h-11.2v6.1h10.3l-0.9,5.5h-9.4v6.8H220.6z"/>
		<path class="st0" d="M232.8,116.8c-2.8,0-6.2-0.4-8.8-1.6l0.9-5.8c1.9,0.8,4.8,1.7,7.7,1.7c1.1,0,4.3-0.1,4.3-3.2
			c0-5.2-13.1-3.4-13.1-13.2c0-5.8,4.4-8.2,10.6-8.2c2.7,0,5.8,0.8,7.6,1.6l-1.1,5.6c-1.8-0.8-3.9-1.7-6.7-1.7c-3.4,0-4,1.4-4,2.6
			c0,3.6,13,3.4,13,12.6C243.3,113.4,239.6,116.8,232.8,116.8z"/>
		<path class="st0" d="M278.1,116.3H272V95l-5.8,21.4h-7L253.5,95v21.4h-6.1V87.1h9.9l5.4,21.9l6.1-21.9h9.2V116.3z"/>
		<path class="st0" d="M307.5,116.3h-6.9l-1.6-5.5h-8.8l-1.6,5.5h-6.8l9.5-29.3h6.6L307.5,116.3z M297.5,105.6l-2.9-10.3l-2.9,10.3
			H297.5z"/>
		<path class="st0" d="M337.8,110.9l-0.9,5.5h-17.7V87.1h18.7l-0.9,5.5h-11.2v6.1h10.3l-0.9,5.5h-9.4v6.8H337.8z"/>
		<path class="st0" d="M359.8,110.9l-0.9,5.5h-16.5V87.1h6.5v23.8H359.8z"/>
		<path class="st0" d="M382.5,110.9l-0.9,5.5h-17.7V87.1h18.7l-0.9,5.5h-11.2v6.1h10.3l-0.9,5.5h-9.4v6.8H382.5z"/>
		<path class="st0" d="M408.2,93.9c-1.9-0.9-4.6-1.7-7.3-1.7c-6,0-8.3,4.1-8.3,10.2c0,7.6,5.8,8.8,9,8.8c1.9,0,5.8-0.8,7.6-1.4
			l-1,6.1c-1.8,0.6-5.5,0.9-7.3,0.9c-8.9,0-15-5.1-15-14.7c0-8.6,4.8-15.5,14.7-15.5c4.6,0,7.8,1.2,8.8,1.6L408.2,93.9z"/>
		<path class="st0" d="M433.5,87.1l-0.9,5.5h-6.6v23.8h-6.5V92.5h-7v-5.5H433.5z"/>
		<path class="st0" d="M459.6,116.3h-7.2l-4.7-9.6h-3.5v9.6h-6.5V87.1h9.8c8.5,0,11.2,4.8,11.2,9.9c0,4.1-1.7,7.1-4.9,8.7
			L459.6,116.3z M447.8,92.4h-3.7v9h3.7c2.6,0,4-1.8,4-4.4C451.8,94.3,450.3,92.4,447.8,92.4z"/>
		<path class="st0" d="M470.5,116.3h-6.5V87.1h6.5V116.3z"/>
		<path class="st0" d="M497.9,93.9c-1.9-0.9-4.6-1.7-7.3-1.7c-6,0-8.3,4.1-8.3,10.2c0,7.6,5.8,8.8,9,8.8c1.9,0,5.8-0.8,7.6-1.4
			l-1,6.1c-1.8,0.6-5.5,0.9-7.3,0.9c-8.9,0-15-5.1-15-14.7c0-8.6,4.8-15.5,14.7-15.5c4.6,0,7.8,1.2,8.8,1.6L497.9,93.9z"/>
	</g>
	<g>
		<path class="st0" d="M192.8,58.1c-6.4,1.9-11.8,5.4-16.9,9.2l-3.2-5.3c1.9-1.5,3.9-2.7,6-3.8c-3.8-1.9-6.4-5.1-6.4-9.6
			c0-5.5,4.5-10,11.7-10c1.5,0,3.2,0.1,4.7,0.4v6.1c-1.3-0.4-2.7-0.5-4.1-0.5c-2.7,0-5.9,1.2-5.9,4.3c0,3.1,3.2,4.8,6.5,4.8
			c2.7,0,5.4-1,7.7-2.4V58.1z"/>
		<path class="st0" d="M207.3,60.2h-1.1c-4.6,0-7.5-3.8-7.5-7.9V30.5h6.1V52c0,1.4,0.8,2,2,2h0.5V60.2z"/>
		<path class="st0" d="M213.9,54.1v6.1H207v-6.1H213.9z"/>
		<path class="st0" d="M220.5,54.1v6.1h-6.9v-6.1H220.5z"/>
		<path class="st0" d="M234.3,39v13.1c0,4.8-3.4,8.1-8.1,8.1h-6.1v-6.1h6c1,0,2.1-0.4,2.1-2.1V39H234.3z M231.2,71.3
			c-1.7,0-3.1-1.4-3.1-3.1c0-1.7,1.4-3.1,3.1-3.1c1.7,0,3.1,1.4,3.1,3.1C234.3,69.9,232.9,71.3,231.2,71.3z"/>
		<path class="st0" d="M250,54.1h2.5v6.1H250v1.2c0,4.6-1.8,7.3-7.4,9.9l-4.2-5.5c5.2-1.2,5.5-3.9,5.5-6.3V39h6.1V54.1z"/>
		<path class="st0" d="M259.1,54.1v6.1h-6.9v-6.1H259.1z"/>
		<path class="st0" d="M265.7,54.1v6.1h-6.9v-6.1H265.7z"/>
		<path class="st0" d="M286.8,47.2c0-1.3-0.8-2-2.1-2h-14.5V39h14.3c5,0,8.3,3.2,8.3,8.2v6.9h2.5v6.1h-16.5c-0.7,0-1.3-0.2-2-0.8
			c-0.6,0.6-1.1,0.8-2,0.8h-9.6v-6.1h5.1c-0.1-0.6-0.2-1.1-0.2-1.7c0-3,2.4-6.5,6.7-6.5c4.1,0,6.6,3.5,6.6,6.5
			c0,0.6-0.1,1.1-0.2,1.7h3.4V47.2z M277,50.4c-1.1,0-2,1-2,2c0,1.1,0.9,2,2,2s2-0.9,2-2C278.9,51.3,278,50.4,277,50.4z"/>
		<path class="st0" d="M302,54.1v6.1h-6.9v-6.1H302z"/>
		<path class="st0" d="M328.8,54.1v6.1h-27.1v-6.1h18.5v-6.8c0-1.3-0.8-2.2-1.9-2.2h-11.7v-6.6c0-4.5,2.9-8.2,8.3-8.2h8.5v5.2h-8.7
			c-2.1,0-2.9,1.2-2.9,2.9V39h6.6c4.2,0,8,3,8,8.2v6.9H328.8z"/>
		<path class="st0" d="M335.4,54.1v6.1h-6.9v-6.1H335.4z"/>
		<path class="st0" d="M341.9,54.1v6.1H335v-6.1H341.9z"/>
		<path class="st0" d="M341.6,54.1h4.8V30.5h6v23.6h2.5v6.1h-13.4V54.1z"/>
		<path class="st0" d="M357.5,54.1c1.2,0,2-0.8,2-2.1V30.5h6.1v21.7c0,4.1-2.8,8.1-8.2,8.1h-2.7v-6.1H357.5z"/>
		<path class="st0" d="M388.2,60.2h-1.1c-4.6,0-7.5-3.8-7.5-7.9V30.5h6V52c0,1.4,0.8,2,2,2h0.5V60.2z"/>
		<path class="st0" d="M394.8,54.1v6.1H388v-6.1H394.8z"/>
		<path class="st0" d="M401.4,54.1v6.1h-6.9v-6.1H401.4z"/>
		<path class="st0" d="M401.1,60.2v-6.1h4.8v-7.1c0-5.8,4.1-8.2,8.6-8.2c5,0,8.6,3.2,8.6,8.2v7.1h2.5v6.1h-3
			c-1.1,3.8-4.7,5.4-8.2,5.4c-3.5,0-7-1.6-8.2-5.4H401.1z M412,57.3c0,1.7,1.2,2.2,2.6,2.2c1.5,0,2.5-0.7,2.5-2.2V46.9
			c0-1.5-1.1-2.2-2.5-2.2c-1.5,0-2.6,0.6-2.6,2.2V57.3z"/>
		<path class="st0" d="M432.2,54.1v6.1h-6.9v-6.1H432.2z"/>
		<path class="st0" d="M474.8,60.2h-42.9v-6.1h12V39h6.1v15h5.1V39h6.1v15h5V39h6.1v15h2.5V60.2z"/>
		<path class="st0" d="M481.4,54.1v6.1h-6.9v-6.1H481.4z"/>
		<path class="st0" d="M487.9,54.1v6.1h-6.9v-6.1H487.9z"/>
		<path class="st0" d="M500,39v13.1c0,4.8-3.4,8.1-8.1,8.1h-6.1v-6.1h6c1,0,2.1-0.4,2.1-2.1V39H500z M496.9,35.9
			c-1.7,0-3.1-1.4-3.1-3.1c0-1.7,1.4-3.1,3.1-3.1c1.7,0,3.1,1.4,3.1,3.1C500,34.5,498.7,35.9,496.9,35.9z"/>
	</g>
</g>
</svg>
