<?xml version="1.0" encoding="utf-8"?>
<!-- Generator: Adobe Illustrator 26.0.1, SVG Export Plug-In . SVG Version: 6.00 Build 0)  -->
<svg version="1.1" xmlns="http://www.w3.org/2000/svg" xmlns:xlink="http://www.w3.org/1999/xlink" x="0px" y="0px"
	 viewBox="0 0 500 107.2" style="enable-background:new 0 0 500 107.2;" xml:space="preserve">
<style type="text/css">
	.st0{fill:#3387FF;}
	.st1{fill:#5C43FF;}
	.st2{fill:#00B4DB;}
	.st3{fill:#272727;}
</style>
<g id="Artwork_Layer">
</g>
<g id="Stationary_on_Template">
</g>
<g id="Category">
</g>
<g id="Layer_6">
</g>
<g id="Layer_7">
</g>
<g id="Layer_8">
</g>
<g id="Layer_9">
	<g>
		<polygon class="st0" points="53,54 0,54 0,107.2 53,107.2 53,54.2 		"/>
		<polygon class="st1" points="106.2,54.1 106.2,1 53,0.9 53,54 53.2,54 		"/>
		<polygon class="st2" points="106.2,54.1 53.2,54 53,54 53,54.2 53,107.2 53.1,107.2 106.2,54.1 		"/>
		<polygon class="st3" points="0,1 53,1 0,54 		"/>
		<g>
			<g>
				<path class="st3" d="M136.6,103.8c1,0,1.9-0.1,2.7-0.4c0.8-0.2,1.5-0.6,2-1c0.6-0.4,1.1-0.9,1.5-1.6c0.4-0.6,0.7-1.3,0.9-2
					c0.1-0.5,0.2-1,0.3-1.5c0.1-0.6,0.1-1.1,0.1-1.6V78.5h3.4v17.2c0,0.7,0,1.3-0.1,2c-0.1,0.7-0.2,1.4-0.3,2c-0.3,1-0.7,2-1.2,2.8
					c-0.5,0.9-1.2,1.6-2.1,2.3c-0.8,0.6-1.9,1.1-3,1.5c-1.2,0.4-2.6,0.5-4.2,0.5c-1.5,0-2.9-0.2-4-0.5c-1.2-0.3-2.1-0.8-3-1.4
					c-0.8-0.6-1.5-1.3-2-2.1s-0.9-1.7-1.2-2.7c-0.2-0.7-0.4-1.4-0.4-2.2c-0.1-0.8-0.1-1.6-0.1-2.3V78.5h3.4v17.3
					c0,0.6,0,1.3,0.1,1.9c0.1,0.7,0.2,1.3,0.4,1.8c0.5,1.3,1.3,2.4,2.4,3.2C133.3,103.4,134.8,103.8,136.6,103.8z"/>
				<path class="st3" d="M168.7,94c1.7,2.5,3.4,5,5.1,7.6h0.1c-0.2-2.7-0.3-5.5-0.3-8.3V78.5h3.4v27.8h-3.4l-10.9-15.5
					c-1.9-2.7-3.6-5.2-5.1-7.6h-0.1c0.2,2.5,0.3,5.5,0.3,8.9v14.2h-3.4V78.5h3.4L168.7,94z"/>
				<path class="st3" d="M184.1,106.3V78.5h3.4v27.8H184.1z"/>
				<path class="st3" d="M204.6,106.3h-3.4V81.5h-9.3v-3.1h22v3.1h-9.3V106.3z"/>
				<path class="st3" d="M221.6,103.3h14.3v3.1h-17.7V78.5h16.9v3.1h-13.5v9h12v3.1h-12V103.3z"/>
				<path class="st3" d="M264.3,92.3c0,1.6-0.2,3.1-0.6,4.6c-0.4,1.4-1,2.7-1.8,3.9c-0.8,1.1-1.8,2.1-3,3c-1.2,0.8-2.6,1.5-4.3,1.9
					c-0.9,0.3-1.9,0.4-3,0.6c-1.1,0.1-2.3,0.2-3.5,0.2h-6.3V78.5h6.4c1.3,0,2.4,0.1,3.5,0.2c1.1,0.1,2.1,0.3,3,0.6
					c1.6,0.5,3,1.1,4.3,1.9c1.2,0.8,2.2,1.8,3,2.9c0.8,1.1,1.4,2.4,1.8,3.8C264.1,89.2,264.3,90.7,264.3,92.3z M260.9,92.3
					c0-2.7-0.6-4.8-1.8-6.5c-1.2-1.7-2.9-2.8-5.1-3.5c-0.8-0.3-1.8-0.4-2.8-0.5c-1-0.1-2.2-0.1-3.5-0.1h-2.6v21.7h2.6
					c1.3,0,2.5,0,3.5-0.1c1-0.1,2-0.3,2.8-0.5c2.2-0.7,3.9-1.9,5.1-3.6C260.3,97.2,260.9,95,260.9,92.3z"/>
				<path class="st3" d="M278.8,106.3V78.5h3.4v27.8H278.8z"/>
				<path class="st3" d="M303.6,94c1.7,2.5,3.4,5,5.1,7.6h0.1c-0.2-2.7-0.3-5.5-0.3-8.3V78.5h3.4v27.8h-3.4l-10.9-15.5
					c-1.9-2.7-3.6-5.2-5.1-7.6h-0.1c0.2,2.5,0.3,5.5,0.3,8.9v14.2h-3.4V78.5h3.4L303.6,94z"/>
				<path class="st3" d="M341.5,92.3c0,1.6-0.2,3.1-0.6,4.6c-0.4,1.4-1,2.7-1.8,3.9c-0.8,1.1-1.8,2.1-3,3c-1.2,0.8-2.6,1.5-4.3,1.9
					c-0.9,0.3-1.9,0.4-3,0.6c-1.1,0.1-2.3,0.2-3.5,0.2H319V78.5h6.4c1.3,0,2.4,0.1,3.5,0.2c1.1,0.1,2.1,0.3,3,0.6
					c1.6,0.5,3,1.1,4.3,1.9c1.2,0.8,2.2,1.8,3,2.9c0.8,1.1,1.4,2.4,1.8,3.8C341.3,89.2,341.5,90.7,341.5,92.3z M338.2,92.3
					c0-2.7-0.6-4.8-1.8-6.5c-1.2-1.7-2.9-2.8-5.1-3.5c-0.8-0.3-1.8-0.4-2.8-0.5c-1-0.1-2.2-0.1-3.5-0.1h-2.6v21.7h2.6
					c1.3,0,2.5,0,3.5-0.1c1-0.1,2-0.3,2.8-0.5c2.2-0.7,3.9-1.9,5.1-3.6C337.6,97.2,338.2,95,338.2,92.3z"/>
				<path class="st3" d="M358.3,103.8c1,0,1.9-0.1,2.7-0.4c0.8-0.2,1.5-0.6,2-1c0.6-0.4,1.1-0.9,1.5-1.6c0.4-0.6,0.7-1.3,0.9-2
					c0.1-0.5,0.2-1,0.3-1.5c0.1-0.6,0.1-1.1,0.1-1.6V78.5h3.4v17.2c0,0.7,0,1.3-0.1,2c-0.1,0.7-0.2,1.4-0.3,2c-0.3,1-0.7,2-1.2,2.8
					c-0.5,0.9-1.2,1.6-2.1,2.3c-0.8,0.6-1.9,1.1-3,1.5c-1.2,0.4-2.6,0.5-4.2,0.5c-1.5,0-2.9-0.2-4-0.5c-1.2-0.3-2.1-0.8-3-1.4
					c-0.8-0.6-1.5-1.3-2-2.1s-0.9-1.7-1.2-2.7c-0.2-0.7-0.4-1.4-0.4-2.2c-0.1-0.8-0.1-1.6-0.1-2.3V78.5h3.4v17.3
					c0,0.6,0,1.3,0.1,1.9c0.1,0.7,0.2,1.3,0.4,1.8c0.5,1.3,1.3,2.4,2.4,3.2C355,103.4,356.5,103.8,358.3,103.8z"/>
				<path class="st3" d="M378.9,85.8c0,0.8,0.2,1.5,0.5,2c0.3,0.5,0.8,1,1.3,1.3c0.6,0.3,1.2,0.6,2,0.9c0.7,0.2,1.5,0.4,2.3,0.6
					c1.1,0.3,2.1,0.6,3.2,0.9s2,0.8,2.8,1.3s1.5,1.3,2,2.2c0.5,0.9,0.8,2.1,0.8,3.5c0,1.4-0.3,2.7-0.8,3.7c-0.5,1-1.3,1.9-2.3,2.6
					c-1,0.7-2.1,1.2-3.4,1.5c-1.3,0.3-2.8,0.5-4.3,0.5c-0.7,0-1.5,0-2.2-0.1c-0.8-0.1-1.5-0.2-2.2-0.4c-0.7-0.2-1.3-0.3-1.9-0.5
					c-0.6-0.2-1-0.4-1.3-0.6v-3.1c0.5,0.2,1.1,0.5,1.7,0.7c0.6,0.2,1.3,0.4,1.9,0.5c0.7,0.1,1.3,0.3,2,0.3c0.7,0.1,1.3,0.1,1.9,0.1
					c1,0,1.9-0.1,2.8-0.2c0.9-0.2,1.7-0.4,2.3-0.8c0.7-0.4,1.2-0.9,1.6-1.6c0.4-0.7,0.6-1.5,0.6-2.5c0-0.8-0.2-1.5-0.5-2.1
					c-0.3-0.5-0.8-1-1.4-1.3c-0.6-0.4-1.2-0.6-2-0.9c-0.7-0.2-1.5-0.4-2.3-0.6c-1.1-0.2-2.1-0.5-3.2-0.8c-1-0.3-2-0.7-2.8-1.3
					c-0.8-0.6-1.5-1.3-2-2.1c-0.5-0.9-0.7-2-0.7-3.4c0-1.4,0.3-2.6,0.8-3.7c0.5-1,1.2-1.9,2.1-2.5c0.9-0.7,1.9-1.2,3.1-1.5
					c1.2-0.3,2.4-0.5,3.7-0.5c1.5,0,2.9,0.1,4.2,0.4c1.3,0.3,2.5,0.7,3.5,1.1v3.1c-1.2-0.5-2.3-0.9-3.6-1.2s-2.5-0.5-3.9-0.5
					c-1.1,0-2,0.1-2.7,0.3c-0.8,0.2-1.4,0.6-1.9,1c-0.5,0.4-0.9,0.9-1.1,1.5C379,84.4,378.9,85.1,378.9,85.8z"/>
				<path class="st3" d="M409.6,106.3h-3.4V81.5H397v-3.1h22v3.1h-9.3V106.3z"/>
				<path class="st3" d="M426.7,94.8v11.5h-3.4V78.5h7.2c1.2,0,2.3,0,3.1,0.1c0.9,0.1,1.6,0.2,2.3,0.4c1.9,0.5,3.4,1.4,4.4,2.7
					c1,1.3,1.5,2.9,1.5,4.8c0,1.1-0.2,2.1-0.5,3c-0.4,0.9-0.9,1.7-1.5,2.3c-0.7,0.7-1.4,1.2-2.3,1.6c-0.9,0.4-1.9,0.7-3,0.9v0.1
					l8.2,11.9h-3.4l-8.6-11.5H426.7z M426.7,81.5v10.2h3.4c1,0,1.9,0,2.7-0.1c0.7-0.1,1.4-0.2,2-0.4c1.2-0.4,2.1-0.9,2.7-1.7
					c0.6-0.8,1-1.8,1-3.1c0-1.2-0.3-2.2-0.9-2.9c-0.6-0.7-1.4-1.3-2.5-1.6c-0.5-0.2-1.1-0.3-1.8-0.3s-1.6-0.1-2.6-0.1H426.7z"/>
				<path class="st3" d="M448.5,106.3V78.5h3.4v27.8H448.5z"/>
				<path class="st3" d="M462.4,103.3h14.3v3.1H459V78.5h16.9v3.1h-13.5v9h12v3.1h-12V103.3z"/>
				<path class="st3" d="M485.2,85.8c0,0.8,0.2,1.5,0.5,2c0.3,0.5,0.8,1,1.3,1.3c0.6,0.3,1.2,0.6,2,0.9c0.7,0.2,1.5,0.4,2.3,0.6
					c1.1,0.3,2.1,0.6,3.2,0.9s2,0.8,2.8,1.3s1.5,1.3,2,2.2c0.5,0.9,0.8,2.1,0.8,3.5c0,1.4-0.3,2.7-0.8,3.7c-0.5,1-1.3,1.9-2.3,2.6
					c-1,0.7-2.1,1.2-3.4,1.5c-1.3,0.3-2.8,0.5-4.3,0.5c-0.7,0-1.5,0-2.2-0.1c-0.8-0.1-1.5-0.2-2.2-0.4c-0.7-0.2-1.3-0.3-1.9-0.5
					c-0.6-0.2-1-0.4-1.3-0.6v-3.1c0.5,0.2,1.1,0.5,1.7,0.7c0.6,0.2,1.3,0.4,1.9,0.5c0.7,0.1,1.3,0.3,2,0.3c0.7,0.1,1.3,0.1,1.9,0.1
					c1,0,1.9-0.1,2.8-0.2c0.9-0.2,1.7-0.4,2.3-0.8c0.7-0.4,1.2-0.9,1.6-1.6c0.4-0.7,0.6-1.5,0.6-2.5c0-0.8-0.2-1.5-0.5-2.1
					c-0.3-0.5-0.8-1-1.4-1.3c-0.6-0.4-1.2-0.6-2-0.9c-0.7-0.2-1.5-0.4-2.3-0.6c-1.1-0.2-2.1-0.5-3.2-0.8c-1-0.3-2-0.7-2.8-1.3
					c-0.8-0.6-1.5-1.3-2-2.1c-0.5-0.9-0.7-2-0.7-3.4c0-1.4,0.3-2.6,0.8-3.7c0.5-1,1.2-1.9,2.1-2.5c0.9-0.7,1.9-1.2,3.1-1.5
					c1.2-0.3,2.4-0.5,3.7-0.5c1.5,0,2.9,0.1,4.2,0.4c1.3,0.3,2.5,0.7,3.5,1.1v3.1c-1.2-0.5-2.3-0.9-3.6-1.2s-2.5-0.5-3.9-0.5
					c-1.1,0-2,0.1-2.7,0.3c-0.8,0.2-1.4,0.6-1.9,1c-0.5,0.4-0.9,0.9-1.1,1.5C485.3,84.4,485.2,85.1,485.2,85.8z"/>
			</g>
			<g>
				<path class="st3" d="M298.7,23.2c-5.1-1.9-9.6-3.5-9.6-6.1c0-2,2.9-3.4,7.3-3.4c4.7,0,9.6,1.4,18.2,5.2l2,0.9l0.1-14.7l-0.9-0.4
					C308,1.4,301.8,0,295,0C280.6,0,271,7.4,271,18.4c0,13.7,11.8,17.9,20.4,21c5.3,1.9,9.8,3.5,9.8,6.4c0,3.3-4,4-7.3,4
					c-6.2,0-11.2-1.9-19.6-7.4l-2.2-1.5v16.2l0.8,0.4c6.1,3.2,11.4,5.9,22.1,5.9c8.1,0,14.9-2.4,19.3-6.7c3.3-3.3,5-7.7,5-12.7
					C319.3,30.8,307.4,26.4,298.7,23.2z"/>
				<polygon class="st3" points="390,1 371.6,22.3 353.2,1 338.2,1 338.2,63.1 355.9,63.1 355.9,28.5 369.8,44.6 373.4,44.7 
					387.3,28.5 387.3,63.1 405,63.1 405,1 				"/>
				<polygon class="st3" points="171.6,33.9 189.3,33.6 189.3,1 171.7,1 				"/>
				<polygon class="st3" points="170.8,33.9 142,1 126.3,1 126.3,63.1 144,63.1 144,27.6 174.8,63.1 189.3,63.1 189.3,54.8 
					170.6,33.9 				"/>
				<polygon class="st3" points="467,1 447.9,1 422.8,63.1 441.6,63.1 446,51.3 446,51.3 451.1,38.2 451,38.2 457.7,20.5 
					465.1,38.2 451.2,38.2 460.4,51.3 470.6,51.3 475.5,63.1 494.6,63.1 				"/>
				<polygon class="st3" points="225.3,49.4 241.6,63.1 254.1,63.1 254.1,49.4 				"/>
				<polygon class="st3" points="225.1,38 252.2,37.9 252.2,24.3 225.1,24.3 225.1,14.7 253.5,14.7 253.5,1 207.4,1 207.4,63.1 
					225,63.1 225.1,49.4 225.1,49.4 				"/>
			</g>
		</g>
	</g>
</g>
</svg>
