<?xml version="1.0" encoding="utf-8"?>
<!-- Generator: Adobe Illustrator 26.0.1, SVG Export Plug-In . SVG Version: 6.00 Build 0)  -->
<svg version="1.1" id="Layer_1" xmlns="http://www.w3.org/2000/svg" xmlns:xlink="http://www.w3.org/1999/xlink" x="0px" y="0px"
	 viewBox="0 0 500 204.1" style="enable-background:new 0 0 500 204.1;" xml:space="preserve">
<style type="text/css">
	.st0{fill:url(#SVGID_1_);}
</style>
<g>
	<g>
		<g>
			<linearGradient id="SVGID_1_" gradientUnits="userSpaceOnUse" x1="-5.7804" y1="102.0332" x2="207.8162" y2="102.0332">
				<stop  offset="0" style="stop-color:#F39B11"/>
				<stop  offset="1" style="stop-color:#F3BE16"/>
			</linearGradient>
			<path class="st0" d="M188.6,57.4c-2.3,1.3-5.1,0.5-6.4-1.7c-1.3-2.3-0.5-5.1,1.7-6.4c2.3-1.3,5.1-0.5,6.4,1.7
				C191.7,53.3,190.9,56.1,188.6,57.4z M183.9,154.8c-2.3-1.3-3-4.2-1.7-6.4c1.3-2.3,4.2-3,6.4-1.7c2.3,1.3,3,4.2,1.7,6.4
				C189.1,155.3,186.2,156.1,183.9,154.8z M188,71.1c-2.9,1.7-6.6,0.7-8.2-2.2c-1.7-2.9-0.7-6.6,2.2-8.2c2.9-1.7,6.6-0.7,8.2,2.2
				C191.9,65.8,190.9,69.5,188,71.1z M171.8,161.1c-2.9-1.7-3.9-5.4-2.2-8.2c1.7-2.9,5.3-3.9,8.2-2.2c2.9,1.7,3.9,5.4,2.2,8.2
				C178.3,161.7,174.6,162.7,171.8,161.1z M183.2,87c-3.5,2-8,0.8-10-2.7c-2-3.5-0.8-8,2.7-10c3.5-2,8-0.8,10,2.7
				C187.9,80.4,186.7,84.9,183.2,87z M155.6,164.8c-3.5-2-4.7-6.5-2.7-10c2-3.5,6.5-4.7,10-2.7c3.5,2,4.7,6.5,2.7,10
				C163.6,165.6,159.2,166.8,155.6,164.8z M175.4,91.1c2.4,4.1,0.9,9.4-3.2,11.8c-4.1,2.4-9.4,0.9-11.8-3.2
				c-2.4-4.1-0.9-9.4,3.2-11.8C167.7,85.5,173,87,175.4,91.1L175.4,91.1z M136.3,163.3c-4.1-2.4-5.6-7.7-3.2-11.8
				c2.4-4.1,7.7-5.6,11.8-3.2c4.1,2.4,5.6,7.7,3.2,11.8C145.8,164.3,140.5,165.7,136.3,163.3z M154.7,115
				c-4.8,2.8-10.9,1.1-13.6-3.6c-2.8-4.8-1.1-10.9,3.6-13.6c4.8-2.8,10.9-1.1,13.6,3.6C161.2,106.2,159.5,112.3,154.7,115z
				 M117.1,154.2c-4.8-2.7-6.4-8.8-3.6-13.6c2.7-4.8,8.8-6.4,13.6-3.6c4.8,2.7,6.4,8.8,3.6,13.6C128,155.3,121.9,156.9,117.1,154.2z
				 M141.2,139.6c-5.5,0-10-4.5-10-10c0-5.5,4.5-10,10-10c5.5,0,10,4.5,10,10C151.1,135.2,146.7,139.6,141.2,139.6z M199.3,106.7
				c-2.6,0-4.7-2.1-4.7-4.7c0-2.6,2.1-4.7,4.7-4.7c2.6,0,4.7,2.1,4.7,4.7C204,104.6,201.9,106.7,199.3,106.7z M191.9,118.3
				c-3.3,0-6-2.7-6-6c0-3.3,2.7-6,6-6c3.3,0,6,2.7,6,6C197.9,115.6,195.3,118.3,191.9,118.3z M179.9,129.6c-4,0-7.3-3.3-7.3-7.3
				c0-4,3.3-7.3,7.3-7.3c4,0,7.3,3.3,7.3,7.3C187.2,126.3,183.9,129.6,179.9,129.6z M162.4,137.9c-4.8,0-8.6-3.9-8.6-8.6
				c0-4.8,3.9-8.6,8.6-8.6c4.8,0,8.6,3.9,8.6,8.6C171,134,167.1,137.9,162.4,137.9z M89.1,154.8c-2.8-4.8-1.1-10.9,3.6-13.6
				c4.8-2.8,10.9-1.1,13.6,3.6c2.8,4.8,1.1,10.9-3.6,13.6C97.9,161.2,91.8,159.5,89.1,154.8z M146.6,188.7c-1.3-2.3-0.5-5.1,1.7-6.4
				c2.3-1.3,5.1-0.5,6.4,1.7c1.3,2.3,0.5,5.1-1.7,6.4C150.8,191.7,147.9,190.9,146.6,188.7z M132.9,188c-1.7-2.9-0.7-6.6,2.2-8.2
				c2.9-1.7,6.6-0.7,8.2,2.2c1.7,2.9,0.7,6.6-2.2,8.2C138.3,191.9,134.6,190.9,132.9,188z M117.1,183.2c-2-3.5-0.8-8,2.7-10
				c3.5-2,8-0.8,10,2.7c2,3.5,0.8,8-2.7,10C123.6,187.9,119.1,186.7,117.1,183.2z M112.9,175.4c-4.1,2.4-9.4,0.9-11.8-3.2
				c-2.4-4.1-0.9-9.4,3.2-11.8c4.1-2.4,9.4-1,11.8,3.2C118.5,167.7,117.1,173,112.9,175.4L112.9,175.4z M49.9,117.2
				c2.7-4.8,8.8-6.4,13.6-3.6c4.8,2.7,6.4,8.8,3.6,13.6c-2.7,4.8-8.8,6.4-13.6,3.6C48.7,128,47.1,121.9,49.9,117.2z M49.3,184
				c1.3-2.3,4.2-3,6.4-1.7c2.3,1.3,3,4.2,1.7,6.4c-1.3,2.3-4.2,3-6.4,1.7C48.7,189.1,48,186.2,49.3,184z M43,171.8
				c1.7-2.9,5.4-3.9,8.2-2.2c2.9,1.7,3.9,5.4,2.2,8.2c-1.7,2.9-5.3,3.9-8.2,2.2C42.3,178.3,41.3,174.6,43,171.8z M39.2,155.7
				c2-3.5,6.5-4.7,10-2.7c3.5,2,4.7,6.5,2.7,10c-2,3.5-6.5,4.7-10,2.7C38.4,163.7,37.2,159.2,39.2,155.7z M43.9,148.1
				c-4.1-2.4-5.6-7.7-3.2-11.8c2.4-4.1,7.7-5.5,11.8-3.2c4.1,2.4,5.6,7.7,3.2,11.8C53.4,149.1,48.1,150.6,43.9,148.1L43.9,148.1z
				 M64.4,141.2c0-5.5,4.5-10,10-10c5.5,0,10,4.5,10,10c0,5.5-4.5,10-10,10C68.8,151.2,64.4,146.7,64.4,141.2z M97.3,199.4
				c0-2.6,2.1-4.7,4.7-4.7c2.6,0,4.7,2.1,4.7,4.7c0,2.6-2.1,4.7-4.7,4.7C99.4,204.1,97.3,201.9,97.3,199.4z M85.7,192
				c0-3.3,2.7-6,6-6c3.3,0,6,2.7,6,6c0,3.3-2.7,6-6,6C88.4,198,85.7,195.3,85.7,192z M74.5,179.9c0-4,3.3-7.3,7.3-7.3
				c4,0,7.3,3.3,7.3,7.3c0,4-3.3,7.3-7.3,7.3C77.7,187.2,74.5,183.9,74.5,179.9z M66.2,162.4c0-4.8,3.9-8.6,8.6-8.6
				c4.8,0,8.6,3.9,8.6,8.6c0,4.8-3.9,8.6-8.6,8.6C70,171,66.2,167.2,66.2,162.4z M103.2,135.5c-4.4-2.6-5.9-8.2-3.4-12.6
				c2.6-4.4,8.2-5.9,12.6-3.4c4.4,2.6,5.9,8.2,3.4,12.6C113.3,136.6,107.7,138.1,103.2,135.5z M78.3,127.9
				c-4.4-2.6-5.9-8.2-3.4-12.6c2.6-4.4,8.2-5.9,12.6-3.4c4.4,2.6,5.9,8.2,3.4,12.6C88.3,128.9,82.7,130.4,78.3,127.9z M72.4,102.3
				c-4.4-2.6-5.9-8.2-3.4-12.6c2.6-4.4,8.2-5.9,12.6-3.4c4.4,2.6,5.9,8.2,3.4,12.6C82.5,103.4,76.8,104.9,72.4,102.3z M91.6,84.5
				c-4.4-2.6-5.9-8.2-3.4-12.6c2.6-4.4,8.2-5.9,12.6-3.4c4.4,2.6,5.9,8.2,3.4,12.6C101.6,85.6,96,87.1,91.6,84.5z M116.6,92.2
				c-4.4-2.6-5.9-8.2-3.4-12.6c2.6-4.4,8.2-5.9,12.6-3.4c4.4,2.6,5.9,8.2,3.4,12.6C126.6,93.2,121,94.8,116.6,92.2z M122.4,117.7
				c-4.4-2.6-5.9-8.2-3.4-12.6c2.6-4.4,8.2-5.9,12.6-3.4c4.4,2.6,5.9,8.2,3.4,12.6C132.5,118.8,126.8,120.3,122.4,117.7z
				 M15.4,146.6c2.3-1.3,5.1-0.5,6.4,1.7c1.3,2.3,0.5,5.1-1.7,6.4c-2.3,1.3-5.1,0.5-6.4-1.7C12.4,150.8,13.1,147.9,15.4,146.6z
				 M20.1,49.3c2.3,1.3,3,4.2,1.7,6.4c-1.3,2.3-4.2,3-6.4,1.7c-2.3-1.3-3-4.2-1.7-6.4C15,48.8,17.8,48,20.1,49.3z M16,132.9
				c2.9-1.7,6.6-0.7,8.2,2.2c1.7,2.9,0.7,6.6-2.2,8.2c-2.9,1.7-6.6,0.7-8.2-2.2C12.2,138.3,13.2,134.6,16,132.9z M32.3,43
				c2.9,1.7,3.9,5.4,2.2,8.2c-1.7,2.9-5.4,3.9-8.2,2.2c-2.9-1.7-3.9-5.4-2.2-8.2C25.7,42.3,29.4,41.4,32.3,43z M20.8,117.1
				c3.5-2,8-0.8,10,2.7c2,3.5,0.8,8-2.7,10c-3.5,2-8,0.8-10-2.7C16.1,123.6,17.3,119.1,20.8,117.1z M48.4,39.3c3.5,2,4.7,6.5,2.7,10
				c-2,3.5-6.5,4.7-10,2.7c-3.5-2-4.7-6.5-2.7-10C40.4,38.4,44.9,37.2,48.4,39.3z M31.8,101.2c4.1-2.4,9.4-0.9,11.8,3.2
				c2.4,4.1,0.9,9.4-3.2,11.8c-4.1,2.4-9.4,0.9-11.8-3.2C26.3,108.8,27.7,103.5,31.8,101.2z M55.9,44c2.4-4.1,7.7-5.6,11.8-3.2
				c4.1,2.4,5.5,7.7,3.2,11.8c-2.4,4.1-7.7,5.6-11.8,3.2C54.9,53.4,53.5,48.1,55.9,44L55.9,44z M49.3,89.1
				c4.8-2.8,10.9-1.1,13.6,3.6c2.8,4.8,1.1,10.9-3.6,13.6c-4.8,2.8-10.9,1.1-13.6-3.6C42.9,97.9,44.5,91.8,49.3,89.1z M86.9,49.9
				c4.8,2.7,6.4,8.8,3.6,13.6c-2.7,4.8-8.8,6.4-13.6,3.6c-4.8-2.7-6.4-8.8-3.6-13.6C76,48.8,82.1,47.1,86.9,49.9z M62.9,64.4
				c5.5,0,10,4.5,10,10c0,5.5-4.5,10-10,10c-5.5,0-10-4.5-10-10C52.9,68.9,57.4,64.4,62.9,64.4z M4.7,97.3c2.6,0,4.7,2.1,4.7,4.7
				c0,2.6-2.1,4.7-4.7,4.7c-2.6,0-4.7-2.1-4.7-4.7C0,99.4,2.1,97.3,4.7,97.3z M12.1,85.8c3.3,0,6,2.7,6,6c0,3.3-2.7,6-6,6
				c-3.3,0-6-2.7-6-6C6.1,88.5,8.8,85.8,12.1,85.8z M24.2,74.5c4,0,7.3,3.3,7.3,7.3c0,4-3.3,7.3-7.3,7.3c-4,0-7.3-3.3-7.3-7.3
				C16.8,77.8,20.1,74.5,24.2,74.5z M41.7,66.2c4.8,0,8.6,3.9,8.6,8.6c0,4.8-3.9,8.6-8.6,8.6c-4.8,0-8.6-3.9-8.6-8.6
				C33,70.1,36.9,66.2,41.7,66.2z M115,49.3c2.8,4.8,1.1,10.9-3.6,13.6c-4.8,2.8-10.9,1.1-13.6-3.6c-2.8-4.8-1.1-10.9,3.6-13.6
				C106.2,42.9,112.2,44.5,115,49.3z M57.4,15.4c1.3,2.3,0.5,5.1-1.7,6.4c-2.3,1.3-5.1,0.5-6.4-1.7C48,17.8,48.7,15,51,13.7
				C53.3,12.4,56.1,13.1,57.4,15.4z M71.1,16c1.7,2.9,0.7,6.6-2.2,8.2c-2.9,1.7-6.6,0.7-8.2-2.2c-1.7-2.9-0.7-6.6,2.2-8.2
				C65.8,12.2,69.5,13.2,71.1,16z M87,20.8c2,3.5,0.8,8-2.7,10c-3.5,2-8,0.8-10-2.7c-2-3.5-0.8-8,2.7-10
				C80.4,16.1,84.9,17.3,87,20.8z M91.1,28.7c4.1-2.4,9.4-0.9,11.8,3.2c2.4,4.1,0.9,9.4-3.2,11.8c-4.1,2.4-9.4,1-11.8-3.2
				C85.5,36.4,87,31.1,91.1,28.7L91.1,28.7z M154.2,86.9c-2.7,4.8-8.8,6.4-13.6,3.6c-4.8-2.7-6.4-8.8-3.6-13.6
				c2.7-4.8,8.8-6.4,13.6-3.6C155.3,76,156.9,82.1,154.2,86.9z M154.8,20.1c-1.3,2.3-4.2,3-6.4,1.7c-2.3-1.3-3-4.2-1.7-6.4
				c1.3-2.3,4.2-3,6.4-1.7C155.3,15,156.1,17.8,154.8,20.1z M161.1,32.3c-1.7,2.9-5.3,3.9-8.2,2.2c-2.9-1.7-3.9-5.4-2.2-8.2
				c1.7-2.9,5.4-3.9,8.2-2.2C161.7,25.7,162.7,29.4,161.1,32.3z M164.8,48.4c-2,3.5-6.5,4.7-10,2.7c-3.5-2-4.7-6.5-2.7-10
				c2-3.5,6.5-4.7,10-2.7C165.6,40.4,166.8,44.9,164.8,48.4z M163.3,67.7c-2.4,4.1-7.7,5.6-11.8,3.2c-4.1-2.4-5.6-7.7-3.2-11.8
				c2.4-4.1,7.7-5.6,11.8-3.2C164.2,58.3,165.7,63.6,163.3,67.7z M139.6,62.9c0,5.5-4.5,10-10,10c-5.5,0-10-4.5-10-10
				c0-5.5,4.5-10,10-10C135.2,52.9,139.6,57.4,139.6,62.9z M106.7,4.7c0,2.6-2.1,4.7-4.7,4.7c-2.6,0-4.7-2.1-4.7-4.7
				c0-2.6,2.1-4.7,4.7-4.7C104.6,0,106.7,2.1,106.7,4.7z M118.3,12.1c0,3.3-2.7,6-6,6c-3.3,0-6-2.7-6-6s2.7-6,6-6
				C115.6,6.1,118.3,8.8,118.3,12.1z M129.6,24.2c0,4-3.3,7.3-7.3,7.3c-4,0-7.3-3.3-7.3-7.3c0-4,3.3-7.3,7.3-7.3
				C126.3,16.8,129.6,20.1,129.6,24.2z M137.9,41.7c0,4.8-3.9,8.6-8.6,8.6c-4.8,0-8.6-3.9-8.6-8.6c0-4.8,3.9-8.6,8.6-8.6
				C134,33,137.9,36.9,137.9,41.7z"/>
		</g>
		<g>
			<g>
				<path d="M331.9,119v52.3h-26.5v-48.2c0-14.8-6.8-21.6-18.5-21.6c-12.7,0-21.9,7.8-21.9,24.6v45.2h-26.5V80h25.3v10.7
					c7.1-7.8,17.8-12.1,30.2-12.1C315.6,78.6,331.9,91.2,331.9,119z"/>
				<path d="M404.1,78.6v24.5c-2.2-0.2-3.9-0.3-5.9-0.3c-14.6,0-24.3,8-24.3,25.5v43.1h-26.5V80h25.3V92
					C379.1,83.2,390,78.6,404.1,78.6z"/>
				<path d="M499.5,133.1h-69.1c2.5,11.4,12.2,18.3,26.1,18.3c9.7,0,16.6-2.9,22.9-8.8l14.1,15.3c-8.5,9.7-21.2,14.8-37.7,14.8
					c-31.6,0-52.1-19.9-52.1-47c0-27.3,20.9-47,48.7-47c26.8,0,47.5,18,47.5,47.4C500,128,499.7,130.9,499.5,133.1z M430,117.7h45
					c-1.9-11.5-10.5-19-22.4-19C440.6,98.7,431.9,106,430,117.7z"/>
			</g>
			<g>
				<g>
					<path d="M250.8,55.6v13.7h-1.6L241,59.1v10.2h-2V55.6h1.6l8.2,10.2V55.6H250.8z"/>
					<path d="M264,64.7h-8.4c0.2,1.8,1.7,3,3.8,3c1.2,0,2.2-0.4,3-1.3l1,1.2c-0.9,1.1-2.4,1.7-4.1,1.7c-3.4,0-5.6-2.2-5.6-5.3
						c0-3.1,2.2-5.3,5.2-5.3s5.1,2.2,5.1,5.4C264,64.3,264,64.6,264,64.7z M255.6,63.4h6.7c-0.2-1.7-1.5-3-3.3-3
						C257.1,60.4,255.8,61.6,255.6,63.4z"/>
					<path d="M265.3,68.2l0.8-1.5c0.9,0.6,2.3,1.1,3.6,1.1c1.7,0,2.5-0.5,2.5-1.4c0-2.3-6.6-0.3-6.6-4.5c0-1.9,1.7-3.1,4.3-3.1
						c1.4,0,2.9,0.4,3.8,0.9l-0.8,1.5c-0.9-0.6-2-0.8-3-0.8c-1.6,0-2.5,0.6-2.5,1.4c0,2.4,6.6,0.4,6.6,4.5c0,1.9-1.7,3.1-4.5,3.1
						C267.9,69.4,266.2,68.9,265.3,68.2z"/>
					<path d="M293.7,63.3v6h-1.9v-5.8c0-2-1-3-2.7-3c-1.9,0-3.1,1.2-3.1,3.5v5.4h-1.9v-5.8c0-2-1-3-2.7-3c-1.9,0-3.1,1.2-3.1,3.5
						v5.4h-1.9V58.9h1.8v1.5c0.7-1.1,2-1.6,3.6-1.6c1.6,0,2.9,0.6,3.6,1.9c0.8-1.2,2.2-1.9,4-1.9C292,58.8,293.7,60.3,293.7,63.3z"
						/>
					<path d="M305.4,63v6.3h-1.8v-1.4c-0.6,0.9-1.8,1.5-3.4,1.5c-2.4,0-3.8-1.3-3.8-3.1c0-1.7,1.1-3,4.2-3h3v-0.4
						c0-1.6-0.9-2.5-2.8-2.5c-1.2,0-2.5,0.4-3.3,1.1l-0.8-1.4c1.1-0.9,2.6-1.3,4.3-1.3C303.8,58.8,305.4,60.2,305.4,63z M303.5,66.1
						v-1.5h-2.9c-1.9,0-2.4,0.7-2.4,1.6c0,1,0.9,1.7,2.3,1.7C302,68,303.1,67.3,303.5,66.1z"/>
					<path d="M323.6,69.3l-3-4.2c-0.3,0-0.6,0-0.9,0h-3.4v4.2h-2V55.6h5.4c3.6,0,5.7,1.8,5.7,4.8c0,2.1-1.1,3.6-3,4.3l3.3,4.6H323.6
						z M323.6,60.4c0-2-1.3-3.1-3.8-3.1h-3.3v6.2h3.3C322.3,63.5,323.6,62.3,323.6,60.4z"/>
					<path d="M337.8,64.7h-8.4c0.2,1.8,1.7,3,3.8,3c1.2,0,2.2-0.4,3-1.3l1,1.2c-0.9,1.1-2.4,1.7-4.1,1.7c-3.4,0-5.6-2.2-5.6-5.3
						c0-3.1,2.2-5.3,5.2-5.3c3,0,5.1,2.2,5.1,5.4C337.8,64.3,337.8,64.6,337.8,64.7z M329.4,63.4h6.7c-0.2-1.7-1.5-3-3.3-3
						C330.9,60.4,329.6,61.6,329.4,63.4z"/>
					<path d="M350.3,63.3v6h-1.9v-5.8c0-2-1-3-2.8-3c-2,0-3.3,1.2-3.3,3.5v5.4h-1.9V58.9h1.8v1.6c0.8-1.1,2.1-1.7,3.7-1.7
						C348.5,58.8,350.3,60.3,350.3,63.3z"/>
					<path d="M363.2,64.7h-8.4c0.2,1.8,1.7,3,3.8,3c1.2,0,2.2-0.4,3-1.3l1,1.2c-0.9,1.1-2.4,1.7-4.1,1.7c-3.4,0-5.6-2.2-5.6-5.3
						c0-3.1,2.2-5.3,5.2-5.3c3,0,5.1,2.2,5.1,5.4C363.3,64.3,363.2,64.6,363.2,64.7z M354.8,63.4h6.7c-0.2-1.7-1.5-3-3.3-3
						C356.3,60.4,355,61.6,354.8,63.4z"/>
					<path d="M381.4,58.9l-3.9,10.4h-1.8l-3-7.9l-3,7.9h-1.8L364,58.9h1.8l3,8.3l3.1-8.3h1.6l3.1,8.3l3.1-8.3H381.4z"/>
					<path d="M391.2,63v6.3h-1.8v-1.4c-0.6,0.9-1.8,1.5-3.4,1.5c-2.4,0-3.8-1.3-3.8-3.1c0-1.7,1.1-3,4.2-3h3v-0.4
						c0-1.6-0.9-2.5-2.8-2.5c-1.2,0-2.5,0.4-3.3,1.1l-0.8-1.4c1.1-0.9,2.6-1.3,4.3-1.3C389.6,58.8,391.2,60.2,391.2,63z M389.3,66.1
						v-1.5h-2.9c-1.9,0-2.4,0.7-2.4,1.6c0,1,0.9,1.7,2.3,1.7C387.7,68,388.9,67.3,389.3,66.1z"/>
					<path d="M405.5,64.1c0,3.2-2.2,5.3-5.3,5.3c-1.5,0-2.9-0.6-3.7-1.8v1.6h-1.8V54.8h1.9v5.7c0.9-1.1,2.2-1.7,3.6-1.7
						C403.3,58.8,405.5,60.9,405.5,64.1z M403.6,64.1c0-2.2-1.5-3.6-3.5-3.6c-2,0-3.5,1.4-3.5,3.6c0,2.2,1.5,3.7,3.5,3.7
						C402.1,67.8,403.6,66.3,403.6,64.1z"/>
					<path d="M408.1,54.8h1.9v14.5h-1.9V54.8z"/>
					<path d="M422.9,64.7h-8.4c0.2,1.8,1.7,3,3.8,3c1.2,0,2.2-0.4,3-1.3l1,1.2c-0.9,1.1-2.4,1.7-4.1,1.7c-3.4,0-5.6-2.2-5.6-5.3
						c0-3.1,2.2-5.3,5.2-5.3c3,0,5.1,2.2,5.1,5.4C422.9,64.3,422.9,64.6,422.9,64.7z M414.5,63.4h6.7c-0.2-1.7-1.5-3-3.3-3
						C416,60.4,414.7,61.6,414.5,63.4z"/>
					<path d="M441.1,67.6v1.7h-10V55.6h9.7v1.7h-7.7v4.2h6.9v1.7h-6.9v4.4H441.1z"/>
					<path d="M453.8,63.3v6h-1.9v-5.8c0-2-1-3-2.8-3c-2,0-3.3,1.2-3.3,3.5v5.4H444V58.9h1.8v1.6c0.8-1.1,2.1-1.7,3.7-1.7
						C452,58.8,453.8,60.3,453.8,63.3z"/>
					<path d="M466.7,64.7h-8.4c0.2,1.8,1.7,3,3.8,3c1.2,0,2.2-0.4,3-1.3l1,1.2c-0.9,1.1-2.4,1.7-4.1,1.7c-3.4,0-5.6-2.2-5.6-5.3
						c0-3.1,2.2-5.3,5.2-5.3c3,0,5.1,2.2,5.1,5.4C466.8,64.3,466.8,64.6,466.7,64.7z M458.3,63.4h6.7c-0.2-1.7-1.5-3-3.3-3
						C459.8,60.4,458.5,61.6,458.3,63.4z"/>
					<path d="M475,58.8v1.8c-0.2,0-0.3,0-0.4,0c-2,0-3.3,1.2-3.3,3.5v5.2h-1.9V58.9h1.8v1.7C471.9,59.4,473.1,58.8,475,58.8z"/>
					<path d="M487.1,58.9v9c0,3.7-1.9,5.3-5.4,5.3c-1.9,0-3.8-0.5-5-1.5l0.9-1.5c1,0.8,2.5,1.4,4,1.4c2.4,0,3.6-1.1,3.6-3.5v-0.8
						c-0.9,1.1-2.3,1.6-3.7,1.6c-3,0-5.3-2-5.3-5s2.3-5,5.3-5c1.5,0,3,0.6,3.8,1.7v-1.6H487.1z M485.3,63.8c0-2-1.5-3.4-3.6-3.4
						c-2.1,0-3.6,1.4-3.6,3.4c0,2,1.5,3.4,3.6,3.4C483.8,67.2,485.3,65.8,485.3,63.8z"/>
					<path d="M499.9,58.9l-5,11.4c-0.9,2.2-2.1,2.9-3.7,2.9c-1,0-2-0.3-2.7-1l0.8-1.4c0.5,0.5,1.2,0.8,1.9,0.8c0.9,0,1.5-0.4,2-1.6
						l0.3-0.7l-4.6-10.4h2l3.6,8.3l3.6-8.3H499.9z"/>
				</g>
			</g>
			<g>
				<path d="M245.1,49.8c-2,0-3.6-0.5-4.7-1.7c-1.1-1.1-1.7-2.7-1.7-4.7c0-1.3,0.3-2.6,0.8-3.7c0.6-1.2,1.3-2.1,2.3-2.7
					c1-0.7,2.1-1,3.3-1c1.1,0,2.2,0.3,3.2,1c1,0.7,1.8,1.6,2.3,2.8c0.6,1.2,0.9,2.4,0.9,3.7c0,2.1-0.5,3.6-1.6,4.7
					C248.8,49.3,247.2,49.8,245.1,49.8z M242.4,33.7c-0.4,0-0.8-0.1-1.1-0.4c-0.3-0.3-0.4-0.7-0.4-1.3c0-0.6,0.1-1,0.4-1.3
					c0.3-0.3,0.7-0.4,1.1-0.4c0.5,0,0.8,0.1,1.1,0.4c0.3,0.3,0.4,0.7,0.4,1.2c0,0.5-0.1,0.9-0.4,1.2
					C243.2,33.5,242.9,33.7,242.4,33.7z M245.1,47.7c2.6,0,3.9-1.4,3.9-4.2c0-1.7-0.3-3-1-3.9c-0.7-1-1.7-1.4-2.9-1.4
					c-1.1,0-2,0.5-2.8,1.5c-0.7,1-1.1,2.3-1.1,3.9C241.2,46.3,242.5,47.7,245.1,47.7z M247.1,33.7c-0.5,0-0.8-0.1-1.1-0.4
					c-0.3-0.3-0.4-0.7-0.4-1.2c0-0.5,0.1-0.9,0.4-1.2c0.3-0.3,0.6-0.4,1.1-0.4c0.5,0,0.9,0.1,1.1,0.4c0.3,0.3,0.4,0.7,0.4,1.2
					c0,0.5-0.1,0.9-0.4,1.2C248,33.5,247.6,33.7,247.1,33.7z"/>
				<path d="M254.5,47.4h9.1c-0.4-2.4-1-4.5-2-6.3c-1-1.7-2.4-3.2-4.3-4.5l0.9-2.1c2.1,1.1,3.8,2.7,5.1,4.9c1.3,2.2,2.2,4.8,2.7,8
					v2.1h-11.5V47.4z"/>
				<path d="M268.4,47.4h9.1c-0.4-2.4-1-4.5-2-6.3c-1-1.7-2.4-3.2-4.3-4.5l0.9-2.1c2.1,1.1,3.8,2.7,5.1,4.9c1.3,2.2,2.2,4.8,2.7,7.9
					h3c0.1,0,0.1,0,0.1,0.1v1.9c0,0.1,0,0.1-0.1,0.1h-14.5V47.4z"/>
				<path d="M282.6,49.5c-0.1,0-0.1,0-0.1-0.1v-1.9c0-0.1,0-0.1,0.1-0.1h11.7c-0.7-0.7-1.3-2.4-1.7-5c-0.3-1.5-0.6-2.6-1.2-3.3
					c-0.5-0.6-1.3-1-2.3-1c-1.3,0-2.6,0.4-4,1.1l-0.9-1.9c0.8-0.5,1.6-0.9,2.4-1.1c0.8-0.2,1.7-0.3,2.6-0.3c1.1,0,2,0.2,2.8,0.6
					c0.7,0.4,1.3,1,1.8,1.8c0.4,0.8,0.8,1.9,1,3.4c0.4,2.9,1.1,4.7,2,5.6h1.8c0.1,0,0.1,0,0.1,0.1v1.9c0,0.1,0,0.1-0.1,0.1H282.6z
					 M289.1,55c-0.5,0-0.8-0.1-1.1-0.4c-0.3-0.3-0.4-0.7-0.4-1.2c0-0.5,0.1-0.9,0.4-1.2c0.3-0.3,0.6-0.4,1.1-0.4
					c0.5,0,0.9,0.1,1.1,0.4c0.3,0.3,0.4,0.7,0.4,1.2c0,0.5-0.1,0.9-0.4,1.2C290,54.9,289.6,55,289.1,55z"/>
				<path d="M298.4,49.5c-0.1,0-0.1,0-0.1-0.1v-1.9c0-0.1,0-0.1,0.1-0.1h4.4V36.3h2.4v11.1h4.1c0.1,0,0.1,0,0.1,0.1v1.9
					c0,0.1,0,0.1-0.1,0.1H298.4z M301.6,33.7c-0.4,0-0.8-0.1-1.1-0.4c-0.3-0.3-0.4-0.7-0.4-1.3c0-0.6,0.1-1,0.4-1.3
					c0.3-0.3,0.7-0.4,1.1-0.4c0.5,0,0.8,0.1,1.1,0.4c0.3,0.3,0.4,0.7,0.4,1.2c0,0.5-0.1,0.9-0.4,1.2
					C302.5,33.5,302.1,33.7,301.6,33.7z M306.3,33.7c-0.5,0-0.8-0.1-1.1-0.4c-0.3-0.3-0.4-0.7-0.4-1.2c0-0.5,0.1-0.9,0.4-1.2
					c0.3-0.3,0.6-0.4,1.1-0.4c0.5,0,0.9,0.1,1.1,0.4c0.3,0.3,0.4,0.7,0.4,1.2c0,0.5-0.1,0.9-0.4,1.2
					C307.2,33.5,306.8,33.7,306.3,33.7z"/>
				<path d="M309.1,49.5c-0.1,0-0.1,0-0.1-0.1v-1.9c0-0.1,0-0.1,0.1-0.1h3.4c-0.7-1.8-1-3.3-1-4.7c0-1.6,0.3-3.1,1-4.4
					c0.7-0.6,1.4-1,2.3-1.3c0.9-0.3,1.8-0.5,2.7-0.5c1.1,0,2.1,0.3,3,0.8c0.9,0.5,1.5,1.2,2,2.1c0.5,0.9,0.7,2,0.7,3.2
					c0,1.2-0.2,2.2-0.6,3.2c0.4,0.6,0.8,1,1.3,1.2c0.5,0.2,1.1,0.3,1.9,0.3h0.1c0.1,0,0.1,0,0.1,0.1v1.9c0,0.1,0,0.1-0.1,0.1h-0.1
					c-1,0-1.8-0.1-2.5-0.4c-0.7-0.3-1.3-0.7-2-1.4c-0.6,0.6-1.3,1.1-2,1.3c-0.8,0.3-1.6,0.4-2.4,0.4H309.1z M313.9,42.2
					c0,0.8,0.1,1.7,0.2,2.5c0.2,0.8,0.4,1.7,0.8,2.7h1.9c1.2,0,2.2-0.4,2.8-1.2c0.6-0.8,1-2,1-3.6c0-1.2-0.3-2.1-0.9-2.8
					c-0.6-0.7-1.4-1.1-2.3-1.1c-0.6,0-1.1,0.1-1.7,0.3c-0.6,0.2-1.1,0.5-1.5,0.8c-0.2,0.4-0.2,0.8-0.3,1.2
					C313.9,41.3,313.9,41.8,313.9,42.2z"/>
				<path d="M325.6,49.5c-0.1,0-0.1,0-0.1-0.1v-1.9c0-0.1,0-0.1,0.1-0.1h3.6V28.7h2.4v20.8H325.6z"/>
				<path d="M337.2,28.7h2.4v20.8h-2.4V28.7z"/>
				<path d="M360.4,49.5c-2.2,0-3.9-0.6-5.1-1.7c-1.2-1.1-1.8-2.7-1.8-4.7c0-2.2,0.7-3.9,2-5.1c1.4-1.2,3.2-1.9,5.5-1.9h1.8v-1.7
					h2.3v12.9h3.1c0.1,0,0.1,0,0.1,0.1v1.9c0,0.1,0,0.1-0.1,0.1H360.4z M362.7,47.4v-9H361c-1.6,0-2.9,0.4-3.8,1.3
					c-0.9,0.8-1.3,2-1.3,3.5c0,1.4,0.4,2.4,1.2,3.1c0.8,0.7,1.9,1.1,3.3,1.1H362.7z M358.9,32c-0.4,0-0.8-0.1-1.1-0.4
					c-0.3-0.3-0.4-0.7-0.4-1.3s0.1-1,0.4-1.3c0.3-0.3,0.7-0.4,1.1-0.4c0.5,0,0.8,0.1,1.1,0.4c0.3,0.3,0.4,0.7,0.4,1.2
					c0,0.5-0.1,0.9-0.4,1.2C359.8,31.9,359.4,32,358.9,32z M363.7,32c-0.5,0-0.8-0.1-1.1-0.4c-0.3-0.3-0.4-0.7-0.4-1.2
					c0-0.5,0.1-0.9,0.4-1.2c0.3-0.3,0.6-0.4,1.1-0.4c0.5,0,0.9,0.1,1.1,0.4c0.3,0.3,0.4,0.7,0.4,1.2c0,0.5-0.1,0.9-0.4,1.2
					C364.5,31.9,364.2,32,363.7,32z"/>
				<path d="M367.9,49.5c-0.1,0-0.1,0-0.1-0.1v-1.9c0-0.1,0-0.1,0.1-0.1h4.2c-0.5-0.5-0.8-1.2-1.1-1.9c-0.2-0.7-0.4-1.5-0.4-2.2
					c0-2.1,0.7-3.8,2-5.1s3.2-1.9,5.5-1.9h3.6v13.3H367.9z M379.4,47.4v-9h-1.2c-1.6,0-2.9,0.4-3.8,1.3c-0.9,0.8-1.4,2-1.4,3.6
					c0,2.8,1.2,4.2,3.7,4.2H379.4z M374.8,33.7c-0.4,0-0.8-0.1-1.1-0.4c-0.3-0.3-0.4-0.7-0.4-1.3c0-0.6,0.1-1,0.4-1.3
					c0.3-0.3,0.7-0.4,1.1-0.4c0.5,0,0.8,0.1,1.1,0.4c0.3,0.3,0.4,0.7,0.4,1.2c0,0.5-0.1,0.9-0.4,1.2
					C375.7,33.5,375.3,33.7,374.8,33.7z M379.6,33.7c-0.5,0-0.8-0.1-1.1-0.4c-0.3-0.3-0.4-0.7-0.4-1.2c0-0.5,0.1-0.9,0.4-1.2
					c0.3-0.3,0.6-0.4,1.1-0.4c0.5,0,0.9,0.1,1.1,0.4c0.3,0.3,0.4,0.7,0.4,1.2c0,0.5-0.1,0.9-0.4,1.2
					C380.4,33.5,380.1,33.7,379.6,33.7z"/>
				<path d="M386.8,28.7h2.4v18.7h3.6c0.1,0,0.1,0,0.1,0.1v1.9c0,0.1-0.1,0.1-0.1,0.1h-6V28.7z"/>
				<path d="M392.6,49.5c-0.1,0-0.1,0-0.1-0.1v-1.9c0-0.1,0-0.1,0.1-0.1h3.3V28.7h2.3v13.4c0.9-2,1.9-3.6,3.2-4.6
					c1.3-1,2.7-1.5,4.4-1.5c2.1,0,3.6,0.6,4.7,1.7c1.1,1.1,1.6,2.9,1.6,5.3v4.5h3.6c0.1,0,0.1,0,0.1,0.1v1.9c0,0.1,0,0.1-0.1,0.1
					H392.6z M409.7,47.4V43c0-1.7-0.4-2.9-1.1-3.7c-0.7-0.8-1.8-1.2-3.3-1.2c-2.8,0-5.2,2.3-7.1,7v2.2H409.7z"/>
				<path d="M415.4,49.5c-0.1,0-0.1,0-0.1-0.1v-1.9c0-0.1,0-0.1,0.1-0.1h3.6V28.7h2.4v18.7h3.6c0.1,0,0.1,0,0.1,0.1v1.9
					c0,0.1,0,0.1-0.1,0.1H415.4z"/>
				<path d="M424.7,49.5c-0.1,0-0.1,0-0.1-0.1v-1.9c0-0.1,0-0.1,0.1-0.1h3.6V28.7h2.4v20.8H424.7z"/>
				<path d="M445.6,28.7h2.4v18.7h3.6c0.1,0,0.1,0,0.1,0.1v1.9c0,0.1-0.1,0.1-0.1,0.1h-6V28.7z"/>
				<path d="M451.3,49.5c-0.1,0-0.1,0-0.1-0.1v-1.9c0-0.1,0-0.1,0.1-0.1h3.4c-0.7-1.8-1-3.3-1-4.7c0-1.6,0.3-3.1,1-4.4
					c0.7-0.6,1.4-1,2.3-1.3c0.9-0.3,1.8-0.5,2.7-0.5c1.1,0,2.1,0.3,3,0.8c0.9,0.5,1.5,1.2,2,2.1c0.5,0.9,0.7,2,0.7,3.2
					c0,1.2-0.2,2.2-0.6,3.2c0.4,0.6,0.8,1,1.3,1.2c0.5,0.2,1.1,0.3,1.9,0.3h0.1c0.1,0,0.1,0,0.1,0.1v1.9c0,0.1,0,0.1-0.1,0.1H468
					c-1,0-1.8-0.1-2.5-0.4c-0.7-0.3-1.3-0.7-2-1.4c-0.6,0.6-1.3,1.1-2,1.3c-0.8,0.3-1.6,0.4-2.4,0.4H451.3z M456.2,42.2
					c0,0.8,0.1,1.7,0.2,2.5c0.2,0.8,0.4,1.7,0.8,2.7h1.9c1.2,0,2.2-0.4,2.8-1.2c0.6-0.8,1-2,1-3.6c0-1.2-0.3-2.1-0.9-2.8
					c-0.6-0.7-1.4-1.1-2.3-1.1c-0.6,0-1.1,0.1-1.7,0.3c-0.6,0.2-1.1,0.5-1.5,0.8c-0.2,0.4-0.2,0.8-0.3,1.2
					C456.2,41.3,456.2,41.8,456.2,42.2z"/>
				<path d="M485.8,49.5c-0.8,0-1.6-0.1-2.3-0.4s-1.4-0.8-2.1-1.5c-0.4,0.6-0.9,1-1.6,1.4c-0.7,0.4-1.5,0.5-2.4,0.5h-9.4
					c-0.1,0-0.1,0-0.1-0.1v-1.9c0-0.1,0-0.1,0.1-0.1h3.9v-9h2.3v9h3c0.9,0,1.6-0.3,2.1-0.9c0.5-0.6,0.7-1.3,0.7-2.3v-5.8h2.3V45
					l0,0.3c0.5,0.8,1,1.3,1.5,1.6c0.5,0.3,1.2,0.5,2.1,0.5h1.7V36.3h2.3v11.1h3.7c0.1,0,0.1,0,0.1,0.1v1.9c0,0.1-0.1,0.1-0.1,0.1
					H485.8z"/>
				<path d="M493.1,49.5c-0.1,0-0.1,0-0.1-0.1v-1.9c0-0.1,0-0.1,0.1-0.1h3.6V36.3h2.4v13.3H493.1z M498,33.7c-0.5,0-0.8-0.1-1.1-0.4
					c-0.3-0.3-0.4-0.7-0.4-1.2c0-0.5,0.1-0.9,0.4-1.2c0.3-0.3,0.6-0.4,1.1-0.4c0.5,0,0.9,0.1,1.1,0.4c0.3,0.3,0.4,0.7,0.4,1.2
					c0,0.5-0.1,0.9-0.4,1.2C498.8,33.5,498.4,33.7,498,33.7z"/>
			</g>
		</g>
	</g>
</g>
</svg>
