<?xml version="1.0" encoding="utf-8"?>
<!-- Generator: Adobe Illustrator 26.0.1, SVG Export Plug-In . SVG Version: 6.00 Build 0)  -->
<svg version="1.1" id="Layer_1" xmlns="http://www.w3.org/2000/svg" xmlns:xlink="http://www.w3.org/1999/xlink" x="0px" y="0px"
	 viewBox="0 0 500 81" style="enable-background:new 0 0 500 81;" xml:space="preserve">
<style type="text/css">
	.st0{fill:#0071C0;}
	.st1{fill:#424448;}
</style>
<g>
	<rect x="49.6" y="0.7" class="st0" width="39" height="36.4"/>
	<polygon class="st1" points="65.8,46.5 65.8,60.1 22.8,60.1 22.8,21.3 37.8,21.3 37.8,0.7 0,0.7 0,80.7 88.6,80.7 88.6,46.5 	"/>
	<g>
		<path class="st1" d="M113.9,0.7h14.7L143.1,30h0.1L143,0.7h10.5v43.1h-14.3l-15.1-29.5h-0.1l0.4,29.5h-10.6V0.7z"/>
		<path class="st1" d="M161.4,0.7h30.4v8.2h-18.9v8.9h17.8v8.1h-17.8v9.8h19.6v8.1h-31.1V0.7z"/>
		<path class="st1" d="M199.6,33.2c1.5,0.8,3.3,1.5,5.3,2c2,0.5,4.2,0.8,6.6,0.8c0.9,0,1.8-0.1,2.7-0.2c0.9-0.1,1.6-0.3,2.3-0.6
			c0.7-0.3,1.2-0.7,1.6-1.3c0.4-0.5,0.6-1.3,0.6-2.1c0-1.4-0.5-2.4-1.5-3.1c-1-0.7-2.3-1.3-3.8-1.8c-1.5-0.5-3.1-1-4.9-1.5
			c-1.8-0.5-3.4-1.2-4.9-2.2c-1.5-0.9-2.8-2.2-3.8-3.7c-1-1.6-1.5-3.7-1.5-6.3c0-2.6,0.6-4.7,1.7-6.5c1.1-1.7,2.6-3,4.4-4
			c1.8-1,3.8-1.7,6-2.1c2.2-0.4,4.4-0.6,6.6-0.6c2.1,0,4.1,0.1,6,0.4c1.9,0.3,3.6,0.7,5,1.2l-0.7,8.9c-1.5-0.7-3.1-1.2-4.7-1.5
			c-1.6-0.3-3.3-0.5-4.9-0.5c-0.7,0-1.5,0-2.4,0.1c-0.9,0.1-1.7,0.2-2.5,0.5c-0.8,0.3-1.4,0.7-2,1.2c-0.5,0.5-0.8,1.3-0.8,2.2
			c0,1.1,0.5,2,1.5,2.7c1,0.6,2.3,1.1,3.8,1.6c1.5,0.5,3.1,0.9,4.9,1.4c1.7,0.5,3.4,1.2,4.9,2.1c1.5,0.9,2.8,2.2,3.8,3.8
			c1,1.6,1.5,3.7,1.5,6.2c0,2.8-0.5,5.1-1.6,6.9c-1.1,1.8-2.5,3.3-4.3,4.4c-1.8,1.1-3.8,1.8-6.1,2.3c-2.3,0.4-4.6,0.6-7,0.6
			c-1,0-2.1,0-3.1-0.1c-1.1-0.1-2.2-0.2-3.3-0.4c-2.3-0.3-4.5-0.8-6.4-1.4L199.6,33.2z"/>
		<path class="st1" d="M236.9,0.7H255l9.1,28.7h0.1l9.6-28.7h17.4v43.1h-11.2l0.2-33.1H280l-11,33.1h-10.6L248,10.7h-0.2l0.3,33.1
			h-11.2V0.7z"/>
		<path class="st1" d="M311.8,0.7h14.1l16.6,43.1h-12.6l-3.2-9.2h-16.2l-3.4,9.2h-11.7L311.8,0.7z M318.8,9.6h-0.2l-5.5,16.9h10.8
			L318.8,9.6z"/>
		<path class="st0" d="M360,9.3h-10.6V0.7h32.7v8.5h-10.6v34.6H360V9.3z"/>
		<path class="st0" d="M395.2,0.7h14.1l16.6,43.1h-12.6l-3.2-9.2h-16.2l-3.4,9.2h-11.7L395.2,0.7z M402.3,9.6h-0.2l-5.5,16.9h10.8
			L402.3,9.6z"/>
		<path class="st0" d="M433.6,9.3H423V0.7h32.7v8.5h-10.6v34.6h-11.5V9.3z"/>
		<path class="st0" d="M468.8,0.7h14.1l16.6,43.1h-12.6l-3.2-9.2h-16.2l-3.4,9.2h-11.7L468.8,0.7z M475.9,9.6h-0.2l-5.5,16.9H481
			L475.9,9.6z"/>
	</g>
	<g>
		<path class="st1" d="M114.2,60.2h5.3c1,0,2,0.1,3,0.3c1,0.2,2,0.5,2.9,1c0.5,0.2,0.9,0.5,1.2,0.9c0.3,0.4,0.6,0.7,0.8,1.2
			c0.2,0.4,0.4,0.9,0.4,1.4c0.1,0.5,0.1,1,0.1,1.5c0,1.2-0.2,2.2-0.6,3c-0.4,0.8-1,1.5-1.7,2c-0.7,0.5-1.5,0.9-2.5,1.1
			c-1,0.2-2,0.3-3,0.3h-1.8v7.8h-4.1V60.2z M118.4,69.6h1.5c0.5,0,1,0,1.5-0.2c0.5-0.1,0.9-0.3,1.2-0.5c0.3-0.2,0.6-0.5,0.8-0.9
			c0.2-0.4,0.3-0.9,0.3-1.5c0-0.6-0.1-1.1-0.3-1.5c-0.2-0.4-0.5-0.7-0.8-1c-0.4-0.2-0.8-0.4-1.2-0.5c-0.5-0.1-1-0.2-1.5-0.2h-1.4
			V69.6z"/>
		<path class="st1" d="M140.1,60.2h5.6c0.7,0,1.4,0,2,0c0.7,0,1.3,0.1,2,0.2c0.6,0.1,1.2,0.3,1.8,0.5c0.5,0.2,1,0.6,1.4,1
			c0.4,0.4,0.7,0.9,0.9,1.5c0.2,0.6,0.3,1.4,0.3,2.3c0,0.7-0.1,1.2-0.3,1.8c-0.2,0.5-0.5,1-0.9,1.4c-0.4,0.4-0.8,0.7-1.3,1
			c-0.5,0.3-1.1,0.4-1.7,0.5v0.1c0.3,0,0.5,0.1,0.8,0.3c0.2,0.1,0.4,0.3,0.6,0.5c0.2,0.2,0.3,0.4,0.5,0.6c0.1,0.2,0.2,0.5,0.4,0.7
			l3.3,8h-4.6l-2.5-6.4c-0.2-0.4-0.3-0.7-0.5-1s-0.3-0.5-0.5-0.7c-0.2-0.2-0.5-0.3-0.8-0.4c-0.3-0.1-0.7-0.1-1.1-0.1h-1.3v8.5h-4.1
			V60.2z M144.2,68.9h1.3c0.3,0,0.7,0,1.1,0c0.4,0,0.8-0.1,1.1-0.2c0.4-0.1,0.7-0.2,1-0.4c0.3-0.2,0.6-0.4,0.8-0.7
			c0.1-0.2,0.2-0.4,0.3-0.7c0-0.3,0.1-0.5,0.1-0.8c0-0.7-0.1-1.2-0.4-1.5c-0.3-0.4-0.6-0.6-1-0.8c-0.4-0.2-0.9-0.3-1.4-0.3
			c-0.5,0-1,0-1.5,0h-1.3V68.9z"/>
		<path class="st1" d="M165.5,70.4c0-1.6,0.2-3,0.7-4.3c0.4-1.3,1.1-2.4,1.9-3.3c0.9-0.9,1.9-1.6,3.2-2.1c1.3-0.5,2.7-0.8,4.3-0.8
			c1.6,0,3,0.3,4.3,0.8c1.2,0.5,2.3,1.2,3.1,2.2c0.9,0.9,1.5,2,1.9,3.3c0.4,1.3,0.7,2.7,0.7,4.3c0,1.6-0.2,3-0.7,4.3
			c-0.4,1.3-1.1,2.4-1.9,3.4c-0.8,0.9-1.9,1.7-3.1,2.2c-1.3,0.5-2.7,0.8-4.3,0.8c-1.6,0-3.1-0.3-4.3-0.8c-1.3-0.5-2.3-1.3-3.2-2.2
			c-0.9-0.9-1.5-2.1-1.9-3.4C165.7,73.4,165.5,71.9,165.5,70.4z M175.6,63c-1,0-1.9,0.2-2.6,0.7c-0.7,0.4-1.3,1-1.8,1.7
			c-0.5,0.7-0.8,1.5-1,2.4c-0.2,0.9-0.3,1.8-0.3,2.7c0,0.9,0.1,1.8,0.3,2.7c0.2,0.9,0.6,1.7,1,2.4c0.5,0.7,1.1,1.2,1.8,1.7
			c0.7,0.4,1.6,0.6,2.6,0.6c1.1,0,1.9-0.2,2.7-0.6c0.7-0.4,1.3-1,1.8-1.7c0.5-0.7,0.8-1.5,1-2.4c0.2-0.9,0.3-1.8,0.3-2.7
			c0-0.9-0.1-1.8-0.3-2.7c-0.2-0.9-0.5-1.7-1-2.3c-0.5-0.7-1.1-1.2-1.8-1.7C177.5,63.2,176.6,63,175.6,63z"/>
		<path class="st1" d="M196.4,77.1c0.3,0.1,0.6,0.2,1,0.3c0.3,0,0.7,0.1,1,0.1c0.6,0,1-0.1,1.4-0.3c0.3-0.2,0.6-0.4,0.8-0.7
			c0.2-0.3,0.3-0.7,0.4-1.1c0.1-0.4,0.1-0.9,0.1-1.4V60.2h4.1v15.6c0,0.8-0.1,1.6-0.4,2.2c-0.3,0.6-0.7,1.2-1.2,1.6
			c-0.5,0.4-1.1,0.8-1.8,1c-0.7,0.2-1.4,0.4-2.2,0.4c-0.5,0-1.1,0-1.6-0.1c-0.5-0.1-1-0.2-1.6-0.3V77.1z"/>
		<path class="st1" d="M218.4,60.2h12.1v3.2h-8v5h7.3v3.2h-7.3v5.8h8v3.2h-12.2V60.2z"/>
		<path class="st1" d="M257.8,80.4c-0.8,0.2-1.5,0.4-2.3,0.5c-0.8,0.1-1.6,0.2-2.4,0.2c-0.7,0-1.5,0-2.2-0.1s-1.4-0.2-2.1-0.4
			c-0.7-0.2-1.3-0.5-2-0.8c-0.6-0.3-1.2-0.7-1.8-1.2c-0.6-0.5-1.1-1-1.5-1.6c-0.4-0.6-0.7-1.2-1-1.8c-0.2-0.7-0.4-1.3-0.5-2.1
			c-0.1-0.7-0.2-1.4-0.2-2.2c0-0.5,0-1.1,0.1-1.6c0.1-0.5,0.2-1.1,0.3-1.6c0.3-1.4,0.8-2.6,1.4-3.6c0.7-1,1.5-1.8,2.4-2.4
			c0.9-0.6,2-1.1,3.2-1.3c1.2-0.3,2.5-0.4,3.8-0.4c0.8,0,1.6,0.1,2.4,0.2c0.8,0.2,1.5,0.4,2.3,0.6l-0.3,3.5
			c-0.4-0.2-0.8-0.4-1.1-0.5c-0.3-0.1-0.7-0.2-1-0.3c-0.3-0.1-0.7-0.1-1.1-0.2c-0.4,0-0.8-0.1-1.2-0.1c-1.1,0-2,0.2-2.9,0.6
			c-0.9,0.4-1.6,0.9-2.2,1.6c-0.6,0.7-1,1.5-1.3,2.4c-0.3,0.9-0.5,1.9-0.5,2.9c0,1.1,0.2,2,0.5,2.9c0.3,0.9,0.8,1.7,1.4,2.3
			c0.6,0.6,1.3,1.2,2.2,1.5c0.9,0.4,1.8,0.6,2.9,0.6c0.3,0,0.7,0,1.1,0c0.4,0,0.8-0.1,1.2-0.2c0.4-0.1,0.8-0.2,1.2-0.3
			c0.4-0.1,0.7-0.2,1-0.4L257.8,80.4z"/>
		<path class="st1" d="M273.4,63.4h-5.9v-3.2h15.9v3.2h-5.9v17.3h-4.1V63.4z"/>
		<path class="st1" d="M305.8,63.9c-0.7-0.3-1.3-0.5-2-0.7c-0.7-0.2-1.4-0.2-2.1-0.2c-0.5,0-0.9,0.1-1.3,0.2c-0.4,0.1-0.7,0.3-1,0.5
			c-0.3,0.2-0.5,0.5-0.7,0.9c-0.2,0.4-0.3,0.8-0.3,1.3c0,0.4,0.1,0.7,0.3,1c0.2,0.3,0.5,0.5,0.8,0.7c0.3,0.2,0.7,0.4,1.2,0.6
			c0.4,0.2,0.9,0.4,1.4,0.6c0.5,0.2,1,0.4,1.5,0.6c0.5,0.2,1,0.5,1.4,0.8c0.4,0.3,0.9,0.7,1.2,1c0.4,0.4,0.7,0.9,0.9,1.4
			c0.1,0.3,0.2,0.7,0.3,1.1c0,0.4,0.1,0.8,0.1,1.1c0,1.1-0.2,2.1-0.6,2.9c-0.4,0.8-1,1.4-1.7,1.9c-0.7,0.5-1.5,0.8-2.5,1.1
			c-0.9,0.2-1.9,0.3-2.9,0.3c-0.9,0-1.8-0.1-2.7-0.2c-0.9-0.2-1.7-0.3-2.6-0.6l0.4-3.7c0.7,0.4,1.5,0.7,2.2,0.9
			c0.8,0.2,1.6,0.3,2.4,0.3c0.4,0,0.8,0,1.2-0.2c0.4-0.1,0.8-0.3,1.2-0.5c0.4-0.2,0.6-0.5,0.9-0.8c0.2-0.3,0.3-0.7,0.3-1.2
			c0-0.2,0-0.4-0.1-0.7c-0.1-0.2-0.1-0.4-0.3-0.6c-0.1-0.2-0.3-0.3-0.5-0.5c-0.2-0.2-0.4-0.3-0.6-0.4c-0.5-0.3-1-0.5-1.5-0.7
			c-0.5-0.2-1-0.4-1.6-0.6c-0.3-0.1-0.5-0.2-0.8-0.4c-0.3-0.1-0.5-0.3-0.8-0.5c-0.5-0.3-0.9-0.6-1.3-0.9c-0.4-0.3-0.7-0.7-0.9-1
			c-0.2-0.4-0.4-0.8-0.6-1.3c-0.1-0.5-0.2-1-0.2-1.6c0-0.5,0-0.9,0.1-1.4c0.1-0.5,0.2-0.9,0.4-1.3c0.2-0.4,0.4-0.8,0.7-1.2
			c0.3-0.4,0.6-0.7,1-1c0.7-0.5,1.5-0.8,2.3-1.1s1.7-0.3,2.6-0.3c0.8,0,1.7,0.1,2.5,0.2c0.8,0.1,1.6,0.3,2.4,0.6L305.8,63.9z"/>
		<path class="st1" d="M337.6,60.2h4.1v17.3h8v3.2h-12.1V60.2z"/>
		<path class="st1" d="M361.4,60.2h4.1v20.5h-4.1V60.2z"/>
		<path class="st1" d="M378.8,60.2h6.6l4.9,15.5h0.1l4.9-15.5h6.6v20.5h-3.9V63.7h-0.1l-5.5,16.9h-3.9l-5.5-16.9l-0.1,0.1v16.9h-3.9
			V60.2z"/>
		<path class="st1" d="M414.9,60.2h4.1v20.5h-4.1V60.2z"/>
		<path class="st1" d="M436,63.4h-5.9v-3.2H446v3.2h-5.9v17.3H436V63.4z"/>
		<path class="st1" d="M457.4,60.2h12.1v3.2h-8v5h7.3v3.2h-7.3v5.8h8v3.2h-12.2V60.2z"/>
		<path class="st1" d="M482.6,60.2h5.9c0.7,0,1.4,0,2.1,0.1c0.7,0.1,1.4,0.2,2.1,0.4c0.7,0.2,1.4,0.4,2,0.6c0.6,0.3,1.3,0.6,1.8,1
			c0.7,0.5,1.3,1,1.7,1.6c0.5,0.6,0.8,1.3,1.1,2c0.3,0.7,0.5,1.5,0.6,2.2c0.1,0.8,0.2,1.6,0.2,2.3c0,1.9-0.3,3.5-0.9,4.8
			c-0.6,1.3-1.4,2.4-2.4,3.2c-1,0.8-2.3,1.4-3.7,1.7c-1.5,0.4-3.1,0.5-4.8,0.5h-5.6V60.2z M486.7,77.4h2.3c1,0,1.9-0.2,2.8-0.5
			c0.8-0.4,1.5-0.9,2.1-1.5c0.6-0.6,1.1-1.4,1.4-2.2c0.3-0.9,0.5-1.8,0.5-2.8c0-1-0.2-1.9-0.5-2.8c-0.3-0.9-0.8-1.6-1.4-2.2
			c-0.6-0.6-1.3-1.1-2.1-1.5c-0.8-0.4-1.8-0.5-2.8-0.5h-2.3V77.4z"/>
	</g>
</g>
</svg>
