<?xml version="1.0" encoding="utf-8"?>
<!-- Generator: Adobe Illustrator 26.0.1, SVG Export Plug-In . SVG Version: 6.00 Build 0)  -->
<svg version="1.1" id="Layer_1" xmlns="http://www.w3.org/2000/svg" xmlns:xlink="http://www.w3.org/1999/xlink" x="0px" y="0px"
	 viewBox="0 0 500 341" style="enable-background:new 0 0 500 341;" xml:space="preserve">
<style type="text/css">
	.st0{fill:#368930;}
	.st1{fill:#005897;}
	.st2{fill:#47545D;}
</style>
<g>
	<g>
		<g>
			<g>
				<path class="st0" d="M142.1,243.6c1.6,0,2.8-1.3,2.8-2.8c0-1.6-1.2-2.8-2.8-2.8c-1.6,0-2.8,1.3-2.8,2.8
					C139.3,242.4,140.5,243.6,142.1,243.6z"/>
			</g>
			<g>
				<path class="st0" d="M73.4,243.6c1.6,0,3-1.3,3-3c0-1.7-1.4-3-3-3c-1.6,0-3,1.4-3,3C70.5,242.3,71.8,243.6,73.4,243.6z"/>
			</g>
			<g>
				<path class="st0" d="M149.5,243.6c1.6,0,2.8-1.3,2.8-2.8c0-1.6-1.3-2.8-2.8-2.8c-1.6,0-2.8,1.3-2.8,2.8
					C146.6,242.4,147.9,243.6,149.5,243.6z"/>
			</g>
			<g>
				<path class="st0" d="M180.8,236.5v30.1h-22.2v-18.6h-5.3v18.6h-22.6c1.8-2.2,2.7-5,2.7-8.2c0-6.9-3.5-11-10-11
					c-5.4,0-10.7,3.6-12.8,10.2h-0.1c0.4-2.5,0.5-5.6,0.5-8v-1.6h-5.3v18.6H83.5v-18.6h-5.3v18.6H50.7v-18.6h-5.3v18.6H26.5
					c-2.8,0-5-0.9-7.1-2.3c3.5-2.2,6.2-5,6.2-9.3c0-4.1-2.9-7.8-9.8-7.8c-4.8,0-10.2,2.9-14,5.6l-0.4,3.8c4.2,1.3,7.2,4.2,10.2,7.1
					C6.1,266.3,0,268.9,0,274.8c0,4.6,3.9,8.4,13.5,8.4c4.1,0,8.4-0.8,8.4-0.8l-0.3-4c0,0-3.7,0.6-7.5,0.6c-6.4,0-8.7-2-8.7-4.8
					c0-3.4,4.7-5.3,9.5-7.6c2.9,2.3,6.2,4.1,10.9,4.1h160.2v-34.3H180.8z M16,261.5c-2.9-2.6-5.6-5.5-9.2-6.9c2-1.4,5.5-3.5,8.5-3.5
					c3.5,0,5,2,5,4.5C20.3,258.2,18.5,260,16,261.5z M119.4,266.5h-8.5c0.9-7.4,5.4-15,11.4-15c3.7,0,5.5,2.7,5.5,7.2
					C127.9,263,126.1,266.5,119.4,266.5z"/>
			</g>
			<g>
				<path class="st0" d="M36.9,277.9c0-1.6-1.3-2.8-2.8-2.8c-1.6,0-2.8,1.3-2.8,2.8c0,1.6,1.2,2.8,2.8,2.8
					C35.7,280.7,36.9,279.4,36.9,277.9z"/>
			</g>
			<g>
				<path class="st0" d="M41.5,275c-1.6,0-2.8,1.3-2.8,2.8c0,1.6,1.2,2.8,2.8,2.8c1.6,0,2.8-1.3,2.8-2.8C44.3,276.3,43,275,41.5,275
					z"/>
			</g>
			<g>
				<rect x="194.8" y="236.5" class="st0" width="5.4" height="34.3"/>
			</g>
		</g>
		<g>
			<g>
				<path class="st0" d="M495.7,237.6c-1.6,0-3,1.4-3,3c0,1.6,1.4,3,3,3c1.6,0,3-1.3,3-3C498.6,239,497.3,237.6,495.7,237.6z"/>
			</g>
			<g>
				<path class="st0" d="M493,247.9v18.6h-21.9c0.2-2.3,0.3-4.7,0.3-6.8c0-5.1-0.7-9.9-1.7-13.6l-5.2,0.8c0.9,3.6,1.5,8.2,1.5,13.2
					c0,1.7-0.1,4.3-0.3,6.4h-1.5c-4.9,0-6.6-0.8-6.6-5.3v-12.4h-5.2v11c0,5.5-1.8,7.1-4.6,7.1c-3.5,0-3.7-2.4-3.7-7.2v-8.9h-5.4v9.3
					c0,5-1.4,6.4-4.8,6.4h-16.3v-8.2c0-6.9-3.5-11-10.7-11c-8.2,0-12.4,5.6-12.4,11.9c0,5.8-2.1,7.3-5.3,7.3h-16.1v-30.1H368v34.3
					h22.2c4,0,6.2-1.8,7-4.2c1.7,2.5,4,4.2,11.1,4.2h25.9c3.6,0,5.5-1.3,6.5-3.7c0.7,2.4,3.1,4,6.4,4c4.1,0,6.5-1.9,7.4-4
					c1.4,2.9,4,3.7,9.6,3.7h34.3v-22.9H493z M412.5,266.5h-4.3c-5.7,0-8.2-2.5-8.2-7.6c0-4.4,2.5-7.4,6.6-7.4c3.7,0,5.9,2.2,5.9,7.5
					V266.5z"/>
			</g>
		</g>
		<g>
			<g>
				<path class="st0" d="M329.8,284.2h11.7v-3h-3c-2.3,0-3.2-0.6-3.2-1.6c0-0.9,0.8-1.5,2.2-1.5c1.1,0,1.9,0.1,2.4,0.3l0.5-3
					c-0.5-0.1-1.6-0.3-2.7-0.3c-4.2,0-6.2,2.1-6.2,4.5c0,1,0.5,1.6,1,1.9c-0.7-0.1-1.8-0.2-2.8-0.2V284.2z"/>
			</g>
			<g>
				<path class="st0" d="M267.5,268c0-12.2-5.3-18.1-15.9-21.1l-1.3,4.5c8.2,2.3,11.7,7,11.9,15.2h-15.1v4.2h20.3V268z"/>
			</g>
			<g>
				<polygon class="st0" points="339,262.5 331.5,236.2 326.2,236.9 333.5,262.5 				"/>
			</g>
			<g>
				<polygon class="st0" points="343.3,266.5 328.2,266.5 328.2,270.8 348.6,270.8 348.6,236.5 343.3,236.5 				"/>
			</g>
			<g>
				<path class="st0" d="M233.5,243.1c1.6,0,2.8-1.3,2.8-2.8c0-1.6-1.3-2.8-2.8-2.8c-1.6,0-2.8,1.3-2.8,2.8
					C230.6,241.8,231.9,243.1,233.5,243.1z"/>
			</g>
			<g>
				<path class="st0" d="M230.4,247.3c-8.2,0-12.4,5.6-12.4,12.2c0,6.9,3.5,11.3,12.9,11.3h10.2v-12.4
					C241.1,251.5,237.7,247.3,230.4,247.3z M235.9,266.5h-4.3c-5.7,0-8.1-2.5-8.1-7.6c0-4.4,2.5-7.4,6.6-7.4c3.7,0,5.9,2.2,5.9,7.5
					V266.5z"/>
			</g>
			<g>
				<path class="st0" d="M305.7,258.4c0-4.3,2.7-6.9,6.8-6.9c3,0,5.5,1.1,5.5,1.1l1-4.3c0,0-2.8-1-6.2-1c-8.3,0-12.3,5.2-12.3,11.2
					c0,3.7,2,6.8,4.6,8h-8h-0.7h-4.6h-0.7h-4.6h-0.8h-5v-30.1h-5.4v34.3h10.3h0.8h4.6h0.7h4.6h0.7h24.8v-4.2h-3.9
					C309.3,266.5,305.7,263,305.7,258.4z"/>
			</g>
			<g>
				<path class="st0" d="M226.1,243.1c1.6,0,2.8-1.3,2.8-2.8c0-1.6-1.2-2.8-2.8-2.8c-1.6,0-2.8,1.3-2.8,2.8
					C223.3,241.8,224.5,243.1,226.1,243.1z"/>
			</g>
		</g>
		<g>
			<g>
				<path class="st0" d="M380.1,324.4c-7.1,0-10.4-4.4-10.4-12c0-6.8,3.1-12,10-12c2.3,0,4.7,0.4,6.9,1.3l0.8-4.8
					c-2.2-0.7-4.8-1-7.3-1c-11,0-16.2,7.4-16.2,17.5c0,8.8,4.1,15.8,15,15.8c3.2,0,6.3-0.7,8.8-1.6l-0.9-4.6
					C385,323.8,382.4,324.4,380.1,324.4z"/>
			</g>
			<g>
				<path class="st0" d="M402.7,304.3c-7.3,0-11.9,5.5-11.9,12.8c0,8.5,4.3,12.1,11,12.1c7.2,0,12-5.5,12-12.9
					C413.8,307.8,409.2,304.3,402.7,304.3z M402.3,324.8c-4,0-6.2-2.9-6.2-8.3c0-5.5,3.1-7.9,6.2-7.9c4.1,0,6.1,2.9,6.1,8
					C408.4,322.2,405.6,324.8,402.3,324.8z"/>
			</g>
			<g>
				<g>
					<polygon class="st0" points="436,296.1 430.7,296.1 430.7,328.7 447.2,328.7 447.2,324.2 436,324.2 					"/>
				</g>
				<g>
					<path class="st0" d="M483.2,293.4v11.1c-1.3-0.2-2.4-0.2-3.6-0.2c-7.8,0-12.5,5.3-12.5,13.6c0,6.9,2.9,11.3,8.8,11.3
						c3.8,0,6.6-2,7.9-5h0.1c-0.2,1.4-0.3,3.2-0.3,4.5h4.9v-35.3H483.2z M483.2,316.3c0,4.2-2.1,8.7-6,8.7c-3.3,0-4.8-2.7-4.8-7.6
						c0-6.4,2.8-9,6.9-9c1.2,0,2.5,0.1,3.8,0.4V316.3z"/>
				</g>
				<g>
					<path class="st0" d="M497,323.3c-1.6,0-3,1.4-3,3c0,1.6,1.4,3,3,3c1.6,0,3-1.3,3-3C500,324.6,498.6,323.3,497,323.3z"/>
				</g>
				<g>
					<path class="st0" d="M460.3,324.8c-2.4,0-3.1-1-3.1-4.5v-11.5h6.3v-4h-6.3v-9l-5.2,1.4v7.6h-4.6v4h4.6v13.1
						c0,5.4,1.5,7.4,6.7,7.4c1.6,0,3.5-0.2,5-0.6l-0.4-4.2C462.3,324.6,461.3,324.8,460.3,324.8z"/>
				</g>
			</g>
			<g>
				<path class="st0" d="M420.3,323.3c-1.6,0-3,1.4-3,3c0,1.6,1.4,3,3,3c1.6,0,3-1.3,3-3C423.3,324.6,421.9,323.3,420.3,323.3z"/>
			</g>
		</g>
		<g>
			<g>
				<path class="st0" d="M62.7,311.2c0-1.8,1.4-3,4.2-3c1.5,0,3.1,0.2,4.5,0.7l0.3-4.2c-1.4-0.3-3.1-0.5-4.5-0.5
					c-6.7,0-9.9,3.2-9.9,7.5c0,8.3,10.6,5.3,10.6,10.2c0,2-1.9,3.2-4.6,3.2c-1.8,0-3.8-0.3-5.2-0.9l-0.4,4.4
					c1.5,0.4,3.5,0.6,5.4,0.6c6.3,0,10.4-3.2,10.4-7.8C73.4,313.3,62.7,315.9,62.7,311.2z"/>
			</g>
			<g>
				<path class="st0" d="M21.4,304.4c0,5.2,0.2,13.8,0.3,17.5c-1-2.1-2.2-4.5-3.4-6.5L7,296.1H0v32.7h5.1v-9
					c0-5.2-0.1-13.9-0.3-17.1c0.9,2.1,1.9,4.1,3.2,6.4l11.6,19.6h7v-32.7h-5.1V304.4z"/>
			</g>
			<g>
				<path class="st0" d="M53.1,314.3c0-5.5-2.9-10-9.7-10c-7,0-11.1,5.4-11.1,12.6c0,8.5,4.1,12.3,11.5,12.3c2.9,0,6-0.5,8.5-1.5
					l-0.7-4c-2.2,0.9-4.6,1.4-6.9,1.4c-4.9,0-7.2-2.5-7.2-7.7h15.3C53,316.3,53.1,315,53.1,314.3z M37.6,313.8
					c0.4-3.6,2.5-5.7,5.4-5.7c3.1,0,4.9,2,4.8,5.7H37.6z"/>
			</g>
			<g>
				<path class="st0" d="M107,304.3c-4.4,0-7,2.9-8,5.1c-0.4-2.1-1.9-5.1-6.7-5.1c-3.7,0-6.7,2-8.1,5.2l-0.1,0
					c0.2-1.4,0.3-3.4,0.3-4.7h-4.9v24.1h5.2v-11.5c0-5.1,2.9-8.7,6.2-8.7c2.9,0,3.4,2.1,3.4,4.8v15.4h5.1v-11.5
					c0-5.3,3.1-8.7,6.2-8.7c2.8,0,3.4,1.9,3.4,4.8v15.3h5.2v-16.6C114.1,306.7,111.6,304.3,107,304.3z"/>
			</g>
			<g>
				<path class="st0" d="M139.6,328.7c-0.1-2-0.1-4.5-0.1-6.6v-9.5c0-5.3-2.2-8.4-9.2-8.4c-3.1,0-6.5,0.7-8.9,1.7l0.9,4
					c2.1-1,5-1.7,7.3-1.7c3.5,0,4.7,1.6,4.7,5v1c-8.9,0-14.2,2.9-14.2,8.3c0,3.9,2.6,6.6,6.8,6.6c3.8,0,6.8-2.1,7.9-4.9l0.1,0.1
					c-0.2,1.3-0.2,2.9-0.2,4.4H139.6z M134.3,318.3c0,3.4-2.4,6.8-5.9,6.8c-2,0-3.3-1.4-3.3-3.2c0-2.3,2-4.2,9.1-4.2V318.3z"/>
			</g>
		</g>
		<g>
			<g>
				<path class="st0" d="M289.9,293.9c-1.8,0-3.3,1.5-3.3,3.3c0,1.8,1.5,3.2,3.3,3.2c1.8,0,3.3-1.5,3.3-3.2
					C293.2,295.4,291.7,293.9,289.9,293.9z"/>
			</g>
			<g>
				<path class="st0" d="M313.1,304.3c-4.1,0-7,2.1-8.4,5.2h0c0.2-1.4,0.3-3.4,0.3-4.7h-4.9v24.1h5.2v-11.6c0-4.8,2.7-8.6,6.2-8.6
					c2.8,0,3.6,1.7,3.6,4.7v15.4h5.1v-16.8C320.2,307.7,318.5,304.3,313.1,304.3z"/>
			</g>
			<g>
				<rect x="287.3" y="304.7" class="st0" width="5.2" height="24.1"/>
			</g>
			<g>
				<path class="st0" d="M341,324.7l-4.1-0.1c-2.9-0.1-4-0.5-4-1.7c0-0.7,0.5-1.4,1.4-1.8c0.8,0.2,1.5,0.3,2.3,0.3
					c6.8,0,10.2-3.7,10.2-8.7c0-1.6-0.6-3-1.6-3.8h3.7v-4.1h-8.2c-1.3-0.3-2.2-0.5-3.6-0.5c-6.8,0-10.4,4.2-10.4,9
					c0,3.1,1.4,5.4,3.6,6.6c-1.6,0.7-2.8,2.4-2.8,4.2c0,1.6,0.9,3,2.4,3.6c-2.1,1.2-3.9,3.5-3.9,6.1c0,4.6,4,7.2,10.2,7.2
					c7.7,0,13-4.2,13-9.3C349.1,327.2,346.2,324.9,341,324.7z M336.8,308c3.2,0,4.9,1.9,4.9,4.9c0,3-1.9,4.7-5,4.7
					c-3.2,0-5-1.8-5-4.8C331.7,310.1,333.6,308,336.8,308z M337,337c-3.5,0-5.9-1.5-5.9-4.1c0-1.6,1.1-3.1,2.7-4.3h1.3l4.5,0.1
					c3,0.1,4.4,1.5,4.4,3.6C343.9,335,341.5,337,337,337z"/>
			</g>
			<g>
				<rect x="274.5" y="293.4" class="st0" width="5.2" height="35.3"/>
			</g>
			<g>
				<path class="st0" d="M172.5,317.4c-0.8-1.1-1.8-2.3-2.7-3.5c4.9-0.6,8.9-4,8.9-9.2c0-6.4-4.6-8.8-11.5-8.8c-3.6,0-6.3,0-8.7,0.2
					v32.7h5.3v-14.1h0.6l9.9,14.1h6.6L172.5,317.4z M163.8,310.7v-10.4c0.8-0.1,1.7-0.1,2.8-0.1c4.4,0,6.6,1.5,6.6,5.1
					c0,3.3-2.6,5.5-6.8,5.5C165.2,310.8,164.3,310.7,163.8,310.7z"/>
			</g>
			<g>
				<path class="st0" d="M219.3,324.7c-4.8,0-6.3-3.3-6.3-7.8c0-4.9,2.2-8.2,6.2-8.2c1.8,0,3.6,0.4,5,1l0.9-4.5
					c-1.6-0.6-3.6-0.9-5.7-0.9c-8,0-11.9,5.6-11.9,13.2c0,8.6,4.5,11.6,10.6,11.6c2.4,0,5.1-0.4,7-1.2l-0.8-4.3
					C223,324.3,221.2,324.7,219.3,324.7z"/>
			</g>
			<g>
				<path class="st0" d="M203.7,314.3c0-5.5-2.9-10-9.7-10c-7,0-11.1,5.4-11.1,12.6c0,8.5,4.1,12.3,11.5,12.3c3,0,6-0.5,8.5-1.5
					l-0.7-4c-2.2,0.9-4.6,1.4-6.9,1.4c-4.9,0-7.2-2.5-7.2-7.7h15.3C203.6,316.3,203.7,315,203.7,314.3z M188.2,313.8
					c0.4-3.6,2.5-5.7,5.4-5.7c3.1,0,4.9,2,4.8,5.7H188.2z"/>
			</g>
			<g>
				<path class="st0" d="M241.2,314.5c-0.9,2.4-1.9,5.6-2.4,7.5h0c-0.5-2-1.2-4.1-1.9-6.2l-3.9-11h-5.9l9,24.1l-0.9,2.4
					c-1.5,4.3-3.7,5.4-6,5.4c-1,0-2.1-0.2-3-0.4l-0.6,4.5c0.9,0.1,2.2,0.3,3.1,0.3c5.5,0,8.7-2.5,11.7-10.5l9.7-25.8h-5.6
					L241.2,314.5z"/>
			</g>
			<g>
				<path class="st0" d="M263.3,324.7c-4.8,0-6.3-3.3-6.3-7.8c0-4.9,2.2-8.2,6.2-8.2c1.8,0,3.6,0.4,5,1l0.9-4.5
					c-1.6-0.6-3.6-0.9-5.7-0.9c-8,0-11.9,5.6-11.9,13.2c0,8.6,4.5,11.6,10.6,11.6c2.4,0,5.1-0.4,7-1.2l-0.8-4.3
					C267,324.3,265.2,324.7,263.3,324.7z"/>
			</g>
		</g>
	</g>
	<g>
		<g>
			<path class="st1" d="M316.1,147.1c-3.1,3.1-9.9,9.1-14.1,12.3c-5.5-3.3-10.3-6.6-14.1-9.5C297,151.5,307.5,150.9,316.1,147.1z"/>
		</g>
		<g>
			<path class="st0" d="M287,6.4c-0.1,6.9-0.8,13.1-1.5,18.1c-3-9.1-9-18.5-17.1-24.4C272.9,1.2,282.4,4.3,287,6.4z"/>
		</g>
		<g>
			<path class="st2" d="M177.8,87.4c-5.9,7.1-10.6,16.5-11.6,26c-1.2-4.4-3.2-13.8-3.8-18.9C168.1,91.4,173.4,89.1,177.8,87.4z"/>
		</g>
		<g>
			<path class="st2" d="M274.1,149c-2.2-1.6-4.4-3.1-6.7-4.6c-34.2-22.4-54.7-50-54.7-50l6.2,56.5l-32.8-2.4
				c16,17.2,38.8,27.9,64.2,27.9c1.5,0,3,0,4.5-0.1c0,0,0,0,0,0c14.9-0.8,28.8-5.2,40.9-12.5c-7.3-4.3-15.1-10-21.4-14.6
				C274.3,149,274.2,149,274.1,149z"/>
		</g>
		<g>
			<path class="st1" d="M333.7,111.8l-14.2-29.7l-46,33.4c0.2-0.5,13.9-31.9,16.3-72.3c0.2-2.7,0.3-5.4,0.6-8.1c0-0.1,0-0.1,0-0.2
				c0.4-3.7,0.9-7.8,1.3-11.9c0.4-4.7,0.7-9.4,0.8-13.9c0.1,0.1,0.2,0.1,0.3,0.2c12.2,6.8,22.9,16.6,30.8,29.1c0,0,0,0,0,0
				c0.8,1.3,1.6,2.5,2.3,3.9C338.7,64.2,340.7,89.4,333.7,111.8z"/>
		</g>
		<g>
			<path class="st0" d="M185.9,76c2.5-1.1,4.9-2.3,7.3-3.4c36.6-18.1,70.9-21.7,70.9-21.7l-51.8-23.4l18.7-27
				c-22.9,5.1-43.8,19.3-56.6,41.1c-0.8,1.3-1.5,2.6-2.2,3.9c0,0,0,0,0,0c-6.9,13.2-10.1,27.5-10,41.6c7.4-4.1,16.3-7.9,23.5-11
				C185.8,76,185.9,76,185.9,76z"/>
		</g>
	</g>
</g>
</svg>
