<?xml version="1.0" encoding="utf-8"?>
<!-- Generator: Adobe Illustrator 26.0.1, SVG Export Plug-In . SVG Version: 6.00 Build 0)  -->
<svg version="1.1" id="Layer_1" xmlns="http://www.w3.org/2000/svg" xmlns:xlink="http://www.w3.org/1999/xlink" x="0px" y="0px"
	 viewBox="0 0 500 90.1" style="enable-background:new 0 0 500 90.1;" xml:space="preserve">
<style type="text/css">
	.st0{fill:#201414;}
	.st1{fill:#F1C26D;}
	.st2{fill:#FF1301;}
</style>
<g>
	<g>
		<path class="st0" d="M161.8,41.7h-4.5v24c0,18.1-6.7,24.5-25,24.5c-18.6,0-26.4-5.2-26.4-24.5v-24h-4.6v-10h27.4v10h-6.4v24
			c0,7.7,0.8,14.5,10,14.5c9.4,0,10.3-6.3,10.3-14.5v-24h-5.9v-10h25.1V41.7z"/>
		<path class="st0" d="M163.9,79.4h4.9V56.6h-4.9v-9.4h19.8v8.2h0.2c2.4-7,9.1-9.4,16-9.4c8.5,0,13.8,4.7,13.8,12.9v20.5h4.4v9.4
			h-24.8v-9.4h4V63c0-3.6-1.9-6.2-5.6-6.2c-4.1,0-6.4,2.7-6.4,6.5v16.2h3.7v9.4h-25V79.4z"/>
		<path class="st0" d="M221.8,79.4h4.9V56.6h-4.9v-9.4h21.3v32.3h4.4v9.4h-25.7V79.4z M226.7,29.8h16.4v12.9h-16.4V29.8z"/>
		<path class="st0" d="M306.3,31.7v20.8h-13.5V41.7h-7.3v37.2h7.3v10h-31.1v-10h7.3V41.7h-7.3v10.8h-13.5V31.7H306.3z"/>
		<path class="st0" d="M309.9,79.4h4.8V56.6h-4.8v-9.4h20v10.1h0.2c0.2-0.8,0.4-1.5,0.7-2.2c1.6-4.8,5.8-9.1,11.1-9.1
			c2,0,3.4,0.3,4.5,0.6v14.8c-1.3-0.4-3.2-0.6-5.2-0.6c-6.4,0-10.1,3.8-10.1,10.1v8.6h6v9.4h-27.3V79.4z"/>
		<path class="st0" d="M349.5,60.7c0.3-5.7,3.1-9.4,7-11.6c3.9-2.3,9-3.1,13.9-3.1c11,0,21.6,2.6,21.6,15v18.4h4.8v9.4h-18.7v-6.3
			H378c-3.4,5.5-8.3,7.5-14.8,7.5c-8,0-15.7-4.1-15.7-13c0-8.8,8.1-13.5,16-14c2.3-0.2,4.5-0.3,6.8-0.3c2.3,0,4.6,0.1,6.9,0.1
			c0-2.3,0-4.5-1-6.1c-0.9-1.6-2.5-2.6-5.1-2.6c-4.3,0-6.3,2.8-6.2,6.6H349.5z M368.3,81.1c5.8,0,9.3-5.3,9.3-10.6
			c-2.4-0.1-6.1-0.3-9.4,0.3c-3.1,0.7-5.7,2.4-5.7,5.9C362.6,80.1,365.5,81.1,368.3,81.1z"/>
		<path class="st0" d="M448.4,79.4h4.5v9.4H433v-7.8h-0.2c-2.4,6.8-8.6,9-15.2,9c-13.7,0-18.2-10.1-18.2-22.4
			c0-11.8,5.2-21.8,18.4-21.8c5.6,0,11.4,1.6,13.9,7.1h0.2V39.2h-5.3v-9.4h21.8V79.4z M432.3,67.3c0-5.4-1.8-11.4-8.3-11.4
			c-6.9,0-7.7,7.3-7.7,12.8c0,5.2,1.1,11.5,7.5,11.5C430.7,80.1,432.3,72.9,432.3,67.3z"/>
		<path class="st0" d="M471.8,72c0,4.3,1,9.1,6.3,9.1c3.1,0,5.1-1.2,5.9-4.4h15.3c-0.1,0.6-0.2,1.2-0.3,1.8
			c-3.1,9.4-11.7,11.5-20.8,11.5c-14,0-22.3-8.2-22.3-22.2c0-13.3,8.3-21.9,21.9-21.9c12.7,0,18,5.3,20.3,11.2
			C500,63.1,500,69.6,500,72H471.8z M484,63.5c0-4.5-1-8.5-6.4-8.5c-5.2,0-5.9,4.3-5.9,8.5H484z"/>
	</g>
	<g>
		<path class="st0" d="M101.9,16.3h2.3V3.1h-2.3V0.4h7.9l7.2,13.8h0.1V3.1h-2.3V0.4h8.2v2.7h-2.3V19h-5.2l-7.6-14.4h-0.1v11.7h2.3
			V19h-8.2V16.3z"/>
		<path class="st0" d="M124.7,16.3h2.3V3.1h-2.3V0.4h16.9V6h-3.3V3.1h-7.4v5.1h2.8V5.6h3v7.6h-3v-2.5h-2.8v5.6h7.4v-3.4h3.3V19
			h-16.9V16.3z"/>
		<path class="st0" d="M144.7,12.8h3.4c0,1.5,0.3,2.5,0.9,3.2c0.7,0.7,1.7,0.9,3,0.9c1.4,0,3.1-0.9,3.1-2.4c0-5.7-10.4-1.4-10.4-9.1
			c0-3.6,2.6-5.4,6-5.4c1.8,0,3.3,0.3,4.5,1.9h0.1V0.4h3.3v5.8h-3.4c-0.1-1.3-0.3-2.2-0.9-2.8c-0.6-0.6-1.5-0.9-2.7-0.9
			c-1.6,0-3,0.7-3,2.4c0,4.3,10.5,1.1,10.5,8.8c0,3.5-2.7,5.6-6.1,5.6c-1.9,0-3.8-0.2-5-1.9H148V19h-3.3V12.8z"/>
		<path class="st0" d="M161.3,16.3h2.3V3.1h-2.3V0.4h8.7l3.9,13.8h0.1l3.9-13.8h8.7v2.7h-2.3v13.2h2.3V19h-8.3v-2.7h2.1V3.1h-0.1
			L175.7,19h-4L167,3.1h-0.1v13.2h2.1V19h-7.7V16.3z"/>
		<path class="st0" d="M188.3,16.3h1.6l6.6-15.9h4.8l6.5,15.9h1.6V19h-8v-2.7h2.3l-1.2-3h-7.7l-1.2,3h2.3V19h-7.6V16.3z M201.4,10.6
			l-2.8-7.1l-2.8,7.1H201.4z"/>
	</g>
	<rect x="31.7" y="31.9" class="st1" width="56.7" height="57"/>
	<polygon class="st2" points="19,88.8 19,19.3 88.6,19.3 88.6,0.3 0,0.3 0,88.8 	"/>
</g>
</svg>
