<?xml version="1.0" encoding="utf-8"?>
<!-- Generator: Adobe Illustrator 26.0.1, SVG Export Plug-In . SVG Version: 6.00 Build 0)  -->
<svg version="1.1" id="Layer_1" xmlns="http://www.w3.org/2000/svg" xmlns:xlink="http://www.w3.org/1999/xlink" x="0px" y="0px"
	 viewBox="0 0 544.4 208.3" style="enable-background:new 0 0 544.4 208.3;" xml:space="preserve">
<style type="text/css">
	.st0{fill:#54534A;}
	.st1{fill:#FFFFFF;}
	.st2{fill:none;}
	.st3{fill:#FFD636;}
</style>
<g>
	<g>
		<g>
			<path class="st0" d="M324.1,120.1c0-0.1,0-0.1,0-0.2c0-9.9-3.8-19.2-10.6-26.4l1.2-1.2l-0.5-0.5l-1.2,1.2
				c-7.1-7.1-16.5-11.1-26.5-11.2v-1.5h-0.7v1.5c-20.8,0.2-37.6,17.2-37.6,38.1c0,0.1,0,0.1,0,0.2c0,0,0,0,0,0h-2v0.7h2
				c0.2,9.9,4.2,19.1,11.2,26.1l-1.7,1.7l0.5,0.5l1.7-1.7c7,6.8,16.2,10.6,26,10.6v2.6h0.7V158c9.9-0.1,19.2-4,26.3-11
				c7.1-7,11.1-16.3,11.3-26.2h2.1v-0.7L324.1,120.1C324.1,120.1,324.1,120.1,324.1,120.1z M285.8,153.7v0.9c-1.8,0-3.5-0.2-5.2-0.4
				C282.3,154.2,284.1,154,285.8,153.7z M281,125.1l-1.8-1.8l-0.5,0.5l1.8,1.8l-7.7,7.7c-3.4-3.5-6.2-7.5-8-11.7
				c-0.1-0.3-0.1-0.6-0.2-0.8h20.7L281,125.1z M281,126.1l1.9,1.9l0.5-0.5l-1.9-1.9l4.3-4.3v20.6c-0.2,0-0.3-0.1-0.4-0.1
				c-4.3-1.7-8.5-4.4-12-7.9L281,126.1z M280.8,153.5c-1.6,0-3.2-0.1-4.8-0.4c-5.1-1.6-9.9-4.4-13.8-8.1l8.8-8.8
				c4.4,4.3,9.5,7.5,14.8,9.3v7.6C284.1,153.4,282.4,153.5,280.8,153.5z M252.5,127.8c-0.5-2.3-0.8-4.6-0.9-7h1.2
				c-0.3,1.6-0.4,3.3-0.4,4.9C252.4,126.4,252.4,127.1,252.5,127.8z M274.2,93.1c3.4-2.8,7.4-4.8,11.6-5.7v6.8
				c-1.4-0.5-2.8-0.8-4.1-1c-1.4-0.2-2.7-0.3-4-0.3C276.5,92.8,275.3,92.9,274.2,93.1z M259.7,107.6c-0.2,1.2-0.3,2.5-0.3,3.8
				c0,2.8,0.5,5.7,1.5,8.7h-7.2C254.5,115.5,256.6,111.2,259.7,107.6z M267.6,99.7c-0.2,0.4-0.4,0.7-0.6,1c-0.3,0.2-0.7,0.4-1,0.6
				c0.3-0.3,0.5-0.6,0.8-0.9C267,100.2,267.3,100,267.6,99.7z M264.9,102.9c0.5-0.4,1-0.7,1.5-1c-2,3.9-3,8.3-3,12.8
				c0,1,0.1,1.9,0.2,2.9c-0.6-2.1-0.8-4.2-0.8-6.1C262.7,108.1,263.4,105.3,264.9,102.9z M267.4,101.3c5.5-3.1,12.1-4.1,18.4-3v20.9
				l-1.9-1.9l-0.5,0.5l2.3,2.3h-21.2c-0.4-1.8-0.5-3.6-0.5-5.5C264,110,265.2,105.3,267.4,101.3z M285.2,97.5
				c-1.5-0.2-3-0.4-4.5-0.4c-4.4,0-8.8,1-12.7,3c0.3-0.6,0.7-1.1,1.1-1.6c2.4-1.6,5.3-2.4,8.5-2.4C280.1,96.2,282.6,96.6,285.2,97.5
				z M285.8,86.8c-4.8,1-9.3,3.3-13,6.6c-3.3,0.8-6.1,2.4-8.4,4.7c-2.2,2.2-3.7,5-4.5,8.2c-3.6,3.9-6,8.6-7,13.8h-1.4c0,0,0,0,0,0
				c0-0.1,0-0.1,0-0.2c0-19,15.4-34.6,34.3-34.7V86.8z M253.5,120.8h7.6c1.9,5.4,5.1,10.5,9.5,14.9l-8.8,8.8
				c-3.5-3.4-6.2-7.7-7.9-12.2c-0.5-2.2-0.8-4.4-0.8-6.6C253,124.1,253.2,122.4,253.5,120.8z M286.5,86.6v-1.4
				c2.8,0,5.6,0.4,8.3,1.1C292.1,86,289.3,86.1,286.5,86.6z M318.8,120.8c-0.9,4.2-2.9,8.1-5.6,11.4c0.7-3.6,0.4-7.4-0.9-11.4H318.8
				z M306,139.3c-0.1,0.1-0.2,0.2-0.2,0.2c-0.1,0.1-0.2,0.2-0.4,0.3c0.1-0.1,0.1-0.2,0.2-0.4C305.7,139.5,305.8,139.4,306,139.3z
				 M308.7,120.8h0.1c1,2.6,1.5,5.2,1.5,7.6c0,3.5-1,6.6-3,9.3c-0.5,0.3-0.9,0.6-1.2,0.8c2-4,3-8.3,3-12.7
				C309.2,124.1,309,122.4,308.7,120.8z M292,115.1l7.8-7.8c3.1,3.1,5.5,6.4,7.3,9.6c0.4,1.1,0.7,2.2,0.9,3.2h-21l4.5-4.6l1.9,1.9
				l0.5-0.5L292,115.1z M291.5,114.6l-1.8-1.8l-0.5,0.5l1.8,1.8l-4.5,4.6V98.4c0.7,0.2,1.5,0.3,2.2,0.6c3.7,1.8,7.3,4.5,10.7,7.8
				L291.5,114.6z M287.4,120.8h20.7c0.3,1.6,0.4,3.3,0.4,4.9c0,4.7-1.2,9.3-3.4,13.4c-5.6,3.1-12.2,4.2-18.6,2.9v-21.1l2.4,2.4
				l0.5-0.5L287.4,120.8z M291.8,143.1c4.5,0,8.7-1,12.7-3c-0.2,0.3-0.4,0.7-0.7,1c-2.5,1.7-5.5,2.5-9,2.5c-1.7,0-3.5-0.2-5.3-0.6
				C290.3,143.1,291,143.1,291.8,143.1z M312.1,120.1c-1.8-5.2-5.3-10.4-10-15.2l9-9c3.5,3.6,6.2,8.1,7.8,12.8c0.4,2,0.6,4,0.6,5.9
				c0,1.8-0.2,3.7-0.5,5.5H312.1z M301.7,104.4c-4.8-4.8-9.9-8.1-15.2-10v-7.1c4.4-0.8,8.9-0.6,13.1,0.6c4.1,1.8,7.8,4.3,11,7.5
				L301.7,104.4z M286.5,152.9v-7.3c4.4,1.4,8.7,1.7,12.5,1C295.4,149.8,291.1,152,286.5,152.9z M286.5,153.6
				c5.2-1.1,10-3.6,13.8-7.3c3-0.8,5.7-2.3,7.8-4.4c2.4-2.4,4-5.2,4.9-8.3c3.3-3.7,5.5-8.1,6.6-12.8h1.2
				c-0.5,18.5-15.8,33.6-34.2,33.8V153.6z M320.2,114.6c0-0.4,0-0.7,0-1.1c0.4,2.1,0.6,4.2,0.6,6.4c0,0.1,0,0.2,0,0.2h-1.1
				C320,118.3,320.2,116.5,320.2,114.6z"/>
			<path class="st0" d="M374.7,127.8h1.1v-0.7h-1.5l-0.1-0.2c-0.2-0.3-0.3-0.6-0.4-0.7c3.7-2.2,12.1-8.5,12.1-20.3h2.2v-0.7h-2.2
				c-0.2-10.1-5.5-17.9-14.5-21.5v-0.4h-1.1c-2.4-0.8-5-1.3-7.4-1.4V80h-0.7v2h-13.8v-2h-0.7v2h-13.9v-2h-0.7v2H332v1.4h-2v0.7h2
				v6.7h-2v0.7h2v28.4h-1.9v0.7h1.9v6.7h-1.9v0.7h1.9v28.3h-2v0.7h2v1.3h1.2v2h0.7v-2h13.9v2h0.7v-2h1.3v-1.3h2v-0.7h-2v-28.3h4.4
				l16.3,28.3h-2.3v0.7h2.7l0.8,1.3l1.6,0l1.3,2.2l0.6-0.3l-1.1-1.9l15.9,0l1.3,2.2l0.6-0.3l-1.1-1.9h1.7l-0.8-1.4h2.2v-0.7h-2.5
				L374.7,127.8z M346.4,127.8v26.9h-11.1v-26.9H346.4z M346.4,120.5v6.7h-11.1v-6.7H346.4z M346.4,105.9v10.8
				c-0.1,0-0.1-0.1-0.2-0.1l-0.1-0.1l-0.4,0.5l0.1,0.1c0.2,0.1,0.4,0.3,0.5,0.4l0.1,0.1v2.3h-11.1V91.4h11.1v2.3
				c0,0-0.1,0.1-0.1,0.1c-0.1,0.1-0.2,0.1-0.2,0.2L346,94l0.4,0.5l0,0v10.8h-2v0.7H346.4z M347.8,85.4v4l-1.4,0l0,1.3h-11.1v-5.3
				H347.8z M351.1,86.7l-0.1,0.1l0.3,0.6l0.1-0.1c1.2-0.7,2.4-1.3,3.8-1.8h7.1v5.3h0c-2-0.9-4.3-1.4-6.5-1.4c-0.1,0-5.8,0-7.3,0v-4
				h5C352.6,85.8,351.8,86.2,351.1,86.7z M350.3,118.2c-0.2,0-0.4,0-0.5-0.1v-0.9L350.3,118.2z M355.8,109.3v-3.4h6.5v10.4
				c-3.2,1.9-7,2.1-8.9,2.1c-0.9,0-1.5-0.1-1.6-0.1l-0.7-0.1l-1.3-2.3l0,0v-10.1h5.4v3.4H355.8z M362.3,105.3h-6.5v-3.6h-0.6v3.6
				h-5.4V92.7c4.1,0,5.5,0,6,0l0,0c1,0,3.8,0.2,6.5,1.9V105.3z M349.8,120.5h0.2c0.1,0.2,0.2,0.4,0.2,0.4l2.1,3.6
				c-0.3-0.2-0.7-0.4-1-0.6l-0.1-0.1l-0.3,0.6l0.1,0.1c0.6,0.4,1.3,0.7,1.9,1.1l0.9,1.6h-4V120.5z M361.2,120.5h1.1v6.7
				c-1.7,0-3.4-0.2-5-0.7c-1.2-2.2-2.2-3.8-2.7-4.7C356.2,121.7,358.7,121.4,361.2,120.5z M363,90.8v-5.3
				c6.7,0.3,19.3,4.7,19.6,19.9h-11.1c-0.5-6.3-3.3-11.2-7.9-13.9h1.8v-0.7H363z M364,115.1c-0.4,0.3-0.7,0.6-1.1,0.8v-10h5.2
				C367.9,109.9,366.5,113,364,115.1z M370,126.5l0.4,0.7h-2.6C368.6,127,369.3,126.7,370,126.5z M369.2,122l1.2,2.2l-1.4,0.6
				l0.6,1.1c-2.2,0.8-4.4,1.2-6.8,1.2v-6.7h2.2v-0.7H363v-0.1c1.2-0.6,2.3-1.3,3.2-2.1c3.2-2.7,5-6.7,5.3-11.7h11.1
				c-0.1,11.7-9.9,17.2-11.6,18l-1.3-2.2L369.2,122z M363,105.3V95.1c3,2.2,4.8,5.7,5.2,10.2H363z M362.3,127.8v3.2h0.7v-3.2h7.9
				c1.9,3.2,6.6,11.4,10.5,18l5.2,9l-4.1,0c-3.7,0-7.9,0-8.9,0c-0.9-1.5-10-17.3-15.6-26.9H362.3z"/>
			<path class="st0" d="M544.4,84.1v-0.7h-2.1v-1.4h-1.4v-2h-0.6v2h-17.5v-2h-0.7v2h-13.8v-2h-0.7v2h-17.4v-2h-0.7v2h-1.5v1.4h-2
				v0.7h2v6.6h-2v0.7h2v1.4h1.5v2h0.7v-2h16.1v63.4h-2v0.7h2v1.3h1.3v2h0.7v-2h13.8v2h0.7v-2h1.4v-1.3h2.2v-0.7h-2.2V92.7
				c2.1,0,10.7,0,15.2,0.1l0.9,0v1.9h0.6v-1.9c0.8,0,1.3,0,1.3,0l0.1,0v-1.5h2.1v-0.7h-2.1v-6.6H544.4z M507.7,85.4v4h-16.2v-4
				H507.7z M508.3,89.4v-4h13.8v4c-0.7,0-1.2,0-1.2,0h-0.1v1.2h-11.1v-1.2H508.3z M520.8,91.3v63.5h-11.1V91.3H520.8z M539,85.4v4.1
				c-1,0-3.3,0-5.9,0c-3.6,0-7.9,0-10.3,0v-4H539z"/>
			<path class="st0" d="M480.1,82.1h-1.4V80h-0.7v2.1h-13.8V80h-0.7v2.1h-1.3v1.3h-1.8v0.7h1.8v72h-2.1v0.7h2.1v1.3h1.3v2h0.7v-2
				h13.8v2h0.7v-2h1.4v-1.3h2.1v-0.7h-2.1v-72h2.1v-0.7h-2.1V82.1z M476.8,85.4v69.3h-11.1V85.4H476.8z"/>
			<path class="st0" d="M449.9,124.2h3.2v-0.7h-3.8c-2.2-2.2-4.6-3.7-6.3-4.6c0.9-0.7,1.7-1.4,2.4-2.2h7.8v-0.7H446
				c3.3-3.6,5-7.6,5-12.1h2.3v-0.7H451c-0.1-5.9-2.5-11.5-6.5-15.6c-1.5-1.5-3.2-2.7-5-3.7h9.1v-0.7h-10.5c-2.2-0.9-4.6-1.4-7-1.4
				l-0.2,0c-0.9,0-8.2,0-15.6,0v-2h-0.7v2.1c-4.6,0-9.1,0-12.1,0l-1.7,0V80h-0.7v2.1c-0.8,0-1.2,0-1.2,0h-0.1v1.3h-2.1v0.7h2.1v6.6
				h-2.1v0.7h2.1v24.8h-2.1v0.7h2.1v6.8h-2.1v0.7h2.1v24.7h-2.1v0.7h2.1v6.6h-2.1v0.7h2.1v1.4h1.3v2h0.7v-2h13.8v2h0.7v-2h19
				c2.1,0,4.4-0.5,6.7-1.4h12.3v-0.7h-10.8c7.6-3.6,12.1-10.8,12.2-19.3h2.1v-0.7h-2.1C454.5,131.6,452.9,127.6,449.9,124.2z
				 M413.2,122v1.5h-11.1v-6.8h11.1v1.6l1.4,0v3.6H413.2z M413.2,103.3H411v0.7h2.2v12.1h-11.1V91.3h11.1V103.3z M402.1,90.6v-5.2
				c1,0,3.8,0,7.3,0l5.2,0v3.7h-1.4v1.5H402.1z M413.2,136.8v12.1h-11.1v-24.7h11.1v11.9H411v0.7H413.2z M402.1,149.6h11.1v1.7
				l1.4,0v3.5h-12.5V149.6z M422.2,152.7l0.1,0.1c1,0.8,2.1,1.4,3.2,2h-10.3v-3.5l10.4-0.1c2.2,0,4.5-0.5,6.5-1.6h6.6v-0.7h-5.4
				c4.2-2.6,6.8-7.2,6.8-12.1h11.1c-0.1,11.8-9.9,18-17,18h-7.1c-1.6-0.6-3.1-1.5-4.5-2.5l-0.1-0.1L422.2,152.7z M417.8,146.8
				l0.1,0.1c0.5,0.3,1,0.6,1.5,0.9c-1.1,0-2.2,0-2.9,0v-11.1h8.9v3.5h0.7v-3.5h8.4v3.5h0.7v-3.5h1.7c-0.1,6.1-5.1,11-11.2,11
				l-4.7,0.1c-1-0.4-1.8-0.9-2.6-1.4l-0.1-0.1L417.8,146.8z M435.1,136.1v-3.4h-0.7v3.4h-8.4v-3.4h-0.7v3.4h-8.9v-10.8h2.3
				c-0.4,0.3-0.9,0.6-1.3,0.9l-0.1,0.1l0.4,0.5l0.1-0.1c0.7-0.5,1.5-1,2.3-1.4h5.4c5.9,0,10.9,4.8,11.2,10.8H435.1z M440.2,136.1
				c-0.2-4.8-2.8-9.3-6.8-11.9h11.8c2.7,2.2,6,6,6.1,11.9H440.2z M432.2,123.5c-2-1-4.2-1.5-6.5-1.5h-10.4v-3.6l6.8-0.1
				c2.2,0,4.3-0.5,6.3-1.5h12c-0.5,0.4-1.1,0.8-1.6,1.2l-0.7,0.5c-1.4-0.3-2.8-0.5-4.2-0.5h-0.1v0.7h0.1c1.1,0,2.3,0.1,3.4,0.3
				l-1.2,0.9l0.9,0.3c-2.2,0.9-4.5,1.3-6.8,1.3h-0.1v0.7h0.1c2.7,0,5.3-0.6,7.8-1.7l1.2,0.4c0.1,0,2.4,0.8,5,2.6H432.2z
				 M422.4,107.6V104h7.5v3.6h0.6V104h2.7c-0.2,6-5.1,10.9-11.2,10.9c0,0-2.9,0.1-4.9,0.1l0,0l-0.3,0c-0.1,0-0.2,0-0.2,0v-11h5.1
				v3.6H422.4z M430.5,103.3V100h-0.6v3.3h-7.5V100h-0.7v3.3h-5.1V92.5h5.4c6,0,11,4.9,11.2,10.8H430.5z M429.5,116.1
				c4.2-2.6,6.9-7.2,7-12.1h11.2c-0.1,4.7-2.1,8.4-6.5,12.1H429.5z M436.5,103.3c-0.1-4.9-2.7-9.4-6.9-12h5.3v-0.7h-6.5
				c-2-1-4.2-1.5-6.4-1.5h-6.7v-3.7l6.1,0c-0.7,0.3-1.3,0.7-1.9,1.1l-0.1,0.1l0.4,0.5l0.1-0.1c0.9-0.6,2-1.2,3.1-1.7
				c4.6,0,8.1,0,8.1,0l0.1,0c4.1,0,8.1,1.7,11.1,4.7c3.4,3.4,5.4,8.2,5.5,13.2H436.5z"/>
		</g>
		<polygon class="st0" points="302.2,0.8 311.1,0.8 311.1,66.2 303.1,66.2 259.3,15.9 259.3,66.2 250.4,66.2 250.4,0.8 258,0.8 
			302.2,51.6 		"/>
		<polygon class="st0" points="321.5,0.8 358.7,0.8 358.7,9.2 330.9,9.2 330.9,29.1 357.7,29.1 357.7,37.5 330.9,37.5 330.9,57.8 
			359.6,57.8 359.6,66.1 321.5,66.1 		"/>
		<path class="st0" d="M387.2,38.8l-7.1-4.3c-4.5-2.7-7.7-5.4-9.5-8c-1.9-2.6-2.8-5.7-2.8-9.1c0-5.2,1.8-9.3,5.4-12.5
			c3.6-3.2,8.2-4.8,14-4.8c5.5,0,10.5,1.5,15.1,4.6v10.6c-4.7-4.5-9.8-6.8-15.2-6.8c-3.1,0-5.6,0.7-7.6,2.1c-2,1.4-3,3.2-3,5.4
			c0,2,0.7,3.8,2.2,5.5c1.4,1.7,3.8,3.5,7,5.4l7.2,4.2c8,4.8,12,10.8,12,18.2c0,5.2-1.8,9.5-5.3,12.8c-3.5,3.3-8.1,4.9-13.7,4.9
			c-6.5,0-12.4-2-17.7-6V49.1c5.1,6.4,10.9,9.6,17.6,9.6c2.9,0,5.4-0.8,7.3-2.4c2-1.6,2.9-3.7,2.9-6.1
			C395.8,46.2,392.9,42.4,387.2,38.8"/>
		<polygon class="st0" points="464.8,0.8 473.6,0.8 473.6,66.2 464.2,66.2 464.2,15.4 444,40.6 442.3,40.6 421.9,15.4 421.9,66.2 
			412.5,66.2 412.5,0.8 421.4,0.8 443.2,27.7 		"/>
		<path class="st0" d="M521,38.5l-10.6-23.7l-9.8,23.7H521z M507.2,0.5h6.6l29.4,65.8h-9.6l-8.7-19.4h-28l-8.2,19.4h-9.6L507.2,0.5z
			"/>
		<path class="st0" d="M250.1,171.4h7.2v1.7h-5.3v3.8h5.3v1.7h-5.3v6.3h-1.9V171.4z"/>
		<path class="st0" d="M263.1,176c1.4,0,2.5,0.4,3.4,1.3c0.9,0.9,1.4,2,1.4,3.3c0,1.3-0.5,2.4-1.4,3.2c-0.9,0.8-2.1,1.3-3.4,1.3
			c-1.3,0-2.5-0.4-3.4-1.3c-0.9-0.9-1.3-1.9-1.3-3.2c0-1.3,0.5-2.4,1.4-3.3C260.6,176.4,261.8,176,263.1,176z M263,177.6
			c-0.8,0-1.5,0.3-2.1,0.8c-0.5,0.6-0.8,1.3-0.8,2.1c0,0.9,0.3,1.6,0.8,2.1c0.6,0.5,1.3,0.8,2.1,0.8c0.9,0,1.6-0.3,2.1-0.8
			c0.6-0.5,0.8-1.2,0.8-2.1c0-0.8-0.3-1.6-0.9-2.1C264.6,177.9,263.9,177.6,263,177.6z"/>
		<path class="st0" d="M271.7,176v2l0.1-0.2c0.9-1.4,1.7-2.1,2.6-2.1c0.7,0,1.4,0.3,2.1,1l-0.9,1.5c-0.6-0.6-1.2-0.9-1.7-0.9
			c-0.6,0-1.1,0.3-1.5,0.8c-0.4,0.5-0.6,1.2-0.6,1.9v4.7h-1.8V176H271.7z"/>
		<path class="st0" d="M283.5,171.4h1.9v13.5h-1.9V171.4z"/>
		<path class="st0" d="M289.9,176v1.1c0.8-0.9,1.7-1.3,2.7-1.3c0.6,0,1.1,0.1,1.6,0.4c0.5,0.3,0.8,0.7,1.1,1.2
			c0.3,0.5,0.4,1.3,0.4,2.4v5.1h-1.8v-5.1c0-0.9-0.1-1.6-0.4-1.9c-0.3-0.4-0.7-0.6-1.4-0.6c-0.8,0-1.5,0.4-2.1,1.3v6.4h-1.8V176
			H289.9z"/>
		<path class="st0" d="M304.1,171.4h1.8v13.5h-3.8c-1.3,0-2.4-0.4-3.2-1.3c-0.8-0.8-1.2-1.9-1.2-3.4c0-1.3,0.4-2.4,1.2-3.2
			c0.8-0.8,1.9-1.3,3.2-1.3c0.6,0,1.2,0.1,1.9,0.4V171.4z M304.1,183.4v-5.7c-0.5-0.3-1.1-0.4-1.7-0.4c-0.9,0-1.6,0.3-2.1,0.9
			c-0.5,0.6-0.8,1.3-0.8,2.3c0,0.9,0.2,1.6,0.7,2.1c0.3,0.3,0.6,0.5,0.9,0.6c0.3,0.1,0.9,0.2,1.6,0.2H304.1z"/>
		<path class="st0" d="M313.9,184.9v-1.1c-0.4,0.4-0.8,0.7-1.3,1c-0.5,0.2-1,0.3-1.4,0.3c-0.6,0-1.1-0.1-1.6-0.4
			c-0.5-0.3-0.8-0.7-1.1-1.1c-0.2-0.5-0.4-1.3-0.4-2.4V176h1.8v5.1c0,0.9,0.1,1.6,0.4,2c0.3,0.4,0.7,0.6,1.4,0.6
			c0.8,0,1.6-0.4,2.1-1.2V176h1.8v8.9H313.9z"/>
		<path class="st0" d="M317.7,184.3v-1.9c0.5,0.3,1,0.6,1.5,0.8c0.5,0.2,1,0.3,1.3,0.3c0.4,0,0.7-0.1,1-0.3c0.3-0.2,0.4-0.4,0.4-0.7
			c0-0.3-0.1-0.5-0.3-0.6c-0.2-0.2-0.5-0.4-1.1-0.7c-1.1-0.6-1.9-1.2-2.2-1.6c-0.4-0.4-0.5-0.9-0.5-1.5c0-0.7,0.3-1.2,0.8-1.7
			c0.5-0.4,1.2-0.7,2.1-0.7c0.9,0,1.8,0.2,2.7,0.7v1.7c-1-0.6-1.9-1-2.6-1c-0.3,0-0.6,0.1-0.8,0.2c-0.2,0.1-0.3,0.3-0.3,0.6
			c0,0.2,0.1,0.4,0.3,0.6c0.2,0.2,0.5,0.4,1,0.7l0.6,0.4c1.5,0.8,2.2,1.8,2.2,2.8c0,0.7-0.3,1.3-0.9,1.8c-0.6,0.5-1.3,0.7-2.2,0.7
			c-0.5,0-1-0.1-1.4-0.2C318.9,184.8,318.4,184.6,317.7,184.3z"/>
		<path class="st0" d="M324.6,177.4l3.3-3.3v1.8h2.8v1.6h-2.8v4.4c0,1,0.4,1.5,1.3,1.5c0.6,0,1.3-0.2,2-0.6v1.6
			c-0.7,0.4-1.4,0.6-2.2,0.6c-0.8,0-1.5-0.2-2-0.7c-0.2-0.1-0.3-0.3-0.4-0.5c-0.1-0.2-0.2-0.4-0.3-0.7c-0.1-0.3-0.1-0.8-0.1-1.6v-4
			h-1.6V177.4z"/>
		<path class="st0" d="M334.3,176v2l0.1-0.2c0.8-1.4,1.7-2.1,2.6-2.1c0.7,0,1.4,0.3,2.1,1l-0.9,1.5c-0.6-0.6-1.2-0.9-1.7-0.9
			c-0.6,0-1.1,0.3-1.5,0.8c-0.4,0.5-0.6,1.2-0.6,1.9v4.7h-1.8V176H334.3z"/>
		<path class="st0" d="M341.2,172.3c0.3,0,0.5,0.1,0.7,0.3c0.2,0.2,0.3,0.4,0.3,0.7c0,0.3-0.1,0.5-0.3,0.7c-0.2,0.2-0.5,0.3-0.7,0.3
			c-0.3,0-0.5-0.1-0.7-0.3c-0.2-0.2-0.3-0.5-0.3-0.7c0-0.3,0.1-0.5,0.3-0.7C340.7,172.4,340.9,172.3,341.2,172.3z M340.3,176h1.8
			v8.9h-1.8V176z"/>
		<path class="st0" d="M350.3,179.6v3.8c0,0.3,0.1,0.5,0.3,0.5c0.2,0,0.5-0.2,1-0.5v1.1c-0.4,0.3-0.7,0.4-1,0.5
			c-0.2,0.1-0.5,0.1-0.8,0.1c-0.8,0-1.2-0.3-1.3-0.9c-0.8,0.6-1.5,0.9-2.4,0.9c-0.6,0-1.1-0.2-1.5-0.6c-0.4-0.4-0.6-0.9-0.6-1.5
			c0-0.6,0.2-1.1,0.6-1.5c0.4-0.4,1-0.8,1.7-1.1l2.3-0.8v-0.5c0-1.1-0.5-1.6-1.6-1.6c-1,0-1.9,0.5-2.8,1.5v-1.9
			c0.7-0.8,1.7-1.2,3-1.2c1,0,1.7,0.3,2.3,0.8c0.2,0.2,0.4,0.4,0.5,0.6c0.2,0.3,0.3,0.5,0.3,0.8
			C350.2,178.3,350.3,178.8,350.3,179.6z M348.5,183.2v-2.6l-1.2,0.5c-0.6,0.2-1,0.5-1.3,0.7c-0.2,0.2-0.4,0.5-0.4,0.9
			c0,0.4,0.1,0.7,0.4,0.9c0.2,0.2,0.5,0.4,0.9,0.4C347.5,183.9,348,183.6,348.5,183.2z"/>
		<path class="st0" d="M353.2,171.4h1.8v13.5h-1.8V171.4z"/>
		<path class="st0" d="M363.1,184.9v-13.6h4.3c1.3,0,2.3,0.3,3.1,1c0.8,0.7,1.2,1.6,1.2,2.8c0,0.8-0.2,1.5-0.6,2.1
			c-0.4,0.6-0.9,1-1.6,1.3c-0.7,0.3-1.7,0.4-3,0.4h-1.4v5.9H363.1z M367.1,173.1h-2v4.2h2.1c0.8,0,1.4-0.2,1.8-0.6
			c0.4-0.4,0.6-0.9,0.6-1.6C369.7,173.8,368.8,173.1,367.1,173.1z"/>
		<path class="st0" d="M375,176v2l0.1-0.2c0.9-1.4,1.7-2.1,2.6-2.1c0.7,0,1.4,0.3,2.1,1l-0.9,1.5c-0.6-0.6-1.2-0.9-1.7-0.9
			c-0.6,0-1.1,0.3-1.5,0.8c-0.4,0.5-0.6,1.2-0.6,1.9v4.7h-1.8V176H375z"/>
		<path class="st0" d="M384.7,176c1.4,0,2.5,0.4,3.4,1.3c0.9,0.9,1.3,2,1.3,3.3c0,1.3-0.5,2.4-1.4,3.2c-0.9,0.8-2.1,1.3-3.4,1.3
			c-1.3,0-2.5-0.4-3.4-1.3c-0.9-0.9-1.3-1.9-1.3-3.2c0-1.3,0.5-2.4,1.4-3.3C382.2,176.4,383.4,176,384.7,176z M384.6,177.6
			c-0.8,0-1.5,0.3-2.1,0.8c-0.5,0.6-0.8,1.3-0.8,2.1c0,0.9,0.3,1.6,0.8,2.1c0.6,0.5,1.3,0.8,2.1,0.8c0.9,0,1.6-0.3,2.1-0.8
			c0.6-0.5,0.8-1.2,0.8-2.1c0-0.8-0.3-1.6-0.9-2.1C386.2,177.9,385.5,177.6,384.6,177.6z"/>
		<path class="st0" d="M391.4,176h1.8v10.2c0,1.5-0.6,2.6-1.8,3.3l-1.3-1.3c0.4-0.1,0.7-0.4,1-0.7c0.2-0.4,0.4-0.8,0.4-1.2V176z
			 M392.2,172.3c0.3,0,0.5,0.1,0.7,0.3c0.2,0.2,0.3,0.5,0.3,0.7c0,0.3-0.1,0.5-0.3,0.7c-0.2,0.2-0.4,0.3-0.7,0.3
			c-0.3,0-0.5-0.1-0.7-0.3c-0.2-0.2-0.3-0.5-0.3-0.7c0-0.3,0.1-0.5,0.3-0.7C391.7,172.4,392,172.3,392.2,172.3z"/>
		<path class="st0" d="M403.4,180.6h-6.3c0,0.9,0.3,1.5,0.9,2c0.5,0.5,1.2,0.8,2,0.8c1.2,0,2.2-0.4,3.2-1.1v1.7
			c-0.5,0.4-1.1,0.6-1.6,0.8c-0.5,0.2-1.2,0.2-1.9,0.2c-1,0-1.8-0.2-2.4-0.6c-0.6-0.4-1.1-1-1.5-1.6c-0.4-0.7-0.5-1.5-0.5-2.4
			c0-1.4,0.4-2.5,1.2-3.3c0.8-0.8,1.8-1.3,3-1.3c1.2,0,2.1,0.4,2.8,1.2c0.7,0.8,1.1,1.9,1.1,3.3V180.6z M397.2,179.6h4.5
			c0-0.7-0.3-1.2-0.6-1.6c-0.4-0.4-0.9-0.6-1.5-0.6c-0.6,0-1.2,0.2-1.6,0.6C397.5,178.3,397.3,178.9,397.2,179.6z"/>
		<path class="st0" d="M412,182.9v1.7c-0.9,0.3-1.8,0.5-2.6,0.5c-1.4,0-2.5-0.4-3.3-1.2c-0.8-0.8-1.2-1.9-1.2-3.3
			c0-1.4,0.4-2.5,1.2-3.4c0.8-0.9,1.9-1.3,3.2-1.3c0.5,0,0.9,0,1.2,0.1c0.4,0.1,0.8,0.3,1.4,0.5v1.9c-0.9-0.6-1.7-0.9-2.5-0.9
			c-0.8,0-1.4,0.3-2,0.8c-0.5,0.6-0.8,1.3-0.8,2.1c0,0.9,0.3,1.6,0.8,2.2c0.6,0.5,1.3,0.8,2.2,0.8
			C410.3,183.5,411.1,183.3,412,182.9z"/>
		<path class="st0" d="M412.7,177.4l3.3-3.3v1.8h2.8v1.6h-2.8v4.4c0,1,0.4,1.5,1.3,1.5c0.6,0,1.3-0.2,2-0.6v1.6
			c-0.7,0.4-1.4,0.6-2.2,0.6c-0.8,0-1.5-0.2-2-0.7c-0.2-0.1-0.3-0.3-0.4-0.5c-0.1-0.2-0.2-0.4-0.3-0.7c-0.1-0.3-0.1-0.8-0.1-1.6v-4
			h-1.6V177.4z"/>
		<path class="st0" d="M420.2,184.3v-1.9c0.5,0.3,1,0.6,1.5,0.8c0.5,0.2,1,0.3,1.3,0.3c0.4,0,0.7-0.1,0.9-0.3
			c0.3-0.2,0.4-0.4,0.4-0.7c0-0.3-0.1-0.5-0.3-0.6c-0.2-0.2-0.5-0.4-1.1-0.7c-1.1-0.6-1.9-1.2-2.2-1.6c-0.4-0.4-0.5-0.9-0.5-1.5
			c0-0.7,0.3-1.2,0.8-1.7c0.5-0.4,1.2-0.7,2.1-0.7c0.9,0,1.8,0.2,2.7,0.7v1.7c-1-0.6-1.9-1-2.6-1c-0.3,0-0.6,0.1-0.8,0.2
			c-0.2,0.1-0.3,0.3-0.3,0.6c0,0.2,0.1,0.4,0.3,0.6c0.2,0.2,0.5,0.4,1,0.7l0.6,0.4c1.5,0.8,2.2,1.8,2.2,2.8c0,0.7-0.3,1.3-0.9,1.8
			c-0.6,0.5-1.3,0.7-2.2,0.7c-0.5,0-1-0.1-1.4-0.2C421.3,184.8,420.8,184.6,420.2,184.3z"/>
		<path class="st0" d="M442.4,184.9l-1.6-1.8c-0.1,0.1-0.4,0.3-0.7,0.6l0,0c-0.5,0.4-1,0.7-1.7,1c-0.7,0.3-1.3,0.4-1.9,0.4
			c-0.9,0-1.7-0.3-2.4-0.9c-0.7-0.6-1-1.4-1-2.2c0-0.6,0.2-1.2,0.5-1.7c0.3-0.5,0.8-1,1.6-1.6l0,0c0.4-0.3,0.8-0.6,1.1-0.7
			c-1-1.1-1.5-2.1-1.5-3.1c0-0.9,0.3-1.7,0.9-2.2c0.6-0.6,1.4-0.9,2.4-0.9c1,0,1.8,0.3,2.4,0.8c0.6,0.6,0.9,1.3,0.9,2.2
			c0,1.2-0.8,2.3-2.4,3.5l-0.1,0.1l1.9,2.2c0.6-0.6,1-1.3,1.5-2.2h1.9c-0.5,1.2-1.2,2.4-2.2,3.6l2.8,3.2H442.4z M439.2,182.1
			l0.4-0.4l-2.2-2.5l-0.9,0.6c-1,0.7-1.5,1.4-1.5,2.1c0,0.4,0.2,0.7,0.5,1c0.3,0.3,0.7,0.4,1.2,0.4c0.4,0,0.8-0.1,1.2-0.3
			C438.4,182.7,438.8,182.5,439.2,182.1z M437.9,176.9l0.7-0.5c0.7-0.5,1-1,1-1.7c0-0.4-0.1-0.7-0.4-1c-0.3-0.3-0.7-0.4-1.1-0.4
			c-0.4,0-0.8,0.1-1.1,0.4c-0.3,0.2-0.4,0.6-0.4,0.9c0,0.4,0.1,0.7,0.3,1.2C437.2,176.2,437.5,176.6,437.9,176.9z"/>
		<path class="st0" d="M463.6,181.8v2.1c-1.4,0.8-3.1,1.2-4.9,1.2c-1.5,0-2.8-0.3-3.9-0.9c-1.1-0.6-1.9-1.4-2.5-2.5
			c-0.6-1.1-0.9-2.2-0.9-3.5c0-2,0.7-3.6,2.1-5c1.4-1.3,3.1-2,5.2-2c1.4,0,3,0.4,4.7,1.1v2.1c-1.6-0.9-3.1-1.4-4.6-1.4
			c-1.6,0-2.8,0.5-3.9,1.5c-1,1-1.5,2.2-1.5,3.7c0,1.5,0.5,2.7,1.5,3.7c1,1,2.3,1.4,3.9,1.4C460.5,183.3,462.1,182.8,463.6,181.8z"
			/>
		<path class="st0" d="M470,176c1.4,0,2.5,0.4,3.4,1.3c0.9,0.9,1.3,2,1.3,3.3c0,1.3-0.5,2.4-1.4,3.2c-0.9,0.8-2.1,1.3-3.4,1.3
			c-1.3,0-2.5-0.4-3.4-1.3c-0.9-0.9-1.3-1.9-1.3-3.2c0-1.3,0.5-2.4,1.4-3.3C467.5,176.4,468.7,176,470,176z M469.9,177.6
			c-0.8,0-1.5,0.3-2.1,0.8c-0.5,0.6-0.8,1.3-0.8,2.1c0,0.9,0.3,1.6,0.8,2.1c0.6,0.5,1.3,0.8,2.1,0.8c0.9,0,1.6-0.3,2.1-0.8
			c0.6-0.5,0.8-1.2,0.8-2.1c0-0.8-0.3-1.6-0.9-2.1C471.5,177.9,470.8,177.6,469.9,177.6z"/>
		<path class="st0" d="M484,178.5v6.5h-1.8v-5c0-1-0.1-1.7-0.4-2.1c-0.3-0.4-0.7-0.6-1.4-0.6c-0.4,0-0.7,0.1-1,0.3
			c-0.3,0.2-0.7,0.5-1.1,0.9v6.5h-1.8V176h1.8v1.2c0.9-0.9,1.8-1.4,2.6-1.4c1.1,0,2,0.5,2.6,1.6c0.9-1.1,1.9-1.6,3-1.6
			c0.9,0,1.6,0.3,2.1,0.9c0.6,0.6,0.8,1.6,0.8,2.9v5.3h-1.8v-5.3c0-0.7-0.2-1.3-0.5-1.7c-0.3-0.4-0.7-0.6-1.3-0.6
			C485.4,177.4,484.7,177.7,484,178.5z"/>
		<path class="st0" d="M499.4,178.5v6.5h-1.8v-5c0-1-0.1-1.7-0.4-2.1c-0.3-0.4-0.7-0.6-1.4-0.6c-0.4,0-0.7,0.1-1,0.3
			c-0.3,0.2-0.7,0.5-1,0.9v6.5H492V176h1.8v1.2c0.9-0.9,1.8-1.4,2.6-1.4c1.1,0,2,0.5,2.6,1.6c0.9-1.1,1.9-1.6,3-1.6
			c0.9,0,1.6,0.3,2.1,0.9c0.6,0.6,0.8,1.6,0.8,2.9v5.3h-1.8v-5.3c0-0.7-0.2-1.3-0.5-1.7c-0.3-0.4-0.7-0.6-1.3-0.6
			C500.7,177.4,500,177.7,499.4,178.5z"/>
		<path class="st0" d="M515,180.6h-6.3c0.1,0.9,0.3,1.5,0.9,2c0.5,0.5,1.2,0.8,2,0.8c1.2,0,2.2-0.4,3.2-1.1v1.7
			c-0.5,0.4-1.1,0.6-1.6,0.8c-0.5,0.2-1.2,0.2-1.9,0.2c-1,0-1.8-0.2-2.4-0.6c-0.6-0.4-1.1-1-1.5-1.6c-0.4-0.7-0.5-1.5-0.5-2.4
			c0-1.4,0.4-2.5,1.2-3.3c0.8-0.8,1.8-1.3,3-1.3c1.2,0,2.1,0.4,2.8,1.2c0.7,0.8,1.1,1.9,1.1,3.3V180.6z M508.7,179.6h4.5
			c0-0.7-0.3-1.2-0.6-1.6c-0.4-0.4-0.9-0.6-1.5-0.6c-0.6,0-1.2,0.2-1.6,0.6C509.1,178.3,508.9,178.9,508.7,179.6z"/>
		<path class="st0" d="M518.8,176v2l0.1-0.2c0.9-1.4,1.7-2.1,2.6-2.1c0.7,0,1.4,0.3,2.1,1l-0.9,1.5c-0.6-0.6-1.2-0.9-1.7-0.9
			c-0.6,0-1.1,0.3-1.5,0.8c-0.4,0.5-0.6,1.2-0.6,1.9v4.7H517V176H518.8z"/>
		<path class="st0" d="M530.9,182.9v1.7c-0.9,0.3-1.7,0.5-2.6,0.5c-1.4,0-2.5-0.4-3.3-1.2c-0.8-0.8-1.2-1.9-1.2-3.3
			c0-1.4,0.4-2.5,1.2-3.4c0.8-0.9,1.9-1.3,3.2-1.3c0.5,0,0.9,0,1.2,0.1c0.4,0.1,0.8,0.3,1.3,0.5v1.9c-0.9-0.6-1.7-0.9-2.5-0.9
			c-0.8,0-1.5,0.3-2,0.8c-0.5,0.6-0.8,1.3-0.8,2.1c0,0.9,0.3,1.6,0.8,2.2c0.6,0.5,1.3,0.8,2.2,0.8
			C529.3,183.5,530,183.3,530.9,182.9z"/>
		<path class="st0" d="M540.5,180.6h-6.3c0,0.9,0.3,1.5,0.9,2c0.5,0.5,1.2,0.8,2,0.8c1.2,0,2.2-0.4,3.2-1.1v1.7
			c-0.5,0.4-1.1,0.6-1.6,0.8c-0.5,0.2-1.2,0.2-1.9,0.2c-1,0-1.8-0.2-2.4-0.6c-0.6-0.4-1.1-1-1.5-1.6c-0.4-0.7-0.5-1.5-0.5-2.4
			c0-1.4,0.4-2.5,1.2-3.3c0.8-0.8,1.8-1.3,3-1.3c1.2,0,2.1,0.4,2.8,1.2c0.7,0.8,1.1,1.9,1.1,3.3V180.6z M534.3,179.6h4.5
			c0-0.7-0.3-1.2-0.6-1.6c-0.4-0.4-0.9-0.6-1.5-0.6c-0.6,0-1.2,0.2-1.6,0.6C534.7,178.3,534.4,178.9,534.3,179.6z"/>
		<path class="st0" d="M257.2,200.9c0,2.2-1.5,3.9-3.8,3.9c-2.3,0-3.9-1.7-3.9-4c0-2.3,1.6-3.9,3.9-3.9
			C255.6,196.9,257.2,198.5,257.2,200.9z M252.7,195.4h-1.8v-1.8h1.8V195.4z M255.3,200.9c0-1.4-0.8-2.4-2-2.4c-1.2,0-1.9,1-1.9,2.3
			c0,1.3,0.9,2.4,2,2.4C254.6,203.1,255.3,202.2,255.3,200.9z M255.8,195.4H254v-1.8h1.8V195.4z"/>
		<path class="st0" d="M262.4,197.4v5.9c0,2.9-1.3,4.1-4.1,4.1v-1.6c1.5,0,2.3-0.7,2.3-2.3v-6.2H262.4z"/>
		<path class="st0" d="M268.8,204.8h-2.1c-0.9,0-1.5-0.3-2-0.8c-0.4-0.5-0.6-1.2-0.6-2.1v-7.5h1.8v6.8c0,0.8,0.2,1.3,0.5,1.6
			c0.2,0.2,0.7,0.3,1.4,0.3h1.1V204.8z"/>
		<path class="st0" d="M281.2,204.8h-13v-1.8h9.4c0-1-0.3-1.9-0.8-2.6c-0.7-0.8-1.6-1.2-2.8-1.2c-0.4,0-0.9,0.1-1.4,0.3
			c-0.6,0.2-1.1,0.6-1.5,1c-0.2-0.3-0.5-0.8-0.9-1.4c0.5-0.5,1.1-0.9,1.7-1.2c0.7-0.3,1.4-0.5,2.1-0.5c1.1,0,2.1,0.3,2.9,0.8
			c1.5,0.9,2.3,2.5,2.4,4.7h1.7V204.8z M275,208.3h-1.8v-1.8h1.8V208.3z"/>
		<path class="st0" d="M282.4,195.9h-1.8v-1.8h1.8V195.9z M288.2,204.8h-7.5v-1.8h1.7c0.5,0,0.9-0.2,1.1-0.6
			c0.1-0.2,0.2-0.7,0.2-1.2v-3.7h1.8v3.6c0,1-0.1,1.6-0.4,1.9h3.1V204.8z M285.5,195.9h-1.8v-1.8h1.8V195.9z"/>
		<path class="st0" d="M292.3,201.8c0,2-0.9,2.9-2.7,2.9h-1.9v-1.8h1.5c0.6,0,1-0.2,1.1-0.5c0.1-0.2,0.1-0.6,0.1-1.2v-6.9h1.8V201.8
			z"/>
		<path class="st0" d="M295.8,204.8H294v-10.5h1.8V204.8z"/>
		<path class="st0" d="M304.3,204.6c0,1.9-1.2,2.9-3.5,2.9V206c1.1,0,1.7-0.8,1.7-2.1c-0.3,0.5-0.9,0.8-1.7,0.8
			c-2.1,0-3.5-1.5-3.5-3.7c0-2.2,1.4-3.7,3.5-3.7c2.1,0,3.5,1.6,3.5,3.7V204.6z M302.4,201.2c0-1.3-0.7-2.1-1.7-2.1
			c-1,0-1.6,0.9-1.6,2c0,1.1,0.7,2.1,1.7,2.1C301.8,203.1,302.4,202.2,302.4,201.2z"/>
		<path class="st0" d="M319.5,204.8h-2c-1.4,0-2.6-1-2.9-2.4c-0.6,0.8-1.3,1.2-2.1,1.2c-2.1,0-3.3-1.6-3.3-3.8
			c0-2.4,1.3-3.9,3.3-3.9h4v5.1c0,1.3,0.6,1.9,1.8,1.9h1.1V204.8z M314.7,199.6v-2.3h-1.6c-1.3,0-2,1-2,2.5c0,1.3,0.7,2.3,1.8,2.3
			C314,202.1,314.7,201,314.7,199.6z M313.4,194.5h-1.8v-1.8h1.8V194.5z M316.4,194.5h-1.8v-1.8h1.8V194.5z"/>
		<path class="st0" d="M320.7,208.3h-1.8v-1.8h1.8V208.3z M326.5,204.8H319v-1.8h1.7c0.5,0,0.9-0.2,1.1-0.6c0.1-0.2,0.2-0.7,0.2-1.2
			v-3.7h1.8v3.6c0,1-0.1,1.6-0.4,1.9h3V204.8z M323.8,208.3H322v-1.8h1.8V208.3z"/>
		<path class="st0" d="M335.1,204.8h-9v-1.8h2.4c-0.2-0.5-0.4-1.1-0.4-1.7c0-1.1,0.3-2,1-2.8c0.7-0.8,1.6-1.1,2.7-1.1
			c1.4,0,2.6,0.8,3.2,2.1l-1.6,0.7c-0.3-0.8-0.8-1.2-1.7-1.2c-0.6,0-1.1,0.2-1.4,0.7c-0.3,0.4-0.4,0.9-0.4,1.6
			c0,0.7,0.2,1.3,0.6,1.7h4.6V204.8z"/>
		<path class="st0" d="M341.6,204.8h-2.1c-0.9,0-1.5-0.3-2-0.8c-0.4-0.5-0.6-1.2-0.6-2.1v-7.5h1.8v6.8c0,0.8,0.2,1.3,0.5,1.6
			c0.2,0.2,0.7,0.3,1.4,0.3h1.1V204.8z"/>
		<path class="st0" d="M348.5,204.8H341v-1.8h1.7c0.5,0,0.9-0.2,1.1-0.6c0.1-0.2,0.2-0.7,0.2-1.2v-3.7h1.8v3.6c0,1-0.1,1.6-0.4,1.9
			h3.1V204.8z M345.7,195.9H344v-1.8h1.8V195.9z"/>
		<path class="st0" d="M363.6,204.8h-16.1v-1.8h1.8c0.9,0,1.4-0.6,1.4-1.9v-2.8h1.8v2.3c1.4-2,3.2-3.1,5-3.1c2.7,0,4.1,1.9,4.2,5.5
			h1.9V204.8z M359.8,202.9l0-0.5c0-2.1-1-3.4-2.5-3.4c-1.8,0-3.7,1.7-4.7,3.9H359.8z"/>
		<path class="st0" d="M367.8,201.8c0,2-0.9,2.9-2.7,2.9h-1.9v-1.8h1.5c0.6,0,1-0.2,1.1-0.5c0.1-0.2,0.1-0.6,0.1-1.2v-6.9h1.8V201.8
			z"/>
		<path class="st0" d="M371.2,204.8h-1.8v-10.5h1.8V204.8z"/>
		<path class="st0" d="M389.7,197.4v4.8c0,1.6-0.9,2.6-2.5,2.6h-5.9c-3.4,0-5.1-1.5-5.1-4.6v-2.8h1.8v2.8c0,1.1,0.3,1.8,0.9,2.2
			c0.5,0.3,1.2,0.5,2.2,0.5h4.4c0.8,0,1.4-0.1,1.7-0.3c0.5-0.3,0.7-0.9,0.7-1.7v-3.5H389.7z M382.2,197.4h-1.8v-1.8h1.8V197.4z
			 M385.3,197.4h-1.8v-1.8h1.8V197.4z"/>
		<path class="st0" d="M396.1,204.8H394c-0.9,0-1.5-0.3-2-0.8c-0.4-0.5-0.7-1.2-0.7-2.1v-7.5h1.8v6.8c0,0.8,0.2,1.3,0.5,1.6
			c0.2,0.2,0.7,0.3,1.4,0.3h1.1V204.8z"/>
		<path class="st0" d="M404.6,204.8h-9v-1.8h2.4c-0.2-0.5-0.4-1.1-0.4-1.7c0-1.1,0.3-2,1-2.8c0.7-0.8,1.6-1.1,2.7-1.1
			c1.4,0,2.6,0.8,3.2,2.1l-1.6,0.7c-0.3-0.8-0.8-1.2-1.7-1.2c-0.6,0-1.1,0.2-1.4,0.7c-0.3,0.4-0.4,0.9-0.4,1.6
			c0,0.7,0.2,1.3,0.6,1.7h4.6V204.8z"/>
		<path class="st0" d="M413.1,204.6c0,1.9-1.2,2.9-3.5,2.9V206c1.1,0,1.7-0.8,1.7-2.1c-0.3,0.5-0.9,0.8-1.7,0.8
			c-2.1,0-3.5-1.5-3.5-3.7c0-2.2,1.4-3.7,3.5-3.7c2.1,0,3.5,1.6,3.5,3.7V204.6z M411.3,201.2c0-1.3-0.7-2.1-1.7-2.1
			c-1,0-1.6,0.9-1.6,2c0,1.1,0.7,2.1,1.7,2.1C410.6,203.1,411.3,202.2,411.3,201.2z"/>
		<path class="st0" d="M421.2,204.8h-2.9c-0.3,1.7-1.7,2.7-4,2.7v-1.6c1.5,0,2.3-0.7,2.3-2.3v-6.2h1.8v5.5h2.8V204.8z"/>
		<path class="st0" d="M420.5,204.8v-1.8h1.7c0.9,0,1.4-0.6,1.4-1.9v-3.6h1.8v3.5c0,1-0.1,1.6-0.3,1.9v0.1h1.7
			c0.9,0,1.4-0.6,1.4-1.8v-3.7h1.8v3.5c0,1.1-0.1,1.7-0.4,2h1.8c0.9,0,1.4-0.6,1.4-1.8v-3.7h1.8v3.5c0,0.8-0.1,1.4-0.4,2h2.8v1.8
			H420.5z M426.6,195.9v-1.8h1.8v1.8H426.6z M428.1,193.4v-1.8h1.8v1.8H428.1z M429.6,195.9v-1.8h1.8v1.8H429.6z"/>
		<path class="st0" d="M447,204.8h-2.3c-0.7,0.9-1.7,1.4-2.9,1.4c-1.2,0-2.2-0.5-2.9-1.4h-2.5v-1.8h1.7c0-0.2,0-0.4,0-0.5
			c0-1.1,0.3-2,1-2.7c0.7-0.7,1.6-1.1,2.6-1.1c1.1,0,2,0.4,2.6,1.1c0.7,0.7,1,1.6,1,2.7v0.5h1.6V204.8z M443.5,202.4
			c0-0.6-0.1-1.1-0.4-1.5c-0.3-0.4-0.8-0.7-1.4-0.7c-0.5,0-1,0.2-1.3,0.6c-0.3,0.4-0.4,0.9-0.4,1.4c0,1.2,0.7,2.1,1.8,2.1
			c0.5,0,1-0.2,1.3-0.6C443.3,203.5,443.5,203,443.5,202.4z"/>
		<path class="st0" d="M453.8,204.8h-7.4v-1.8h1.7c0.5,0,0.9-0.2,1.1-0.6c0.1-0.2,0.2-0.7,0.2-1.2v-6.8h1.8v6.7c0,1-0.1,1.6-0.4,1.9
			h3V204.8z"/>
		<path class="st0" d="M458,201.8c0,2-0.9,2.9-2.7,2.9h-1.9v-1.8h1.5c0.6,0,1-0.2,1.2-0.5c0.1-0.2,0.1-0.6,0.1-1.2v-6.9h1.8V201.8z"
			/>
		<path class="st0" d="M467.1,197.4v5.9c0,2.9-1.3,4.1-4.1,4.1v-1.6c1.5,0,2.3-0.7,2.3-2.3v-6.2H467.1z"/>
		<path class="st0" d="M470.6,204.8h-1.8v-10.5h1.8V204.8z"/>
		<path class="st0" d="M482.6,204.8h-10.5v-1.8h5.9c0-2.1-0.8-3.4-2.5-3.7c-0.5-0.1-1.1-0.1-1.6-0.1v-1.7c0.9,0,1.5,0,1.7,0
			c0.2,0,0.5,0.1,1,0.2c2.2,0.7,3.3,2.5,3.3,5.2h2.8V204.8z"/>
		<path class="st0" d="M492.5,204.8h-2.3c-0.7,0.9-1.7,1.4-2.9,1.4c-1.3,0-2.2-0.5-2.9-1.4h-2.5v-1.8h1.8c0-0.2,0-0.4,0-0.5
			c0-1.1,0.3-2,1-2.7c0.7-0.7,1.6-1.1,2.6-1.1c1.1,0,2,0.4,2.6,1.1c0.7,0.7,1,1.6,1,2.7v0.5h1.6V204.8z M489,202.4
			c0-0.6-0.1-1.1-0.4-1.5c-0.3-0.4-0.8-0.7-1.4-0.7c-0.5,0-1,0.2-1.3,0.6c-0.3,0.4-0.4,0.9-0.4,1.4c0,1.2,0.7,2.1,1.8,2.1
			c0.5,0,1-0.2,1.3-0.6C488.8,203.5,489,203,489,202.4z"/>
		<path class="st0" d="M496.5,201.8c0,2-0.9,2.9-2.7,2.9h-1.9v-1.8h1.5c0.6,0,1-0.2,1.1-0.5c0.1-0.2,0.1-0.6,0.1-1.2v-6.9h1.8V201.8
			z"/>
		<path class="st0" d="M500,204.8h-1.8v-10.5h1.8V204.8z"/>
		<path class="st0" d="M510.3,204.8h-2.1c-0.9,0-1.5-0.3-2-0.8c-0.4-0.5-0.6-1.2-0.6-2.1v-7.5h1.8v6.8c0,0.8,0.2,1.3,0.5,1.6
			c0.2,0.2,0.7,0.3,1.4,0.3h1.1V204.8z"/>
		<path class="st0" d="M520.3,204.8H518c-0.7,0.9-1.7,1.4-2.9,1.4c-1.2,0-2.2-0.5-2.9-1.4h-2.5v-1.8h1.8c0-0.2,0-0.4,0-0.5
			c0-1.1,0.3-2,1-2.7c0.7-0.7,1.6-1.1,2.6-1.1c1.1,0,2,0.4,2.6,1.1c0.7,0.7,1,1.6,1,2.7v0.5h1.6V204.8z M516.8,202.4
			c0-0.6-0.1-1.1-0.4-1.5c-0.3-0.4-0.8-0.7-1.4-0.7c-0.5,0-1,0.2-1.3,0.6c-0.3,0.4-0.4,0.9-0.4,1.4c0,1.2,0.7,2.1,1.8,2.1
			c0.6,0,1-0.2,1.3-0.6C516.7,203.5,516.8,203,516.8,202.4z"/>
		<path class="st0" d="M519.7,204.8v-1.8h1.7c0.9,0,1.4-0.6,1.4-1.9v-3.6h1.8v3.5c0,1-0.1,1.6-0.3,1.9v0.1h1.7
			c0.9,0,1.4-0.6,1.4-1.8v-3.7h1.8v3.5c0,1.1-0.1,1.7-0.4,2h1.8c0.9,0,1.4-0.6,1.4-1.8v-3.7h1.8v3.5c0,0.8-0.1,1.4-0.4,2h2.8v1.8
			H519.7z"/>
		<path class="st0" d="M540.2,201.8c0,2-0.9,2.9-2.7,2.9h-1.9v-1.8h1.5c0.6,0,1-0.2,1.1-0.5c0.1-0.2,0.1-0.6,0.1-1.2v-3.8h1.8V201.8
			z M540.2,195.9h-1.8v-1.8h1.8V195.9z"/>
	</g>
	<g>
		<rect x="0" y="1" class="st1" width="215.5" height="205.9"/>
		<line class="st2" x1="0" y1="169.1" x2="0" y2="125.2"/>
		<line class="st2" x1="0" y1="115.9" x2="0" y2="111.7"/>
		<path class="st2" d="M30.5,180c-9.9,1.6-20.1,2.4-30.5,2.4v-9.9"/>
		<path class="st0" d="M73.4,128.7c-8.8,3-18.1,4.4-29.7,4.4c-13.2,0-27.5-2.6-43.8-7.8v43.9C27.1,163.1,52.4,149.2,73.4,128.7z"/>
		<path class="st3" d="M43.8,124.4c15.6,0,29.9-3.9,44-11.9c3.7-4.9,7-10,9.9-14.9C75.4,108.5,52.2,114,28.5,114
			c-10.9,0-20.2-0.8-28.5-2.3v4.2C15.2,121.6,29.9,124.4,43.8,124.4z"/>
		<path class="st0" d="M30.5,180c81.5-13.7,145.8-79.1,158.1-161.3c0.8-5.8,1.4-11.8,1.7-17.8h-12.1c-7.9,27.7-23.1,52.3-44.2,71.8
			c-10,23.3-29.2,42.5-52.6,52.6c-22.1,24-50.2,40.3-81.4,47.3v9.9C10.4,182.5,20.6,181.6,30.5,180z"/>
		<path class="st0" d="M143,31.9c0,10.7-2,22.6-5.6,33.6c17.6-18.2,30.4-40.3,37.3-64.5h-36.5C141.4,11.8,143,22.4,143,31.9z"/>
		<path class="st3" d="M122.7,19.9c0,23.9-5.5,47.3-16.4,69.6c4.8-2.8,9.2-6,14.3-9.9c8.6-14.7,13.1-31.2,13.1-47.8
			c0-9.9-1.7-20.4-5-30.9h-7.4C122.3,7.5,122.7,13.8,122.7,19.9z"/>
		<path class="st3" d="M0,108.2c10.2,2,19.6,3,28.5,3c25.5,0,49.9-6.4,72.4-18.9c12.1-21.7,18.3-46,18.3-72.4c0-6-0.5-12.4-1.4-19H0
			V108.2z"/>
		<path class="st3" d="M0,206.9l215.5,0V1h-16.5c-5.5,101.9-87.1,184.1-189,189.8c-3.3,0.2-6.7,0.3-10,0.4V206.9z"/>
		<path class="st3" d="M103.1,94.6c-2.4,5.1-5.6,10-8.7,14.4c8.7-6.2,16.9-14.4,23.2-23.2C113.3,89,108.2,92.2,103.1,94.6z"/>
	</g>
</g>
</svg>
