<?xml version="1.0" encoding="utf-8"?>
<!-- Generator: Adobe Illustrator 26.0.1, SVG Export Plug-In . SVG Version: 6.00 Build 0)  -->
<svg version="1.1" id="Layer_1" xmlns="http://www.w3.org/2000/svg" xmlns:xlink="http://www.w3.org/1999/xlink" x="0px" y="0px"
	 viewBox="0 0 500 96.7" style="enable-background:new 0 0 500 96.7;" xml:space="preserve">
<style type="text/css">
	.st0{filter:url(#Adobe_OpacityMaskFilter);}
	
		.st1{clip-path:url(#SVGID_00000015341903797678453810000000201095966924312978_);fill:url(#SVGID_00000023270142556507126960000004337400734650033801_);}
	
		.st2{clip-path:url(#SVGID_00000015341903797678453810000000201095966924312978_);mask:url(#SVGID_00000174580748937449045930000017878008844939812744_);fill:url(#SVGID_00000153667447407589523470000013201232521879998643_);}
	.st3{fill:#433E40;}
	.st4{fill:#133E99;}
	.st5{fill:#FFFFFF;}
	.st6{fill:url(#SVGID_00000040540885162151343360000002282521721570307981_);}
	.st7{fill:none;}
	.st8{fill:url(#SVGID_00000010276162569333654210000015570099754465685417_);}
</style>
<g>
	<g>
		<defs>
			<polyline id="SVGID_1_" points="6.3,96.7 49.6,96.7 101.3,81.5 88.2,81.5 6.3,96.6 			"/>
		</defs>
		<clipPath id="SVGID_00000081625950790763651170000010014744037488757126_">
			<use xlink:href="#SVGID_1_"  style="overflow:visible;"/>
		</clipPath>
		<defs>
			<filter id="Adobe_OpacityMaskFilter" filterUnits="userSpaceOnUse" x="-0.3" y="40.4" width="108.1" height="97.4">
				<feColorMatrix  type="matrix" values="1 0 0 0 0  0 1 0 0 0  0 0 1 0 0  0 0 0 1 0"/>
			</filter>
		</defs>
		
			<mask maskUnits="userSpaceOnUse" x="-0.3" y="40.4" width="108.1" height="97.4" id="SVGID_00000043439654617093042440000014627542023554518944_">
			<g class="st0">
				
					<linearGradient id="SVGID_00000123411750041340578300000016150040865855261098_" gradientUnits="userSpaceOnUse" x1="103.5335" y1="207.2461" x2="105.6701" y2="207.2461" gradientTransform="matrix(36.4164 -21.025 -21.025 -36.4164 601.9037 9835.5078)">
					<stop  offset="0" style="stop-color:#FFFFFF"/>
					<stop  offset="2.413790e-02" style="stop-color:#FFFFFF"/>
					<stop  offset="1" style="stop-color:#333333"/>
				</linearGradient>
				
					<polygon style="clip-path:url(#SVGID_00000081625950790763651170000010014744037488757126_);fill:url(#SVGID_00000123411750041340578300000016150040865855261098_);" points="
					-0.3,85.3 77.5,40.4 107.8,92.9 30,137.8 				"/>
			</g>
		</mask>
		
			<linearGradient id="SVGID_00000136398397374039860500000010329520505443291301_" gradientUnits="userSpaceOnUse" x1="103.5335" y1="207.2461" x2="105.6701" y2="207.2461" gradientTransform="matrix(36.4164 -21.025 -21.025 -36.4164 601.9037 9835.5078)">
			<stop  offset="0" style="stop-color:#081D4A"/>
			<stop  offset="2.413790e-02" style="stop-color:#081D4A"/>
			<stop  offset="1" style="stop-color:#3A72B3"/>
		</linearGradient>
		
			<polygon style="clip-path:url(#SVGID_00000081625950790763651170000010014744037488757126_);mask:url(#SVGID_00000043439654617093042440000014627542023554518944_);fill:url(#SVGID_00000136398397374039860500000010329520505443291301_);" points="
			-0.3,85.3 77.5,40.4 107.8,92.9 30,137.8 		"/>
	</g>
	<path class="st3" d="M111.9,80.7V46.6h5.2l23.1,20.1c0.8,0.7,1.5,1.3,2.1,1.9c0.6,0.6,1.1,1.2,1.6,1.8c-0.1-1.9-0.2-3.3-0.2-4.1
		c0-0.8-0.1-1.4-0.1-1.8V46.6h6.9v34.1h-5.2l-24.1-21.1c-0.6-0.5-1.1-1-1.5-1.5c-0.4-0.4-0.8-0.9-1.2-1.3c0.1,1.1,0.2,2,0.2,3
		c0,0.9,0.1,1.7,0.1,2.4v18.4H111.9z"/>
	<polygon class="st3" points="156,80.7 156,46.6 189.6,46.6 189.6,52.4 163.6,52.4 163.6,60 178.8,60 178.8,65.8 163.6,65.8 
		163.6,74.3 189.9,74.3 189.9,80.7 	"/>
	<path class="st3" d="M223.6,52.5h-21.5v7.3h20.5c3.2,0,5.4,0.6,6.5,1.7c1.1,1.1,1.7,3.3,1.7,6.4v4.7c0,3.1-0.6,5.2-1.7,6.3
		c-1.1,1.1-3.3,1.7-6.5,1.7h-20.3c-3.2,0-5.4-0.6-6.5-1.7c-1.1-1.1-1.7-3.3-1.7-6.3v-0.9l6.7-1.5v4H224v-7.8h-20.5
		c-3.2,0-5.3-0.6-6.5-1.7c-1.1-1.1-1.7-3.3-1.7-6.4v-3.8c0-3.1,0.6-5.2,1.7-6.4c1.1-1.1,3.3-1.7,6.5-1.7h18.6c3.1,0,5.2,0.6,6.4,1.6
		c1.2,1.1,1.8,3,1.8,5.8v0.7l-6.7,1.6V52.5z"/>
	<path class="st3" d="M235.2,80.7V46.6h6.2l15.5,20.6L272,46.6h6.1v34.1H271V59.6c0-0.4,0-0.9,0.1-1.5c0.1-0.6,0.1-1.3,0.2-2.1
		c-0.4,0.9-0.8,1.6-1.1,2.2c-0.3,0.6-0.6,1-0.8,1.4l-12.3,17h-1.5l-12.4-17.1c-0.5-0.6-0.8-1.3-1.2-1.8c-0.3-0.6-0.6-1.1-0.8-1.7
		c0.1,0.7,0.1,1.4,0.1,1.9c0,0.6,0,1.1,0,1.7v21.1H235.2z"/>
	<path class="st4" d="M365.8,45.7H341c-3.3,0-5.5,0.6-6.6,1.8c-1.1,1.2-1.7,3.3-1.7,6.5v18.4c0,3.2,0.6,5.4,1.7,6.5
		c1.1,1.2,3.4,1.7,6.6,1.7h24.8c3.3,0,5.5-0.6,6.6-1.7c1.1-1.2,1.7-3.3,1.7-6.5V54c0-3.2-0.6-5.3-1.7-6.5
		C371.2,46.3,369,45.7,365.8,45.7 M366.3,74.1h-25.8V51.9h25.8V74.1z"/>
	<path class="st4" d="M408.9,64.1c0,0.4,0,1.1,0.1,1.9c0,0.8,0.1,2.2,0.3,4.2c-0.5-0.6-1.1-1.3-1.7-1.9c-0.6-0.6-1.3-1.3-2.1-1.9
		l-23.7-20.6h-5.4v35h7V61.8c0-0.7,0-1.5-0.1-2.5c-0.1-1-0.1-2-0.2-3.1c0.4,0.5,0.8,0.9,1.2,1.4c0.4,0.4,1,0.9,1.6,1.5l24.7,21.6
		h5.4v-35h-7V64.1z"/>
	<path class="st4" d="M449.2,74.1h-22.3V45.7H419v26.7c0,3.2,0.6,5.4,1.7,6.5c1.2,1.2,3.4,1.7,6.6,1.7h21.3c3.3,0,5.5-0.6,6.6-1.7
		c1.1-1.2,1.7-3.3,1.7-6.5V45.7h-7.8V74.1z"/>
	<path class="st4" d="M484.4,67.5h4.4c2.7,0,4.6-0.5,5.8-1.6c1.2-1.1,1.8-2.8,1.8-5.2v-8.2c0-2.4-0.6-4.1-1.8-5.2
		c-1.2-1.1-3.2-1.6-5.8-1.6H460v35h7.7V67.5h7.4l13.6,13.2H500L484.4,67.5z M467.7,61.5v-9.7h17.6c1.4,0,2.3,0.2,2.8,0.6
		c0.5,0.4,0.8,1.1,0.8,2.1v4.2c0,1-0.3,1.8-0.8,2.2c-0.5,0.4-1.4,0.6-2.8,0.6H467.7z"/>
	<polygon class="st3" points="323.8,80.7 305,46.6 297.6,46.6 279,80.7 286.7,80.7 290.5,73.2 290.5,73.2 293.7,67.1 293.7,67.1 
		296.5,61.8 296.6,61.6 301,53.2 304.3,59.7 313.2,76.8 315.2,80.7 	"/>
	<path class="st5" d="M290.6,80.5l-0.1,0.2L290.6,80.5z"/>
	
		<linearGradient id="SVGID_00000020371699436194058990000009928018477543750804_" gradientUnits="userSpaceOnUse" x1="0" y1="48.1572" x2="100.9428" y2="48.1572">
		<stop  offset="4.167913e-03" style="stop-color:#133E99"/>
		<stop  offset="1" style="stop-color:#133E99"/>
	</linearGradient>
	<path style="fill:url(#SVGID_00000020371699436194058990000009928018477543750804_);" d="M99.5,33.3c-1.8,0-3.5,0.1-5.3,0.2
		c-0.2,0-0.3,0-0.5,0.1l7.3-27.3l-11.5,0l-6.5,25.6L82,35.1c-5.3,1-11.1,2.4-16.6,4.4l-0.1,0.1c-1.3,0.5-2.6,1.1-3.9,1.6L45.9,0
		l-3.4,9.4v0l-9,23.5L18.3,72.5c-1.8,2-3.6,3.9-5.4,6c-2.6,3.1-5.1,6.2-7.5,9.5c-1.9,2.7-3.8,5.4-5.5,8.3l0,0.1h20.3l4.4-8.4l5.8,0
		c-1.8,3.6-3.1,6.5-3.9,8.4h22.3c1.5-8.3,4.1-16.4,7.7-24c0.7-1.6,1.6-3.1,2.4-4.6L65,87.7l2.3,0l0,0.1h8.2l0,0l3.6,0l13.8-51.3
		l2-0.9c2-0.8,4-1.5,6.1-2.2C100.9,33.3,100.5,33.3,99.5,33.3L99.5,33.3z M45.9,29.6l6,16.4c0,0,0,0,0,0
		c-5.8,3.2-11.3,6.9-16.5,10.9l-0.1,0.1L45.9,29.6z M36.3,77.7l-5.5,0c0,0,4.9-6.6,7.4-9.7l5,0C40.9,71,38.5,74.2,36.3,77.7z
		 M51.6,59.2l-5.2,0l8.1-6.1l0.7,2l0.3,0.9C54.2,57,52.9,58.1,51.6,59.2z M64.2,48.4l-0.5-1.2l8.6-5.1l2.7,0.2
		c-4.3,2.4-9.6,6.5-9.6,6.5L64.2,48.4z M72.3,69.9L67,56c1.3-1.5,2.6-3,3.9-4.5c2.6-2.7,5.5-5.1,8.5-7.4L72.3,69.9z M80.9,38.9
		c-0.8,0.4-1.3,0.7-1.3,0.7l-1.9-0.3c0,0,1.4-0.7,3.5-1.6L80.9,38.9z"/>
	<polygon class="st7" points="82.5,41.6 82.5,41.6 82.3,42.4 	"/>
	<polygon class="st7" points="64.2,48.4 64.2,48.4 64,47.9 	"/>
	<path class="st7" d="M51.9,45.9C51.9,45.9,51.9,45.9,51.9,45.9l-6-16.4L35.4,56.9l0.1-0.1C40.7,52.8,46.2,49.1,51.9,45.9z"/>
	<polygon class="st7" points="83.2,39.1 84,36.1 83.2,39.1 	"/>
	<path class="st7" d="M30.8,77.7l5.5,0c2.2-3.5,4.5-6.7,7-9.7l-5,0C35.7,71.1,30.8,77.7,30.8,77.7z"/>
	<path class="st7" d="M54.6,53.1l-8.1,6.1l5.2,0c1.3-1.2,2.6-2.2,4-3.2l-0.3-0.9L54.6,53.1z"/>
	<path class="st7" d="M55.6,56l-0.3-0.9l-0.7-2l-0.5,0.3l1,2.9C55.2,56.3,55.4,56.2,55.6,56z"/>
	<path class="st7" d="M51.9,45.9C51.9,45.9,51.9,45.9,51.9,45.9l-2.7-7.3l2.4,7.4C51.8,46,51.9,46,51.9,45.9z"/>
	<path class="st7" d="M45.9,29.6L35.5,56.5c7-7,13.5-14.3,13.7-17.8L45.9,29.6z"/>
	
		<linearGradient id="SVGID_00000142859541628586106190000001350365834268583058_" gradientUnits="userSpaceOnUse" x1="18.3004" y1="43.915" x2="100.9428" y2="43.915">
		<stop  offset="1.164399e-02" style="stop-color:#635C5C"/>
		<stop  offset="0.9605" style="stop-color:#5F5858"/>
	</linearGradient>
	<path style="fill:url(#SVGID_00000142859541628586106190000001350365834268583058_);" d="M89.4,6.2L83.6,29l-0.7,2.8L82,35.1
		l-0.7,2.6c0,0,0,0,0,0L81,38.7l-8.7,31.3l-8.1-21.5h0L64,47.9l-2.5-6.6h0L45.9,0l-3.4,9.4v0l-9,23.5L18.3,72.5c0,0,9-7.7,17.2-16
		l10.4-26.9l3.3,9.1l0,0l0,0l2.7,7.3c0,0,0,0,0,0c-0.1,0-0.2,0.1-0.2,0.1l2.4,7.4l0.5-0.3l0.7,2l0.3,0.9c-0.2,0.1-0.3,0.3-0.5,0.4
		l3.8,11.7c0.1-0.1,0.1-0.2,0.2-0.3l2.9,9.9l3,10l2.3,0l0,0.1h8.2l0,0l3.6,0l13.8-51.3l0.8-2.9l7.3-27.3L89.4,6.2z"/>
	<polygon points="49.3,38.7 49.3,38.7 49.3,38.7 	"/>
</g>
</svg>
