<?xml version="1.0" encoding="utf-8"?>
<!-- Generator: Adobe Illustrator 26.0.1, SVG Export Plug-In . SVG Version: 6.00 Build 0)  -->
<svg version="1.1" id="Layer_1" xmlns="http://www.w3.org/2000/svg" xmlns:xlink="http://www.w3.org/1999/xlink" x="0px" y="0px"
	 viewBox="0 0 433 500" style="enable-background:new 0 0 433 500;" xml:space="preserve">
<style type="text/css">
	.st0{fill:#EF172F;}
	.st1{fill:#515051;}
	.st2{fill:#FFFFFF;}
</style>
<g>
	<g>
		<polygon class="st0" points="10.7,17.3 130.3,86.3 10.6,155.5 		"/>
	</g>
	<g>
		<polygon class="st0" points="10.5,344.6 129.7,413.7 10.1,482.6 		"/>
	</g>
	<g>
		<g>
			<path class="st0" d="M0.3,1.4l431.4,249.1v-0.9L0.3,498.6l0.8,0.5V1L0.3,1.4z M0.8,499.5l431.4-249l0.8-0.5l-0.8-0.5L0.8,0.5L0,0
				v1v498.1v0.9L0.8,499.5z"/>
		</g>
	</g>
	<g>
		<polygon class="st0" points="293.7,181.4 413.3,250.5 293.7,319.5 		"/>
	</g>
	<g>
		<polygon class="st1" points="10.5,344.7 10.5,155.1 130.3,86.3 293.7,181.4 293.8,319.3 129.7,413.8 		"/>
	</g>
	<g>
		<g>
			<g>
				<g>
					<path class="st2" d="M94.5,208.1h-4.9l-12.9-14.9v14.9H71v-23.2h2.6h2.7l12.4,14.2l0-14.2h5.8V208.1z"/>
				</g>
			</g>
			<g>
				<g>
					<path class="st2" d="M125.8,208.1h-17.2v-23.2h16.9v4.3h-11.1l0,4.9l10.6,0v4.2l-10.6,0l0,5.6h11.3L125.8,208.1z"/>
				</g>
			</g>
			<g>
				<g>
					<path class="st2" d="M154.7,190.9c-3.4-1.5-5.4-2.1-7.4-2.1c-2.1,0-3.4,0.8-3.4,1.9c0,3.5,11.8,2.5,11.8,10.6
						c0,4.5-3.7,7-8.9,7c-4.1,0-6.1-1-8.4-2.3v-5c3.4,2.2,5.4,3,8,3c2.2,0,3.4-0.8,3.4-2.1c0-3.8-11.8-2.4-11.8-10.8
						c0-4,3.5-6.7,8.9-6.7c2.6,0,5,0.6,7.9,1.8L154.7,190.9z"/>
				</g>
			</g>
			<g>
				<g>
					<path class="st2" d="M188.6,184.9h5l0,23.2h-5.8l0-14.5l-6.2,7.3l-0.9,0l-6.3-7.3v14.5h-5.8v-23.2h5l7.5,8.6L188.6,184.9z"/>
				</g>
			</g>
			<g>
				<g>
					<path class="st2" d="M231.5,208.1h-6.2l-1.9-4.6H213l-1.7,4.6h-6.1l9.4-23.2h6.7L231.5,208.1z M217.9,190.4l-3.4,9h7.2
						L217.9,190.4z"/>
				</g>
			</g>
		</g>
		<g>
			<g>
				<polygon class="st2" points="139.9,231.1 149.2,231.1 149.2,214.9 139.9,214.9 				"/>
			</g>
		</g>
		<g>
			<g>
				<rect x="187.1" y="214.9" class="st2" width="9.1" height="16.2"/>
			</g>
		</g>
		<g>
			<g>
				<polygon class="st2" points="163.5,231.1 172.8,231.1 172.8,214.9 163.5,214.9 				"/>
			</g>
		</g>
		<g>
			<g>
				<path class="st2" d="M253.7,230c-0.9,0.8-1.6,1.2-2,1.2H214c0,0-2.8-0.3-2.8-3.7c0-3.5,2.8-4,2.8-4l31.6,0
					c2.7,0,2.1-4.4,2.1-10.3c0-1.7-0.4-9.5-0.4-9.7c0,0,1.2-1.5,4-1.5c2.8,0,3.7,1.5,3.7,1.5v24.6C255,228.7,254.6,229.3,253.7,230z
					"/>
			</g>
		</g>
		<g>
			<g>
				<path class="st2" d="M60.5,271.1c0,0,144.2-13.2,190-8.1"/>
			</g>
		</g>
		<g>
			<g>
				<g>
					<path class="st2" d="M234.9,261.5l-1.9-0.1l0.9,0.2C234.3,261.6,234.6,261.6,234.9,261.5z"/>
				</g>
			</g>
			<g>
				<g>
					<polygon class="st2" points="231.2,261.4 230.9,261.4 230.5,261.4 					"/>
				</g>
			</g>
			<g>
				<g>
					<path class="st2" d="M227.9,261.4l1.7,0C229.1,261.4,228.5,261.4,227.9,261.4z"/>
				</g>
			</g>
			<g>
				<g>
					<path class="st2" d="M230.5,261.5c-0.2,0-0.3-0.1,0-0.1l0,0l-1,0.1C229.9,261.4,230.2,261.4,230.5,261.5z"/>
				</g>
			</g>
			<g>
				<g>
					<path class="st2" d="M230.5,261.5c0.2,0.1,0.5,0.1,0.6,0.2L230.5,261.5z"/>
				</g>
			</g>
			<g>
				<g>
					<path class="st2" d="M229.7,262.7c-0.3,0-0.2-0.3-0.9-0.2c-1.6,0.1-2.9,0.2-4.3,0.2c-0.7,0.1-1.7-0.3-2.4-0.2
						c-1.6,0.1-5.5,0.6-3.2,0.5c3.5,0,5.8-0.2,8.9-0.2c2.6-0.1,5-0.2,7.7-0.3c0.7,0,1.4,0.1,2.1,0.1c-0.9-0.1-1.8-0.1-2.8-0.2
						C233.4,262.3,231.8,262.7,229.7,262.7z"/>
				</g>
			</g>
			<g>
				<g>
					<path class="st2" d="M248.9,262.5c-0.3,0-1,0-1,0c-1.5-0.4-3.1-0.4-4.6-0.4l0.7,0.2c0.9,0.1,1-0.1,0.2-0.2
						c1.8,0.3,3.5,0.5,5.3,0.6C249.3,262.7,249.4,262.6,248.9,262.5z"/>
				</g>
			</g>
			<g>
				<g>
					<polygon class="st2" points="250.5,262.9 249.4,262.8 249.5,262.8 250.5,262.9 					"/>
				</g>
			</g>
			<g>
				<g>
					<path class="st2" d="M220.8,261.7c-4.4,0-8.6,0.1-12.6,0.1c-0.3,0.1-0.5,0.2-1,0.1l-0.9-0.1l-1.8,0l-0.6,0.1l0,0
						c-0.3,0-0.2,0.1,0,0.1l0.6,0.1c-0.1,0-0.4-0.1-0.6-0.1c-0.3,0-0.6-0.1-0.9,0c-0.5,0-1.1,0-1.7,0c0.7,0,1.2-0.1,1.7,0l1-0.1
						l0.2-0.1l-4,0.1c-0.3,0-0.6,0-0.9,0.1c-1,0-1.9,0.1-2.6,0l-0.7,0l0.1,0l-0.3,0l-3.1,0.1l-2,0.3c0,0-0.4-0.1-0.7-0.2
						c-0.3,0.1-0.7,0.2-1.1,0.2c0.6,0.1,1.1,0.2,1.5,0.2c0.7,0.1,1.5-0.4,2.3-0.1c-0.8-0.3-1.7,0.2-2.3,0.1c-0.5-0.1-1-0.2-1.5-0.2
						c-1,0.1-2.2,0.1-3.2-0.1c1.2-0.2,2.3-0.1,3.2,0.1c0.5,0,0.9-0.1,1.1-0.2c0.2,0,0.7,0.2,0.7,0.2l2-0.3c-2,0-4,0.1-6.1,0.1
						c-13.2,0.3-25.4,1-39.2,1.6c-7.5,0.4-14.6,0.7-21.6,1c-14,0.6-26.7,2-40.8,2.3c-5.4,0.1-15.5,1.1-20.6,1.7
						c-6.9,1.2-3.2,2.3-2.8,2.4c4.4,0.9,7.7-0.1,16.5-0.1c4.5-0.1,15.1-0.4,10-0.8c8.3,0.7,19.7-1.3,29.9-1.7
						c2.5-0.1,5.2-0.3,8.1-0.5c15.6-0.6,30-2.1,46.4-2.8c4.3-0.2,8.1-0.7,11.8-1c2.6-0.1,5.5-0.1,7.7-0.2c3.4-0.1,6.3-0.3,9.1-0.5
						c-3.1,0.1-5.5,0.3-8.9,0.5c-2.4,0.1,1.6-0.5,3.1-0.6c0.7-0.1,1.7,0.2,2.4,0.1c1.4,0,2.7-0.2,4.3-0.4c0.7-0.1,0.6,0.3,1,0.2
						c2.1-0.1,3.7-0.6,5.1-0.5c1,0,2,0.1,2.8,0.1l1.8,0l1.1-0.1c-0.3-0.1-0.4-0.2-0.6-0.3c0.6,0,1.4,0.1,1.9,0.1
						c-0.6,0-1.4-0.1-1.9-0.1c0.2,0.1,0.2,0.3,0.6,0.3c2.8-0.2,6-0.4,9-0.6l0,0c-1.7,0-3.4,0-5.2-0.2c0.8,0,0.7,0.1-0.2,0.2
						l-0.7-0.2c1.5-0.1,3.1-0.2,4.6,0c0,0,0.7-0.1,1-0.1c0.5,0,0.5,0.1,0.6,0.2l1.1,0C223.1,261.9,220.8,261.7,220.8,261.7z"/>
				</g>
			</g>
			<g>
				<g>
					<path class="st2" d="M202.9,261.9c0.2,0,0.6,0,0.8,0l-3.4,0C200.9,262.1,201.9,262,202.9,261.9z"/>
				</g>
			</g>
		</g>
		<g>
			<path class="st2" d="M121.9,225.5H91.8c-0.1,0-18.7,0-18.7,0v21.4H56.6c-1,0-1.2-1.6-1.2-3.7l0-56.8c0,0-0.9-1.9-3.7-1.9
				c-2.8,0-3.9,1.9-3.9,1.9V247c0,5,2.7,7.5,8,7.5h17.4c0.2,0.7,0.4,1.3,0.8,1.6c0.7,0.8,2.1,1.1,4.3,1.1h26.7v-16.3
				c0.1-3.3-0.5-6-2-8.6h18.8c0,0,2.6-0.7,2.6-3.5C124.6,226,121.9,225.5,121.9,225.5z M98.9,250.6H79.2v-18.4h9.3
				c5.8,0.3,8,1.8,9.3,3.5c1.1,1.4,1.1,4.6,1.1,5.9L98.9,250.6z"/>
		</g>
		<g>
			<g>
				<path class="st2" d="M247.1,189.1c0-1.1,0.4-2.1,1.2-3c0.8-0.8,1.8-1.3,2.9-1.3c1.2,0,2.2,0.4,3,1.2c0.8,0.8,1.2,1.8,1.2,3
					c0,1.2-0.4,2.1-1.2,2.9c-0.8,0.7-1.8,1.1-2.9,1.1c-1.1,0-2.1-0.4-2.9-1.2C247.5,191.2,247.1,190.3,247.1,189.1z"/>
			</g>
		</g>
	</g>
	<g>
		<g>
			<path class="st2" d="M187.6,311.6h-10.2c-0.9,0-1.9-0.2-3-0.7c-1.1-0.5-2-1-2.6-1.7c-1.5-1.6-2.2-3.7-2.2-6.2
				c0-2.5,0.7-4.5,2.2-6.2c1.5-1.6,3.4-2.5,5.8-2.5c2.3,0,4.2,0.8,5.6,2.4c1.3,1.4,1.9,3.3,1.9,5.5v7.1h2.4V311.6z M182.1,309.4
				v-5.9c0-1.8-0.3-3.3-1-4.5c-0.8-1.6-2.1-2.3-3.7-2.3c-3,0-4.5,2-4.5,6c0,1.8,0.3,3.3,1,4.5c0.8,1.6,2.1,2.3,3.7,2.3H182.1z
				 M176.9,290.2c0,0.4-0.2,0.8-0.5,1.1c-0.3,0.3-0.7,0.5-1.1,0.5c-0.4,0-0.8-0.2-1.1-0.5c-0.3-0.3-0.5-0.7-0.5-1.1
				c0-0.4,0.2-0.8,0.5-1.1c0.3-0.3,0.7-0.5,1.1-0.5C176.4,288.6,176.9,289.1,176.9,290.2z M180.5,290.2c0,0.4-0.2,0.8-0.5,1.1
				c-0.3,0.3-0.7,0.5-1.1,0.5c-0.4,0-0.8-0.2-1.1-0.5c-0.3-0.3-0.5-0.7-0.5-1.1c0-1,0.5-1.5,1.6-1.5c0.4,0,0.8,0.2,1.1,0.5
				C180.3,289.4,180.5,289.7,180.5,290.2z"/>
		</g>
		<g>
			<path class="st2" d="M194.3,311.6H186v-2.2h3.9v-10c0-2-0.4-3.7-1.3-5.1h5.7c-0.8,1.5-1.2,3.1-1.2,5.1v7.2
				C193,308.4,193.5,310.1,194.3,311.6z M189.7,315c0,1-0.5,1.6-1.6,1.6c-1,0-1.5-0.5-1.5-1.6c0-0.4,0.2-0.8,0.5-1.1
				c0.3-0.3,0.7-0.5,1.1-0.5C189.2,313.5,189.7,314,189.7,315z M193.3,315c0,1-0.5,1.6-1.5,1.6c-1,0-1.6-0.5-1.6-1.6
				c0-0.4,0.2-0.8,0.5-1.1c0.3-0.3,0.7-0.5,1.1-0.5C192.8,313.5,193.3,314,193.3,315z"/>
		</g>
		<g>
			<path class="st2" d="M203.2,294.2c-0.9,1.4-1.3,3-1.3,5.1v13.4c0,1.9-0.7,3.7-2.1,5.2c-1.4,1.5-3.1,2.3-5.2,2.3h-0.2v-3.7
				c1.5,0,2.7-0.7,3.4-2.2c0.6-1.1,0.9-2.5,0.9-4.2v-10.8c0-1.9-0.4-3.6-1.2-5.1H203.2z"/>
		</g>
		<g>
			<path class="st2" d="M213.2,311.6h-8.3c0.8-1.6,1.2-3.2,1.2-5.1v-16.1c0-1.8-0.4-3.5-1.2-5h5.7c-0.9,1.5-1.3,3.1-1.3,5v18.9h3.9
				V311.6z"/>
		</g>
		<g>
			<path class="st2" d="M232.8,311.6h-21.6v-2.2h15.4v-6c0-1.8-0.3-3.3-1-4.5c-0.8-1.5-2.1-2.3-3.7-2.3c-1.5,0-2.6,0.6-3.4,1.8
				c-0.7,1-1,2.3-1,3.8c0,1.5,0.4,2.9,1.3,4.4h-5.7c0.5-1,0.8-1.7,0.9-2.2c0.1-0.8,0.3-1.9,0.5-3.5c0.3-1.7,0.9-3.1,1.9-4.1
				c1.6-1.6,3.5-2.4,5.8-2.4c2.2,0,4.1,0.8,5.6,2.4c1.3,1.4,1.9,3.2,1.9,5.5v7.1l3.1-0.1V311.6z M223.2,315c0,1.1-0.5,1.6-1.5,1.6
				c-0.4,0-0.8-0.2-1.1-0.5c-0.3-0.3-0.5-0.7-0.5-1.1c0-1,0.5-1.5,1.6-1.5C222.7,313.4,223.2,313.9,223.2,315z"/>
		</g>
		<g>
			<path class="st2" d="M240.3,311.6h-9v-2.2h2.6v-10c0-1.8-0.4-3.5-1.2-5.1h5.7c-0.9,1.5-1.3,3.1-1.3,5.1v10h3.2V311.6z M235.5,290
				c0,1-0.5,1.6-1.5,1.6c-1,0-1.5-0.5-1.5-1.6c0-0.4,0.1-0.8,0.5-1.1c0.3-0.3,0.7-0.5,1.1-0.5C235,288.5,235.5,289,235.5,290z
				 M239.1,290c0,1-0.5,1.6-1.6,1.6c-1,0-1.5-0.5-1.5-1.6c0-0.4,0.2-0.8,0.5-1.1c0.3-0.3,0.7-0.5,1.1-0.5
				C238.6,288.5,239.1,289,239.1,290z"/>
		</g>
		<g>
			<path class="st2" d="M247.3,311.6H239v-2.2h3.9v-18.9c0-1.9-0.4-3.6-1.3-5h5.7c-0.8,1.6-1.2,3.2-1.2,5v16.1
				C246.1,308.4,246.5,310.1,247.3,311.6z"/>
		</g>
		<g>
			<path class="st2" d="M255.2,311.6h-5.7c0.8-1.6,1.2-3.2,1.2-4.8v-16.5c0-1.7-0.4-3.3-1.2-4.8h5.7c-0.9,1.4-1.3,3.1-1.3,5.1v16.1
				C253.9,308.5,254.4,310.2,255.2,311.6z"/>
		</g>
	</g>
	<g>
		<g>
			<path class="st2" d="M51.7,291.2c-0.5,0-1.1,0-1.7,0c-0.6,0-1.2,0-1.8,0.1c-0.6,0-1.2,0.1-1.7,0.1c-0.6,0-1,0.1-1.5,0.2
				c0.1-0.4,0.2-0.7,0.2-1c0-0.2-0.1-0.6-0.2-1c1.4,0,2.7,0.1,4,0.1c1.3,0,2.6,0,4,0c1.4,0,2.7,0,4,0c1.3,0,2.7-0.1,4-0.1
				c-0.1,0.4-0.2,0.7-0.2,1c0,0.3,0.1,0.6,0.2,1c-0.4-0.1-0.9-0.1-1.5-0.2c-0.6,0-1.1-0.1-1.7-0.1c-0.6,0-1.2-0.1-1.8-0.1
				c-0.6,0-1.2,0-1.7,0c-0.1,2.1-0.1,4.3-0.1,6.5v5.4c0,1.4,0,2.7,0.1,4.1c0.1,1.3,0.1,2.6,0.2,3.9c-0.5,0-1-0.1-1.5-0.1
				c-0.5,0-1,0-1.5,0.1c0.1-1.3,0.1-2.6,0.2-3.9c0.1-1.3,0.1-2.7,0.1-4.1l-0.1-5.4C51.8,295.5,51.7,293.3,51.7,291.2z"/>
			<path class="st2" d="M51.7,291.1c-0.5,0-1.1,0-1.7,0c-0.6,0-1.2,0-1.8,0.1c-0.5,0-1,0.1-1.7,0.1c-0.5,0-1,0.1-1.5,0.2l0.1,0.1
				c0.1-0.4,0.2-0.7,0.2-1c0-0.2-0.1-0.6-0.2-1l-0.1,0.1l4,0.1c1.3,0,2.7,0,4,0s2.7,0,4,0l4-0.1l-0.1-0.1c-0.1,0.4-0.2,0.8-0.2,1
				c0,0.3,0.1,0.6,0.2,1l0.1-0.1c-0.4-0.1-0.9-0.1-1.5-0.2c-0.7,0-1.2-0.1-1.7-0.1c-0.6,0-1.2,0-1.8-0.1c-0.6,0-1.2,0-1.7,0h-0.1
				l0,0.1c-0.1,2.1-0.1,4.3-0.1,6.5v5.4c0,1.4,0,2.8,0.1,4.1c0,1.2,0.1,2.4,0.2,3.9l0.1-0.1c-0.5,0-1-0.1-1.5-0.1
				c-0.5,0-1.1,0-1.5,0.1l0.1,0.1l0.2-3.9c0.1-1.3,0.1-2.7,0.1-4.1l-0.1-5.4C51.9,295.5,51.8,293.4,51.7,291.1L51.7,291.1
				L51.7,291.1z M51.7,297.7l0.1,5.4c0,1.3,0,2.7-0.1,4.1l-0.2,3.9l0,0.1c0,0,0.1,0,0.1,0c0.5,0,1-0.1,1.5-0.1s1,0,1.5,0.1l0.1,0
				l0-0.1c-0.1-1.6-0.1-2.8-0.2-3.9c-0.1-1.3-0.1-2.7-0.1-4.1v-5.4c0-2.2,0-4.4,0.1-6.5l-0.1,0.1c0.5,0,1.1,0,1.7,0
				c0.6,0,1.2,0,1.8,0.1c0.5,0,1,0.1,1.7,0.1c0.5,0,1,0.1,1.5,0.2l0.1,0l0-0.1c-0.1-0.4-0.2-0.7-0.2-0.9c0-0.2,0.1-0.6,0.2-1l0-0.1
				l-0.1,0l-4,0.1c-1.3,0-2.6,0-4,0c-1.4,0-2.7,0-4,0l-4-0.1l-0.1,0l0,0.1c0.1,0.4,0.2,0.7,0.2,0.9c0,0.3-0.1,0.6-0.2,1l0,0.1l0.1,0
				c0.4-0.1,0.9-0.1,1.5-0.2c0.7-0.1,1.2-0.1,1.7-0.1c0.6,0,1.2-0.1,1.8-0.1c0.6,0,1.2,0,1.7,0l-0.1-0.1
				C51.6,293.4,51.7,295.5,51.7,297.7z"/>
		</g>
		<g>
			<path class="st2" d="M68.4,298.5c-0.3-0.1-0.6-0.2-0.9-0.2c-0.5,0-0.9,0.1-1.3,0.3c-0.4,0.2-0.7,0.5-1,0.9
				c-0.3,0.4-0.5,0.8-0.6,1.4c-0.1,0.5-0.2,1.1-0.2,1.7v3.4c0,1.4,0,2.5,0,3.2c0,0.7,0,1.3,0.1,1.8c-0.4,0-0.8-0.1-1.2-0.1
				c-0.5,0-0.9,0-1.3,0.1c0.1-0.7,0.1-1.7,0.1-2.9c0-1.2,0-2.7,0-4.5v-1c0-0.8,0-1.7,0-2.8c0-1.1,0-2.3-0.1-3.6
				c0.2,0,0.4,0.1,0.7,0.1c0.2,0,0.4,0,0.7,0c0.2,0,0.4,0,0.6,0c0.2,0,0.4-0.1,0.7-0.1c-0.1,0.7-0.1,1.3-0.1,1.8c0,0.4,0,0.8,0,1.2
				l0.1,0c1.2-2.2,2.6-3.4,4.1-3.4c0.2,0,0.3,0,0.5,0c0.1,0,0.3,0.1,0.5,0.1c-0.1,0.3-0.2,0.6-0.2,1.2c0,0.5,0,1,0,1.4l-0.2,0.2
				C68.9,298.7,68.7,298.6,68.4,298.5z"/>
			<path class="st2" d="M68.4,298.4c-0.3-0.1-0.6-0.2-1-0.2c-0.5,0-1,0.1-1.4,0.4c-0.4,0.2-0.8,0.6-1,0.9c-0.3,0.4-0.5,0.9-0.6,1.4
				c-0.1,0.5-0.2,1.1-0.2,1.7v3.4c0,1.5,0,2.5,0,3.2c0,0.7,0,1.3,0.1,1.8l0.1-0.1c-0.4,0-0.8-0.1-1.3-0.1c-0.5,0-0.9,0-1.3,0.1
				l0.1,0.1c0.1-0.7,0.1-1.6,0.1-2.9l0-4.5v-1l0-2.8c0-1.1,0-2.3-0.1-3.6l-0.1,0.1l0.1,0c0.2,0,0.4,0.1,0.6,0.1c0.2,0,0.4,0,0.7,0
				c0.2,0,0.4,0,0.6,0c0.2,0,0.3-0.1,0.5-0.1l0.1,0l-0.1-0.1c-0.1,0.7-0.1,1.3-0.1,1.8c0,0.4,0,0.8,0,1.2v0.1l0.1,0l0.1,0l0.1,0
				l0-0.1c1.2-2.2,2.6-3.3,4-3.3c0.2,0,0.3,0,0.5,0c0.1,0,0.3,0.1,0.5,0.1l-0.1-0.1c-0.1,0.3-0.2,0.7-0.2,1.2c0,0.5,0,1,0,1.4l0-0.1
				l-0.2,0.2l0.1,0C68.9,298.6,68.7,298.5,68.4,298.4z M69,298.9l0.2-0.2l0,0v-0.1c0-0.4,0-0.9,0-1.4c0-0.5,0.1-0.9,0.2-1.1l0-0.1
				l-0.1,0c-0.2-0.1-0.4-0.1-0.5-0.1c-0.2,0-0.3,0-0.5,0c-1.6,0-3,1.1-4.2,3.4l0.1,0l-0.1,0l0.1,0.1c0-0.4,0-0.8,0-1.2
				c0-0.5,0.1-1,0.1-1.8l0-0.1l-0.1,0l-0.1,0c-0.2,0-0.4,0.1-0.5,0.1c-0.2,0-0.4,0-0.6,0c-0.2,0-0.4,0-0.6,0c-0.2,0-0.4-0.1-0.5-0.1
				l-0.1,0l-0.1,0l0,0.1c0.1,1.3,0.1,2.5,0.1,3.6c0,0,0,2.8,0,2.8v1l0,4.5c0,1.2,0,2.2-0.1,2.9l0,0.1l0.1,0c0.4,0,0.8-0.1,1.3-0.1
				c0.4,0,0.8,0,1.2,0.1l0.1,0l0-0.1c-0.1-0.5-0.1-1.1-0.1-1.8c0-0.7,0-1.7,0-3.2v-3.4c0-0.6,0.1-1.2,0.2-1.7c0.1-0.5,0.3-1,0.6-1.3
				c0.3-0.4,0.6-0.7,1-0.9c0.4-0.2,0.8-0.3,1.3-0.3c0.3,0,0.6,0.1,0.9,0.2c0.3,0.1,0.5,0.2,0.6,0.3L69,298.9L69,298.9z"/>
		</g>
		<g>
			<path class="st2" d="M74.7,296.3c0.8-0.2,1.6-0.4,2.4-0.4c0.7,0,1.4,0.1,2.1,0.3c0.6,0.2,1.2,0.5,1.6,0.9c0.4,0.4,0.8,0.9,1,1.5
				c0.3,0.6,0.4,1.2,0.4,1.9c0,1.2,0,2.4-0.1,3.5c0,1.2-0.1,2.4-0.1,3.7c0,0.2,0,0.5,0,0.8c0,0.3,0.1,0.5,0.1,0.7
				c0.1,0.2,0.2,0.4,0.4,0.5c0.2,0.1,0.4,0.2,0.7,0.2c0.1,0,0.2,0,0.3,0c0.1,0,0.2,0,0.3-0.1v0.7c-0.2,0.1-0.5,0.2-0.9,0.3
				c-0.3,0.1-0.7,0.1-1.1,0.1c-0.7,0-1.2-0.2-1.6-0.5c-0.4-0.3-0.6-0.8-0.6-1.3c-0.7,0.7-1.5,1.3-2.2,1.7c-0.7,0.4-1.6,0.5-2.7,0.5
				c-0.5,0-1-0.1-1.5-0.2c-0.5-0.1-0.9-0.4-1.3-0.7c-0.4-0.3-0.7-0.7-0.9-1.2c-0.2-0.5-0.4-1-0.4-1.6c0-1.2,0.4-2.2,1.2-2.9
				c0.8-0.7,1.8-1.1,3.2-1.4c1.1-0.2,2-0.3,2.6-0.5c0.6-0.1,1.1-0.3,1.4-0.4c0.3-0.1,0.5-0.3,0.5-0.5c0.1-0.2,0.1-0.5,0.1-0.8
				c0-0.5-0.1-1-0.2-1.5c-0.1-0.5-0.3-0.9-0.6-1.2c-0.3-0.4-0.6-0.6-1.1-0.9c-0.4-0.2-1-0.3-1.6-0.3c-0.8,0-1.6,0.2-2.3,0.6
				c-0.7,0.4-1.3,0.9-1.6,1.6h-0.3v-1.6C73,297,73.9,296.5,74.7,296.3z M78.6,303.6c-0.5,0.1-0.9,0.2-1.4,0.3
				c-0.5,0.1-1,0.2-1.4,0.4c-0.5,0.1-0.9,0.3-1.2,0.6c-0.4,0.3-0.7,0.6-0.9,0.9c-0.2,0.4-0.3,0.9-0.3,1.4c0,1,0.3,1.7,0.8,2.2
				c0.6,0.5,1.2,0.7,1.9,0.7c0.8,0,1.5-0.2,2.2-0.7c0.7-0.4,1.2-0.9,1.5-1.5l0.1-4.7C79.4,303.4,79,303.5,78.6,303.6z"/>
			<path class="st2" d="M74.7,296.4c0.8-0.2,1.6-0.4,2.4-0.4c0.7,0,1.4,0.1,2,0.3c0.6,0.2,1.1,0.5,1.6,0.9c0.4,0.4,0.8,0.9,1,1.4
				c0.2,0.6,0.4,1.2,0.4,1.8c0,1.2,0,2.4-0.1,3.5c0,1.2-0.1,2.4-0.1,3.7c0,0.2,0,0.5,0,0.8c0,0.3,0.1,0.6,0.1,0.8
				c0.1,0.2,0.2,0.4,0.4,0.6c0.2,0.2,0.4,0.2,0.8,0.2c0.1,0,0.2,0,0.3,0c0.1,0,0.3-0.1,0.4-0.1l-0.2-0.1v0.7l0.1-0.1
				c-0.2,0.1-0.5,0.2-0.8,0.2c-0.3,0.1-0.7,0.1-1.1,0.1c-0.7,0-1.2-0.2-1.5-0.5c-0.3-0.3-0.6-0.8-0.6-1.3l0-0.2l-0.1,0.1
				c-0.7,0.7-1.5,1.3-2.2,1.6c-0.7,0.3-1.6,0.5-2.6,0.5c-0.5,0-1-0.1-1.5-0.2c-0.5-0.1-0.9-0.4-1.3-0.7c-0.4-0.3-0.7-0.7-0.9-1.2
				c-0.2-0.4-0.3-1-0.3-1.6c0-1.2,0.4-2.2,1.1-2.8c0.8-0.7,1.8-1.1,3.2-1.4c1.2-0.2,2-0.4,2.6-0.5c0.6-0.1,1.1-0.3,1.4-0.4
				c0.3-0.2,0.5-0.3,0.6-0.6c0.1-0.2,0.1-0.5,0.1-0.8c0-0.5-0.1-1-0.2-1.5c-0.1-0.5-0.3-0.9-0.6-1.3c-0.3-0.4-0.6-0.7-1.1-0.9
				c-0.4-0.2-1-0.3-1.6-0.3c-0.8,0-1.6,0.2-2.4,0.6c-0.7,0.4-1.3,0.9-1.6,1.6l0.1-0.1h-0.3l0.1,0.1v-1.6l0,0.1
				C73.1,297.1,73.9,296.6,74.7,296.4z M72,297.7v1.6v0.1h0.1h0.3h0.1l0-0.1c0.3-0.6,0.9-1.2,1.6-1.5c0.7-0.4,1.5-0.6,2.3-0.6
				c0.6,0,1.1,0.1,1.5,0.3c0.4,0.2,0.8,0.5,1,0.8c0.3,0.3,0.5,0.8,0.6,1.2c0.1,0.5,0.2,1,0.2,1.5c0,0.3,0,0.5-0.1,0.7
				c-0.1,0.2-0.2,0.3-0.5,0.5c-0.3,0.1-0.8,0.3-1.4,0.4c-0.6,0.1-1.5,0.3-2.6,0.5c-1.4,0.2-2.5,0.7-3.3,1.4c-0.8,0.7-1.2,1.7-1.2,3
				c0,0.6,0.1,1.2,0.4,1.7c0.2,0.5,0.6,0.9,1,1.2c0.4,0.3,0.8,0.6,1.4,0.7c0.5,0.1,1,0.2,1.5,0.2c1.1,0,2-0.2,2.7-0.5
				c0.7-0.4,1.5-0.9,2.2-1.7l-0.2-0.1c0.1,0.6,0.3,1,0.7,1.4c0.4,0.4,0.9,0.5,1.6,0.5c0.4,0,0.8,0,1.1-0.1c0.4-0.1,0.7-0.2,0.9-0.3
				l0.1,0v-0.1V310v-0.2l-0.2,0.1c-0.1,0.1-0.2,0.1-0.3,0.1c-0.1,0-0.2,0-0.3,0c-0.3,0-0.5-0.1-0.6-0.2c-0.1-0.1-0.3-0.3-0.3-0.5
				c-0.1-0.2-0.1-0.4-0.1-0.7c0-0.3,0-0.5,0-0.8c0-1.3,0-2.5,0.1-3.7c0-1.2,0.1-2.4,0.1-3.5c0-0.7-0.1-1.3-0.4-1.9
				c-0.3-0.6-0.6-1.1-1.1-1.5c-0.5-0.4-1-0.7-1.6-1c-0.6-0.2-1.3-0.3-2.1-0.3c-0.8,0-1.7,0.1-2.5,0.4C73.8,296.4,73,296.9,72,297.7
				L72,297.7L72,297.7z"/>
			<path class="st2" d="M78.5,303.5l-1.4,0.3c-0.5,0.1-1,0.2-1.4,0.4c-0.5,0.1-0.9,0.4-1.3,0.6c-0.4,0.3-0.7,0.6-0.9,1
				c-0.2,0.4-0.3,0.9-0.3,1.5c0,1,0.3,1.8,0.9,2.3c0.6,0.5,1.2,0.8,1.9,0.8c0.8,0,1.6-0.2,2.2-0.7c0.7-0.4,1.2-1,1.5-1.6l0,0v0
				l0.1-4.7l0-0.1l-0.1,0C79.4,303.3,79,303.4,78.5,303.5z M79.7,303.3l-0.1,4.7l0,0c-0.3,0.6-0.8,1.1-1.5,1.5
				c-0.6,0.4-1.3,0.6-2.1,0.6c-0.7,0-1.3-0.2-1.8-0.7c-0.5-0.5-0.8-1.2-0.8-2.1c0-0.6,0.1-1,0.3-1.4c0.2-0.4,0.5-0.7,0.8-0.9
				c0.3-0.2,0.8-0.4,1.2-0.6c0.5-0.1,0.9-0.3,1.4-0.4l1.4-0.3c0.5-0.1,0.9-0.2,1.2-0.3L79.7,303.3z"/>
		</g>
		<g>
			<path class="st2" d="M98,308.1c-0.2,0.3-0.4,0.7-0.7,1.1c-0.3,0.4-0.6,0.7-1.1,1.1c-0.4,0.3-0.9,0.6-1.5,0.8
				c-0.6,0.2-1.3,0.3-2,0.3c-0.8,0-1.6-0.1-2.3-0.4c-0.8-0.3-1.4-0.7-2-1.3c-0.6-0.6-1.1-1.4-1.4-2.4c-0.4-1-0.5-2.1-0.5-3.5
				c0-1.3,0.2-2.5,0.6-3.5c0.4-1,0.9-1.8,1.5-2.4c0.6-0.7,1.4-1.1,2.2-1.5c0.8-0.3,1.6-0.5,2.4-0.5c2.3,0,3.9,1,4.8,3.1h0V296
				c0-0.8,0-1.6,0-2.4c0-0.8,0-1.6,0-2.3c0-0.7,0-1.4,0-2.1c0-0.6,0-1.2,0-1.7c0.2,0,0.5,0.1,0.7,0.1c0.2,0,0.4,0,0.7,0
				c0.2,0,0.4,0,0.7,0c0.2,0,0.5-0.1,0.7-0.1c-0.1,0.7-0.1,1.6-0.1,2.9c0,1.3-0.1,2.6-0.1,4.2c0,1.5-0.1,3.1-0.1,4.7
				c0,1.6,0,3.1,0,4.4c0,1.4,0,2.7,0,3.9c0,1.1,0,2.3,0.1,3.5c-0.4,0-0.8-0.1-1.2-0.1c-0.4,0-0.8,0-1.2,0.1L98,308.1L98,308.1z
				 M89.5,307c0.3,0.8,0.6,1.5,1,1.9c0.4,0.5,0.9,0.8,1.4,1c0.5,0.2,1,0.3,1.5,0.3c0.8,0,1.5-0.2,2.1-0.6c0.6-0.4,1.1-0.9,1.4-1.6
				c0.4-0.7,0.7-1.4,0.8-2.2c0.2-0.8,0.3-1.7,0.3-2.5c0-2-0.4-3.5-1.2-4.6c-0.8-1-1.9-1.6-3.4-1.6c-0.7,0-1.4,0.2-2,0.5
				c-0.6,0.3-1,0.8-1.4,1.4c-0.4,0.6-0.6,1.3-0.8,2.1c-0.2,0.8-0.3,1.7-0.3,2.6C89.1,305.2,89.2,306.2,89.5,307z"/>
			<path class="st2" d="M97.9,308c-0.2,0.3-0.4,0.7-0.7,1.1c-0.3,0.4-0.6,0.7-1,1.1c-0.4,0.3-0.9,0.6-1.5,0.8
				c-0.6,0.2-1.2,0.3-2,0.3c-0.8,0-1.6-0.1-2.3-0.4c-0.7-0.3-1.4-0.7-2-1.3c-0.6-0.6-1.1-1.4-1.4-2.3c-0.4-0.9-0.5-2.1-0.5-3.4
				c0-1.3,0.2-2.5,0.6-3.4c0.4-1,0.9-1.8,1.5-2.4c0.6-0.6,1.3-1.1,2.1-1.4c0.8-0.3,1.6-0.5,2.4-0.5c2.3,0,3.9,1,4.7,3.1l0,0.1h0.1h0
				H98V299V296l0-2.4c0,0,0-1.7,0-1.7l0-0.6l0-1.6l0-0.4c0-0.6,0-1.2,0-1.7l-0.1,0.1c0.3,0,0.5,0.1,0.7,0.1c0.2,0,0.5,0,0.7,0
				c0.2,0,0.4,0,0.7,0c0,0,0.4-0.1,0.4-0.1l0.3-0.1l-0.1-0.1c-0.1,0.7-0.1,1.6-0.1,2.9c0,1.3-0.1,2.7-0.1,4.2l-0.1,4.7
				c0,1.6,0,3,0,4.4c0,1.4,0,2.7,0,3.9l0.1,3.5l0.1-0.1c-0.4,0-0.8-0.1-1.2-0.1c-0.4,0-0.8,0-1.2,0.1L98,311l0.1-3l0-0.1H98
				L97.9,308L97.9,308L97.9,308z M98,308.1l-0.1,3l0,0.1l0.1,0c0.4,0,0.8-0.1,1.2-0.1c0.4,0,0.8,0,1.2,0.1l0.1,0l0-0.1l-0.1-3.5
				c0-1.2,0-2.5,0-3.9c0-1.4,0-2.8,0-4.4l0.1-4.7c0-1.5,0.1-2.9,0.1-4.2c0-1.2,0.1-2.2,0.1-2.9l0-0.1c0,0-0.1,0-0.1,0l-0.3,0.1
				l-0.4,0.1c-0.2,0-0.4,0-0.6,0c-0.2,0-0.4,0-0.7,0c-0.2,0-0.5-0.1-0.7-0.1l-0.1,0l0,0.1c0,0.5,0,1.1,0,1.7l0,0.4l0,1.6l0,0.6
				l0,1.7c0,0,0,2.4,0,2.4v3.1l0.1-0.1h0L98,299c-0.9-2.1-2.6-3.2-4.9-3.2c-0.8,0-1.7,0.2-2.5,0.5c-0.8,0.3-1.6,0.8-2.2,1.5
				c-0.6,0.7-1.2,1.5-1.6,2.5c-0.4,1-0.6,2.2-0.6,3.5c0,1.4,0.2,2.5,0.6,3.5c0.4,1,0.9,1.8,1.5,2.4c0.6,0.6,1.3,1.1,2.1,1.3
				c0.8,0.3,1.6,0.4,2.4,0.4c0.8,0,1.5-0.1,2.1-0.3c0.6-0.2,1.1-0.5,1.5-0.8c0.4-0.3,0.8-0.7,1.1-1.1c0.3-0.4,0.5-0.7,0.7-1.1
				l-0.1,0.1H98L98,308.1z"/>
			<path class="st2" d="M89.4,307.1c0.3,0.8,0.6,1.5,1,2c0.4,0.5,0.9,0.9,1.4,1c0.5,0.2,1,0.3,1.6,0.3c0.8,0,1.6-0.2,2.1-0.6
				c0.6-0.4,1.1-1,1.5-1.6c0.4-0.7,0.7-1.4,0.9-2.3c0.2-0.8,0.3-1.7,0.3-2.5c0-2-0.4-3.6-1.2-4.6c-0.8-1.1-2-1.6-3.5-1.6
				c-0.8,0-1.4,0.2-2,0.5c-0.6,0.3-1,0.8-1.4,1.5c-0.4,0.6-0.6,1.4-0.8,2.2c-0.2,0.8-0.3,1.7-0.3,2.7
				C89,305.2,89.1,306.2,89.4,307.1z M89.2,303.9c0-0.9,0.1-1.8,0.3-2.6c0.2-0.8,0.4-1.5,0.8-2.1c0.4-0.6,0.8-1.1,1.3-1.4
				c0.5-0.3,1.2-0.5,1.9-0.5c1.5,0,2.6,0.5,3.3,1.5c0.8,1,1.1,2.5,1.1,4.5c0,0.8-0.1,1.6-0.3,2.5c-0.2,0.8-0.5,1.6-0.8,2.2
				c-0.4,0.6-0.9,1.2-1.4,1.6c-0.6,0.4-1.2,0.6-2,0.6c-0.5,0-1-0.1-1.5-0.3c-0.5-0.2-1-0.5-1.3-1c-0.4-0.5-0.7-1.1-1-1.9
				C89.3,306.2,89.2,305.2,89.2,303.9z"/>
		</g>
		<g>
			<path class="st2" d="M105.6,289.7c0.3-0.3,0.7-0.5,1.1-0.5c0.4,0,0.8,0.2,1.1,0.5c0.3,0.3,0.5,0.7,0.5,1.1c0,0.4-0.2,0.8-0.5,1.1
				c-0.3,0.3-0.7,0.5-1.1,0.5c-0.4,0-0.8-0.2-1.1-0.5c-0.3-0.3-0.5-0.7-0.5-1.1C105.2,290.4,105.3,290,105.6,289.7z M105.5,299.1
				c0-1-0.1-2-0.2-2.9c0.6,0.1,1.1,0.2,1.4,0.2c0.4,0,0.8-0.1,1.4-0.2c-0.1,0.9-0.2,1.9-0.2,2.9c0,1-0.1,2-0.1,2.9v3.2
				c0,0.9,0,1.9,0.1,2.9c0,1,0.1,2,0.2,2.8c-0.5,0-1-0.1-1.4-0.1c-0.5,0-0.9,0-1.4,0.1c0.1-0.8,0.2-1.8,0.2-2.8c0-1,0.1-2,0.1-2.9
				V302C105.6,301.1,105.6,300.1,105.5,299.1z"/>
			<path class="st2" d="M105.7,289.7c0.3-0.3,0.6-0.4,1.1-0.4s0.8,0.1,1.1,0.4c0.3,0.3,0.4,0.6,0.4,1.1c0,0.4-0.1,0.8-0.4,1.1
				c-0.3,0.3-0.6,0.4-1.1,0.4c-0.4,0-0.8-0.1-1.1-0.4c-0.3-0.3-0.4-0.6-0.4-1.1C105.3,290.4,105.4,290,105.7,289.7z M105.1,290.8
				c0,0.5,0.2,0.9,0.5,1.2c0.3,0.3,0.7,0.5,1.2,0.5c0.5,0,0.9-0.2,1.2-0.5c0.3-0.3,0.5-0.7,0.5-1.2c0-0.5-0.2-0.9-0.5-1.2
				c-0.3-0.3-0.7-0.5-1.2-0.5c-0.5,0-0.9,0.2-1.2,0.5C105.2,289.9,105.1,290.3,105.1,290.8z"/>
			<path class="st2" d="M105.6,299.1c0-1-0.1-2-0.2-2.9l-0.1,0.1c0.6,0.1,1.1,0.2,1.5,0.2c0.4,0,0.9-0.1,1.5-0.2l-0.1-0.1
				c-0.1,0.9-0.2,1.9-0.2,2.9c0,1-0.1,2-0.1,3v3.2c0,0.9,0,1.9,0.1,2.9c0,1,0.1,2,0.2,2.8l0.1-0.1c-0.5,0-1-0.1-1.4-0.1
				c-0.5,0-1,0-1.4,0.1l0.1,0.1c0.1-0.8,0.2-1.8,0.2-2.8c0-1,0.1-2,0.1-2.9V302C105.7,301.1,105.7,300.1,105.6,299.1z M105.5,302
				v3.2c0,0.9,0,1.9-0.1,2.9c0,1-0.1,2-0.2,2.8l0,0.1l0.1,0c0.5,0,1-0.1,1.4-0.1c0.5,0,1,0,1.4,0.1l0.1,0l0-0.1
				c-0.1-0.8-0.2-1.8-0.2-2.8c0-1-0.1-2-0.1-2.9V302c0-0.9,0-1.9,0.1-2.9c0-1,0.1-2,0.2-2.9l0-0.1l-0.1,0c-0.6,0.1-1.1,0.2-1.4,0.2
				c-0.4,0-0.8-0.1-1.4-0.2l-0.1,0l0,0.1c0.1,0.9,0.2,1.8,0.2,2.9C105.5,300.1,105.5,301.1,105.5,302z"/>
		</g>
		<g>
			<path class="st2" d="M122.7,298.7c-0.6-0.8-1.4-1.2-2.5-1.2c-1.5,0-2.5,0.4-3.2,1.3c-0.7,0.9-1,2.1-1,3.8v2.6c0,0.9,0,1.9,0,2.9
				c0,1,0.1,2,0.2,2.8c-0.5,0-1-0.1-1.4-0.1c-0.5,0-0.9,0-1.4,0.1c0.1-0.8,0.2-1.8,0.2-2.8c0-1,0-2,0-2.9v-3.2c0-0.9,0-1.9,0-2.9
				c0-1-0.1-2-0.2-2.9c0.6,0.1,1.1,0.2,1.4,0.2c0.2,0,0.4,0,0.6,0c0.2,0,0.4-0.1,0.7-0.1c-0.1,0.8-0.1,1.7-0.1,2.5h0.1
				c0.6-0.9,1.3-1.6,2.1-2.1c0.8-0.5,1.8-0.7,2.9-0.7c0.6,0,1.2,0.1,1.8,0.3c0.6,0.2,1.1,0.4,1.6,0.9c0.5,0.4,0.9,1,1.2,1.7
				c0.3,0.7,0.5,1.6,0.5,2.7c0,0.9,0,1.8-0.1,2.8c0,0.9-0.1,1.9-0.1,3v2c0,0.3,0,0.7,0,1c0,0.3,0,0.6,0,0.9c-0.4,0-0.9-0.1-1.3-0.1
				c-0.4,0-0.9,0-1.3,0.1c0-1.1,0.1-2.2,0.1-3.3c0.1-1.1,0.1-2.3,0.1-3.5v-1.9C123.6,300.7,123.3,299.5,122.7,298.7z"/>
			<path class="st2" d="M122.8,298.7c-0.6-0.8-1.5-1.2-2.6-1.2c-1.5,0-2.6,0.5-3.3,1.4c-0.7,0.9-1,2.2-1,3.8v2.6c0,1,0,2,0,2.9
				c0,1,0.1,2,0.2,2.8l0.1-0.1c-0.5,0-1-0.1-1.4-0.1c-0.5,0-0.9,0-1.4,0.1l0.1,0.1c0.1-0.8,0.2-1.8,0.2-2.8c0-1,0-2,0-2.9v-3.2
				c0-0.9,0-1.9,0-2.9c0-1-0.1-2-0.2-2.9l-0.1,0.1c0.6,0.1,1.1,0.2,1.4,0.2c0.2,0,0.4,0,0.6,0c0,0,0.7-0.1,0.7-0.1l-0.1-0.1
				c-0.1,0.8-0.1,1.7-0.1,2.5v0.1h0.1h0.1h0.1l0,0c0.6-0.9,1.3-1.6,2.1-2c0.8-0.5,1.7-0.7,2.8-0.7c0.6,0,1.1,0.1,1.7,0.2
				c0.6,0.2,1.1,0.4,1.6,0.8c0.5,0.4,0.8,0.9,1.1,1.6c0.3,0.7,0.4,1.6,0.4,2.6c0,0.9,0,1.8-0.1,2.8c0,0.9-0.1,1.9-0.1,3v2
				c0,0.4,0,0.7,0,1c0,0.3,0,0.6,0,0.9l0.1-0.1c-0.4,0-0.9-0.1-1.3-0.1c-0.5,0-0.9,0-1.3,0.1l0.1,0.1l0.1-3.3
				c0.1-1.1,0.1-2.3,0.1-3.5v-1.9C123.7,300.7,123.4,299.5,122.8,298.7z M123.5,302.3v1.9c0,1.2,0,2.4-0.1,3.5l-0.1,3.3l0,0.1l0.1,0
				c0.4,0,0.8-0.1,1.3-0.1c0.5,0,0.9,0,1.3,0.1l0.1,0l0-0.1c0-0.3,0-0.6,0-0.9c0-0.3,0-0.6,0-1v-2c0-1.1,0-2.1,0.1-3
				c0-0.9,0.1-1.9,0.1-2.8c0-1.1-0.2-2-0.5-2.7c-0.3-0.7-0.7-1.3-1.2-1.7c-0.5-0.4-1-0.7-1.6-0.9c-0.6-0.2-1.2-0.3-1.8-0.3
				c-1.1,0-2.1,0.3-2.9,0.7c-0.8,0.5-1.5,1.2-2.1,2.1l0.1,0H116l0.1,0.1c0-0.8,0-1.7,0.1-2.5l0-0.1l-0.1,0l-0.7,0.1
				c-0.2,0-0.4,0-0.5,0c-0.4,0-0.8-0.1-1.4-0.2l-0.1,0l0,0.1c0.1,0.9,0.2,1.9,0.2,2.9c0,1,0,2,0,2.9v3.2c0,0.9,0,1.9,0,2.9
				c0,1-0.1,2-0.2,2.8l0,0.1l0.1,0c0.5,0,0.9-0.1,1.4-0.1c0.5,0,0.9,0,1.4,0.1l0.1,0l0-0.1c-0.1-0.8-0.2-1.8-0.2-2.8c0-1,0-2,0-2.9
				v-2.6c0-1.6,0.3-2.8,1-3.7c0.7-0.9,1.7-1.3,3.1-1.3c1,0,1.8,0.4,2.4,1.2C123.2,299.6,123.5,300.7,123.5,302.3z"/>
		</g>
		<g>
			<path class="st2" d="M130.5,298.7c0.3-0.6,0.7-1.2,1.3-1.6c0.6-0.4,1.2-0.7,1.9-0.9c0.7-0.2,1.5-0.3,2.3-0.3c0.4,0,0.8,0,1.1,0
				c0.4,0,0.8,0,1.4,0.1c0.5,0,0.9,0.1,1.3,0.1c0.4,0,0.7,0,0.9,0c1.2,0,2,0,2.5-0.1c0,0.1,0,0.2,0,0.3c0,0.1,0,0.2,0,0.3
				c0,0.1,0,0.2,0,0.3c0,0.1,0,0.2,0,0.3c-0.6,0-1.2-0.1-1.8-0.1c-0.6-0.1-1.1-0.1-1.7-0.1l-0.1,0.1c0.6,0.4,1.2,0.9,1.6,1.6
				c0.4,0.7,0.6,1.5,0.6,2.3c0,1.6-0.5,2.8-1.6,3.7c-1.1,0.9-2.5,1.3-4.2,1.3c-0.3,0-0.6,0-0.9,0c-0.3,0-0.6,0-0.9,0
				c-0.4,0-0.7,0.1-1,0.4c-0.3,0.3-0.5,0.6-0.5,1c0,0.5,0.1,0.9,0.4,1.2c0.3,0.2,0.7,0.4,1.5,0.4c0.6,0,1.2,0,1.7,0.1
				c0.6,0,1.1,0,1.7,0.1c1,0,1.8,0.1,2.5,0.3c0.7,0.2,1.2,0.5,1.7,0.8c0.4,0.4,0.7,0.8,0.9,1.2c0.2,0.5,0.3,1,0.3,1.5
				c0,0.7-0.1,1.5-0.4,2.2c-0.3,0.7-0.7,1.4-1.3,2c-0.6,0.6-1.4,1.1-2.3,1.5c-0.9,0.4-2.1,0.6-3.4,0.6c-2,0-3.6-0.4-4.8-1.2
				c-1.2-0.8-1.7-1.9-1.7-3.3c0-0.5,0.1-1,0.3-1.5c0.2-0.5,0.5-0.9,0.8-1.2c0.3-0.4,0.7-0.6,1.1-0.8c0.4-0.2,0.8-0.4,1.2-0.5v-0.1
				c-0.7-0.2-1.1-0.5-1.5-0.9c-0.3-0.4-0.5-1-0.5-1.6c0-0.4,0.1-0.7,0.2-1c0.1-0.3,0.3-0.6,0.5-0.8c0.2-0.2,0.4-0.4,0.7-0.6
				c0.3-0.1,0.5-0.2,0.8-0.3v-0.1c-1-0.4-1.7-1-2.2-1.8c-0.5-0.8-0.8-1.7-0.8-2.9C130,300.1,130.2,299.4,130.5,298.7z M140,311.7
				c-0.7-0.5-1.9-0.7-3.6-0.7c-1.6,0-2.8,0.3-3.6,0.8c-0.9,0.5-1.3,1.4-1.3,2.7c0,0.7,0.1,1.3,0.4,1.8c0.2,0.5,0.6,0.9,1,1.2
				c0.4,0.3,0.9,0.5,1.4,0.7c0.6,0.1,1.2,0.2,1.8,0.2c0.6,0,1.2-0.1,1.8-0.2c0.6-0.2,1.1-0.4,1.6-0.7c0.5-0.3,0.8-0.7,1.1-1.3
				c0.3-0.5,0.4-1.1,0.4-1.8C141,313.1,140.7,312.2,140,311.7z M138.4,297.8c-0.6-0.7-1.4-1-2.5-1c-1.1,0-2,0.4-2.6,1.1
				c-0.6,0.8-0.9,1.8-0.9,3.1c0,1.3,0.3,2.4,0.9,3.1c0.6,0.8,1.5,1.1,2.7,1.1c0.6,0,1.1-0.1,1.5-0.4c0.4-0.2,0.8-0.6,1.1-1
				c0.3-0.4,0.5-0.9,0.6-1.4c0.1-0.5,0.2-1.1,0.2-1.7C139.4,299.5,139.1,298.5,138.4,297.8z"/>
			<path class="st2" d="M130.6,298.8c0.3-0.6,0.7-1.1,1.3-1.5c0.5-0.4,1.2-0.7,1.9-0.9c0.7-0.2,1.5-0.3,2.3-0.3c0.4,0,0.7,0,1.1,0
				c0,0,1.4,0.1,1.4,0.1c0.5,0,0.9,0.1,1.3,0.1c0.3,0,0.7,0,0.9,0c1.2,0,2,0,2.5-0.1l-0.1-0.1c0,0.1,0,0.2,0,0.3c0,0.1,0,0.2,0,0.3
				s0,0.2,0,0.3c0,0.1,0,0.2,0,0.3l0.1-0.1c-0.5,0-1.1-0.1-1.8-0.1c-0.5,0-1.1-0.1-1.7-0.1h0l0,0l-0.1,0.1l-0.1,0.1l0.1,0.1
				c0.6,0.3,1.1,0.9,1.5,1.6c0.4,0.7,0.6,1.5,0.6,2.2c0,1.5-0.5,2.7-1.5,3.6c-1,0.9-2.4,1.3-4.2,1.3c-0.3,0-0.6,0-0.9,0
				c-0.3,0-0.6,0-0.9,0c-0.4,0-0.8,0.1-1.1,0.4c-0.3,0.3-0.5,0.7-0.5,1.1c0,0.6,0.1,1,0.4,1.2c0.3,0.3,0.8,0.4,1.5,0.4
				c0.7,0,1.2,0,1.7,0.1c0.5,0,1,0,1.7,0.1c0.9,0,1.8,0.1,2.4,0.3c0.7,0.2,1.2,0.5,1.6,0.8c0.4,0.3,0.7,0.7,0.9,1.2
				c0.2,0.4,0.3,0.9,0.3,1.5c0,0.7-0.1,1.4-0.4,2.2c-0.3,0.7-0.7,1.4-1.3,2c-0.6,0.6-1.3,1.1-2.3,1.5c-0.9,0.4-2,0.6-3.3,0.6
				c-2,0-3.6-0.4-4.7-1.2c-1.1-0.8-1.7-1.9-1.7-3.2c0-0.5,0.1-1,0.3-1.5c0.2-0.4,0.4-0.8,0.7-1.2c0.3-0.3,0.6-0.6,1-0.8
				c0.4-0.2,0.8-0.4,1.2-0.5l0.1,0v-0.1v-0.1v-0.1l-0.1,0c-0.6-0.2-1.1-0.5-1.4-0.9c-0.3-0.4-0.5-0.9-0.5-1.5c0-0.3,0.1-0.6,0.2-0.9
				c0.1-0.3,0.3-0.5,0.5-0.8c0.2-0.2,0.4-0.4,0.7-0.5c0.3-0.1,0.5-0.2,0.8-0.3l0.1,0v-0.1v-0.1v-0.1l-0.1,0c-0.9-0.4-1.7-1-2.2-1.7
				c-0.5-0.7-0.8-1.7-0.8-2.8C130.1,300.1,130.2,299.4,130.6,298.8z M129.9,301c0,1.2,0.3,2.1,0.8,2.9c0.5,0.8,1.3,1.4,2.3,1.8
				l-0.1-0.1v0.1l0.1-0.1c-0.3,0-0.5,0.1-0.8,0.3c-0.3,0.1-0.5,0.3-0.7,0.6c-0.2,0.2-0.4,0.5-0.5,0.8c-0.1,0.3-0.2,0.6-0.2,1
				c0,0.6,0.2,1.2,0.5,1.6c0.3,0.5,0.9,0.8,1.5,1l-0.1-0.1v0.1l0.1-0.1c-0.4,0.1-0.8,0.3-1.2,0.5c-0.4,0.2-0.8,0.5-1.1,0.9
				c-0.3,0.4-0.6,0.8-0.8,1.2c-0.2,0.5-0.3,1-0.3,1.5c0,1.4,0.6,2.6,1.8,3.4c1.2,0.8,2.8,1.2,4.8,1.2c1.3,0,2.5-0.2,3.4-0.6
				c0.9-0.4,1.7-0.9,2.3-1.5c0.6-0.6,1-1.3,1.3-2.1c0.3-0.8,0.4-1.5,0.4-2.3c0-0.6-0.1-1.1-0.3-1.5c-0.2-0.5-0.5-0.9-1-1.3
				c-0.4-0.4-1-0.6-1.7-0.9c-0.7-0.2-1.5-0.3-2.5-0.3c-0.7,0-1.2,0-1.7-0.1c-0.5,0-1.1,0-1.7-0.1c-0.7,0-1.1-0.1-1.4-0.4
				c-0.2-0.2-0.4-0.6-0.4-1.1c0-0.4,0.1-0.7,0.4-0.9c0.3-0.3,0.6-0.4,1-0.4c0.2,0,0.5,0,0.9,0c0.3,0,0.6,0,0.9,0
				c1.8,0,3.2-0.5,4.3-1.3c1.1-0.9,1.6-2.2,1.6-3.7c0-0.8-0.2-1.6-0.6-2.3c-0.4-0.8-0.9-1.3-1.6-1.7l0,0.2l0.1-0.1l-0.1,0
				c0.6,0,1.2,0.1,1.7,0.1c0.7,0.1,1.2,0.1,1.8,0.1l0.1,0l0-0.1c0-0.1,0-0.2,0-0.3c0-0.1,0-0.2,0-0.3c0-0.1,0-0.2,0-0.3
				c0-0.1,0-0.2,0-0.3l0-0.1l-0.1,0c-0.5,0.1-1.3,0.1-2.5,0.1c-0.3,0-0.6,0-0.9,0c-0.4,0-0.8,0-1.3-0.1c0,0-1.4-0.1-1.4-0.1
				c-0.4,0-0.8,0-1.1,0c-0.8,0-1.6,0.1-2.3,0.3c-0.7,0.2-1.4,0.5-1.9,0.9c-0.6,0.4-1,1-1.3,1.6C130.1,299.3,129.9,300.1,129.9,301z"
				/>
			<path class="st2" d="M140,311.6c-0.7-0.5-2-0.8-3.7-0.8c-1.6,0-2.8,0.3-3.7,0.8c-0.9,0.5-1.3,1.5-1.3,2.8c0,0.7,0.1,1.3,0.4,1.8
				c0.2,0.5,0.6,0.9,1,1.2c0.4,0.3,0.9,0.6,1.5,0.7c0.6,0.1,1.2,0.2,1.8,0.2c0.6,0,1.3-0.1,1.9-0.3c0.6-0.2,1.2-0.4,1.6-0.8
				c0.5-0.3,0.9-0.8,1.2-1.3c0.3-0.5,0.4-1.1,0.4-1.9C141.1,313.1,140.8,312.2,140,311.6z M140.9,314.3c0,0.7-0.1,1.3-0.4,1.8
				c-0.3,0.5-0.7,0.9-1.1,1.2c-0.5,0.3-1,0.6-1.6,0.7c-0.6,0.2-1.2,0.2-1.8,0.2c-0.6,0-1.2-0.1-1.8-0.2c-0.5-0.1-1-0.4-1.4-0.7
				c-0.4-0.3-0.7-0.7-0.9-1.2c-0.2-0.5-0.3-1.1-0.3-1.8c0-1.3,0.4-2.2,1.2-2.7c0.8-0.5,2-0.7,3.6-0.7c1.7,0,2.8,0.2,3.6,0.7
				C140.6,312.3,140.9,313.1,140.9,314.3z"/>
			<path class="st2" d="M138.5,297.7c-0.6-0.7-1.5-1.1-2.5-1.1c-1.1,0-2.1,0.4-2.7,1.2c-0.6,0.8-1,1.8-1,3.1c0,1.3,0.3,2.4,0.9,3.2
				c0.6,0.8,1.5,1.2,2.7,1.2c0.6,0,1.2-0.1,1.6-0.4c0.4-0.2,0.8-0.6,1.1-1c0.3-0.4,0.5-0.9,0.6-1.4c0.1-0.5,0.2-1.1,0.2-1.7
				C139.5,299.5,139.1,298.5,138.5,297.7z M139.3,300.8c0,0.6-0.1,1.1-0.2,1.6c-0.1,0.5-0.3,1-0.6,1.4c-0.3,0.4-0.6,0.7-1,0.9
				c-0.4,0.2-0.9,0.3-1.5,0.3c-1.2,0-2-0.4-2.6-1.1c-0.6-0.7-0.8-1.8-0.8-3.1c0-1.2,0.3-2.3,0.9-3c0.6-0.7,1.5-1.1,2.5-1.1
				c1,0,1.8,0.3,2.4,1C139,298.5,139.3,299.5,139.3,300.8z"/>
		</g>
	</g>
</g>
</svg>
