<?xml version="1.0" encoding="utf-8"?>
<!-- Generator: Adobe Illustrator 26.0.1, SVG Export Plug-In . SVG Version: 6.00 Build 0)  -->
<svg version="1.1" id="Layer_1" xmlns="http://www.w3.org/2000/svg" xmlns:xlink="http://www.w3.org/1999/xlink" x="0px" y="0px"
	 viewBox="0 0 500 329.4" style="enable-background:new 0 0 500 329.4;" xml:space="preserve">
<style type="text/css">
	.st0{fill:#003097;}
	.st1{fill:#FFFFFF;}
</style>
<g>
	<path class="st0" d="M426.3,47.8C379.2,17,316.6,0,250,0C183.4,0,120.8,17,73.7,47.8C26.2,79,0,120.5,0,164.7
		c0,44.2,26.2,85.7,73.7,116.9c47.1,30.9,109.7,47.8,176.3,47.8c66.6,0,129.2-17,176.3-47.8c47.5-31.1,73.7-72.6,73.7-116.9
		C500,120.5,473.8,79,426.3,47.8z"/>
	<g>
		<path class="st1" d="M169.8,99c0.1,3.1,0.6,4.2,1.4,4.4c0.7,0.2,1.4,0.3,2.1,0.3c0.4,0,0.7,0.1,0.7,0.3c0,0.3-0.4,0.4-0.9,0.4
			c-2.6,0-4.2-0.1-5-0.1c-0.4,0-2.2,0.1-4.3,0.1c-0.5,0-0.9,0-0.9-0.4c0-0.2,0.2-0.3,0.6-0.3c0.5,0,1.2,0,1.8-0.2
			c1-0.3,1.2-1.5,1.2-5L167,75c0-0.8,0.1-1.4,0.5-1.4c0.4,0,0.8,0.5,1.5,1.2c0.5,0.5,6.6,6.9,12.4,12.7c2.7,2.7,8.1,8.5,8.8,9.1h0.2
			l-0.4-17.9c0-2.4-0.4-3.2-1.4-3.6c-0.6-0.2-1.6-0.2-2.1-0.2c-0.5,0-0.6-0.1-0.6-0.4c0-0.3,0.4-0.4,1-0.4c2.1,0,4,0.1,4.8,0.1
			c0.4,0,2-0.1,3.9-0.1c0.5,0,0.9,0,0.9,0.4c0,0.2-0.2,0.4-0.7,0.4c-0.4,0-0.7,0-1.2,0.1c-1.1,0.3-1.4,1.2-1.5,3.4l-0.4,25.2
			c0,0.9-0.2,1.2-0.5,1.2c-0.4,0-0.9-0.4-1.4-0.9c-2.5-2.4-7.6-7.6-11.8-11.7c-4.4-4.3-8.8-9.2-9.5-10h-0.1L169.8,99z"/>
		<path class="st1" d="M207.4,85.8c0-6.1,0-7.2-0.1-8.5c-0.1-1.4-0.4-2-1.7-2.3c-0.3-0.1-1-0.1-1.6-0.1c-0.4,0-0.7-0.1-0.7-0.4
			c0-0.3,0.3-0.4,0.9-0.4c1.1,0,2.2,0,3.2,0c1,0,2,0.1,2.5,0.1c1.3,0,9.2,0,10,0c0.8-0.1,1.4-0.2,1.7-0.2c0.2,0,0.4-0.2,0.6-0.2
			c0.2,0,0.2,0.2,0.2,0.4c0,0.3-0.2,0.8-0.3,2.6c0,0.4-0.1,2.2-0.2,2.6c0,0.2-0.1,0.4-0.4,0.4c-0.3,0-0.4-0.2-0.4-0.6
			c0-0.3,0-1-0.2-1.4c-0.3-0.7-0.7-1.2-2.7-1.4c-0.7-0.1-4.9-0.2-5.7-0.2c-0.2,0-0.3,0.1-0.3,0.4v10.1c0,0.3,0,0.4,0.3,0.4
			c0.9,0,5.5,0,6.4-0.1c1-0.1,1.6-0.2,1.9-0.6c0.3-0.3,0.4-0.5,0.6-0.5c0.2,0,0.3,0.1,0.3,0.3c0,0.2-0.2,0.9-0.3,2.9
			c0,0.8-0.2,2.4-0.2,2.7c0,0.3,0,0.8-0.4,0.8c-0.3,0-0.4-0.2-0.4-0.4c0-0.4,0-0.9-0.2-1.4c-0.2-0.8-0.8-1.4-2.2-1.6
			c-0.8-0.1-4.7-0.1-5.7-0.1c-0.2,0-0.2,0.2-0.2,0.4v3.2c0,1.4,0,5,0,6.2c0.1,2.8,0.7,3.4,4.8,3.4c1,0,2.7,0,3.8-0.5
			c1-0.5,1.5-1.3,1.8-3c0.1-0.4,0.2-0.6,0.4-0.6c0.3,0,0.3,0.3,0.3,0.7c0,0.9-0.3,3.6-0.5,4.4c-0.3,1-0.6,1-2.2,1
			c-3,0-5.2-0.1-6.9-0.1c-1.7-0.1-3-0.1-4.2-0.1c-0.4,0-1.3,0-2.3,0c-0.9,0-2,0.1-2.8,0.1c-0.5,0-0.8-0.1-0.8-0.4
			c0-0.2,0.2-0.3,0.6-0.3c0.6,0,1.1-0.1,1.4-0.2c0.8-0.2,1-1,1.2-2.2c0.2-1.7,0.2-4.8,0.2-8.5V85.8z"/>
		<path class="st1" d="M232.5,104c-0.6-0.3-0.8-0.5-0.8-1.4c0-2.2,0.2-4.6,0.2-5.2c0-0.6,0.2-1,0.5-1c0.4,0,0.4,0.4,0.4,0.7
			c0,0.5,0.2,1.4,0.4,2c0.9,3,3.2,4,5.7,4c3.6,0,5.4-2.4,5.4-4.6c0-2-0.6-3.8-3.9-6.4l-1.8-1.4c-4.4-3.4-5.9-6.2-5.9-9.5
			c0-4.4,3.7-7.6,9.2-7.6c2.6,0,4.3,0.4,5.3,0.7c0.4,0.1,0.6,0.2,0.6,0.5c0,0.5-0.2,1.7-0.2,4.8c0,0.9-0.1,1.2-0.4,1.2
			c-0.3,0-0.4-0.2-0.4-0.7c0-0.4-0.2-1.6-1-2.6c-0.6-0.8-1.8-2-4.4-2c-3,0-4.8,1.7-4.8,4.1c0,1.8,0.9,3.2,4.2,5.8l1.1,0.8
			c4.8,3.6,6.6,6.4,6.6,10.2c0,2.3-0.9,5.1-3.8,6.9c-2,1.3-4.2,1.6-6.4,1.6C236,105,234.2,104.7,232.5,104"/>
		<path class="st1" d="M261.1,74.7c0.1-0.7,0.4-1,0.7-1c0.3,0,0.6,0.2,1.1,1.2l10.9,22.2l10.9-22.5c0.3-0.6,0.5-1,0.9-1
			c0.4,0,0.6,0.4,0.7,1.2l3.6,24.5c0.4,2.5,0.8,3.7,2,4c1.2,0.4,2,0.4,2.5,0.4c0.4,0,0.6,0,0.6,0.3c0,0.3-0.5,0.4-1,0.4
			c-1,0-6.5-0.1-8.1-0.2c-0.9-0.1-1.2-0.2-1.2-0.4c0-0.2,0.2-0.3,0.4-0.4c0.2-0.1,0.4-0.6,0.2-1.7l-2.4-17.4h-0.2l-8.7,17.8
			c-0.9,1.9-1.1,2.2-1.5,2.2c-0.4,0-0.8-0.8-1.4-2c-1-1.8-4.1-8-4.6-9.1c-0.4-0.8-2.8-5.6-4.2-8.6h-0.2l-2.1,15.6
			c-0.1,0.7-0.1,1.2-0.1,1.9c0,0.8,0.5,1.1,1.2,1.3c0.7,0.2,1.3,0.2,1.7,0.2c0.3,0,0.6,0.1,0.6,0.3c0,0.4-0.4,0.4-1,0.4
			c-1.7,0-3.5-0.1-4.2-0.1c-0.8,0-2.7,0.1-4,0.1c-0.4,0-0.7-0.1-0.7-0.4c0-0.2,0.2-0.3,0.6-0.3c0.3,0,0.6,0,1.2-0.1
			c1.1-0.2,1.4-1.8,1.6-3.2L261.1,74.7z"/>
		<path class="st1" d="M313.5,92.2c0.2,0,0.2-0.1,0.2-0.2l-3.6-9.8c0-0.2-0.1-0.4-0.2-0.4s-0.2,0.2-0.2,0.4L306,92
			c0,0.2,0,0.3,0.2,0.3H313.5z M305.3,94.2c-0.2,0-0.3,0.1-0.4,0.3l-2.2,5.5c-0.4,1-0.6,2-0.6,2.4c0,0.7,0.4,1.2,1.6,1.2h0.6
			c0.5,0,0.6,0.1,0.6,0.3c0,0.3-0.2,0.4-0.7,0.4c-1.3,0-3-0.1-4.2-0.1c-0.4,0-2.6,0.1-4.7,0.1c-0.5,0-0.8-0.1-0.8-0.4
			c0-0.2,0.2-0.3,0.5-0.3c0.4,0,0.9,0,1.2-0.1c1.8-0.2,2.6-1.6,3.4-3.6l10-24.8c0.5-1.2,0.7-1.6,1.1-1.6c0.4,0,0.6,0.4,1,1.3
			c1,2.2,7.3,18.2,9.9,24.3c1.5,3.6,2.7,4.2,3.5,4.4c0.6,0.1,1.2,0.2,1.7,0.2c0.3,0,0.5,0,0.5,0.3c0,0.3-0.4,0.4-1.8,0.4
			c-1.4,0-4.4,0-7.6-0.1c-0.7,0-1.2,0-1.2-0.3c0-0.2,0.2-0.3,0.6-0.4c0.3-0.1,0.6-0.4,0.4-0.9l-3.2-8.2c-0.1-0.2-0.2-0.3-0.4-0.3
			H305.3z"/>
		<path class="st1" d="M89.3,159.2c-5.4-4.7-6.8-10.9-6.8-16.2c0-3.7,1.2-10.2,6.4-15.1c4-3.6,9.2-5.8,17.4-5.8c3.4,0,5.4,0.2,8,0.5
			c2.1,0.3,3.8,0.8,5.5,0.9c0.6,0.1,0.8,0.3,0.8,0.7c0,0.4-0.2,1.1-0.3,3c-0.1,1.8-0.1,4.8-0.2,5.9c-0.1,0.8-0.2,1.3-0.7,1.3
			c-0.4,0-0.6-0.4-0.6-1.2c-0.1-1.7-0.8-3.6-2.1-5.1c-1.8-1.9-6.1-3.4-11.2-3.4c-4.8,0-7.9,1.2-10.3,3.4c-4,3.7-5.1,8.9-5.1,14.2
			c0,13.1,9.9,19.6,17.3,19.6c4.9,0,7.9-0.5,10.1-3.1c0.9-1.1,1.6-2.6,1.9-3.6c0.2-0.9,0.3-1.1,0.7-1.1c0.4,0,0.5,0.4,0.5,0.8
			c0,0.7-0.7,5.4-1.2,7.3c-0.3,0.9-0.5,1.2-1.4,1.6c-2.2,0.9-6.4,1.3-9.9,1.3C100.6,165.2,94.3,163.5,89.3,159.2"/>
		<path class="st1" d="M150.3,147.6c0.3,0,0.3-0.2,0.3-0.3l-4.9-13.5c-0.1-0.2-0.1-0.5-0.3-0.5c-0.2,0-0.3,0.3-0.3,0.5l-5.1,13.5
			c-0.1,0.2,0,0.4,0.2,0.4H150.3z M139.1,150.4c-0.3,0-0.4,0.1-0.5,0.4l-3,7.5c-0.5,1.4-0.8,2.7-0.8,3.4c0,1,0.5,1.7,2.2,1.7h0.8
			c0.7,0,0.8,0.1,0.8,0.4c0,0.4-0.3,0.5-0.9,0.5c-1.8,0-4.1-0.2-5.8-0.2c-0.6,0-3.6,0.2-6.5,0.2c-0.7,0-1-0.1-1-0.5
			c0-0.3,0.2-0.4,0.7-0.4c0.5,0,1.3-0.1,1.7-0.1c2.5-0.3,3.6-2.2,4.7-4.9l13.8-34.1c0.7-1.6,1-2.2,1.5-2.2c0.5,0,0.8,0.5,1.4,1.8
			c1.3,3,10.1,25,13.6,33.4c2.1,4.9,3.7,5.7,4.8,6c0.8,0.2,1.6,0.2,2.3,0.2c0.4,0,0.7,0.1,0.7,0.4c0,0.4-0.5,0.5-2.5,0.5
			c-2,0-6,0-10.4-0.1c-1-0.1-1.6-0.1-1.6-0.4c0-0.3,0.2-0.4,0.8-0.5c0.4-0.1,0.8-0.6,0.5-1.3l-4.4-11.3c-0.1-0.3-0.3-0.4-0.5-0.4
			H139.1z"/>
		<path class="st1" d="M181.8,125.9l-8.2,0.2c-3.2,0.1-4.5,0.4-5.3,1.6c-0.5,0.8-0.8,1.5-0.9,1.9c-0.1,0.4-0.3,0.7-0.6,0.7
			c-0.4,0-0.5-0.3-0.5-0.9c0-0.9,1-5.9,1.2-6.3c0.2-0.7,0.3-1,0.7-1c0.4,0,1,0.5,2.4,0.7c1.6,0.2,3.7,0.3,5.5,0.3h21.8
			c1.8,0,3-0.2,3.8-0.3c0.8-0.2,1.3-0.3,1.5-0.3c0.4,0,0.4,0.3,0.4,1.2c0,1.2-0.2,4.9-0.2,6.4c-0.1,0.5-0.2,0.9-0.5,0.9
			c-0.4,0-0.5-0.3-0.6-1.1l-0.1-0.6c-0.1-1.4-1.6-3-6.5-3.1l-6.9-0.2v22.5c0,5.1,0,9.4,0.3,11.8c0.2,1.5,0.5,2.7,2.1,3
			c0.8,0.1,2,0.2,2.8,0.2c0.6,0,0.9,0.2,0.9,0.4c0,0.4-0.4,0.5-1,0.5c-3.6,0-7.1-0.2-8.6-0.2c-1.3,0-4.7,0.2-6.9,0.2
			c-0.7,0-1.1-0.2-1.1-0.5c0-0.3,0.2-0.4,0.9-0.4c0.8,0,1.5-0.1,2-0.2c1.1-0.2,1.4-1.4,1.6-3c0.3-2.3,0.3-6.7,0.3-11.7V125.9z"/>
		<path class="st1" d="M216.3,138.8c0-8.4,0-9.9-0.1-11.7c-0.1-1.9-0.5-2.8-2.4-3.1c-0.4-0.1-1.4-0.2-2.1-0.2
			c-0.6,0-0.9-0.1-0.9-0.5c0-0.4,0.4-0.5,1.2-0.5c1.5,0,3.1,0.1,4.4,0.1c1.4,0.1,2.7,0.1,3.5,0.1c1.8,0,12.7,0,13.7-0.1
			c1-0.1,1.9-0.2,2.4-0.3c0.3-0.1,0.6-0.2,0.9-0.2c0.3,0,0.3,0.2,0.3,0.5c0,0.4-0.3,1-0.4,3.6c-0.1,0.5-0.2,3-0.3,3.6
			c-0.1,0.3-0.2,0.6-0.5,0.6c-0.4,0-0.5-0.3-0.5-0.8c0-0.4-0.1-1.3-0.3-2c-0.4-1-0.9-1.7-3.7-2c-0.9-0.1-6.7-0.2-7.8-0.2
			c-0.3,0-0.4,0.2-0.4,0.5v13.9c0,0.4,0.1,0.6,0.4,0.6c1.2,0,7.5,0,8.8-0.1c1.3-0.1,2.1-0.3,2.6-0.8c0.4-0.4,0.6-0.7,0.9-0.7
			c0.2,0,0.4,0.1,0.4,0.4c0,0.3-0.2,1.2-0.4,4c-0.1,1.1-0.2,3.3-0.2,3.7c0,0.4,0,1-0.5,1c-0.4,0-0.5-0.2-0.5-0.5
			c-0.1-0.5-0.1-1.3-0.2-2c-0.3-1.1-1-1.9-3.1-2.1c-1-0.1-6.5-0.2-7.8-0.2c-0.3,0-0.3,0.2-0.3,0.5v4.3c0,1.9-0.1,6.9,0,8.5
			c0.1,3.8,1,4.6,6.6,4.6c1.4,0,3.7,0,5.2-0.7c1.4-0.7,2.1-1.8,2.5-4.1c0.1-0.6,0.2-0.8,0.6-0.8c0.4,0,0.4,0.4,0.4,1
			c0,1.3-0.4,5-0.7,6.1c-0.4,1.4-0.9,1.4-3,1.4c-4.1,0-7.1-0.1-9.5-0.2c-2.4-0.1-4.1-0.2-5.7-0.2c-0.6,0-1.8,0-3.1,0.1
			c-1.3,0-2.7,0.1-3.8,0.1c-0.7,0-1.1-0.2-1.1-0.5c0-0.3,0.2-0.4,0.9-0.4c0.8,0,1.5-0.1,2-0.2c1.1-0.2,1.4-1.4,1.6-3
			c0.3-2.3,0.3-6.7,0.3-11.7V138.8z"/>
		<path class="st1" d="M260.2,143.1c0,0.6,0.1,0.8,0.5,1c1.2,0.4,2.8,0.6,4.2,0.6c2.2,0,2.9-0.2,3.9-0.9c1.7-1.2,3.2-3.7,3.2-8.2
			c0-7.8-5.2-10.1-8.4-10.1c-1.4,0-2.4,0.1-2.9,0.2c-0.4,0.1-0.5,0.3-0.5,0.8V143.1z M253.7,138.8c0-8.4,0-9.9-0.1-11.7
			c-0.1-1.9-0.5-2.8-2.4-3.1c-0.4-0.1-1.4-0.2-2.1-0.2c-0.6,0-0.9-0.1-0.9-0.5c0-0.4,0.4-0.5,1.2-0.5c2.9,0,6.4,0.2,7.5,0.2
			c1.9,0,6-0.2,7.7-0.2c3.5,0,7.1,0.3,10.1,2.4c1.5,1,3.7,3.8,3.7,7.5c0,4.1-1.7,7.8-7.3,12.3c4.9,6.2,8.7,11,11.9,14.5
			c3.1,3.2,5.3,3.6,6.2,3.7c0.6,0.1,1.1,0.2,1.5,0.2c0.4,0,0.7,0.2,0.7,0.4c0,0.4-0.4,0.5-1,0.5h-5.2c-3.1,0-4.5-0.3-5.9-1
			c-2.4-1.3-4.4-3.8-7.5-8.1c-2.2-3-4.7-6.8-5.4-7.6c-0.3-0.3-0.6-0.4-1-0.4l-4.8-0.1c-0.3,0-0.4,0.1-0.4,0.4v0.8
			c0,5.1,0,9.4,0.3,11.8c0.2,1.6,0.5,2.8,2.1,3c0.8,0.1,2,0.2,2.7,0.2c0.4,0,0.7,0.2,0.7,0.4c0,0.4-0.4,0.5-1.1,0.5
			c-3.2,0-7.3-0.2-8.1-0.2c-1,0-4.5,0.2-6.7,0.2c-0.7,0-1.1-0.2-1.1-0.5c0-0.3,0.2-0.4,0.9-0.4c0.8,0,1.5-0.1,2-0.2
			c1.1-0.2,1.4-1.4,1.6-3c0.3-2.3,0.3-6.7,0.3-11.7V138.8z"/>
		<path class="st1" d="M298,138.8c0-8.4,0-9.9-0.1-11.7c-0.1-1.9-0.7-2.8-1.9-3.1c-0.6-0.2-1.3-0.2-2-0.2c-0.5,0-0.9-0.1-0.9-0.5
			c0-0.3,0.4-0.4,1.3-0.4c2.1,0,5.6,0.2,7.1,0.2c1.4,0,4.6-0.2,6.7-0.2c0.7,0,1.2,0.1,1.2,0.4c0,0.4-0.3,0.5-0.9,0.5
			c-0.5,0-1,0.1-1.6,0.2c-1.5,0.3-1.9,1.2-2,3.1c-0.1,1.8-0.1,3.3-0.1,11.7v9.7c0,5.3,0,9.7,0.2,12c0.2,1.5,0.6,2.5,2.2,2.7
			c0.8,0.1,2,0.2,2.8,0.2c0.6,0,0.9,0.2,0.9,0.4c0,0.4-0.4,0.5-1,0.5c-3.6,0-7.1-0.2-8.6-0.2c-1.3,0-4.7,0.2-6.9,0.2
			c-0.7,0-1.1-0.2-1.1-0.5c0-0.3,0.2-0.4,0.9-0.4c0.8,0,1.5-0.1,2-0.2c1.1-0.2,1.4-1.1,1.6-2.7c0.3-2.3,0.3-6.7,0.3-12V138.8z"/>
		<path class="st1" d="M328.6,156.9c0.1,4.3,0.8,5.7,1.9,6.1c0.9,0.3,2,0.4,2.9,0.4c0.6,0,0.9,0.1,0.9,0.4c0,0.4-0.5,0.5-1.3,0.5
			c-3.6,0-5.8-0.2-6.8-0.2c-0.5,0-3.1,0.2-5.9,0.2c-0.7,0-1.2-0.1-1.2-0.5c0-0.3,0.3-0.4,0.9-0.4c0.7,0,1.7-0.1,2.5-0.3
			c1.4-0.4,1.7-2,1.7-6.8l0.5-32.4c0-1.1,0.2-1.9,0.7-1.9c0.6,0,1.1,0.7,2,1.7c0.7,0.7,9,9.5,17,17.5c3.7,3.7,11.2,11.7,12.1,12.5
			h0.3l-0.5-24.7c-0.1-3.4-0.5-4.4-1.9-5c-0.8-0.3-2.1-0.3-2.9-0.3c-0.7,0-0.9-0.2-0.9-0.5c0-0.4,0.6-0.5,1.4-0.5
			c2.9,0,5.5,0.2,6.7,0.2c0.6,0,2.7-0.2,5.4-0.2c0.7,0,1.3,0.1,1.3,0.5c0,0.3-0.3,0.5-1,0.5c-0.5,0-1,0-1.6,0.2
			c-1.5,0.4-2,1.6-2,4.7l-0.6,34.7c0,1.2-0.2,1.7-0.7,1.7c-0.6,0-1.3-0.6-1.9-1.2c-3.5-3.3-10.5-10.5-16.2-16.2
			c-6-5.9-12.1-12.6-13.1-13.7H328L328.6,156.9z"/>
		<path class="st1" d="M413.2,160.7c0,1.5-0.1,1.6-0.7,2c-3.6,1.9-9,2.5-13.2,2.5c-13.5,0-25.4-6.4-25.4-21.5c0-8.8,4.6-14.9,9.6-18
			c5.3-3.2,10.2-3.6,14.8-3.6c3.8,0,8.6,0.7,9.7,0.9c1.2,0.2,3.1,0.5,4.3,0.6c0.7,0.1,0.8,0.3,0.8,0.7c0,0.6-0.4,2.1-0.4,9
			c0,0.9-0.2,1.2-0.6,1.2c-0.4,0-0.5-0.3-0.5-0.7c-0.2-1.3-0.4-3-1.9-4.6c-1.7-1.8-6.1-4.3-12.3-4.3c-3,0-7,0.2-10.9,3.4
			c-3.1,2.6-5.1,6.7-5.1,13.5c0,11.8,7.5,20.7,19.1,20.7c1.4,0,3.4,0,4.7-0.6c0.8-0.4,1-1.1,1-2v-5.2c0-2.7,0-4.8-0.1-6.5
			c-0.1-1.9-0.5-2.8-2.4-3.1c-0.4-0.1-1.4-0.2-2.1-0.2c-0.5,0-0.8-0.1-0.8-0.4c0-0.4,0.4-0.5,1.2-0.5c2.9,0,6.3,0.2,8,0.2
			c1.7,0,4.6-0.2,6.4-0.2c0.7,0,1.1,0.1,1.1,0.5c0,0.3-0.3,0.4-0.7,0.4c-0.4,0-0.8,0.1-1.5,0.2c-1.5,0.3-2,1.2-2.1,3.1
			c-0.1,1.6-0.1,3.8-0.1,6.6V160.7z"/>
	</g>
	<path class="st1" d="M339.7,223.6c-8.7,4.9-17.3,0.6-33.3-10.8c0.4-0.3,0.8-0.6,1.2-0.8c2.2-1.5,4.1-2.8,5.6-3.8
		c1.1-0.7,2.3-1.4,3.5-2.1c1,0.6,2,1.1,2.8,1.6l1.2,0.7c5.6,3.3,13.9,8.4,23.5,10.6C343.3,220.8,341.8,222.4,339.7,223.6
		 M336.7,203.6c4.5,1.7,7.9,5.9,8.3,10.3c0.1,0.7,0.1,1.3,0,1.9c-9.3-2.1-17.3-7-22.9-10.4l-0.4-0.2c-0.4-0.3-0.9-0.5-1.4-0.8
		C325.5,202.5,331.5,201.6,336.7,203.6 M261.2,244.8c-4.2-4.2-7.7-10.1-7.5-13.4c0.1-1,0.5-1.6,1.2-1.9c0.8-0.3,1.5-0.2,2.2,0.4
		C260.1,232.2,261.6,240.4,261.2,244.8 M242.8,229.9c0.7-0.6,1.5-0.7,2.2-0.4c0.8,0.3,1.2,0.9,1.2,1.9c0.3,3.3-3.2,9.3-7.5,13.4
		C238.4,240.4,239.9,232.2,242.8,229.9 M160.3,223.6c-2.1-1.2-3.6-2.8-4.5-4.6c9.5-2.3,17.9-7.3,23.5-10.6l1.2-0.7
		c0.8-0.5,1.8-1,2.8-1.6c1.3,0.7,2.5,1.4,3.5,2.1c1.5,1,3.4,2.3,5.6,3.8c0.4,0.3,0.8,0.6,1.2,0.8C177.6,224.2,169,228.5,160.3,223.6
		 M155,213.9c0.4-4.4,3.9-8.7,8.3-10.3c5.2-1.9,11.2-1.1,16.4,0.8c-0.5,0.3-0.9,0.6-1.4,0.8l-0.4,0.2c-5.7,3.4-13.6,8.3-23,10.4
		C154.9,215.2,154.9,214.6,155,213.9 M215.3,215c3.2-0.4,5.6,0.2,7.1,1.7c1.4,1.4,1.5,3.2,1.4,4.1c-0.2,1.3-1.2,2.4-2.6,3.2
		c-1.4,0.7-4.4,1.6-9-0.7c-1.8-0.9-3.8-2.1-6-3.5C208.5,217.2,211.6,215.5,215.3,215 M287.8,223.3c-4.6,2.3-7.6,1.4-9,0.7
		c-1.4-0.7-2.4-1.9-2.6-3.2c-0.1-0.8,0-2.7,1.4-4.1c1.5-1.5,3.9-2.1,7.1-1.7c3.7,0.4,6.8,2.1,9.2,4.8
		C291.7,221.2,289.6,222.4,287.8,223.3 M379,199.7c-0.3-4-2.9-7.8-6.7-9.9c-4.4-2.5-9.7-2.3-15,0.7c-0.3,0.1-0.4,0.5-0.2,0.7
		c0.1,0.3,0.5,0.4,0.7,0.2c5-2.7,9.9-3,14-0.7c3.5,2,5.8,5.7,6,9.3c0.2,5.3-1.6,13.7-17.8,16.4c-4.8,0.8-9.5,0.6-13.9-0.3
		c0.1-0.8,0.1-1.5,0-2.3c-0.5-4.8-4.2-9.4-9-11.2c-5.8-2.1-12.4-1.1-17.9,1.1c-1.2-0.8-2.6-1.6-3.9-2.5
		c-8.7-5.7-20.7-13.1-30.8-14.3c-7.4-0.8-13.1,2.3-15.9,4.6c-3.3,2.6-5.5,6.4-5.8,10.1c0,0.3,0.2,0.6,0.5,0.6c0.3,0,0.6-0.2,0.6-0.5
		c0.4-3.5,2.1-6.4,5.2-8.9c2.6-2.1,7.6-4.1,14.5-3.1c9.5,1.4,20.4,8.2,29,13.8c1,0.6,2,1.2,3,1.8c-1.1,0.6-2.1,1.2-3,1.8
		c-1.5,1-3.4,2.3-5.6,3.8c-0.5,0.3-1,0.7-1.5,1.1c-0.6-0.4-1.2-0.9-1.9-1.4c-18.3-13.3-34.2-9.6-40.2-1.8c-4.7,6.1-3.3,12-2,14.9
		c1.9,4.6,6.1,8.4,9.7,8.8c0.3,0,0.6-0.2,0.6-0.5c0-0.3-0.2-0.6-0.5-0.6c-3.3-0.4-7.1-3.9-8.9-8.1c-1.2-2.8-2.5-8.2,1.9-13.9
		c5.7-7.5,19.4-8.5,37.2,4.2c0.3,0.2,0.5,0.4,0.8,0.5c-2.5,1.7-5,3.4-7.4,4.9c-2.8-2.8-6.4-4.8-10-5.3c-4.4-0.5-6.8,0.8-8,2
		c-1.5,1.5-1.9,3.6-1.7,5c0.2,1.6,1.4,3.1,3.1,4c1.6,0.8,5,1.8,10-0.7c1.8-0.9,4-2.2,6.2-3.6c1,1.3,1.8,2.8,2.4,4.4
		c2.4,6.5,1.1,14-3.2,18.6c-7.6,8-19.3,9.9-28.4,4.4c-1.1-0.6-2.1-1.4-3.1-2.4c0-0.2,0.1-0.3,0.1-0.4c0.6-4.6-1-13.6-4.3-16.2
		c-1-0.8-2.1-1-3.3-0.6c-1.1,0.4-1.8,1.4-1.9,2.8c-0.3,3.9,3.6,10.6,8.3,15.2c-1.1,5.1-4.6,11.5-10.7,15.4c-0.1,0.1-0.2,0.1-0.2,0.1
		s-0.1-0.1-0.2-0.1c-6.1-3.9-9.6-10.3-10.7-15.4c4.7-4.6,8.6-11.3,8.3-15.2c-0.1-1.4-0.8-2.3-1.9-2.8c-1.1-0.4-2.3-0.2-3.3,0.6
		c-3.3,2.6-4.9,11.6-4.3,16.2c0,0.1,0,0.3,0.1,0.4c-1,0.9-2.1,1.7-3.1,2.4c-9.1,5.4-20.8,3.6-28.4-4.4c-4.3-4.6-5.6-12-3.2-18.6
		c0.6-1.7,1.4-3.1,2.4-4.4c2.2,1.4,4.4,2.7,6.2,3.6c5,2.5,8.4,1.5,10,0.7c1.7-0.9,2.9-2.4,3.1-4c0.2-1.4-0.2-3.5-1.7-5
		c-1.2-1.2-3.5-2.6-8-2c-3.6,0.4-7.2,2.4-10,5.3c-2.4-1.5-4.9-3.2-7.4-4.9c0.3-0.2,0.5-0.4,0.8-0.5c17.8-12.7,31.5-11.6,37.2-4.2
		c4.3,5.7,3,11.1,1.9,13.9c-1.8,4.2-5.6,7.7-8.9,8.1c-0.3,0-0.5,0.3-0.5,0.6c0,0.3,0.3,0.5,0.6,0.5c3.6-0.4,7.8-4.2,9.7-8.8
		c1.3-3,2.7-8.8-2-14.9c-6-7.9-21.9-11.5-40.2,1.8c-0.6,0.5-1.3,0.9-1.9,1.4c-0.5-0.4-1-0.7-1.5-1.1c-2.2-1.5-4.1-2.8-5.6-3.8
		c-0.9-0.6-1.9-1.2-3-1.8c1-0.6,2-1.2,3-1.8c8.6-5.6,19.5-12.4,29-13.8c7-1,11.9,1,14.5,3.1c3.1,2.5,4.8,5.4,5.2,8.9
		c0,0.3,0.3,0.5,0.6,0.5c0.3,0,0.5-0.3,0.5-0.6c-0.4-3.7-2.6-7.5-5.8-10.1c-2.8-2.2-8.5-5.4-15.9-4.6c-10.1,1.1-22,8.6-30.8,14.3
		c-1.4,0.9-2.7,1.7-3.9,2.5c-5.5-2.2-12.1-3.3-17.9-1.1c-4.8,1.8-8.5,6.4-9,11.2c-0.1,0.8-0.1,1.5,0,2.3c-4.4,0.9-9,1.1-13.9,0.3
		c-16.2-2.7-18-11.1-17.8-16.4c0.1-3.6,2.5-7.3,6-9.3c4-2.3,9-2.1,14,0.7c0.3,0.1,0.6,0.1,0.7-0.2c0.1-0.3,0-0.6-0.2-0.7
		c-5.3-2.9-10.6-3.1-15-0.7c-3.8,2.2-6.4,5.9-6.7,9.9c-0.7,10.5,6.2,17.4,18.6,19.8c5.2,1,10.2,0.7,15-0.3c0.8,2.3,2.4,4.3,4.8,5.8
		c10,6.2,18.6,3.5,37.6-10c2.5,1.7,5.1,3.5,7.6,5c-1.6,1.8-2.9,3.8-3.7,5.9c-3.1,7.6-0.8,15.6,3.8,20.5c7.9,8.4,21.6,9.3,31.2,2.9
		c0.8-0.6,1.7-1.2,2.5-2c1.3,5.2,5,13.6,11,17.5c0.2,0.2,0.8,0.5,0.8,0.5c0,0,0.5-0.3,0.7-0.5c6.1-3.9,9.8-12.2,11-17.5
		c0.8,0.7,1.6,1.4,2.5,2c9.6,6.4,23.3,5.5,31.2-2.9c4.6-4.9,6.9-12.9,3.8-20.5c-0.9-2.1-2.2-4.1-3.7-5.9c2.5-1.6,5.1-3.3,7.6-5
		c19,13.5,27.6,16.2,37.6,10c2.4-1.5,3.9-3.5,4.8-5.8c4.8,1,9.8,1.3,15,0.3C372.8,217.1,379.7,210.2,379,199.7"/>
	<g>
		<path class="st1" d="M68.7,224l-12.5,4.4c-0.4,0.2-0.9,0.3-1.3,0.3c-0.4,0-0.8-0.1-1.1-0.4c-0.1-0.1-0.3-0.3-0.5-0.5
			c-0.1-0.1-0.2-0.2-0.3-0.2c-0.1,0-0.1,0-0.2,0.1c-0.2,0.2,0,0.5,0.1,0.6c0.5,0.6,1.1,1.2,1.4,1.5c0.1,0.2,0.3,0.3,0.3,0.3
			c0.2,0.2,0.5,0.5,0.7,0.8c0.3,0.3,0.5,0.6,0.8,0.9c0.1,0.1,0.2,0.2,0.4,0.2c0.1,0,0.1,0,0.2-0.1c0.2-0.2,0-0.4-0.1-0.5l-0.2-0.2
			c-0.4-0.5-0.3-0.7-0.1-0.9c0.2-0.1,0.5-0.4,1-0.5l2.8-1c0,0,0.1,0,0.1,0c0,0,0,0,0,0l3.2,3.5c0,0,0.1,0.1,0,0.1l-1.9,4.1
			c-0.1,0.1-0.1,0.1-0.2,0.1c0,0-0.1,0-0.1,0c-0.2-0.2-0.3-0.2-0.5-0.1c-0.2,0.2,0,0.4,0.2,0.6l0.1,0.1c1.1,1.2,2.1,2.3,2.6,2.9
			l0.1,0.1c0.5,0.5,0.7,0.7,0.8,0.7c0.1,0,0.1,0,0.2-0.1c0.2-0.2,0-0.4-0.1-0.5c-0.2-0.2-0.4-0.5-0.5-0.7c-0.2-0.4-0.4-1.1,0.3-2.7
			c0.7-1.7,2.1-5,3.2-7.6c0.9-2.1,1.7-3.9,1.9-4.4c0.2-0.5,0.2-0.7,0.1-0.9C69.6,223.8,69.3,223.8,68.7,224z M64.1,231.2l-2.6-2.9
			l4.8-1.8c0,0,0,0,0,0c0,0,0,0,0,0L64.1,231.2z M64.7,240.8L64.7,240.8L64.7,240.8L64.7,240.8z"/>
		<path class="st1" d="M92.8,247.3c-0.6-3.2-3.5-5.4-5.6-6.9c-0.6-0.4-1.2-0.9-1.8-1.3c-0.4-0.3-0.7-0.5-0.9-0.6
			c-0.2-0.2-0.5-0.4-0.9-0.7c-0.5-0.4-1-0.8-1.6-1.2c-0.2-0.1-0.3-0.2-0.4-0.2c-0.1,0-0.1,0-0.2,0.1c-0.2,0.2,0.1,0.4,0.2,0.5
			c0.3,0.2,0.5,0.4,0.6,0.5c0.5,0.5,0.4,0.8,0.1,1.3c-0.3,0.5-0.7,1-2.4,3.3l-2.1,2.8c-1,1.4-1.9,2.6-2.5,3.2
			c-0.4,0.4-0.7,0.6-1,0.5c-0.2-0.1-0.4-0.2-0.6-0.4c-0.3-0.2-0.4-0.2-0.5-0.1c-0.1,0.2,0,0.3,0.2,0.6c0.2,0.1,0.4,0.3,0.6,0.4
			c0.2,0.1,0.4,0.3,0.6,0.4c0.4,0.3,0.8,0.6,1,0.7c0.4,0.3,0.9,0.7,1.5,1.2l0.1,0.1c0.6,0.5,1.3,1.1,1.9,1.6c2.7,2,5,2.5,6.4,2.5
			c0.2,0,0.5,0,0.7,0c1-0.1,3.4-0.6,5.1-3C93,250.5,93.1,248.6,92.8,247.3z M84.3,254c-1.5,0-2.8-0.5-4.5-1.8
			c-1.6-1.2-1.7-2-1.7-2.2c0-0.2,0.5-1,0.7-1.3c0.2-0.3,1.1-1.5,2.3-3.2l1.4-2l0,0c0.9-1.2,1.9-2.6,2.3-3.1c0.1-0.1,0.1-0.1,0.2-0.1
			c0,0,0.1,0,0.1,0c0.2,0,0.8,0.4,1.2,0.7c2,1.5,3.2,3.2,3.7,5.1c0.2,0.8,0.4,2.8-1.2,5.1c-1.3,1.8-2.7,2.7-4.2,2.8
			C84.5,254,84.4,254,84.3,254z"/>
		<path class="st1" d="M103.9,251.5c-0.4-0.2-0.9-0.5-1.3-0.8c-0.4-0.2-0.7-0.4-0.9-0.5c-0.2-0.2-0.6-0.4-1-0.7
			c-0.5-0.3-0.9-0.6-1.3-0.8c-0.4-0.2-0.6-0.3-0.7-0.1c-0.2,0.3,0.1,0.4,0.2,0.5c0.2,0.1,0.4,0.3,0.6,0.5c0.3,0.3,0.3,0.6,0,1.2
			c-0.3,0.5-0.5,1-2.1,3.5l-1.8,2.9c-1,1.6-1.8,2.9-2.3,3.6c-0.3,0.4-0.5,0.5-0.7,0.5h0c-0.1,0-0.1,0-0.2,0
			c-0.2-0.1-0.4-0.2-0.7-0.3c-0.3-0.2-0.4-0.1-0.5,0c0,0.1,0,0.1,0,0.2c0,0.1,0.1,0.2,0.3,0.3c0.4,0.3,1,0.6,1.4,0.8
			c0.4,0.2,0.7,0.4,0.9,0.5c0.2,0.1,0.5,0.3,0.8,0.5c0.6,0.4,1.2,0.8,2,1.2c0.1,0.1,0.3,0.1,0.4,0.1c0.1,0,0.2,0,0.2-0.1
			c0.1-0.1,0.1-0.3-0.2-0.5c-0.3-0.2-0.6-0.4-0.9-0.6c-0.4-0.4-0.4-0.7-0.2-1.1c0.4-0.7,1.1-2,2.1-3.6l1.8-3c1.5-2.5,1.8-3,2.2-3.5
			c0.4-0.6,0.7-0.7,1.1-0.5c0.2,0.1,0.4,0.2,0.6,0.3c0.1,0.1,0.2,0.1,0.3,0.1c0.1,0,0.2,0,0.2-0.1c0-0.1,0-0.1,0-0.2
			C104.2,251.7,104.1,251.6,103.9,251.5z"/>
		<path class="st1" d="M119.8,261c0.4,0,0.8,0.2,1,0.3c0.3,0.1,0.4,0.1,0.5,0c0.1-0.3-0.2-0.4-0.4-0.5c-0.3-0.2-0.8-0.4-1.1-0.6
			c-0.3-0.1-0.5-0.3-0.7-0.3c-0.1,0-0.2-0.1-0.4-0.2c-0.4-0.2-0.9-0.5-1.5-0.9c-0.3-0.1-0.4-0.2-0.5-0.2c-0.1,0-0.2,0-0.2,0.1
			c-0.1,0.2,0.2,0.4,0.3,0.5c0.3,0.2,0.5,0.3,0.7,0.5c0.1,0.1,0.1,0.3,0.1,0.3c-0.1,0.1-0.3,0.3-0.5,0.5c-0.6,0.6-2.9,2.4-4.9,4
			c-1.2,1-2.4,2-3.1,2.6l0.8-9.4c0.1-0.8,0.1-1.3,0.2-1.5c0.1-0.1,0.2-0.2,0.3-0.2c0.2,0,0.5,0.1,0.7,0.3c0.3,0.1,0.4,0.1,0.5-0.1
			c0.1-0.3-0.3-0.5-0.4-0.5c-0.5-0.3-1.1-0.5-1.5-0.8c-0.3-0.2-0.6-0.3-0.8-0.4c-0.3-0.2-0.7-0.4-1.1-0.6c-0.5-0.3-1.1-0.6-1.6-0.9
			c-0.4-0.2-0.6-0.2-0.7-0.1c-0.1,0.2,0,0.3,0.2,0.4c0.2,0.1,0.5,0.2,0.7,0.4c0.6,0.5,0.8,0.8,0.7,2l-0.7,13c-0.1,1-0.1,1.4,0.2,1.5
			c0.1,0,0.1,0.1,0.2,0.1c0.2,0,0.5-0.2,1.2-0.7l0.2-0.2c0.4-0.3,0.9-0.7,1.6-1.2c1-0.7,2.2-1.7,3.7-2.8c0.9-0.7,1.6-1.2,2.2-1.6
			c0.9-0.6,1.6-1.2,2.5-1.9C119.1,261.2,119.5,261,119.8,261z"/>
		<path class="st1" d="M128.5,264.3c0-0.1,0-0.2-0.1-0.3c-0.1-0.1-0.2-0.1-0.3-0.2c-0.4-0.2-1-0.4-1.5-0.6c-0.4-0.1-0.7-0.3-0.9-0.4
			c-0.3-0.1-0.7-0.3-1.1-0.5c-0.5-0.2-1-0.5-1.4-0.7c-0.2-0.1-0.4-0.1-0.5-0.1c-0.1,0-0.2,0.1-0.2,0.1c-0.1,0.3,0.2,0.4,0.3,0.5
			c0.3,0.1,0.5,0.2,0.6,0.4c0.3,0.2,0.4,0.6,0.2,1.2c-0.2,0.6-0.4,1-1.6,3.6l-1.5,3.3c-0.7,1.7-1.4,3.1-1.8,3.8
			c-0.3,0.5-0.5,0.7-0.8,0.6c-0.2,0-0.4-0.1-0.7-0.2c-0.3-0.1-0.4-0.1-0.5,0.1c-0.1,0.3,0.2,0.4,0.4,0.5c0.4,0.2,1,0.4,1.6,0.7
			c0.4,0.2,0.7,0.3,0.9,0.4c0.2,0.1,0.5,0.2,0.8,0.4c0.6,0.3,1.4,0.7,2.2,1c0.1,0.1,0.2,0.1,0.3,0.1c0.2,0,0.2-0.1,0.3-0.2
			c0-0.1,0-0.3-0.3-0.4c-0.3-0.1-0.7-0.4-0.9-0.5c-0.5-0.3-0.5-0.6-0.3-1.1c0.3-0.8,0.9-2.3,1.6-3.9l1.4-3.1
			c1.2-2.7,1.4-3.2,1.7-3.7c0.3-0.6,0.6-0.8,1-0.6c0.3,0.1,0.4,0.1,0.6,0.2C128.3,264.5,128.4,264.5,128.5,264.3z"/>
		<path class="st1" d="M140.8,269.4c0.1-0.2-0.1-0.4-0.2-0.5c-0.5-0.4-1.3-0.9-2.5-1.3c-0.9-0.3-1.7-0.5-2.5-0.5
			c-1.7,0-3,0.8-3.6,2.2c-0.6,1.6-0.2,3.2,1.3,5.5l0.7,1c1.1,1.8,1.2,2.7,0.8,3.6c-0.2,0.6-0.9,1.2-2,1.2c-0.4,0-0.8-0.1-1.3-0.3
			c-0.8-0.3-2.2-1.1-2.1-2.8c0-0.4,0.1-0.8,0.2-1c0.1-0.3,0.1-0.4-0.1-0.5c0,0-0.1,0-0.1,0c-0.2,0-0.4,0.2-0.5,0.5l0,0.1
			c-0.2,0.4-0.6,1.3-1,2.3c-0.2,0.4-0.1,0.6,0.2,0.9c0.7,0.7,1.5,1.1,2.7,1.6c1,0.4,1.8,0.6,2.7,0.6c0.3,0,0.6,0,0.8-0.1
			c2-0.3,2.9-1.7,3.2-2.5c0.7-1.8,0.3-3.4-1.5-6l-0.4-0.6c-1.1-1.7-1.4-2.5-1.1-3.3c0.3-0.7,0.9-1.1,1.7-1.1c0.4,0,0.8,0.1,1.2,0.2
			c1.2,0.5,1.6,1.2,1.8,1.7c0.2,0.6,0.1,1.2,0.1,1.3c-0.1,0.4,0,0.5,0.1,0.5c0,0,0.1,0,0.1,0c0.2,0,0.3-0.2,0.5-0.5
			c0.4-1,0.6-1.5,0.8-1.8C140.7,269.5,140.7,269.4,140.8,269.4z"/>
		<path class="st1" d="M150.9,272.5c-0.4-0.2-1-0.3-1.5-0.5c-0.4-0.1-0.7-0.2-0.9-0.3c-0.3-0.1-0.7-0.2-1.1-0.4
			c-0.5-0.2-1.1-0.4-1.5-0.5c-0.2-0.1-0.3-0.1-0.4-0.1c-0.2,0-0.2,0.1-0.2,0.1c-0.1,0.3,0.2,0.4,0.3,0.4c0.3,0.1,0.5,0.2,0.7,0.3
			c0.4,0.2,0.4,0.5,0.3,1.1c-0.2,0.6-0.3,1.1-1.3,3.9l-1.1,3.3c-0.6,1.8-1.1,3.2-1.4,3.9c-0.3,0.5-0.4,0.7-0.8,0.7
			c-0.3,0-0.5-0.1-0.7-0.2c-0.4-0.1-0.5,0-0.5,0.1c-0.1,0.2,0.1,0.3,0.4,0.5c0.5,0.2,1.1,0.3,1.6,0.5c0.4,0.1,0.8,0.2,0.9,0.3
			c0.2,0.1,0.5,0.2,0.9,0.3c0.6,0.2,1.4,0.5,2.2,0.8c0.1,0,0.2,0.1,0.3,0.1c0.2,0,0.3-0.1,0.3-0.2c0-0.1,0-0.3-0.3-0.4
			c-0.3-0.1-0.7-0.3-1-0.4c-0.5-0.2-0.5-0.5-0.4-1.1c0.2-0.8,0.6-2.2,1.2-3.9l1.2-3.7c0.8-2.5,1-3,1.3-3.6c0.3-0.6,0.5-0.8,1-0.7
			c0.3,0,0.4,0.1,0.6,0.1c0.1,0,0.2,0.1,0.2,0.1c0.1,0,0.2-0.1,0.3-0.2c0-0.1,0-0.1,0-0.2C151.3,272.6,151.2,272.6,150.9,272.5z"/>
		<path class="st1" d="M163.4,276c-1.1-0.3-2.1-0.5-3.1-0.5c-4.4,0-6.8,3-7.5,5.5c-1,3.6,0.6,8.2,6.3,9.8c1,0.3,2,0.4,2.9,0.4
			c3.8,0,6.8-2.2,7.8-5.8C171.1,281,168.6,277.4,163.4,276z M166.6,285.3c-1.1,4-3.3,4.8-4.9,4.8c-0.6,0-1-0.1-1.4-0.2
			c-3.6-1-5.4-4.6-4.3-8.6c1.1-3.8,3.2-4.6,4.9-4.6c0.5,0,1.1,0.1,1.6,0.2C166,277.9,167.7,281.3,166.6,285.3z"/>
		<path class="st1" d="M191.6,282.8c-0.7-0.1-1.3-0.2-1.7-0.3c-0.2,0-0.3-0.1-0.4-0.1c-0.2,0-0.4-0.1-0.7-0.2
			c-0.5-0.1-1.1-0.3-1.8-0.4c-0.1,0-0.3-0.1-0.4-0.1c-0.2,0-0.3,0.1-0.3,0.2c0,0.1,0,0.1,0,0.2c0.1,0.1,0.2,0.1,0.4,0.2
			c0.3,0.1,0.8,0.2,1,0.3c0.4,0.3,0.5,0.6,0.3,1.8l-1.5,8.5c-0.2-0.3-0.6-0.9-1.1-1.7c-0.8-1.2-1.8-2.6-2.5-3.6
			c-2.5-3.4-5.1-7.3-5.2-7.5c-0.1-0.1-0.1-0.2-0.1-0.2c-0.2-0.3-0.3-0.5-0.6-0.6c-0.3-0.1-0.5,0.3-0.5,0.7l-2.5,11.3
			c-0.4,1.6-0.5,2.1-1,2.1c-0.3,0-0.7-0.1-0.9-0.1c-0.4-0.1-0.5,0.1-0.5,0.2c-0.1,0.3,0.3,0.4,0.5,0.4c0.8,0.2,1.5,0.3,1.9,0.3
			c0.2,0,0.3,0.1,0.4,0.1c0.1,0,0.3,0.1,0.6,0.1c0.5,0.1,1.1,0.3,2,0.5c0.5,0.1,0.6,0,0.6-0.2c0.1-0.3-0.3-0.3-0.4-0.4
			c-0.3-0.1-0.7-0.2-1-0.3c-0.3-0.1-0.5-0.5-0.2-2.2l1.4-7.9c0.1,0.1,0.2,0.2,0.3,0.4c0.7,1.1,2.1,3.3,3.6,5.3
			c0.7,1,1.5,2.1,2.3,3.1c1.1,1.5,2.1,2.9,2.7,3.8c0.2,0.3,0.4,0.6,0.7,0.6c0,0,0.1,0,0.1,0c0.3,0,0.4-0.3,0.4-0.6l2.7-12
			c0.2-1,0.5-1.4,1-1.4h0c0.2,0,0.4,0,0.6,0.1c0.4,0.1,0.5-0.1,0.5-0.2C192.2,282.9,191.8,282.8,191.6,282.8z"/>
		<path class="st1" d="M211.2,285.4c-0.5-0.1-1.1-0.1-1.5-0.1c-5.1,0-7.8,3.4-8.2,6.7c-0.4,3.7,1.8,8,7.7,8.7c0.5,0.1,1,0.1,1.4,0.1
			c4.5,0,7.9-2.8,8.4-7C219.5,289.2,216.5,286,211.2,285.4z M215.7,294.1c-0.6,4.9-3.3,5.6-4.9,5.6c-0.2,0-0.4,0-0.6,0
			c-3.7-0.5-6-3.7-5.5-7.9c0.5-4.4,3-5.4,5-5.4c0.3,0,0.5,0,0.8,0C214,286.9,216.2,290,215.7,294.1z"/>
		<path class="st1" d="M232.9,287.5c-0.1,0-0.2,0-0.2,0.1c0,0-0.1,0-0.1,0c-0.1,0-0.4,0-0.7,0l-0.2,0c-0.5,0-4.4-0.3-5.6-0.4
			c-0.3,0-0.7-0.1-1.1-0.1l-0.2,0c-0.3,0-0.6,0-0.8-0.1c-0.3,0-0.6-0.1-0.9-0.1c-0.1,0-0.1,0-0.2,0c-0.1,0-0.4,0-0.4,0.3
			c0,0.2,0.1,0.3,0.4,0.3c0.3,0,0.7,0.1,0.8,0.1c0.6,0.2,0.8,0.5,0.8,1.1c0,0.6,0,1.1-0.2,4l-0.3,3.5l0,0.1
			c-0.1,1.8-0.2,3.3-0.4,4.1c-0.1,0.6-0.3,0.9-0.6,0.9c-0.2,0-0.5,0-0.7,0c0,0-0.1,0-0.1,0c-0.3,0-0.4,0.1-0.4,0.2
			c0,0.1,0,0.1,0.1,0.2c0.1,0.1,0.3,0.1,0.5,0.1c0.4,0,1.1,0.1,1.6,0.1c0.4,0,0.9,0,1.1,0.1c0.2,0,0.5,0,0.9,0.1
			c0.6,0.1,1.5,0.1,2.3,0.2c0.1,0,0.1,0,0.1,0c0.3,0,0.4-0.1,0.4-0.3c0-0.3-0.3-0.3-0.5-0.3c-0.3,0-0.8-0.1-1-0.2
			c-0.5-0.1-0.6-0.4-0.7-1c0-0.8,0.1-2.3,0.2-4.1l0.1-1.6c0,0,0-0.1,0-0.1l0,0c0.1,0,2.6,0.2,3.1,0.3c0.7,0.1,0.9,0.6,0.9,0.7
			c0.1,0.2,0.1,0.5,0.1,0.6c0,0.3,0.1,0.4,0.3,0.4h0c0.3,0,0.3-0.3,0.3-0.5c0-0.1,0.1-1,0.2-1.4c0.1-0.3,0.1-0.6,0.2-0.9
			c0-0.2,0.1-0.3,0.1-0.3c0-0.1,0-0.2-0.1-0.2c0,0-0.1-0.1-0.2-0.1l0,0c-0.1,0-0.2,0.1-0.3,0.2l-0.1,0.1c-0.2,0.2-0.4,0.3-0.8,0.3
			l-0.1,0c-0.3,0-0.6,0-0.9,0l-2.7-0.2c0,0,0,0,0,0c0,0,0,0,0-0.1l0.3-4.9c0-0.2,0-0.2,0.1-0.2l3.3,0.3c0.8,0.1,1.2,0.4,1.3,0.6
			c0.1,0.3,0.1,0.5,0.1,0.7c0,0.1,0,0.4,0.3,0.4h0c0.2,0,0.3-0.2,0.3-0.3c0-0.1,0.1-0.6,0.2-1.1c0-0.2,0.1-0.4,0.1-0.5
			c0.1-0.3,0.1-0.5,0.2-0.6c0-0.1,0.1-0.2,0.1-0.3C233.2,287.6,233.1,287.5,232.9,287.5z"/>
		<path class="st1" d="M261.2,288.2l-0.2,0c-0.6,0-1.2,0-1.5,0c-0.2,0-0.3,0-0.4,0l0,0c-0.2,0-0.4,0-0.7,0c-0.5,0-1.1,0-1.8,0
			c-0.3,0-0.7,0-0.7,0.3c0,0.3,0.3,0.3,0.5,0.3c0.3,0,0.8,0,1.1,0.1c0.4,0.2,0.6,0.5,0.6,1.7l0.2,8.6c-0.2-0.2-0.8-0.7-1.4-1.4
			c-1-1-2.3-2.3-3.2-3c-3.2-2.9-6.5-6.2-6.6-6.3c-0.1-0.1-0.1-0.1-0.2-0.2c-0.2-0.3-0.4-0.4-0.7-0.4c-0.4,0-0.4,0.6-0.4,0.8
			l-0.2,11.5c0,1.6-0.1,2.2-0.6,2.3c-0.3,0.1-0.7,0.1-0.9,0.1h0c-0.3,0-0.4,0.1-0.4,0.3c0,0.1,0,0.1,0.1,0.2
			c0.1,0.1,0.3,0.1,0.5,0.1h0.1c0.7,0,1.4,0,1.8,0c0.2,0,0.3,0,0.4,0c0.1,0,0.3,0,0.6,0c0.5,0,1.1,0,2,0c0.2,0,0.6,0,0.6-0.3
			c0-0.3-0.3-0.3-0.5-0.3c-0.3,0-0.7,0-1.1-0.1c-0.3-0.1-0.6-0.4-0.7-2.1l-0.2-8c0.1,0.1,0.2,0.2,0.3,0.3c0.9,0.9,2.7,2.8,4.6,4.5
			c0.9,0.8,1.9,1.7,2.8,2.6c1.4,1.3,2.7,2.5,3.5,3.2c0.2,0.2,0.5,0.5,0.8,0.5h0c0.4,0,0.4-0.5,0.4-0.7l0.3-12.3
			c0-1.1,0.2-1.4,0.7-1.5c0.2,0,0.3-0.1,0.5-0.1l0.1,0c0.4,0,0.5-0.2,0.5-0.3C261.8,288.2,261.4,288.2,261.2,288.2z"/>
		<path class="st1" d="M275.9,299.3L275.9,299.3c-0.2,0-0.3,0.2-0.3,0.4c-0.1,0.8-0.3,1.2-0.8,1.4c-0.5,0.3-1.4,0.3-1.9,0.3
			c-0.3,0-0.5,0-0.7,0c-1.5,0-1.7-0.3-1.8-1.4c0-0.4-0.1-1.4-0.1-2.2c0-0.3,0-0.6,0-0.8l-0.1-1.5c0-0.1,0-0.1,0-0.1l0,0
			c0.4,0,2.1-0.1,2.8-0.1c0.1,0,0.2,0,0.2,0c0.8,0,1,0.4,1.1,0.6c0.1,0.2,0.1,0.3,0.1,0.5c0,0.1,0,0.1,0,0.2c0,0.2,0.1,0.3,0.3,0.3
			c0,0,0,0,0,0c0.3,0,0.3-0.3,0.3-0.5c0-0.1,0-0.4,0-0.6c0-0.2,0-0.5,0-0.7c0-0.7,0.1-1,0.1-1.2c0-0.1,0-0.2,0-0.2
			c0-0.2-0.1-0.3-0.3-0.3h0c-0.1,0-0.2,0.1-0.4,0.3l0,0c-0.2,0.2-0.5,0.2-0.9,0.3c-0.3,0-1.5,0.1-3.4,0.2l0,0.1l0,0l0-0.1
			c0,0,0,0,0-0.1l-0.2-4.9c0-0.1,0-0.1,0-0.1s0,0,0,0c0.4,0,2.7-0.1,3-0.1c1,0.1,1.2,0.3,1.4,0.6c0.1,0.2,0.1,0.6,0.1,0.7
			c0,0.1,0,0.4,0.3,0.4l0,0c0.2,0,0.3-0.1,0.3-0.3c0-0.2,0-0.6,0-0.9c0-0.2,0-0.3,0-0.4c0-0.6,0.1-0.9,0.1-1.1c0-0.1,0-0.2,0-0.2
			c0-0.2-0.2-0.3-0.2-0.3h0c-0.1,0-0.2,0-0.2,0.1c0,0-0.1,0-0.1,0c-0.2,0.1-0.6,0.1-0.9,0.2c-0.4,0-3.9,0.2-5,0.2l-0.3,0
			c-0.3,0-0.7,0-1.3,0H267c-0.3,0-0.6,0-0.9,0c-0.3,0-0.6,0-0.9,0c-0.2,0-0.6,0-0.6,0.3c0,0.3,0.3,0.3,0.4,0.3c0,0,0.1,0,0.1,0
			c0.3,0,0.7,0,0.8,0c0.7,0.1,0.8,0.4,0.9,1c0.1,0.6,0.1,1.1,0.2,4.1l0.2,3.4c0.1,1.8,0.1,3.3,0.1,4.1c-0.1,0.6-0.2,0.9-0.5,1
			c-0.2,0-0.4,0.1-0.7,0.1c-0.2,0-0.3,0-0.4,0.1c0,0-0.1,0.1-0.1,0.2c0,0.2,0.2,0.3,0.5,0.3c0,0,0.1,0,0.1,0c0.2,0,0.4,0,0.7-0.1
			c0.3,0,0.5,0,0.8-0.1c0.5,0,0.9-0.1,1.1-0.1l0.1,0c0.6,0,1.2,0,2.2,0l0.6,0c0.8,0,1.8,0,3.1-0.1c0.8,0,1.1,0,1.2-0.6
			c0.1-0.4,0.2-1.7,0.2-2.2C276.2,299.6,276.2,299.3,275.9,299.3z"/>
		<path class="st1" d="M285.5,292.7l-0.6-0.4c-1.8-1-2.3-1.6-2.4-2.5c-0.1-1.1,0.8-2,2.3-2.1c1.3-0.1,1.9,0.4,2.3,0.7
			c0.5,0.5,0.6,1,0.6,1.2c0,0.3,0.1,0.4,0.3,0.4l0,0c0.3,0,0.3-0.4,0.3-0.7c-0.1-1.1-0.1-1.7-0.1-2c0-0.1,0-0.2,0-0.3
			c0-0.3-0.3-0.3-0.4-0.3c-0.4-0.1-1-0.1-1.8-0.1c-0.4,0-0.7,0-1.1,0c-2.9,0.2-4.9,2-4.7,4.2c0.1,1.7,1.2,3,3.6,4.4l1,0.6
			c1.8,1.1,2.2,1.9,2.3,2.8c0.1,1-0.8,2.2-2.6,2.3c-0.1,0-0.3,0-0.4,0c-0.9,0-2.1-0.3-2.7-1.7c-0.1-0.3-0.2-0.7-0.3-0.9
			c0-0.1,0-0.4-0.3-0.4h0c-0.3,0-0.3,0.5-0.3,0.6v0.1c0,0.4,0,1.5,0.1,2.5c0,0.5,0.1,0.6,0.5,0.7c0.7,0.2,1.3,0.3,2.1,0.3
			c0.3,0,0.7,0,1.1,0c1.4-0.1,2.5-0.5,3.4-1.1c1.7-1.2,1.8-2.8,1.8-3.6C289.3,295.5,288.2,294.2,285.5,292.7z"/>
		<path class="st1" d="M314.3,297.7c-0.1,0-0.1,0-0.2,0c-0.2,0-0.8,0.1-1.3,0c-0.5-0.1-0.8-0.5-1.2-1.7l-3.5-11.7
			c0-0.2-0.2-0.6-0.5-0.6c0,0,0,0-0.1,0c-0.3,0-0.4,0.3-0.5,0.6l-4.1,11.6l-7.1-9.9c-0.3-0.5-0.5-0.6-0.8-0.6
			c-0.2,0-0.4,0.2-0.4,0.7l-0.4,12.9c0,0.7-0.1,1.4-0.6,1.5c-0.3,0.1-0.4,0.1-0.6,0.1c-0.1,0-0.4,0.1-0.4,0.3c0,0.1,0.1,0.3,0.4,0.3
			c0,0,0.1,0,0.2,0c0.4-0.1,0.9-0.1,1.3-0.2c0.3-0.1,0.6-0.1,0.8-0.1c0.1,0,0.4,0,0.7-0.1c0.4,0,1-0.1,1.5-0.2
			c0.2,0,0.4-0.1,0.5-0.2c0-0.1,0.1-0.1,0.1-0.2c0-0.1-0.1-0.2-0.3-0.2c0,0-0.1,0-0.1,0c-0.3,0-0.5,0-0.9,0c-0.5,0-0.6-0.3-0.6-0.4
			c0-0.3-0.1-0.6-0.1-0.9l0-7.6c0.4,0.5,0.8,1.1,1.2,1.7c0.7,1,1.3,1.9,1.5,2.1c0.3,0.5,2.3,3.1,3,4.1l0.1,0.1
			c0.4,0.5,0.6,0.8,0.9,0.8l0,0c0.3,0,0.3-0.3,0.7-1.3l3.3-9.2l2.4,8.1c0.2,0.5,0.1,0.7,0.1,0.7c-0.1,0.1-0.3,0.2-0.3,0.4
			c0,0.2,0.3,0.2,0.5,0.2c0.1,0,0.2,0,0.3,0c0.8-0.1,3.7-0.4,4.3-0.5c0.3,0,0.5-0.1,0.6-0.2c0-0.1,0.1-0.1,0-0.2
			C314.6,297.8,314.5,297.7,314.3,297.7z"/>
		<path class="st1" d="M332.2,294.1c0,0-0.1,0-0.2,0c-0.2,0-0.5,0.1-0.9,0.1c-0.5,0-1.1-0.2-2.2-1.7c-1.1-1.5-3.1-4.4-4.8-6.8
			c-1.3-1.9-2.4-3.5-2.7-3.9c-0.3-0.4-0.5-0.6-0.7-0.5c-0.3,0.1-0.4,0.4-0.5,1l-2.8,13c-0.2,1.1-0.5,1.7-1.4,2
			c-0.2,0.1-0.5,0.1-0.6,0.2c-0.2,0-0.3,0.2-0.3,0.3c0,0.1,0.1,0.2,0.3,0.2c0.1,0,0.1,0,0.3,0c0.7-0.1,1.5-0.3,2-0.4
			c0.2-0.1,0.4-0.1,0.5-0.1c0.3-0.1,0.7-0.1,1.1-0.2c0.4-0.1,0.8-0.1,1.1-0.2c0.1,0,0.5-0.1,0.4-0.4c0-0.1-0.1-0.2-0.3-0.2
			c-0.1,0-0.1,0-0.2,0l-0.3,0.1c-0.5,0.1-0.8,0-0.8-0.3c0-0.2,0-0.7,0.1-1.2l0.6-3c0-0.1,0-0.1,0.1-0.1l4.6-0.9c0,0,0.1,0,0.1,0
			l2.5,3.7c0,0.1,0.1,0.1,0,0.2c0,0.1-0.1,0.1-0.1,0.1c-0.1,0-0.4,0.1-0.3,0.4c0,0.2,0.3,0.2,0.7,0.1l0.1,0c1.7-0.3,3.2-0.6,3.9-0.8
			c0.7-0.1,0.9-0.2,1-0.3c0-0.1,0-0.1,0-0.2C332.4,294.2,332.3,294.1,332.2,294.1z M323.8,289.9l-3.8,0.8l1-5.1c0,0,0,0,0,0
			c0,0,0,0,0,0L323.8,289.9z"/>
		<path class="st1" d="M351.6,288.8c-0.1,0-0.1,0-0.2,0c-0.3,0.1-0.8,0.2-1,0.2c-0.5,0.1-0.7-0.2-1-0.7c-0.3-0.8-0.7-2.2-1.2-4
			l-2.1-7.6l2.5-0.7c1.4-0.4,2.4-0.3,2.6,0.3l0.1,0.2c0.1,0.3,0.2,0.5,0.5,0.4c0.2-0.1,0.2-0.4,0.2-0.5c-0.1-0.3-0.2-0.7-0.3-1.2
			c-0.1-0.4-0.2-0.8-0.3-1c-0.1-0.2-0.2-0.5-0.4-0.4c-0.1,0-0.2,0.1-0.3,0.1l-0.2,0.1c-0.3,0.1-0.7,0.3-1.4,0.5l-8.1,2.3
			c-0.6,0.2-1.4,0.4-2.1,0.5c-0.2,0.1-0.5,0-0.7,0c-0.1,0-0.2,0-0.3,0c-0.2,0.1-0.2,0.3-0.2,0.5c0,0.1,0.1,2,0.2,2.3
			c0,0.1,0.1,0.4,0.4,0.3c0.2-0.1,0.2-0.3,0.2-0.4c0-0.1,0-0.3,0.2-0.7c0.2-0.4,0.5-0.7,1.8-1l2.9-0.9l2.2,7.6c0.5,1.7,0.9,3.2,1,4
			c0.1,0.6,0,0.9-0.2,1.1c-0.2,0.1-0.5,0.2-0.7,0.3c-0.1,0-0.4,0.1-0.4,0.4c0,0.1,0.1,0.2,0.3,0.2c0.1,0,0.2,0,0.3-0.1
			c0.5-0.1,1.1-0.3,1.6-0.5c0.4-0.1,0.8-0.2,1-0.3c0.2-0.1,0.6-0.2,1-0.3c0.6-0.2,1.4-0.4,2.2-0.6c0.4-0.1,0.4-0.3,0.4-0.4
			C351.8,288.9,351.8,288.8,351.6,288.8z"/>
		<path class="st1" d="M389,274.5c-0.1,0-0.2,0-0.2,0.1c-0.3,0.1-0.6,0.2-0.8,0.3c-0.1,0-0.2,0-0.3,0c-0.4,0-1-0.1-2.2-1.2
			c-1.4-1.2-4-3.7-6.1-5.6c-1.7-1.6-3.1-2.9-3.5-3.2c-0.4-0.3-0.6-0.5-0.8-0.4c-0.3,0.1-0.3,0.4-0.3,1.1l0,13.4
			c0,1.1-0.1,1.8-0.9,2.2c-0.1,0-0.1,0.1-0.2,0.1c0,0-0.1,0-0.1,0c-0.1,0-0.3,0.1-0.6,0.1c-0.6,0-1.3-0.2-2-0.5
			c-1.4-0.6-3-1.5-5-2.7l-0.9-0.5c1.3-2,1.7-3.5,1.1-5.1c-0.5-1.4-1.7-2-2.3-2.1c-0.3-0.1-0.7-0.1-1-0.1c-1.1,0-2.2,0.3-3,0.6
			c-0.3,0.1-0.8,0.3-1.4,0.5c-0.5,0.2-1.1,0.4-1.4,0.5c-0.2,0.1-0.4,0.2-0.8,0.3c-0.6,0.2-1.3,0.4-2,0.7c-0.3,0.1-0.4,0.2-0.4,0.3
			c0,0.1,0,0.1,0,0.2c0,0.1,0.1,0.2,0.3,0.2c0.1,0,0.2,0,0.3-0.1c0.3-0.1,0.6-0.2,0.8-0.2c0.6-0.1,0.8,0,1.1,0.7
			c0.2,0.6,0.4,1.1,1.4,3.8l1.2,3.3c0.6,1.6,1.1,3.1,1.3,3.9c0.1,0.6,0.1,0.9-0.2,1.1c-0.1,0.1-0.4,0.2-0.7,0.3
			c-0.1,0-0.4,0.2-0.3,0.4c0,0.1,0.1,0.2,0.3,0.2c0.1,0,0.2,0,0.3-0.1c0.5-0.2,1.1-0.4,1.6-0.6c0.4-0.1,0.7-0.3,0.8-0.3
			c0.1,0,0.3-0.1,0.6-0.2c0.6-0.2,1.5-0.5,2.3-0.8c0.2-0.1,0.3-0.2,0.4-0.3c0-0.1,0-0.1,0-0.2c-0.1-0.2-0.2-0.2-0.4-0.1
			c-0.2,0.1-0.7,0.2-1,0.3c-0.5,0.1-0.8-0.1-1-0.7c-0.4-0.7-0.9-2.2-1.5-3.9l-0.1-0.3c0,0,0,0,0,0c0,0,0,0,0,0l1.8-0.6
			c0.1,0,0.2-0.1,0.3,0c0.2,0.1,0.7,0.5,1.4,0.9c0.5,0.3,1,0.7,1.5,1c1.7,1.1,2.7,1.6,3.7,1.7c0.1,0,0.3,0,0.4,0
			c0.5,0,1-0.1,1.9-0.4l1.9-0.7c0.1,0,0.3-0.1,0.3-0.2c0.4-0.2,0.7-0.3,1-0.5c0.2-0.1,0.4-0.2,0.5-0.2c0.3-0.1,0.7-0.3,1-0.4
			c0.4-0.1,0.7-0.3,1.1-0.4c0.1-0.1,0.2-0.1,0.3-0.2c0.1-0.1,0.1-0.2,0-0.3c0-0.1-0.1-0.2-0.2-0.2c-0.1,0-0.2,0-0.3,0.1l-0.3,0.1
			c-0.2,0.1-0.4,0.1-0.5,0.1c-0.2,0-0.3-0.1-0.4-0.3c-0.1-0.2-0.2-0.6-0.2-1.2l-0.1-3c0-0.1,0-0.1,0-0.1l4.3-1.9c0,0,0.1,0,0.1,0
			l3.2,3.1c0.1,0.1,0.1,0.1,0.1,0.2c0,0.1,0,0.1-0.1,0.1c-0.1,0.1-0.3,0.2-0.2,0.4c0,0,0.1,0.1,0.2,0.1c0.1,0,0.3-0.1,0.5-0.1l0.1,0
			c1.5-0.6,2.9-1.2,3.6-1.6l0.1,0c0.7-0.3,1-0.5,0.9-0.7C389.1,274.6,389,274.5,389,274.5z M379.9,272.2l-3.6,1.6l-0.1-5.2
			c0,0,0,0,0,0c0,0,0,0,0,0L379.9,272.2z M363.6,277.5c-0.3,0.3-0.5,0.5-1.3,0.8c-0.6,0.2-1.2,0.3-1.5,0.4c-0.1,0-0.1,0-0.2-0.2
			l-2-5.6c0-0.1,0-0.1,0-0.2c0.2-0.1,0.5-0.2,1-0.4c0.2-0.1,0.6-0.2,1.1-0.2c0.8,0,2.3,0.3,3,2.4C364.4,276.1,363.9,277,363.6,277.5
			z"/>
		<path class="st1" d="M398.9,255.4c-0.6-0.1-1.1-0.2-1.7-0.2c-2.5,0-4.9,1.3-6.9,2.4c-0.6,0.4-1.3,0.7-1.9,1.1
			c-0.4,0.2-0.7,0.4-1,0.6c-0.2,0.1-0.6,0.3-1,0.5c-0.5,0.3-1.2,0.6-1.7,0.9c-0.2,0.1-0.4,0.2-0.4,0.3c0,0.1,0,0.1,0,0.2
			c0.1,0.2,0.2,0.2,0.5,0c0.2-0.1,0.6-0.3,0.7-0.3c0.2-0.1,0.3-0.1,0.4-0.1c0.3,0,0.5,0.1,0.8,0.6c0.3,0.5,0.6,1,2,3.6l1.6,3
			c0.8,1.6,1.6,2.9,1.9,3.7c0.2,0.6,0.3,0.9,0,1.1c-0.1,0.1-0.3,0.3-0.6,0.4c-0.1,0.1-0.4,0.2-0.3,0.4c0,0.1,0.1,0.1,0.2,0.1
			c0.1,0,0.2,0,0.4-0.1c0.2-0.1,0.4-0.2,0.6-0.4c0.2-0.1,0.4-0.3,0.7-0.4c0.5-0.3,0.9-0.5,1.1-0.6c0.4-0.2,1-0.5,1.6-0.8l0.2-0.1
			c0.8-0.3,1.5-0.7,2.2-1.1c3.7-2,4.9-4.5,5.2-5.5c0.3-0.9,0.9-3.3-0.5-6C401.9,256.6,400.1,255.8,398.9,255.4z M401.4,265.8
			c-0.6,1.5-1.7,2.5-3.6,3.5c-1.1,0.6-1.8,0.7-2.2,0.7h0c-0.2,0-0.4,0-0.5-0.1c-0.2-0.1-0.7-0.9-0.9-1.1c-0.2-0.3-0.9-1.6-1.9-3.4
			l-1.3-2.4c-0.7-1.3-1.4-2.7-1.7-3.2c-0.1-0.2-0.1-0.2,0-0.3c0.1-0.1,0.7-0.5,1.1-0.8c1.7-0.9,3.2-1.4,4.6-1.4c0.5,0,1,0.1,1.5,0.2
			c0.8,0.2,2.7,0.8,4,3.2C401.7,262.8,402,264.4,401.4,265.8z"/>
		<path class="st1" d="M415.8,258.8c-0.3,0.2-0.7,0.4-0.9,0.5c-0.5,0.2-0.8,0.1-1.1-0.3c-0.5-0.6-1.3-1.9-2.4-3.5l-2-3.1
			c-1.5-2.2-1.8-2.7-2.1-3.2c-0.3-0.6-0.3-0.9,0-1.2c0.2-0.2,0.3-0.3,0.5-0.4c0.1-0.1,0.4-0.2,0.2-0.5c-0.1-0.1-0.3-0.1-0.6,0.1
			c-0.4,0.2-0.9,0.6-1.3,0.9c-0.3,0.2-0.6,0.5-0.8,0.6c-0.2,0.2-0.6,0.4-1,0.7c-0.5,0.3-1,0.6-1.3,0.8c-0.2,0.1-0.5,0.3-0.4,0.6
			c0.1,0.1,0.2,0.1,0.2,0.1c0.1,0,0.2,0,0.3-0.1c0.2-0.2,0.5-0.3,0.7-0.3c0.4-0.2,0.7,0,1.1,0.5c0.4,0.5,0.7,0.9,2.3,3.4l1.9,2.9
			l0,0.1c1,1.6,1.8,2.8,2.2,3.5c0.3,0.5,0.3,0.8,0,1c-0.1,0.1-0.3,0.3-0.6,0.5c-0.1,0.1-0.2,0.1-0.2,0.2c-0.1,0.1,0,0.2,0,0.2
			c0.1,0.1,0.1,0.1,0.2,0.1c0.1,0,0.2-0.1,0.4-0.2c0.4-0.3,0.9-0.6,1.4-0.9c0.4-0.3,0.7-0.5,0.8-0.6c0.2-0.1,0.5-0.3,0.8-0.5
			c0.6-0.4,1.3-0.8,2-1.3c0.4-0.3,0.3-0.5,0.3-0.5C416.2,258.6,416,258.6,415.8,258.8z"/>
		<path class="st1" d="M424.6,236.4c-0.7-0.8-0.8-1.2-0.4-1.6c0.1-0.2,0.3-0.3,0.4-0.4c0.2-0.2,0.3-0.4,0.2-0.5
			c0-0.1-0.1-0.1-0.2-0.1c-0.1,0-0.3,0.1-0.5,0.3c-0.5,0.5-1,0.9-1.3,1.1c-0.1,0.1-0.2,0.2-0.3,0.3c-0.1,0.1-0.3,0.3-0.6,0.5
			c-0.4,0.3-0.9,0.7-1.4,1.1c-0.2,0.2-0.5,0.4-0.3,0.6c0.1,0.1,0.3,0.1,0.5-0.1c0.2-0.2,0.6-0.5,0.9-0.6c0.1,0,0.2-0.1,0.3-0.1
			c0.3,0,0.7,0.3,1.2,0.9l5.6,6.5c-0.3,0-1.1-0.1-2-0.1c-1.4-0.1-3.2-0.2-4.3-0.3c-4.3-0.2-9-0.6-9-0.6c-0.1,0-0.2,0-0.3,0
			c-0.1,0-0.3,0-0.4,0c-0.1,0-0.3,0-0.4,0.1c-0.3,0.2,0.1,0.7,0.2,0.8l7.1,9c1,1.3,1.3,1.7,1,2.2c-0.2,0.3-0.5,0.6-0.7,0.7
			c-0.1,0.1-0.2,0.2-0.2,0.3c0,0.1,0,0.1,0.1,0.2c0.1,0.1,0.1,0.1,0.2,0.1c0.1,0,0.3-0.1,0.4-0.2c0.6-0.5,1.1-1,1.5-1.3
			c0.1-0.1,0.2-0.2,0.3-0.2c0.1-0.1,0.3-0.2,0.5-0.4c0.4-0.3,0.9-0.7,1.6-1.3c0.2-0.2,0.3-0.3,0.3-0.4c0-0.1,0-0.1-0.1-0.2
			c-0.1-0.1-0.3-0.1-0.5,0.1c-0.2,0.2-0.6,0.4-0.9,0.6c-0.1,0-0.1,0-0.2,0c-0.4,0-0.9-0.4-1.6-1.2l-5.2-6c0.1,0,0.3,0,0.5,0
			c1.3,0.1,3.9,0.4,6.3,0.5c1.2,0.1,2.5,0.1,3.8,0.2c1.8,0.1,3.6,0.2,4.6,0.2c0.1,0,0.2,0,0.2,0c0.2,0,0.5,0,0.7-0.2
			c0.3-0.2,0-0.6-0.2-0.8L424.6,236.4z M424.5,252.6L424.5,252.6L424.5,252.6L424.5,252.6z"/>
		<path class="st1" d="M446.7,228.9l-1.6-1.4c-0.8-0.7-1.3-1.2-1.7-1.5c-0.5-0.4-0.5-0.8-0.3-1.2c0.1-0.2,0.2-0.3,0.3-0.5
			c0.1-0.1,0.1-0.2,0.1-0.3c0-0.1,0-0.1-0.1-0.2c-0.1,0-0.1-0.1-0.2-0.1c-0.1,0-0.3,0.1-0.4,0.3c-0.2,0.3-0.5,0.6-0.8,1
			c-0.3,0.4-0.6,0.7-0.8,1c-0.2,0.2-0.4,0.5-0.8,0.8c-0.4,0.5-0.9,1-1.3,1.5c-0.1,0.1-0.4,0.4-0.1,0.6c0.1,0.1,0.3,0.1,0.5-0.2
			c0.2-0.2,0.4-0.5,0.6-0.6c0.2-0.2,0.4-0.3,0.6-0.3c0.2,0,0.4,0.1,0.7,0.3c0.4,0.4,0.9,0.8,1.7,1.5l1.4,1.2
			c0.3,0.2,0.3,0.4,0.2,0.7c-0.2,0.5-0.6,1.1-1,1.5c-1.5,1.8-3.4,2.7-5.5,2.7c-1.7,0-3.3-0.6-4.7-1.9c-1.6-1.4-2.4-2.9-2.3-4.5
			c0.1-1.7,0.9-2.9,1.8-3.9c1.6-1.9,3.4-2.5,4.2-2.6c0.7-0.1,1.2,0.2,1.6,0.5c0.1,0.1,0.3,0.1,0.5,0c0.2-0.3,0-0.5-0.2-0.6
			c-1.4-1.2-1.9-1.8-2.1-2c-0.1-0.1-0.1-0.1-0.2-0.2c-0.1,0-0.1-0.1-0.2-0.1c-0.1,0-0.2,0.1-0.3,0.2c-0.4,0.4-1,0.9-1.2,1.1
			c-0.4,0.3-1.8,1.6-2.7,2.7c-1.1,1.3-2.3,2.8-2.8,5.2c-0.6,2.6,0.3,5.3,2.4,7.1c1.4,1.2,2.9,1.8,4.6,1.8c2.6,0,5.3-1.5,7.7-4.3
			c0.7-0.8,2.2-2.7,2.7-4.5C447.1,229.3,447.1,229.2,446.7,228.9z"/>
	</g>
	<path class="st1" d="M452.2,214.8c9.7-15.4,14.9-31.9,14.9-48.9c0.1-36-22.4-70-63.5-95.5C362.8,45,308.4,30.8,250.5,30.6
		C192.6,30.4,138.1,44.2,97,69.3c-41.3,25.3-64.1,59-64.2,95.1c-0.1,19.1,5.9,37.1,18,54.1c0,0.1,0.1,0.1,0.1,0.2
		c0,0.1,0.1,0.1,0.1,0.2l0,0c0.2,0.2,0.6,0.4,0.9,0.4c0.7,0,1.3-0.6,1.3-1.3c0-0.3-0.1-0.6-0.3-0.8l0,0
		c-11.4-16.2-17.7-34-17.6-52.6c0.3-72.7,96.7-131.6,215-131.1c118.3,0.4,214.4,60,214.1,132.7c-0.1,16.7-5.2,32.7-14.5,47.4
		l-1.4,1.9l-1.2,1.6c-0.2,0.2-0.3,0.6-0.3,0.9c0,0.8,0.6,1.4,1.4,1.4c0.5,0,1-0.3,1.3-0.7l0,0l2.3-3.3l0,0
		C452.1,215,452.2,214.9,452.2,214.8L452.2,214.8L452.2,214.8z"/>
</g>
</svg>
