<?xml version="1.0" encoding="utf-8"?>
<!-- Generator: Adobe Illustrator 26.0.1, SVG Export Plug-In . SVG Version: 6.00 Build 0)  -->
<svg version="1.1" id="Layer_1" xmlns="http://www.w3.org/2000/svg" xmlns:xlink="http://www.w3.org/1999/xlink" x="0px" y="0px"
	 viewBox="0 0 500 85.8" style="enable-background:new 0 0 500 85.8;" xml:space="preserve">
<style type="text/css">
	.st0{fill:#1B82B6;}
	.st1{fill:#94AEC1;}
	.st2{fill:#070707;}
	.st3{fill:#FFFFFF;}
</style>
<g>
	<path class="st0" d="M451.7,85.4c-8.9-0.8-15.4-8.8-14.6-18.2c0.7-8.5,8.6-15.1,17.3-14.5c8,0.5,14.6,6.6,15.4,14.2
		c0.9,8.6-4,15.8-12.2,18c-0.5,0.1-1,0.2-1.2,0.8c-0.4,0-0.8,0-1.2,0C454.1,85.3,452.8,85.8,451.7,85.4z"/>
	<path class="st1" d="M451.7,85.4c1.2,0.1,2.4-0.4,3.6,0.3c-1.2,0-2.3,0-3.5,0C451.7,85.7,451.7,85.5,451.7,85.4z"/>
	<path class="st2" d="M8.9,33.1c0,11.2,0,21.8,0,32.4c0,3.8,0,7.7,0,11.5c0,1.1-0.3,1.4-1.4,1.4c-2-0.1-4-0.1-6.1,0
		C0.2,78.5,0,78,0,76.9C0,57.2,0,37.6,0,18c0-1.2,0.3-1.5,1.5-1.5c6.3-0.1,6.2,0,10.3,5.2c7.8,9.7,15.8,19.4,23.6,29.1
		c2.7,3.3,5.4,6.6,8.1,9.9c0.3,0.4,0.6,1,1.3,1.1c0.4-0.6,0.2-1.2,0.2-1.9c0-13.9,0-27.8,0-41.7c0-1.5,0.3-1.9,1.8-1.8
		c1.9,0.1,3.9,0.1,5.9,0c1.1,0,1.3,0.3,1.3,1.3c0,19.8,0,39.5,0,59.3c0,1-0.2,1.2-1.3,1.4c-4.4,0.5-7.6-0.6-10.5-4.5
		c-9.4-12.1-19.3-23.9-29-35.8C11.9,36.6,10.6,35,8.9,33.1z"/>
	<path class="st2" d="M175.5,58c0-12.1,8.7-20.9,20.7-20.9c11.6,0,20.4,8.6,20.5,21.2c0.1,12.2-9,20.8-21.1,20.8
		C184,79.1,175,69.5,175.5,58z"/>
	<path class="st2" d="M102.9,58.4c0.5,11.4-8.9,20.8-20.8,20.7C71,79,61.8,70.9,61.7,58.2c0-12.4,8.9-21.1,20.8-21.1
		C94.4,37.1,103.4,46.7,102.9,58.4z"/>
	<path class="st0" d="M479.8,66.2c-0.6-0.6-0.9-0.8-1.2-1c-6.4-6.2-12.7-12.4-19.1-18.5c-0.8-0.8-0.9-1.3,0-2.2
		c6.4-6.2,12.8-12.5,19.1-18.7c0.7-0.6,1-0.7,1.7,0c6.3,6,12.5,12,18.8,17.9c1.1,1,1,1.6,0,2.6c-6.2,6.2-12.4,12.5-18.6,18.7
		C480.3,65.3,480.1,65.7,479.8,66.2z"/>
	<path class="st0" d="M428,65c-0.3-0.2-0.6-0.5-1-0.8c-6.1-6-12.2-11.9-18.3-17.9c-1.1-1.1-1-1.6,0-2.6c6.3-6.1,12.5-12.3,18.7-18.6
		c0.8-0.8,1.3-1,2.2-0.1c6,6.2,12.1,12.4,18.3,18.5c0.8,0.8,0.7,1.3,0,2c-6.2,6.2-12.5,12.4-18.7,18.6C428.9,64.6,428.6,65,428,65z"
		/>
	<path class="st0" d="M453.9,0c0.3,0.3,0.6,0.6,0.9,0.8c6.2,6,12.3,12,18.6,17.9c1.3,1.2,1.1,1.8-0.1,3c-4.5,4.2-8.8,8.5-13.1,12.8
		c-1.7,1.6-3.5,3.2-5,4.9c-1.1,1.2-1.7,0.8-2.6-0.1c-2.6-2.6-5.3-5.3-7.9-7.9c-3.5-3.4-6.9-6.9-10.5-10.3c-0.8-0.8-1-1.3-0.1-2.2
		c6.1-5.9,12.2-11.9,18.3-17.8C452.8,0.8,453.4,0.4,453.9,0z"/>
	<path class="st2" d="M232.4,41.1c2.5-2.1,4.7-3.6,7.6-4.3c7.1-1.6,15,2.9,15.9,12.1c0.9,9.5,0.2,19,0.4,28.5c0,0.9-0.3,1.1-1.1,1.1
		c-2,0-4-0.1-6.1,0c-1.4,0.1-1.6-0.5-1.6-1.7c0-7.8,0-15.5-0.1-23.3c0-1.3-0.2-2.6-0.4-3.9c-1.3-6.5-8.3-6.5-12.4-3
		c-1.5,1.3-2.4,2.8-2.3,5c0.1,8.3,0,16.7,0.1,25c0,1.4-0.4,1.8-1.7,1.7c-2-0.1-4-0.1-6.1,0c-1.1,0-1.3-0.4-1.3-1.3
		c0-12.8,0-25.7,0-38.5c0-1.1,0.3-1.4,1.4-1.4c1.9,0.1,3.8,0.2,5.7,0c1.7-0.1,2.2,0.4,2,2C232.3,39.7,232.4,40.2,232.4,41.1z"/>
	<path class="st2" d="M321.3,74.5c-2.4,1.9-4.6,3.3-7.2,4.1c-6.6,2.2-15.8-2.2-16.5-11.8c-0.6-9.4-0.1-18.9-0.3-28.3
		c0-1.1,0.4-1.3,1.4-1.2c1.9,0.1,3.8,0.1,5.7,0c1.4-0.1,1.7,0.3,1.7,1.7c-0.1,7.6,0,15.3-0.1,22.9c0,1.5,0.2,3,0.5,4.4
		c0.9,4.2,4.1,5.9,8.4,4.8c2.2-0.6,4-1.8,5.4-3.6c0.7-0.8,0.9-1.8,0.9-2.9c0-8.5,0-17.1-0.1-25.6c0-1.5,0.4-1.9,1.8-1.8
		c1.8,0.1,3.5,0.1,5.3,0c1.4-0.1,1.7,0.3,1.7,1.7c-0.1,9.5,0,19,0,28.6c0,3.1-0.1,6.3,0,9.4c0,1.3-0.4,1.6-1.6,1.6
		c-1.8-0.1-3.7-0.1-5.5,0c-1.4,0.1-1.9-0.3-1.7-1.7C321.4,76.1,321.3,75.4,321.3,74.5z"/>
	<path class="st2" d="M288.4,49.4c-2.7-1.6-5.2-3.1-7.9-4.1c-1.4-0.5-2.8-0.7-4.2-0.6c-1.5,0-2.8,0.5-3.3,1.9
		c-0.6,1.6,0.3,2.8,1.5,3.7c2.3,1.6,4.8,3.1,7.2,4.6c2.7,1.8,5.2,3.7,6.8,6.5c4.3,7.3,0.1,15.9-8.3,17.4c-5.7,1-10.9-0.5-15.9-3.1
		c-0.6-0.3-0.7-0.7-0.7-1.2c0-3,0-6,0-9.2c2.9,1.9,5.6,3.8,8.7,4.9c2.4,0.8,4.8,1.3,7.1-0.1c2.2-1.3,2.2-3.8,0.2-5.4
		c-3.1-2.5-6.7-4.2-9.8-6.6c-3-2.3-5.3-5-5.9-9c-0.8-5.3,2.3-10.3,7.5-11.9c5.8-1.7,11.1-0.3,16.2,2.4c0.5,0.3,0.8,0.5,0.8,1.2
		C288.4,43.5,288.4,46.3,288.4,49.4z"/>
	<path class="st2" d="M170.3,67.6c0,2.9,0,5.7,0,8.4c0,0.5-0.2,0.8-0.7,1c-6.4,2.4-12.9,3.3-19.3,0.5c-6.5-2.8-10-8.1-11-14.9
		c-0.7-4.8-0.5-9.7,1.4-14.3c3.5-8.6,11.2-12.7,20.2-11.6c2.7,0.3,5.1,1.4,7.6,2.3c0.6,0.2,1.1,0.5,1.1,1.4c-0.1,2.6,0,5.2,0,7.8
		c0,1.2-0.4,1.1-1.2,0.6c-1.8-1.2-3.8-2.1-5.9-2.9c-7.5-2.5-13.6,2.4-14.5,9.7c-0.2,2-0.2,4.1,0.2,6.2c1.7,7.3,8.3,9.6,14.2,8.6
		C165.1,69.8,167.5,68.6,170.3,67.6z"/>
	<path class="st2" d="M381.3,67.4c0,2.9,0,5.4,0,8c0,0.5,0,0.9-0.6,1.3c-4.9,2.8-12.3,3.9-17.4-0.1c-3.3-2.5-4.3-6-4.3-9.9
		c-0.1-6.3-0.2-12.5-0.1-18.8c0-2-0.6-2.5-2.4-2.2c-0.8,0.1-1.7,0.1-2.5,0c-0.6-0.1-1.4,0.5-1.6-0.5c-0.2-0.8,0.1-1.3,0.7-1.9
		c2.4-2.4,4.7-4.9,7-7.4c1.7-1.7,3.3-3.5,5-5.2c0.5-0.6,1-1.6,2-1.2c1,0.4,0.5,1.4,0.6,2.1c0.1,1.5,0.1,3,0,4.5
		c0,0.9,0.3,1.2,1.2,1.2c3.1-0.1,6.3,0,9.4,0c1,0,1.4,0.2,1.3,1.3c-0.1,2-0.1,3.9,0,5.9c0,1.1-0.3,1.3-1.3,1.3c-3.1-0.1-6.1,0-9.2,0
		c-1.1,0-1.4,0.3-1.4,1.4c0.1,6,0,12,0.1,18c0.1,4.6,2.3,6.3,6.8,5.5C376.8,70,378.9,68.8,381.3,67.4z"/>
	<path class="st2" d="M348.1,47.6c0,9.7,0,19.4,0,29.1c0,1.2-0.2,1.8-1.6,1.7c-1.9-0.1-3.8-0.1-5.7,0c-1.3,0.1-1.6-0.4-1.6-1.6
		c0-13.5,0-27,0-40.5c0-6,0-12,0-18c0-1.4,0.2-2,1.8-1.8c1.8,0.2,3.7,0.1,5.5,0c1.3-0.1,1.6,0.4,1.6,1.6
		C348.1,27.9,348.1,37.8,348.1,47.6z"/>
	<path class="st2" d="M134.8,49.5c-1.7-1.4-3.1-2.8-5.1-3.7c-3.3-1.5-6.7,0.4-8.5,3.7c-1.3,2.3-2,4.7-2,7.4c0,6.5-0.1,13,0.1,19.6
		c0,1.7-0.5,2.1-2.1,2c-1.8-0.1-3.7-0.1-5.5,0c-1,0-1.3-0.2-1.3-1.3c0-12.9,0-25.8,0-38.7c0-0.9,0.2-1.3,1.2-1.2
		c2.1,0.1,4.3,0.1,6.5,0c0.9,0,1.2,0.2,1.2,1.2c-0.1,1.9,0,3.7,0,6c1.5-1.9,2.6-3.6,4-4.9c3.8-3.6,7.9-4,12.3-1.1
		c3.9,2.6,3.9,2.6,1.7,6.7C136.5,46.6,135.6,48,134.8,49.5z"/>
	<path class="st3" d="M207.7,58.2c0,7.1-4.9,12.2-11.5,12.2c-7.1,0-12-5.1-12-12.4c0-7.4,4.9-12.6,11.7-12.5
		C202.8,45.6,207.8,50.9,207.7,58.2z"/>
	<path class="st3" d="M70.7,58c-0.4-7,4.9-12.6,11.7-12.5c6.8,0.1,11.9,5.4,11.8,12.5c0,7.4-5,12.5-12,12.4
		C75.2,70.4,70.2,64.8,70.7,58z"/>
</g>
</svg>
