<?xml version="1.0" encoding="utf-8"?>
<!-- Generator: Adobe Illustrator 26.0.1, SVG Export Plug-In . SVG Version: 6.00 Build 0)  -->
<svg version="1.1" id="Layer_1" xmlns="http://www.w3.org/2000/svg" xmlns:xlink="http://www.w3.org/1999/xlink" x="0px" y="0px"
	 viewBox="0 0 1461.3 604.2" style="enable-background:new 0 0 1461.3 604.2;" xml:space="preserve">
<style type="text/css">
	.st0{fill-rule:evenodd;clip-rule:evenodd;}
	.st1{fill-rule:evenodd;clip-rule:evenodd;fill:#7366AB;}
</style>
<g>
	<g>
		<path d="M14.7,535.2l28.2,45.3h0.2v-45.3H57v67.5H42.2l-28.1-45.2h-0.2v45.2H0v-67.5H14.7z"/>
		<path d="M103.7,535.2l25.2,67.5h-15.4l-5.1-15H83.2l-5.3,15H62.9l25.5-67.5H103.7z M104.5,576.6L96,551.9h-0.2L87,576.6H104.5z"/>
		<path d="M120.8,547.7v-12.5h55.3v12.5h-20.2v55H141v-55H120.8z"/>
		<path d="M198.7,535.2v67.5h-14.8v-67.5H198.7z"/>
		<path d="M211,555.2c1.5-4.3,3.7-8.1,6.5-11.3c2.8-3.2,6.3-5.7,10.4-7.6c4.1-1.8,8.8-2.7,13.9-2.7c5.2,0,9.9,0.9,14,2.7
			c4.1,1.8,7.6,4.3,10.4,7.6c2.8,3.2,5,7,6.5,11.3c1.5,4.3,2.3,9,2.3,14c0,4.9-0.8,9.5-2.3,13.8c-1.5,4.3-3.7,8-6.5,11.1
			c-2.8,3.2-6.3,5.6-10.4,7.4c-4.1,1.8-8.8,2.7-14,2.7c-5.2,0-9.8-0.9-13.9-2.7c-4.1-1.8-7.6-4.3-10.4-7.4c-2.8-3.2-5-6.9-6.5-11.1
			c-1.5-4.3-2.3-8.8-2.3-13.8C208.8,564.2,209.5,559.5,211,555.2z M224.6,577.5c0.7,2.7,1.7,5.1,3.2,7.2c1.4,2.1,3.3,3.9,5.7,5.2
			c2.3,1.3,5.2,1.9,8.5,1.9c3.3,0,6.2-0.6,8.5-1.9c2.3-1.3,4.2-3,5.7-5.2c1.4-2.1,2.5-4.5,3.2-7.2c0.7-2.7,1-5.4,1-8.3
			c0-3-0.3-5.8-1-8.6c-0.7-2.8-1.7-5.2-3.2-7.4c-1.5-2.2-3.3-3.9-5.7-5.2c-2.3-1.3-5.2-1.9-8.5-1.9c-3.3,0-6.2,0.6-8.5,1.9
			c-2.3,1.3-4.2,3-5.7,5.2c-1.5,2.2-2.5,4.6-3.2,7.4c-0.7,2.8-1,5.6-1,8.6C223.6,572.1,223.9,574.8,224.6,577.5z"/>
		<path d="M300,535.2l28.2,45.3h0.2v-45.3h13.9v67.5h-14.8l-28.1-45.2h-0.2v45.2h-13.9v-67.5H300z"/>
		<path d="M388.9,535.2l25.2,67.5h-15.4l-5.1-15h-25.2l-5.3,15h-14.9l25.5-67.5H388.9z M389.8,576.6l-8.5-24.8h-0.2l-8.8,24.8H389.8
			z"/>
		<path d="M434.9,535.2v55h32.9v12.5H420v-67.5H434.9z"/>
		<path d="M532.8,535.2c4.2,0,7.8,0.6,10.8,1.8c3,1.2,5.4,2.9,7.2,4.9c1.9,2,3.2,4.3,4.1,6.9c0.9,2.6,1.3,5.3,1.3,8
			c0,2.7-0.4,5.4-1.3,8c-0.9,2.6-2.2,4.9-4.1,6.9c-1.9,2-4.3,3.6-7.2,4.9c-3,1.2-6.6,1.8-10.8,1.8h-15.6v24.2h-14.8v-67.5H532.8z
			 M528.7,567c1.7,0,3.3-0.1,4.9-0.4c1.6-0.3,3-0.7,4.2-1.5c1.2-0.7,2.2-1.7,2.9-3.1c0.7-1.3,1.1-3.1,1.1-5.2c0-2.1-0.4-3.9-1.1-5.2
			c-0.7-1.3-1.7-2.3-2.9-3.1c-1.2-0.7-2.6-1.2-4.2-1.5c-1.6-0.3-3.2-0.4-4.9-0.4h-11.5V567H528.7z"/>
		<path d="M564.7,555.2c1.5-4.3,3.7-8.1,6.5-11.3c2.8-3.2,6.3-5.7,10.4-7.6c4.1-1.8,8.8-2.7,13.9-2.7c5.2,0,9.9,0.9,14,2.7
			c4.1,1.8,7.6,4.3,10.4,7.6c2.8,3.2,5,7,6.5,11.3c1.5,4.3,2.3,9,2.3,14c0,4.9-0.8,9.5-2.3,13.8c-1.5,4.3-3.7,8-6.5,11.1
			c-2.8,3.2-6.3,5.6-10.4,7.4c-4.1,1.8-8.8,2.7-14,2.7c-5.2,0-9.8-0.9-13.9-2.7c-4.1-1.8-7.6-4.3-10.4-7.4c-2.8-3.2-5-6.9-6.5-11.1
			c-1.5-4.3-2.3-8.8-2.3-13.8C562.4,564.2,563.2,559.5,564.7,555.2z M578.3,577.5c0.7,2.7,1.7,5.1,3.2,7.2c1.4,2.1,3.3,3.9,5.7,5.2
			c2.3,1.3,5.2,1.9,8.5,1.9c3.3,0,6.2-0.6,8.5-1.9c2.3-1.3,4.2-3,5.7-5.2c1.4-2.1,2.5-4.5,3.2-7.2c0.7-2.7,1-5.4,1-8.3
			c0-3-0.3-5.8-1-8.6c-0.7-2.8-1.7-5.2-3.2-7.4c-1.5-2.2-3.3-3.9-5.7-5.2c-2.3-1.3-5.2-1.9-8.5-1.9c-3.3,0-6.2,0.6-8.5,1.9
			c-2.3,1.3-4.2,3-5.7,5.2c-1.5,2.2-2.5,4.6-3.2,7.4c-0.7,2.8-1,5.6-1,8.6C577.3,572.1,577.6,574.8,578.3,577.5z"/>
		<path d="M675.3,535.2c3,0,5.7,0.5,8.2,1.5c2.4,1,4.5,2.3,6.2,4c1.7,1.7,3.1,3.7,4,5.9c0.9,2.2,1.4,4.6,1.4,7.2
			c0,4-0.8,7.4-2.5,10.3c-1.7,2.9-4.4,5.1-8.2,6.6v0.2c1.8,0.5,3.3,1.3,4.5,2.3c1.2,1,2.2,2.3,2.9,3.7c0.8,1.4,1.3,3,1.7,4.7
			c0.3,1.7,0.6,3.4,0.7,5.1c0.1,1.1,0.1,2.3,0.2,3.8c0.1,1.4,0.2,2.9,0.3,4.4c0.2,1.5,0.4,2.9,0.8,4.3c0.3,1.4,0.9,2.5,1.6,3.5
			h-14.8c-0.8-2.1-1.3-4.7-1.5-7.7c-0.2-3-0.5-5.8-0.9-8.5c-0.5-3.5-1.6-6.1-3.2-7.7c-1.6-1.6-4.3-2.5-8-2.5h-14.8v26.4h-14.8v-67.5
			H675.3z M670,565.8c3.4,0,6-0.8,7.7-2.3c1.7-1.5,2.6-4,2.6-7.4c0-3.3-0.9-5.7-2.6-7.1c-1.7-1.5-4.3-2.2-7.7-2.2h-16.3v19H670z"/>
		<path d="M700.1,547.7v-12.5h55.3v12.5h-20.2v55h-14.8v-55H700.1z"/>
		<path d="M800.8,586.1c0.8,1.6,1.9,2.9,3.3,3.8c1.4,1,2.9,1.7,4.8,2.2c1.8,0.5,3.7,0.7,5.7,0.7c1.3,0,2.7-0.1,4.3-0.3
			c1.5-0.2,2.9-0.6,4.3-1.3c1.3-0.6,2.4-1.5,3.3-2.6c0.9-1.1,1.3-2.5,1.3-4.2c0-1.8-0.6-3.3-1.7-4.4c-1.2-1.1-2.7-2.1-4.6-2.8
			c-1.9-0.8-4-1.4-6.4-2c-2.4-0.6-4.8-1.2-7.3-1.9c-2.5-0.6-5-1.4-7.4-2.3c-2.4-0.9-4.5-2.1-6.4-3.5c-1.9-1.4-3.4-3.3-4.6-5.4
			c-1.2-2.2-1.7-4.8-1.7-7.9c0-3.5,0.7-6.5,2.2-9c1.5-2.6,3.4-4.7,5.8-6.4c2.4-1.7,5.1-3,8.1-3.8c3-0.8,6-1.2,9.1-1.2
			c3.5,0,6.9,0.4,10.2,1.2c3.2,0.8,6.1,2.1,8.6,3.8c2.5,1.8,4.5,4,6,6.8c1.5,2.7,2.2,6.1,2.2,10h-14.4c-0.1-2-0.6-3.7-1.3-5
			c-0.7-1.3-1.7-2.4-2.9-3.1c-1.2-0.8-2.6-1.3-4.1-1.6c-1.5-0.3-3.2-0.5-5.1-0.5c-1.2,0-2.4,0.1-3.6,0.4c-1.2,0.3-2.3,0.7-3.3,1.3
			c-1,0.6-1.8,1.4-2.4,2.4c-0.6,0.9-0.9,2.1-0.9,3.6c0,1.3,0.3,2.4,0.8,3.2c0.5,0.8,1.5,1.6,3,2.3c1.5,0.7,3.5,1.4,6.1,2.1
			c2.6,0.7,6,1.6,10.3,2.6c1.3,0.3,3,0.7,5.2,1.4c2.2,0.7,4.5,1.7,6.7,3.2c2.2,1.5,4.1,3.4,5.7,5.8c1.6,2.4,2.4,5.5,2.4,9.3
			c0,3.1-0.6,6-1.8,8.6c-1.2,2.6-3,4.9-5.3,6.9c-2.4,1.9-5.3,3.4-8.8,4.5c-3.5,1.1-7.5,1.6-12.1,1.6c-3.7,0-7.3-0.5-10.8-1.4
			c-3.5-0.9-6.6-2.3-9.3-4.3c-2.7-2-4.8-4.4-6.4-7.5c-1.6-3-2.3-6.6-2.3-10.8h14.4C799.6,582.6,800,584.5,800.8,586.1z"/>
		<path d="M901.3,535.2v12.5h-35.6v14.5h32.7v11.5h-32.7v16.5H902v12.5h-51.2v-67.5H901.3z"/>
		<path d="M948.4,535.2c3,0,5.8,0.5,8.2,1.5c2.4,1,4.5,2.3,6.2,4c1.7,1.7,3.1,3.7,4,5.9c0.9,2.2,1.4,4.6,1.4,7.2
			c0,4-0.8,7.4-2.5,10.3c-1.7,2.9-4.4,5.1-8.2,6.6v0.2c1.8,0.5,3.3,1.3,4.5,2.3c1.2,1,2.2,2.3,2.9,3.7c0.8,1.4,1.3,3,1.7,4.7
			c0.3,1.7,0.6,3.4,0.7,5.1c0.1,1.1,0.1,2.3,0.2,3.8c0.1,1.4,0.2,2.9,0.3,4.4c0.2,1.5,0.4,2.9,0.8,4.3c0.3,1.4,0.9,2.5,1.6,3.5
			h-14.8c-0.8-2.1-1.3-4.7-1.5-7.7c-0.2-3-0.5-5.8-0.9-8.5c-0.5-3.5-1.6-6.1-3.2-7.7c-1.6-1.6-4.3-2.5-8-2.5h-14.8v26.4H912v-67.5
			H948.4z M943.1,565.8c3.4,0,6-0.8,7.7-2.3c1.7-1.5,2.6-4,2.6-7.4c0-3.3-0.8-5.7-2.6-7.1c-1.7-1.5-4.3-2.2-7.7-2.2h-16.3v19H943.1z
			"/>
		<path d="M993.2,602.7l-21.8-67.5h15.2l15,47.4h0.2l15.2-47.4h15.3l-22.4,67.5H993.2z"/>
		<path d="M1053,535.2v67.5h-14.8v-67.5H1053z"/>
		<path d="M1109.3,553.2c-0.9-1.4-2-2.7-3.3-3.7c-1.3-1.1-2.8-1.9-4.5-2.5c-1.7-0.6-3.4-0.9-5.2-0.9c-3.3,0-6.2,0.6-8.5,1.9
			c-2.3,1.3-4.2,3-5.7,5.2c-1.5,2.2-2.5,4.6-3.2,7.4c-0.7,2.8-1,5.6-1,8.6c0,2.8,0.3,5.6,1,8.3c0.7,2.7,1.7,5.1,3.2,7.2
			c1.4,2.1,3.3,3.9,5.7,5.2c2.3,1.3,5.2,1.9,8.5,1.9c4.5,0,8.1-1.4,10.6-4.2c2.6-2.8,4.1-6.4,4.7-11h14.4c-0.4,4.2-1.4,8-2.9,11.4
			c-1.6,3.4-3.7,6.3-6.2,8.7c-2.6,2.4-5.6,4.2-9.1,5.5c-3.5,1.3-7.3,1.9-11.4,1.9c-5.2,0-9.8-0.9-13.9-2.7
			c-4.1-1.8-7.6-4.3-10.4-7.4c-2.8-3.2-5-6.9-6.5-11.1c-1.5-4.3-2.3-8.8-2.3-13.8c0-5,0.8-9.7,2.3-14c1.5-4.3,3.7-8.1,6.5-11.3
			c2.8-3.2,6.3-5.7,10.4-7.6c4.1-1.8,8.8-2.7,13.9-2.7c3.7,0,7.2,0.5,10.5,1.6c3.3,1.1,6.3,2.6,8.9,4.7c2.6,2.1,4.8,4.6,6.5,7.6
			c1.7,3,2.8,6.5,3.2,10.4H1111C1110.7,556.2,1110.2,554.6,1109.3,553.2z"/>
		<path d="M1186.5,535.2v12.5h-35.6v14.5h32.7v11.5h-32.7v16.5h36.4v12.5H1136v-67.5H1186.5z"/>
		<path d="M1208.6,586.1c0.8,1.6,1.9,2.9,3.3,3.8c1.4,1,2.9,1.7,4.8,2.2c1.8,0.5,3.7,0.7,5.7,0.7c1.3,0,2.7-0.1,4.3-0.3
			c1.5-0.2,2.9-0.6,4.3-1.3c1.3-0.6,2.4-1.5,3.3-2.6c0.9-1.1,1.3-2.5,1.3-4.2c0-1.8-0.6-3.3-1.7-4.4c-1.2-1.1-2.7-2.1-4.6-2.8
			c-1.9-0.8-4-1.4-6.4-2c-2.4-0.6-4.8-1.2-7.3-1.9c-2.5-0.6-5-1.4-7.4-2.3c-2.4-0.9-4.5-2.1-6.4-3.5c-1.9-1.4-3.4-3.3-4.6-5.4
			c-1.2-2.2-1.8-4.8-1.8-7.9c0-3.5,0.7-6.5,2.2-9c1.5-2.6,3.4-4.7,5.8-6.4c2.4-1.7,5.1-3,8.1-3.8c3-0.8,6-1.2,9.1-1.2
			c3.5,0,6.9,0.4,10.2,1.2c3.2,0.8,6.1,2.1,8.6,3.8c2.5,1.8,4.5,4,6,6.8c1.5,2.7,2.2,6.1,2.2,10h-14.4c-0.1-2-0.6-3.7-1.3-5
			c-0.7-1.3-1.7-2.4-2.9-3.1c-1.2-0.8-2.6-1.3-4.1-1.6c-1.5-0.3-3.2-0.5-5.1-0.5c-1.2,0-2.4,0.1-3.6,0.4c-1.2,0.3-2.3,0.7-3.3,1.3
			c-1,0.6-1.8,1.4-2.4,2.4c-0.6,0.9-0.9,2.1-0.9,3.6c0,1.3,0.2,2.4,0.8,3.2c0.5,0.8,1.5,1.6,3,2.3c1.5,0.7,3.5,1.4,6.1,2.1
			c2.6,0.7,6,1.6,10.3,2.6c1.3,0.3,3,0.7,5.2,1.4c2.2,0.7,4.5,1.7,6.7,3.2c2.2,1.5,4.1,3.4,5.7,5.8c1.6,2.4,2.4,5.5,2.4,9.3
			c0,3.1-0.6,6-1.8,8.6c-1.2,2.6-3,4.9-5.3,6.9c-2.4,1.9-5.3,3.4-8.8,4.5c-3.5,1.1-7.5,1.6-12.1,1.6c-3.7,0-7.3-0.5-10.8-1.4
			c-3.5-0.9-6.6-2.3-9.3-4.3c-2.7-2-4.8-4.4-6.4-7.5c-1.6-3-2.3-6.6-2.3-10.8h14.4C1207.4,582.6,1207.8,584.5,1208.6,586.1z"/>
		<path d="M1294.7,535.2v59.9h35.7v7.6h-44.7v-67.5H1294.7z"/>
		<path d="M1322.4,542.8v-7.6h54v7.6h-22.5v59.9h-9v-59.9H1322.4z"/>
		<path d="M1407,535.2c10.4,0,18.4,2.6,24,7.9c5.6,5.3,8.4,13.4,8.4,24.2c0,5.7-0.6,10.7-1.9,15.1c-1.3,4.4-3.2,8.1-5.9,11.1
			c-2.6,3-6,5.3-10.1,6.9c-4.1,1.6-8.9,2.4-14.6,2.4h-23.2v-67.5H1407z M1407.8,595.1c1,0,2.3-0.1,3.8-0.2c1.5-0.2,3.1-0.5,4.8-1.1
			c1.7-0.6,3.4-1.5,5.1-2.6c1.7-1.1,3.2-2.7,4.5-4.6c1.3-2,2.4-4.4,3.3-7.3c0.9-2.9,1.3-6.5,1.3-10.6c0-4-0.4-7.6-1.2-10.8
			c-0.8-3.2-2.1-5.9-3.9-8.1c-1.8-2.2-4.1-3.9-6.9-5.1c-2.8-1.2-6.3-1.8-10.5-1.8h-15.1v52.4H1407.8z"/>
		<path d="M1461.3,592.2v10.5h-10.5v-10.5H1461.3z"/>
	</g>
	<g>
		<path class="st0" d="M812.3,0H882c0,0,0,36.1,24.9,54.7c0,0,52.2,41,49.7,99.5c0,0-1.2,54.7-49.7,54.7H802.4v-59.7H882v-19.9
			C882,129.3,807.4,80.8,812.3,0z"/>
		<rect x="712.9" class="st0" width="64.7" height="402.9"/>
		<path class="st0" d="M518.9,0v213.9h69.6V59.7h39.8v154.2h44.8c0,0-37.3,29.8-69.6,29.8h-24.9c0,0-33.6-3.7-59.7-14.9v54.7
			c0,0,13.7,27.4,74.6,34.8c0,0,49.7-2.5,89.5-39.8h9.9V24.9c0,0-7.5-24.9-29.8-24.9H518.9z"/>
		<path class="st1" d="M693,323.3H683c0,0-41,33.6-69.6,34.8c0,0-44.8,9.9-89.5-14.9v64.7c0,0,19.9,23.6,69.6,29.8
			c0,0,53.5,1.2,79.6-34.8c0,0,12.4-1.2,19.9,0V323.3z"/>
	</g>
</g>
</svg>
