<?xml version="1.0" encoding="utf-8"?>
<!-- Generator: Adobe Illustrator 26.0.1, SVG Export Plug-In . SVG Version: 6.00 Build 0)  -->
<svg version="1.1" id="Layer_1" xmlns="http://www.w3.org/2000/svg" xmlns:xlink="http://www.w3.org/1999/xlink" x="0px" y="0px"
	 viewBox="0 0 500 149.6" style="enable-background:new 0 0 500 149.6;" xml:space="preserve">
<style type="text/css">
	.st0{fill:#94CC00;}
</style>
<g>
	<g>
		<path class="st0" d="M327.3,33.6l-1.7-1.2l-2.3-1.7l-2.4-1.6l-2.4-1.6l-2.4-1.6l-2.4-1.6l-2.4-1.6l-2.4-1.7l-2.3-1.7l-2.2-1.8
			l-2.1-1.8l-2-1.9l-1.9-2l-1.8-2.1l-1.6-2.2l-1.5-2.3l-2.2-4.3c0.9,24.7,14.8,34.5,28.4,45.2l0,0c1.4,1.1,2.8,2.2,4.2,3.3
			c0.1,0.1,0.2,0.1,0.2,0.2c1.4,1.2,2.8,2.4,4.2,3.6l0,0c0.6,0.5,1.1,1,1.6,1.5c1.1,1.1,2.2,2.2,3.2,3.3c0.1,0.1,0.3,0.3,0.4,0.4
			c1,1.2,2,2.4,3,3.6c2.2,2.9,3.8,7.6,3.8,7.6l-0.3-0.2c-1.4-2.6-3-4.9-4.7-7.1l0,0c-0.1-0.1-0.2-0.2-0.3-0.3
			c-0.3-0.4-0.6-0.7-0.9-1c-0.3-0.3-0.6-0.7-0.9-1c-0.3-0.3-0.6-0.6-0.8-0.9c-0.3-0.4-0.7-0.7-1-1.1c-0.1-0.1-0.3-0.3-0.4-0.4
			c-1.6-1.6-3.3-3-5-4.4c-0.1-0.1-0.2-0.2-0.3-0.3c-0.6-0.5-1.2-0.9-1.8-1.4c-0.1,0-0.1-0.1-0.2-0.1c-1.6-1.2-3.3-2.5-5-3.7l0,0
			c-13.4-9.7-26.9-19.2-27.9-45.1l0.6-1.9l-1.1,3l-0.4,1.1L289.5,6l-0.3,1.2l-0.3,1.3l-0.3,1.3c-0.5,2.7,0,0-0.5,2.7l-0.2,1.4
			l-0.2,1.5l-0.2,1.5l-0.1,1.5l-0.1,1.5l-0.1,1.5l0,1.6l0,1.6l0,1.6l0.1,1.6l0.1,1.6l0.2,1.6l0.2,1.6l0.3,1.6l0.3,1.5l0.4,1.5
			l0.4,1.5l0.5,1.5l0.5,1.5l0.6,1.4l0.6,1.4l0.7,1.3l0.8,1.3l1,1.5l3.4,0.9l3.1,0.8l3.1,0.9l3,0.8l1.5,0.4l1.5,0.4l1.5,0.5l1.5,0.5
			l1.5,0.5l1.5,0.5l1.5,0.6l1.5,0.6l1.5,0.6l1.5,0.7l1.5,0.7l1.5,0.7l1.5,0.8l0.1,0.1l-1.1-0.6l-1.6-0.7l-1.6-0.7l-1.7-0.6l-1.7-0.5
			l-1.7-0.5l-1.8-0.4l-1.8-0.3l-1.8-0.2l-1.9-0.1l-1.9,0l-1.9,0.2l-2,0.3l-2,0.4l-2,0.5l-2.1,0.7l-2.1,0.8l-2.2,1l-3.6,1.9l2.4,2.8
			l1.4,1.5l1.5,1.4l1.5,1.3l1.5,1.2l1.6,1.1l1.6,1l1.6,0.9l1.4,0.7c3.4,1.8,8,2.9,8,2.9l0.8,0.2l1.7,0.4l1.7,0.3l1.7,0.2l1.7,0.2
			l1.7,0.1l1.8,0.1l1.7,0l1.7,0l1.7-0.1l1.7-0.1l1.7-0.2l1.7-0.2l1.7-0.2l1.6-0.2l1.6-0.3l1.6-0.3l1.4-0.5c-1.4,0.5,1.9-0.8,1.9-0.8
			l1.1-5.8l0.3-3.4l0-3.2l-0.2-3.1l-0.6-2.9l-0.8-2.7l-1-2.6l-1.2-2.4l-1.4-2.3l-1.6-2.2l-1.7-2.1l-1.7-1.8
			C331.5,36.9,327.3,33.6,327.3,33.6z"/>
		<g>
			<path d="M167.9,42.7c0,12-4.3,22.2-13,30.7c-8.6,8.4-19,12.6-31.1,12.6C112,86,101.7,81.9,93,73.6c-8.8-8.3-13.1-18.4-13.1-30.3
				c0-12,4.3-22.2,12.9-30.7S111.6,0,123.8,0c11.9,0,22.2,4.2,30.9,12.5C163.5,20.8,167.9,30.9,167.9,42.7z M88.2,43.3
				c0,9.5,3.6,17.7,10.7,24.5c7.1,6.8,15.5,10.2,25.1,10.2c9.8,0,18.2-3.4,25.2-10.3c7-6.9,10.4-15.2,10.4-25
				c0-9.6-3.5-17.8-10.6-24.6c-7.1-6.8-15.4-10.1-25-10.1c-9.9,0-18.4,3.4-25.3,10.3C91.6,25.2,88.2,33.5,88.2,43.3z"/>
			<path d="M172.8,1.2h19.8c5.7,0,10.3,0.2,13.6,0.6c3.4,0.4,6.9,1.7,10.7,3.8c3.8,2.1,6.7,5.2,9,9.2c2.2,4,3.3,8.5,3.3,13.5
				c0,6.8-2.4,12.6-7.2,17.6c-4.8,5-10.6,7.4-17.4,7.4l23.4,31.1h-10.4l-28.3-37.8h2.5h2.4c4.3,0,7.6-0.2,9.8-0.6
				c2.3-0.4,4.7-1.1,7.3-2.3c2.6-1.2,4.8-3.2,6.7-6.1c1.9-2.9,2.8-6.3,2.8-10.1c0-2.9-0.7-5.7-2.1-8.4c-1.4-2.7-3.3-4.8-5.7-6.5
				c-2.4-1.7-5.1-2.8-8.2-3.2c-3-0.4-6.6-0.7-10.7-0.7h-13.2v75.8h-8.3V1.2z"/>
			<path d="M234.6,77.1l40.9-68.3h-39.7V1.2h49v7.6L244,77h42v7.6h-51.5V77.1z"/>
			<path d="M399.4,41.9L372.8,1.2h9.7l22.1,33.4l22-33.4h9.7l-26.9,40.7l28.6,42.6h-9.8l-23.6-35.6l-23.7,35.6h-9.8L399.4,41.9z"/>
			<path d="M369.7,84.5h-9.7l-31-72.9l-7.6,17.9l-0.6-0.4l-2.4-1.6l-2.4-1.6l-1.5-1l10.4-23.6h8.4L369.7,84.5z M302.7,71.9l-1.6-0.9
				l-1.6-1l-1.6-1.1l-1.5-1.2l-0.4-0.4l-7.6,17.2h9.7l5.1-12.4L302.7,71.9z"/>
		</g>
	</g>
	<g>
		<path d="M12.5,141.4l-0.3-2.5h-0.1c-1.1,1.5-3.2,2.9-6,2.9c-4,0-6-2.8-6-5.7c0-4.8,4.2-7.4,11.9-7.3v-0.4c0-1.6-0.4-4.6-4.5-4.6
			c-1.8,0-3.7,0.6-5.1,1.5L1.4,123c1.6-1.1,4-1.8,6.5-1.8c6,0,7.5,4.1,7.5,8.1v7.4c0,1.7,0.1,3.4,0.3,4.7H12.5z M11.9,131.4
			c-3.9-0.1-8.3,0.6-8.3,4.4c0,2.3,1.5,3.4,3.4,3.4c2.6,0,4.2-1.6,4.8-3.3c0.1-0.4,0.2-0.8,0.2-1.1V131.4z"/>
		<path d="M35.2,140.7c-0.9,0.4-2.7,1.1-5.1,1.1l-1.1,1.6c1.5,0.2,2.9,1.3,2.9,2.8c0,2.4-2,3.3-4.2,3.3c-1,0-2.1-0.3-2.8-0.7
			l0.6-1.8c0.7,0.4,1.5,0.6,2.2,0.6c0.9,0,1.8-0.3,1.8-1.3c0-1.1-1.3-1.5-3.2-1.7l1.7-3c-5.1-0.6-8.3-4.5-8.3-10
			c0-6.1,4.2-10.5,10.6-10.5c2.1,0,4,0.5,5,1l-0.8,2.8c-0.9-0.5-2.2-0.9-4.2-0.9c-4.5,0-7,3.3-7,7.5c0,4.6,2.9,7.4,6.8,7.4
			c2,0,3.4-0.5,4.4-1L35.2,140.7z"/>
		<path d="M39.4,141.4v-19.7H43v19.7H39.4z"/>
		<path d="M52.5,130.8L52.5,130.8c0.6-0.7,1.3-1.5,1.8-2.2l5.8-6.8h4.3l-7.6,8.1l8.7,11.6h-4.4l-6.8-9.4l-1.8,2v7.4H49v-28.9h3.5
			V130.8z"/>
		<path d="M76.7,127.9c0-2.3,0-4.3-0.2-6.1h3.1l0.1,3.9H80c0.9-2.6,3.1-4.3,5.5-4.3c0.4,0,0.7,0,1,0.1v3.4c-0.4-0.1-0.7-0.1-1.2-0.1
			c-2.5,0-4.3,1.9-4.8,4.6c-0.1,0.5-0.2,1.1-0.2,1.7v10.5h-3.5V127.9z"/>
		<path d="M91.6,132.2c0.1,4.8,3.2,6.8,6.8,6.8c2.6,0,4.1-0.4,5.5-1l0.6,2.6c-1.3,0.6-3.4,1.2-6.6,1.2c-6.1,0-9.7-4-9.7-9.9
			s3.5-10.6,9.2-10.6c6.4,0,8.1,5.7,8.1,9.3c0,0.7-0.1,1.3-0.1,1.7H91.6z M102.1,129.7c0-2.3-0.9-5.8-5-5.8c-3.6,0-5.2,3.3-5.5,5.8
			H102.1z"/>
		<path d="M110.1,127.1c0-2,0-3.7-0.2-5.3h3.2l0.2,3.3h0.1c1-1.9,3.3-3.7,6.5-3.7c2.7,0,7,1.6,7,8.4v11.8h-3.6v-11.4
			c0-3.2-1.2-5.8-4.6-5.8c-2.4,0-4.2,1.7-4.8,3.7c-0.2,0.4-0.2,1.1-0.2,1.7v11.9h-3.6V127.1z"/>
		<path d="M136.2,130.8L136.2,130.8c0.6-0.7,1.3-1.5,1.8-2.2l5.8-6.8h4.3l-7.6,8.1l8.7,11.6h-4.4L138,132l-1.8,2v7.4h-3.5v-28.9h3.5
			V130.8z"/>
		<path d="M158.2,139.4l8.9-11.6c0.9-1.1,1.7-2,2.6-3.1v-0.1H159v-2.9h15l0,2.2l-8.8,11.4c-0.8,1.1-1.6,2.1-2.5,3.1v0.1h11.5v2.9
			h-16V139.4z"/>
		<path d="M179.6,132.2c0.1,4.8,3.2,6.8,6.8,6.8c2.6,0,4.1-0.4,5.5-1l0.6,2.6c-1.3,0.6-3.4,1.2-6.6,1.2c-6.1,0-9.7-4-9.7-9.9
			s3.5-10.6,9.2-10.6c6.4,0,8.1,5.7,8.1,9.3c0,0.7-0.1,1.3-0.1,1.7H179.6z M190.1,129.7c0-2.3-0.9-5.8-5-5.8c-3.6,0-5.2,3.3-5.5,5.8
			H190.1z"/>
		<path d="M198,127.1c0-2,0-3.7-0.2-5.3h3.1l0.2,3.2h0.1c1.1-1.9,2.9-3.6,6.2-3.6c2.7,0,4.7,1.6,5.6,3.9h0.1c0.6-1.1,1.4-2,2.2-2.6
			c1.2-0.9,2.5-1.4,4.4-1.4c2.6,0,6.5,1.7,6.5,8.6v11.6h-3.5v-11.2c0-3.8-1.4-6.1-4.3-6.1c-2,0-3.6,1.5-4.2,3.3
			c-0.2,0.5-0.3,1.1-0.3,1.8v12.2h-3.5v-11.8c0-3.1-1.4-5.4-4.1-5.4c-2.2,0-3.9,1.8-4.4,3.6c-0.2,0.5-0.3,1.1-0.3,1.8v11.9H198
			V127.1z"/>
		<path d="M236,116.2c0,1.2-0.9,2.2-2.3,2.2c-1.3,0-2.2-1-2.2-2.2c0-1.3,0.9-2.2,2.2-2.2C235.1,113.9,236,114.9,236,116.2z
			 M232,141.4v-19.7h3.6v19.7H232z"/>
		<path d="M241.5,127.1c0-2,0-3.7-0.2-5.3h3.2l0.2,3.3h0.1c1-1.9,3.3-3.7,6.5-3.7c2.7,0,7,1.6,7,8.4v11.8h-3.6v-11.4
			c0-3.2-1.2-5.8-4.6-5.8c-2.4,0-4.2,1.7-4.8,3.7c-0.2,0.4-0.2,1.1-0.2,1.7v11.9h-3.6V127.1z"/>
		<path d="M264.1,112.5h3.6v28.9h-3.6V112.5z"/>
		<path d="M275.7,132.2c0.1,4.8,3.2,6.8,6.8,6.8c2.6,0,4.1-0.4,5.5-1l0.6,2.6c-1.3,0.6-3.4,1.2-6.6,1.2c-6.1,0-9.7-4-9.7-9.9
			s3.5-10.6,9.2-10.6c6.4,0,8.1,5.7,8.1,9.3c0,0.7-0.1,1.3-0.1,1.7H275.7z M286.2,129.7c0-2.3-0.9-5.8-5-5.8c-3.6,0-5.2,3.3-5.5,5.8
			H286.2z"/>
		<path d="M294.2,127.9c0-2.3,0-4.3-0.2-6.1h3.1l0.1,3.9h0.2c0.9-2.6,3.1-4.3,5.5-4.3c0.4,0,0.7,0,1,0.1v3.4
			c-0.4-0.1-0.7-0.1-1.2-0.1c-2.5,0-4.3,1.9-4.8,4.6c-0.1,0.5-0.2,1.1-0.2,1.7v10.5h-3.5V127.9z"/>
		<path d="M324.1,112.5v23.8c0,1.8,0,3.7,0.2,5.1H321l-0.2-3.4h-0.1c-1.1,2.2-3.5,3.9-6.7,3.9c-4.8,0-8.4-4-8.4-10
			c0-6.6,4-10.6,8.8-10.6c3,0,5.1,1.4,5.9,3h0.1v-11.8H324.1z M320.5,129.8c0-0.4,0-1.1-0.2-1.5c-0.5-2.3-2.5-4.2-5.2-4.2
			c-3.7,0-5.9,3.3-5.9,7.6c0,4,2,7.3,5.8,7.3c2.4,0,4.6-1.6,5.3-4.3c0.1-0.5,0.2-1,0.2-1.5V129.8z"/>
		<path d="M332.1,132.2c0.1,4.8,3.2,6.8,6.8,6.8c2.6,0,4.1-0.4,5.5-1l0.6,2.6c-1.3,0.6-3.4,1.2-6.6,1.2c-6.1,0-9.7-4-9.7-9.9
			s3.5-10.6,9.2-10.6c6.4,0,8.1,5.7,8.1,9.3c0,0.7-0.1,1.3-0.1,1.7H332.1z M342.6,129.7c0-2.3-0.9-5.8-5-5.8c-3.6,0-5.2,3.3-5.5,5.8
			H342.6z"/>
		<path d="M362.7,130.8L362.7,130.8c0.6-0.7,1.3-1.5,1.8-2.2l5.8-6.8h4.3l-7.6,8.1l8.7,11.6h-4.4l-6.8-9.4l-1.8,2v7.4h-3.5v-28.9
			h3.5V130.8z"/>
		<path d="M394.9,136.1c0,2,0,3.8,0.2,5.4h-3.2l-0.2-3.2h-0.1c-0.9,1.6-3,3.7-6.5,3.7c-3.1,0-6.8-1.7-6.8-8.6v-11.5h3.6v10.9
			c0,3.7,1.1,6.3,4.4,6.3c2.4,0,4.1-1.7,4.7-3.3c0.2-0.5,0.3-1.2,0.3-1.8v-12.1h3.6V136.1z"/>
		<path d="M400.8,112.5h3.6v28.9h-3.6V112.5z"/>
		<path d="M410.5,112.5h3.6v28.9h-3.6V112.5z"/>
		<path d="M431,141.4l-0.3-2.5h-0.1c-1.1,1.5-3.2,2.9-6,2.9c-4,0-6-2.8-6-5.7c0-4.8,4.2-7.4,11.9-7.3v-0.4c0-1.6-0.4-4.6-4.5-4.6
			c-1.8,0-3.7,0.6-5.1,1.5l-0.8-2.4c1.6-1.1,4-1.8,6.5-1.8c6,0,7.5,4.1,7.5,8.1v7.4c0,1.7,0.1,3.4,0.3,4.7H431z M430.5,131.4
			c-3.9-0.1-8.3,0.6-8.3,4.4c0,2.3,1.5,3.4,3.4,3.4c2.6,0,4.2-1.6,4.8-3.3c0.1-0.4,0.2-0.8,0.2-1.1V131.4z"/>
		<path d="M439.7,127.1c0-2,0-3.7-0.2-5.3h3.2l0.2,3.3h0.1c1-1.9,3.3-3.7,6.5-3.7c2.7,0,7,1.6,7,8.4v11.8h-3.6v-11.4
			c0-3.2-1.2-5.8-4.6-5.8c-2.4,0-4.2,1.7-4.8,3.7c-0.2,0.4-0.2,1.1-0.2,1.7v11.9h-3.6V127.1z"/>
		<path d="M462.3,141.4v-19.7h3.6v19.7H462.3z"/>
		<path d="M471.9,127.1c0-2,0-3.7-0.2-5.3h3.1l0.2,3.2h0.1c1.1-1.9,2.9-3.6,6.2-3.6c2.7,0,4.7,1.6,5.6,3.9h0.1
			c0.6-1.1,1.4-2,2.2-2.6c1.2-0.9,2.5-1.4,4.4-1.4c2.6,0,6.5,1.7,6.5,8.6v11.6h-3.5v-11.2c0-3.8-1.4-6.1-4.3-6.1
			c-2,0-3.6,1.5-4.2,3.3c-0.2,0.5-0.3,1.1-0.3,1.8v12.2h-3.5v-11.8c0-3.1-1.4-5.4-4.1-5.4c-2.2,0-3.9,1.8-4.4,3.6
			c-0.2,0.5-0.3,1.1-0.3,1.8v11.9h-3.5V127.1z"/>
	</g>
</g>
</svg>
