<?xml version="1.0" encoding="utf-8"?>
<!-- Generator: Adobe Illustrator 26.0.1, SVG Export Plug-In . SVG Version: 6.00 Build 0)  -->
<svg version="1.1" id="Layer_1" xmlns="http://www.w3.org/2000/svg" xmlns:xlink="http://www.w3.org/1999/xlink" x="0px" y="0px"
	 viewBox="0 0 500 498" style="enable-background:new 0 0 500 498;" xml:space="preserve">
<style type="text/css">
	.st0{fill-rule:evenodd;clip-rule:evenodd;fill:#0C7A4C;}
	.st1{fill-rule:evenodd;clip-rule:evenodd;fill:#AEC4B2;}
	.st2{fill-rule:evenodd;clip-rule:evenodd;fill:#84C04C;}
</style>
<g>
	<g>
		<path class="st0" d="M41.5,345.2v2l-0.9,2.2l-1.5,1.3l-1.8,1.1l-2.2,0.4l-1.8-0.4l-1.5-1.1l-0.7-1.3v-2.2l0.9-2l1.3-1.5l2-1.1
			l2-0.4l2,0.4l1.5,1.1L41.5,345.2z M39.5,357.8l1.8,1.3l0.9,1.8v2.2l-4.9,22.5H45l-2.2,9.5H30.2l-2-0.4l-1.1-1.1l-0.7-1.8v-2
			l5.3-23H23l-3.3,0.7l-3.1,1.8l-2.4,2.6l-1.3,3.3l-2.4,9.9l4.2,0.7h7.9l-1.3,9.5l-4.4,0.2l-7.5-0.4l-6.6-1.3L0.4,392L0,389.2
			l3.1-13.9c0.4-2.4,1.5-4.7,3.1-7.1l5.1-5.5l6.6-3.8l7.5-1.3h11.9L39.5,357.8z M29.4,347.2l-0.9,2.2l-1.3,1.3l-2,1.1l-2.2,0.4
			l-2-0.4l-1.3-1.1l-0.7-1.3v-2.2l0.9-2l1.3-1.5l2-1.1l2-0.4l2,0.4l1.5,1.1l0.7,1.5V347.2z"/>
	</g>
	<g>
		<polygon class="st0" points="41.7,395.1 43.9,385.6 64.5,385.6 62.3,395.1 		"/>
	</g>
	<g>
		<path class="st0" d="M121.4,359.2l0.7,1.3v1.8l-5.3,23.4h6.6l-2.2,9.5h-60l2.2-9.5h7.7l6.2-27.6H87l-1.5,7.5l2.2-3.1l3.8-2.6
			l4.2-1.8l5.1-0.4h17.7l1.8,0.4L121.4,359.2z M106.8,343.7l0.7,1.5v2l-0.9,2.2l-1.3,1.3l-2,1.1l-2.2,0.4l-2-0.4l-1.3-1.1l-0.7-1.3
			v-2.2l0.9-2l1.3-1.5l2-1.1l2-0.4l2,0.4C105.9,342.7,106.4,343.1,106.8,343.7z M80.8,385.6h26.3l4.4-18.5L98,366.9l-4.9,0.7
			l-4.6,1.8l-3.8,3.3l-2.2,4.4L80.8,385.6z"/>
	</g>
	<g>
		<path class="st0" d="M150.8,358.9l-7.1,30.9l-0.9,2.4l-1.3,1.5l-2,0.9l-1.8,0.4h-17.7l2.4-9.5h12.6l6-26.7H150.8z M128.3,402
			l2-0.2l2,0.2l1.5,1.1l0.7,1.8v2l-0.9,1.8l-1.5,1.8l-1.8,1.1l-2.2,0.2l-1.8-0.2l-1.5-1.1l-0.7-1.8v-1.8l0.9-2l1.3-1.8L128.3,402z"
			/>
	</g>
	<g>
		<polygon class="st0" points="154.3,394.7 153.2,393.8 152.3,392.3 152.3,390.3 152.5,389.8 163.6,341.9 173.1,341.9 163.1,385.6 
			172,385.6 169.8,395.1 156.3,395.1 		"/>
	</g>
	<g>
		<polygon class="st0" points="168.7,395.1 170.9,385.6 191.4,385.6 189.2,395.1 		"/>
	</g>
	<g>
		<path class="st0" d="M232.7,342.2l1.8,0.4c0.6,0.1,1.1,0.5,1.6,1.1l0.7,1.5v2l-0.9,2.2l-1.3,1.3l-2,1.1l-2.2,0.4l-2-0.4l-1.3-1.1
			l-0.7-1.3v-2.2l0.9-2l1.5-1.5l1.8-1.1L232.7,342.2z M237.3,359.2l0.9,2l-0.2,2.4l-4.9,22.1h6.8l-2.2,9.5h-49.2l2.2-9.5h8.6
			l-0.4-4.6l0.4-4.6l2.9-7.1l4.6-6c1.9-1.8,4.1-3.2,6.6-4.2c2.2-1,4.9-1.5,8.2-1.5h11.9l2,0.4L237.3,359.2z M224.5,345.2v2l-0.9,2.2
			l-1.3,1.3l-2,1.1l-2.2,0.4l-2-0.4l-1.3-1.1l-0.7-1.3v-2.2l0.9-2l1.6-1.5l1.8-1.1l2.2-0.4l1.8,0.4c0.4,0.1,1,0.5,1.5,1.1
			L224.5,345.2z M219.4,366.9l-3.7,0.9l-3.1,2l-2.2,3.1l-1.3,3.5l-0.2,4.2l1.8,3.5l4.4,1.5h8.4l4.4-18.8H219.4z"/>
	</g>
	<g>
		<polygon class="st0" points="254.3,393.8 252.3,394.7 250.3,395.1 237.1,395.1 239.1,385.6 247.7,385.6 257.8,341.9 267.3,341.9 
			256.5,389.8 256.5,390.3 255.6,392.3 		"/>
	</g>
	<g>
		<polygon class="st0" points="275.3,394.9 265.6,394.9 277.9,341.9 287.4,341.9 		"/>
	</g>
	<g>
		<path class="st0" d="M335.1,345.2v2l-1.1,2.2l-1.3,1.3l-2,1.1l-2.2,0.4l-1.8-0.4l-1.3-1.1l-0.9-1.3v-2.2l0.9-2l1.5-1.5
			c0.7-0.6,1.4-1,2-1.1l2-0.4l2,0.4l1.3,1.1L335.1,345.2z M339.1,343.7l1.8-1.1l2.2-0.4l2,0.4l1.3,1.1l0.9,1.5l-0.2,2l-0.7,2.2
			l-1.6,1.3l-2,1.1l-2.2,0.4l-1.8-0.4l-1.3-1.1l-0.9-1.3v-2.2l1.1-2L339.1,343.7z M330.9,357.6H343l2.2,0.2l1.5,1.3l1.1,1.8v2.2
			l-5.1,22.5h7.7l-2.2,9.5h-12.6l-1.8-0.4l-1.3-1.1l-0.7-1.8v-2l5.3-23h-8.6l-3.3,0.7c-1.2,0.4-2.2,1-3.1,1.8l-2.4,2.6
			c-0.7,0.9-1.2,2-1.6,3.3l-2.2,9.9l8.4,0.9l3.8-0.2l-1.3,9.5l-4.6,0.2l-7.3-0.4l-6.6-1.3c-1.2-0.3-2-0.9-2.4-1.8
			c-0.6-0.9-0.7-1.8-0.4-2.9l3.3-13.9c0.4-2.4,1.4-4.7,2.9-7.1l5.3-5.5c2.1-1.6,4.3-2.9,6.6-3.8L330.9,357.6z"/>
	</g>
	<g>
		<polygon class="st0" points="347.5,395.1 349.4,385.6 370,385.6 367.8,395.1 		"/>
	</g>
	<g>
		<path class="st0" d="M401.1,358.9l-7.1,30.9l-0.2,0.4l-0.7,2l-1.3,1.5l-1.8,0.9l-2,0.4h-21l2.2-9.5h16.1l6-26.7H401.1z
			 M374.8,403.5l0.9,1.5l-0.2,2l-0.7,2l-1.5,1.5l-2,1.1l-2,0.4l-2-0.4l-1.6-1.1l-0.7-1.5v-2l1.1-2l1.3-1.5l1.8-1.1l2.2-0.4l2,0.4
			L374.8,403.5z M385.4,402.4l1.6,1.1l0.7,1.5v2l-0.9,2l-1.6,1.5l-1.8,1.1l-2.2,0.4l-2-0.4l-1.3-1.1l-0.7-1.5v-2l0.7-2l1.5-1.5
			l2-1.1l2.2-0.4L385.4,402.4z"/>
	</g>
	<g>
		<polygon class="st0" points="423.4,341.9 413.5,385.6 422.5,385.6 420.3,395.1 406.6,395.1 404.8,394.7 403.5,393.8 402.6,392.3 
			402.9,390.3 402.9,389.8 413.7,341.9 		"/>
	</g>
	<g>
		<path class="st0" d="M453,357.6h16.6l-2.2,9.3H451l-4,0.9l-2.9,2l-2.2,3.1l-1.3,3.5l-0.2,3.3l0.7,2.9l2.2,2.2l3.5,0.9h17.9
			l-2.4,9.5h-43.5l2.2-9.5h10.2c-0.4-1.3-0.7-2.9-0.7-4.6c0-1.8,0.2-3.3,0.7-4.6c0.4-2.5,1.3-4.9,2.6-7.1l4.9-6l6.4-4.2
			C447.4,358.1,450,357.6,453,357.6z"/>
	</g>
	<g>
		<path class="st0" d="M494.9,387.2l-2.9,7.5l-4.9,8.6l-6.2,6.8c-2.5,2.1-5.4,3.6-8.6,4.6l-10.6,1.8l2-9.5l7.1-1.1l5.3-3.1l4-4.4
			l3.1-6l2.2-6.4l4.9-22.5h9.7L494.9,387.2z"/>
	</g>
	<g>
		<path class="st0" d="M13,440.8l-0.7,15.5h4.9c3.5,0,6.2-0.6,7.9-1.8c1.6-1.3,2.6-3.3,2.9-6c0.1-2.5-0.7-4.4-2.4-5.7
			c-1.6-1.3-4.2-2-7.7-2H13z M33.3,436.2c3.1,2.6,4.6,6.5,4.4,11.5c-0.3,5.4-2.3,9.6-6,12.6c-2.1,1.6-4.9,2.9-8.4,3.8l12.8,18.5h-11
			l-13.2-20.1l-1.1,20.1H1.5l2.7-50.3h15C25.2,432.2,30,433.5,33.3,436.2z"/>
	</g>
	<g>
		<path class="st0" d="M53.4,455.2l-3.1,5.3h21.2c-0.3-1.8-1.1-3.5-2.4-5.3c-2.1-2.2-4.6-3.3-7.7-3.3
			C58.3,451.9,55.6,453,53.4,455.2z M47.2,449.4c4-4,8.8-6,14.6-6c5.6,0,10.2,2,13.9,6c3.8,4.1,5.6,8.9,5.3,14.3l-0.7,4H50.1
			l2.4,4.4c2.1,2.2,4.6,3.3,7.7,3.3l5.5-1.3l3.8-3.5h9.9c-1.5,4.1-4,7.3-7.5,9.5c-3.5,2.4-7.6,3.5-12.1,3.5
			c-5.7,0-10.5-1.9-14.1-5.7c-3.7-3.8-5.4-8.5-5.1-14.1C40.8,458.2,43,453.4,47.2,449.4z"/>
	</g>
	<g>
		<path class="st0" d="M114.1,432.2l19,50.3h-10.4l-4.4-13H98.7l-5.7,13H82.6l24.3-50.3H114.1z M115.2,460.9l-5.5-16.1l-7.1,16.1
			H115.2z"/>
	</g>
	<g>
		<polygon class="st0" points="146.6,444.8 154.3,469.3 164.9,444.8 175.5,444.8 150.3,495.4 140.6,495.4 148.6,479 136.2,444.8 		
			"/>
	</g>
	<g>
		<path class="st0" d="M208.6,478.4c-3.7,3.5-8.2,5.3-13.5,5.3c-5.3,0-9.7-1.9-13.2-5.7c-3.5-4-5.2-8.7-4.9-14.1
			c0.3-5.6,2.4-10.4,6.4-14.3c4-4,8.6-6,13.9-6c5.1,0,9.4,1.8,12.8,5.5l0.2-4.2h8.6l-2,37.7h-8.6L208.6,478.4z M198.5,451.6
			c-3.2,0-6,1.2-8.4,3.5c-2.2,2.4-3.4,5.2-3.5,8.6c-0.1,3.4,0.7,6.2,2.6,8.4c1.9,2.2,4.6,3.3,7.9,3.3c3.4,0,6.2-1.1,8.4-3.3
			c2.4-2.2,3.6-5,3.8-8.4c0.2-3.5-0.8-6.4-2.9-8.6C204.3,452.8,201.7,451.6,198.5,451.6z"/>
	</g>
	<g>
		<polygon class="st0" points="285,432.2 282.3,482.6 272.8,482.6 273.7,461.4 255.4,461.4 254.3,482.6 244.6,482.6 247.2,432.2 
			256.9,432.2 255.8,452.7 274.4,452.7 275.3,432.2 		"/>
	</g>
	<g>
		<path class="st0" d="M331.1,463.8c-0.3,5.4-2.6,10.2-6.8,14.1c-4,3.8-8.9,5.7-14.8,5.7c-5.9,0-10.6-1.9-14.1-5.7
			c-3.8-3.8-5.7-8.5-5.5-14.1c0.3-5.6,2.6-10.4,6.8-14.3c4.3-4,9.3-6,15-6c5.7,0,10.4,2,14.1,6C329.7,453.6,331.4,458.3,331.1,463.8
			z M299.3,463.8c-0.2,3.4,0.7,6.2,2.6,8.4c2.1,2.2,4.7,3.3,7.9,3.3c3.1,0,5.8-1.1,8.2-3.3c2.4-2.2,3.6-5,3.8-8.4
			c0.1-3.4-0.8-6.3-2.9-8.6c-1.9-2.2-4.6-3.3-7.9-3.3c-3.1,0-5.8,1.1-8.2,3.3C300.7,457.5,299.5,460.4,299.3,463.8z"/>
	</g>
	<g>
		<polygon class="st0" points="347.5,432.2 345,482.6 335.5,482.6 338.2,432.2 		"/>
	</g>
	<g>
		<path class="st0" d="M394.3,432.2l-2.4,50.3h-8.6l0.2-4c-3.8,3.4-8.2,5.1-13.2,5.1c-5.3,0-9.7-1.9-13.2-5.7
			c-3.7-4-5.4-8.7-5.1-14.1c0.4-5.7,2.6-10.5,6.6-14.3c4.1-4,8.9-6,14.3-6c4.6,0.3,8.3,1.8,11.3,4.4l1.1-15.7H394.3z M365.1,455.2
			c-2.4,2.4-3.6,5.2-3.8,8.6c-0.1,3.4,0.8,6.2,2.9,8.4c1.9,2.2,4.5,3.3,7.7,3.3c3.4,0,6.2-1.1,8.4-3.3c2.2-2.4,3.5-5.2,3.8-8.4
			c0.1-3.5-0.9-6.4-3.1-8.6c-2.1-2.4-4.6-3.5-7.7-3.5C369.9,451.6,367.2,452.8,365.1,455.2z"/>
	</g>
	<g>
		<path class="st0" d="M409.9,440.6h-9.5l0.4-8.4h9.3L409.9,440.6z M398.5,482.6l2-37.7h9.3l-2,37.7H398.5z"/>
	</g>
	<g>
		<path class="st0" d="M425.8,444.8l-0.2,3.3c3.4-3.1,7.1-4.6,11-4.6c4.6,0,8.2,1.5,10.8,4.6c2.5,3.1,3.6,7.1,3.3,12.1l-1.3,22.3
			h-9.1l0.9-20.3c0.3-3.4-0.2-6-1.5-7.7c-1-1.8-2.9-2.6-5.5-2.6c-2.8,0-4.9,0.9-6.2,2.6c-1.3,1.8-2.1,4.5-2.4,8.2l-1.1,19.9h-9.3
			l2-37.7H425.8z"/>
	</g>
	<g>
		<path class="st0" d="M477.7,451.6c-3.1,0-5.8,1.2-8.2,3.5c-2.2,2.4-3.5,5.2-3.8,8.6c0,3.4,1,6.2,2.9,8.4c1.9,2.2,4.6,3.3,7.9,3.3
			c3.2,0,6-1.1,8.2-3.3c2.4-2.2,3.5-5,3.5-8.4c0.3-3.5-0.6-6.4-2.6-8.6C483.6,452.8,480.9,451.6,477.7,451.6z M489.4,449l0.4-4.2
			h8.8l-1.5,30.7c-0.3,6.8-2.5,12.2-6.6,16.3c-4.1,4.1-9.3,6.2-15.7,6.2c-4.7,0-8.8-1.2-12.1-3.5c-3.2-2.2-5.4-5.2-6.6-9.1h11
			l3.1,3.1l5.3,1.1c3.5,0,6.6-1.2,9.3-3.5c2.1-2.4,3.2-5,3.5-7.9c-3.8,3.7-8.4,5.5-13.7,5.5c-5.3,0-9.7-1.9-13.2-5.7
			c-3.5-3.7-5.1-8.4-4.9-14.1c0.3-5.6,2.4-10.4,6.2-14.3c4.1-4,8.8-6,13.9-6C481.7,443.5,486,445.3,489.4,449z"/>
	</g>
	<g>
		<path class="st0" d="M196.5,214.1c-9.3-15.7-13.9-32.7-13.9-51l0.9-12.8c14,33,33.9,45.8,59.8,38.6c13.4-3.7,25.9-11.3,37.5-22.7
			C255,193,239.1,221,232.9,250.3C217.6,241.5,205.4,229.4,196.5,214.1z"/>
	</g>
	<g>
		<path class="st0" d="M231.1,184.3c-6.2,0-11.5-2.3-15.9-6.8c-4.4-4.3-6.6-9.6-6.6-15.9c0-6.2,2.2-11.5,6.6-15.9
			c4.4-4.4,9.7-6.6,15.9-6.6c6.2,0,11.6,2.2,16.1,6.6c4.3,4.4,6.4,9.7,6.4,15.9c0,6.3-2.1,11.6-6.4,15.9
			C242.7,182,237.3,184.3,231.1,184.3z"/>
	</g>
	<g>
		<path class="st0" d="M85,143.5c0-19.4,3.5-38.1,10.6-56.1c6.9-17.4,16.6-33,29.1-46.8c-9.3,11.9-16.3,25.1-21.2,39.5
			c-5.3,15-7.9,30.5-7.9,46.6c0,37.5,12.6,69.5,37.7,96c24.9,26.5,55,39.7,90.5,39.7c17.1,0,33.3-3.4,48.6-10.2
			c15-6.5,28.3-15.6,40-27.4l29.8,32.2c-14,12.5-29.7,22.1-47.2,28.9c-18,7.1-36.7,10.6-56.3,10.6c-42.5,0-78.7-14.9-108.6-44.8
			C100,222,85,185.9,85,143.5z"/>
	</g>
	<g>
		<path class="st1" d="M371.3,46.6c32.1,31.2,48.1,68.8,48.1,112.8c0,23.7-5.1,46.1-15.2,67.3c-9.9,20.5-23.6,38.1-41.3,53l-0.2-0.4
			c13.7-12.8,24.3-27.7,31.8-44.6c7.8-17.8,11.7-36.4,11.7-55.9c0-38.1-13.4-70.6-40.2-97.3c-26.8-26.9-59.2-40.4-97.1-40.4
			c-17.5,0-34.4,3.2-50.5,9.7c-15.8,6.2-29.9,15-42.4,26.5l-32-34.7c15-13.5,31.9-24,50.5-31.3C214.1,3.8,234.4,0,255.4,0
			C300.7,0,339.4,15.5,371.3,46.6z"/>
	</g>
	<g>
		<path class="st2" d="M259.2,82.6c32.7,0,60.6,11.6,83.7,34.7c23.3,23,34.9,50.8,34.9,83.4c0,15.5-2.9,30.2-8.6,44.2
			c-5.4,13.7-13.2,25.9-23.4,36.6c7.5-9.1,13.3-19.1,17.4-30c4.3-11.5,6.4-23.3,6.4-35.5c0-28.3-10-52.4-30-72.4
			c-19.9-19.9-44-29.8-72.4-29.8c-12.7,0-24.9,2.3-36.6,6.8c-11.5,4.4-21.8,10.7-30.9,18.8l-22.3-24.1
			c10.9-10.3,23.2-18.3,37.1-24.1C228.6,85.4,243.6,82.6,259.2,82.6z"/>
	</g>
</g>
</svg>
