<?xml version="1.0" encoding="utf-8"?>
<!-- Generator: Adobe Illustrator 26.0.1, SVG Export Plug-In . SVG Version: 6.00 Build 0)  -->
<svg version="1.1" id="Layer_1" xmlns="http://www.w3.org/2000/svg" xmlns:xlink="http://www.w3.org/1999/xlink" x="0px" y="0px"
	 viewBox="0 0 500 252.9" style="enable-background:new 0 0 500 252.9;" xml:space="preserve">
<style type="text/css">
	.st0{fill:url(#SVGID_1_);}
	.st1{fill:url(#SVGID_00000036959690419112810460000008542000670514279097_);}
</style>
<g>
	<linearGradient id="SVGID_1_" gradientUnits="userSpaceOnUse" x1="0" y1="180.5353" x2="143.5434" y2="180.5353">
		<stop  offset="3.513558e-04" style="stop-color:#969696"/>
		<stop  offset="0.1706" style="stop-color:#696969"/>
		<stop  offset="0.3413" style="stop-color:#434343"/>
		<stop  offset="0.5117" style="stop-color:#262626"/>
		<stop  offset="0.6796" style="stop-color:#111111"/>
		<stop  offset="0.8438" style="stop-color:#040404"/>
		<stop  offset="1" style="stop-color:#000000"/>
	</linearGradient>
	<path class="st0" d="M0,252.9c23.6-17.3,50.9-43.9,82-44.1c6.8,0,13.6,1.4,20.4,1.4c33.5,0.1,26.1-37.1,24.1-59.5
		c-1.9-21.5,6.8-32.3,17-42.5L0,252.9z"/>
	
		<linearGradient id="SVGID_00000023238681842402620700000016319461700795191724_" gradientUnits="userSpaceOnUse" x1="89.5509" y1="81.2999" x2="251.118" y2="81.2999">
		<stop  offset="3.513558e-04" style="stop-color:#969696"/>
		<stop  offset="0.4713" style="stop-color:#484848"/>
		<stop  offset="0.8268" style="stop-color:#141414"/>
		<stop  offset="1" style="stop-color:#000000"/>
	</linearGradient>
	<path style="fill:url(#SVGID_00000023238681842402620700000016319461700795191724_);" d="M251.1,0c-13.4,12.7-52.7,50.9-73.5,58.1
		c-18.8,6.6-50-2.7-64.3,7.4c-12.8,9-8.8,32.2-6.8,54.6c1.9,21.5-6.8,32.3-17,42.5c0,0,0,0,0,0L251.1,0z"/>
	<g>
		<g>
			<g>
				<g>
					<path d="M226.1,149.6c0-1.1-0.4-2.1-1.2-2.9c-1.3-1.5-3.2-2.2-5.5-2.2c-1.3,0-2.6,0.3-3.8,0.9c-1.9,1-2.8,2.4-2.8,4.2
						c0,0.3,0.1,0.6,0.2,1c0.5,1,2.3,2.1,5.3,3.3c3.7,1.5,5.9,2.4,6.7,2.7c3.8,1.9,5.6,4.2,5.6,7c0,2-0.9,3.8-2.5,5.5
						c-2.3,2.2-5.2,3.4-8.7,3.4c-3,0-5.7-0.9-7.9-2.6c-2.2-1.8-3.3-3.9-3.3-6.3h3.7c0,1.1,0.5,2.1,1.4,3c1.5,1.4,3.5,2.1,6.1,2.1
						c1.6,0,3.1-0.3,4.4-1c2-1,3-2.4,3-4.1c0-0.3-0.1-0.7-0.3-1c-0.5-1.1-2.3-2.2-5.3-3.4c-3.7-1.4-5.9-2.3-6.6-2.7
						c-3.8-1.9-5.6-4.2-5.6-6.9c0-2,0.7-3.9,2.2-5.5c2.1-2.2,4.8-3.4,8.1-3.4c2.7,0,5,0.8,7,2.3c2.2,1.8,3.4,3.9,3.4,6.5H226.1z"/>
					<path d="M273.8,172.5h-4.1l1.1-2.6l12.1-28l0.5-1.1h2.4l0.5,1.1l12.1,28l1.1,2.6h-4.1l-0.5-1.1l-10.4-24l-10.4,24L273.8,172.5z
						"/>
					<path d="M364.8,170.1l0.7,2.4h-3.9l-0.4-1.4c-1-3.4-2-6-2.8-7.8c-1-2.1-2.3-3.7-3.8-4.8h-9.4v12.1v1.9h-3.7v-1.9v-12.1v-1.9
						l0-13.9v-1.9h1.9l11.8,0c2.4,0,4.5,0.7,6.3,2.2c2.2,1.8,3.3,4,3.3,6.7c0,1-0.2,2-0.6,2.9c-0.9,2.3-2.5,4-5,5.1
						C361.1,159.8,362.9,163.9,364.8,170.1z M349.3,154.8h6c1.1,0,2.2-0.3,3.2-0.8c1.7-1,2.6-2.4,2.6-4.2c0-1.1-0.3-2-1-2.9
						c-1.1-1.5-2.8-2.2-4.8-2.2h-10v10.3L349.3,154.8L349.3,154.8z"/>
					<path d="M408.9,172.5h-4.1l1.1-2.6l12.1-28l0.5-1.1h2.4l0.5,1.1l12.1,28l1.1,2.6h-4.1l-0.5-1.1l-10.4-24l-10.4,24L408.9,172.5z
						"/>
					<path d="M496.7,156.9c2.2,1.8,3.3,4,3.3,6.7c0,2.1-0.7,3.9-2.2,5.6c-1.9,2.2-4.3,3.3-7.3,3.3h-11.9h-1.9v-1.9v-12.1v-1.9
						l0-13.9v-1.9h1.9l10.2,0c2.4,0,4.5,0.7,6.3,2.2c2.1,1.8,3.2,4,3.2,6.6c0,2.5-1,4.6-3,6.4C495.8,156.3,496.3,156.6,496.7,156.9z
						 M488.8,154.8c1.2,0,2.3-0.3,3.3-0.9c1.7-1,2.5-2.4,2.5-4.2c0-1.1-0.4-2-1.1-2.9c-1.2-1.5-2.8-2.2-4.8-2.2h-8.3v10.3
						L488.8,154.8z M480.5,168.8l10,0c1.2,0,2.3-0.3,3.3-0.9c1.7-1,2.5-2.4,2.5-4.2c0-1.1-0.3-2-1-2.9c-1.1-1.5-2.7-2.2-4.8-2.2
						h-1.7h-8.3V168.8z"/>
				</g>
			</g>
		</g>
	</g>
	<g>
		<path d="M217,196.7v1.5h-0.8h-6.8v4.1h4.7h0.8v1.5h-0.8h-4.7v4.1h6.8h0.8v1.5h-0.8h-7.5H208v-0.8v-4.9v-1.5v-4.9v-0.8h0.8h7.5H217
			z"/>
		<path d="M233.2,209.5h-1.5v-0.8v-11.3v-0.8h1.1l0.2,0.3l6.5,9.3l0-8.9v-0.8h1.5v0.8l0,11.3v0.8h-1.1l-0.2-0.3l-6.5-9.3v8.9V209.5z
			"/>
		<path d="M264,196.7h0.8v1.5H264h-3.4v10.5v0.8h-1.5v-0.8v-10.5h-3.4h-0.8v-1.5h0.8h3.4h1.5H264z"/>
		<path d="M287.6,196.7v1.5h-0.8h-6.8v4.1h4.7h0.8v1.5h-0.8h-4.7v4.1h6.8h0.8v1.5h-0.8h-7.5h-0.8v-0.8v-4.9v-1.5v-4.9v-0.8h0.8h7.5
			H287.6z"/>
		<path d="M311.6,208.6l0.3,1h-1.6l-0.2-0.5c-0.4-1.4-0.8-2.4-1.1-3.1c-0.4-0.8-0.9-1.5-1.5-2h-3.8v4.9v0.8h-1.5v-0.8v-4.9v-0.8
			l0-5.6v-0.8h0.8l4.8,0c1,0,1.8,0.3,2.6,0.9c0.9,0.7,1.3,1.6,1.3,2.7c0,0.4-0.1,0.8-0.2,1.2c-0.4,0.9-1,1.6-2,2
			C310.1,204.4,310.9,206.1,311.6,208.6z M305.4,202.4h2.4c0.5,0,0.9-0.1,1.3-0.3c0.7-0.4,1.1-1,1.1-1.7c0-0.4-0.1-0.8-0.4-1.2
			c-0.5-0.6-1.1-0.9-2-0.9h-4v4.1L305.4,202.4L305.4,202.4z"/>
		<path d="M333.8,196.7h0.8v1.5h-0.8h-3.4v10.5v0.8h-1.5v-0.8v-10.5h-3.4h-0.8v-1.5h0.8h3.4h1.5H333.8z"/>
		<path d="M348.2,209.5h-1.6l0.5-1.1l4.9-11.3l0.2-0.5h1l0.2,0.5l4.9,11.3l0.5,1.1H357l-0.2-0.5l-4.2-9.7l-4.2,9.7L348.2,209.5z"/>
		<path d="M371.9,196.7h1.5v0.8v11.3v0.8h-1.5v-0.8v-11.3V196.7z"/>
		<path d="M389.8,209.5h-1.5v-0.8v-11.3v-0.8h1.1l0.2,0.3l6.5,9.3l0-8.9v-0.8h1.5v0.8l0,11.3v0.8h-1.1l-0.2-0.3l-6.5-9.3v8.9V209.5z
			"/>
		<path d="M414.6,209.5H413v-0.8v-11.3v-0.8h1.2l0.2,0.5l4.4,9.7l4.4-9.7l0.2-0.5h1.2v0.8l0,11.3v0.8h-1.5v-0.8l0-7.8l-3.6,8.1
			l-0.2,0.5h-1l-0.2-0.5l-3.6-8.1v7.8V209.5z"/>
		<path d="M449.1,196.7v1.5h-0.8h-6.8v4.1h4.7h0.8v1.5h-0.8h-4.7v4.1h6.8h0.8v1.5h-0.8h-7.5h-0.8v-0.8v-4.9v-1.5v-4.9v-0.8h0.8h7.5
			H449.1z"/>
		<path d="M465.3,209.5h-1.5v-0.8v-11.3v-0.8h1.1l0.2,0.3l6.5,9.3l0-8.9v-0.8h1.5v0.8l0,11.3v0.8H472l-0.2-0.3l-6.5-9.3v8.9V209.5z"
			/>
		<path d="M496,196.7h0.8v1.5H496h-3.4v10.5v0.8h-1.5v-0.8v-10.5h-3.4H487v-1.5h0.8h3.4h1.5H496z"/>
	</g>
</g>
</svg>
