<?xml version="1.0" encoding="utf-8"?>
<!-- Generator: Adobe Illustrator 26.0.2, SVG Export Plug-In . SVG Version: 6.00 Build 0)  -->
<svg version="1.1" id="Layer_1" xmlns="http://www.w3.org/2000/svg" xmlns:xlink="http://www.w3.org/1999/xlink" x="0px" y="0px"
	 viewBox="0 0 500 170.8" style="enable-background:new 0 0 500 170.8;" xml:space="preserve">
<style type="text/css">
	.st0{fill:#353535;}
	.st1{fill:#411E50;}
	.st2{fill:#663A91;}
</style>
<g>
	<polygon class="st0" points="41.7,118.9 41.7,126.6 25.1,126.6 25.1,169.6 16.6,169.6 16.6,126.6 0,126.6 0,118.9 	"/>
	<polygon class="st0" points="106.4,118.9 106.4,126 77.3,126 77.3,141.1 100.8,141.1 100.8,148.2 77.3,148.2 77.3,162.5 
		106.4,162.5 106.4,169.6 68.8,169.6 68.8,118.9 	"/>
	<polygon class="st0" points="134.9,118.9 143.4,118.9 169.7,155.5 169.7,118.9 178.2,118.9 178.2,169.6 169.7,169.6 143.4,133 
		143.4,169.6 134.9,169.6 	"/>
	<path class="st0" d="M202.1,169.6l21.9-50.6h8.7l21.8,50.6h-8.7l-6.2-14.3H217l-6.2,14.3H202.1z M236.7,148.3l-8.4-19.3l-8.4,19.3
		H236.7z"/>
	<path class="st0" d="M301.4,118.1c8.3,0,15.3,3.1,20,8.4l-6.4,5.4c-3.2-3.5-7.9-5.5-13.5-5.5c-10.7,0-18,7.3-18,18.1
		c0,10.8,7.3,18.1,18,18.1c5.6,0,10.3-2,13.5-5.5l6.4,5.4c-4.6,5.3-11.6,8.4-20,8.4c-15.6,0-26.3-10.7-26.3-26.3
		C275.1,128.8,285.8,118.1,301.4,118.1"/>
	<rect x="348.4" y="118.9" class="st0" width="8.5" height="50.6"/>
	<polygon class="st0" points="425.7,118.9 425.7,126.6 409.1,126.6 409.1,169.6 400.6,169.6 400.6,126.6 384,126.6 384,118.9 	"/>
	<polygon class="st0" points="449.7,118.9 458.9,118.9 474.8,145 490.7,118.9 500,118.9 479.1,153.6 479.1,169.6 470.6,169.6 
		470.6,153.6 	"/>
	<path class="st1" d="M265.8,25.3l9.5-9.5l-6.3-6.3L259.5,0l-86.7,86.7l11.8,0c4.6,0,8.9-1.8,12.2-5.1l62.7-62.7L265.8,25.3z"/>
	<path class="st2" d="M303.4,62.8l9.5-9.5l-28.1-28.1l-9.5,9.5l9.3,9.3L242,86.7l11.3,0.2c4.7,0.1,9.2-1.7,12.5-5L294,53.5
		L303.4,62.8z"/>
	<path class="st1" d="M322.2,62.7l-9.5,9.5l9.4,9.4c3.2,3.2,7.6,5.1,12.2,5.1l11.7,0L322.2,62.7z"/>
</g>
</svg>
