<?xml version="1.0" encoding="utf-8"?>
<!-- Generator: Adobe Illustrator 26.0.1, SVG Export Plug-In . SVG Version: 6.00 Build 0)  -->
<svg version="1.1" id="Layer_1" xmlns="http://www.w3.org/2000/svg" xmlns:xlink="http://www.w3.org/1999/xlink" x="0px" y="0px"
	 viewBox="0 0 344.9 185.7" style="enable-background:new 0 0 344.9 185.7;" xml:space="preserve">
<style type="text/css">
	.st0{fill:#0E0E0D;}
	.st1{fill:#FA100D;}
</style>
<g>
	<g>
		<g>
			<g>
				<path class="st0" d="M101.9,1.6l-9.3,36.7l-20.4,0L34.6,185.6L0,185.7L37.5,38.4l-20.5,0l9.3-36.7L101.9,1.6z"/>
				<path class="st0" d="M105.4,1.6l24.4-0.1c16.3,0,27.1,0.8,32.4,2.5c5.3,1.7,8.9,6.2,10.7,13.3c1.8,7.1,0.7,18.5-3.3,34.2
					c-3.6,14.3-7.4,23.9-11.2,28.8c-3.8,4.9-9.6,7.9-17.4,8.9c6.2,2.3,10,5.5,11.3,9.4c1.3,3.9,1.9,7.6,1.6,10.9
					c-0.3,3.3-2.3,12.4-6.1,27.3l-12.4,48.6l-31.9,0.1l15.6-61.2c2.5-9.9,3.5-16,3-18.3c-0.5-2.4-3.2-3.5-7.9-3.5l-21.2,83.1
					l-34.6,0.1L105.4,1.6z M132,32.9l-10.4,40.9c3.9,0,6.8-0.7,8.7-2.2c1.9-1.5,3.9-6.3,6-14.4l2.6-10.1c1.5-5.8,1.7-9.6,0.7-11.5
					C138.6,33.8,136,32.9,132,32.9z"/>
				<path class="st0" d="M251,1.3l-27.2,184l-35.1,0.1l6.6-33.1l-12.6,0l-10.3,33.1l-35.6,0.1l64.5-184L251,1.3z M202.6,119.8
					c3.7-20.9,8.5-46.7,14.4-77.5c-12.4,35.4-21.2,61.2-26.4,77.6L202.6,119.8z"/>
				<path class="st0" d="M272.4,1.3l34.7-0.1c9.4,0,16.3,1,20.9,3c4.5,2,7.6,5,9.1,8.8c1.6,3.9,2.1,8.5,1.6,14
					c-0.5,5.5-2.2,14-5.1,25.5l-4.1,16c-3,11.7-6,20.3-9.1,25.7c-3.1,5.4-7.4,9.5-12.7,12.4c-5.4,2.9-11.8,4.3-19.4,4.3l-9.2,0
					l-18.9,74.2l-34.6,0.1L272.4,1.3z M299,32.6l-11.9,46.9c0.9,0.1,1.8,0.1,2.5,0.1c3.1,0,5.6-1.1,7.3-3.3
					c1.8-2.2,3.5-6.7,5.2-13.5l3.9-15.1c1.6-6.3,1.9-10.4,1-12.3C306.1,33.5,303.4,32.6,299,32.6z"/>
			</g>
		</g>
		<g>
			<g>
				<path class="st1" d="M107.9,0.4l-9.3,36.9l-20.5,0L40.6,185.6L6,185.7L43.5,37.4l-20.5,0l9.3-36.9L107.9,0.4z"/>
				<path class="st1" d="M111.4,0.4l24.4,0c16.3,0,27.1,0.8,32.4,2.6c5.3,1.7,8.9,6.2,10.7,13.4c1.8,7.2,0.7,18.7-3.3,34.4
					c-3.6,14.4-7.4,24.1-11.2,29c-3.8,5-9.6,7.9-17.4,8.9c6.2,2.4,10,5.5,11.3,9.5c1.3,4,1.9,7.6,1.6,10.9
					c-0.3,3.3-2.3,12.5-6.1,27.4l-12.4,48.9l-31.9,0.1l15.6-61.6c2.5-9.9,3.5-16.1,3-18.4c-0.5-2.4-3.2-3.5-7.9-3.5l-21.1,83.6
					l-34.6,0.1L111.4,0.4z M138,31.9l-10.4,41.1c3.9,0,6.8-0.8,8.7-2.2c1.9-1.5,3.9-6.3,6-14.5l2.6-10.2c1.5-5.9,1.7-9.7,0.7-11.5
					C144.6,32.8,142,31.9,138,31.9z"/>
				<path class="st1" d="M257,0.1l-27.2,185.2l-35.1,0.1l6.6-33.3l-12.6,0l-10.3,33.3l-35.6,0.1L207.2,0.2L257,0.1z M208.6,119.3
					c3.7-21,8.5-47,14.4-78c-12.4,35.6-21.2,61.6-26.4,78.1L208.6,119.3z"/>
				<path class="st1" d="M278.4,0.1L313.1,0c9.4,0,16.4,1,20.9,3c4.5,2.1,7.6,5,9.1,8.9c1.6,3.9,2.1,8.6,1.6,14.1
					c-0.5,5.5-2.2,14.1-5.1,25.7l-4.1,16.1c-3,11.8-6,20.4-9.1,25.8c-3.1,5.4-7.4,9.6-12.7,12.5c-5.4,2.9-11.8,4.4-19.4,4.4l-9.2,0
					l-18.9,74.7l-34.6,0.1L278.4,0.1z M305,31.6l-11.9,47.2c0.9,0.1,1.8,0.1,2.5,0.1c3.1,0,5.6-1.1,7.3-3.3
					c1.8-2.2,3.5-6.7,5.2-13.6l3.9-15.2c1.6-6.3,1.9-10.5,1-12.4C312.1,32.6,309.4,31.6,305,31.6z"/>
			</g>
		</g>
	</g>
</g>
</svg>
