<?xml version="1.0" encoding="utf-8"?>
<!-- Generator: Adobe Illustrator 26.0.1, SVG Export Plug-In . SVG Version: 6.00 Build 0)  -->
<svg version="1.1" id="Layer_1" xmlns="http://www.w3.org/2000/svg" xmlns:xlink="http://www.w3.org/1999/xlink" x="0px" y="0px"
	 viewBox="0 0 496.3 500" style="enable-background:new 0 0 496.3 500;" xml:space="preserve">
<style type="text/css">
	.st0{fill:#070606;}
	.st1{font-family:'GESSTextMedium-Medium';}
	.st2{font-size:129.1156px;}
	.st3{fill-rule:evenodd;clip-rule:evenodd;fill:#0091D9;}
	.st4{fill-rule:evenodd;clip-rule:evenodd;fill:#409D27;}
	.st5{fill-rule:evenodd;clip-rule:evenodd;fill:#B18147;}
</style>
<g>
	<text transform="matrix(1 0 0 1 237.8875 446.417)" class="st0 st1 st2"> </text>
	<g>
		<polygon class="st0" points="56.7,370.9 45.8,394.8 34,366.9 22.2,394.8 11.4,371.2 11.3,370.9 0,370.9 22.3,416.2 34,389.5 
			45.7,416.2 68,370.9 		"/>
		<path class="st0" d="M101.2,375.6c-3.4-3.8-8-5.9-12.9-5.9c-13,0-20.1,11.4-20.1,22.1c0,11,6.4,22.8,20.3,22.8
			c4.8,0,9.3-2,12.7-5.7v4.4h10v-42.4h-10V375.6z M89.7,405.5c-7.6,0-11.6-6.8-11.6-13.4c0-6.6,4-13.3,11.6-13.3
			c8.2,0,11.9,6.9,11.9,13.3C101.6,398.8,98,405.5,89.7,405.5z"/>
		<path class="st0" d="M141.6,369.7c-4.4,0-8.4,1.6-11.1,4.5v-22.9h-10v61.9h10v-19.6c0-7.3,0-14.9,8.8-14.9c6.6,0,7.7,3.2,7.7,10.4
			v24.1h10v-25C156.9,380.3,155.3,369.7,141.6,369.7z"/>
		<path class="st0" d="M197.2,375.6c-3.4-3.8-8-5.9-12.9-5.9c-13,0-20.1,11.4-20.1,22.1c0,11,6.4,22.8,20.3,22.8
			c4.8,0,9.3-2,12.7-5.7v4.4h10v-42.4h-10V375.6z M185.7,405.5c-7.6,0-11.5-6.8-11.5-13.4c0-6.6,4-13.3,11.5-13.3
			c8.2,0,11.9,6.9,11.9,13.3C197.6,398.8,193.9,405.5,185.7,405.5z"/>
		<polygon class="st0" points="228.4,355.6 218.5,355.6 218.5,370.9 214.3,370.9 214.3,380.4 218.5,380.4 218.5,413.3 228.4,413.3 
			228.4,380.4 236,380.4 236,370.9 228.4,370.9 		"/>
		<path class="st0" d="M284.2,369.7c-4.4,0-8.4,1.6-11.1,4.5v-3.3h-10v42.4h10v-19.6c0-7.3,0-14.9,8.8-14.9c6.6,0,7.7,3.2,7.7,10.4
			v24.1h10v-25C299.5,380.3,297.9,369.7,284.2,369.7z"/>
		<path class="st0" d="M338.3,398.3c-2.6,4.4-5.5,7.3-11,7.3c-6.5,0-10.4-5.5-10.9-11h30.5v-2.3c0-13.9-7.6-22.5-19.9-22.5
			c-12.8,0-20.7,8.7-20.7,22.7c0,13.1,8.6,22.2,20.8,22.2c8.3,0,15.7-4.3,19.6-11.6l0.5-1l-8.4-4.8L338.3,398.3z M317,386.4
			c1.3-4.7,5.2-7.8,10-7.8c4.9,0,8.4,2.8,9.7,7.8H317z"/>
		<path class="st0" d="M371.4,387.8c-0.6-0.3-1.2-0.5-1.8-0.8c-3.7-1.6-6.9-3-6.9-5.4c0-1.7,1.6-2.8,3.1-2.8c1.6,0,3.3,1.2,4.1,2.9
			l0.5,1.1l8.3-4.4l-0.5-1c-2.4-4.9-6.8-7.7-12-7.7c-7.1,0-13,5.7-13,12.8c0,6.1,3.8,8.7,8.3,11.1l7.4,4c1.6,1.1,2.3,1.8,2.3,3.4
			c0,2.9-2.6,4.5-5,4.5c-2.7,0-4.5-1.3-6.3-4.6l-0.5-0.9l-8.5,3.9l0.4,1c2.2,5.8,8.2,9.7,14.9,9.7c8.4,0,14.9-6.3,14.9-14.4
			C381.3,393.3,376.3,390,371.4,387.8z"/>
		<path class="st0" d="M432,369.7c-4.8,0-9.4,2.4-12.3,6.2c-2.9-4.1-6.8-6.2-11.6-6.2c-3.5,0-7,1.6-9.7,4.3v-3.2h-10v42.4h10v-20.8
			c0-6.7,0.9-13.6,7.8-13.6c5.8,0,6.2,6.2,6.2,12.1v22.4h10v-20.8c0-6.7,0.9-13.6,7.7-13.6c5.6,0,6.3,5.4,6.3,10.6v23.8h10v-25.1
			C446.4,375.9,441.5,369.7,432,369.7z"/>
		<path class="st0" d="M486.3,370.9v4.7c-3.4-3.8-8-5.9-12.9-5.9c-13,0-20.1,11.4-20.1,22.1c0,11,6.4,22.8,20.3,22.8
			c4.8,0,9.2-2,12.7-5.7v4.4h10v-42.4H486.3z M474.8,405.5c-7.6,0-11.6-6.8-11.6-13.4c0-6.6,4-13.3,11.6-13.3
			c8.2,0,11.9,6.9,11.9,13.3C486.7,398.8,483,405.5,474.8,405.5z"/>
	</g>
	<g>
		<path class="st0" d="M495.4,305.4v-12.7c0-10.6-6.9-16.9-18.5-16.9c-11.6,0-20.1,8.5-20.1,20.2c0,10.8,7.9,19.2,17.9,19.2h8.1
			l-0.1,0.5c-1,7.9-6.7,11.7-17.9,11.9c3,3.7,5.1,6.4,6.5,8.3C487.8,334.5,495.4,324.8,495.4,305.4z M476.4,305.3
			c-4.8,0-8.7-4.4-8.7-9.8c0-7.3,3.8-12.5,9.3-12.5c4,0,7.5,4.4,7.5,7.1c0,1.7,0,6.7,0.1,14.8l0,0.4H476.4z"/>
		<polygon class="st0" points="449.7,315.2 449.2,252.9 438.5,252.9 439,315.2 		"/>
		<path class="st0" d="M397.7,274.9c-8.3,0-14.7,1.8-18.9,5.4l4.1,8.3c3.1-2.4,7.9-3.5,14.5-3.5c10.6,0,17.2,6.6,19.4,19.8l0.1,0.5
			h-48.3v0.1h-45.4c-2.2,0-4.9-1-4.9-5.9l-0.1-30.6h-10.7v3.9h-0.8l-0.1-0.2c-2.5-3.1-5.9-4.7-10.3-4.7c-3.7,0-7,1.5-9.9,4.4
			c-3.6,3.5-5.5,8.7-5.5,15.5c0,10.4,4.1,15.5,12.6,15.5h14.1v0.4c0,7.7,3.7,11.4,11.2,11.4h109.1c0-11.2-2.1-20-6.3-27.1
			C416.2,279.4,408.2,274.9,397.7,274.9z M297.4,293.6c-3.6,0-5.5-1.9-5.8-5.6c-0.2-3.3,0.5-5.7,1.9-7.2c1.2-1.3,3.1-2,5.5-2
			c3.3,0,6.1,1.8,8.2,5.2l0.1,0.1l0.1,9.5H297.4z"/>
		<rect x="288.7" y="247.9" class="st0" width="9.7" height="10.3"/>
		<rect x="304.6" y="247.9" class="st0" width="9.7" height="10.3"/>
		<rect x="237.7" y="256.2" class="st0" width="9.8" height="10.3"/>
		<path class="st0" d="M248.7,301.4c-0.1-1.1-0.2-5.5-0.3-25.4h-10.8c0,1.4,0.1,3.1,0.1,5c0,1.7,0.1,3.6,0.1,5.6
			c0.1,3,0.1,6.6,0.1,10.9c0,4.8-3.1,8-7.9,8h-28c-2.2,0-4.3-1-6.2-2.9c-2.3-2.2-3.5-5-3.6-8.5l-0.1-6.3c-0.1-5-0.1-8.9-0.1-11.7
			h-10.7c0.1,14.3,0.1,21.7,0.1,22.5h0l0,0l0,0.4c-0.1,4.9-2.5,7.3-7.1,7.3c-3,0-5.5-1-7.4-3.1c-2.1-2.1-3.2-5.2-3.3-9.5l-0.1-5.2
			c-0.1-4-0.1-7.1-0.1-9.4h-10.7c0.1,5.2,0.1,12.7,0.1,19.2c0,5.2-2.4,7.9-7.1,7.9c-3.1,0-5.6-1-7.5-3.1c-1.8-1.9-2.8-4.6-3.2-8
			l0-0.5v-15.5h-10.7c0,1.4,0,4,0.1,7.6c0,4.4,0.1,10.5,0.2,18.2l0,0.4H81.2V305c0-5.3-1.8-10-5.4-13.9c-3.8-4.2-8.9-6.3-15.2-6.3
			c-12.1,0-19.7,7.7-19.7,20.2v0.4H17.5c-3.2,0-5.5-3-5.5-7.3l-0.4-44.5H0.8l0.3,49.1c0,4,1.2,7.2,3.6,9.5c2,2,4.6,3.1,7.5,3.1h31.4
			l0.1,0.2c3.8,6.6,9.6,9.8,17.7,9.8c8.6,0,14.3-3.2,17.4-9.7l0.1-0.2h56.1v-4.9l0.7,0.9c3,3.7,7,5.6,12.1,5.6l0.4,0
			c6.7-0.1,11.3-2.9,13.6-8.4l0.3-0.8l0.4,0.8c2.9,5.6,7.6,8.4,14,8.4l0.4,0c7.5-0.1,12.1-3.4,14.2-10.1l0.4-1.2l0.4,1.1
			c0.9,2.6,2.6,4.8,4.8,6.4c2,1.5,4.1,2.2,6.1,2.2h31.5C243.4,315.2,248.6,310.2,248.7,301.4L248.7,301.4z M61.6,316.5
			c-2.5,0-4.7-1-6.3-2.9c-2-2.2-2.9-5.1-2.9-8.6c0-3.5,0.9-6.4,2.6-8.5c1.6-1.9,3.7-2.9,6.2-2.9c2.5,0,4.7,1,6.3,2.9
			c2,2.2,2.9,5,2.9,8.5C70.5,312,67,316.5,61.6,316.5z"/>
	</g>
	<g>
		<path class="st3" d="M325.8,0v93c-28.9-16.8-58.8-24.6-88.7-24.7c-25.9,0-52.7,7-66.7,14.9V0H325.8z M325.8,0"/>
		<path class="st4" d="M325.8,109.6v59.6c-40.1,4.1-75.9-6.2-106.7-27.3c-14-9.6-26.1-21-35-32.2c-3.5-4.5-6.4-8.6-8.1-11.9
			c-0.2-0.4-0.4-0.7-0.5-1c0.4-0.3,0.9-0.5,1.4-0.8c3.4-1.9,8-4,13.3-5.8c13.6-4.8,29.7-7.7,46.9-7.6C267,82.5,296.9,91,325.8,109.6
			L325.8,109.6L325.8,109.6z M325.8,109.6"/>
		<path class="st5" d="M325.8,183.3v21.8H170.4V115c9.3,12.6,24.3,27.2,40.8,38.5C244.3,176.2,282.9,187.4,325.8,183.3L325.8,183.3z
			 M325.8,183.3"/>
	</g>
</g>
</svg>
