<?xml version="1.0" encoding="utf-8"?>
<!-- Generator: Adobe Illustrator 26.0.1, SVG Export Plug-In . SVG Version: 6.00 Build 0)  -->
<svg version="1.1" id="Layer_1" xmlns="http://www.w3.org/2000/svg" xmlns:xlink="http://www.w3.org/1999/xlink" x="0px" y="0px"
	 viewBox="0 0 500 288.2" style="enable-background:new 0 0 500 288.2;" xml:space="preserve">
<style type="text/css">
	.st0{fill:#E99E28;}
	.st1{fill:#E89D29;}
	.st2{fill:#030303;}
	.st3{fill:#040404;}
	.st4{fill:#0E0E0E;}
	.st5{fill:#080808;}
	.st6{fill:#090909;}
	.st7{fill:#050505;}
	.st8{fill:#294971;}
	.st9{fill:#120C0A;}
</style>
<g>
	<path class="st0" d="M172.4,151.4c-3.9,6.4-7.8,12.7-11.7,18.9c-2.7,4.3-5.4,8.6-8,13c-1,1.8-2.3,2.6-4.5,2.7
		c-4.5,0.3-9,1-13.5,1.6c-4.1,0.5-8.1,1-12.2,1.5c-4.2,0.5-8.5,1.2-12.7,1.7c-1,0.1-2.1,0.3-3.1,0.2c-6.8-0.9-13.5-1.9-20.3-2.8
		c-6.4-0.8-12.9-1.6-19.4-2.2c-1.6-0.2-2.7-0.8-3.5-2.1c-6.5-10.5-13-20.9-19.4-31.4c-0.3-0.5-0.5-1.1-0.8-1.9
		c2.9-1.2,5.8-2.5,8.7-3.7c7.8-3.2,15.6-6.4,23.3-9.6c8.2-3.4,16.3-6.7,24.5-10.1c2-0.8,3.8-1.8,5.8-2.5c0.8-0.3,1.9-0.3,2.6,0
		c7.9,3.2,15.8,6.5,23.8,9.9c10.2,4.3,20.4,8.5,30.5,12.8C165.8,148.7,169,150,172.4,151.4z"/>
	<path class="st1" d="M165.2,105.8c1.4,0.6,2.7,1.4,4.1,1.9c7.7,2.6,15.4,5,23,7.6c0.6,0.2,1.1,0.5,1.9,0.9
		c-5.5,8.8-10.8,17.4-16.3,26.2c-3.6-1.5-7-2.8-10.3-4.2c-6.3-2.6-12.5-5.2-18.8-7.8c-6.1-2.5-12.2-5.1-18.3-7.7
		c-7.5-3.1-15-6.3-22.6-9.4c-0.5-0.2-1.2-0.3-1.7-0.1c-6.7,2.8-13.3,5.6-20,8.4c-6.3,2.6-12.5,5.2-18.8,7.8
		c-7.8,3.2-15.5,6.4-23.3,9.7c-2,0.8-4.1,1.7-6.5,2.8c-5.3-8.4-10.5-16.9-16-25.7c1.7-0.7,3.2-1.3,4.8-1.8
		c6.5-2.2,13.1-4.3,19.6-6.5c1.5-0.5,3-1.1,4.5-1.6c1.3-0.5,2.6-1,3.9-1.5c0.4,0,0.9,0,1.3-0.1c3.2-1.1,6.4-2.1,9.5-3.2
		c3.7-1.3,7.3-2.8,10.9-4.2l0-0.1l0.1,0l-0.1,0c0.8-0.1,1.6,0,2.2-0.2c9.1-3,18.3-6.1,27.4-9.2c1.5-0.5,2.7-0.5,4.1,0
		c10.8,3.7,21.7,7.3,32.5,10.9c1.5,0.4,3.1,0.6,4.5,1.2c3.7,1.3,7.3,2.7,11,4.1c1.1,0.4,2.2,0.7,3.4,1
		C162.7,105.1,164,105.5,165.2,105.8z"/>
	<path class="st2" d="M5,107.2C4.8,60.9,36,19.4,81.6,7.7c36.2-9.3,68.8-0.9,96.6,24.3c15.4,14,25.3,31.5,30.1,51.7
		c2.9,12.1,3.5,24.3,1.8,36.7c-0.9,6.9-2.4,13.6-4.7,20.2c-1,2.8-3.1,3.8-5.6,2.8c-2.1-0.9-2.9-2.9-2.1-5.6c0.8-2.8,1.7-5.6,2.4-8.4
		c2.6-10.5,3.2-21.1,2.1-31.8c-2.1-20.3-9.9-38.1-23.5-53.3c-14.9-16.6-33.3-27.1-55.5-30.5c-31.5-4.9-58.9,4-81.8,26
		C27.3,53.4,18.6,70.1,14.8,89.3c-3.1,15.7-2.1,31.3,2.7,46.6c0.3,0.8,0.6,1.6,0.7,2.5c0.3,2.4-0.7,4.1-2.9,4.7
		c-2,0.6-4.1-0.4-4.9-2.7c-1-2.8-1.8-5.7-2.5-8.6C5.9,123.9,5,115.6,5,107.2z"/>
	<path class="st3" d="M331.1,42.2c2.4,0,4.9,0,7.5,0c-4.3,17.7-8.5,35.2-12.7,52.9c-3,0-5.8,0-8.7,0c-3.4-13.5-6.8-26.9-10.2-40.3
		c-0.2,0-0.3,0-0.5-0.1C303,68,299.6,81.3,296.1,95c-2.7,0-5.5,0-8.6,0c-4.2-17.4-8.4-35-12.8-53c2.6,0,4.8,0,7.1,0
		c1.3,0,1.4,1,1.6,2c1.1,5.6,2.3,11.2,3.5,16.8c1.7,8.1,3.3,16.2,5.4,24.4c3.6-14.3,7.1-28.6,10.7-43.2c2.3,0,4.4,0,6.5,0
		c1.2,0,1.5,0.9,1.7,1.9c1.5,6.3,3.1,12.6,4.6,18.9c1.7,7,3.5,14.1,5.2,21.1c0.1,0.6,0.4,1.1,0.9,1.7
		C325.1,71.2,328,56.8,331.1,42.2z"/>
	<path class="st2" d="M165.2,105.8c-1.3-0.4-2.5-0.7-3.8-1.1c-4-17.3-8.1-34.5-12.1-51.7c-27.7,0-55.2,0-82.7,0
		c-1.7,7.2-3.4,14.2-5.1,21.3c-2.4,10.1-4.8,20.3-7.1,30.4c-1.3,0.5-2.6,1-3.9,1.5c1.7-7.5,3.4-15,5-22.5
		c2.6-11.7,5.2-23.5,7.9-35.2c0.1-0.6,0.3-1.2,0.5-1.9c8.2,0,16.5,0,24.9,0c0-3.9,0-7.7,0-11.6c12.6,0,25,0,37.7,0
		c0,3.8,0,7.5,0,11.5c8.5,0,16.9,0,25.4,0C156.5,66.3,160.8,86.1,165.2,105.8z M97.3,42.7c-2.6,0-4.8,0-7,0c0,2.6,0,5.1,0,7.4
		c2.6,0,5.1,0,7.7,0c0-2.4,0-4.7,0-6.8c2.1,0,4.1,0,6.2,0c0,2.4,0,4.7,0,6.8c2.6,0,5.1,0,7.7,0c0-2.4,0-4.7,0-6.8c2.3,0,4.4,0,6.7,0
		c0,2.4,0,4.7,0,6.9c2.6,0,5.1,0,7.4,0c0-2.6,0-5.1,0-7.7c-2.4,0-4.7,0-7.2,0c0-2.5,0-4.7,0-6.9c-2.6,0-5.1,0-7.7,0
		c0,2.4,0,4.7,0,6.8c-2.3,0-4.4,0-6.7,0c0-2.4,0-4.7,0-6.8c-2.5,0-4.7,0-7.1,0C97.3,37.9,97.3,40.1,97.3,42.7z"/>
	<path class="st4" d="M107.5,0c50.9,0,94.5,34.8,105.7,84.1c4.4,19.3,3.5,38.4-2.6,57.2c-0.2,0.6-0.2,1.2-0.6,1.7
		c-0.3,0.4-0.9,0.5-1.4,0.8c-0.2-0.5-0.6-1.1-0.5-1.5c0.6-2.1,1.3-4.2,1.9-6.4c3-10.3,4.2-20.8,3.8-31.4
		c-1.1-27.6-11.3-51.3-30.7-71c-15.7-16-34.7-26.2-56.7-29.8C90.9-2.1,59.9,7.6,34,32.4C18,47.7,8.1,66.5,4,88.2
		c-3.3,17.4-2.2,34.7,3.1,51.7c0.2,0.7,0.6,1.5,0.7,2.2c0,0.4-0.3,1.1-0.6,1.2c-0.3,0.1-1-0.2-1.2-0.5c-0.3-0.5-0.5-1.1-0.6-1.7
		c-4-12.5-5.8-25.3-5.1-38.4c1.5-26.7,11.4-49.9,29.9-69.3C45.8,16.8,64.9,6.5,87.2,1.9C94.1,0.5,101-0.1,107.5,0z"/>
	<path class="st2" d="M471.7,47.8c0,16,0,31.5,0,47.3c-2.5,0-4.9,0-7.5,0c0-17.6,0-35.1,0-52.9c1.6-0.2,3.4-0.4,5.1-0.6
		c5-0.4,9.9-0.5,14.8,0.8c5.8,1.6,9.9,4.9,11.3,11c1.5,6.7-0.6,12.2-5.9,16.4c-1.4,1.1-3,2-4.8,3.2c5,7.3,10,14.5,15.2,22.2
		c-2.8,0-5.2,0-7.6,0c-0.5,0-1.1-0.4-1.4-0.8c-5.5-7.9-10.9-15.7-16.5-23.8c1.3-0.5,2.5-0.7,3.5-1.2c2.1-1,4.2-2,6-3.4
		c3.7-2.9,4.5-6.9,3.3-11.3c-1.1-4.3-4.5-6.1-8.5-6.7C476.7,47.5,474.3,47.8,471.7,47.8z"/>
	<path class="st2" d="M350.8,183c-0.6,0.2-0.8,0.3-1,0.3c-6.5,0.8-6.6,0.6-8.5-5.5c-0.7-2.2-1.3-4.4-2-6.6c-6.7,0-13.4,0-20.1,0
		c-1.2,4-2.4,7.9-3.6,12c-2.4,0-4.8,0-7.6,0c5.8-17.7,11.5-35.2,17.2-52.9c2.9,0,5.7,0,8.6,0C339.5,147.9,345.1,165.4,350.8,183z
		 M329.5,138.3c-0.2,0-0.3,0-0.5-0.1c-2.6,8.6-5.1,17.3-7.7,26.1c5.4,0,10.6,0,16,0C334.6,155.5,332,146.9,329.5,138.3z"/>
	<path class="st2" d="M347.7,95c-2.5,0-4.9,0-7.6,0c5.8-17.8,11.5-35.2,17.3-53c2.4,0,4.9,0,7.3,0c1.2,0,1.4,1,1.7,1.9
		c1.7,5.1,3.4,10.2,5,15.3c3.7,11.5,7.4,23,11.1,34.6c0.1,0.3,0.2,0.6,0.3,1.2c-2.7,0-5.2,0-7.8,0c-1.3-4.1-2.5-8.1-3.8-12.2
		c-6.7,0-13.2,0-19.9,0C350.2,86.8,349,90.9,347.7,95z M361.3,49.3c-2.8,9.3-5.3,18-8,26.9c5.4,0,10.6,0,16,0
		C366.7,67.4,364.1,58.7,361.3,49.3z"/>
	<path class="st5" d="M432.2,70.3c0,6.2,0,12,0,18.1c7.3,0,14.5,0,22,0c0,2.3,0,4.4,0,6.5c-9.8,0-19.6,0-29.4,0c0-17.5,0-35,0-52.6
		c9.6,0,19.2,0,28.9,0c0,2,0,4.1,0,6.3c-7,0-14.1,0-21.3,0c0,5.2,0,10.2,0,15.4c5.6,0,11.2,0,16.9,0c0.8,2.1,0.5,4.1,0.2,6.3
		C443.7,70.3,438,70.3,432.2,70.3z"/>
	<path d="M247.5,114.2c0,23.1,0,46.3,0,69.4c0,0.7,0.2,1.5-0.1,2c-0.4,0.7-1.1,1.6-1.8,1.8c-1.1,0.3-1.9-0.6-2.2-1.7
		c-0.1-0.6-0.1-1.2-0.1-1.8c0-46.6,0-93.2,0-139.8c0-0.3,0-0.5,0-0.8c0.1-1.7,0.8-2.6,2.2-2.5c1.2,0.1,1.9,0.9,2,2.5
		c0,0.5,0,1,0,1.5C247.5,68,247.5,91.1,247.5,114.2z"/>
	<path class="st6" d="M402.8,95.1c-2.8,0-5.1,0-7.7,0c0-15.5,0-30.8,0-46.3c-4.7,0-9.2,0-13.8,0c0-2.3,0-4.3,0-6.4
		c11.7,0,23.2,0,34.9,0c0.9,2,0.7,4.1,0.1,6.4c-4.4,0-8.8,0-13.5,0C402.8,64.2,402.8,79.5,402.8,95.1z"/>
	<path class="st3" d="M295.9,136.9c0,15.6,0,30.8,0,46.3c-2.5,0-4.8,0-7.3,0c0-15.3,0-30.6,0-46.1c-4.6,0-9.1,0-13.9,0
		c0-2.4,0-4.4,0-6.6c11.7,0,23.2,0,35,0c0,2.1,0,4.2,0,6.4C305.1,136.9,300.7,136.9,295.9,136.9z"/>
	<path class="st7" d="M395.1,183.1c-0.6,0.1-0.9,0.2-1.2,0.2c-5.8,0.7-6.3,0.5-8.7-4.8c-3.2-7-6.4-14-9.6-20.9
		c-0.7-1.4-0.7-2.6-0.1-4.1c3.3-7.6,6.4-15.2,9.7-23c2.6,0,5.1,0,7.9,0c-1.5,3.4-3,6.7-4.4,10c-1.9,4.3-3.8,8.6-5.7,12.9
		c-0.6,1.3-0.7,2.4,0,3.8c3.9,8.1,7.8,16.3,11.6,24.5C394.7,182.1,394.9,182.5,395.1,183.1z"/>
	<path class="st3" d="M353.6,183.4c3.2-6.7,6.1-12.8,8.9-18.9c1.1-2.4,2.1-4.9,3.4-7.2c0.8-1.4,0.6-2.5,0-3.8
		c-3.2-7.1-6.3-14.2-9.4-21.3c-0.2-0.5-0.4-0.9-0.6-1.7c2.7,0,5.1,0,7.8,0c1,2.5,2.1,5,3.2,7.6c2.2,5.2,4.3,10.4,6.6,15.6
		c0.5,1.2,0.6,2.2,0,3.4c-3.8,8.1-7.5,16.3-11.1,24.5c-0.5,1.2-1.2,1.8-2.4,1.8C358,183.4,356.1,183.4,353.6,183.4z"/>
	<path class="st6" d="M410.8,130.4c0,17.6,0,35,0,52.7c-2.4,0.7-4.8,0.4-7.4,0.2c0-17.6,0-35.1,0-52.8
		C405.8,130.4,408.2,130.4,410.8,130.4z"/>
	<path class="st8" d="M138.7,214c-0.3,1.4-1.4,2.1-2.8,2.2c-0.6,0.1-1.2,0-1.8,0H60.4c-0.3,0-0.7,0-1,0c-2-0.1-3.1-0.9-3.3-2.5
		c-0.3-1.7,0.3-2.5,2.2-3.5c1.2,0,2.4-0.1,3.6-0.1c24.2,0,48.3,0,72.5,0c1,0,1.9,0.3,2.9,0.5C138.9,211.2,139,212.5,138.7,214z"/>
	<path class="st8" d="M137.6,230.3c-0.8,0.2-1.6,0.6-2.3,0.6c-16.2,0-32.3,0-48.5,0c-0.8,0-1.6-0.4-2.4-0.6c-1.4-0.9-1.6-2-1.1-3.5
		c0.6-1.5,1.8-1.8,3.3-1.8c14.5,0,28.9,0,43.4,0c1.8,0,3.6,0,5.4,0c1.4,0,2.5,0.3,3.1,1.7C139.1,228.1,138.9,229.3,137.6,230.3z"/>
	<path class="st8" d="M120.8,249.8c-0.8,0.2-1.6,0.5-2.4,0.5c-13.3,0-26.6,0-40,0c-0.8,0-1.6-0.3-2.4-0.5c-1.6-0.7-1.9-1.9-1.5-3.4
		c0.4-1.5,1.5-2.2,3.1-2.2h40.1c0.6,0,1.2,0,1.8,0c1.4,0.1,2.5,0.8,2.8,2.2C122.6,247.9,122.4,249.2,120.8,249.8z"/>
	<path class="st8" d="M124.7,269.3c-0.7,0.2-1.4,0.5-2.2,0.5c-9.6,0-19.2,0-28.7,0c-0.7,0-1.4-0.3-2.2-0.5c-2.6-1.5-2.6-3.5-0.2-5.3
		c0.7-0.2,1.4-0.5,2.2-0.5c9.7,0,19.4,0,29,0c0.7,0,1.4,0.3,2.2,0.5C127.2,265.9,127.1,267.8,124.7,269.3z"/>
	<path class="st8" d="M158.2,200.5c-0.7,0.2-1.4,0.5-2.2,0.5c-9.6,0-19.2,0-28.8,0c-0.7,0-1.4-0.3-2.1-0.5c-2.3-2-2.2-3.7,0.3-5.2
		c0.7-0.1,1.4-0.4,2.2-0.4c9.5,0,19,0,28.5,0c0.7,0,1.4,0.3,2.2,0.5C160.6,196.9,160.6,198.8,158.2,200.5z"/>
	<path class="st8" d="M114.7,285.7c-0.3,1.5-1.4,2.4-3.2,2.5c-4.1,0.1-8.2,0.1-12.3,0c-1.3,0-2.6-0.7-2.9-2.1
		c-0.3-1.4-0.3-2.7,1.3-3.4c0.3-0.2,0.6-0.5,0.9-0.5c4.8,0,9.5,0.1,14.3,0.1C114.3,282.9,115,284,114.7,285.7z"/>
	<path class="st9" d="M76.2,97c0.4-0.2,0.8-0.5,1.2-0.7c9.4-3.7,18.7-7.3,28.1-11.1c1.7-0.7,3.2-0.7,4.9,0c10,4,20,7.8,30,11.8
		c0.8,0.3,2,0.2,2.2,1.5c-10.8-3.6-21.7-7.2-32.5-10.9c-1.5-0.5-2.7-0.5-4.1,0c-9.1,3.1-18.2,6.2-27.4,9.2C77.8,97.1,77,97,76.2,97z
		"/>
	<polygon class="st9" points="76.1,97.2 76.3,97 76.1,97.1 	"/>
</g>
</svg>
