<svg id="Component_16_48" data-name="Component 16 – 48" xmlns="http://www.w3.org/2000/svg" width="212.034" height="100.01" viewBox="0 0 212.034 100.01">
  <path id="Path_492" data-name="Path 492" d="M156.9,89.53l-.024,15.522-.549-.624L143.29,89.53h-6.512v26.933h7.206v-16.31l14.129,16.31H164.1V89.53Z" transform="translate(-111.659 -89.071)" fill="#7a7c81"/>
  <path id="Path_493" data-name="Path 493" d="M168.841,89.53v26.933h20.113L188.94,111H176.085l-.018-5.685,12.03-.014V99.869l-12.03-.018.018-4.86h12.591V89.53Z" transform="translate(-107.71 -89.071)" fill="#7a7c81"/>
  <g id="Group_587" data-name="Group 587" transform="translate(89.37)">
    <path id="Path_494" data-name="Path 494" d="M214.833,108.431a7.421,7.421,0,0,1-2.145,5.4c-1.858,1.864-4.815,2.892-8.328,2.892a18.052,18.052,0,0,1-9.67-2.584l-.176-.1v-6.435l.5.32c3.794,2.5,6.026,3.343,8.87,3.343,2.919,0,3.544-1.153,3.556-2.118,0-1.508-2.125-2.264-4.584-3.134-3.746-1.344-8.869-3.172-8.869-9.042,0-4.7,4.167-7.86,10.376-7.86a22.294,22.294,0,0,1,9.093,2.068l.194.086-.025,5.819-.448-.194c-3.852-1.7-6.079-2.333-8.22-2.333s-3.549.726-3.549,1.841c0,1.361,2.068,2.117,4.463,2.989a21.878,21.878,0,0,1,5.9,2.881,7.4,7.4,0,0,1,3.065,6.154" transform="translate(-193.984 -89.121)" fill="#7a7c81"/>
  </g>
  <path id="Path_495" data-name="Path 495" d="M243.434,89.53l-8.347,9.6-.233-.286-8.083-9.318h-6.2v26.933H227.8V100.581l6.646,7.692,1.311.014,6.626-7.716.02,15.893h7.23l-.024-26.933Z" transform="translate(-101.34 -89.071)" fill="#7a7c81"/>
  <path id="Path_496" data-name="Path 496" d="M265.947,105.593l3.259-8.585,3.765,9.016h-7.2Zm-.882-16.051-10.9,26.92h7.665l1.967-5.219h11.366l2.169,5.219h7.776l-11.98-26.931Z" transform="translate(-97.203 -89.071)" fill="#7a7c81"/>
  <g id="Group_588" data-name="Group 588" transform="translate(0 0.458)">
    <path id="Path_497" data-name="Path 497" d="M206.886,124.028v14.005a.828.828,0,0,1-.83.828l-5.529.026a.852.852,0,0,1-.836-.835V124.028a.835.835,0,0,1,.836-.83h5.523a.831.831,0,0,1,.835.83" transform="translate(-104.321 -85.544)" fill="#7a7c81"/>
    <path id="Path_498" data-name="Path 498" d="M239.741,138.032a.834.834,0,0,1-.835.83h-5.53a.835.835,0,0,1-.835-.83V124.027a.841.841,0,0,1,.835-.828H238.9a.827.827,0,0,1,.829.828Z" transform="translate(-100.434 -85.544)" fill="#7a7c81"/>
    <path id="Path_499" data-name="Path 499" d="M223.311,138.057a.813.813,0,0,1-.238.583.846.846,0,0,1-.6.253l-5.53-.027a.836.836,0,0,1-.83-.828V124.028a.835.835,0,0,1,.835-.83h5.517a.834.834,0,0,1,.835.83Z" transform="translate(-102.378 -85.544)" fill="#7a7c81"/>
    <path id="Path_500" data-name="Path 500" d="M323.855,169.871l-2.7.125c-6.955.314-170.777,7.682-197.374,9.36l-2.172.151c-2.047.143-4.363.308-5.714.308a1.736,1.736,0,0,1-1.475-1.714c-.036-.439,0-1.9,2.091-2.272a12.751,12.751,0,0,1,1.5-.176l.155-.012c27.22-1.834,120.079-7.815,172.189-7.815,15.149,0,25.533.514,30.863,1.544Z" transform="translate(-114.413 -80.263)" fill="#7a7c81"/>
    <path id="Path_501" data-name="Path 501" d="M304.792,93.227a3.691,3.691,0,1,1-3.685-3.7,3.691,3.691,0,0,1,3.685,3.7" transform="translate(-92.757 -89.529)" fill="#7a7c81"/>
    <path id="Path_502" data-name="Path 502" d="M309.9,111.431v25.348a3.642,3.642,0,0,1-3.64,3.64H256.233a3.594,3.594,0,0,1-3.6-3.59,3.864,3.864,0,0,1,3.666-3.855h43.477a2.716,2.716,0,0,0,2.924-2.749V111.431a3.6,3.6,0,0,1,7.194,0" transform="translate(-98.052 -87.361)" fill="#7a7c81"/>
    <path id="Path_503" data-name="Path 503" d="M166.341,162.395h-19.9V142.583h15.5a4.407,4.407,0,0,1,4.4,4.408Zm28.373-23.752a3.859,3.859,0,0,0-1.231-2.43,3.687,3.687,0,0,0-2.491-1h-51.75v23.916H124.93a3.1,3.1,0,0,1-3.087-3.09V93.128a3.6,3.6,0,1,0-7.194,0V162.59a3.726,3.726,0,0,0,3.729,3.716H139.23l.05.264a3.483,3.483,0,0,0,3.441,3.019H173.53V142.583h17.6a3.595,3.595,0,0,0,3.584-3.941" transform="translate(-114.385 -89.529)" fill="#7a7c81"/>
  </g>
</svg>
