<?xml version="1.0" encoding="utf-8"?>
<!-- Generator: Adobe Illustrator 26.0.1, SVG Export Plug-In . SVG Version: 6.00 Build 0)  -->
<svg version="1.1" id="Layer_1" xmlns="http://www.w3.org/2000/svg" xmlns:xlink="http://www.w3.org/1999/xlink" x="0px" y="0px"
	 viewBox="0 0 500 235.8" style="enable-background:new 0 0 500 235.8;" xml:space="preserve">
<style type="text/css">
	.st0{fill:#675C60;}
</style>
<g>
	<polygon class="st0" points="106.2,1.1 106.2,37.5 104.9,36.1 74.3,1.1 59,1.1 59,64.3 75.9,64.3 75.9,26 109.1,64.3 123.1,64.3 
		123.1,1.1 	"/>
	<polygon class="st0" points="143.5,1.1 143.5,64.3 190.8,64.3 190.7,51.5 160.5,51.5 160.5,38.2 188.7,38.1 188.7,25.4 160.5,25.3 
		160.5,13.9 190.1,13.9 190.1,1.1 	"/>
	<g>
		<path class="st0" d="M258.8,45.3c0,5-1.7,9.4-5,12.7c-4.4,4.4-11.3,6.8-19.6,6.8c-11,0-16.4-2.8-22.7-6.1l-0.4-0.2V43.4l1.2,0.8
			c8.9,5.9,14.2,7.8,20.8,7.8c6.9,0,8.3-2.7,8.3-5c0-3.5-5-5.3-10.8-7.4c-8.8-3.2-20.8-7.4-20.8-21.2c0-11,9.8-18.5,24.4-18.5
			c7,0,13.3,1.5,21.3,4.9l0.5,0.2L256,18.7l-1.1-0.5c-9-4-14.3-5.5-19.3-5.5c-5.1,0-8.3,1.7-8.3,4.3c0,3.2,4.9,5,10.5,7
			c4.4,1.6,9.7,3.6,13.9,6.8C255.7,34.1,258.8,38.6,258.8,45.3"/>
	</g>
	<polygon class="st0" points="333.6,1.1 314,23.6 313.5,23 294.5,1.1 280,1.1 280,64.3 296.9,64.3 296.9,27 312.5,45.1 315.6,45.1 
		331.2,27 331.2,64.3 348.2,64.3 348.1,1.1 	"/>
	<path class="st0" d="M396.2,38.8l7.7-20.2l8.8,21.2h-16.9L396.2,38.8z M394.1,1.1l-25.6,63.2h18l4.6-12.3h26.7l5.1,12.3h18.3
		L413.1,1.1L394.1,1.1z"/>
	<path class="st0" d="M241.9,91.8v33c0,1.1-0.9,2-2,2l-13,0.1c-0.5,0-1-0.2-1.4-0.6c-0.4-0.4-0.6-0.9-0.6-1.4V91.8c0-1.1,0.9-2,2-2
		h13C241,89.9,241.9,90.7,241.9,91.8"/>
	<path class="st0" d="M328.5,124.9c0,1.1-0.9,2-2,2h-13c-1.1,0-2-0.9-2-2v-33c0-1.1,0.9-2,2-2h13c1.1,0,2,0.9,2,2L328.5,124.9z"/>
	<path class="st0" d="M285.2,124.9c0,0.5-0.2,1-0.6,1.4c-0.4,0.4-0.9,0.6-1.4,0.6l-13-0.1c-1.1,0-2-0.9-2-2v-33c0-1.1,0.9-2,2-2h13
		c1.1,0,2,0.9,2,2L285.2,124.9z"/>
	<path class="st0" d="M493.9,212.4l-6.4,0.3c-16.4,0.7-402.7,18.1-465.4,22.1l-5.1,0.4c-4.8,0.3-10.3,0.7-13.5,0.7
		c-1.7,0-3.3-1.8-3.5-4c-0.1-1,0-4.5,4.9-5.4c1.1-0.2,2.2-0.3,3.5-0.4l0.4,0c64.2-4.3,283.2-18.4,406-18.4c35.7,0,60.2,1.2,72.8,3.6
		L493.9,212.4z"/>
	<path class="st0" d="M500,9.8c0,4.8-3.9,8.7-8.7,8.7c-4.8,0-8.7-3.9-8.7-8.7c0-4.8,3.9-8.7,8.7-8.7C496.1,1.1,500,5,500,9.8"/>
	<path class="st0" d="M499.6,57.8v59.8c0,4.7-3.8,8.6-8.6,8.6H373c-4.7,0-8.5-3.8-8.5-8.5c0-4.8,4-9.1,8.6-9.1h102.5
		c4.1,0,6.9-2.7,6.9-6.5V57.8c0-4.7,3.8-8.5,8.5-8.5C495.7,49.4,499.6,53.2,499.6,57.8"/>
	<path class="st0" d="M122.5,172.9H75.6v-46.7h36.6c5.7,0,10.4,4.7,10.4,10.4V172.9z M189.4,116.9c-0.2-2.2-1.3-4.3-2.9-5.7
		c-1.6-1.5-3.7-2.4-5.9-2.4h-122v56.4H24.9c-4,0-7.3-3.3-7.3-7.3V9.6c0-4.7-3.8-8.5-8.5-8.5c-4.7,0-8.5,3.8-8.5,8.5v163.8
		c0,4.8,4,8.8,8.8,8.8h49.2l0.1,0.6c0.6,4.1,4,7.1,8.1,7.1h72.7v-63.7H181c2.4,0,4.7-1,6.3-2.8C188.9,121.7,189.7,119.3,189.4,116.9
		"/>
</g>
</svg>
